<svg width="24" height="24" viewBox="0 0 24 24" fill="none" xmlns="http://www.w3.org/2000/svg">
<path d="M12 2C12.5523 2 13 2.44772 13 3V21C13 21.5523 12.5523 22 12 22C11.4477 22 11 21.5523 11 21V3C11 2.44772 11.4477 2 12 2Z" fill="black"/>
<path d="M7.5 13C8.32843 13 9 13.6716 9 14.5V17.5C9 18.3284 8.32843 19 7.5 19H5.5C4.67157 19 4 18.3284 4 17.5V14.5C4 13.6716 4.67157 13 5.5 13H7.5Z" fill="black"/>
<path d="M18.5 13C19.3284 13 20 13.6716 20 14.5V17.5C20 18.3284 19.3284 19 18.5 19H16.5C15.6716 19 15 18.3284 15 17.5V14.5C15 13.6716 15.6716 13 16.5 13H18.5Z" fill="black"/>
<path d="M7.5 5C8.32843 5 9 5.67157 9 6.5V9.5C9 10.3284 8.32843 11 7.5 11H3.5C2.67157 11 2 10.3284 2 9.5V6.5C2 5.67157 2.67157 5 3.5 5H7.5Z" fill="black"/>
<path d="M20.5 5C21.3284 5 22 5.67157 22 6.5V9.5C22 10.3284 21.3284 11 20.5 11H16.5C15.6716 11 15 10.3284 15 9.5V6.5C15 5.67157 15.6716 5 16.5 5H20.5Z" fill="black"/>
</svg>
