<svg width="24" height="24" viewBox="0 0 24 24" fill="none" xmlns="http://www.w3.org/2000/svg">
<path d="M2 21C2 20.4477 2.44772 20 3 20H21C21.5523 20 22 20.4477 22 21C22 21.5523 21.5523 22 21 22H3C2.44772 22 2 21.5523 2 21Z" fill="black"/>
<path d="M13 11.5C13 10.6716 13.6716 10 14.5 10H17.5C18.3284 10 19 10.6716 19 11.5V16.5C19 17.3284 18.3284 18 17.5 18H14.5C13.6716 18 13 17.3284 13 16.5V11.5Z" fill="black"/>
<path d="M5 3.5C5 2.67157 5.67157 2 6.5 2H9.5C10.3284 2 11 2.67157 11 3.5V16.5C11 17.3284 10.3284 18 9.5 18H6.5C5.67157 18 5 17.3284 5 16.5V3.5Z" fill="black"/>
</svg>
