<svg width="24" height="24" viewBox="0 0 24 24" fill="none" xmlns="http://www.w3.org/2000/svg">
<path d="M2 12C2 11.4477 2.44772 11 3 11H21C21.5523 11 22 11.4477 22 12C22 12.5523 21.5523 13 21 13H3C2.44772 13 2 12.5523 2 12Z" fill="black"/>
<path d="M13 16.5C13 15.6716 13.6716 15 14.5 15H17.5C18.3284 15 19 15.6716 19 16.5V18.5C19 19.3284 18.3284 20 17.5 20H14.5C13.6716 20 13 19.3284 13 18.5V16.5Z" fill="black"/>
<path d="M13 5.5C13 4.67157 13.6716 4 14.5 4H17.5C18.3284 4 19 4.67157 19 5.5V7.5C19 8.32843 18.3284 9 17.5 9H14.5C13.6716 9 13 8.32843 13 7.5V5.5Z" fill="black"/>
<path d="M5 16.5C5 15.6716 5.67157 15 6.5 15H9.5C10.3284 15 11 15.6716 11 16.5V20.5C11 21.3284 10.3284 22 9.5 22H6.5C5.67157 22 5 21.3284 5 20.5V16.5Z" fill="black"/>
<path d="M5 3.5C5 2.67157 5.67157 2 6.5 2H9.5C10.3284 2 11 2.67157 11 3.5V7.5C11 8.32843 10.3284 9 9.5 9H6.5C5.67157 9 5 8.32843 5 7.5V3.5Z" fill="black"/>
</svg>
