<svg width="24" height="24" viewBox="0 0 24 24" fill="none" xmlns="http://www.w3.org/2000/svg">
<path fill-rule="evenodd" clip-rule="evenodd" d="M19 2C20.6569 2 22 3.34315 22 5V19C22 20.6569 20.6569 22 19 22H5C3.34315 22 2 20.6569 2 19V5C2 3.34315 3.34315 2 5 2H19ZM10.3789 5.53418C10.19 5.01557 9.6164 4.748 9.09766 4.93652L6.24512 5.97559C5.4667 6.25894 5.06534 7.11903 5.34863 7.89746L6.38672 10.75C6.57559 11.2689 7.14903 11.5364 7.66797 11.3477C8.18687 11.1588 8.45436 10.5853 8.26562 10.0664L7.85449 8.93652C11.1279 10.2552 13.7418 12.8687 15.0615 16.1416L13.9424 15.7344C13.4234 15.5455 12.85 15.8131 12.6611 16.332C12.4724 16.851 12.7399 17.4244 13.2588 17.6133L16.1104 18.6514C16.8888 18.9347 17.7499 18.5333 18.0332 17.7549L19.0713 14.9023C19.2601 14.3834 18.9926 13.81 18.4736 13.6211C17.9547 13.4323 17.3813 13.6998 17.1924 14.2188L16.835 15.1992C15.3171 11.5832 12.4254 8.68913 8.81055 7.16895L9.78125 6.81641C10.3002 6.62751 10.5678 6.05316 10.3789 5.53418Z" fill="black"/>
</svg>
