<svg width="24" height="24" viewBox="0 0 24 24" fill="none" xmlns="http://www.w3.org/2000/svg">
<path fill-rule="evenodd" clip-rule="evenodd" d="M19 2C20.6569 2 22 3.34315 22 5V19C22 20.6569 20.6569 22 19 22H5C3.34315 22 2 20.6569 2 19V5C2 3.34315 3.34315 2 5 2H19ZM7 6C6.44772 6 6 6.44772 6 7C6 7.55228 6.44772 8 7 8C7.55228 8 8.00098 7.55228 8.00098 7C8.00098 6.44772 7.55228 6 7 6ZM10 6C9.44772 6 9 6.44772 9 7C9 7.55228 9.44772 8 10 8C10.5523 8 11.001 7.55228 11.001 7C11.001 6.44772 10.5523 6 10 6ZM13 6C12.4477 6 12 6.44772 12 7C12 7.55228 12.4477 8 13 8H17C17.5523 8 18 7.55228 18 7C18 6.44772 17.5523 6 17 6H13Z" fill="black"/>
</svg>
