<svg width="24" height="24" viewBox="0 0 24 24" fill="none" xmlns="http://www.w3.org/2000/svg">
<path fill-rule="evenodd" clip-rule="evenodd" d="M20 2C21.1046 2 22 2.89543 22 4V6C22 6.73976 21.5971 7.3835 21 7.72949V19C21 20.6569 19.6569 22 18 22H6C4.34315 22 3 20.6569 3 19V7.72949C2.4029 7.3835 2 6.73976 2 6V4C2 2.89543 2.89543 2 4 2H20ZM10 10C9.44772 10 9 10.4477 9 11C9 11.5523 9.44772 12 10 12H14C14.5523 12 15 11.5523 15 11C15 10.4477 14.5523 10 14 10H10ZM4 6H20V4H4V6Z" fill="black"/>
</svg>
