<svg width="24" height="24" viewBox="0 0 24 24" fill="none" xmlns="http://www.w3.org/2000/svg">
<path fill-rule="evenodd" clip-rule="evenodd" d="M4.99994 2C3.34308 2 1.99994 3.34315 1.99994 5V19C1.99994 20.6569 3.34308 22 4.99994 22H18.9999C20.6568 22 21.9999 20.6569 21.9999 19V5C21.9999 3.34315 20.6568 2 18.9999 2H4.99994ZM13.9999 7C14.5522 7 14.9999 7.44772 14.9999 8C14.9999 8.55228 14.5522 9 13.9999 9H10.414L16.707 15.293C17.0975 15.6835 17.0975 16.3165 16.707 16.707C16.3164 17.0976 15.6834 17.0976 15.2929 16.707L8.99994 10.4141V14C8.99994 14.5523 8.55222 15 7.99994 15C7.44765 15 6.99994 14.5523 6.99994 14V8.5C6.99994 7.67157 7.67151 7 8.49994 7H13.9999Z" fill="black"/>
</svg>
