<svg width="24" height="24" viewBox="0 0 24 24" fill="none" xmlns="http://www.w3.org/2000/svg">
<path fill-rule="evenodd" clip-rule="evenodd" d="M2 12C2 6.47715 6.47715 2 12 2C17.5228 2 22 6.47715 22 12C22 17.5228 17.5228 22 12 22C6.47715 22 2 17.5228 2 12ZM7.29297 10.293C6.90244 10.6835 6.90244 11.3165 7.29297 11.707C7.68349 12.0976 8.31651 12.0976 8.70703 11.707L11 9.41406V17C11 17.5523 11.4477 18 12 18C12.5523 18 13 17.5523 13 17V9.41406L15.293 11.707C15.6835 12.0976 16.3165 12.0976 16.707 11.707C17.0976 11.3165 17.0976 10.6835 16.707 10.293L13.0605 6.64648C12.4748 6.06075 11.5252 6.06075 10.9395 6.64648L7.29297 10.293Z" fill="black"/>
</svg>
