<svg width="24" height="24" viewBox="0 0 24 24" fill="none" xmlns="http://www.w3.org/2000/svg">
<path d="M19 22C20.6569 22 22 20.6569 22 19V5C22 3.34315 20.6569 2 19 2H5C3.34315 2 2 3.34315 2 5V19C2 20.6569 3.34315 22 5 22H19ZM10 17C9.44772 17 9 16.5523 9 16C9 15.4477 9.44772 15 10 15H13.5859L7.29297 8.70703C6.90244 8.31651 6.90244 7.68349 7.29297 7.29297C7.68349 6.90244 8.31651 6.90244 8.70703 7.29297L15 13.5859V10C15 9.44772 15.4477 9 16 9C16.5523 9 17 9.44772 17 10V15.5C17 16.3284 16.3284 17 15.5 17H10Z" fill="black"/>
</svg>
