<svg width="24" height="24" viewBox="0 0 24 24" fill="none" xmlns="http://www.w3.org/2000/svg">
<path fill-rule="evenodd" clip-rule="evenodd" d="M19.0711 19.0711C15.1658 22.9763 8.83418 22.9763 4.92893 19.0711C1.02369 15.1658 1.02369 8.83418 4.92893 4.92893C8.83418 1.02369 15.1658 1.02369 19.0711 4.92893C22.9763 8.83418 22.9763 15.1658 19.0711 19.0711ZM14.1213 16.5354C14.6736 16.5354 15.1212 16.0878 15.1212 15.5355C15.1212 14.9832 14.6736 14.5356 14.1213 14.5356H10.8786L16.2426 9.17157C16.6332 8.78105 16.6332 8.14788 16.2426 7.75736C15.8521 7.36684 15.219 7.36684 14.8284 7.75736L9.46436 13.1214V9.87868C9.46436 9.3264 9.01675 8.87879 8.46447 8.87879C7.91218 8.87879 7.46457 9.3264 7.46457 9.87868V15.0356C7.4646 15.864 8.13603 16.5354 8.96441 16.5354H14.1213Z" fill="black"/>
</svg>
