<svg width="24" height="24" viewBox="0 0 24 24" fill="none" xmlns="http://www.w3.org/2000/svg">
<path fill-rule="evenodd" clip-rule="evenodd" d="M19 2C20.6569 2 22 3.34315 22 5V19C22 20.6569 20.6569 22 19 22H5C3.34315 22 2 20.6569 2 19V5C2 3.34315 3.34315 2 5 2H19ZM10 7C9.44772 7 9 7.44772 9 8C9 8.55228 9.44772 9 10 9H13.5859L7.29297 15.293C6.90244 15.6835 6.90244 16.3165 7.29297 16.707C7.68349 17.0976 8.31651 17.0976 8.70703 16.707L15 10.4141V14C15 14.5523 15.4477 15 16 15C16.5523 15 17 14.5523 17 14V8.5C17 7.67157 16.3284 7 15.5 7H10Z" fill="black"/>
</svg>
