<svg width="24" height="24" viewBox="0 0 24 24" fill="none" xmlns="http://www.w3.org/2000/svg">
<path fill-rule="evenodd" clip-rule="evenodd" d="M4.92893 4.92893C8.83418 1.02369 15.1658 1.02369 19.0711 4.92893C22.9763 8.83418 22.9763 15.1658 19.0711 19.0711C15.1658 22.9763 8.83418 22.9763 4.92893 19.0711C1.02369 15.1658 1.02369 8.83418 4.92893 4.92893ZM9.87868 7.46457C9.3264 7.46457 8.87879 7.91218 8.87879 8.46447C8.87879 9.01675 9.3264 9.46436 9.87868 9.46436H13.1214L7.75736 14.8284C7.36684 15.219 7.36684 15.8521 7.75736 16.2426C8.14788 16.6332 8.78105 16.6332 9.17157 16.2426L14.5356 10.8786V14.1213C14.5356 14.6736 14.9832 15.1212 15.5355 15.1212C16.0878 15.1212 16.5354 14.6736 16.5354 14.1213V8.96441C16.5354 8.13603 15.864 7.4646 15.0356 7.46457H9.87868Z" fill="black"/>
</svg>
