<svg width="24" height="24" viewBox="0 0 24 24" fill="none" xmlns="http://www.w3.org/2000/svg">
<path fill-rule="evenodd" clip-rule="evenodd" d="M19.0711 4.92893C22.9763 8.83418 22.9763 15.1658 19.0711 19.0711C15.1658 22.9763 8.83418 22.9763 4.92893 19.0711C1.02369 15.1658 1.02369 8.83418 4.92893 4.92893C8.83418 1.02369 15.1658 1.02369 19.0711 4.92893ZM16.5354 9.87868C16.5354 9.3264 16.0878 8.87879 15.5355 8.87879C14.9832 8.87879 14.5356 9.3264 14.5356 9.87868V13.1214L9.17157 7.75736C8.78105 7.36684 8.14788 7.36684 7.75736 7.75736C7.36684 8.14788 7.36684 8.78105 7.75736 9.17157L13.1214 14.5356H9.87868C9.3264 14.5356 8.87879 14.9832 8.87879 15.5355C8.87879 16.0878 9.3264 16.5354 9.87868 16.5354H15.0356C15.864 16.5354 16.5354 15.864 16.5354 15.0356V9.87868Z" fill="black"/>
</svg>
