<svg width="24" height="24" viewBox="0 0 24 24" fill="none" xmlns="http://www.w3.org/2000/svg">
<path d="M5 22C3.34315 22 2 20.6569 2 19V5C2 3.34315 3.34315 2 5 2H19C20.6569 2 22 3.34315 22 5V19C22 20.6569 20.6569 22 19 22H5ZM14 17C14.5523 17 15 16.5523 15 16C15 15.4477 14.5523 15 14 15H10.4141L16.707 8.70703C17.0976 8.31651 17.0976 7.68349 16.707 7.29297C16.3165 6.90244 15.6835 6.90244 15.293 7.29297L9 13.5859V10C9 9.44772 8.55228 9 8 9C7.44772 9 7 9.44772 7 10V15.5C7 16.3284 7.67157 17 8.5 17H14Z" fill="black"/>
</svg>
