<svg width="24" height="24" viewBox="0 0 24 24" fill="none" xmlns="http://www.w3.org/2000/svg">
<path d="M3.22124 1.92361C3.22144 1.08025 4.17715 0.632146 4.82085 1.1033L4.94585 1.20975L7.05132 3.31522C10.8687 1.1389 15.8136 1.67811 19.0709 4.93533C22.9757 8.84046 22.9756 15.1717 19.0709 19.0769C15.1656 22.9818 8.83338 22.982 4.92827 19.0769C3.03125 17.1797 2.05503 14.7076 2.00152 12.2224C1.98966 11.6704 2.4281 11.2131 2.98003 11.201C3.53219 11.1891 3.98966 11.6273 4.00152 12.1795C4.0444 14.1698 4.82425 16.1446 6.34234 17.6629C9.46636 20.7869 14.5316 20.7866 17.6558 17.6629C20.78 14.5387 20.78 9.47359 17.6558 6.34939C15.1876 3.88145 11.5087 3.36403 8.53179 4.79568L10.0679 6.33279C10.704 6.96901 10.2538 8.05635 9.35406 8.05643H4.72124C3.89316 8.05617 3.22145 7.38452 3.22124 6.55643V1.92361Z" fill="black"/>
</svg>
