<svg width="24" height="24" viewBox="0 0 24 24" fill="none" xmlns="http://www.w3.org/2000/svg">
<path fill-rule="evenodd" clip-rule="evenodd" d="M19 22C20.6569 22 22 20.6569 22 19V5C22 3.34315 20.6569 2 19 2H5C3.34315 2 2 3.34315 2 5V19C2 20.6569 3.34315 22 5 22H19ZM13.707 16.707C13.3165 17.0976 12.6835 17.0976 12.293 16.707C11.9024 16.3165 11.9024 15.6835 12.293 15.293L14.5859 13H7C6.44772 13 6 12.5523 6 12C6 11.4477 6.44772 11 7 11H14.5859L12.293 8.70703C11.9024 8.31651 11.9024 7.68349 12.293 7.29297C12.6835 6.90244 13.3165 6.90244 13.707 7.29297L17.3535 10.9395C17.9393 11.5252 17.9393 12.4748 17.3535 13.0605L13.707 16.707Z" fill="black"/>
</svg>
