<svg width="24" height="24" viewBox="0 0 24 24" fill="none" xmlns="http://www.w3.org/2000/svg">
<path fill-rule="evenodd" clip-rule="evenodd" d="M22 5C22 3.34315 20.6569 2 19 2H5C3.34315 2 2 3.34315 2 5V19C2 20.6569 3.34315 22 5 22H19C20.6569 22 22 20.6569 22 19V5ZM16.707 10.293C17.0976 10.6835 17.0976 11.3165 16.707 11.707C16.3165 12.0976 15.6835 12.0976 15.293 11.707L13 9.41406V17C13 17.5523 12.5523 18 12 18C11.4477 18 11 17.5523 11 17V9.41406L8.70703 11.707C8.31651 12.0976 7.68349 12.0976 7.29297 11.707C6.90244 11.3165 6.90244 10.6835 7.29297 10.293L10.9395 6.64648C11.5252 6.06075 12.4748 6.06075 13.0605 6.64648L16.707 10.293Z" fill="black"/>
</svg>
