<svg width="24" height="24" viewBox="0 0 24 24" fill="none" xmlns="http://www.w3.org/2000/svg">
<path fill-rule="evenodd" clip-rule="evenodd" d="M12 2C17.5228 2 22 6.47715 22 12C22 17.5228 17.5228 22 12 22C6.47715 22 2 17.5228 2 12C2 6.47715 6.47715 2 12 2ZM13.707 7.29297C13.3165 6.90244 12.6835 6.90244 12.293 7.29297C11.9024 7.68349 11.9024 8.31651 12.293 8.70703L14.5859 11H7C6.44772 11 6 11.4477 6 12C6 12.5523 6.44772 13 7 13H14.5859L12.293 15.293C11.9024 15.6835 11.9024 16.3165 12.293 16.707C12.6835 17.0976 13.3165 17.0976 13.707 16.707L17.3535 13.0605C17.9393 12.4748 17.9393 11.5252 17.3535 10.9395L13.707 7.29297Z" fill="black"/>
</svg>
