<svg width="24" height="24" viewBox="0 0 24 24" fill="none" xmlns="http://www.w3.org/2000/svg">
<path fill-rule="evenodd" clip-rule="evenodd" d="M4.92887 19.0711C1.02363 15.1658 1.02363 8.83418 4.92887 4.92893C8.83411 1.02369 15.1658 1.02369 19.071 4.92893C22.9762 8.83418 22.9762 15.1658 19.071 19.0711C15.1658 22.9763 8.83411 22.9763 4.92887 19.0711ZM7.46451 14.1213C7.46451 14.6736 7.91212 15.1212 8.46441 15.1212C9.01669 15.1212 9.4643 14.6736 9.4643 14.1213V10.8786L14.8284 16.2426C15.2189 16.6332 15.8521 16.6332 16.2426 16.2426C16.6331 15.8521 16.6331 15.219 16.2426 14.8284L10.8785 9.46436H14.1213C14.6735 9.46436 15.1212 9.01675 15.1212 8.46447C15.1212 7.91218 14.6735 7.46457 14.1213 7.46457H8.96435C8.13597 7.4646 7.46454 8.13603 7.46451 8.96441V14.1213Z" fill="black"/>
</svg>
