<svg width="24" height="24" viewBox="0 0 24 24" fill="none" xmlns="http://www.w3.org/2000/svg">
<path fill-rule="evenodd" clip-rule="evenodd" d="M22 12C22 17.5228 17.5228 22 12 22C6.47715 22 2 17.5228 2 12C2 6.47715 6.47715 2 12 2C17.5228 2 22 6.47715 22 12ZM16.707 13.707C17.0976 13.3165 17.0976 12.6835 16.707 12.293C16.3165 11.9024 15.6835 11.9024 15.293 12.293L13 14.5859V7C13 6.44772 12.5523 6 12 6C11.4477 6 11 6.44772 11 7V14.5859L8.70703 12.293C8.31651 11.9024 7.68349 11.9024 7.29297 12.293C6.90244 12.6835 6.90244 13.3165 7.29297 13.707L10.9395 17.3535C11.5252 17.9393 12.4748 17.9393 13.0605 17.3535L16.707 13.707Z" fill="black"/>
</svg>
