<svg width="24" height="24" viewBox="0 0 24 24" fill="none" xmlns="http://www.w3.org/2000/svg">
<path d="M19.0538 1.20337C19.69 0.567401 20.7781 1.01771 20.7784 1.91724V6.55005C20.7784 7.37837 20.1066 8.04987 19.2784 8.05005H14.6455C13.7456 8.05005 13.2956 6.96258 13.9317 6.32642L15.4668 4.79029C12.49 3.35878 8.81094 3.87501 6.34281 6.34302C3.21888 9.46712 3.21901 14.5323 6.34281 17.6565C9.46701 20.7806 14.5331 20.7807 17.6573 17.6565C19.1754 16.1382 19.9553 14.1635 19.9981 12.1731C20.01 11.621 20.4674 11.1827 21.0196 11.1946C21.5716 11.2066 22.0099 11.6641 21.9981 12.2161C21.9447 14.7012 20.9683 17.1733 19.0713 19.0706C15.1661 22.9758 8.834 22.9757 4.92875 19.0706C1.0239 15.1653 1.02377 8.8341 4.92875 4.92896C8.18583 1.67199 13.13 1.13297 16.9473 3.30884L19.0538 1.20337Z" fill="black"/>
</svg>
