<svg width="24" height="24" viewBox="0 0 24 24" fill="none" xmlns="http://www.w3.org/2000/svg">
<path fill-rule="evenodd" clip-rule="evenodd" d="M12 2C6.47715 2 2 6.47715 2 12C2 17.5228 6.47715 22 12 22C17.5228 22 22 17.5228 22 12C22 6.47715 17.5228 2 12 2ZM10.293 7.29297C10.6835 6.90244 11.3165 6.90244 11.707 7.29297C12.0976 7.68349 12.0976 8.31651 11.707 8.70703L9.41406 11H17C17.5523 11 18 11.4477 18 12C18 12.5523 17.5523 13 17 13H9.41406L11.707 15.293C12.0976 15.6835 12.0976 16.3165 11.707 16.707C11.3165 17.0976 10.6835 17.0976 10.293 16.707L6.64648 13.0605C6.06075 12.4748 6.06075 11.5252 6.64648 10.9395L10.293 7.29297Z" fill="black"/>
</svg>
