<svg width="24" height="24" viewBox="0 0 24 24" fill="none" xmlns="http://www.w3.org/2000/svg">
<path fill-rule="evenodd" clip-rule="evenodd" d="M5 22C3.34315 22 2 20.6569 2 19V5C2 3.34315 3.34315 2 5 2H19C20.6569 2 22 3.34315 22 5V19C22 20.6569 20.6569 22 19 22H5ZM10.293 16.707C10.6835 17.0976 11.3165 17.0976 11.707 16.707C12.0976 16.3165 12.0976 15.6835 11.707 15.293L9.41406 13H17C17.5523 13 18 12.5523 18 12C18 11.4477 17.5523 11 17 11H9.41406L11.707 8.70703C12.0976 8.31651 12.0976 7.68349 11.707 7.29297C11.3165 6.90244 10.6835 6.90244 10.293 7.29297L6.64648 10.9395C6.06075 11.5252 6.06075 12.4748 6.64648 13.0605L10.293 16.707Z" fill="black"/>
</svg>
