<svg width="24" height="24" viewBox="0 0 24 24" fill="none" xmlns="http://www.w3.org/2000/svg">
<path d="M13 3.5094C15.5746 2.63179 18.3991 2.74964 20.9062 3.8639L21.0293 3.91858C21.6193 4.18085 21.9997 4.76609 22 5.41175V20.1237C22 21.2593 20.8307 22.0185 19.793 21.5573C17.6966 20.6258 15.3034 20.6258 13.207 21.5573L12.9062 21.691C12.3294 21.9474 11.6706 21.9474 11.0938 21.691L10.793 21.5573C8.69664 20.6258 6.30336 20.6258 4.20703 21.5573C3.16928 22.0185 2.00004 21.2593 2 20.1237V5.41175C2.00026 4.76609 2.38067 4.18085 2.9707 3.91858L3.09375 3.8639C5.60093 2.74964 8.4254 2.63179 11 3.5094V16.9996C11 17.5519 11.4477 17.9996 12 17.9996C12.5523 17.9996 13 17.5519 13 16.9996V3.5094Z" fill="black"/>
</svg>
