<svg width="24" height="24" viewBox="0 0 24 24" fill="none" xmlns="http://www.w3.org/2000/svg">
<path fill-rule="evenodd" clip-rule="evenodd" d="M19 2C20.1046 2 21 2.89543 21 4V14.6758C21 14.9981 20.9476 15.3182 20.8457 15.624L20.3418 17.1377C20.1742 17.6408 20.2131 18.1897 20.4502 18.6641L20.6709 19.1055C21.3358 20.4353 20.3686 22 18.8818 22H7C4.79086 22 3 20.2091 3 18V6C3 3.79086 4.79086 2 7 2H19ZM7 16C5.89543 16 5 16.8954 5 18C5 19.1046 5.89543 20 7 20H18.8818L18.6611 19.5586C18.1868 18.6098 18.1089 17.5113 18.4443 16.5049L18.6123 16H7Z" fill="black"/>
</svg>
