<svg width="24" height="24" viewBox="0 0 24 24" fill="none" xmlns="http://www.w3.org/2000/svg">
<path fill-rule="evenodd" clip-rule="evenodd" d="M13 3.50994C15.5746 2.63227 18.399 2.75011 20.9062 3.86443L21.0293 3.91912C21.6194 4.18143 21.9999 4.76649 22 5.41229V20.1242C22 21.2598 20.8307 22.019 19.793 21.5578C17.6966 20.6262 15.3034 20.6262 13.207 21.5578L12.9062 21.6916C12.3294 21.948 11.6706 21.948 11.0938 21.6916L10.793 21.5578C8.69656 20.6262 6.30343 20.6262 4.20703 21.5578C3.16928 22.019 2.00004 21.2598 2 20.1242V5.41229C2.00012 4.76649 2.38056 4.18143 2.9707 3.91912L3.09375 3.86443C5.60101 2.75011 8.42536 2.63227 11 3.50994V17.0002C11 17.5525 11.4477 18.0002 12 18.0002C12.5523 18.0002 13 17.5525 13 17.0002V3.50994ZM16.1416 11.9367C16.0886 11.9385 16.042 11.9402 16.0088 11.9416C15.9924 11.9423 15.9791 11.9431 15.9697 11.9435H15.9541C15.4025 11.969 14.9757 12.4379 15.001 12.9894C15.025 13.5063 15.4376 13.9135 15.9434 13.9416H16.0576C16.0655 13.9412 16.0772 13.9402 16.0918 13.9396C16.1216 13.9384 16.1636 13.9374 16.2109 13.9357C16.3092 13.9323 16.4201 13.9289 16.5 13.9289C17.1257 13.9289 17.6895 14.0019 18.0977 14.0754C18.3006 14.1119 18.4625 14.1478 18.5703 14.174C18.624 14.1871 18.6644 14.1975 18.6895 14.2043C18.7019 14.2076 18.7111 14.2098 18.7158 14.2111C18.7171 14.2115 18.7181 14.2119 18.7188 14.2121C19.2482 14.3673 19.803 14.0647 19.959 13.5353C20.1148 13.0057 19.8119 12.4501 19.2822 12.2941L19.0889 12.9513C19.2825 12.294 19.2824 12.2942 19.2822 12.2941L19.2812 12.2931L19.2793 12.2922C19.278 12.2918 19.2762 12.2917 19.2744 12.2912C19.2705 12.2901 19.2648 12.289 19.2588 12.2873C19.2468 12.2839 19.2309 12.279 19.2109 12.2736C19.1704 12.2627 19.1131 12.2479 19.042 12.2306C18.8999 12.1961 18.6989 12.151 18.4521 12.1066C17.9604 12.0181 17.2742 11.9289 16.5 11.9289C16.3837 11.9289 16.2443 11.9331 16.1416 11.9367ZM16.1416 8.4367C16.0886 8.43855 16.042 8.4402 16.0088 8.44158C15.9924 8.44227 15.9791 8.44312 15.9697 8.44354H15.9541C15.4025 8.46898 14.9757 8.93788 15.001 9.48943C15.025 10.0063 15.4376 10.4135 15.9434 10.4416H16.0576C16.0655 10.4412 16.0772 10.4402 16.0918 10.4396C16.1216 10.4384 16.1636 10.4374 16.2109 10.4357C16.3092 10.4323 16.4201 10.4289 16.5 10.4289C17.1257 10.4289 17.6895 10.5019 18.0977 10.5754C18.3006 10.6119 18.4625 10.6478 18.5703 10.674C18.624 10.6871 18.6644 10.6975 18.6895 10.7043C18.7019 10.7076 18.7111 10.7098 18.7158 10.7111C18.7171 10.7115 18.7181 10.7119 18.7188 10.7121C19.2482 10.8673 19.803 10.5647 19.959 10.0353C20.1148 9.50566 19.8119 8.95014 19.2822 8.79412L19.0889 9.45135C19.2825 8.79396 19.2824 8.79417 19.2822 8.79412L19.2812 8.79315L19.2793 8.79217C19.278 8.7918 19.2762 8.79171 19.2744 8.79119C19.2705 8.79008 19.2648 8.78897 19.2588 8.78729C19.2468 8.78391 19.2309 8.77899 19.2109 8.77361C19.1704 8.76268 19.1131 8.74792 19.042 8.73065C18.8999 8.69611 18.6989 8.65105 18.4521 8.60662C17.9604 8.5181 17.2742 8.42889 16.5 8.42889C16.3837 8.42889 16.2443 8.43312 16.1416 8.4367ZM16.1416 4.9367C16.0886 4.93855 16.042 4.9402 16.0088 4.94158C15.9924 4.94227 15.9791 4.94312 15.9697 4.94354H15.9541C15.4025 4.96898 14.9757 5.43788 15.001 5.98943C15.025 6.50632 15.4376 6.9135 15.9434 6.94158H16.0576C16.0655 6.94123 16.0772 6.94024 16.0918 6.93963C16.1216 6.93839 16.1636 6.93738 16.2109 6.93572C16.3092 6.9323 16.4201 6.92889 16.5 6.92889C17.1257 6.92889 17.6895 7.0019 18.0977 7.07537C18.3006 7.1119 18.4625 7.1478 18.5703 7.17401C18.624 7.18705 18.6644 7.1975 18.6895 7.20428C18.7019 7.20763 18.7111 7.20977 18.7158 7.21111C18.7171 7.21147 18.7181 7.21189 18.7188 7.21209C19.2482 7.36734 19.803 7.06472 19.959 6.53533C20.1148 6.00566 19.8119 5.45014 19.2822 5.29412L19.0889 5.95135C19.2825 5.29396 19.2824 5.29417 19.2822 5.29412L19.2812 5.29315L19.2793 5.29217C19.278 5.2918 19.2762 5.29171 19.2744 5.29119C19.2705 5.29008 19.2648 5.28897 19.2588 5.28729C19.2468 5.28391 19.2309 5.27899 19.2109 5.27361C19.1704 5.26268 19.1131 5.24792 19.042 5.23065C18.8999 5.19611 18.6989 5.15105 18.4521 5.10662C17.9604 5.0181 17.2742 4.92889 16.5 4.92889C16.3837 4.92889 16.2443 4.93312 16.1416 4.9367Z" fill="black"/>
</svg>
