<svg width="24" height="24" viewBox="0 0 24 24" fill="none" xmlns="http://www.w3.org/2000/svg">
<path fill-rule="evenodd" clip-rule="evenodd" d="M16 1C16.5523 1 17 1.44772 17 2H19C20.6569 2 22 3.34315 22 5V19C22 20.6569 20.6569 22 19 22H5C3.34315 22 2 20.6569 2 19V5C2 3.34315 3.34315 2 5 2H7C7 1.44772 7.44772 1 8 1C8.55228 1 9 1.44772 9 2H15C15 1.44772 15.4477 1 16 1ZM7 16C6.44772 16 6 16.4477 6 17C6 17.5523 6.44772 18 7 18H8C8.55228 18 9 17.5523 9 17C9 16.4477 8.55228 16 8 16H7ZM11.5 16C10.9477 16 10.5 16.4477 10.5 17C10.5 17.5523 10.9477 18 11.5 18H12.5C13.0523 18 13.5 17.5523 13.5 17C13.5 16.4477 13.0523 16 12.5 16H11.5ZM7 13C6.44772 13 6 13.4477 6 14C6 14.5523 6.44772 15 7 15H8C8.55228 15 9 14.5523 9 14C9 13.4477 8.55228 13 8 13H7ZM11.5 13C10.9477 13 10.5 13.4477 10.5 14C10.5 14.5523 10.9477 15 11.5 15H12.5C13.0523 15 13.5 14.5523 13.5 14C13.5 13.4477 13.0523 13 12.5 13H11.5ZM16 13C15.4477 13 15 13.4477 15 14C15 14.5523 15.4477 15 16 15H17C17.5523 15 18 14.5523 18 14C18 13.4477 17.5523 13 17 13H16ZM11.5 10C10.9477 10 10.5 10.4477 10.5 11C10.5 11.5523 10.9477 12 11.5 12H12.5C13.0523 12 13.5 11.5523 13.5 11C13.5 10.4477 13.0523 10 12.5 10H11.5ZM16 10C15.4477 10 15 10.4477 15 11C15 11.5523 15.4477 12 16 12H17C17.5523 12 18 11.5523 18 11C18 10.4477 17.5523 10 17 10H16ZM5 4C4.44772 4 4 4.44772 4 5V6H20V5C20 4.44772 19.5523 4 19 4H17C17 4.55228 16.5523 5 16 5C15.4477 5 15 4.55228 15 4H9C9 4.55228 8.55228 5 8 5C7.44772 5 7 4.55228 7 4H5Z" fill="black"/>
</svg>
