<svg width="24" height="24" viewBox="0 0 24 24" fill="none" xmlns="http://www.w3.org/2000/svg">
<path fill-rule="evenodd" clip-rule="evenodd" d="M16 1C16.5523 1 17 1.44772 17 2H19C20.6569 2 22 3.34315 22 5V19C22 20.6569 20.6569 22 19 22H5C3.34315 22 2 20.6569 2 19V5C2 3.34315 3.34315 2 5 2H7C7 1.44772 7.44772 1 8 1C8.55228 1 9 1.44772 9 2H15C15 1.44772 15.4477 1 16 1ZM12 10C11.4477 10 11 10.4477 11 11V13H9C8.44772 13 8 13.4477 8 14C8 14.5523 8.44772 15 9 15H11V17C11 17.5523 11.4477 18 12 18C12.5523 18 13 17.5523 13 17V15H15C15.5523 15 16 14.5523 16 14C16 13.4477 15.5523 13 15 13H13V11C13 10.4477 12.5523 10 12 10ZM5 4C4.44772 4 4 4.44772 4 5V6H20V5C20 4.44772 19.5523 4 19 4H17C17 4.55228 16.5523 5 16 5C15.4477 5 15 4.55228 15 4H9C9 4.55228 8.55228 5 8 5C7.44772 5 7 4.55228 7 4H5Z" fill="black"/>
</svg>
