<svg width="24" height="24" viewBox="0 0 24 24" fill="none" xmlns="http://www.w3.org/2000/svg">
<path fill-rule="evenodd" clip-rule="evenodd" d="M12 2C6.47715 2 2 6.47715 2 12C2 17.5228 6.47715 22 12 22C17.5228 22 22 17.5228 22 12C22 6.47715 17.5228 2 12 2ZM12.293 7.29297C12.6835 6.90244 13.3165 6.90244 13.707 7.29297C14.0976 7.68349 14.0976 8.31651 13.707 8.70703L10.4141 12L13.707 15.293C14.0976 15.6835 14.0976 16.3165 13.707 16.707C13.3165 17.0976 12.6835 17.0976 12.293 16.707L8.64648 13.0605C8.06075 12.4748 8.06075 11.5252 8.64648 10.9395L12.293 7.29297Z" fill="black"/>
</svg>
