<svg width="24" height="24" viewBox="0 0 24 24" fill="none" xmlns="http://www.w3.org/2000/svg">
<path fill-rule="evenodd" clip-rule="evenodd" d="M12 2C17.5228 2 22 6.47715 22 12C22 17.5228 17.5228 22 12 22C6.47715 22 2 17.5228 2 12C2 6.47715 6.47715 2 12 2ZM11.707 7.29297C11.3165 6.90244 10.6835 6.90244 10.293 7.29297C9.90244 7.68349 9.90244 8.31651 10.293 8.70703L13.5859 12L10.293 15.293C9.90244 15.6835 9.90244 16.3165 10.293 16.707C10.6835 17.0976 11.3165 17.0976 11.707 16.707L15.3535 13.0605C15.9393 12.4748 15.9393 11.5252 15.3535 10.9395L11.707 7.29297Z" fill="black"/>
</svg>
