<svg width="24" height="24" viewBox="0 0 24 24" fill="none" xmlns="http://www.w3.org/2000/svg">
<path fill-rule="evenodd" clip-rule="evenodd" d="M2 12C2 6.47715 6.47715 2 12 2C17.5228 2 22 6.47715 22 12C22 17.5228 17.5228 22 12 22C6.47715 22 2 17.5228 2 12ZM7.29297 12.293C6.90244 12.6835 6.90244 13.3165 7.29297 13.707C7.68349 14.0976 8.31651 14.0976 8.70703 13.707L12 10.4141L15.293 13.707C15.6835 14.0976 16.3165 14.0976 16.707 13.707C17.0976 13.3165 17.0976 12.6835 16.707 12.293L13.0605 8.64648C12.4748 8.06075 11.5252 8.06075 10.9395 8.64648L7.29297 12.293Z" fill="black"/>
</svg>
