<svg width="24" height="24" viewBox="0 0 24 24" fill="none" xmlns="http://www.w3.org/2000/svg">
<path fill-rule="evenodd" clip-rule="evenodd" d="M22 12C22 17.5228 17.5228 22 12 22C6.47715 22 2 17.5228 2 12C2 6.47715 6.47715 2 12 2C17.5228 2 22 6.47715 22 12ZM16.707 11.707C17.0976 11.3165 17.0976 10.6835 16.707 10.293C16.3165 9.90244 15.6835 9.90244 15.293 10.293L12 13.5859L8.70703 10.293C8.31651 9.90244 7.68349 9.90244 7.29297 10.293C6.90244 10.6835 6.90244 11.3165 7.29297 11.707L10.9395 15.3535C11.5252 15.9393 12.4748 15.9393 13.0605 15.3535L16.707 11.707Z" fill="black"/>
</svg>
