<svg width="24" height="24" viewBox="0 0 24 24" fill="none" xmlns="http://www.w3.org/2000/svg">
<path fill-rule="evenodd" clip-rule="evenodd" d="M12 2C17.5228 2 22 6.47715 22 12C22 17.5228 17.5228 22 12 22C6.47715 22 2 17.5228 2 12C2 6.47715 6.47715 2 12 2ZM12.7852 17.9492C12.5287 17.9827 12.2665 18 12 18C11.7335 18 11.4713 17.9827 11.2148 17.9492C10.6673 17.8779 10.1652 18.264 10.0938 18.8115C10.0224 19.359 10.4086 19.861 10.9561 19.9326C11.2981 19.9772 11.6468 20 12 20C12.3532 20 12.7019 19.9772 13.0439 19.9326C13.5914 19.861 13.9776 19.359 13.9062 18.8115C13.8348 18.264 13.3327 17.8779 12.7852 17.9492ZM7.23926 15.6523C6.90274 15.2144 6.27483 15.1322 5.83691 15.4688C5.39905 15.8053 5.31681 16.4332 5.65332 16.8711C6.07885 17.4248 6.5752 17.9212 7.12891 18.3467C7.5668 18.6832 8.19472 18.6009 8.53125 18.1631C8.86777 17.7252 8.78557 17.0973 8.34766 16.7607C7.93178 16.4411 7.55887 16.0682 7.23926 15.6523ZM18.1631 15.4688C17.7252 15.1322 17.0973 15.2144 16.7607 15.6523C16.4411 16.0682 16.0682 16.4411 15.6523 16.7607C15.2144 17.0973 15.1322 17.7252 15.4688 18.1631C15.8053 18.6009 16.4332 18.6832 16.8711 18.3467C17.4248 17.9212 17.9212 17.4248 18.3467 16.8711C18.6832 16.4332 18.6009 15.8053 18.1631 15.4688ZM5.18848 10.0938C4.64097 10.0224 4.13896 10.4086 4.06738 10.9561C4.02277 11.2981 4 11.6468 4 12C4 12.3532 4.02277 12.7019 4.06738 13.0439C4.13896 13.5914 4.64097 13.9776 5.18848 13.9062C5.73604 13.8348 6.12208 13.3327 6.05078 12.7852C6.01733 12.5287 6 12.2665 6 12C6 11.7335 6.01733 11.4713 6.05078 11.2148C6.12208 10.6673 5.73604 10.1652 5.18848 10.0938ZM18.8115 10.0938C18.264 10.1652 17.8779 10.6673 17.9492 11.2148C17.9827 11.4713 18 11.7335 18 12C18 12.2665 17.9827 12.5287 17.9492 12.7852C17.8779 13.3327 18.264 13.8348 18.8115 13.9062C19.359 13.9776 19.861 13.5914 19.9326 13.0439C19.9772 12.7019 20 12.3532 20 12C20 11.6468 19.9772 11.2981 19.9326 10.9561C19.861 10.4086 19.359 10.0224 18.8115 10.0938ZM8.53125 5.83691C8.19472 5.39905 7.5668 5.31681 7.12891 5.65332C6.5752 6.07885 6.07885 6.5752 5.65332 7.12891C5.31681 7.5668 5.39905 8.19472 5.83691 8.53125C6.27483 8.86777 6.90274 8.78557 7.23926 8.34766C7.55887 7.93178 7.93178 7.55887 8.34766 7.23926C8.78557 6.90274 8.86777 6.27483 8.53125 5.83691ZM16.8711 5.65332C16.4332 5.31681 15.8053 5.39905 15.4688 5.83691C15.1322 6.27483 15.2144 6.90274 15.6523 7.23926C16.0682 7.55887 16.4411 7.93178 16.7607 8.34766C17.0973 8.78557 17.7252 8.86777 18.1631 8.53125C18.6009 8.19472 18.6832 7.5668 18.3467 7.12891C17.9212 6.5752 17.4248 6.07885 16.8711 5.65332ZM12 4C11.6468 4 11.2981 4.02277 10.9561 4.06738C10.4086 4.13896 10.0224 4.64097 10.0938 5.18848C10.1652 5.73604 10.6673 6.12208 11.2148 6.05078C11.4713 6.01733 11.7335 6 12 6C12.2665 6 12.5287 6.01733 12.7852 6.05078C13.3327 6.12208 13.8348 5.73604 13.9062 5.18848C13.9776 4.64097 13.5914 4.13896 13.0439 4.06738C12.7019 4.02277 12.3532 4 12 4Z" fill="black"/>
</svg>
