<svg width="24" height="24" viewBox="0 0 24 24" fill="none" xmlns="http://www.w3.org/2000/svg">
<path fill-rule="evenodd" clip-rule="evenodd" d="M14.5 2C15.5249 2 16.4041 2.61743 16.79 3.5H17.5C19.1569 3.5 20.5 4.84315 20.5 6.5V7.90527C19.3526 7.24088 17.861 7.39683 16.8789 8.37891C16.2931 8.96469 16 9.73235 16 10.5H13C11.3431 10.5 10 11.8431 10 13.5C10 15.1569 11.3431 16.5 13 16.5H16C16 17.2677 16.2931 18.0353 16.8789 18.6211C17.8604 19.6025 19.3499 19.7576 20.4971 19.0947C20.447 20.7077 19.1251 22 17.5 22H6.5C4.84315 22 3.5 20.6569 3.5 19V6.5C3.5 4.84315 4.84315 3.5 6.5 3.5H7.20996C7.5959 2.61743 8.47512 2 9.5 2H14.5ZM9.5 4C9.22386 4 9 4.22386 9 4.5C9 4.77614 9.22386 5 9.5 5H14.5C14.7761 5 15 4.77614 15 4.5C15 4.22386 14.7761 4 14.5 4H9.5Z" fill="black"/>
<path d="M18.293 9.79297C18.6835 9.40244 19.3165 9.40244 19.707 9.79297L22.3535 12.4395C22.9393 13.0252 22.9393 13.9748 22.3535 14.5605L19.707 17.207C19.3165 17.5976 18.6835 17.5976 18.293 17.207C17.9024 16.8165 17.9024 16.1835 18.293 15.793L19.5859 14.5H13C12.4477 14.5 12 14.0523 12 13.5C12 12.9477 12.4477 12.5 13 12.5H19.5859L18.293 11.207C17.9024 10.8165 17.9024 10.1835 18.293 9.79297Z" fill="black"/>
</svg>
