<svg width="24" height="24" viewBox="0 0 24 24" fill="none" xmlns="http://www.w3.org/2000/svg">
<path fill-rule="evenodd" clip-rule="evenodd" d="M14.5 2C15.5249 2 16.4041 2.61743 16.79 3.5H17.5C19.1569 3.5 20.5 4.84315 20.5 6.5V19C20.5 20.6569 19.1569 22 17.5 22H6.5C4.84315 22 3.5 20.6569 3.5 19V6.5C3.5 4.84315 4.84315 3.5 6.5 3.5H7.20996C7.5959 2.61743 8.47512 2 9.5 2H14.5ZM15.707 11.293C15.3165 10.9024 14.6835 10.9024 14.293 11.293L11 14.5859L9.70703 13.293C9.31651 12.9024 8.68349 12.9024 8.29297 13.293C7.90244 13.6835 7.90244 14.3165 8.29297 14.707L10.1162 16.5303C10.6044 17.0184 11.3956 17.0184 11.8838 16.5303L15.707 12.707C16.0976 12.3165 16.0976 11.6835 15.707 11.293ZM9.5 4C9.22386 4 9 4.22386 9 4.5C9 4.77614 9.22386 5 9.5 5H14.5C14.7761 5 15 4.77614 15 4.5C15 4.22386 14.7761 4 14.5 4H9.5Z" fill="black"/>
</svg>
