<svg width="24" height="24" viewBox="0 0 24 24" fill="none" xmlns="http://www.w3.org/2000/svg">
<path fill-rule="evenodd" clip-rule="evenodd" d="M14.5 2C15.5249 2 16.4041 2.61743 16.79 3.5H17.5C19.1569 3.5 20.5 4.84315 20.5 6.5V19C20.5 20.6569 19.1569 22 17.5 22H6.5C4.84315 22 3.5 20.6569 3.5 19V6.5C3.5 4.84315 4.84315 3.5 6.5 3.5H7.20996C7.5959 2.61743 8.47512 2 9.5 2H14.5ZM14.8291 11.1719C14.4386 10.7814 13.8046 10.7814 13.4141 11.1719L12 12.585L10.5859 11.1719C10.1954 10.7814 9.5624 10.7814 9.17188 11.1719C8.78147 11.5624 8.78139 12.1955 9.17188 12.5859L10.5859 14L9.17188 15.4141C8.78139 15.8045 8.78147 16.4376 9.17188 16.8281C9.5624 17.2186 10.1954 17.2186 10.5859 16.8281L12 15.4141L13.4141 16.8281C13.8046 17.2186 14.4386 17.2186 14.8291 16.8281C15.2192 16.4376 15.2193 15.8045 14.8291 15.4141L13.4141 14L14.8291 12.5859C15.2193 12.1955 15.2192 11.5624 14.8291 11.1719ZM9.5 4C9.22386 4 9 4.22386 9 4.5C9 4.77614 9.22386 5 9.5 5H14.5C14.7761 5 15 4.77614 15 4.5C15 4.22386 14.7761 4 14.5 4H9.5Z" fill="black"/>
</svg>
