<svg width="24" height="24" viewBox="0 0 24 24" fill="none" xmlns="http://www.w3.org/2000/svg">
<path fill-rule="evenodd" clip-rule="evenodd" d="M14.5 2C15.5249 2 16.4041 2.61743 16.79 3.5H17.5C19.1569 3.5 20.5 4.84315 20.5 6.5V19C20.5 20.6569 19.1569 22 17.5 22H6.5C4.84315 22 3.5 20.6569 3.5 19V6.5C3.5 4.84315 4.84315 3.5 6.5 3.5H7.20996C7.5959 2.61743 8.47512 2 9.5 2H14.5ZM12 10C11.4477 10 11 10.4477 11 11V13H9C8.44772 13 8 13.4477 8 14C8 14.5523 8.44772 15 9 15H11V17C11 17.5523 11.4477 18 12 18C12.5523 18 13 17.5523 13 17V15H15C15.5523 15 16 14.5523 16 14C16 13.4477 15.5523 13 15 13H13V11C13 10.4477 12.5523 10 12 10ZM9.5 4C9.22386 4 9 4.22386 9 4.5C9 4.77614 9.22386 5 9.5 5H14.5C14.7761 5 15 4.77614 15 4.5C15 4.22386 14.7761 4 14.5 4H9.5Z" fill="black"/>
</svg>
