<svg width="24" height="24" viewBox="0 0 24 24" fill="none" xmlns="http://www.w3.org/2000/svg">
<path d="M12 2C17.5228 2 22 6.47715 22 12C22 17.5228 17.5228 22 12 22C6.47715 22 2 17.5228 2 12C2 6.47715 6.47715 2 12 2ZM12 6C11.4477 6.00004 11 6.44775 11 7L11.001 11.5859L8.46484 14.1211C8.07432 14.5116 8.07432 15.1456 8.46484 15.5361C8.85525 15.9261 9.48847 15.9261 9.87891 15.5361L12.6348 12.7803C12.8689 12.5459 13.0009 12.2278 13.001 11.8965L13 7C13 6.44777 12.5522 6.00006 12 6Z" fill="black"/>
</svg>
