<svg width="24" height="24" viewBox="0 0 24 24" fill="none" xmlns="http://www.w3.org/2000/svg">
<path d="M22 16C22.0563 16 22.1113 16.0057 22.165 16.0146C22.1738 16.0161 22.1827 16.0169 22.1914 16.0186L22.2012 16.0205C22.211 16.0225 22.2207 16.025 22.2305 16.0273C22.251 16.0322 22.2717 16.0368 22.292 16.043C22.3408 16.0578 22.3873 16.0778 22.4326 16.0996C22.4466 16.1063 22.4609 16.1127 22.4746 16.1201C22.6203 16.1989 22.7441 16.3125 22.835 16.4502C22.8597 16.4877 22.8812 16.5266 22.9004 16.5664C22.9222 16.6116 22.9412 16.6584 22.9561 16.707C22.9621 16.7267 22.9669 16.7467 22.9717 16.7666C22.9896 16.8415 23 16.9196 23 17C23 17.0563 22.9933 17.1112 22.9844 17.165C22.9772 17.2078 22.9688 17.2503 22.9561 17.292C22.9412 17.3407 22.9222 17.3874 22.9004 17.4326C22.8936 17.4468 22.8864 17.4607 22.8789 17.4746C22.851 17.5262 22.8184 17.5745 22.7822 17.6201C22.7586 17.6498 22.7345 17.6796 22.707 17.707L19.4141 21H22C22.5523 21 23 21.4477 23 22C23 22.5523 22.5523 23 22 23H17C16.9433 23 16.8881 22.9934 16.834 22.9844C16.8236 22.9826 16.8131 22.9816 16.8027 22.9795C16.7912 22.9772 16.7799 22.9744 16.7686 22.9717C16.748 22.9668 16.7273 22.9623 16.707 22.9561C16.6584 22.9412 16.6116 22.9222 16.5664 22.9004C16.5266 22.8812 16.4877 22.8597 16.4502 22.835C16.3125 22.7441 16.1989 22.6203 16.1201 22.4746C16.1127 22.4609 16.1063 22.4466 16.0996 22.4326C16.0778 22.3873 16.0578 22.3408 16.043 22.292C16.0303 22.2503 16.0218 22.2077 16.0146 22.165C16.0057 22.1113 16 22.0563 16 22C16 21.9153 16.0114 21.8334 16.0312 21.7549C16.0353 21.739 16.0382 21.7228 16.043 21.707C16.0596 21.6526 16.0822 21.6008 16.1074 21.5508C16.1247 21.5165 16.1436 21.4827 16.165 21.4502C16.2024 21.3935 16.2452 21.3408 16.293 21.293L19.5859 18H17C16.4477 18 16 17.5523 16 17C16 16.4477 16.4477 16 17 16H22ZM12 2C17.5228 2 22 6.47715 22 12C22 12.6143 21.945 13.2161 21.8389 13.7998C21.8175 13.9165 21.7144 13.9999 21.5957 14H17C15.3431 14 14 15.3431 14 17C14 17.9145 14.4102 18.7322 15.0557 19.2822C15.1742 19.3832 15.191 19.5665 15.0811 19.6768L14.8789 19.8789C14.8165 19.9413 14.7579 20.006 14.7021 20.0723C14.6943 20.0816 14.6855 20.0902 14.6777 20.0996C14.6217 20.168 14.5696 20.2386 14.5205 20.3105C14.5165 20.3164 14.5127 20.3223 14.5088 20.3281C14.4808 20.3698 14.4564 20.4134 14.4307 20.4561C14.4038 20.5006 14.3761 20.5448 14.3516 20.5908C14.3347 20.6225 14.3203 20.6554 14.3047 20.6875C14.2773 20.7436 14.2495 20.7995 14.2256 20.8574C14.2126 20.8889 14.2023 20.9213 14.1904 20.9531C14.1681 21.0131 14.1455 21.0731 14.127 21.1348C14.1191 21.1608 14.1145 21.1877 14.1074 21.2139C14.0726 21.3423 14.0448 21.474 14.0264 21.6084C14.011 21.7199 13.93 21.8136 13.8193 21.834C13.2293 21.9426 12.6214 22 12 22C6.47715 22 2 17.5228 2 12C2 6.47715 6.47715 2 12 2ZM12 6C11.4477 6 11 6.44772 11 7V11.75C11 12.4404 11.5596 13 12.25 13H16C16.5523 13 17 12.5523 17 12C17 11.4477 16.5523 11 16 11H13V7C13 6.44772 12.5523 6 12 6Z" fill="black"/>
</svg>
