<svg width="24" height="24" viewBox="0 0 24 24" fill="none" xmlns="http://www.w3.org/2000/svg">
<path d="M12 2C6.47715 2 2 6.47715 2 12C2 17.5228 6.47715 22 12 22C17.5228 22 22 17.5228 22 12C22 6.47715 17.5228 2 12 2ZM12 6C12.5523 6.00004 13 6.44775 13 7L12.999 11.5859L15.5352 14.1211C15.9257 14.5116 15.9257 15.1456 15.5352 15.5361C15.1448 15.9261 14.5115 15.9261 14.1211 15.5361L11.3652 12.7803C11.1311 12.5459 10.9991 12.2278 10.999 11.8965L11 7C11 6.44777 11.4478 6.00006 12 6Z" fill="black"/>
</svg>
