<svg width="24" height="24" viewBox="0 0 24 24" fill="none" xmlns="http://www.w3.org/2000/svg">
<path d="M12 2C17.5228 2 22 6.47715 22 12C22 13.3646 21.7246 14.6645 21.2295 15.8496C21.1913 15.9411 21.1011 15.9998 21.002 16H16C14.3431 16 13 17.3431 13 19C13 19.9246 13.4192 20.75 14.0771 21.2998C14.2516 21.4455 14.2081 21.7556 13.9854 21.8008C13.3437 21.9308 12.6799 22 12 22C6.47715 22 2 17.5228 2 12C2 6.47715 6.47715 2 12 2ZM22 18C22.5523 18 23 18.4477 23 19C23 19.5523 22.5523 20 22 20H16C15.4477 20 15 19.5523 15 19C15 18.4477 15.4477 18 16 18H22ZM12 6C11.4477 6 11 6.44772 11 7V11.75C11 12.4404 11.5596 13 12.25 13H16C16.5523 13 17 12.5523 17 12C17 11.4477 16.5523 11 16 11H13V7C13 6.44772 12.5523 6 12 6Z" fill="black"/>
</svg>
