<svg width="24" height="24" viewBox="0 0 24 24" fill="none" xmlns="http://www.w3.org/2000/svg">
<path d="M4.92957 4.92872C8.43139 1.42689 13.8831 1.0674 17.788 3.8457L19.0546 2.58007L19.1787 2.47362C19.8224 2.00177 20.7791 2.45039 20.7793 3.29394V6.54982C20.7792 7.37808 20.1075 8.04963 19.2793 8.04983H16.0253C15.126 8.04965 14.6748 6.96255 15.3105 6.32619L16.3505 5.28516C13.2503 3.27265 9.06217 3.62426 6.34364 6.34279C3.21961 9.46699 3.21955 14.5331 6.34364 17.6573C9.4678 20.7815 14.5339 20.7814 17.6582 17.6573C19.1766 16.1389 19.9562 14.1636 19.999 12.1729C20.0109 11.6209 20.4685 11.1826 21.0205 11.1944C21.5725 11.2063 22.0108 11.6638 21.999 12.2159C21.9456 14.7013 20.9696 17.174 19.0722 19.0714C15.1669 22.9765 8.83478 22.9766 4.92957 19.0714C1.02442 15.1662 1.02448 8.83397 4.92957 4.92872ZM12.0009 6.00001C12.5532 6.00001 13.0009 6.44773 13.0009 7.00002V11H16.0009C16.5532 11 17.0009 11.4478 17.0009 12C17.0009 12.5523 16.5532 13.0001 16.0009 13.0001H12.2509C11.5607 12.9999 11.0009 12.4403 11.0009 11.75V7.00002C11.0009 6.4478 11.4487 6.00013 12.0009 6.00001Z" fill="black"/>
</svg>
