<svg width="24" height="24" viewBox="0 0 24 24" fill="none" xmlns="http://www.w3.org/2000/svg">
<path d="M6.21025 3.84659C10.1153 1.06685 15.5682 1.42639 19.0706 4.92862C22.9758 8.83387 22.9758 15.166 19.0706 19.0712C15.1654 22.9764 8.83325 22.9764 4.92803 19.0712C3.03077 17.1739 2.05465 14.7011 2.00127 12.2157C1.98954 11.6638 2.42788 11.2063 2.97978 11.1942C3.53186 11.1824 3.98928 11.6207 4.00127 12.1728C4.04402 14.1634 4.82377 16.1387 6.34209 17.6571C9.46626 20.7813 14.5323 20.7813 17.6565 17.6571C20.7807 14.5329 20.7807 9.46688 17.6565 6.34269C14.9376 3.62387 10.7482 3.27149 7.64775 5.28507L8.68974 6.32706C9.3252 6.96347 8.87439 8.05069 7.9749 8.05069H4.72099C3.89299 8.05037 3.22123 7.37871 3.22099 6.55069V3.29483C3.22099 2.45121 4.17781 2.00196 4.82158 2.47355L4.9456 2.58097L6.21025 3.84659ZM12.0013 5.99991C12.5535 5.99991 13.0012 6.44767 13.0013 6.99991V10.9999H16.0013C16.5535 10.9999 17.0012 11.4477 17.0013 11.9999C17.0013 12.5522 16.5536 12.9999 16.0013 12.9999H12.2513C11.561 12.9998 11.0013 12.4402 11.0013 11.7499V6.99991C11.0013 6.44775 11.4491 6.00004 12.0013 5.99991Z" fill="black"/>
</svg>
