<svg width="24" height="24" viewBox="0 0 24 24" fill="none" xmlns="http://www.w3.org/2000/svg">
<path d="M19 3.5C20.6569 3.5 22 4.84315 22 6.5V17.5C22 19.1569 20.6569 20.5 19 20.5H5C3.39489 20.5 2.08421 19.2394 2.00391 17.6543L2 17.5V6.5C2 4.84315 3.34315 3.5 5 3.5H19ZM19.874 8.62598C19.6058 8.14325 18.9974 7.96922 18.5146 8.2373L12 11.8555L5.48535 8.2373C5.00259 7.96922 4.39416 8.14325 4.12598 8.62598C3.85803 9.10871 4.03198 9.7172 4.51465 9.98535L11.2715 13.7393C11.7245 13.9909 12.2755 13.9909 12.7285 13.7393L19.4854 9.98535C19.968 9.7172 20.142 9.10871 19.874 8.62598Z" fill="black"/>
</svg>
