<svg width="24" height="24" viewBox="0 0 24 24" fill="none" xmlns="http://www.w3.org/2000/svg">
<path d="M11.0518 2.26181C11.6672 2.05677 12.3328 2.05677 12.9482 2.26181L19.9482 4.59579C21.1732 5.00413 22 6.15026 22 7.4415V17.5001C21.9999 19.1569 20.6568 20.5001 19 20.5001H5C3.34318 20.5001 2.00006 19.1569 2 17.5001V7.4415C2.00005 6.15026 2.82678 5.00413 4.05176 4.59579L11.0518 2.26181ZM19.874 8.62607C19.6058 8.14334 18.9974 7.96931 18.5146 8.23739L12 11.8556L5.48535 8.23739C5.00259 7.96931 4.39416 8.14334 4.12598 8.62607C3.85809 9.10878 4.032 9.71731 4.51465 9.98544L11.2715 13.7393C11.7244 13.9909 12.2756 13.9909 12.7285 13.7393L19.4854 9.98544C19.968 9.71731 20.1419 9.10878 19.874 8.62607Z" fill="black"/>
</svg>
