<svg width="24" height="24" viewBox="0 0 24 24" fill="none" xmlns="http://www.w3.org/2000/svg">
<path fill-rule="evenodd" clip-rule="evenodd" d="M13.6719 2C14.4674 2.00008 15.2304 2.31637 15.793 2.87891L19.6211 6.70703C20.1836 7.26957 20.4999 8.03259 20.5 8.82812V19C20.5 20.6569 19.1569 22 17.5 22H6.5C4.84315 22 3.5 20.6569 3.5 19V5C3.5 3.34315 4.84315 2 6.5 2H13.6719ZM13.0605 10.1465C12.4748 9.56075 11.5252 9.56075 10.9395 10.1465L8.29297 12.793C7.90244 13.1835 7.90244 13.8165 8.29297 14.207C8.68349 14.5976 9.31651 14.5976 9.70703 14.207L11 12.9141V17C11 17.5523 11.4477 18 12 18C12.5523 18 13 17.5523 13 17V12.9141L14.293 14.207C14.6835 14.5976 15.3165 14.5976 15.707 14.207C16.0976 13.8165 16.0976 13.1835 15.707 12.793L13.0605 10.1465ZM14.5 8H18.0859L14.5 4.41406V8Z" fill="black"/>
</svg>
