<svg width="24" height="24" viewBox="0 0 24 24" fill="none" xmlns="http://www.w3.org/2000/svg">
<path fill-rule="evenodd" clip-rule="evenodd" d="M13.6719 2C14.4674 2.00008 15.2304 2.31637 15.793 2.87891L19.6211 6.70703C20.1836 7.26957 20.4999 8.03259 20.5 8.82812V19C20.5 20.6569 19.1569 22 17.5 22H6.5C4.84315 22 3.5 20.6569 3.5 19V5C3.5 3.34315 4.84315 2 6.5 2H13.6719ZM12 9.5C11.4477 9.5 11 9.94772 11 10.5V14.5859L9.70703 13.293C9.31651 12.9024 8.68349 12.9024 8.29297 13.293C7.90244 13.6835 7.90244 14.3165 8.29297 14.707L10.9395 17.3535C11.5252 17.9393 12.4748 17.9393 13.0605 17.3535L15.707 14.707C16.0976 14.3165 16.0976 13.6835 15.707 13.293C15.3165 12.9024 14.6835 12.9024 14.293 13.293L13 14.5859V10.5C13 9.94772 12.5523 9.5 12 9.5ZM14.5 8H18.0859L14.5 4.41406V8Z" fill="black"/>
</svg>
