<svg width="24" height="24" viewBox="0 0 24 24" fill="none" xmlns="http://www.w3.org/2000/svg">
<path fill-rule="evenodd" clip-rule="evenodd" d="M13.6719 2C14.4674 2.00008 15.2304 2.31637 15.793 2.87891L19.6211 6.70703C20.1836 7.26957 20.4999 8.03259 20.5 8.82812V19C20.5 20.6569 19.1569 22 17.5 22H6.5C4.84315 22 3.5 20.6569 3.5 19V5C3.5 3.34315 4.84315 2 6.5 2H13.6719ZM8.5 16C7.94772 16 7.5 16.4477 7.5 17C7.5 17.5523 7.94772 18 8.5 18H15.5C16.0523 18 16.5 17.5523 16.5 17C16.5 16.4477 16.0523 16 15.5 16H8.5ZM8.5 12.5C7.94772 12.5 7.5 12.9477 7.5 13.5C7.5 14.0523 7.94772 14.5 8.5 14.5H15.5C16.0523 14.5 16.5 14.0523 16.5 13.5C16.5 12.9477 16.0523 12.5 15.5 12.5H8.5ZM8.5 9C7.94772 9 7.5 9.44772 7.5 10C7.5 10.5523 7.94772 11 8.5 11H10.5C11.0523 11 11.5 10.5523 11.5 10C11.5 9.44772 11.0523 9 10.5 9H8.5ZM14.5 8H18.0859L14.5 4.41406V8Z" fill="black"/>
</svg>
