<svg width="24" height="24" viewBox="0 0 24 24" fill="none" xmlns="http://www.w3.org/2000/svg">
<path fill-rule="evenodd" clip-rule="evenodd" d="M13.6719 2C14.4674 2.00008 15.2304 2.31637 15.793 2.87891L19.6211 6.70703C20.1836 7.26957 20.4999 8.03259 20.5 8.82812V19C20.5 20.6569 19.1569 22 17.5 22H6.5C4.84315 22 3.5 20.6569 3.5 19V5C3.5 3.34315 4.84315 2 6.5 2H13.6719ZM12 10C11.4477 10 11 10.4477 11 11V13H9C8.44772 13 8 13.4477 8 14C8 14.5523 8.44772 15 9 15H11V17C11 17.5523 11.4477 18 12 18C12.5523 18 13 17.5523 13 17V15H15C15.5523 15 16 14.5523 16 14C16 13.4477 15.5523 13 15 13H13V11C13 10.4477 12.5523 10 12 10ZM14.5 8H18.0859L14.5 4.41406V8Z" fill="black"/>
</svg>
