<svg width="24" height="24" viewBox="0 0 24 24" fill="none" xmlns="http://www.w3.org/2000/svg">
<path fill-rule="evenodd" clip-rule="evenodd" d="M19 2C20.6568 2.00004 22 3.34317 22 5V19C22 20.6568 20.6568 22 19 22H5C3.34317 22 2.00004 20.6568 2 19V5C2 3.34315 3.34315 2 5 2H19ZM10 16C9.44772 16 9 16.4477 9 17C9.00004 17.5522 9.44774 18 10 18H14C14.5523 18 15 17.5522 15 17C15 16.4477 14.5523 16 14 16H10ZM8 11C7.44772 11 7 11.4477 7 12C7.00004 12.5522 7.44774 13 8 13H16C16.5523 13 17 12.5522 17 12C17 11.4477 16.5523 11 16 11H8ZM6 6C5.44772 6 5 6.44772 5 7C5.00004 7.55225 5.44774 8 6 8H18C18.5523 8 19 7.55225 19 7C19 6.44772 18.5523 6 18 6H6Z" fill="black"/>
</svg>
