<svg width="24" height="24" viewBox="0 0 24 24" fill="none" xmlns="http://www.w3.org/2000/svg">
<path fill-rule="evenodd" clip-rule="evenodd" d="M8.5 3C9.44427 3 10.3338 3.44478 10.9004 4.2002L11.2002 4.59961C11.389 4.85142 11.6852 5 12 5H19C20.6569 5 22 6.34315 22 8V18C22 19.6569 20.6569 21 19 21H5C3.34315 21 2 19.6569 2 18V6C2 4.34315 3.34315 3 5 3H8.5ZM15.707 10.293C15.3165 9.90244 14.6835 9.90244 14.293 10.293L11 13.5859L9.70703 12.293C9.31651 11.9024 8.68349 11.9024 8.29297 12.293C7.90244 12.6835 7.90244 13.3165 8.29297 13.707L10.1162 15.5303C10.6044 16.0184 11.3956 16.0184 11.8838 15.5303L15.707 11.707C16.0976 11.3165 16.0976 10.6835 15.707 10.293Z" fill="black"/>
</svg>
