<svg width="24" height="24" viewBox="0 0 24 24" fill="none" xmlns="http://www.w3.org/2000/svg">
<path fill-rule="evenodd" clip-rule="evenodd" d="M8.5 3C9.44427 3 10.3338 3.44478 10.9004 4.2002L11.2002 4.59961C11.389 4.85142 11.6852 5 12 5H19C20.6569 5 22 6.34315 22 8V18C22 19.6569 20.6569 21 19 21H5C3.34315 21 2 19.6569 2 18V6C2 4.34315 3.34315 3 5 3H8.5ZM14.8291 10.1719C14.4386 9.78135 13.8046 9.78135 13.4141 10.1719L12 11.585L10.5859 10.1719C10.1954 9.78135 9.5624 9.78135 9.17188 10.1719C8.78147 10.5624 8.78139 11.1955 9.17188 11.5859L10.5859 13L9.17188 14.4141C8.78139 14.8045 8.78147 15.4376 9.17188 15.8281C9.5624 16.2186 10.1954 16.2186 10.5859 15.8281L12 14.4141L13.4141 15.8281C13.8046 16.2186 14.4386 16.2186 14.8291 15.8281C15.2192 15.4376 15.2193 14.8045 14.8291 14.4141L13.4141 13L14.8291 11.5859C15.2193 11.1955 15.2192 10.5624 14.8291 10.1719Z" fill="black"/>
</svg>
