<svg width="24" height="24" viewBox="0 0 24 24" fill="none" xmlns="http://www.w3.org/2000/svg">
<path fill-rule="evenodd" clip-rule="evenodd" d="M8.5 3C9.44427 3 10.3338 3.44478 10.9004 4.2002L11.2002 4.59961C11.389 4.85142 11.6852 5 12 5H19C20.6569 5 22 6.34315 22 8V18C22 19.6569 20.6569 21 19 21H5C3.34315 21 2 19.6569 2 18V6C2 4.34315 3.34315 3 5 3H8.5ZM10.707 9.29297C10.3165 8.90244 9.68349 8.90244 9.29297 9.29297L6.64648 11.9395C6.06075 12.5252 6.06075 13.4748 6.64648 14.0605L9.29297 16.707C9.68349 17.0976 10.3165 17.0976 10.707 16.707C11.0976 16.3165 11.0976 15.6835 10.707 15.293L8.41406 13L10.707 10.707C11.0976 10.3165 11.0976 9.68349 10.707 9.29297ZM14.707 9.29297C14.3165 8.90244 13.6835 8.90244 13.293 9.29297C12.9024 9.68349 12.9024 10.3165 13.293 10.707L15.5859 13L13.293 15.293C12.9024 15.6835 12.9024 16.3165 13.293 16.707C13.6835 17.0976 14.3165 17.0976 14.707 16.707L17.3535 14.0605C17.9393 13.4748 17.9393 12.5252 17.3535 11.9395L14.707 9.29297Z" fill="black"/>
</svg>
