<svg width="24" height="24" viewBox="0 0 24 24" fill="none" xmlns="http://www.w3.org/2000/svg">
<path d="M8.5 3C9.44427 3 10.3338 3.44478 10.9004 4.2002L11.2002 4.59961C11.389 4.85141 11.6852 5 12 5H18C19.6569 5 21 6.34315 21 8V9H10.1631C8.71705 9.00016 7.47718 10.0322 7.21387 11.4541L6.40527 15.8184C6.30499 16.3612 6.66413 16.8829 7.20703 16.9834C7.74992 17.0837 8.27153 16.7245 8.37207 16.1816L9.17969 11.8184C9.26745 11.3445 9.68117 11.0002 10.1631 11H21.6035C22.2132 11.0001 22.6751 11.5393 22.5918 12.1367L21.3018 18.5879C21.0213 19.9902 19.7904 21 18.3604 21H5C3.34315 21 2 19.6569 2 18V6C2 4.34315 3.34315 3 5 3H8.5Z" fill="black"/>
</svg>
