<svg width="24" height="24" viewBox="0 0 24 24" fill="none" xmlns="http://www.w3.org/2000/svg">
<path fill-rule="evenodd" clip-rule="evenodd" d="M19 2C20.6569 2 22 3.34315 22 5V19C22 20.6569 20.6569 22 19 22H5C3.34315 22 2 20.6569 2 19V5C2 3.34315 3.34315 2 5 2H19ZM6 13C5.44772 13 5 13.4477 5 14C5 14.5523 5.44772 15 6 15H7.58594L5.29297 17.293C4.90244 17.6835 4.90244 18.3165 5.29297 18.707C5.68349 19.0976 6.31651 19.0976 6.70703 18.707L9 16.4141V18C9 18.5523 9.44772 19 10 19C10.5523 19 11 18.5523 11 18V14.5C11 13.6716 10.3284 13 9.5 13H6ZM14.5 13C13.6716 13 13 13.6716 13 14.5V18C13 18.5523 13.4477 19 14 19C14.5523 19 15 18.5523 15 18V16.4141L17.293 18.707C17.6835 19.0976 18.3165 19.0976 18.707 18.707C19.0976 18.3165 19.0976 17.6835 18.707 17.293L16.4141 15H18C18.5523 15 19 14.5523 19 14C19 13.4477 18.5523 13 18 13H14.5ZM10 5C9.44772 5 9 5.44772 9 6V7.58594L6.70703 5.29297C6.31651 4.90244 5.68349 4.90244 5.29297 5.29297C4.90244 5.68349 4.90244 6.31651 5.29297 6.70703L7.58594 9H6C5.44772 9 5 9.44772 5 10C5 10.5523 5.44772 11 6 11H9.5C10.3284 11 11 10.3284 11 9.5V6C11 5.44772 10.5523 5 10 5ZM18.707 5.29297C18.3165 4.90244 17.6835 4.90244 17.293 5.29297L15 7.58594V6C15 5.44772 14.5523 5 14 5C13.4477 5 13 5.44772 13 6V9.5C13 10.3284 13.6716 11 14.5 11H18C18.5523 11 19 10.5523 19 10C19 9.44772 18.5523 9 18 9H16.4141L18.707 6.70703C19.0976 6.31651 19.0976 5.68349 18.707 5.29297Z" fill="black"/>
</svg>
