<svg width="24" height="24" viewBox="0 0 24 24" fill="none" xmlns="http://www.w3.org/2000/svg">
<path fill-rule="evenodd" clip-rule="evenodd" d="M13.3096 2C13.836 2.0001 14.3026 2.32933 14.4824 2.81641L14.5146 2.91602L15.0146 4.71875L16.6465 3.79785L16.7393 3.75C17.1793 3.54767 17.6986 3.61875 18.0684 3.93164L18.1455 4.00293L19.9971 5.85449C20.3939 6.25143 20.4781 6.86481 20.2021 7.35352L19.2803 8.9834L21.085 9.48535C21.6257 9.63581 22 10.1291 22 10.6904V13.3096C22 13.8711 21.625 14.3644 21.084 14.5146L19.2803 15.0146L20.2021 16.6465C20.4781 17.1352 20.3939 17.7486 19.9971 18.1455L18.1455 19.9971C17.7486 20.394 17.1352 20.4781 16.6465 20.2021L15.0146 19.2793L14.5146 21.084C14.3645 21.6251 13.8711 21.9999 13.3096 22H10.6904C10.1291 22 9.63576 21.6258 9.48535 21.085L8.9834 19.2803L7.35449 20.2021C6.86586 20.4782 6.25247 20.3948 5.85547 19.998L4.00293 18.1455C3.60582 17.7486 3.52175 17.1354 3.79785 16.6465L4.71875 15.0146L2.91602 14.5146C2.37485 14.3645 2 13.8712 2 13.3096V10.6904C2 10.1291 2.37421 9.63577 2.91504 9.48535L4.71973 8.98242L3.79883 7.35352C3.52275 6.86474 3.60695 6.25145 4.00391 5.85449L5.85547 4.00293L5.93262 3.93164C6.32882 3.59648 6.89631 3.53906 7.35449 3.79785L8.9834 4.71777L9.48535 2.91504L9.51758 2.81543C9.69773 2.3288 10.1642 2 10.6904 2H13.3096ZM12 9C10.3431 9 9 10.3431 9 12C9 13.6569 10.3431 15 12 15C13.6569 15 15 13.6569 15 12C15 10.3431 13.6569 9 12 9Z" fill="black"/>
</svg>
