<svg width="24" height="24" viewBox="0 0 24 24" fill="none" xmlns="http://www.w3.org/2000/svg">
<path d="M10.0724 16.3638C11.2726 17.0235 12.7278 17.0238 13.9279 16.3638L14.0002 16.3237V20.4995C14.0002 20.6694 14.0141 20.8364 14.0412 20.9985L12.9806 21.5962C12.3721 21.9383 11.6283 21.9381 11.0197 21.5962L4.0197 17.6587C3.39031 17.3046 3.00049 16.6377 3.00017 15.9155V12.4741L10.0724 16.3638Z" fill="black"/>
<path d="M11.1242 8.01807C11.3904 7.53456 11.9979 7.35772 12.4816 7.62354L16.964 10.0884C17.6028 10.4397 17.9998 11.1113 18.0002 11.8403V20.4995C18.0002 21.0517 17.5524 21.4994 17.0002 21.4995C16.4479 21.4995 16.0002 21.0518 16.0002 20.4995V11.8403L11.5187 9.37549C11.0349 9.10936 10.8583 8.50192 11.1242 8.01807Z" fill="black"/>
<path d="M21.0002 15.9155C20.9998 16.6298 20.6175 17.289 20.0002 17.646V13.0239L21.0002 12.4741V15.9155Z" fill="black"/>
<path d="M11.0363 2.38916C11.6364 2.05931 12.364 2.05918 12.964 2.38916L20.8888 6.74854C22.2694 7.50863 22.2696 9.49254 20.8888 10.2524L19.8644 10.8149C19.5877 9.77287 18.8981 8.86915 17.9279 8.33545L13.4455 5.87061C11.994 5.0726 10.1698 5.60302 9.37126 7.0542C8.57315 8.50589 9.10324 10.33 10.5549 11.1284L14.0002 13.023V14.0415L12.964 14.6118C12.3641 14.9417 11.6363 14.9415 11.0363 14.6118L3.1115 10.2524C1.73013 9.49259 1.73021 7.50846 3.1115 6.74854L11.0363 2.38916Z" fill="black"/>
</svg>
