<svg width="24" height="24" viewBox="0 0 24 24" fill="none" xmlns="http://www.w3.org/2000/svg">
<path d="M10.0724 16.3639C11.2726 17.0237 12.7278 17.0239 13.9279 16.3639L14.0002 16.3239V20.4996C14.0002 20.6695 14.0141 20.8365 14.0412 20.9987L12.9806 21.5963C12.3721 21.9385 11.6283 21.9382 11.0197 21.5963L4.0197 17.6588C3.39031 17.3047 3.00049 16.6378 3.00017 15.9157V12.4742L10.0724 16.3639Z" fill="black"/>
<path d="M11.1242 8.01819C11.3904 7.53469 11.9979 7.35784 12.4816 7.62366L16.964 10.0885C17.6028 10.4399 17.9998 11.1114 18.0002 11.8405V20.4996C18.0002 21.0519 17.5524 21.4995 17.0002 21.4996C16.4479 21.4996 16.0002 21.0519 16.0002 20.4996V11.8405L11.5187 9.37561C11.0349 9.10949 10.8583 8.50205 11.1242 8.01819Z" fill="black"/>
<path d="M21.0002 15.9157C20.9998 16.6299 20.6175 17.2892 20.0002 17.6461V13.024L21.0002 12.4742V15.9157Z" fill="black"/>
<path d="M11.0363 2.38929C11.6364 2.05943 12.364 2.0593 12.964 2.38929L20.8888 6.74866C22.2694 7.50875 22.2696 9.49267 20.8888 10.2526L19.8644 10.8151C19.5877 9.77299 18.8981 8.86928 17.9279 8.33557L13.4455 5.87073C11.994 5.07272 10.1698 5.60315 9.37126 7.05432C8.57315 8.50601 9.10324 10.3302 10.5549 11.1285L14.0002 13.0231V14.0416L12.964 14.6119C12.3641 14.9418 11.6363 14.9416 11.0363 14.6119L3.1115 10.2526C1.73013 9.49271 1.73021 7.50858 3.1115 6.74866L11.0363 2.38929Z" fill="black"/>
</svg>
