<svg width="24" height="24" viewBox="0 0 24 24" fill="none" xmlns="http://www.w3.org/2000/svg">
<path d="M8 13C9.65685 13 11 14.3431 11 16V19C11 20.6569 9.65685 22 8 22H5C3.34315 22 2 20.6569 2 19V16C2 14.3431 3.34315 13 5 13H8Z" fill="black"/>
<path d="M19.793 14.793C20.1835 14.4024 20.8165 14.4024 21.207 14.793C21.5976 15.1835 21.5976 15.8165 21.207 16.207L17.3838 20.0303C16.8956 20.5184 16.1044 20.5184 15.6162 20.0303L13.793 18.207C13.4024 17.8165 13.4024 17.1835 13.793 16.793C14.1835 16.4024 14.8165 16.4024 15.207 16.793L16.5 18.0859L19.793 14.793Z" fill="black"/>
<path d="M8 2C9.65685 2 11 3.34315 11 5V8C11 9.65685 9.65685 11 8 11H5C3.34315 11 2 9.65685 2 8V5C2 3.34315 3.34315 2 5 2H8Z" fill="black"/>
<path d="M19 2C20.6569 2 22 3.34315 22 5V8C22 9.65685 20.6569 11 19 11H16C14.3431 11 13 9.65685 13 8V5C13 3.34315 14.3431 2 16 2H19Z" fill="black"/>
</svg>
