<svg width="24" height="24" viewBox="0 0 24 24" fill="none" xmlns="http://www.w3.org/2000/svg">
<path d="M8 13C9.65685 13 11 14.3431 11 16V19C11 20.6569 9.65685 22 8 22H5C3.34315 22 2 20.6569 2 19V16C2 14.3431 3.34315 13 5 13H8Z" fill="black"/>
<path d="M19 13C20.6569 13 22 14.3431 22 16V19C22 20.6569 20.6569 22 19 22H16C14.3431 22 13 20.6569 13 19V16C13 14.3431 14.3431 13 16 13H19Z" fill="black"/>
<path d="M8 2C9.65685 2 11 3.34315 11 5V8C11 9.65685 9.65685 11 8 11H5C3.34315 11 2 9.65685 2 8V5C2 3.34315 3.34315 2 5 2H8Z" fill="black"/>
<path d="M19 2C20.6569 2 22 3.34315 22 5V8C22 9.65685 20.6569 11 19 11H16C14.3431 11 13 9.65685 13 8V5C13 3.34315 14.3431 2 16 2H19Z" fill="black"/>
</svg>
