<svg width="24" height="24" viewBox="0 0 24 24" fill="none" xmlns="http://www.w3.org/2000/svg">
<path d="M8 13C9.65685 13 11 14.3431 11 16V19C11 20.6569 9.65685 22 8 22H5C3.34315 22 2 20.6569 2 19V16C2 14.3431 3.34315 13 5 13H8Z" fill="black"/>
<path d="M18.9141 14.6719C19.3046 14.2814 19.9386 14.2814 20.3291 14.6719C20.7192 15.0624 20.7194 15.6955 20.3291 16.0859L18.9141 17.5L20.3291 18.9141C20.7194 19.3045 20.7192 19.9376 20.3291 20.3281C19.9386 20.7186 19.3046 20.7186 18.9141 20.3281L17.5 18.9141L16.0859 20.3281C15.6954 20.7186 15.0624 20.7186 14.6719 20.3281C14.2815 19.9376 14.2814 19.3046 14.6719 18.9141L16.0859 17.5L14.6719 16.0859C14.2814 15.6954 14.2815 15.0624 14.6719 14.6719C15.0624 14.2814 15.6954 14.2814 16.0859 14.6719L17.5 16.085L18.9141 14.6719Z" fill="black"/>
<path d="M8 2C9.65685 2 11 3.34315 11 5V8C11 9.65685 9.65685 11 8 11H5C3.34315 11 2 9.65685 2 8V5C2 3.34315 3.34315 2 5 2H8Z" fill="black"/>
<path d="M19 2C20.6569 2 22 3.34315 22 5V8C22 9.65685 20.6569 11 19 11H16C14.3431 11 13 9.65685 13 8V5C13 3.34315 14.3431 2 16 2H19Z" fill="black"/>
</svg>
