<svg width="24" height="24" viewBox="0 0 24 24" fill="none" xmlns="http://www.w3.org/2000/svg">
<path d="M8 13C9.65685 13 11 14.3431 11 16V19C11 20.6569 9.65685 22 8 22H5C3.34315 22 2 20.6569 2 19V16C2 14.3431 3.34315 13 5 13H8Z" fill="black"/>
<path d="M17.5 13.5C18.0523 13.5 18.5 13.9477 18.5 14.5V16.5H20.5C21.0523 16.5 21.5 16.9477 21.5 17.5C21.5 18.0523 21.0523 18.5 20.5 18.5H18.5V20.5C18.5 21.0523 18.0523 21.5 17.5 21.5C16.9477 21.5 16.5 21.0523 16.5 20.5V18.5H14.5C13.9477 18.5 13.5 18.0523 13.5 17.5C13.5 16.9477 13.9477 16.5 14.5 16.5H16.5V14.5C16.5 13.9477 16.9477 13.5 17.5 13.5Z" fill="black"/>
<path d="M8 2C9.65685 2 11 3.34315 11 5V8C11 9.65685 9.65685 11 8 11H5C3.34315 11 2 9.65685 2 8V5C2 3.34315 3.34315 2 5 2H8Z" fill="black"/>
<path d="M19 2C20.6569 2 22 3.34315 22 5V8C22 9.65685 20.6569 11 19 11H16C14.3431 11 13 9.65685 13 8V5C13 3.34315 14.3431 2 16 2H19Z" fill="black"/>
</svg>
