<svg width="24" height="24" viewBox="0 0 24 24" fill="none" xmlns="http://www.w3.org/2000/svg">
<path d="M10.543 2.66532C11.449 2.16202 12.551 2.16202 13.457 2.66532L20.457 6.55497C21.4092 7.08412 22 8.08768 22 9.17704V19.0003C21.9999 20.657 20.6568 22.0003 19 22.0003H16C15.4477 22.0003 15 21.5526 15 21.0003V15.5003C15 14.6719 14.3284 14.0003 13.5 14.0003H10.5C9.67157 14.0003 9 14.6719 9 15.5003V21.0003C9 21.5526 8.55228 22.0003 8 22.0003H5C3.34323 22.0003 2.00014 20.657 2 19.0003V9.17704C2.00002 8.08768 2.59079 7.08412 3.54297 6.55497L10.543 2.66532Z" fill="black"/>
</svg>
