<svg width="24" height="24" viewBox="0 0 24 24" fill="none" xmlns="http://www.w3.org/2000/svg">
<path fill-rule="evenodd" clip-rule="evenodd" d="M17.3955 3C18.8016 3 20.0192 3.977 20.3242 5.34961L21.9287 12.5684C21.9762 12.782 22 13.0008 22 13.2197V18C22 19.6569 20.6569 21 19 21H5C3.34315 21 2 19.6569 2 18V13.2197C2 13.0008 2.02381 12.782 2.07129 12.5684L3.67578 5.34961C3.98081 3.977 5.1984 3 6.60449 3H17.3955ZM4 13V18C4 18.5523 4.44772 19 5 19H19C19.5523 19 20 18.5523 20 18V13H16.8281C16.0326 13.0001 15.2696 13.3164 14.707 13.8789L13.8789 14.707C13.6914 14.8945 13.437 14.9999 13.1719 15H10.8281C10.563 14.9999 10.3086 14.8945 10.1211 14.707L9.29297 13.8789C8.80061 13.3865 8.15466 13.0828 7.46777 13.0146L7.17188 13H4Z" fill="black"/>
</svg>
