<svg width="24" height="24" viewBox="0 0 24 24" fill="none" xmlns="http://www.w3.org/2000/svg">
<path fill-rule="evenodd" clip-rule="evenodd" d="M17.3955 3C18.8016 3 20.0192 3.977 20.3242 5.34961L21.9287 12.5684C21.9762 12.782 22 13.0008 22 13.2197V18C22 19.6569 20.6569 21 19 21H5C3.34315 21 2 19.6569 2 18V13.2197C2 13.0008 2.02381 12.782 2.07129 12.5684L3.67578 5.34961C3.98081 3.977 5.1984 3 6.60449 3H17.3955ZM4 18C4 18.5523 4.44772 19 5 19H19C19.5523 19 20 18.5523 20 18V13.5H16.8281C16.0326 13.5001 15.2696 13.8164 14.707 14.3789L13.8789 15.207C13.6914 15.3945 13.437 15.4999 13.1719 15.5H10.8281C10.563 15.4999 10.3086 15.3945 10.1211 15.207L9.29297 14.3789C8.80061 13.8865 8.15466 13.5828 7.46777 13.5146L7.17188 13.5H4V18ZM13.0605 5.64648C12.4748 5.06075 11.5252 5.06075 10.9395 5.64648L8.79297 7.79297C8.40244 8.18349 8.40244 8.81651 8.79297 9.20703C9.18349 9.59756 9.81651 9.59756 10.207 9.20703L11 8.41406V12C11 12.5523 11.4477 13 12 13C12.5523 13 13 12.5523 13 12V8.41406L13.793 9.20703C14.1835 9.59756 14.8165 9.59756 15.207 9.20703C15.5976 8.81651 15.5976 8.18349 15.207 7.79297L13.0605 5.64648Z" fill="black"/>
</svg>
