<svg width="24" height="24" viewBox="0 0 24 24" fill="none" xmlns="http://www.w3.org/2000/svg">
<path fill-rule="evenodd" clip-rule="evenodd" d="M19 2C20.6568 2.00004 22 3.34317 22 5V19C22 20.6568 20.6568 22 19 22H5C3.34317 22 2.00004 20.6568 2 19V5C2 3.34315 3.34315 2 5 2H19ZM7 16C6.44772 16 6 16.4477 6 17C6.00004 17.5522 6.44774 18 7 18H17C17.5523 18 18 17.5522 18 17C18 16.4477 17.5523 16 17 16H7ZM7 11C6.44772 11 6 11.4477 6 12C6.00004 12.5522 6.44774 13 7 13H17C17.5523 13 18 12.5522 18 12C18 11.4477 17.5523 11 17 11H7ZM7 6C6.44772 6 6 6.44772 6 7C6.00004 7.55225 6.44774 8 7 8H17C17.5523 8 18 7.55225 18 7C18 6.44772 17.5523 6 17 6H7Z" fill="black"/>
</svg>
