<svg width="24" height="24" viewBox="0 0 24 24" fill="none" xmlns="http://www.w3.org/2000/svg">
<path fill-rule="evenodd" clip-rule="evenodd" d="M22 19C22 20.6569 20.6569 22 19 22H5C3.34315 22 2 20.6569 2 19V5C2 3.34315 3.34315 2 5 2H19C20.6569 2 22 3.34315 22 5V19ZM9 9C9 8.44772 8.55228 8 8 8H7C6.44772 8 6 8.44772 6 9C6 9.55228 6.44772 10 7 10H8C8.55228 10 9 9.55228 9 9ZM13.5 9C13.5 8.44772 13.0523 8 12.5 8H11.5C10.9477 8 10.5 8.44772 10.5 9C10.5 9.55228 10.9477 10 11.5 10H12.5C13.0523 10 13.5 9.55228 13.5 9ZM18 9C18 8.44772 17.5523 8 17 8H16C15.4477 8 15 8.44772 15 9C15 9.55228 15.4477 10 16 10H17C17.5523 10 18 9.55228 18 9Z" fill="black"/>
</svg>
