<svg width="24" height="24" viewBox="0 0 24 24" fill="none" xmlns="http://www.w3.org/2000/svg">
<path fill-rule="evenodd" clip-rule="evenodd" d="M19 2C20.6569 2 22 3.34315 22 5V19C22 20.6569 20.6569 22 19 22H5C3.34315 22 2 20.6569 2 19V5C2 3.34315 3.34315 2 5 2H19ZM9 15C8.44772 15 8 15.4477 8 16V17C8 17.5523 8.44772 18 9 18C9.55228 18 10 17.5523 10 17V16C10 15.4477 9.55228 15 9 15ZM9 10.5C8.44772 10.5 8 10.9477 8 11.5V12.5C8 13.0523 8.44772 13.5 9 13.5C9.55228 13.5 10 13.0523 10 12.5V11.5C10 10.9477 9.55228 10.5 9 10.5ZM9 6C8.44772 6 8 6.44772 8 7V8C8 8.55228 8.44772 9 9 9C9.55228 9 10 8.55228 10 8V7C10 6.44772 9.55228 6 9 6Z" fill="black"/>
</svg>
