<svg width="24" height="24" viewBox="0 0 24 24" fill="none" xmlns="http://www.w3.org/2000/svg">
<path fill-rule="evenodd" clip-rule="evenodd" d="M22 5C22 3.34315 20.6569 2 19 2H5C3.34315 2 2 3.34315 2 5V19C2 20.6569 3.34315 22 5 22H19C20.6569 22 22 20.6569 22 19V5ZM9 15C9 15.5523 8.55228 16 8 16H7C6.44772 16 6 15.5523 6 15C6 14.4477 6.44772 14 7 14H8C8.55228 14 9 14.4477 9 15ZM13.5 15C13.5 15.5523 13.0523 16 12.5 16H11.5C10.9477 16 10.5 15.5523 10.5 15C10.5 14.4477 10.9477 14 11.5 14H12.5C13.0523 14 13.5 14.4477 13.5 15ZM18 15C18 15.5523 17.5523 16 17 16H16C15.4477 16 15 15.5523 15 15C15 14.4477 15.4477 14 16 14H17C17.5523 14 18 14.4477 18 15Z" fill="black"/>
</svg>
