<svg width="24" height="24" viewBox="0 0 24 24" fill="none" xmlns="http://www.w3.org/2000/svg">
<path fill-rule="evenodd" clip-rule="evenodd" d="M19 2C20.6569 2 22 3.34315 22 5V19C22 20.6569 20.6569 22 19 22H5C3.34315 22 2 20.6569 2 19V5C2 3.34315 3.34315 2 5 2H19ZM7 15C6.44772 15 6 15.4477 6 16V16.5C6 17.3284 6.67157 18 7.5 18H8C8.55228 18 9 17.5523 9 17C9 16.4477 8.55228 16 8 16C8 15.4477 7.55228 15 7 15ZM11.5 16C10.9477 16 10.5 16.4477 10.5 17C10.5 17.5523 10.9477 18 11.5 18H12.5C13.0523 18 13.5 17.5523 13.5 17C13.5 16.4477 13.0523 16 12.5 16H11.5ZM17 15C16.4477 15 16 15.4477 16 16C15.4477 16 15 16.4477 15 17C15 17.5523 15.4477 18 16 18H16.5C17.3284 18 18 17.3284 18 16.5V16C18 15.4477 17.5523 15 17 15ZM7 10.5C6.44772 10.5 6 10.9477 6 11.5V12.5C6 13.0523 6.44772 13.5 7 13.5C7.55228 13.5 8 13.0523 8 12.5V11.5C8 10.9477 7.55228 10.5 7 10.5ZM17 10.5C16.4477 10.5 16 10.9477 16 11.5V12.5C16 13.0523 16.4477 13.5 17 13.5C17.5523 13.5 18 13.0523 18 12.5V11.5C18 10.9477 17.5523 10.5 17 10.5ZM7.5 6C6.67157 6 6 6.67157 6 7.5V8C6 8.55228 6.44772 9 7 9C7.55228 9 8 8.55228 8 8C8.55228 8 9 7.55228 9 7C9 6.44772 8.55228 6 8 6H7.5ZM16 6C15.4477 6 15 6.44772 15 7C15 7.55228 15.4477 8 16 8C16 8.55228 16.4477 9 17 9C17.5523 9 18 8.55228 18 8V7.5C18 6.67157 17.3284 6 16.5 6H16ZM11.5 6C10.9477 6 10.5 6.44772 10.5 7C10.5 7.55228 10.9477 8 11.5 8H12.5C13.0523 8 13.5 7.55228 13.5 7C13.5 6.44772 13.0523 6 12.5 6H11.5Z" fill="black"/>
</svg>
