<svg width="24" height="24" viewBox="0 0 24 24" fill="none" xmlns="http://www.w3.org/2000/svg">
<path fill-rule="evenodd" clip-rule="evenodd" d="M5 2C3.34315 2 2 3.34315 2 5V19C2 20.6569 3.34315 22 5 22H19C20.6569 22 22 20.6569 22 19V5C22 3.34315 20.6569 2 19 2H5ZM15 15C15.5523 15 16 15.4477 16 16V17C16 17.5523 15.5523 18 15 18C14.4477 18 14 17.5523 14 17V16C14 15.4477 14.4477 15 15 15ZM15 10.5C15.5523 10.5 16 10.9477 16 11.5V12.5C16 13.0523 15.5523 13.5 15 13.5C14.4477 13.5 14 13.0523 14 12.5V11.5C14 10.9477 14.4477 10.5 15 10.5ZM15 6C15.5523 6 16 6.44772 16 7V8C16 8.55228 15.5523 9 15 9C14.4477 9 14 8.55228 14 8V7C14 6.44772 14.4477 6 15 6Z" fill="black"/>
</svg>
