<svg width="24" height="24" viewBox="0 0 24 24" fill="none" xmlns="http://www.w3.org/2000/svg">
<path fill-rule="evenodd" clip-rule="evenodd" d="M2 5C2 3.34315 3.34315 2 5 2H19C20.6569 2 22 3.34315 22 5V19C22 20.6569 20.6569 22 19 22H5C3.34315 22 2 20.6569 2 19V5ZM15 17C15 17.5523 15.4477 18 16 18H17C17.5523 18 18 17.5523 18 17C18 16.4477 17.5523 16 17 16H16C15.4477 16 15 16.4477 15 17ZM15 7C15 7.55228 15.4477 8 16 8H17C17.5523 8 18 7.55228 18 7C18 6.44772 17.5523 6 17 6H16C15.4477 6 15 6.44772 15 7ZM10.5 17C10.5 17.5523 10.9477 18 11.5 18H12.5C13.0523 18 13.5 17.5523 13.5 17C13.5 16.4477 13.0523 16 12.5 16H11.5C10.9477 16 10.5 16.4477 10.5 17ZM10.5 7C10.5 7.55228 10.9477 8 11.5 8H12.5C13.0523 8 13.5 7.55228 13.5 7C13.5 6.44772 13.0523 6 12.5 6H11.5C10.9477 6 10.5 6.44772 10.5 7ZM6 17C6 17.5523 6.44772 18 7 18H8C8.55228 18 9 17.5523 9 17C9 16.4477 8.55228 16 8 16H7C6.44772 16 6 16.4477 6 17ZM6 7C6 7.55228 6.44772 8 7 8H8C8.55228 8 9 7.55228 9 7C9 6.44772 8.55228 6 8 6H7C6.44772 6 6 6.44772 6 7Z" fill="black"/>
</svg>
