<svg width="24" height="24" viewBox="0 0 24 24" fill="none" xmlns="http://www.w3.org/2000/svg">
<path d="M19 2C20.6568 2.00004 22 3.34317 22 5V19C22 20.6568 20.6568 22 19 22H5C3.34317 22 2.00004 20.6568 2 19V5C2 3.34315 3.34315 2 5 2H19ZM12 5C11.4477 5 11 5.44772 11 6V11H6C5.44772 11 5 11.4477 5 12C5.00004 12.5522 5.44774 13 6 13H11V18C11 18.5522 11.4477 19 12 19C12.5522 19 13 18.5522 13 18V13H18C18.5522 13 19 12.5522 19 12C19 11.4477 18.5523 11 18 11H13V6C13 5.44774 12.5523 5.00003 12 5Z" fill="black"/>
</svg>
