<svg width="24" height="24" viewBox="0 0 24 24" fill="none" xmlns="http://www.w3.org/2000/svg">
<path d="M13.4141 15.6719C13.8046 15.2814 14.4376 15.2814 14.8281 15.6719C15.2186 16.0624 15.2186 16.6954 14.8281 17.0859L13.4141 18.499L14.8291 19.9141C15.2196 20.3046 15.2196 20.9386 14.8291 21.3291C14.4386 21.7196 13.8046 21.7196 13.4141 21.3291L12 19.9141L10.5859 21.3291C10.1954 21.7196 9.56141 21.7196 9.1709 21.3291C8.78039 20.9386 8.78041 20.3046 9.1709 19.9141L10.585 18.499L9.17188 17.0859C8.78135 16.6954 8.78135 16.0624 9.17188 15.6719C9.5624 15.2814 10.1954 15.2814 10.5859 15.6719L12 17.085L13.4141 15.6719Z" fill="black"/>
<path d="M20 9C21.1046 9 22 9.89543 22 11V13C22 14.1046 21.1046 15 20 15H17C16.4477 15 16 14.5523 16 14C16 13.4477 16.4477 13 17 13H20V11H4V13H7C7.55229 13 8 13.4477 8 14C8 14.5523 7.55229 15 7 15H4C2.89543 15 2 14.1046 2 13V11C2 9.89543 2.89543 9 4 9H20Z" fill="black"/>
<path d="M20 2C21.1046 2 22 2.89543 22 4V6C22 7.10457 21.1046 8 20 8H4C2.89543 8 2 7.10457 2 6V4C2 2.89543 2.89543 2 4 2H20Z" fill="black"/>
</svg>
