<svg width="24" height="24" viewBox="0 0 24 24" fill="none" xmlns="http://www.w3.org/2000/svg">
<path d="M14.293 16.293C14.6835 15.9024 15.3165 15.9024 15.707 16.293C16.0976 16.6835 16.0976 17.3165 15.707 17.707L11.8838 21.5303C11.3956 22.0184 10.6044 22.0184 10.1162 21.5303L8.29297 19.707C7.90244 19.3165 7.90244 18.6835 8.29297 18.293C8.68349 17.9024 9.31651 17.9024 9.70703 18.293L11 19.5859L14.293 16.293Z" fill="black"/>
<path d="M20 9C21.1046 9 22 9.89543 22 11V13C22 14.1046 21.1046 15 20 15H19C18.4477 15 18 14.5523 18 14C18 13.4477 18.4477 13 19 13H20V11H4V13H11C11.5523 13 12 13.4477 12 14C12 14.5523 11.5523 15 11 15H4C2.89543 15 2 14.1046 2 13V11C2 9.89543 2.89543 9 4 9H20Z" fill="black"/>
<path d="M20 2C21.1046 2 22 2.89543 22 4V6C22 7.10457 21.1046 8 20 8H4C2.89543 8 2 7.10457 2 6V4C2 2.89543 2.89543 2 4 2H20Z" fill="black"/>
</svg>
