<svg width="24" height="24" viewBox="0 0 24 24" fill="none" xmlns="http://www.w3.org/2000/svg">
<path d="M6.00098 16C6.55326 16 7.00098 16.4477 7.00098 17C7.00098 17.5523 6.55326 18 6.00098 18C5.44869 18 5 17.5523 5 17C5 16.4477 5.44869 16 6.00098 16Z" fill="black"/>
<path d="M9.00098 16C9.55326 16 10.001 16.4477 10.001 17C10.001 17.5523 9.55326 18 9.00098 18C8.44869 18 8 17.5523 8 17C8 16.4477 8.44869 16 9.00098 16Z" fill="black"/>
<path d="M18 16C18.5523 16 19 16.4477 19 17C19 17.5523 18.5523 18 18 18H12C11.4477 18 11 17.5523 11 17C11 16.4477 11.4477 16 12 16H18Z" fill="black"/>
<path fill-rule="evenodd" clip-rule="evenodd" d="M17.3604 3C18.7904 3 20.0213 4.00984 20.3018 5.41211L21.9414 13.6094C21.9802 13.8031 22 14.0007 22 14.1982V18C22 19.6569 20.6569 21 19 21H5C3.34315 21 2 19.6569 2 18V14.1982C2 14.0007 2.01985 13.8031 2.05859 13.6094L3.69824 5.41211C3.9787 4.00984 5.2096 3 6.63965 3H17.3604ZM5 15C4.44772 15 4 15.4477 4 16V18C4 18.5523 4.44772 19 5 19H19C19.5523 19 20 18.5523 20 18V16C20 15.4477 19.5523 15 19 15H5Z" fill="black"/>
</svg>
