<svg width="24" height="24" viewBox="0 0 24 24" fill="none" xmlns="http://www.w3.org/2000/svg">
<path d="M9 16.0003C9.00021 17.657 10.3433 19.0003 12 19.0003C13.6567 19.0003 14.9998 17.657 15 16.0003V7.50035H18C19.6569 7.50035 21 8.84349 21 10.5003V19.0003C20.9998 20.657 19.6567 22.0003 18 22.0003H6C4.34327 22.0003 3.00021 20.657 3 19.0003V10.5003C3 8.84349 4.34315 7.50035 6 7.50035H9V16.0003Z" fill="black"/>
<path d="M11.0537 1.54429C11.6429 1.06381 12.5114 1.09771 13.0605 1.64683L15.707 4.29332C16.0974 4.68386 16.0975 5.31692 15.707 5.70738C15.3166 6.09765 14.6834 6.09765 14.293 5.70738L13 4.41441V16.0003C12.9998 16.5525 12.5522 17.0003 12 17.0003C11.4478 17.0003 11.0002 16.5525 11 16.0003V4.41441L9.70703 5.70738C9.31656 6.09765 8.68344 6.09765 8.29297 5.70738C7.90251 5.31692 7.90264 4.68386 8.29297 4.29332L10.9395 1.64683L11.0537 1.54429Z" fill="black"/>
</svg>
