<svg width="24" height="24" viewBox="0 0 24 24" fill="none" xmlns="http://www.w3.org/2000/svg">
<path d="M15.5 8C15.5 6.97512 16.1174 6.0959 17 5.70996V4C17 3.44772 17.4477 3 18 3C18.5523 3 19 3.44772 19 4V5.70996C19.8826 6.0959 20.5 6.97512 20.5 8C20.5 9.02488 19.8826 9.9041 19 10.29V20C19 20.5523 18.5523 21 18 21C17.4477 21 17 20.5523 17 20V10.29C16.1174 9.9041 15.5 9.02488 15.5 8Z" fill="black"/>
<path d="M9.5 16C9.5 14.9751 10.1174 14.0959 11 13.71V4C11 3.44771 11.4477 3 12 3C12.5523 3 13 3.44771 13 4V13.71C13.8826 14.0959 14.5 14.9751 14.5 16C14.5 17.0249 13.8826 17.9041 13 18.29V20C13 20.5523 12.5523 21 12 21C11.4477 21 11 20.5523 11 20V18.29C10.1174 17.9041 9.5 17.0249 9.5 16Z" fill="black"/>
<path d="M3.5 10C3.5 8.97512 4.11743 8.0959 5 7.70996V4C5 3.44772 5.44772 3 6 3C6.55228 3 7 3.44772 7 4V7.70996C7.88257 8.0959 8.5 8.97512 8.5 10C8.5 11.0249 7.88257 11.9041 7 12.29V20C7 20.5523 6.55228 21 6 21C5.44772 21 5 20.5523 5 20V12.29C4.11743 11.9041 3.5 11.0249 3.5 10Z" fill="black"/>
</svg>
