<svg width="24" height="24" viewBox="0 0 24 24" fill="none" xmlns="http://www.w3.org/2000/svg">
<path d="M16 15.5C17.0249 15.5 17.9041 16.1174 18.29 17H20C20.5523 17 21 17.4477 21 18C21 18.5523 20.5523 19 20 19H18.29C17.9041 19.8826 17.0249 20.5 16 20.5C14.9751 20.5 14.0959 19.8826 13.71 19H4C3.44772 19 3 18.5523 3 18C3 17.4477 3.44772 17 4 17H13.71C14.0959 16.1174 14.9751 15.5 16 15.5Z" fill="black"/>
<path d="M8 9.5C9.02488 9.5 9.9041 10.1174 10.29 11H20C20.5523 11 21 11.4477 21 12C21 12.5523 20.5523 13 20 13H10.29C9.9041 13.8826 9.02488 14.5 8 14.5C6.97512 14.5 6.0959 13.8826 5.70996 13H4C3.44772 13 3 12.5523 3 12C3 11.4477 3.44772 11 4 11H5.70996C6.0959 10.1174 6.97512 9.5 8 9.5Z" fill="black"/>
<path d="M14 3.5C15.0249 3.5 15.9041 4.11743 16.29 5H20C20.5523 5 21 5.44772 21 6C21 6.55228 20.5523 7 20 7H16.29C15.9041 7.88257 15.0249 8.5 14 8.5C12.9751 8.5 12.0959 7.88257 11.71 7H4C3.44772 7 3 6.55228 3 6C3 5.44772 3.44772 5 4 5H11.71C12.0959 4.11743 12.9751 3.5 14 3.5Z" fill="black"/>
</svg>
