<svg width="24" height="24" viewBox="0 0 24 24" fill="none" xmlns="http://www.w3.org/2000/svg">
<path fill-rule="evenodd" clip-rule="evenodd" d="M19 2C20.6569 2 22 3.34315 22 5V19C22 20.6569 20.6569 22 19 22H5C3.34315 22 2 20.6569 2 19V5C2 3.34315 3.34315 2 5 2H19ZM5 16C4.44772 16 4 16.4477 4 17V18C4 19.1046 4.89543 20 6 20H7C7.55228 20 8 19.5523 8 19C8 18.4477 7.55228 18 7 18H6V17C6 16.4477 5.55228 16 5 16ZM11 18C10.4477 18 10 18.4477 10 19C10 19.5523 10.4477 20 11 20H13C13.5523 20 14 19.5523 14 19C14 18.4477 13.5523 18 13 18H11ZM19 16C18.4477 16 18 16.4477 18 17V18H17C16.4477 18 16 18.4477 16 19C16 19.5523 16.4477 20 17 20H18C19.1046 20 20 19.1046 20 18V17C20 16.4477 19.5523 16 19 16ZM5 10C4.44772 10 4 10.4477 4 11V13C4 13.5523 4.44772 14 5 14C5.55228 14 6 13.5523 6 13V11C6 10.4477 5.55228 10 5 10ZM19 10C18.4477 10 18 10.4477 18 11V13C18 13.5523 18.4477 14 19 14C19.5523 14 20 13.5523 20 13V11C20 10.4477 19.5523 10 19 10ZM6 4C4.89543 4 4 4.89543 4 6V7C4 7.55228 4.44772 8 5 8C5.55228 8 6 7.55228 6 7V6H7C7.55228 6 8 5.55228 8 5C8 4.44772 7.55228 4 7 4H6ZM17 4C16.4477 4 16 4.44772 16 5C16 5.55228 16.4477 6 17 6H18V7C18 7.55228 18.4477 8 19 8C19.5523 8 20 7.55228 20 7V6C20 4.89543 19.1046 4 18 4H17ZM11 4C10.4477 4 10 4.44772 10 5C10 5.55228 10.4477 6 11 6H13C13.5523 6 14 5.55228 14 5C14 4.44772 13.5523 4 13 4H11Z" fill="black"/>
</svg>
