<svg width="24" height="24" viewBox="0 0 24 24" fill="none" xmlns="http://www.w3.org/2000/svg">
<path fill-rule="evenodd" clip-rule="evenodd" d="M17.6455 2C18.8722 2 19.9761 2.74677 20.4316 3.88574L21.7852 7.27051C21.9268 7.62475 21.9999 8.00324 22 8.38477V19C22 20.6569 20.6569 22 19 22H5C3.34315 22 2 20.6569 2 19V8.38477C2.00005 8.00324 2.07315 7.62475 2.21484 7.27051L3.56836 3.88574C4.02395 2.74677 5.12778 2 6.35449 2H17.6455ZM10.5 14C9.67157 14 9 14.6716 9 15.5V20H15V15.5C15 14.6716 14.3284 14 13.5 14H10.5ZM6.35449 4C5.94559 4 5.57764 4.24925 5.42578 4.62891L4.31055 7.41504C4.3134 7.41899 4.31653 7.42275 4.31934 7.42676L4.9873 8.38086C5.17175 8.64435 5.55339 8.66778 5.76855 8.42871L6.38477 7.74414C6.9434 7.12343 7.89083 7.08477 8.49805 7.62793L8.61523 7.74414L9.37793 8.5918C9.57655 8.81249 9.92345 8.81249 10.1221 8.5918L10.8848 7.74414C11.4434 7.12343 12.3908 7.08477 12.998 7.62793L13.1152 7.74414L13.8779 8.5918C14.0766 8.81249 14.4234 8.81249 14.6221 8.5918L15.3848 7.74414C15.9434 7.12343 16.8908 7.08477 17.498 7.62793L17.6152 7.74414L18.2314 8.42871C18.4466 8.66778 18.8282 8.64435 19.0127 8.38086L19.6807 7.42676C19.6834 7.42291 19.6857 7.41884 19.6885 7.41504L18.5742 4.62891C18.4224 4.24925 18.0544 4 17.6455 4H6.35449Z" fill="black"/>
</svg>
