<svg width="24" height="24" viewBox="0 0 24 24" fill="none" xmlns="http://www.w3.org/2000/svg">
<path d="M12 19.5C12.5523 19.5 13 19.9477 13 20.5V21C13 21.5523 12.5523 22 12 22C11.4477 22 10.999 21.5523 10.999 21V20.5L11.0039 20.3975C11.0552 19.8933 11.4823 19.5 12 19.5Z" fill="black"/>
<path d="M5.35742 17.2334C5.75014 16.9133 6.32927 16.9368 6.69531 17.3027L6.69629 17.3037C7.08666 17.6942 7.08676 18.3273 6.69629 18.7178L6.34277 19.0713C5.95229 19.4616 5.3192 19.4616 4.92871 19.0713C4.53824 18.6808 4.53736 18.0468 4.92773 17.6562L5.28125 17.3027L5.35742 17.2334Z" fill="black"/>
<path d="M17.3037 17.3037C17.6942 16.9132 18.3272 16.9132 18.7178 17.3037L19.0713 17.6572C19.4617 18.0478 19.4618 18.6808 19.0713 19.0713C18.6808 19.4618 18.0468 19.4618 17.6562 19.0713L17.3027 18.7178L17.2334 18.6426C16.9132 18.2498 16.9377 17.6698 17.3037 17.3037Z" fill="black"/>
<path d="M12 7C14.7614 7 17 9.23858 17 12C17 14.7614 14.7614 17 12 17C9.23858 17 7 14.7614 7 12C7 9.23858 9.23858 7 12 7Z" fill="black"/>
<path d="M21 11C21.5523 11 22 11.4477 22 12C22 12.5523 21.5523 13.001 21 13.001H20.5L20.3975 12.9961C19.8933 12.9448 19.5 12.5187 19.5 12.001C19.5 11.4487 19.9477 11 20.5 11H21Z" fill="black"/>
<path d="M3.60254 11.0039C4.10667 11.0552 4.5 11.4813 4.5 11.999C4.5 12.5513 4.05228 13 3.5 13H3C2.44772 13 2 12.5523 2 12C2 11.4477 2.44772 10.999 3 10.999H3.5L3.60254 11.0039Z" fill="black"/>
<path d="M4.92969 4.92871C5.32021 4.53819 5.95323 4.53819 6.34375 4.92871L6.69727 5.28223L6.7666 5.35742C7.08676 5.75019 7.06331 6.33024 6.69727 6.69629C6.30674 7.08681 5.67275 7.08681 5.28223 6.69629L4.92871 6.34277C4.53834 5.95224 4.53921 5.31918 4.92969 4.92871Z" fill="black"/>
<path d="M17.6572 4.92871C18.0477 4.53839 18.6808 4.53839 19.0713 4.92871C19.4618 5.31918 19.4626 5.95321 19.0723 6.34375L18.7188 6.69727L18.6426 6.7666C18.2499 7.08669 17.6707 7.06317 17.3047 6.69727L17.3037 6.69629C16.9133 6.30575 16.9132 5.6727 17.3037 5.28223L17.6572 4.92871Z" fill="black"/>
<path d="M12.001 2C12.5533 2 13.001 2.44772 13.001 3V3.5L12.9961 3.60254C12.9448 4.10667 12.5187 4.5 12.001 4.5C11.4487 4.5 11 4.05228 11 3.5V3C11 2.44772 11.4487 2 12.001 2Z" fill="black"/>
</svg>
