<svg width="24" height="24" viewBox="0 0 24 24" fill="none" xmlns="http://www.w3.org/2000/svg">
<path d="M21 17C21.5523 17 22 17.4477 22 18C22 18.5523 21.5523 19 21 19H3C2.44772 19 2 18.5523 2 18C2 17.4477 2.44772 17 3 17H21Z" fill="black"/>
<path d="M21 13.5C21.5523 13.5 22 13.9477 22 14.5C22 15.0523 21.5523 15.501 21 15.501H19.5L19.3975 15.4961C18.8933 15.4448 18.5 15.0187 18.5 14.501C18.5 13.9487 18.9477 13.5 19.5 13.5H21Z" fill="black"/>
<path d="M4.60254 13.5039C5.10667 13.5552 5.5 13.9813 5.5 14.499C5.5 15.0513 5.05228 15.5 4.5 15.5H3C2.44772 15.5 2 15.0523 2 14.5C2 13.9477 2.44772 13.499 3 13.499H4.5L4.60254 13.5039Z" fill="black"/>
<path d="M12 9.5C14.6568 9.5 16.8288 11.5717 16.9902 14.1885C17.0366 14.9415 16.4238 15.5 15.75 15.5H8.25C7.57618 15.5 6.96336 14.9415 7.00977 14.1885L7.03027 13.9443C7.30709 11.444 9.42632 9.5 12 9.5Z" fill="black"/>
<path d="M4.92969 7.42871C5.32021 7.03819 5.95323 7.03819 6.34375 7.42871L7.4043 8.48926L7.47363 8.56445C7.79381 8.95722 7.77035 9.53727 7.4043 9.90332L7.40332 9.9043C7.01284 10.2944 6.37969 10.2945 5.98926 9.9043L4.92871 8.84277C4.53834 8.45224 4.53921 7.81918 4.92969 7.42871Z" fill="black"/>
<path d="M17.6572 7.42871C18.0477 7.03839 18.6808 7.03839 19.0713 7.42871C19.4618 7.81918 19.4626 8.45321 19.0723 8.84375L18.0117 9.9043L17.9355 9.97363C17.5428 10.2938 16.9637 10.2702 16.5977 9.9043C16.2071 9.51377 16.2062 8.87978 16.5967 8.48926L17.6572 7.42871Z" fill="black"/>
<path d="M12 4.5C12.5523 4.5 13 4.94772 13 5.5V7C13 7.55228 12.5523 8 12 8C11.4477 8 11 7.55228 11 7V5.5C11 4.94772 11.4477 4.5 12 4.5Z" fill="black"/>
</svg>
