<svg width="24" height="24" viewBox="0 0 24 24" fill="none" xmlns="http://www.w3.org/2000/svg">
<path d="M12 18.5C12.5523 18.5 13 18.9477 13 19.5V21C13 21.5523 12.5523 22 12 22C11.4477 22 10.999 21.5523 10.999 21V19.5L11.0039 19.3975C11.0552 18.8933 11.4823 18.5 12 18.5Z" fill="black"/>
<path d="M6.06445 16.5264C6.45718 16.2062 7.03628 16.2298 7.40234 16.5957C7.79287 16.9862 7.79384 17.6202 7.40332 18.0107L6.34277 19.0713C5.95229 19.4616 5.3192 19.4616 4.92871 19.0713C4.53824 18.6808 4.53736 18.0468 4.92773 17.6562L5.98828 16.5957L6.06445 16.5264Z" fill="black"/>
<path d="M16.5967 16.5957C16.9872 16.2056 17.6203 16.2055 18.0107 16.5957L19.0713 17.6572C19.4617 18.0478 19.4618 18.6808 19.0713 19.0713C18.6808 19.4618 18.0468 19.4618 17.6562 19.0713L16.5957 18.0107L16.5264 17.9355C16.2062 17.5428 16.2297 16.9627 16.5957 16.5967L16.5967 16.5957Z" fill="black"/>
<path d="M12 7C14.7614 7 17 9.23858 17 12C17 14.7614 14.7614 17 12 17C9.23858 17 7 14.7614 7 12C7 9.23858 9.23858 7 12 7Z" fill="black"/>
<path d="M21 11C21.5523 11 22 11.4477 22 12C22 12.5523 21.5523 13.001 21 13.001H19.5L19.3975 12.9961C18.8933 12.9448 18.5 12.5187 18.5 12.001C18.5 11.4487 18.9477 11 19.5 11H21Z" fill="black"/>
<path d="M4.60254 11.0039C5.10667 11.0552 5.5 11.4813 5.5 11.999C5.5 12.5513 5.05228 13 4.5 13H3C2.44772 13 2 12.5523 2 12C2 11.4477 2.44772 10.999 3 10.999H4.5L4.60254 11.0039Z" fill="black"/>
<path d="M4.92969 4.92871C5.32021 4.53819 5.95323 4.53819 6.34375 4.92871L7.4043 5.98926L7.47363 6.06445C7.79381 6.45722 7.77035 7.03727 7.4043 7.40332L7.40332 7.4043C7.01284 7.79441 6.37969 7.79449 5.98926 7.4043L4.92871 6.34277C4.53834 5.95224 4.53921 5.31918 4.92969 4.92871Z" fill="black"/>
<path d="M17.6572 4.92871C18.0477 4.53839 18.6808 4.53839 19.0713 4.92871C19.4618 5.31918 19.4626 5.95321 19.0723 6.34375L18.0117 7.4043L17.9355 7.47363C17.5428 7.79377 16.9637 7.77022 16.5977 7.4043C16.2071 7.01377 16.2062 6.37978 16.5967 5.98926L17.6572 4.92871Z" fill="black"/>
<path d="M12.001 2C12.5533 2 13.001 2.44772 13.001 3V4.5L12.9961 4.60254C12.9448 5.10667 12.5187 5.5 12.001 5.5C11.4487 5.5 11 5.05228 11 4.5V3C11 2.44772 11.4487 2 12.001 2Z" fill="black"/>
</svg>
