<svg width="24" height="24" viewBox="0 0 24 24" fill="none" xmlns="http://www.w3.org/2000/svg">
<path d="M21 17.0001C21.5523 17.0001 22 17.4478 22 18.0001C21.9999 18.5523 21.5522 19.0001 21 19.0001H3C2.44777 19.0001 2.00008 18.5523 2 18.0001C2 17.4478 2.44772 17.0001 3 17.0001H21Z" fill="black"/>
<path d="M4.5 13.5001C5.05228 13.5001 5.5 13.9478 5.5 14.5001C5.49992 15.0523 5.05223 15.5001 4.5 15.5001H3C2.44777 15.5001 2.00008 15.0523 2 14.5001C2 13.9478 2.44772 13.5001 3 13.5001H4.5Z" fill="black"/>
<path d="M12 9.50009C14.6568 9.50009 16.8288 11.5718 16.9902 14.1886C17.0365 14.9415 16.4238 15.5001 15.75 15.5001H8.25C7.57622 15.5001 6.96345 14.9415 7.00977 14.1886L7.03027 13.9444C7.30709 11.4441 9.42632 9.50009 12 9.50009Z" fill="black"/>
<path d="M21 13.5001C21.5523 13.5001 22 13.9478 22 14.5001C21.9999 15.0523 21.5522 15.5001 21 15.5001H19.5C18.9478 15.5001 18.5001 15.0523 18.5 14.5001C18.5 13.9478 18.9477 13.5001 19.5 13.5001H21Z" fill="black"/>
<path d="M4.92871 7.4288C5.31922 7.03838 5.95227 7.03838 6.34277 7.4288L7.40332 8.48935C7.79382 8.87985 7.79377 9.51288 7.40332 9.90341C7.0128 10.2939 6.37978 10.2939 5.98926 9.90341L4.92871 8.84287C4.53826 8.45234 4.53821 7.8193 4.92871 7.4288Z" fill="black"/>
<path d="M17.6562 7.4288C18.0468 7.03838 18.6798 7.03838 19.0703 7.4288C19.4608 7.8193 19.4608 8.45234 19.0703 8.84287L18.0098 9.90341C17.6192 10.2939 16.9862 10.2939 16.5957 9.90341C16.2053 9.51288 16.2052 8.87985 16.5957 8.48935L17.6562 7.4288Z" fill="black"/>
<path d="M10.9395 1.64658C11.5252 1.06084 12.4748 1.06084 13.0605 1.64658L15.207 3.79306C15.5975 4.18359 15.5975 4.81663 15.207 5.20712C14.8165 5.59755 14.1835 5.59755 13.793 5.20712L13 4.41416V7.00009C12.9999 7.55231 12.5522 8.00009 12 8.00009C11.4478 8.00009 11.0001 7.55231 11 7.00009V4.41416L10.207 5.20712C9.81653 5.59755 9.18347 5.59755 8.79297 5.20712C8.40247 4.81663 8.40252 4.18359 8.79297 3.79306L10.9395 1.64658Z" fill="black"/>
</svg>
