<svg width="24" height="24" viewBox="0 0 24 24" fill="none" xmlns="http://www.w3.org/2000/svg">
<path d="M21 17C21.5523 17 22 17.4477 22 18C22 18.5523 21.5523 19 21 19H3C2.44772 19 2 18.5523 2 18C2 17.4477 2.44772 17 3 17H21Z" fill="black"/>
<path d="M4.5 13.5C5.05228 13.5 5.5 13.9477 5.5 14.5C5.5 15.0523 5.05228 15.5 4.5 15.5H3C2.44772 15.5 2 15.0523 2 14.5C2 13.9477 2.44772 13.5 3 13.5H4.5Z" fill="black"/>
<path d="M12 9.5C14.6568 9.5 16.8288 11.5717 16.9902 14.1885C17.0366 14.9415 16.4238 15.5 15.75 15.5H8.25C7.57618 15.5 6.96336 14.9415 7.00977 14.1885L7.03027 13.9443C7.30709 11.444 9.42632 9.5 12 9.5Z" fill="black"/>
<path d="M21 13.5C21.5523 13.5 22 13.9477 22 14.5C22 15.0523 21.5523 15.5 21 15.5H19.5C18.9477 15.5 18.5 15.0523 18.5 14.5C18.5 13.9477 18.9477 13.5 19.5 13.5H21Z" fill="black"/>
<path d="M4.92871 7.42871C5.3192 7.03839 5.95229 7.03839 6.34277 7.42871L7.40332 8.48926C7.79384 8.87978 7.79384 9.51377 7.40332 9.9043C7.01284 10.2944 6.37969 10.2945 5.98926 9.9043L4.92871 8.84277C4.53834 8.45224 4.53824 7.81918 4.92871 7.42871Z" fill="black"/>
<path d="M17.6562 7.42871C18.0467 7.03839 18.6798 7.03839 19.0703 7.42871C19.4608 7.81918 19.4607 8.45224 19.0703 8.84277L18.0098 9.9043C17.6193 10.2945 16.9862 10.2944 16.5957 9.9043C16.2052 9.51377 16.2052 8.87978 16.5957 8.48926L17.6562 7.42871Z" fill="black"/>
<path d="M12 1C12.5523 1 13 1.44772 13 2V4.58594L13.793 3.79297C14.1835 3.40244 14.8165 3.40244 15.207 3.79297C15.5976 4.18349 15.5976 4.81651 15.207 5.20703L13.0605 7.35352C12.4748 7.93925 11.5252 7.93925 10.9395 7.35352L8.79297 5.20703C8.40244 4.81651 8.40244 4.18349 8.79297 3.79297C9.18349 3.40244 9.81651 3.40244 10.207 3.79297L11 4.58594V2C11 1.44772 11.4477 1 12 1Z" fill="black"/>
</svg>
