<svg width="24" height="24" viewBox="0 0 24 24" fill="none" xmlns="http://www.w3.org/2000/svg">
<path fill-rule="evenodd" clip-rule="evenodd" d="M19 2C20.6568 2.00004 22 3.3432 22 5V19C22 20.6568 20.6568 22 19 22H5C3.34317 22 2.00004 20.6568 2 19V5C2.00003 3.34317 3.34317 2 5 2H19ZM6 17C5.44774 17 5.00003 17.4477 5 18C5.00003 18.5523 5.44774 19 6 19H12C12.5523 19 13 18.5523 13 18C13 17.4477 12.5523 17 12 17H6ZM6 13C5.44774 13 5.00003 13.4477 5 14C5.00004 14.5522 5.44774 15 6 15H18C18.5523 15 19 14.5522 19 14C19 13.4477 18.5523 13 18 13H6ZM6 9C5.44774 9 5.00003 9.44774 5 10C5.00003 10.5523 5.44774 11 6 11H12C12.5523 11 13 10.5523 13 10C13 9.44774 12.5523 9 12 9H6ZM6 5C5.44774 5 5.00003 5.44774 5 6C5.00004 6.55225 5.44774 7 6 7H18C18.5523 7 19 6.55225 19 6C19 5.44774 18.5523 5 18 5H6Z" fill="black"/>
</svg>
