<svg width="24" height="24" viewBox="0 0 24 24" fill="none" xmlns="http://www.w3.org/2000/svg">
<path fill-rule="evenodd" clip-rule="evenodd" d="M19 2C20.6568 2.00004 22 3.3432 22 5V19C22 20.6568 20.6568 22 19 22H5C3.34317 22 2.00004 20.6568 2 19V5C2.00003 3.34317 3.34317 2 5 2H19ZM6 17C5.44774 17 5.00003 17.4477 5 18C5.00003 18.5523 5.44774 19 6 19H18C18.5523 19 19 18.5523 19 18C19 17.4477 18.5523 17 18 17H6ZM6 13C5.44774 13 5.00003 13.4477 5 14C5.00003 14.5523 5.44774 15 6 15H18C18.5523 15 19 14.5523 19 14C19 13.4477 18.5523 13 18 13H6ZM6 5C5.44774 5 5.00003 5.44774 5 6C5.00003 6.55226 5.44774 7 6 7H7.5V10C7.50003 10.5523 7.94774 11 8.5 11C9.05226 11 9.49997 10.5523 9.5 10V7H11C11.5523 7 12 6.55226 12 6C12 5.44774 11.5523 5 11 5H6ZM15 9C14.4477 9 14 9.44774 14 10C14 10.5523 14.4477 11 15 11H18C18.5523 11 19 10.5523 19 10C19 9.44774 18.5523 9 18 9H15ZM15 5C14.4477 5 14 5.44774 14 6C14 6.55226 14.4477 7 15 7H18C18.5523 7 19 6.55226 19 6C19 5.44774 18.5523 5 18 5H15Z" fill="black"/>
</svg>
