<svg width="24" height="24" viewBox="0 0 24 24" fill="none" xmlns="http://www.w3.org/2000/svg">
<path fill-rule="evenodd" clip-rule="evenodd" d="M19 2C20.6568 2.00004 22 3.34321 22 5V19C22 20.6568 20.6568 22 19 22H5C3.34317 22 2.00004 20.6568 2 19V5C2.00004 3.34318 3.34317 2 5 2H19ZM6.5 5C5.6716 5 5.00004 5.67161 5 6.5V7C5.00004 7.55225 5.44774 8 6 8C6.55226 8 6.99996 7.55225 7 7H11V17H10C9.44774 17 9.00004 17.4478 9 18C9.00004 18.5522 9.44774 19 10 19H14C14.5523 19 15 18.5522 15 18C15 17.4478 14.5523 17 14 17H13V7H17C17 7.55225 17.4477 8 18 8C18.5523 8 19 7.55225 19 7V6.5C19 5.67161 18.3284 5 17.5 5H6.5Z" fill="black"/>
</svg>
