<svg width="24" height="24" viewBox="0 0 24 24" fill="none" xmlns="http://www.w3.org/2000/svg">
<path fill-rule="evenodd" clip-rule="evenodd" d="M19 2C20.6568 2.00004 22 3.3432 22 5V19C22 20.6568 20.6568 22 19 22H5C3.34317 22 2.00004 20.6568 2 19V5C2.00003 3.34317 3.34317 2 5 2H19ZM9 17C8.44774 17 8.00003 17.4477 8 18C8.00004 18.5522 8.44774 19 9 19H15C15.5523 19 16 18.5522 16 18C16 17.4477 15.5523 17 15 17H9ZM6 13C5.44774 13 5.00003 13.4477 5 14C5.00004 14.5522 5.44774 15 6 15H18C18.5523 15 19 14.5522 19 14C19 13.4477 18.5523 13 18 13H6ZM9 9C8.44774 9 8.00003 9.44774 8 10C8.00004 10.5522 8.44774 11 9 11H15C15.5523 11 16 10.5522 16 10C16 9.44774 15.5523 9 15 9H9ZM6 5C5.44774 5 5.00003 5.44774 5 6C5.00004 6.55225 5.44774 7 6 7H18C18.5523 7 19 6.55225 19 6C19 5.44774 18.5523 5 18 5H6Z" fill="black"/>
</svg>
