<svg width="24" height="24" viewBox="0 0 24 24" fill="none" xmlns="http://www.w3.org/2000/svg">
<path fill-rule="evenodd" clip-rule="evenodd" d="M14 2C15.6569 2 17 3.34315 17 5V6H21C21.5523 6 22 6.44772 22 7C22 7.55228 21.5523 8 21 8H19.9648L19.5684 19.1074C19.5105 20.7214 18.1853 21.9999 16.5703 22H7.42969C5.81469 21.9999 4.48946 20.7214 4.43164 19.1074L4.03516 8H3C2.44772 8 2 7.55228 2 7C2 6.44772 2.44772 6 3 6H7V5C7 3.34315 8.34315 2 10 2H14ZM9.46387 10.001C8.91215 10.0209 8.48127 10.4844 8.50098 11.0361L8.71484 17.0361C8.73479 17.5879 9.19821 18.0187 9.75 17.999C10.3019 17.9793 10.7336 17.5158 10.7139 16.9639L10.499 10.9639C10.4791 10.4122 10.0156 9.98127 9.46387 10.001ZM14.5361 10.001C13.9844 9.98127 13.5209 10.4122 13.501 10.9639L13.2871 16.9639C13.2674 17.5156 13.6983 17.9791 14.25 17.999C14.8016 18.0185 15.2652 17.5877 15.2852 17.0361L15.5 11.0361C15.5197 10.4844 15.0878 10.021 14.5361 10.001ZM10 4C9.44772 4 9 4.44772 9 5V6H15V5C15 4.44772 14.5523 4 14 4H10Z" fill="black"/>
</svg>
