<svg width="24" height="24" viewBox="0 0 24 24" fill="none" xmlns="http://www.w3.org/2000/svg">
<path fill-rule="evenodd" clip-rule="evenodd" d="M9.85668 4.12839C10.8279 2.51105 13.1728 2.51078 14.1438 4.12839L21.9944 17.2134C22.9941 18.8795 21.7938 20.9991 19.8508 20.9995H4.14965C2.20641 20.9995 1.0063 18.8797 2.00609 17.2134L9.85668 4.12839ZM6.50804 15.5405C6.03467 15.2567 5.42018 15.4102 5.13597 15.8833L4.62914 16.728C4.02978 17.7275 4.7499 18.9989 5.91527 18.9995H6.92992C7.48187 18.9991 7.9299 18.5515 7.92992 17.9995C7.92964 17.4477 7.48171 16.9999 6.92992 16.9995H6.79906L6.85179 16.9116C7.13517 16.4382 6.98117 15.8245 6.50804 15.5405ZM10.9856 16.9995C10.4337 16.9997 9.98586 17.4476 9.98558 17.9995C9.9856 18.5516 10.4335 18.9992 10.9856 18.9995H13.0139C13.5659 18.9991 14.0139 18.5515 14.0139 17.9995C14.0136 17.4477 13.5657 16.9999 13.0139 16.9995H10.9856ZM18.8625 15.8833C18.5784 15.41 17.9639 15.2567 17.4905 15.5405C17.0177 15.8247 16.8642 16.4384 17.1477 16.9116L17.2004 16.9995H17.0696C16.5177 16.9997 16.0698 17.4476 16.0696 17.9995C16.0696 18.5516 16.5175 18.9992 17.0696 18.9995H18.0832C19.249 18.9992 19.9692 17.7277 19.3694 16.728L18.8625 15.8833ZM9.55004 10.4702C9.07672 10.1868 8.46306 10.341 8.17894 10.8139L7.16429 12.5034C6.88047 12.9768 7.03399 13.5912 7.50707 13.8755C7.98045 14.1594 8.59486 14.0058 8.87914 13.5327L9.89379 11.8423C10.1772 11.3689 10.0232 10.7542 9.55004 10.4702ZM15.8205 10.8139C15.5364 10.3407 14.9219 10.1864 14.4485 10.4702C13.9754 10.7543 13.8221 11.3689 14.1057 11.8423L15.1203 13.5327C15.4045 14.0059 16.019 14.1593 16.4924 13.8755C16.9653 13.5911 17.1191 12.9767 16.8352 12.5034L15.8205 10.8139ZM13.1672 6.41843C12.5729 5.67549 11.4266 5.67562 10.8323 6.41843L10.7131 6.58933L10.2063 7.43405C9.92253 7.9074 10.076 8.52189 10.5491 8.80613C11.0224 9.09006 11.6368 8.93641 11.9211 8.46335L11.9993 8.33249L12.0784 8.46335C12.3626 8.93651 12.977 9.08996 13.4504 8.80613C13.9234 8.52181 14.0771 7.90737 13.7932 7.43405L13.2864 6.58933L13.1672 6.41843Z" fill="black"/>
</svg>
