<svg width="24" height="24" viewBox="0 0 24 24" fill="none" xmlns="http://www.w3.org/2000/svg">
<path fill-rule="evenodd" clip-rule="evenodd" d="M9.85668 4.12851C10.8279 2.51117 13.1728 2.5109 14.1438 4.12851L21.9944 17.2135C22.9941 18.8797 21.7938 20.9993 19.8508 20.9996H4.14965C2.20641 20.9996 1.0063 18.8798 2.00609 17.2135L9.85668 4.12851ZM6.50804 15.5406C6.03467 15.2568 5.42018 15.4103 5.13597 15.8834L4.62914 16.7281C4.02978 17.7276 4.7499 18.9991 5.91527 18.9996H6.92992C7.48187 18.9992 7.9299 18.5516 7.92992 17.9996C7.92964 17.4478 7.48171 17 6.92992 16.9996H6.79906L6.85179 16.9117C7.13517 16.4383 6.98117 15.8247 6.50804 15.5406ZM10.9856 16.9996C10.4337 16.9998 9.98586 17.4477 9.98558 17.9996C9.9856 18.5517 10.4335 18.9994 10.9856 18.9996H13.0139C13.5659 18.9992 14.0139 18.5516 14.0139 17.9996C14.0136 17.4478 13.5657 17 13.0139 16.9996H10.9856ZM18.8625 15.8834C18.5784 15.4101 17.9639 15.2568 17.4905 15.5406C17.0177 15.8249 16.8642 16.4385 17.1477 16.9117L17.2004 16.9996H17.0696C16.5177 16.9999 16.0698 17.4477 16.0696 17.9996C16.0696 18.5517 16.5175 18.9994 17.0696 18.9996H18.0832C19.249 18.9993 19.9692 17.7278 19.3694 16.7281L18.8625 15.8834ZM9.55004 10.4703C9.07672 10.1869 8.46306 10.3411 8.17894 10.8141L7.16429 12.5035C6.88047 12.9769 7.03399 13.5913 7.50707 13.8756C7.98045 14.1595 8.59486 14.0059 8.87914 13.5328L9.89379 11.8424C10.1772 11.369 10.0232 10.7544 9.55004 10.4703ZM15.8205 10.8141C15.5364 10.3408 14.9219 10.1865 14.4485 10.4703C13.9754 10.7545 13.8221 11.369 14.1057 11.8424L15.1203 13.5328C15.4045 14.006 16.019 14.1594 16.4924 13.8756C16.9653 13.5912 17.1191 12.9768 16.8352 12.5035L15.8205 10.8141ZM13.1672 6.41855C12.5729 5.67561 11.4266 5.67574 10.8323 6.41855L10.7131 6.58945L10.2063 7.43418C9.92253 7.90752 10.076 8.52202 10.5491 8.80625C11.0224 9.09018 11.6368 8.93653 11.9211 8.46347L11.9993 8.33261L12.0784 8.46347C12.3626 8.93663 12.977 9.09008 13.4504 8.80625C13.9234 8.52193 14.0771 7.9075 13.7932 7.43418L13.2864 6.58945L13.1672 6.41855Z" fill="black"/>
</svg>
