<svg width="24" height="24" viewBox="0 0 24 24" fill="none" xmlns="http://www.w3.org/2000/svg">
<path fill-rule="evenodd" clip-rule="evenodd" d="M18.5 2C20.1569 2 21.5 3.34315 21.5 5V19C21.5 20.6569 20.1569 22 18.5 22H5.5C3.84315 22 2.5 20.6569 2.5 19V5C2.5 3.34315 3.84315 2 5.5 2H18.5ZM10.5 12.5C9.94772 12.5 9.5 12.9477 9.5 13.5V16.1768C9.49995 16.4541 9.42461 16.8147 9.24316 17.0752C9.10051 17.2799 8.84667 17.5 8.25 17.5C7.65333 17.5 7.39949 17.2799 7.25684 17.0752C7.07539 16.8147 7.00005 16.4541 7 16.1768V13.5C7 12.9477 6.55228 12.5 6 12.5C5.44772 12.5 5 12.9477 5 13.5V16.1768C5.00005 16.7228 5.13181 17.5236 5.61621 18.2188C6.13973 18.9699 7.01138 19.5 8.25 19.5C9.48862 19.5 10.3603 18.9699 10.8838 18.2188C11.3682 17.5236 11.5 16.7228 11.5 16.1768V13.5C11.5 12.9477 11.0523 12.5 10.5 12.5ZM18.6689 12.7568C18.2585 12.3874 17.6263 12.4206 17.2568 12.8311L15.75 14.5049L14.2432 12.8311C13.8737 12.4206 13.2415 12.3874 12.8311 12.7568C12.4206 13.1263 12.3874 13.7585 12.7568 14.1689L14.4043 16L12.7568 17.8311C12.3874 18.2415 12.4206 18.8737 12.8311 19.2432C13.2415 19.6126 13.8737 19.5794 14.2432 19.1689L15.75 17.4941L17.2568 19.1689C17.6263 19.5794 18.2585 19.6126 18.6689 19.2432C19.0794 18.8737 19.1126 18.2415 18.7432 17.8311L17.0947 16L18.7432 14.1689C19.1126 13.7585 19.0794 13.1263 18.6689 12.7568ZM10.5 4.5C9.94772 4.5 9.5 4.94772 9.5 5.5V8.17676C9.49995 8.4541 9.42461 8.81469 9.24316 9.0752C9.10051 9.27988 8.84667 9.5 8.25 9.5C7.65333 9.5 7.39949 9.27988 7.25684 9.0752C7.07539 8.81469 7.00005 8.4541 7 8.17676V5.5C7 4.94772 6.55228 4.5 6 4.5C5.44772 4.5 5 4.94772 5 5.5V8.17676C5.00005 8.72279 5.13181 9.52362 5.61621 10.2188C6.13973 10.9699 7.01138 11.5 8.25 11.5C9.48862 11.5 10.3603 10.9699 10.8838 10.2188C11.3682 9.52362 11.5 8.72279 11.5 8.17676V5.5C11.5 4.94772 11.0523 4.5 10.5 4.5ZM13.5 4.5C12.9477 4.5 12.5 4.94772 12.5 5.5V10.5C12.5 11.0523 12.9477 11.5 13.5 11.5C14.0523 11.5 14.5 11.0523 14.5 10.5V5.5C14.5 4.94772 14.0523 4.5 13.5 4.5ZM18.2871 4.54199C17.7582 4.38348 17.2007 4.68399 17.042 5.21289L15.542 10.2129C15.3835 10.7418 15.684 11.2993 16.2129 11.458C16.7418 11.6165 17.2993 11.316 17.458 10.7871L18.958 5.78711C19.1165 5.2582 18.816 4.70066 18.2871 4.54199Z" fill="black"/>
</svg>
