<svg width="24" height="24" viewBox="0 0 24 24" fill="none" xmlns="http://www.w3.org/2000/svg">
<path d="M19 2C20.6568 2.00004 22 3.34317 22 5V19C22 20.6568 20.6568 22 19 22H5C3.34317 22 2.00004 20.6568 2 19V5C2 3.34315 3.34315 2 5 2H19ZM15.8896 8.11133C15.4992 7.72085 14.8661 7.72095 14.4756 8.11133L12 10.5859L9.52539 8.11133C9.13487 7.7208 8.50185 7.7208 8.11133 8.11133C7.72083 8.50185 7.72081 9.13488 8.11133 9.52539L10.5859 12L8.11133 14.4756C7.72098 14.8661 7.72086 15.4992 8.11133 15.8896C8.50183 16.2796 9.13502 16.2798 9.52539 15.8896L12 13.4141L14.4756 15.8896C14.8662 16.2795 15.4993 16.2799 15.8896 15.8896C16.28 15.4993 16.2795 14.8662 15.8896 14.4756L13.4141 12L15.8896 9.52539C16.2799 9.13503 16.2796 8.50184 15.8896 8.11133Z" fill="black"/>
</svg>
