<svg width="24" height="24" viewBox="0 0 24 24" fill="none" xmlns="http://www.w3.org/2000/svg">
<path d="M18.293 4.29302C18.6835 3.90249 19.3165 3.90249 19.707 4.29302C20.0975 4.68354 20.0975 5.31655 19.707 5.70708L13.414 12L19.707 18.293C20.0975 18.6835 20.0975 19.3166 19.707 19.7071C19.3165 20.0976 18.6835 20.0976 18.293 19.7071L12 13.4141L5.70702 19.7071C5.31649 20.0976 4.68348 20.0976 4.29295 19.7071C3.90243 19.3166 3.90243 18.6835 4.29295 18.293L10.5859 12L4.29295 5.70708C3.90243 5.31655 3.90243 4.68354 4.29295 4.29302C4.68348 3.90249 5.31649 3.90249 5.70702 4.29302L12 10.586L18.293 4.29302Z" fill="black"/>
</svg>
