<svg width="24" height="24" viewBox="0 0 24 24" fill="none" xmlns="http://www.w3.org/2000/svg">
<path d="M18.293 4.29289C18.6835 3.90237 19.3165 3.90237 19.707 4.29289C20.0975 4.68342 20.0975 5.31643 19.707 5.70696L13.414 11.9999L19.707 18.2929C20.0975 18.6834 20.0975 19.3164 19.707 19.707C19.3165 20.0975 18.6835 20.0975 18.293 19.707L12 13.414L5.70702 19.707C5.31649 20.0975 4.68348 20.0975 4.29295 19.707C3.90243 19.3164 3.90243 18.6834 4.29295 18.2929L10.5859 11.9999L4.29295 5.70696C3.90243 5.31643 3.90243 4.68342 4.29295 4.29289C4.68348 3.90237 5.31649 3.90237 5.70702 4.29289L12 10.5859L18.293 4.29289Z" fill="black"/>
</svg>
