<svg width="24" height="24" viewBox="0 0 24 24" fill="none" xmlns="http://www.w3.org/2000/svg">
<path d="M21 2.25C20.5858 2.25 20.25 2.58579 20.25 3V21C20.25 21.4142 20.5858 21.75 21 21.75C21.4142 21.75 21.75 21.4142 21.75 21V3C21.75 2.58579 21.4142 2.25 21 2.25Z" fill="black"/>
<path d="M11.5 13.25C10.8096 13.25 10.25 13.8096 10.25 14.5V17.5C10.25 18.1904 10.8096 18.75 11.5 18.75H16.5C17.1904 18.75 17.75 18.1904 17.75 17.5V14.5C17.75 13.8096 17.1904 13.25 16.5 13.25H11.5Z" fill="black"/>
<path d="M3.5 5.25C2.80964 5.25 2.25 5.80964 2.25 6.5V9.5C2.25 10.1904 2.80964 10.75 3.5 10.75H16.5C17.1904 10.75 17.75 10.1904 17.75 9.5V6.5C17.75 5.80964 17.1904 5.25 16.5 5.25H3.5Z" fill="black"/>
</svg>
