<svg width="24" height="24" viewBox="0 0 24 24" fill="none" xmlns="http://www.w3.org/2000/svg">
<path d="M2.25 21C2.25 20.5858 2.58579 20.25 3 20.25H21C21.4142 20.25 21.75 20.5858 21.75 21C21.75 21.4142 21.4142 21.75 21 21.75H3C2.58579 21.75 2.25 21.4142 2.25 21Z" fill="black"/>
<path d="M13.25 11.5C13.25 10.8096 13.8096 10.25 14.5 10.25H17.5C18.1904 10.25 18.75 10.8096 18.75 11.5V16.5C18.75 17.1904 18.1904 17.75 17.5 17.75H14.5C13.8096 17.75 13.25 17.1904 13.25 16.5V11.5Z" fill="black"/>
<path d="M5.25 3.5C5.25 2.80964 5.80964 2.25 6.5 2.25H9.5C10.1904 2.25 10.75 2.80964 10.75 3.5V16.5C10.75 17.1904 10.1904 17.75 9.5 17.75H6.5C5.80964 17.75 5.25 17.1904 5.25 16.5V3.5Z" fill="black"/>
</svg>
