<svg width="24" height="24" viewBox="0 0 24 24" fill="none" xmlns="http://www.w3.org/2000/svg">
<path d="M3 2.25C3.41421 2.25 3.75 2.58579 3.75 3V21C3.75 21.4142 3.41421 21.75 3 21.75C2.58579 21.75 2.25 21.4142 2.25 21V3C2.25 2.58579 2.58579 2.25 3 2.25Z" fill="black"/>
<path d="M12.5 13.25C13.1904 13.25 13.75 13.8096 13.75 14.5V17.5C13.75 18.1904 13.1904 18.75 12.5 18.75H7.5C6.80964 18.75 6.25 18.1904 6.25 17.5V14.5C6.25 13.8096 6.80964 13.25 7.5 13.25H12.5Z" fill="black"/>
<path d="M20.5 5.25C21.1904 5.25 21.75 5.80964 21.75 6.5V9.5C21.75 10.1904 21.1904 10.75 20.5 10.75H7.5C6.80964 10.75 6.25 10.1904 6.25 9.5V6.5C6.25 5.80964 6.80964 5.25 7.5 5.25H20.5Z" fill="black"/>
</svg>
