<svg width="24" height="24" viewBox="0 0 24 24" fill="none" xmlns="http://www.w3.org/2000/svg">
<path fill-rule="evenodd" clip-rule="evenodd" d="M19 2.25C20.5188 2.25 21.75 3.48122 21.75 5V19C21.75 20.5188 20.5188 21.75 19 21.75H5C3.48122 21.75 2.25 20.5188 2.25 19V5C2.25 3.48122 3.48122 2.25 5 2.25H19ZM10.1436 5.62012C10.0019 5.23093 9.57183 5.03021 9.18262 5.17188L6.33008 6.20996C5.68148 6.44613 5.34695 7.16385 5.58301 7.8125L6.62109 10.665C6.76287 11.0541 7.19387 11.2539 7.58301 11.1123C7.97194 10.9705 8.17286 10.5404 8.03125 10.1514L7.43359 8.51074C11.1827 9.84177 14.1551 12.8139 15.4873 16.5625L13.8564 15.9688C13.4674 15.8274 13.0372 16.028 12.8955 16.417C12.7539 16.8062 12.9546 17.2362 13.3438 17.3779L16.1963 18.417C16.8448 18.6529 17.5616 18.3183 17.7979 17.6699L18.8369 14.8174C18.9786 14.4282 18.7778 13.9972 18.3887 13.8555C17.9995 13.7138 17.5685 13.9146 17.4268 14.3037L16.8447 15.9033C15.3561 11.8607 12.1495 8.65007 8.1084 7.1582L9.69531 6.58105C10.0845 6.43938 10.2852 6.00935 10.1436 5.62012Z" fill="black"/>
</svg>
