<svg width="24" height="24" viewBox="0 0 24 24" fill="none" xmlns="http://www.w3.org/2000/svg">
<path fill-rule="evenodd" clip-rule="evenodd" d="M20 2.25C20.9665 2.25 21.75 3.0335 21.75 4V6C21.75 6.69772 21.3407 7.29804 20.75 7.5791V19C20.75 20.5188 19.5188 21.75 18 21.75H6C4.48122 21.75 3.25 20.5188 3.25 19V7.5791C2.65928 7.29804 2.25 6.69772 2.25 6V4C2.25 3.0335 3.0335 2.25 4 2.25H20ZM10 10.25C9.58579 10.25 9.25 10.5858 9.25 11C9.25 11.4142 9.58579 11.75 10 11.75H14C14.4142 11.75 14.75 11.4142 14.75 11C14.75 10.5858 14.4142 10.25 14 10.25H10ZM4 3.75C3.86193 3.75 3.75 3.86193 3.75 4V6C3.75 6.13807 3.86193 6.25 4 6.25H20C20.1381 6.25 20.25 6.13807 20.25 6V4C20.25 3.86193 20.1381 3.75 20 3.75H4Z" fill="black"/>
</svg>
