<svg width="24" height="24" viewBox="0 0 24 24" fill="none" xmlns="http://www.w3.org/2000/svg">
<path d="M18.75 21.75C20.4069 21.75 21.75 20.4069 21.75 18.75V5.25C21.75 3.59315 20.4069 2.25 18.75 2.25H5.25C3.59315 2.25 2.25 3.59315 2.25 5.25V18.75C2.25 20.4069 3.59315 21.75 5.25 21.75H18.75ZM10 16.75C9.58579 16.75 9.25 16.4142 9.25 16C9.25 15.5858 9.58579 15.25 10 15.25H14.1895L7.46973 8.53027C7.17683 8.23738 7.17683 7.76262 7.46973 7.46973C7.76262 7.17683 8.23738 7.17683 8.53027 7.46973L15.25 14.1895V10C15.25 9.58579 15.5858 9.25 16 9.25C16.4142 9.25 16.75 9.58579 16.75 10V15.5C16.75 16.1472 16.2582 16.6791 15.6279 16.7432L15.5 16.75H10Z" fill="black"/>
</svg>
