<svg width="24" height="24" viewBox="0 0 24 24" fill="none" xmlns="http://www.w3.org/2000/svg">
<path d="M5.10571 18.8943C8.91332 22.7019 15.0867 22.7019 18.8943 18.8943C22.7019 15.0867 22.7019 8.91332 18.8943 5.10571C15.0867 1.2981 8.91332 1.2981 5.10571 5.10571C1.2981 8.91332 1.2981 15.0867 5.10571 18.8943ZM9.87868 16.2855C9.46447 16.2855 9.12876 15.9497 9.12876 15.5355C9.12876 15.1213 9.46447 14.7856 9.87868 14.7856H13.725L7.93414 8.9948C7.64124 8.7019 7.64124 8.22703 7.93414 7.93414C8.22703 7.64124 8.7019 7.64124 8.9948 7.93414L14.7856 13.725V9.87868C14.7856 9.46447 15.1213 9.12876 15.5355 9.12876C15.9497 9.12876 16.2855 9.46447 16.2855 9.87868V15.0356C16.2854 15.7259 15.7259 16.2854 15.0356 16.2855H9.87868Z" fill="black"/>
</svg>
