<svg width="24" height="24" viewBox="0 0 24 24" fill="none" xmlns="http://www.w3.org/2000/svg">
<path d="M21.75 18.75C21.75 20.4069 20.4069 21.75 18.75 21.75H5.25C3.59315 21.75 2.25 20.4069 2.25 18.75V5.25C2.25 3.59315 3.59315 2.25 5.25 2.25H18.75C20.4069 2.25 21.75 3.59315 21.75 5.25V18.75ZM16.5303 13.5303C16.8232 13.2374 16.8232 12.7626 16.5303 12.4697C16.2374 12.1768 15.7626 12.1768 15.4697 12.4697L12.75 15.1895V7C12.75 6.58579 12.4142 6.25 12 6.25C11.5858 6.25 11.25 6.58579 11.25 7V15.1895L8.53027 12.4697C8.23738 12.1768 7.76262 12.1768 7.46973 12.4697C7.17683 12.7626 7.17683 13.2374 7.46973 13.5303L11.1162 17.1768C11.6044 17.6649 12.3956 17.6649 12.8838 17.1768L16.5303 13.5303Z" fill="black"/>
</svg>
