<svg width="24" height="24" viewBox="0 0 24 24" fill="none" xmlns="http://www.w3.org/2000/svg">
<path d="M21.75 12C21.75 6.61522 17.3848 2.25 12 2.25C6.61522 2.25 2.25 6.61522 2.25 12C2.25 17.3848 6.61522 21.75 12 21.75C17.3848 21.75 21.75 17.3848 21.75 12ZM16.5303 10.4697C16.8232 10.7626 16.8232 11.2374 16.5303 11.5303C16.2374 11.8232 15.7626 11.8232 15.4697 11.5303L12.75 8.81055V17C12.75 17.4142 12.4142 17.75 12 17.75C11.5858 17.75 11.25 17.4142 11.25 17V8.81055L8.53027 11.5303C8.23738 11.8232 7.76262 11.8232 7.46973 11.5303C7.17683 11.2374 7.17683 10.7626 7.46973 10.4697L11.1162 6.82324C11.6044 6.33514 12.3956 6.33514 12.8838 6.82324L16.5303 10.4697Z" fill="black"/>
</svg>
