<svg width="24" height="24" viewBox="0 0 24 24" fill="none" xmlns="http://www.w3.org/2000/svg">
<path d="M18.75 2.25C20.4069 2.25 21.75 3.59315 21.75 5.25V18.75C21.75 20.4069 20.4069 21.75 18.75 21.75H5.25C3.59315 21.75 2.25 20.4069 2.25 18.75V5.25C2.25 3.59315 3.59315 2.25 5.25 2.25H18.75ZM10 7.25C9.58579 7.25 9.25 7.58579 9.25 8C9.25 8.41421 9.58579 8.75 10 8.75H14.1895L7.46973 15.4697C7.17683 15.7626 7.17683 16.2374 7.46973 16.5303C7.76262 16.8232 8.23738 16.8232 8.53027 16.5303L15.25 9.81055V14C15.25 14.4142 15.5858 14.75 16 14.75C16.4142 14.75 16.75 14.4142 16.75 14V8.5C16.75 7.85285 16.2582 7.32092 15.6279 7.25684L15.5 7.25H10Z" fill="black"/>
</svg>
