<svg width="24" height="24" viewBox="0 0 24 24" fill="none" xmlns="http://www.w3.org/2000/svg">
<path d="M3.47154 1.9234C3.47196 1.28902 4.19136 0.951709 4.67564 1.30622L4.76939 1.3863L7.0106 3.62751C10.7539 1.39479 15.6716 1.88937 18.8944 5.11188C22.7016 8.91937 22.7015 15.0924 18.8944 18.9C15.0868 22.7076 8.91294 22.7076 5.10533 18.9C3.25571 17.05 2.30386 14.6397 2.25181 12.2164C2.24327 11.8026 2.57242 11.4598 2.98619 11.4507C3.39987 11.4421 3.74257 11.7705 3.75181 12.1841C3.79589 14.2364 4.60046 16.2737 6.16587 17.8394C9.38767 21.0612 14.611 21.0612 17.8329 17.8394C21.0547 14.6176 21.0547 9.39425 17.8329 6.17243C15.2003 3.54035 11.2314 3.05858 8.11021 4.72809L9.89146 6.50934C10.3701 6.98808 10.0314 7.80615 9.35435 7.80622H4.72154C4.03132 7.80605 3.47154 7.24647 3.47154 6.55622V1.9234Z" fill="black"/>
</svg>
