<svg width="24" height="24" viewBox="0 0 24 24" fill="none" xmlns="http://www.w3.org/2000/svg">
<path d="M18.8943 5.10571C15.0867 1.2981 8.91332 1.2981 5.10571 5.10571C1.2981 8.91332 1.2981 15.0867 5.10571 18.8943C8.91332 22.7019 15.0867 22.7019 18.8943 18.8943C22.7019 15.0867 22.7019 8.91332 18.8943 5.10571ZM14.1213 7.71455C14.5355 7.71455 14.8712 8.05025 14.8712 8.46447C14.8712 8.87868 14.5355 9.21439 14.1213 9.21439H10.275L16.0659 15.0052C16.3588 15.2981 16.3588 15.773 16.0659 16.0659C15.773 16.3588 15.2981 16.3588 15.0052 16.0659L9.21439 10.275V14.1213C9.21439 14.5355 8.87868 14.8712 8.46447 14.8712C8.05025 14.8712 7.71455 14.5355 7.71455 14.1213V8.96441C7.71457 8.2741 8.2741 7.71458 8.96441 7.71455H14.1213Z" fill="black"/>
</svg>
