<svg width="24" height="24" viewBox="0 0 24 24" fill="none" xmlns="http://www.w3.org/2000/svg">
<path d="M19.2306 1.38062C19.7093 0.901924 20.5282 1.24081 20.5284 1.91772V6.55054C20.5282 7.24065 19.9685 7.80041 19.2784 7.80054H14.6456C13.9685 7.80054 13.6301 6.98238 14.1085 6.50366L15.8888 4.72241C12.7674 3.05319 8.79852 3.53435 6.16612 6.16675C2.9447 9.38848 2.94473 14.612 6.16612 17.8337C9.38792 21.0553 14.6123 21.0553 17.8341 17.8337C19.3996 16.2681 20.204 14.2307 20.2481 12.1785C20.2572 11.7646 20.5999 11.4364 21.0138 11.4451C21.4277 11.454 21.7569 11.7968 21.7481 12.2107C21.696 14.634 20.7443 17.0444 18.8946 18.8943C15.0871 22.7017 8.91315 22.7016 5.10557 18.8943C1.2984 15.0867 1.29837 8.91372 5.10557 5.1062C8.32818 1.88359 13.245 1.38946 16.9884 3.62183L19.2306 1.38062Z" fill="black"/>
</svg>
