<svg width="24" height="24" viewBox="0 0 24 24" fill="none" xmlns="http://www.w3.org/2000/svg">
<path d="M5.25 21.75C3.59315 21.75 2.25 20.4069 2.25 18.75V5.25C2.25 3.59315 3.59315 2.25 5.25 2.25H18.75C20.4069 2.25 21.75 3.59315 21.75 5.25V18.75C21.75 20.4069 20.4069 21.75 18.75 21.75H5.25ZM14 16.75C14.4142 16.75 14.75 16.4142 14.75 16C14.75 15.5858 14.4142 15.25 14 15.25H9.81055L16.5303 8.53027C16.8232 8.23738 16.8232 7.76262 16.5303 7.46973C16.2374 7.17683 15.7626 7.17683 15.4697 7.46973L8.75 14.1895V10C8.75 9.58579 8.41421 9.25 8 9.25C7.58579 9.25 7.25 9.58579 7.25 10V15.5C7.25 16.1472 7.74183 16.6791 8.37207 16.7432L8.5 16.75H14Z" fill="black"/>
</svg>
