<svg width="24" height="24" viewBox="0 0 24 24" fill="none" xmlns="http://www.w3.org/2000/svg">
<path d="M12 2.25C6.61522 2.25 2.25 6.61522 2.25 12C2.25 17.3848 6.61522 21.75 12 21.75C17.3848 21.75 21.75 17.3848 21.75 12C21.75 6.61522 17.3848 2.25 12 2.25ZM10.4697 7.46973C10.7626 7.17683 11.2374 7.17683 11.5303 7.46973C11.8232 7.76262 11.8232 8.23738 11.5303 8.53027L8.81055 11.25H17C17.4142 11.25 17.75 11.5858 17.75 12C17.75 12.4142 17.4142 12.75 17 12.75H8.81055L11.5303 15.4697C11.8232 15.7626 11.8232 16.2374 11.5303 16.5303C11.2374 16.8232 10.7626 16.8232 10.4697 16.5303L6.82324 12.8838C6.33514 12.3956 6.33514 11.6044 6.82324 11.1162L10.4697 7.46973Z" fill="black"/>
</svg>
