<svg width="24" height="24" viewBox="0 0 24 24" fill="none" xmlns="http://www.w3.org/2000/svg">
<path d="M5.25 21.75C3.59315 21.75 2.25 20.4069 2.25 18.75V5.25C2.25 3.59315 3.59315 2.25 5.25 2.25H18.75C20.4069 2.25 21.75 3.59315 21.75 5.25V18.75C21.75 20.4069 20.4069 21.75 18.75 21.75H5.25ZM10.4697 16.5303C10.7626 16.8232 11.2374 16.8232 11.5303 16.5303C11.8232 16.2374 11.8232 15.7626 11.5303 15.4697L8.81055 12.75H17C17.4142 12.75 17.75 12.4142 17.75 12C17.75 11.5858 17.4142 11.25 17 11.25H8.81055L11.5303 8.53027C11.8232 8.23738 11.8232 7.76262 11.5303 7.46973C11.2374 7.17683 10.7626 7.17683 10.4697 7.46973L6.82324 11.1162C6.33514 11.6044 6.33514 12.3956 6.82324 12.8838L10.4697 16.5303Z" fill="black"/>
</svg>
