<svg width="24" height="24" viewBox="0 0 24 24" fill="none" xmlns="http://www.w3.org/2000/svg">
<path d="M18.75 2.25C20.4069 2.25 21.75 3.59315 21.75 5.25V18.75C21.75 20.4069 20.4069 21.75 18.75 21.75H5.25C3.59315 21.75 2.25 20.4069 2.25 18.75V5.25C2.25 3.59315 3.59315 2.25 5.25 2.25H18.75ZM13.5303 7.46973C13.2374 7.17683 12.7626 7.17683 12.4697 7.46973C12.1768 7.76262 12.1768 8.23738 12.4697 8.53027L15.1895 11.25H7C6.58579 11.25 6.25 11.5858 6.25 12C6.25 12.4142 6.58579 12.75 7 12.75H15.1895L12.4697 15.4697C12.1768 15.7626 12.1768 16.2374 12.4697 16.5303C12.7626 16.8232 13.2374 16.8232 13.5303 16.5303L17.1768 12.8838C17.6649 12.3956 17.6649 11.6044 17.1768 11.1162L13.5303 7.46973Z" fill="black"/>
</svg>
