<svg width="24" height="24" viewBox="0 0 24 24" fill="none" xmlns="http://www.w3.org/2000/svg">
<path d="M5.25 2.25C3.59315 2.25 2.25 3.59315 2.25 5.25V18.75C2.25 20.4069 3.59315 21.75 5.25 21.75H18.75C20.4069 21.75 21.75 20.4069 21.75 18.75V5.25C21.75 3.59315 20.4069 2.25 18.75 2.25H5.25ZM14 7.25C14.4142 7.25 14.75 7.58579 14.75 8C14.75 8.41421 14.4142 8.75 14 8.75H9.81055L16.5303 15.4697C16.8232 15.7626 16.8232 16.2374 16.5303 16.5303C16.2374 16.8232 15.7626 16.8232 15.4697 16.5303L8.75 9.81055V14C8.75 14.4142 8.41421 14.75 8 14.75C7.58579 14.75 7.25 14.4142 7.25 14V8.5C7.25 7.85285 7.74183 7.32092 8.37207 7.25684L8.5 7.25H14Z" fill="black"/>
</svg>
