<svg width="24" height="24" viewBox="0 0 24 24" fill="none" xmlns="http://www.w3.org/2000/svg">
<path d="M18.8943 18.8943C15.0867 22.7019 8.91332 22.7019 5.10571 18.8943C1.2981 15.0867 1.2981 8.91332 5.10571 5.10571C8.91332 1.2981 15.0867 1.2981 18.8943 5.10571C22.7019 8.91332 22.7019 15.0867 18.8943 18.8943ZM14.1213 16.2855C14.5355 16.2855 14.8712 15.9497 14.8712 15.5355C14.8712 15.1213 14.5355 14.7856 14.1213 14.7856H10.275L16.0659 8.9948C16.3588 8.7019 16.3588 8.22703 16.0659 7.93414C15.773 7.64124 15.2981 7.64124 15.0052 7.93414L9.21439 13.725V9.87868C9.21439 9.46447 8.87868 9.12876 8.46447 9.12876C8.05025 9.12876 7.71455 9.46447 7.71455 9.87868V15.0356C7.71457 15.7259 8.2741 16.2854 8.96441 16.2855H14.1213Z" fill="black"/>
</svg>
