<svg width="24" height="24" viewBox="0 0 24 24" fill="none" xmlns="http://www.w3.org/2000/svg">
<path d="M5.10571 5.10571C8.91332 1.2981 15.0867 1.2981 18.8943 5.10571C22.7019 8.91332 22.7019 15.0867 18.8943 18.8943C15.0867 22.7019 8.91332 22.7019 5.10571 18.8943C1.2981 15.0867 1.2981 8.91332 5.10571 5.10571ZM9.87868 7.71455C9.46447 7.71455 9.12876 8.05025 9.12876 8.46447C9.12876 8.87868 9.46447 9.21439 9.87868 9.21439H13.725L7.93414 15.0052C7.64124 15.2981 7.64124 15.773 7.93414 16.0659C8.22703 16.3588 8.7019 16.3588 8.9948 16.0659L14.7856 10.275V14.1213C14.7856 14.5355 15.1213 14.8712 15.5355 14.8712C15.9497 14.8712 16.2855 14.5355 16.2855 14.1213V8.96441C16.2854 8.2741 15.7259 7.71458 15.0356 7.71455H9.87868Z" fill="black"/>
</svg>
