<svg width="24" height="24" viewBox="0 0 24 24" fill="none" xmlns="http://www.w3.org/2000/svg">
<path fill-rule="evenodd" clip-rule="evenodd" d="M19 2.25C19.9665 2.25 20.75 3.0335 20.75 4V14.6758C20.75 14.9712 20.7018 15.2646 20.6084 15.5449L20.1045 17.0586C19.9159 17.6246 19.9597 18.2427 20.2266 18.7764L20.4473 19.2178C21.0287 20.3813 20.1826 21.75 18.8818 21.75H7C4.92893 21.75 3.25 20.0711 3.25 18V6C3.25 3.92893 4.92893 2.25 7 2.25H19ZM7 15.75C5.75736 15.75 4.75 16.7574 4.75 18C4.75 19.2426 5.75736 20.25 7 20.25H18.8818C19.0676 20.25 19.1882 20.0548 19.1055 19.8887L18.8848 19.4473C18.44 18.5577 18.3671 17.5275 18.6816 16.584L18.959 15.75H7Z" fill="black"/>
</svg>
