<svg width="24" height="24" viewBox="0 0 24 24" fill="none" xmlns="http://www.w3.org/2000/svg">
<path fill-rule="evenodd" clip-rule="evenodd" d="M12.75 3.86515C15.3524 2.88057 18.2474 2.95616 20.8047 4.09269L20.9277 4.14738C21.4275 4.36954 21.7498 4.8651 21.75 5.41202V20.1239C21.75 21.0786 20.767 21.7168 19.8945 21.329C17.7335 20.3688 15.2665 20.3688 13.1055 21.329L12.8047 21.4628C12.2924 21.6905 11.7076 21.6905 11.1953 21.4628L10.8945 21.329C8.73353 20.3688 6.26647 20.3688 4.10547 21.329C3.23304 21.7168 2.25004 21.0786 2.25 20.1239V5.41202C2.2502 4.8651 2.57247 4.36954 3.07227 4.14738L3.19531 4.09269C5.75256 2.95616 8.64757 2.88057 11.25 3.86515V16.9999C11.25 17.4141 11.5858 17.7499 12 17.7499C12.4142 17.7499 12.75 17.4141 12.75 16.9999V3.86515ZM15.9004 11.9384C15.8482 11.9402 15.8023 11.9419 15.7695 11.9433C15.7532 11.944 15.7397 11.9438 15.7305 11.9443C15.7259 11.9445 15.7222 11.9451 15.7197 11.9452H15.7158C15.3021 11.9643 14.9819 12.3156 15.001 12.7294C15.0204 13.1429 15.3716 13.4633 15.7852 13.4442L15.7871 13.4433C15.7891 13.4432 15.7928 13.4435 15.7969 13.4433C15.805 13.4429 15.8172 13.4419 15.832 13.4413C15.8622 13.4401 15.9043 13.4391 15.9521 13.4374C16.0509 13.434 16.1656 13.4306 16.25 13.4306C16.8943 13.4306 17.4739 13.5056 17.8926 13.581C18.1006 13.6184 18.2669 13.6553 18.3789 13.6825C18.4349 13.6961 18.4779 13.7075 18.5049 13.7148C18.518 13.7183 18.5276 13.721 18.5332 13.7226C18.5352 13.7231 18.5371 13.7233 18.5381 13.7235L18.6123 13.7421C18.9859 13.8123 19.3598 13.589 19.4697 13.2167C19.5795 12.8442 19.3861 12.4541 19.0342 12.3105L18.9619 12.2851L18.959 12.2841C18.9579 12.2838 18.9565 12.2835 18.9551 12.2831C18.9517 12.2821 18.9469 12.2808 18.9414 12.2792C18.9303 12.2761 18.9148 12.2717 18.8955 12.2665C18.857 12.2561 18.8023 12.2422 18.7334 12.2255C18.5956 12.192 18.3996 12.1479 18.1582 12.1044C17.6769 12.0178 17.0057 11.9306 16.25 11.9306C16.1382 11.9306 16.0025 11.9348 15.9004 11.9384ZM15.9004 8.68741C15.8482 8.68923 15.8023 8.69093 15.7695 8.6923C15.7532 8.69298 15.7397 8.69287 15.7305 8.69327C15.7259 8.69348 15.7222 8.69414 15.7197 8.69425H15.7158C15.3021 8.71335 14.9819 9.06466 15.001 9.47843C15.0204 9.89185 15.3716 10.2123 15.7852 10.1933L15.7871 10.1923C15.7891 10.1922 15.7928 10.1925 15.7969 10.1923C15.805 10.1919 15.8172 10.191 15.832 10.1903C15.8622 10.1891 15.9043 10.1881 15.9521 10.1864C16.0509 10.183 16.1656 10.1796 16.25 10.1796C16.8943 10.1796 17.4739 10.2546 17.8926 10.33C18.1006 10.3675 18.2669 10.4043 18.3789 10.4316C18.4349 10.4452 18.4779 10.4565 18.5049 10.4638C18.518 10.4673 18.5276 10.47 18.5332 10.4716C18.5352 10.4722 18.5371 10.4723 18.5381 10.4726L18.6123 10.4911C18.9859 10.5613 19.3598 10.338 19.4697 9.96573C19.5795 9.59322 19.3861 9.20317 19.0342 9.05948L18.9619 9.03409L18.959 9.03312C18.9579 9.03281 18.9565 9.03255 18.9551 9.03214C18.9517 9.03116 18.9469 9.02977 18.9414 9.02823C18.9303 9.0251 18.9148 9.02074 18.8955 9.01554C18.857 9.00513 18.8023 8.99126 18.7334 8.97452C18.5956 8.94104 18.3996 8.89688 18.1582 8.85343C17.6769 8.76678 17.0057 8.6796 16.25 8.6796C16.1382 8.6796 16.0025 8.68385 15.9004 8.68741ZM15.9004 5.43742C15.8482 5.43923 15.8023 5.44093 15.7695 5.4423C15.7532 5.44298 15.7397 5.44287 15.7305 5.44327C15.7259 5.44348 15.7222 5.44414 15.7197 5.44425H15.7158C15.3021 5.46335 14.9819 5.81466 15.001 6.22843C15.0204 6.64186 15.3716 6.96234 15.7852 6.94327L15.7871 6.9423C15.7891 6.94221 15.7928 6.94248 15.7969 6.9423C15.805 6.94194 15.8172 6.94096 15.832 6.94034C15.8622 6.93909 15.9043 6.93811 15.9521 6.93644C16.0509 6.93299 16.1656 6.9296 16.25 6.9296C16.8943 6.9296 17.4739 7.00463 17.8926 7.07999C18.1006 7.11745 18.2669 7.15434 18.3789 7.18156C18.4349 7.19516 18.4779 7.20648 18.5049 7.21378C18.518 7.21733 18.5276 7.22001 18.5332 7.22159C18.5352 7.22215 18.5371 7.22229 18.5381 7.22257L18.6123 7.24113C18.9859 7.31129 19.3598 7.08803 19.4697 6.71574C19.5795 6.34322 19.3861 5.95317 19.0342 5.80949L18.9619 5.78409L18.959 5.78312C18.9579 5.78281 18.9565 5.78255 18.9551 5.78214C18.9517 5.78116 18.9469 5.77978 18.9414 5.77824C18.9303 5.7751 18.9148 5.77074 18.8955 5.76554C18.857 5.75513 18.8023 5.74126 18.7334 5.72452C18.5956 5.69104 18.3996 5.64689 18.1582 5.60343C17.6769 5.51678 17.0057 5.4296 16.25 5.4296C16.1382 5.4296 16.0025 5.43385 15.9004 5.43742Z" fill="black"/>
</svg>
