<svg width="24" height="24" viewBox="0 0 24 24" fill="none" xmlns="http://www.w3.org/2000/svg">
<path d="M12.75 3.86488C15.3524 2.88033 18.2475 2.95593 20.8047 4.09242L20.9277 4.14711C21.4275 4.36924 21.7497 4.8649 21.75 5.41176V20.1237C21.75 21.0784 20.767 21.7165 19.8945 21.3287C17.7336 20.3685 15.2664 20.3685 13.1055 21.3287L12.8047 21.4625C12.2924 21.6902 11.7076 21.6902 11.1953 21.4625L10.8945 21.3287C8.73356 20.3685 6.26644 20.3685 4.10547 21.3287C3.23304 21.7165 2.25004 21.0784 2.25 20.1237V5.41176C2.25026 4.8649 2.57252 4.36924 3.07227 4.14711L3.19531 4.09242C5.75253 2.95593 8.6476 2.88033 11.25 3.86488V16.9996C11.25 17.4139 11.5858 17.7496 12 17.7496C12.4142 17.7496 12.75 17.4139 12.75 16.9996V3.86488Z" fill="black"/>
</svg>
