<svg width="24" height="24" viewBox="0 0 24 24" fill="none" xmlns="http://www.w3.org/2000/svg">
<path fill-rule="evenodd" clip-rule="evenodd" d="M12.75 3.86518C15.3525 2.88056 18.2474 2.95615 20.8047 4.09272L20.9277 4.1474C21.4276 4.36959 21.7499 4.86505 21.75 5.41205V20.124C21.75 21.0787 20.767 21.7168 19.8945 21.329C17.7335 20.3687 15.2665 20.3687 13.1055 21.329L12.8047 21.4628C12.2924 21.6905 11.7076 21.6905 11.1953 21.4628L10.8945 21.329C8.73349 20.3687 6.26651 20.3687 4.10547 21.329C3.23304 21.7168 2.25004 21.0787 2.25 20.124V5.41205C2.25012 4.86505 2.57241 4.36959 3.07227 4.1474L3.19531 4.09272C5.7526 2.95615 8.64755 2.88056 11.25 3.86518V16.9999C11.25 17.4142 11.5858 17.7499 12 17.7499C12.4142 17.7499 12.75 17.4142 12.75 16.9999V3.86518ZM16.1504 12.1865C16.0982 12.1883 16.0523 12.19 16.0195 12.1913C16.0032 12.192 15.9897 12.1919 15.9805 12.1923C15.9759 12.1925 15.9722 12.1932 15.9697 12.1933H15.9658C15.5522 12.2124 15.2321 12.5639 15.251 12.9775C15.2702 13.3911 15.6215 13.7114 16.0352 13.6923L16.0371 13.6913C16.0391 13.6913 16.0428 13.6915 16.0469 13.6913C16.055 13.691 16.0672 13.69 16.082 13.6894C16.1122 13.6881 16.1543 13.6872 16.2021 13.6855C16.3009 13.682 16.4156 13.6787 16.5 13.6787C17.1443 13.6787 17.7239 13.7537 18.1426 13.829C18.3506 13.8665 18.5169 13.9034 18.6289 13.9306C18.6849 13.9442 18.7278 13.9555 18.7549 13.9628C18.768 13.9664 18.7776 13.9691 18.7832 13.9706C18.7852 13.9712 18.7881 13.9716 18.7881 13.9716L18.8623 13.9902C19.236 14.0604 19.6099 13.8374 19.7197 13.4648C19.8293 13.0923 19.6361 12.7021 19.2842 12.5585L19.2119 12.5331L19.209 12.5322L19.2051 12.5312C19.2017 12.5302 19.1969 12.5288 19.1914 12.5273C19.1803 12.5241 19.1648 12.5198 19.1455 12.5146C19.107 12.5042 19.0523 12.4903 18.9834 12.4736C18.8456 12.4401 18.6495 12.3959 18.4082 12.3525C17.9269 12.2658 17.2556 12.1787 16.5 12.1787C16.3882 12.1787 16.2525 12.1829 16.1504 12.1865ZM16.1504 8.68647C16.0982 8.68829 16.0523 8.68998 16.0195 8.69135C16.0032 8.69203 15.9897 8.69192 15.9805 8.69233C15.9759 8.69253 15.9722 8.69319 15.9697 8.6933H15.9658C15.5522 8.71239 15.2321 9.06385 15.251 9.47748C15.2702 9.89113 15.6215 10.2114 16.0352 10.1923L16.0371 10.1913C16.0391 10.1913 16.0428 10.1915 16.0469 10.1913C16.055 10.191 16.0672 10.19 16.082 10.1894C16.1122 10.1881 16.1543 10.1872 16.2021 10.1855C16.3009 10.182 16.4156 10.1787 16.5 10.1787C17.1443 10.1787 17.7239 10.2537 18.1426 10.329C18.3506 10.3665 18.5169 10.4034 18.6289 10.4306C18.6849 10.4442 18.7278 10.4555 18.7549 10.4628C18.768 10.4664 18.7776 10.4691 18.7832 10.4706C18.7852 10.4712 18.7881 10.4716 18.7881 10.4716L18.8623 10.4902C19.236 10.5604 19.6099 10.3374 19.7197 9.96479C19.8293 9.59231 19.6361 9.20213 19.2842 9.05854L19.2119 9.03315L19.209 9.03217L19.2051 9.03119C19.2017 9.03021 19.1969 9.02883 19.1914 9.02729C19.1803 9.02414 19.1648 9.01979 19.1455 9.01459C19.107 9.00418 19.0523 8.99031 18.9834 8.97358C18.8456 8.94009 18.6495 8.89593 18.4082 8.85248C17.9269 8.76584 17.2556 8.67865 16.5 8.67865C16.3882 8.67865 16.2525 8.68291 16.1504 8.68647ZM16.1504 5.18647C16.0982 5.18829 16.0523 5.18998 16.0195 5.19135C16.0032 5.19203 15.9897 5.19192 15.9805 5.19233C15.9759 5.19253 15.9722 5.19319 15.9697 5.1933H15.9658C15.5522 5.21239 15.2321 5.56385 15.251 5.97748C15.2702 6.39113 15.6215 6.71141 16.0352 6.69233L16.0371 6.69135C16.0391 6.69126 16.0428 6.69153 16.0469 6.69135C16.055 6.69099 16.0672 6.69002 16.082 6.6894C16.1122 6.68814 16.1543 6.68716 16.2021 6.68549C16.3009 6.68205 16.4156 6.67865 16.5 6.67865C17.1443 6.67865 17.7239 6.75369 18.1426 6.82905C18.3506 6.8665 18.5169 6.90339 18.6289 6.93061C18.6849 6.9442 18.7278 6.95553 18.7549 6.96283C18.768 6.96638 18.7776 6.96905 18.7832 6.97065C18.7852 6.97122 18.7881 6.97162 18.7881 6.97162L18.8623 6.99018C19.236 7.06042 19.6099 6.83736 19.7197 6.46479C19.8293 6.09231 19.6361 5.70213 19.2842 5.55854L19.2119 5.53315L19.209 5.53217L19.2051 5.53119C19.2017 5.53021 19.1969 5.52883 19.1914 5.52729C19.1803 5.52414 19.1648 5.51979 19.1455 5.51459C19.107 5.50418 19.0523 5.49031 18.9834 5.47358C18.8456 5.44009 18.6495 5.39593 18.4082 5.35248C17.9269 5.26584 17.2556 5.17865 16.5 5.17865C16.3882 5.17865 16.2525 5.18291 16.1504 5.18647Z" fill="black"/>
</svg>
