<svg width="24" height="24" viewBox="0 0 24 24" fill="none" xmlns="http://www.w3.org/2000/svg">
<path fill-rule="evenodd" clip-rule="evenodd" d="M16 1.25C16.4142 1.25 16.75 1.58579 16.75 2V2.25H19C20.5188 2.25 21.75 3.48122 21.75 5V19C21.75 20.5188 20.5188 21.75 19 21.75H5C3.48122 21.75 2.25 20.5188 2.25 19V5C2.25 3.48122 3.48122 2.25 5 2.25H7.25V2C7.25 1.58579 7.58579 1.25 8 1.25C8.41421 1.25 8.75 1.58579 8.75 2V2.25H15.25V2C15.25 1.58579 15.5858 1.25 16 1.25ZM7 16.25C6.58579 16.25 6.25 16.5858 6.25 17C6.25 17.4142 6.58579 17.75 7 17.75H8C8.41421 17.75 8.75 17.4142 8.75 17C8.75 16.5858 8.41421 16.25 8 16.25H7ZM11.5 16.25C11.0858 16.25 10.75 16.5858 10.75 17C10.75 17.4142 11.0858 17.75 11.5 17.75H12.5C12.9142 17.75 13.25 17.4142 13.25 17C13.25 16.5858 12.9142 16.25 12.5 16.25H11.5ZM7 13.25C6.58579 13.25 6.25 13.5858 6.25 14C6.25 14.4142 6.58579 14.75 7 14.75H8C8.41421 14.75 8.75 14.4142 8.75 14C8.75 13.5858 8.41421 13.25 8 13.25H7ZM11.5 13.25C11.0858 13.25 10.75 13.5858 10.75 14C10.75 14.4142 11.0858 14.75 11.5 14.75H12.5C12.9142 14.75 13.25 14.4142 13.25 14C13.25 13.5858 12.9142 13.25 12.5 13.25H11.5ZM16 13.25C15.5858 13.25 15.25 13.5858 15.25 14C15.25 14.4142 15.5858 14.75 16 14.75H17C17.4142 14.75 17.75 14.4142 17.75 14C17.75 13.5858 17.4142 13.25 17 13.25H16ZM11.5 10.25C11.0858 10.25 10.75 10.5858 10.75 11C10.75 11.4142 11.0858 11.75 11.5 11.75H12.5C12.9142 11.75 13.25 11.4142 13.25 11C13.25 10.5858 12.9142 10.25 12.5 10.25H11.5ZM16 10.25C15.5858 10.25 15.25 10.5858 15.25 11C15.25 11.4142 15.5858 11.75 16 11.75H17C17.4142 11.75 17.75 11.4142 17.75 11C17.75 10.5858 17.4142 10.25 17 10.25H16ZM5 3.75C4.30964 3.75 3.75 4.30964 3.75 5V6.25H20.25V5C20.25 4.30964 19.6904 3.75 19 3.75H16.75V4C16.75 4.41421 16.4142 4.75 16 4.75C15.5858 4.75 15.25 4.41421 15.25 4V3.75H8.75V4C8.75 4.41421 8.41421 4.75 8 4.75C7.58579 4.75 7.25 4.41421 7.25 4V3.75H5Z" fill="black"/>
</svg>
