<svg width="24" height="24" viewBox="0 0 24 24" fill="none" xmlns="http://www.w3.org/2000/svg">
<path fill-rule="evenodd" clip-rule="evenodd" d="M2.25 12C2.25 6.61522 6.61522 2.25 12 2.25C17.3848 2.25 21.75 6.61522 21.75 12C21.75 17.3848 17.3848 21.75 12 21.75C6.61522 21.75 2.25 17.3848 2.25 12ZM7.46973 12.4697C7.17683 12.7626 7.17683 13.2374 7.46973 13.5303C7.76262 13.8232 8.23738 13.8232 8.53027 13.5303L12 10.0605L15.4697 13.5303C15.7626 13.8232 16.2374 13.8232 16.5303 13.5303C16.8232 13.2374 16.8232 12.7626 16.5303 12.4697L12.8838 8.82324C12.3956 8.33514 11.6044 8.33514 11.1162 8.82324L7.46973 12.4697Z" fill="black"/>
</svg>
