<svg width="24" height="24" viewBox="0 0 24 24" fill="none" xmlns="http://www.w3.org/2000/svg">
<path fill-rule="evenodd" clip-rule="evenodd" d="M21.75 12C21.75 17.3848 17.3848 21.75 12 21.75C6.61522 21.75 2.25 17.3848 2.25 12C2.25 6.61522 6.61522 2.25 12 2.25C17.3848 2.25 21.75 6.61522 21.75 12ZM16.5303 11.5303C16.8232 11.2374 16.8232 10.7626 16.5303 10.4697C16.2374 10.1768 15.7626 10.1768 15.4697 10.4697L12 13.9395L8.53027 10.4697C8.23738 10.1768 7.76262 10.1768 7.46973 10.4697C7.17683 10.7626 7.17683 11.2374 7.46973 11.5303L11.1162 15.1768C11.6044 15.6649 12.3956 15.6649 12.8838 15.1768L16.5303 11.5303Z" fill="black"/>
</svg>
