<svg width="24" height="24" viewBox="0 0 24 24" fill="none" xmlns="http://www.w3.org/2000/svg">
<path fill-rule="evenodd" clip-rule="evenodd" d="M12 2.25C6.61522 2.25 2.25 6.61522 2.25 12C2.25 17.3848 6.61522 21.75 12 21.75C17.3848 21.75 21.75 17.3848 21.75 12C21.75 6.61522 17.3848 2.25 12 2.25ZM12.4697 7.46973C12.7626 7.17683 13.2374 7.17683 13.5303 7.46973C13.8232 7.76262 13.8232 8.23738 13.5303 8.53027L10.0605 12L13.5303 15.4697C13.8232 15.7626 13.8232 16.2374 13.5303 16.5303C13.2374 16.8232 12.7626 16.8232 12.4697 16.5303L8.82324 12.8838C8.33514 12.3956 8.33514 11.6044 8.82324 11.1162L12.4697 7.46973Z" fill="black"/>
</svg>
