<svg width="24" height="24" viewBox="0 0 24 24" fill="none" xmlns="http://www.w3.org/2000/svg">
<path fill-rule="evenodd" clip-rule="evenodd" d="M12 2.25C17.3848 2.25 21.75 6.61522 21.75 12C21.75 17.3848 17.3848 21.75 12 21.75C6.61522 21.75 2.25 17.3848 2.25 12C2.25 6.61522 6.61522 2.25 12 2.25ZM11.5303 7.46973C11.2374 7.17683 10.7626 7.17683 10.4697 7.46973C10.1768 7.76262 10.1768 8.23738 10.4697 8.53027L13.9395 12L10.4697 15.4697C10.1768 15.7626 10.1768 16.2374 10.4697 16.5303C10.7626 16.8232 11.2374 16.8232 11.5303 16.5303L15.1768 12.8838C15.6649 12.3956 15.6649 11.6044 15.1768 11.1162L11.5303 7.46973Z" fill="black"/>
</svg>
