<svg width="24" height="24" viewBox="0 0 24 24" fill="none" xmlns="http://www.w3.org/2000/svg">
<path fill-rule="evenodd" clip-rule="evenodd" d="M12 2.25C17.3848 2.25 21.75 6.61522 21.75 12C21.75 17.3848 17.3848 21.75 12 21.75C6.61522 21.75 2.25 17.3848 2.25 12C2.25 6.61522 6.61522 2.25 12 2.25ZM12.8174 18.1973C12.5502 18.2321 12.2773 18.25 12 18.25C11.7227 18.25 11.4498 18.2321 11.1826 18.1973C10.7719 18.1438 10.3954 18.4331 10.3418 18.8438C10.2882 19.2543 10.5778 19.6308 10.9883 19.6846C11.3196 19.7278 11.6576 19.75 12 19.75C12.3424 19.75 12.6804 19.7278 13.0117 19.6846C13.4222 19.6308 13.7118 19.2543 13.6582 18.8438C13.6046 18.4331 13.2281 18.1438 12.8174 18.1973ZM7.04102 15.8047C6.78862 15.4762 6.3177 15.4146 5.98926 15.667C5.66087 15.9194 5.59919 16.3903 5.85156 16.7188C6.26385 17.2552 6.74478 17.7362 7.28125 18.1484C7.60967 18.4008 8.0806 18.3391 8.33301 18.0107C8.5854 17.6823 8.52375 17.2114 8.19531 16.959C7.7622 16.6261 7.37387 16.2378 7.04102 15.8047ZM18.0107 15.667C17.6823 15.4146 17.2114 15.4762 16.959 15.8047C16.6261 16.2378 16.2378 16.6261 15.8047 16.959C15.4762 17.2114 15.4146 17.6823 15.667 18.0107C15.9194 18.3391 16.3903 18.4008 16.7188 18.1484C17.2552 17.7362 17.7362 17.2552 18.1484 16.7188C18.4008 16.3903 18.3391 15.9194 18.0107 15.667ZM5.15625 10.3418C4.74566 10.2882 4.36921 10.5778 4.31543 10.9883C4.27221 11.3196 4.25 11.6576 4.25 12C4.25 12.3424 4.27221 12.6804 4.31543 13.0117C4.36921 13.4222 4.74566 13.7118 5.15625 13.6582C5.56693 13.6046 5.85624 13.2281 5.80273 12.8174C5.76789 12.5502 5.75 12.2773 5.75 12C5.75 11.7227 5.76789 11.4498 5.80273 11.1826C5.85624 10.7719 5.56692 10.3954 5.15625 10.3418ZM18.8438 10.3418C18.4331 10.3954 18.1438 10.7719 18.1973 11.1826C18.2321 11.4498 18.25 11.7227 18.25 12C18.25 12.2773 18.2321 12.5502 18.1973 12.8174C18.1438 13.2281 18.4331 13.6046 18.8438 13.6582C19.2543 13.7118 19.6308 13.4222 19.6846 13.0117C19.7278 12.6804 19.75 12.3424 19.75 12C19.75 11.6576 19.7278 11.3196 19.6846 10.9883C19.6308 10.5778 19.2543 10.2882 18.8438 10.3418ZM8.33301 5.98926C8.0806 5.66087 7.60967 5.59919 7.28125 5.85156C6.74478 6.26385 6.26385 6.74478 5.85156 7.28125C5.59919 7.60967 5.66087 8.0806 5.98926 8.33301C6.3177 8.5854 6.78862 8.52375 7.04102 8.19531C7.37387 7.7622 7.7622 7.37387 8.19531 7.04102C8.52375 6.78862 8.5854 6.3177 8.33301 5.98926ZM16.7188 5.85156C16.3903 5.59919 15.9194 5.66087 15.667 5.98926C15.4146 6.3177 15.4762 6.78862 15.8047 7.04102C16.2378 7.37387 16.6261 7.7622 16.959 8.19531C17.2114 8.52375 17.6823 8.5854 18.0107 8.33301C18.3391 8.0806 18.4008 7.60967 18.1484 7.28125C17.7362 6.74478 17.2552 6.26385 16.7188 5.85156ZM12 4.25C11.6576 4.25 11.3196 4.27221 10.9883 4.31543C10.5778 4.36921 10.2882 4.74566 10.3418 5.15625C10.3954 5.56693 10.7719 5.85624 11.1826 5.80273C11.4498 5.76789 11.7227 5.75 12 5.75C12.2773 5.75 12.5502 5.76789 12.8174 5.80273C13.2281 5.85624 13.6046 5.56692 13.6582 5.15625C13.7118 4.74566 13.4222 4.36921 13.0117 4.31543C12.6804 4.27221 12.3424 4.25 12 4.25Z" fill="black"/>
</svg>
