<svg width="24" height="24" viewBox="0 0 24 24" fill="none" xmlns="http://www.w3.org/2000/svg">
<path fill-rule="evenodd" clip-rule="evenodd" d="M14.5 2.25C15.4793 2.25 16.31 2.87657 16.6191 3.75H17.5C19.0188 3.75 20.25 4.98122 20.25 6.5V19C20.25 20.5188 19.0188 21.75 17.5 21.75H6.5C4.98122 21.75 3.75 20.5188 3.75 19V6.5C3.75 4.98122 4.98122 3.75 6.5 3.75H7.38086C7.68999 2.87657 8.52067 2.25 9.5 2.25H14.5ZM15.5303 11.4697C15.2374 11.1768 14.7626 11.1768 14.4697 11.4697L11 14.9395L9.53027 13.4697C9.23738 13.1768 8.76262 13.1768 8.46973 13.4697C8.17683 13.7626 8.17683 14.2374 8.46973 14.5303L10.293 16.3535C10.6835 16.744 11.3165 16.744 11.707 16.3535L15.5303 12.5303C15.8232 12.2374 15.8232 11.7626 15.5303 11.4697ZM9.5 3.75C9.08579 3.75 8.75 4.08579 8.75 4.5C8.75 4.91421 9.08579 5.25 9.5 5.25H14.5C14.9142 5.25 15.25 4.91421 15.25 4.5C15.25 4.08579 14.9142 3.75 14.5 3.75H9.5Z" fill="black"/>
</svg>
