<svg width="24" height="24" viewBox="0 0 24 24" fill="none" xmlns="http://www.w3.org/2000/svg">
<path fill-rule="evenodd" clip-rule="evenodd" d="M14.5 2.25C15.4793 2.25 16.31 2.87657 16.6191 3.75H17.5C19.0188 3.75 20.25 4.98122 20.25 6.5V19C20.25 20.5188 19.0188 21.75 17.5 21.75H6.5C4.98122 21.75 3.75 20.5188 3.75 19V6.5C3.75 4.98122 4.98122 3.75 6.5 3.75H7.38086C7.68999 2.87657 8.52067 2.25 9.5 2.25H14.5ZM14.6523 11.3486C14.3595 11.0557 13.8837 11.0557 13.5908 11.3486L12 12.9385L10.4092 11.3486C10.1163 11.0557 9.64153 11.0557 9.34863 11.3486C9.05586 11.6415 9.05578 12.1163 9.34863 12.4092L10.9395 14L9.34863 15.5908C9.05578 15.8837 9.05586 16.3585 9.34863 16.6514C9.64153 16.9443 10.1163 16.9443 10.4092 16.6514L12 15.0605L13.5908 16.6514C13.8837 16.9443 14.3595 16.9443 14.6523 16.6514C14.9448 16.3585 14.945 15.8836 14.6523 15.5908L13.0605 14L14.6523 12.4092C14.945 12.1164 14.9448 11.6415 14.6523 11.3486ZM9.5 3.75C9.08579 3.75 8.75 4.08579 8.75 4.5C8.75 4.91421 9.08579 5.25 9.5 5.25H14.5C14.9142 5.25 15.25 4.91421 15.25 4.5C15.25 4.08579 14.9142 3.75 14.5 3.75H9.5Z" fill="black"/>
</svg>
