<svg width="24" height="24" viewBox="0 0 24 24" fill="none" xmlns="http://www.w3.org/2000/svg">
<path fill-rule="evenodd" clip-rule="evenodd" d="M14.5 2.25C15.4793 2.25 16.31 2.87657 16.6191 3.75H17.5C19.0188 3.75 20.25 4.98122 20.25 6.5V10.75H17.7383C17.8095 9.96551 17.545 9.1563 16.9443 8.55566C15.8704 7.48172 14.1296 7.48172 13.0557 8.55566L10.4092 11.2021C9.14003 12.4713 9.14003 14.5287 10.4092 15.7979L13.0557 18.4443C14.1296 19.5183 15.8704 19.5183 16.9443 18.4443C17.545 17.8437 17.8095 17.0345 17.7383 16.25H20.25V19C20.25 20.5188 19.0188 21.75 17.5 21.75H6.5C4.98122 21.75 3.75 20.5188 3.75 19V6.5C3.75 4.98122 4.98122 3.75 6.5 3.75H7.38086C7.68999 2.87657 8.52067 2.25 9.5 2.25H14.5ZM9.5 3.75C9.08579 3.75 8.75 4.08579 8.75 4.5C8.75 4.91421 9.08579 5.25 9.5 5.25H14.5C14.9142 5.25 15.25 4.91421 15.25 4.5C15.25 4.08579 14.9142 3.75 14.5 3.75H9.5Z" fill="black"/>
<path d="M14.4697 9.96973C14.7626 9.67683 15.2374 9.67683 15.5303 9.96973C15.8232 10.2626 15.8232 10.7374 15.5303 11.0303L13.8105 12.75H21C21.4142 12.75 21.75 13.0858 21.75 13.5C21.75 13.9142 21.4142 14.25 21 14.25H13.8105L15.5303 15.9697C15.8232 16.2626 15.8232 16.7374 15.5303 17.0303C15.2374 17.3232 14.7626 17.3232 14.4697 17.0303L11.8232 14.3838C11.3351 13.8956 11.3351 13.1044 11.8232 12.6162L14.4697 9.96973Z" fill="black"/>
</svg>
