<svg width="24" height="24" viewBox="0 0 24 24" fill="none" xmlns="http://www.w3.org/2000/svg">
<path fill-rule="evenodd" clip-rule="evenodd" d="M14.5 2.25C15.4793 2.25 16.31 2.87657 16.6191 3.75H17.5C19.0188 3.75 20.25 4.98122 20.25 6.5V8.33789C19.2938 7.78418 18.0508 7.914 17.2324 8.73242C16.6163 9.34852 16.3903 10.2058 16.5518 11H13C11.6193 11 10.5 12.1193 10.5 13.5C10.5 14.8807 11.6193 16 13 16H16.5518C16.3903 16.7942 16.6163 17.6515 17.2324 18.2676C18.051 19.0861 19.2937 19.2151 20.25 18.6611V19C20.25 20.5188 19.0188 21.75 17.5 21.75H6.5C4.98122 21.75 3.75 20.5188 3.75 19V6.5C3.75 4.98122 4.98122 3.75 6.5 3.75H7.38086C7.68999 2.87657 8.52067 2.25 9.5 2.25H14.5ZM9.5 3.75C9.08579 3.75 8.75 4.08579 8.75 4.5C8.75 4.91421 9.08579 5.25 9.5 5.25H14.5C14.9142 5.25 15.25 4.91421 15.25 4.5C15.25 4.08579 14.9142 3.75 14.5 3.75H9.5Z" fill="black"/>
<path d="M18.4697 9.96973C18.7626 9.67683 19.2374 9.67683 19.5303 9.96973L22.1768 12.6162C22.6649 13.1044 22.6649 13.8956 22.1768 14.3838L19.5303 17.0303C19.2374 17.3232 18.7626 17.3232 18.4697 17.0303C18.1768 16.7374 18.1768 16.2626 18.4697 15.9697L20.1895 14.25H13C12.5858 14.25 12.25 13.9142 12.25 13.5C12.25 13.0858 12.5858 12.75 13 12.75H20.1895L18.4697 11.0303C18.1768 10.7374 18.1768 10.2626 18.4697 9.96973Z" fill="black"/>
</svg>
