<svg width="24" height="24" viewBox="0 0 24 24" fill="none" xmlns="http://www.w3.org/2000/svg">
<path fill-rule="evenodd" clip-rule="evenodd" d="M14.5 2.25C15.4793 2.25 16.31 2.87657 16.6191 3.75H17.5C19.0188 3.75 20.25 4.98122 20.25 6.5V19C20.25 20.5188 19.0188 21.75 17.5 21.75H6.5C4.98122 21.75 3.75 20.5188 3.75 19V6.5C3.75 4.98122 4.98122 3.75 6.5 3.75H7.38086C7.68999 2.87657 8.52067 2.25 9.5 2.25H14.5ZM8.5 16.25C8.08579 16.25 7.75 16.5858 7.75 17C7.75 17.4142 8.08579 17.75 8.5 17.75H10.5C10.9142 17.75 11.25 17.4142 11.25 17C11.25 16.5858 10.9142 16.25 10.5 16.25H8.5ZM8.5 12.75C8.08579 12.75 7.75 13.0858 7.75 13.5C7.75 13.9142 8.08579 14.25 8.5 14.25H15.5C15.9142 14.25 16.25 13.9142 16.25 13.5C16.25 13.0858 15.9142 12.75 15.5 12.75H8.5ZM8.5 9.25C8.08579 9.25 7.75 9.58579 7.75 10C7.75 10.4142 8.08579 10.75 8.5 10.75H15.5C15.9142 10.75 16.25 10.4142 16.25 10C16.25 9.58579 15.9142 9.25 15.5 9.25H8.5ZM9.5 3.75C9.08579 3.75 8.75 4.08579 8.75 4.5C8.75 4.91421 9.08579 5.25 9.5 5.25H14.5C14.9142 5.25 15.25 4.91421 15.25 4.5C15.25 4.08579 14.9142 3.75 14.5 3.75H9.5Z" fill="black"/>
</svg>
