<svg width="24" height="24" viewBox="0 0 24 24" fill="none" xmlns="http://www.w3.org/2000/svg">
<path d="M5.10524 5.1057C8.571 1.63993 13.9966 1.32966 17.8143 4.17308L19.2303 2.75705L19.3241 2.67697C19.8085 2.32222 20.528 2.65956 20.5282 3.29417V6.55005C20.528 7.24016 19.9683 7.79986 19.2782 7.80006H16.0243C15.3476 7.79986 15.0081 6.98204 15.4862 6.50317L16.7391 5.24828C13.52 2.98312 9.04435 3.28769 6.16579 6.16626C2.94419 9.38813 2.94403 14.6125 6.16579 17.8343C9.38755 21.0561 14.612 21.0559 17.8338 17.8343C19.3995 16.2687 20.2037 14.2313 20.2479 12.179C20.2568 11.7651 20.5997 11.436 21.0135 11.4446C21.4277 11.4535 21.7568 11.7971 21.7479 12.2112C21.6957 14.6346 20.7442 17.045 18.8944 18.8949C15.0867 22.7022 8.91279 22.7024 5.10524 18.8949C1.29768 15.0873 1.29785 8.91336 5.10524 5.1057ZM11.9998 6.25024C12.414 6.25024 12.7498 6.58603 12.7498 7.00025V11.2503H15.9998C16.4141 11.2503 16.7498 11.5861 16.7498 12.0003C16.7497 12.4144 16.414 12.7503 15.9998 12.7503H12.2498C11.6977 12.7502 11.2499 12.3024 11.2498 11.7503V7.00025C11.2498 6.58611 11.5857 6.25037 11.9998 6.25024Z" fill="black"/>
</svg>
