<svg width="24" height="24" viewBox="0 0 24 24" fill="none" xmlns="http://www.w3.org/2000/svg">
<path d="M12 2.25C6.61522 2.25 2.25 6.61522 2.25 12C2.25 17.3848 6.61522 21.75 12 21.75C17.3848 21.75 21.75 17.3848 21.75 12C21.75 6.61522 17.3848 2.25 12 2.25ZM12 6.25C12.4142 6.25003 12.75 6.58581 12.75 7L12.749 11.6895L15.3584 14.2979C15.6513 14.5907 15.6513 15.0665 15.3584 15.3594C15.0656 15.6517 14.5907 15.6517 14.2979 15.3594L11.542 12.6035C11.3547 12.416 11.2491 12.1615 11.249 11.8965L11.25 7C11.25 6.58584 11.5859 6.25006 12 6.25Z" fill="black"/>
</svg>
