<svg width="24" height="24" viewBox="0 0 24 24" fill="none" xmlns="http://www.w3.org/2000/svg">
<path d="M19 15.25C19.4142 15.25 19.75 15.5858 19.75 16V18.25H22C22.4142 18.25 22.75 18.5858 22.75 19C22.75 19.4142 22.4142 19.75 22 19.75H19.75V22C19.75 22.4142 19.4142 22.75 19 22.75C18.5858 22.75 18.25 22.4142 18.25 22V19.75H16C15.5858 19.75 15.25 19.4142 15.25 19C15.25 18.5858 15.5858 18.25 16 18.25H18.25V16C18.25 15.5858 18.5858 15.25 19 15.25ZM12 2.25C17.3848 2.25 21.75 6.61522 21.75 12C21.75 12.7062 21.6728 13.3943 21.5293 14.0576C21.4824 14.2743 21.1849 14.3187 21.0361 14.1543C20.5336 13.599 19.8081 13.25 19 13.25C17.4812 13.25 16.25 14.4812 16.25 16C16.25 16.1381 16.1381 16.25 16 16.25C14.4812 16.25 13.25 17.4812 13.25 19C13.25 19.8081 13.599 20.5336 14.1543 21.0361C14.3187 21.1849 14.2743 21.4824 14.0576 21.5293C13.3943 21.6728 12.7062 21.75 12 21.75C6.61522 21.75 2.25 17.3848 2.25 12C2.25 6.61522 6.61522 2.25 12 2.25ZM12 6.25C11.5858 6.25 11.25 6.58579 11.25 7V11.75C11.25 12.3023 11.6977 12.75 12.25 12.75H16C16.4142 12.75 16.75 12.4142 16.75 12C16.75 11.5858 16.4142 11.25 16 11.25H12.75V7C12.75 6.58579 12.4142 6.25 12 6.25Z" fill="black"/>
</svg>
