<svg width="24" height="24" viewBox="0 0 24 24" fill="none" xmlns="http://www.w3.org/2000/svg">
<path d="M6.18236 4.17429C10.0001 1.32998 15.4262 1.63997 18.8923 5.10593C22.6999 8.91354 22.6999 15.0874 18.8923 18.895C15.0847 22.7025 8.91085 22.7026 5.10326 18.895C3.25346 17.0451 2.30189 14.6348 2.24975 12.2114C2.24091 11.7974 2.57014 11.4538 2.98412 11.4448C3.39805 11.4361 3.7408 11.7652 3.74975 12.1792C3.79391 14.2315 4.59821 16.2688 6.16381 17.8344C9.38561 21.0562 14.6099 21.0562 17.8318 17.8344C21.0536 14.6126 21.0536 9.3883 17.8318 6.16648C14.9527 3.28753 10.4758 2.98296 7.25658 5.24948L8.51147 6.50437C8.98942 6.98327 8.65016 7.80124 7.97338 7.80124H4.71947C4.02954 7.80092 3.46971 7.24119 3.46947 6.55124V3.29538C3.46947 2.66071 4.18916 2.32272 4.67357 2.67722L4.76732 2.75827L6.18236 4.17429ZM11.9997 6.25046C12.4139 6.25046 12.7497 6.58629 12.7497 7.00046V11.2505H15.9997C16.4139 11.2505 16.7497 11.5863 16.7497 12.0005C16.7497 12.4147 16.414 12.7505 15.9997 12.7505H12.2497C11.6976 12.7503 11.2497 12.3027 11.2497 11.7505V7.00046C11.2498 6.58637 11.5857 6.25059 11.9997 6.25046Z" fill="black"/>
</svg>
