<svg width="24" height="24" viewBox="0 0 24 24" fill="none" xmlns="http://www.w3.org/2000/svg">
<path d="M22 16.25C22.045 16.25 22.089 16.2541 22.1318 16.2617C22.1374 16.2627 22.1429 16.2635 22.1484 16.2646C22.1618 16.2673 22.1744 16.273 22.1875 16.2764C22.2207 16.2849 22.2541 16.2934 22.2861 16.3066C22.3153 16.3187 22.342 16.3351 22.3691 16.3506C22.4263 16.3831 22.4816 16.421 22.5303 16.4697C22.5787 16.5181 22.616 16.5732 22.6484 16.6299C22.664 16.657 22.6803 16.6838 22.6924 16.7129C22.7131 16.7629 22.7279 16.8146 22.7373 16.8672C22.745 16.9103 22.75 16.9546 22.75 17C22.75 17.045 22.7449 17.089 22.7373 17.1318C22.7363 17.1374 22.7355 17.1429 22.7344 17.1484C22.7317 17.1618 22.7261 17.1744 22.7227 17.1875C22.7141 17.2208 22.7056 17.2541 22.6924 17.2861C22.6844 17.3055 22.6736 17.3233 22.6641 17.3418C22.6294 17.4091 22.5867 17.4738 22.5303 17.5303L18.8105 21.25H22C22.4142 21.25 22.75 21.5858 22.75 22C22.75 22.4142 22.4142 22.75 22 22.75H17C16.9546 22.75 16.9103 22.745 16.8672 22.7373C16.8617 22.7363 16.8561 22.7355 16.8506 22.7344C16.8372 22.7317 16.8246 22.7261 16.8115 22.7227C16.7783 22.714 16.7449 22.7057 16.7129 22.6924C16.6838 22.6803 16.657 22.664 16.6299 22.6484C16.5732 22.616 16.5181 22.5787 16.4697 22.5303C16.421 22.4816 16.3831 22.4263 16.3506 22.3691C16.3351 22.342 16.3187 22.3153 16.3066 22.2861C16.286 22.2361 16.2711 22.1844 16.2617 22.1318C16.2541 22.089 16.25 22.045 16.25 22C16.25 21.9547 16.254 21.9103 16.2617 21.8672C16.2708 21.8164 16.285 21.7662 16.3047 21.7178L16.3086 21.708C16.3227 21.6746 16.3417 21.644 16.3604 21.6133C16.391 21.5626 16.426 21.5135 16.4697 21.4697L20.1895 17.75H17C16.5858 17.75 16.25 17.4142 16.25 17C16.25 16.5858 16.5858 16.25 17 16.25H22ZM12 2.25C17.3848 2.25 21.75 6.61522 21.75 12C21.75 12.7058 21.6723 13.3935 21.5293 14.0566C21.5049 14.17 21.403 14.25 21.2871 14.25H17C15.4812 14.25 14.25 15.4812 14.25 17C14.25 17.9252 14.7068 18.7438 15.4072 19.2422C15.5434 19.3391 15.5731 19.538 15.4551 19.6562L15.0557 20.0557C14.9282 20.1831 14.8135 20.3232 14.7129 20.4736C14.6912 20.506 14.6725 20.5401 14.6523 20.5732C14.6262 20.6162 14.599 20.6586 14.5752 20.7031C14.5525 20.7455 14.532 20.7888 14.5117 20.832C14.4939 20.8699 14.4751 20.9075 14.459 20.9463C14.4383 20.9963 14.4219 21.0477 14.4043 21.0986C14.3931 21.1309 14.3801 21.1625 14.3701 21.1953C14.3575 21.2365 14.3485 21.2786 14.3379 21.3203C14.3142 21.4134 14.2411 21.4886 14.1475 21.5098C13.4565 21.6655 12.738 21.75 12 21.75C6.61522 21.75 2.25 17.3848 2.25 12C2.25 6.61522 6.61522 2.25 12 2.25ZM12 6.25C11.5858 6.25 11.25 6.58579 11.25 7V11.75C11.25 12.3023 11.6977 12.75 12.25 12.75H16C16.4142 12.75 16.75 12.4142 16.75 12C16.75 11.5858 16.4142 11.25 16 11.25H12.75V7C12.75 6.58579 12.4142 6.25 12 6.25Z" fill="black"/>
</svg>
