<svg width="24" height="24" viewBox="0 0 24 24" fill="none" xmlns="http://www.w3.org/2000/svg">
<path d="M12 2.25C17.3848 2.25 21.75 6.61522 21.75 12C21.75 13.468 21.4249 14.8598 20.8438 16.1084C20.8034 16.1951 20.7158 16.2499 20.6201 16.25H16C14.4812 16.25 13.25 17.4812 13.25 19C13.25 19.8081 13.599 20.5336 14.1543 21.0361C14.3187 21.1849 14.2743 21.4824 14.0576 21.5293C13.3943 21.6728 12.7062 21.75 12 21.75C6.61522 21.75 2.25 17.3848 2.25 12C2.25 6.61522 6.61522 2.25 12 2.25ZM22 18.25C22.4142 18.25 22.75 18.5858 22.75 19C22.75 19.4142 22.4142 19.75 22 19.75H16C15.5858 19.75 15.25 19.4142 15.25 19C15.25 18.5858 15.5858 18.25 16 18.25H22ZM12 6.25C11.5858 6.25 11.25 6.58579 11.25 7V11.75C11.25 12.3023 11.6977 12.75 12.25 12.75H16C16.4142 12.75 16.75 12.4142 16.75 12C16.75 11.5858 16.4142 11.25 16 11.25H12.75V7C12.75 6.58579 12.4142 6.25 12 6.25Z" fill="black"/>
</svg>
