<svg width="24" height="24" viewBox="0 0 24 24" fill="none" xmlns="http://www.w3.org/2000/svg">
<path d="M12 2.25C17.3848 2.25 21.75 6.61522 21.75 12C21.75 17.3848 17.3848 21.75 12 21.75C6.61522 21.75 2.25 17.3848 2.25 12C2.25 6.61522 6.61522 2.25 12 2.25ZM12 6.25C11.5858 6.25003 11.25 6.58581 11.25 7L11.251 11.6895L8.6416 14.2979C8.34871 14.5907 8.34871 15.0665 8.6416 15.3594C8.93437 15.6517 9.40934 15.6517 9.70215 15.3594L12.458 12.6035C12.6453 12.416 12.7509 12.1615 12.751 11.8965L12.75 7C12.75 6.58584 12.4141 6.25006 12 6.25Z" fill="black"/>
</svg>
