<svg width="24" height="24" viewBox="0 0 24 24" fill="none" xmlns="http://www.w3.org/2000/svg">
<path d="M6 2.25C6.9665 2.25 7.75 3.0335 7.75 4V20C7.75 20.9665 6.9665 21.75 6 21.75H4C3.0335 21.75 2.25 20.9665 2.25 20V4C2.25 3.0335 3.0335 2.25 4 2.25H6Z" fill="black"/>
<path d="M13 2.25C13.9665 2.25 14.75 3.0335 14.75 4V8C14.75 8.41421 14.4142 8.75 14 8.75C13.5858 8.75 13.25 8.41421 13.25 8V4C13.25 3.86193 13.1381 3.75 13 3.75H11C10.8619 3.75 10.75 3.86193 10.75 4V20C10.75 20.1381 10.8619 20.25 11 20.25H13C13.1381 20.25 13.25 20.1381 13.25 20V16C13.25 15.5858 13.5858 15.25 14 15.25C14.4142 15.25 14.75 15.5858 14.75 16V20C14.75 20.9665 13.9665 21.75 13 21.75H11C10.0335 21.75 9.25 20.9665 9.25 20V4C9.25 3.0335 10.0335 2.25 11 2.25H13Z" fill="black"/>
<path d="M18 8.25C18.4142 8.25 18.75 8.58579 18.75 9V11.25H21C21.4142 11.25 21.75 11.5858 21.75 12C21.75 12.4142 21.4142 12.75 21 12.75H18.75V15C18.75 15.4142 18.4142 15.75 18 15.75C17.5858 15.75 17.25 15.4142 17.25 15V12.75H15C14.5858 12.75 14.25 12.4142 14.25 12C14.25 11.5858 14.5858 11.25 15 11.25H17.25V9C17.25 8.58579 17.5858 8.25 18 8.25Z" fill="black"/>
</svg>
