<svg width="24" height="24" viewBox="0 0 24 24" fill="none" xmlns="http://www.w3.org/2000/svg">
<path d="M6 2.25C6.9665 2.25 7.75 3.0335 7.75 4V20C7.75 20.9665 6.9665 21.75 6 21.75H4C3.0335 21.75 2.25 20.9665 2.25 20V4C2.25 3.0335 3.0335 2.25 4 2.25H6Z" fill="black"/>
<path d="M13 2.25C13.9665 2.25 14.75 3.0335 14.75 4V7C14.75 7.41421 14.4142 7.75 14 7.75C13.5858 7.75 13.25 7.41421 13.25 7V4C13.25 3.86193 13.1381 3.75 13 3.75H11C10.8619 3.75 10.75 3.86193 10.75 4V20C10.75 20.1381 10.8619 20.25 11 20.25H13C13.1381 20.25 13.25 20.1381 13.25 20V17C13.25 16.5858 13.5858 16.25 14 16.25C14.4142 16.25 14.75 16.5858 14.75 17V20C14.75 20.9665 13.9665 21.75 13 21.75H11C10.0335 21.75 9.25 20.9665 9.25 20V4C9.25 3.0335 10.0335 2.25 11 2.25H13Z" fill="black"/>
<path d="M20.0908 9.34863C20.3837 9.05574 20.8595 9.05574 21.1523 9.34863C21.4448 9.64151 21.445 10.1164 21.1523 10.4092L19.5605 12L21.1523 13.5908C21.445 13.8836 21.4448 14.3585 21.1523 14.6514C20.8595 14.9443 20.3837 14.9443 20.0908 14.6514L18.5 13.0605L16.9092 14.6514C16.6163 14.9443 16.1415 14.9443 15.8486 14.6514C15.5558 14.3585 15.5558 13.8837 15.8486 13.5908L17.4395 12L15.8486 10.4092C15.5558 10.1163 15.5558 9.64153 15.8486 9.34863C16.1415 9.05574 16.6163 9.05574 16.9092 9.34863L18.5 10.9385L20.0908 9.34863Z" fill="black"/>
</svg>
