<svg width="24" height="24" viewBox="0 0 24 24" fill="none" xmlns="http://www.w3.org/2000/svg">
<path fill-rule="evenodd" clip-rule="evenodd" d="M19 2.25C20.5188 2.25 21.75 3.48122 21.75 5V19C21.75 20.5188 20.5188 21.75 19 21.75H5C3.48122 21.75 2.25 20.5188 2.25 19V5C2.25 3.48122 3.48122 2.25 5 2.25H19ZM6.25 10.25C5.2835 10.25 4.5 11.0335 4.5 12C4.5 12.9665 5.2835 13.75 6.25 13.75C7.2165 13.75 8 12.9665 8 12C8 11.0335 7.2165 10.25 6.25 10.25ZM12 10.25C11.0335 10.25 10.25 11.0335 10.25 12C10.25 12.9665 11.0335 13.75 12 13.75C12.9665 13.75 13.75 12.9665 13.75 12C13.75 11.0335 12.9665 10.25 12 10.25ZM17.75 10.25C16.7835 10.25 16 11.0335 16 12C16 12.9665 16.7835 13.75 17.75 13.75C18.7165 13.75 19.5 12.9665 19.5 12C19.5 11.0335 18.7165 10.25 17.75 10.25Z" fill="black"/>
</svg>
