<svg width="24" height="24" viewBox="0 0 24 24" fill="none" xmlns="http://www.w3.org/2000/svg">
<path fill-rule="evenodd" clip-rule="evenodd" d="M2.25 5C2.25 3.48122 3.48122 2.25 5 2.25H19C20.5188 2.25 21.75 3.48122 21.75 5V19C21.75 20.5188 20.5188 21.75 19 21.75H5C3.48122 21.75 2.25 20.5188 2.25 19V5ZM10.25 17.75C10.25 18.7165 11.0335 19.5 12 19.5C12.9665 19.5 13.75 18.7165 13.75 17.75C13.75 16.7835 12.9665 16 12 16C11.0335 16 10.25 16.7835 10.25 17.75ZM10.25 12C10.25 12.9665 11.0335 13.75 12 13.75C12.9665 13.75 13.75 12.9665 13.75 12C13.75 11.0335 12.9665 10.25 12 10.25C11.0335 10.25 10.25 11.0335 10.25 12ZM10.25 6.25C10.25 7.2165 11.0335 8 12 8C12.9665 8 13.75 7.2165 13.75 6.25C13.75 5.2835 12.9665 4.5 12 4.5C11.0335 4.5 10.25 5.2835 10.25 6.25Z" fill="black"/>
</svg>
