<svg width="24" height="24" viewBox="0 0 24 24" fill="none" xmlns="http://www.w3.org/2000/svg">
<path d="M19 3.75C20.5188 3.75 21.75 4.98122 21.75 6.5V17.5C21.75 19.0188 20.5188 20.25 19 20.25H5C3.48122 20.25 2.25 19.0188 2.25 17.5V6.5C2.25 4.98122 3.48122 3.75 5 3.75H19ZM19.6553 8.74707C19.4541 8.38511 18.9978 8.25493 18.6357 8.45605L12 12.1426L5.36426 8.45605C5.00223 8.25493 4.54593 8.38511 4.34473 8.74707C4.14373 9.10908 4.27384 9.56542 4.63574 9.7666L11.3926 13.5205C11.7701 13.7302 12.2299 13.7302 12.6074 13.5205L19.3643 9.7666C19.7262 9.56542 19.8563 9.10908 19.6553 8.74707Z" fill="black"/>
</svg>
