<svg width="24" height="24" viewBox="0 0 24 24" fill="none" xmlns="http://www.w3.org/2000/svg">
<path d="M11.1309 2.4991C11.695 2.31117 12.305 2.31117 12.8691 2.4991L19.8691 4.83309C20.992 5.2074 21.75 6.25786 21.75 7.44148V17.5001C21.7499 19.0188 20.5187 20.2501 19 20.2501H5C3.48125 20.2501 2.25006 19.0188 2.25 17.5001V7.44148C2.25005 6.25786 3.00797 5.2074 4.13086 4.83309L11.1309 2.4991ZM19.6553 8.74715C19.4541 8.38519 18.9978 8.255 18.6357 8.45613L12 12.1427L5.36426 8.45613C5.00223 8.255 4.54593 8.38519 4.34473 8.74715C4.1438 9.10914 4.27386 9.56552 4.63574 9.76668L11.3926 13.5206C11.77 13.7302 12.23 13.7302 12.6074 13.5206L19.3643 9.76668C19.7261 9.56552 19.8562 9.10914 19.6553 8.74715Z" fill="black"/>
</svg>
