<svg width="24" height="24" viewBox="0 0 24 24" fill="none" xmlns="http://www.w3.org/2000/svg">
<path fill-rule="evenodd" clip-rule="evenodd" d="M13.6719 2.25C14.4011 2.25008 15.1006 2.54001 15.6162 3.05566L19.4443 6.88379C19.96 7.39944 20.2499 8.09889 20.25 8.82812V19C20.25 20.5188 19.0188 21.75 17.5 21.75H6.5C4.98122 21.75 3.75 20.5188 3.75 19V5C3.75 3.48122 4.98122 2.25 6.5 2.25H13.6719ZM12.8838 10.3232C12.3956 9.83514 11.6044 9.83514 11.1162 10.3232L8.46973 12.9697C8.17683 13.2626 8.17683 13.7374 8.46973 14.0303C8.76262 14.3232 9.23738 14.3232 9.53027 14.0303L11.25 12.3105V17C11.25 17.4142 11.5858 17.75 12 17.75C12.4142 17.75 12.75 17.4142 12.75 17V12.3105L14.4697 14.0303C14.7626 14.3232 15.2374 14.3232 15.5303 14.0303C15.8232 13.7374 15.8232 13.2626 15.5303 12.9697L12.8838 10.3232ZM14.5 8H18.0859L14.5 4.41406V8Z" fill="black"/>
</svg>
