<svg width="24" height="24" viewBox="0 0 24 24" fill="none" xmlns="http://www.w3.org/2000/svg">
<path fill-rule="evenodd" clip-rule="evenodd" d="M13.6719 2.25C14.4011 2.25008 15.1006 2.54001 15.6162 3.05566L19.4443 6.88379C19.96 7.39944 20.2499 8.09889 20.25 8.82812V19C20.25 20.5188 19.0188 21.75 17.5 21.75H6.5C4.98122 21.75 3.75 20.5188 3.75 19V5C3.75 3.48122 4.98122 2.25 6.5 2.25H13.6719ZM12 9.75C11.5858 9.75 11.25 10.0858 11.25 10.5V15.1895L9.53027 13.4697C9.23738 13.1768 8.76262 13.1768 8.46973 13.4697C8.17683 13.7626 8.17683 14.2374 8.46973 14.5303L11.1162 17.1768C11.6044 17.6649 12.3956 17.6649 12.8838 17.1768L15.5303 14.5303C15.8232 14.2374 15.8232 13.7626 15.5303 13.4697C15.2374 13.1768 14.7626 13.1768 14.4697 13.4697L12.75 15.1895V10.5C12.75 10.0858 12.4142 9.75 12 9.75ZM14.5 8H18.0859L14.5 4.41406V8Z" fill="black"/>
</svg>
