<svg width="24" height="24" viewBox="0 0 24 24" fill="none" xmlns="http://www.w3.org/2000/svg">
<path fill-rule="evenodd" clip-rule="evenodd" d="M19 2.25C20.5187 2.25004 21.75 3.48124 21.75 5V19C21.75 20.5187 20.5187 21.75 19 21.75H5C3.48124 21.75 2.25004 20.5187 2.25 19V5C2.25 3.48122 3.48122 2.25 5 2.25H19ZM10 16.25C9.58579 16.25 9.25 16.5858 9.25 17C9.25004 17.4142 9.58581 17.75 10 17.75H14C14.4142 17.75 14.75 17.4142 14.75 17C14.75 16.5858 14.4142 16.25 14 16.25H10ZM8 11.25C7.58579 11.25 7.25 11.5858 7.25 12C7.25004 12.4142 7.58581 12.75 8 12.75H16C16.4142 12.75 16.75 12.4142 16.75 12C16.75 11.5858 16.4142 11.25 16 11.25H8ZM6 6.25C5.58579 6.25 5.25 6.58579 5.25 7C5.25004 7.41418 5.58581 7.75 6 7.75H18C18.4142 7.75 18.75 7.41418 18.75 7C18.75 6.58579 18.4142 6.25 18 6.25H6Z" fill="black"/>
</svg>
