<svg width="24" height="24" viewBox="0 0 24 24" fill="none" xmlns="http://www.w3.org/2000/svg">
<path fill-rule="evenodd" clip-rule="evenodd" d="M8.5 3.25C9.36552 3.25 10.1808 3.65724 10.7002 4.34961L11 4.75C11.2361 5.06476 11.6066 5.25 12 5.25H19C20.5188 5.25 21.75 6.48122 21.75 8V18C21.75 19.5188 20.5188 20.75 19 20.75H5C3.48122 20.75 2.25 19.5188 2.25 18V6C2.25 4.48122 3.48122 3.25 5 3.25H8.5ZM15.5303 10.4697C15.2374 10.1768 14.7626 10.1768 14.4697 10.4697L11 13.9395L9.53027 12.4697C9.23738 12.1768 8.76262 12.1768 8.46973 12.4697C8.17683 12.7626 8.17683 13.2374 8.46973 13.5303L10.293 15.3535C10.6835 15.744 11.3165 15.744 11.707 15.3535L15.5303 11.5303C15.8232 11.2374 15.8232 10.7626 15.5303 10.4697Z" fill="black"/>
</svg>
