<svg width="24" height="24" viewBox="0 0 24 24" fill="none" xmlns="http://www.w3.org/2000/svg">
<path fill-rule="evenodd" clip-rule="evenodd" d="M8.5 3.25C9.36552 3.25 10.1808 3.65724 10.7002 4.34961L11 4.75C11.2361 5.06476 11.6066 5.25 12 5.25H19C20.5188 5.25 21.75 6.48122 21.75 8V18C21.75 19.5188 20.5188 20.75 19 20.75H5C3.48122 20.75 2.25 19.5188 2.25 18V6C2.25 4.48122 3.48122 3.25 5 3.25H8.5ZM12 9.25C11.5858 9.25 11.25 9.58579 11.25 10V12.25H9C8.58579 12.25 8.25 12.5858 8.25 13C8.25 13.4142 8.58579 13.75 9 13.75H11.25V16C11.25 16.4142 11.5858 16.75 12 16.75C12.4142 16.75 12.75 16.4142 12.75 16V13.75H15C15.4142 13.75 15.75 13.4142 15.75 13C15.75 12.5858 15.4142 12.25 15 12.25H12.75V10C12.75 9.58579 12.4142 9.25 12 9.25Z" fill="black"/>
</svg>
