<svg width="24" height="24" viewBox="0 0 24 24" fill="none" xmlns="http://www.w3.org/2000/svg">
<path fill-rule="evenodd" clip-rule="evenodd" d="M8.5 3.25C9.36552 3.25 10.1808 3.65724 10.7002 4.34961L11 4.75C11.2361 5.06476 11.6066 5.25 12 5.25H19C20.5188 5.25 21.75 6.48122 21.75 8V18C21.75 19.5188 20.5188 20.75 19 20.75H5C3.48122 20.75 2.25 19.5188 2.25 18V6C2.25 4.48122 3.48122 3.25 5 3.25H8.5ZM10.5303 9.46973C10.2374 9.17683 9.76262 9.17683 9.46973 9.46973L6.82324 12.1162C6.33514 12.6044 6.33514 13.3956 6.82324 13.8838L9.46973 16.5303C9.76262 16.8232 10.2374 16.8232 10.5303 16.5303C10.8232 16.2374 10.8232 15.7626 10.5303 15.4697L8.06055 13L10.5303 10.5303C10.8232 10.2374 10.8232 9.76262 10.5303 9.46973ZM14.5303 9.46973C14.2374 9.17683 13.7626 9.17683 13.4697 9.46973C13.1768 9.76262 13.1768 10.2374 13.4697 10.5303L15.9395 13L13.4697 15.4697C13.1768 15.7626 13.1768 16.2374 13.4697 16.5303C13.7626 16.8232 14.2374 16.8232 14.5303 16.5303L17.1768 13.8838C17.6649 13.3956 17.6649 12.6044 17.1768 12.1162L14.5303 9.46973Z" fill="black"/>
</svg>
