<svg width="24" height="24" viewBox="0 0 24 24" fill="none" xmlns="http://www.w3.org/2000/svg">
<path fill-rule="evenodd" clip-rule="evenodd" d="M8.5 3.25C9.36552 3.25 10.1808 3.65724 10.7002 4.34961L11 4.75C11.2361 5.06476 11.6066 5.25 12 5.25H19C20.5188 5.25 21.75 6.48122 21.75 8V18C21.75 19.5188 20.5188 20.75 19 20.75H5C3.48122 20.75 2.25 19.5188 2.25 18V6C2.25 4.48122 3.48122 3.25 5 3.25H8.5ZM7 9.25C6.58579 9.25 6.25 9.58579 6.25 10C6.25 10.4142 6.58579 10.75 7 10.75H17C17.4142 10.75 17.75 10.4142 17.75 10C17.75 9.58579 17.4142 9.25 17 9.25H7Z" fill="black"/>
</svg>
