<svg width="24" height="24" viewBox="0 0 24 24" fill="none" xmlns="http://www.w3.org/2000/svg">
<path d="M8.5 3.25C9.36552 3.25 10.1808 3.65724 10.7002 4.34961L11 4.75L11.0947 4.8623C11.3291 5.10844 11.6559 5.25 12 5.25H18C19.5188 5.25 20.75 6.48122 20.75 8V9.25H10.1631C8.83762 9.25016 7.70041 10.1957 7.45898 11.499L6.65137 15.8633C6.57595 16.2705 6.84476 16.6618 7.25195 16.7373C7.65918 16.8127 8.05047 16.5439 8.12598 16.1367L8.93457 11.7725C9.04427 11.1801 9.56066 10.7502 10.1631 10.75H21.6035C21.971 10.75 22.295 10.9081 22.5215 11.1543C22.5158 11.2167 22.5087 11.2797 22.4961 11.3428L21.0566 18.5391C20.7996 19.8245 19.6712 20.75 18.3604 20.75H5C3.48122 20.75 2.25 19.5188 2.25 18V6C2.25 4.48122 3.48122 3.25 5 3.25H8.5Z" fill="black"/>
</svg>
