<svg width="24" height="24" viewBox="0 0 24 24" fill="none" xmlns="http://www.w3.org/2000/svg">
<path fill-rule="evenodd" clip-rule="evenodd" d="M8.5 3.25C9.36552 3.25 10.1808 3.65724 10.7002 4.34961L11 4.75C11.2361 5.06476 11.6066 5.25 12 5.25H19C20.5188 5.25 21.75 6.48122 21.75 8V18C21.75 19.5188 20.5188 20.75 19 20.75H5C3.48122 20.75 2.25 19.5188 2.25 18V6C2.25 4.48122 3.48122 3.25 5 3.25H8.5ZM14.6523 10.3486C14.3595 10.0557 13.8837 10.0557 13.5908 10.3486L12 11.9385L10.4092 10.3486C10.1163 10.0557 9.64153 10.0557 9.34863 10.3486C9.05586 10.6415 9.05578 11.1163 9.34863 11.4092L10.9395 13L9.34863 14.5908C9.05578 14.8837 9.05586 15.3585 9.34863 15.6514C9.64153 15.9443 10.1163 15.9443 10.4092 15.6514L12 14.0605L13.5908 15.6514C13.8837 15.9443 14.3595 15.9443 14.6523 15.6514C14.9448 15.3585 14.945 14.8836 14.6523 14.5908L13.0605 13L14.6523 11.4092C14.945 11.1164 14.9448 10.6415 14.6523 10.3486Z" fill="black"/>
</svg>
