<svg width="24" height="24" viewBox="0 0 24 24" fill="none" xmlns="http://www.w3.org/2000/svg">
<path fill-rule="evenodd" clip-rule="evenodd" d="M13.3096 2.25C13.7027 2.2501 14.0538 2.47972 14.2158 2.82715L14.2734 2.98242L14.8584 5.09473L16.7695 4.01562L16.9199 3.94629C17.2287 3.83409 17.5744 3.8814 17.8418 4.07227L17.9688 4.17969L19.8203 6.03125C20.1377 6.34879 20.2051 6.83952 19.9844 7.23047L18.9043 9.13965L21.0176 9.72656C21.4503 9.84688 21.75 10.2413 21.75 10.6904V13.3096C21.75 13.7587 21.4503 14.1532 21.0176 14.2734L18.9043 14.8584L19.9844 16.7695C20.2051 17.1605 20.1377 17.6512 19.8203 17.9688L17.9688 19.8203C17.6512 20.1378 17.1605 20.2051 16.7695 19.9844L14.8584 18.9043L14.2734 21.0176C14.1533 21.4503 13.7587 21.7499 13.3096 21.75H10.6904C10.2413 21.75 9.84683 21.4503 9.72656 21.0176L9.13965 18.9053L7.23145 19.9844C6.84055 20.2052 6.34982 20.1386 6.03223 19.8213L4.17969 17.9688C3.86201 17.6512 3.79477 17.1606 4.01562 16.7695L5.09473 14.8584L2.98242 14.2734C2.54958 14.1532 2.25 13.7588 2.25 13.3096V10.6904C2.25 10.2413 2.54976 9.8469 2.98242 9.72656L5.09473 9.13867L4.0166 7.23047C3.79576 6.83945 3.86311 6.34881 4.18066 6.03125L6.03223 4.17969L6.15918 4.07227C6.47111 3.84973 6.8893 3.82238 7.23145 4.01562L9.13965 5.09375L9.72656 2.98242L9.78418 2.82617C9.94641 2.47918 10.2976 2.25 10.6904 2.25H13.3096ZM12 9.25C10.4812 9.25 9.25 10.4812 9.25 12C9.25 13.5188 10.4812 14.75 12 14.75C13.5188 14.75 14.75 13.5188 14.75 12C14.75 10.4812 13.5188 9.25 12 9.25Z" fill="black"/>
</svg>
