<svg width="24" height="24" viewBox="0 0 24 24" fill="none" xmlns="http://www.w3.org/2000/svg">
<path d="M10.3134 15.9261C11.3634 16.5033 12.6365 16.5034 13.6865 15.9261L14.4999 15.4779V20.4544L12.8583 21.3783C12.3258 21.6777 11.6741 21.6776 11.1415 21.3783L4.14153 17.4408C3.59094 17.1309 3.25024 16.5471 3.24993 15.9154V12.0414L10.3134 15.9261Z" fill="black"/>
<path d="M11.3427 8.13901C11.5423 7.77611 11.9983 7.64358 12.3613 7.84311L16.8437 10.308C17.4026 10.6155 17.7498 11.2032 17.7499 11.8412V20.5003C17.7498 20.9144 17.414 21.2503 16.9999 21.2503C16.5858 21.2503 16.2501 20.9144 16.2499 20.5003V11.8412C16.2498 11.7502 16.1997 11.6663 16.12 11.6224L11.6386 9.15757C11.2758 8.95802 11.1434 8.50189 11.3427 8.13901Z" fill="black"/>
<path d="M20.7499 15.9154C20.7496 16.547 20.4087 17.1309 19.8583 17.4408L19.4999 17.6419V12.7279L20.7499 12.0414V15.9154Z" fill="black"/>
<path d="M11.1562 2.60776C11.6813 2.31912 12.3186 2.319 12.8437 2.60776L20.7685 6.96714C21.9765 7.63218 21.9765 9.36855 20.7685 10.0335L19.3437 10.8167C19.0807 9.95903 18.4956 9.2199 17.6865 8.77475L13.205 6.30991C11.9953 5.64457 10.475 6.08568 9.8095 7.29526C9.14425 8.50495 9.58529 10.0253 10.7948 10.6908L14.4999 12.7279V13.4818L12.8437 14.3929C12.3187 14.6816 11.6812 14.6815 11.1562 14.3929L3.23137 10.0335C2.02291 9.36865 2.02303 7.63214 3.23137 6.96714L11.1562 2.60776Z" fill="black"/>
</svg>
