<svg width="24" height="24" viewBox="0 0 24 24" fill="none" xmlns="http://www.w3.org/2000/svg">
<path d="M10.3134 15.926C11.3634 16.5032 12.6365 16.5033 13.6865 15.926L14.4999 15.4778V20.4543L12.8583 21.3781C12.3258 21.6776 11.6741 21.6775 11.1415 21.3781L4.14153 17.4406C3.59094 17.1308 3.25024 16.547 3.24993 15.9153V12.0412L10.3134 15.926Z" fill="black"/>
<path d="M11.3427 8.13889C11.5423 7.77599 11.9983 7.64346 12.3613 7.84299L16.8437 10.3078C17.4026 10.6154 17.7498 11.2031 17.7499 11.841V20.5002C17.7498 20.9143 17.414 21.2502 16.9999 21.2502C16.5858 21.2502 16.2501 20.9143 16.2499 20.5002V11.841C16.2498 11.7501 16.1997 11.6662 16.12 11.6223L11.6386 9.15744C11.2758 8.9579 11.1434 8.50177 11.3427 8.13889Z" fill="black"/>
<path d="M20.7499 15.9153C20.7496 16.5469 20.4087 17.1307 19.8583 17.4406L19.4999 17.6418V12.7278L20.7499 12.0412V15.9153Z" fill="black"/>
<path d="M11.1562 2.60764C11.6813 2.319 12.3186 2.31887 12.8437 2.60764L20.7685 6.96701C21.9765 7.63205 21.9765 9.36843 20.7685 10.0334L19.3437 10.8166C19.0807 9.95891 18.4956 9.21978 17.6865 8.77463L13.205 6.30979C11.9953 5.64445 10.475 6.08556 9.8095 7.29514C9.14425 8.50483 9.58529 10.0252 10.7948 10.6906L14.4999 12.7278V13.4817L12.8437 14.3928C12.3187 14.6814 11.6812 14.6814 11.1562 14.3928L3.23137 10.0334C2.02291 9.36852 2.02303 7.63201 3.23137 6.96701L11.1562 2.60764Z" fill="black"/>
</svg>
