<svg width="24" height="24" viewBox="0 0 24 24" fill="none" xmlns="http://www.w3.org/2000/svg">
<path d="M8 13.25C9.51878 13.25 10.75 14.4812 10.75 16V19C10.75 20.5188 9.51878 21.75 8 21.75H5C3.48122 21.75 2.25 20.5188 2.25 19V16C2.25 14.4812 3.48122 13.25 5 13.25H8Z" fill="black"/>
<path d="M17.5 13.75C17.9142 13.75 18.25 14.0858 18.25 14.5V16.75H20.5C20.9142 16.75 21.25 17.0858 21.25 17.5C21.25 17.9142 20.9142 18.25 20.5 18.25H18.25V20.5C18.25 20.9142 17.9142 21.25 17.5 21.25C17.0858 21.25 16.75 20.9142 16.75 20.5V18.25H14.5C14.0858 18.25 13.75 17.9142 13.75 17.5C13.75 17.0858 14.0858 16.75 14.5 16.75H16.75V14.5C16.75 14.0858 17.0858 13.75 17.5 13.75Z" fill="black"/>
<path d="M8 2.25C9.51878 2.25 10.75 3.48122 10.75 5V8C10.75 9.51878 9.51878 10.75 8 10.75H5C3.48122 10.75 2.25 9.51878 2.25 8V5C2.25 3.48122 3.48122 2.25 5 2.25H8Z" fill="black"/>
<path d="M19 2.25C20.5188 2.25 21.75 3.48122 21.75 5V8C21.75 9.51878 20.5188 10.75 19 10.75H16C14.4812 10.75 13.25 9.51878 13.25 8V5C13.25 3.48122 14.4812 2.25 16 2.25H19Z" fill="black"/>
</svg>
