<svg width="24" height="24" viewBox="0 0 24 24" fill="none" xmlns="http://www.w3.org/2000/svg">
<path d="M8 13.25C9.51878 13.25 10.75 14.4812 10.75 16V19C10.75 20.5188 9.51878 21.75 8 21.75H5C3.48122 21.75 2.25 20.5188 2.25 19V16C2.25 14.4812 3.48122 13.25 5 13.25H8Z" fill="black"/>
<path d="M19.0908 14.8486C19.3837 14.5557 19.8595 14.5557 20.1523 14.8486C20.4448 15.1415 20.445 15.6164 20.1523 15.9092L18.5605 17.5L20.1523 19.0908C20.445 19.3836 20.4448 19.8585 20.1523 20.1514C19.8595 20.4443 19.3837 20.4443 19.0908 20.1514L17.5 18.5605L15.9092 20.1514C15.6163 20.4443 15.1415 20.4443 14.8486 20.1514C14.5558 19.8585 14.5558 19.3837 14.8486 19.0908L16.4395 17.5L14.8486 15.9092C14.5558 15.6163 14.5558 15.1415 14.8486 14.8486C15.1415 14.5557 15.6163 14.5557 15.9092 14.8486L17.5 16.4385L19.0908 14.8486Z" fill="black"/>
<path d="M8 2.25C9.51878 2.25 10.75 3.48122 10.75 5V8C10.75 9.51878 9.51878 10.75 8 10.75H5C3.48122 10.75 2.25 9.51878 2.25 8V5C2.25 3.48122 3.48122 2.25 5 2.25H8Z" fill="black"/>
<path d="M19 2.25C20.5188 2.25 21.75 3.48122 21.75 5V8C21.75 9.51878 20.5188 10.75 19 10.75H16C14.4812 10.75 13.25 9.51878 13.25 8V5C13.25 3.48122 14.4812 2.25 16 2.25H19Z" fill="black"/>
</svg>
