<svg width="24" height="24" viewBox="0 0 24 24" fill="none" xmlns="http://www.w3.org/2000/svg">
<path d="M10.6641 2.88391C11.4946 2.42249 12.5054 2.42249 13.3359 2.88391L20.3359 6.77258C21.2088 7.25763 21.75 8.17828 21.75 9.17688V19.0001C21.7499 20.5188 20.5187 21.7501 19 21.7501H15.75C15.1977 21.7501 14.75 21.3024 14.75 20.7501V15.5001C14.75 14.8098 14.1904 14.2501 13.5 14.2501H10.5C9.80964 14.2501 9.25 14.8098 9.25 15.5001V20.7501C9.25 21.3024 8.80228 21.7501 8.25 21.7501H5C3.4813 21.7501 2.25014 20.5188 2.25 19.0001V9.17688C2.25002 8.17828 2.7912 7.25763 3.66406 6.77258L10.6641 2.88391Z" fill="black"/>
</svg>
