<svg width="24" height="24" viewBox="0 0 24 24" fill="none" xmlns="http://www.w3.org/2000/svg">
<path fill-rule="evenodd" clip-rule="evenodd" d="M17.3955 3.25C18.6844 3.25 19.8004 4.14516 20.0801 5.40332L21.6846 12.623C21.7281 12.8189 21.75 13.0191 21.75 13.2197V18C21.75 19.5188 20.5188 20.75 19 20.75H5C3.48122 20.75 2.25 19.5188 2.25 18V13.2197C2.25 13.0191 2.27191 12.8189 2.31543 12.623L3.91992 5.40332C4.19958 4.14516 5.31562 3.25 6.60449 3.25H17.3955ZM4 18C4 18.5523 4.44772 19 5 19H19C19.5523 19 20 18.5523 20 18V13.75H16.8281C16.0989 13.7501 15.3994 14.04 14.8838 14.5557L14.0557 15.3838C13.8213 15.6181 13.5033 15.7499 13.1719 15.75H10.8281C10.4967 15.7499 10.1787 15.6181 9.94434 15.3838L9.11621 14.5557C8.60056 14.04 7.90111 13.7501 7.17188 13.75H4V18ZM12.8838 5.82324C12.3956 5.33514 11.6044 5.33514 11.1162 5.82324L8.96973 7.96973C8.67683 8.26262 8.67683 8.73738 8.96973 9.03027C9.26262 9.32317 9.73738 9.32317 10.0303 9.03027L11.25 7.81055V12C11.25 12.4142 11.5858 12.75 12 12.75C12.4142 12.75 12.75 12.4142 12.75 12V7.81055L13.9697 9.03027C14.2626 9.32317 14.7374 9.32317 15.0303 9.03027C15.3232 8.73738 15.3232 8.26262 15.0303 7.96973L12.8838 5.82324Z" fill="black"/>
</svg>
