<svg width="24" height="24" viewBox="0 0 24 24" fill="none" xmlns="http://www.w3.org/2000/svg">
<path fill-rule="evenodd" clip-rule="evenodd" d="M17.3955 3.25C18.6844 3.25 19.8004 4.14516 20.0801 5.40332L21.6846 12.623C21.7281 12.8189 21.75 13.0191 21.75 13.2197V18C21.75 19.5188 20.5188 20.75 19 20.75H5C3.48122 20.75 2.25 19.5188 2.25 18V13.2197C2.25 13.0191 2.27191 12.8189 2.31543 12.623L3.91992 5.40332C4.19958 4.14516 5.31562 3.25 6.60449 3.25H17.3955ZM4 18C4 18.5523 4.44772 19 5 19H19C19.5523 19 20 18.5523 20 18V13.75H16.8281C16.0989 13.7501 15.3994 14.04 14.8838 14.5557L14.0557 15.3838C13.8213 15.6181 13.5033 15.7499 13.1719 15.75H10.8281C10.4967 15.7499 10.1787 15.6181 9.94434 15.3838L9.11621 14.5557C8.60056 14.04 7.90111 13.7501 7.17188 13.75H4V18ZM12 5.25C11.5858 5.25 11.25 5.58579 11.25 6V10.1895L10.0303 8.96973C9.73738 8.67683 9.26262 8.67683 8.96973 8.96973C8.67683 9.26262 8.67683 9.73738 8.96973 10.0303L11.1162 12.1768C11.6044 12.6649 12.3956 12.6649 12.8838 12.1768L15.0303 10.0303C15.3232 9.73738 15.3232 9.26262 15.0303 8.96973C14.7374 8.67683 14.2626 8.67683 13.9697 8.96973L12.75 10.1895V6C12.75 5.58579 12.4142 5.25 12 5.25Z" fill="black"/>
</svg>
