<svg width="24" height="24" viewBox="0 0 24 24" fill="none" xmlns="http://www.w3.org/2000/svg">
<path fill-rule="evenodd" clip-rule="evenodd" d="M17.3955 3.25C18.6844 3.25 19.8004 4.14516 20.0801 5.40332L21.6846 12.623C21.7281 12.8189 21.75 13.0191 21.75 13.2197V18C21.75 19.5188 20.5188 20.75 19 20.75H5C3.48122 20.75 2.25 19.5188 2.25 18V13.2197C2.25 13.0191 2.27191 12.8189 2.31543 12.623L3.91992 5.40332C4.19958 4.14516 5.31562 3.25 6.60449 3.25H17.3955ZM4 13.25V18C4 18.5523 4.44772 19 5 19H19C19.5523 19 20 18.5523 20 18V13.25H16.8281C16.0989 13.2501 15.3994 13.54 14.8838 14.0557L14.0557 14.8838C13.8213 15.1181 13.5033 15.2499 13.1719 15.25H10.8281C10.4967 15.2499 10.1787 15.1181 9.94434 14.8838L9.11621 14.0557C8.60056 13.54 7.90111 13.2501 7.17188 13.25H4Z" fill="black"/>
</svg>
