<svg width="24" height="24" viewBox="0 0 24 24" fill="none" xmlns="http://www.w3.org/2000/svg">
<path fill-rule="evenodd" clip-rule="evenodd" d="M19 2.25C20.5187 2.25004 21.75 3.48124 21.75 5V19C21.75 20.5187 20.5187 21.75 19 21.75H5C3.48124 21.75 2.25004 20.5187 2.25 19V5C2.25 3.48122 3.48122 2.25 5 2.25H19ZM7 16.25C6.58579 16.25 6.25 16.5858 6.25 17C6.25004 17.4142 6.58581 17.75 7 17.75H17C17.4142 17.75 17.75 17.4142 17.75 17C17.75 16.5858 17.4142 16.25 17 16.25H7ZM7 11.25C6.58579 11.25 6.25 11.5858 6.25 12C6.25004 12.4142 6.58581 12.75 7 12.75H17C17.4142 12.75 17.75 12.4142 17.75 12C17.75 11.5858 17.4142 11.25 17 11.25H7ZM7 6.25C6.58579 6.25 6.25 6.58579 6.25 7C6.25004 7.41418 6.58581 7.75 7 7.75H17C17.4142 7.75 17.75 7.41418 17.75 7C17.75 6.58579 17.4142 6.25 17 6.25H7Z" fill="black"/>
</svg>
