<svg width="24" height="24" viewBox="0 0 24 24" fill="none" xmlns="http://www.w3.org/2000/svg">
<path fill-rule="evenodd" clip-rule="evenodd" d="M5 2.25C3.48122 2.25 2.25 3.48122 2.25 5V19C2.25 20.5188 3.48122 21.75 5 21.75H19C20.5188 21.75 21.75 20.5188 21.75 19V5C21.75 3.48122 20.5188 2.25 19 2.25H5ZM15 15.25C15.4142 15.25 15.75 15.5858 15.75 16V17C15.75 17.4142 15.4142 17.75 15 17.75C14.5858 17.75 14.25 17.4142 14.25 17V16C14.25 15.5858 14.5858 15.25 15 15.25ZM15 10.75C15.4142 10.75 15.75 11.0858 15.75 11.5V12.5C15.75 12.9142 15.4142 13.25 15 13.25C14.5858 13.25 14.25 12.9142 14.25 12.5V11.5C14.25 11.0858 14.5858 10.75 15 10.75ZM15 6.25C15.4142 6.25 15.75 6.58579 15.75 7V8C15.75 8.41421 15.4142 8.75 15 8.75C14.5858 8.75 14.25 8.41421 14.25 8V7C14.25 6.58579 14.5858 6.25 15 6.25Z" fill="black"/>
</svg>
