<svg width="24" height="24" viewBox="0 0 24 24" fill="none" xmlns="http://www.w3.org/2000/svg">
<path fill-rule="evenodd" clip-rule="evenodd" d="M19 2.25C20.5188 2.25 21.75 3.48122 21.75 5V19C21.75 20.5188 20.5188 21.75 19 21.75H5C3.48122 21.75 2.25 20.5188 2.25 19V5C2.25 3.48122 3.48122 2.25 5 2.25H19ZM7 15.25C6.58579 15.25 6.25 15.5858 6.25 16V17C6.25 17.4142 6.58579 17.75 7 17.75C7.41421 17.75 7.75 17.4142 7.75 17V16C7.75 15.5858 7.41421 15.25 7 15.25ZM17 15.25C16.5858 15.25 16.25 15.5858 16.25 16V17C16.25 17.4142 16.5858 17.75 17 17.75C17.4142 17.75 17.75 17.4142 17.75 17V16C17.75 15.5858 17.4142 15.25 17 15.25ZM7 10.75C6.58579 10.75 6.25 11.0858 6.25 11.5V12.5C6.25 12.9142 6.58579 13.25 7 13.25C7.41421 13.25 7.75 12.9142 7.75 12.5V11.5C7.75 11.0858 7.41421 10.75 7 10.75ZM17 10.75C16.5858 10.75 16.25 11.0858 16.25 11.5V12.5C16.25 12.9142 16.5858 13.25 17 13.25C17.4142 13.25 17.75 12.9142 17.75 12.5V11.5C17.75 11.0858 17.4142 10.75 17 10.75ZM7 6.25C6.58579 6.25 6.25 6.58579 6.25 7V8C6.25 8.41421 6.58579 8.75 7 8.75C7.41421 8.75 7.75 8.41421 7.75 8V7C7.75 6.58579 7.41421 6.25 7 6.25ZM17 6.25C16.5858 6.25 16.25 6.58579 16.25 7V8C16.25 8.41421 16.5858 8.75 17 8.75C17.4142 8.75 17.75 8.41421 17.75 8V7C17.75 6.58579 17.4142 6.25 17 6.25Z" fill="black"/>
</svg>
