<svg width="24" height="24" viewBox="0 0 24 24" fill="none" xmlns="http://www.w3.org/2000/svg">
<path fill-rule="evenodd" clip-rule="evenodd" d="M21.75 19C21.75 20.5188 20.5188 21.75 19 21.75H5C3.48122 21.75 2.25 20.5188 2.25 19V5C2.25 3.48122 3.48122 2.25 5 2.25H19C20.5188 2.25 21.75 3.48122 21.75 5V19ZM8.75 9C8.75 8.58579 8.41421 8.25 8 8.25H7C6.58579 8.25 6.25 8.58579 6.25 9C6.25 9.41421 6.58579 9.75 7 9.75H8C8.41421 9.75 8.75 9.41421 8.75 9ZM13.25 9C13.25 8.58579 12.9142 8.25 12.5 8.25H11.5C11.0858 8.25 10.75 8.58579 10.75 9C10.75 9.41421 11.0858 9.75 11.5 9.75H12.5C12.9142 9.75 13.25 9.41421 13.25 9ZM17.75 9C17.75 8.58579 17.4142 8.25 17 8.25H16C15.5858 8.25 15.25 8.58579 15.25 9C15.25 9.41421 15.5858 9.75 16 9.75H17C17.4142 9.75 17.75 9.41421 17.75 9Z" fill="black"/>
</svg>
