<svg width="24" height="24" viewBox="0 0 24 24" fill="none" xmlns="http://www.w3.org/2000/svg">
<path fill-rule="evenodd" clip-rule="evenodd" d="M19 2.25C20.5188 2.25 21.75 3.48122 21.75 5V19C21.75 20.5188 20.5188 21.75 19 21.75H5C3.48122 21.75 2.25 20.5188 2.25 19V5C2.25 3.48122 3.48122 2.25 5 2.25H19ZM7 15.25C6.58579 15.25 6.25 15.5858 6.25 16V16.5C6.25 17.1904 6.80964 17.75 7.5 17.75H8C8.41421 17.75 8.75 17.4142 8.75 17C8.75 16.5858 8.41421 16.25 8 16.25H7.75V16C7.75 15.5858 7.41421 15.25 7 15.25ZM11.5 16.25C11.0858 16.25 10.75 16.5858 10.75 17C10.75 17.4142 11.0858 17.75 11.5 17.75H12.5C12.9142 17.75 13.25 17.4142 13.25 17C13.25 16.5858 12.9142 16.25 12.5 16.25H11.5ZM17 15.25C16.5858 15.25 16.25 15.5858 16.25 16V16.25H16C15.5858 16.25 15.25 16.5858 15.25 17C15.25 17.4142 15.5858 17.75 16 17.75H16.5C17.1904 17.75 17.75 17.1904 17.75 16.5V16C17.75 15.5858 17.4142 15.25 17 15.25ZM7 10.75C6.58579 10.75 6.25 11.0858 6.25 11.5V12.5C6.25 12.9142 6.58579 13.25 7 13.25C7.41421 13.25 7.75 12.9142 7.75 12.5V11.5C7.75 11.0858 7.41421 10.75 7 10.75ZM17 10.75C16.5858 10.75 16.25 11.0858 16.25 11.5V12.5C16.25 12.9142 16.5858 13.25 17 13.25C17.4142 13.25 17.75 12.9142 17.75 12.5V11.5C17.75 11.0858 17.4142 10.75 17 10.75ZM7.5 6.25C6.80964 6.25 6.25 6.80964 6.25 7.5V8C6.25 8.41421 6.58579 8.75 7 8.75C7.41421 8.75 7.75 8.41421 7.75 8V7.75H8C8.41421 7.75 8.75 7.41421 8.75 7C8.75 6.58579 8.41421 6.25 8 6.25H7.5ZM16 6.25C15.5858 6.25 15.25 6.58579 15.25 7C15.25 7.41421 15.5858 7.75 16 7.75H16.25V8C16.25 8.41421 16.5858 8.75 17 8.75C17.4142 8.75 17.75 8.41421 17.75 8V7.5C17.75 6.80964 17.1904 6.25 16.5 6.25H16ZM11.5 6.25C11.0858 6.25 10.75 6.58579 10.75 7C10.75 7.41421 11.0858 7.75 11.5 7.75H12.5C12.9142 7.75 13.25 7.41421 13.25 7C13.25 6.58579 12.9142 6.25 12.5 6.25H11.5Z" fill="black"/>
</svg>
