<svg width="24" height="24" viewBox="0 0 24 24" fill="none" xmlns="http://www.w3.org/2000/svg">
<path fill-rule="evenodd" clip-rule="evenodd" d="M21.75 5C21.75 3.48122 20.5188 2.25 19 2.25H5C3.48122 2.25 2.25 3.48122 2.25 5V19C2.25 20.5188 3.48122 21.75 5 21.75H19C20.5188 21.75 21.75 20.5188 21.75 19V5ZM8.75 15C8.75 15.4142 8.41421 15.75 8 15.75H7C6.58579 15.75 6.25 15.4142 6.25 15C6.25 14.5858 6.58579 14.25 7 14.25H8C8.41421 14.25 8.75 14.5858 8.75 15ZM13.25 15C13.25 15.4142 12.9142 15.75 12.5 15.75H11.5C11.0858 15.75 10.75 15.4142 10.75 15C10.75 14.5858 11.0858 14.25 11.5 14.25H12.5C12.9142 14.25 13.25 14.5858 13.25 15ZM17.75 15C17.75 15.4142 17.4142 15.75 17 15.75H16C15.5858 15.75 15.25 15.4142 15.25 15C15.25 14.5858 15.5858 14.25 16 14.25H17C17.4142 14.25 17.75 14.5858 17.75 15Z" fill="black"/>
</svg>
