<svg width="24" height="24" viewBox="0 0 24 24" fill="none" xmlns="http://www.w3.org/2000/svg">
<path fill-rule="evenodd" clip-rule="evenodd" d="M2.25 5C2.25 3.48122 3.48122 2.25 5 2.25H19C20.5188 2.25 21.75 3.48122 21.75 5V19C21.75 20.5188 20.5188 21.75 19 21.75H5C3.48122 21.75 2.25 20.5188 2.25 19V5ZM15.25 17C15.25 17.4142 15.5858 17.75 16 17.75H17C17.4142 17.75 17.75 17.4142 17.75 17C17.75 16.5858 17.4142 16.25 17 16.25H16C15.5858 16.25 15.25 16.5858 15.25 17ZM15.25 7C15.25 7.41421 15.5858 7.75 16 7.75H17C17.4142 7.75 17.75 7.41421 17.75 7C17.75 6.58579 17.4142 6.25 17 6.25H16C15.5858 6.25 15.25 6.58579 15.25 7ZM10.75 17C10.75 17.4142 11.0858 17.75 11.5 17.75H12.5C12.9142 17.75 13.25 17.4142 13.25 17C13.25 16.5858 12.9142 16.25 12.5 16.25H11.5C11.0858 16.25 10.75 16.5858 10.75 17ZM10.75 7C10.75 7.41421 11.0858 7.75 11.5 7.75H12.5C12.9142 7.75 13.25 7.41421 13.25 7C13.25 6.58579 12.9142 6.25 12.5 6.25H11.5C11.0858 6.25 10.75 6.58579 10.75 7ZM6.25 17C6.25 17.4142 6.58579 17.75 7 17.75H8C8.41421 17.75 8.75 17.4142 8.75 17C8.75 16.5858 8.41421 16.25 8 16.25H7C6.58579 16.25 6.25 16.5858 6.25 17ZM6.25 7C6.25 7.41421 6.58579 7.75 7 7.75H8C8.41421 7.75 8.75 7.41421 8.75 7C8.75 6.58579 8.41421 6.25 8 6.25H7C6.58579 6.25 6.25 6.58579 6.25 7Z" fill="black"/>
</svg>
