<svg width="24" height="24" viewBox="0 0 24 24" fill="none" xmlns="http://www.w3.org/2000/svg">
<path d="M19 2.25C20.5187 2.25004 21.75 3.48124 21.75 5V19C21.75 20.5187 20.5187 21.75 19 21.75H5C3.48124 21.75 2.25004 20.5187 2.25 19V5C2.25 3.48122 3.48122 2.25 5 2.25H19ZM12 5.25C11.5858 5.25 11.25 5.58579 11.25 6V11.25H6C5.58579 11.25 5.25 11.5858 5.25 12C5.25004 12.4142 5.58581 12.75 6 12.75H11.25V18C11.25 18.4142 11.5858 18.75 12 18.75C12.4142 18.75 12.75 18.4142 12.75 18V12.75H18C18.4142 12.75 18.75 12.4142 18.75 12C18.75 11.5858 18.4142 11.25 18 11.25H12.75V6C12.75 5.58581 12.4142 5.25003 12 5.25Z" fill="black"/>
</svg>
