<svg width="24" height="24" viewBox="0 0 24 24" fill="none" xmlns="http://www.w3.org/2000/svg">
<path d="M14.4697 16.4697C14.7626 16.1768 15.2374 16.1768 15.5303 16.4697C15.8232 16.7626 15.8232 17.2374 15.5303 17.5303L11.707 21.3535C11.3165 21.744 10.6835 21.744 10.293 21.3535L8.46973 19.5303C8.17683 19.2374 8.17683 18.7626 8.46973 18.4697C8.76262 18.1768 9.23738 18.1768 9.53027 18.4697L11 19.9395L14.4697 16.4697Z" fill="black"/>
<path d="M20 9.25C20.9665 9.25 21.75 10.0335 21.75 11V13C21.75 13.9665 20.9665 14.75 20 14.75H19C18.5858 14.75 18.25 14.4142 18.25 14C18.25 13.5858 18.5858 13.25 19 13.25H20C20.1381 13.25 20.25 13.1381 20.25 13V11C20.25 10.8619 20.1381 10.75 20 10.75H4C3.86193 10.75 3.75 10.8619 3.75 11V13C3.75 13.1381 3.86193 13.25 4 13.25H11C11.4142 13.25 11.75 13.5858 11.75 14C11.75 14.4142 11.4142 14.75 11 14.75H4C3.0335 14.75 2.25 13.9665 2.25 13V11C2.25 10.0335 3.0335 9.25 4 9.25H20Z" fill="black"/>
<path d="M20 2.25C20.9665 2.25 21.75 3.0335 21.75 4V6C21.75 6.9665 20.9665 7.75 20 7.75H4C3.0335 7.75 2.25 6.9665 2.25 6V4C2.25 3.0335 3.0335 2.25 4 2.25H20Z" fill="black"/>
</svg>
