<svg width="24" height="24" viewBox="0 0 24 24" fill="none" xmlns="http://www.w3.org/2000/svg">
<path d="M6.00098 16.25C6.41519 16.25 6.75098 16.5858 6.75098 17C6.75098 17.4142 6.41519 17.75 6.00098 17.75C5.58676 17.75 5.25 17.4142 5.25 17C5.25 16.5858 5.58676 16.25 6.00098 16.25Z" fill="black"/>
<path d="M9.00098 16.25C9.41519 16.25 9.75098 16.5858 9.75098 17C9.75098 17.4142 9.41519 17.75 9.00098 17.75C8.58676 17.75 8.25 17.4142 8.25 17C8.25 16.5858 8.58676 16.25 9.00098 16.25Z" fill="black"/>
<path d="M18 16.25C18.4142 16.25 18.75 16.5858 18.75 17C18.75 17.4142 18.4142 17.75 18 17.75H12C11.5858 17.75 11.25 17.4142 11.25 17C11.25 16.5858 11.5858 16.25 12 16.25H18Z" fill="black"/>
<path fill-rule="evenodd" clip-rule="evenodd" d="M17.3604 3.25C18.6712 3.25 19.7996 4.17552 20.0566 5.46094L21.6963 13.6592C21.7318 13.8366 21.75 14.0173 21.75 14.1982V18C21.75 19.5188 20.5188 20.75 19 20.75H5C3.48122 20.75 2.25 19.5188 2.25 18V14.1982C2.25 14.0173 2.26825 13.8366 2.30371 13.6592L3.94336 5.46094C4.20044 4.17552 5.32877 3.25 6.63965 3.25H17.3604ZM5 15C4.44772 15 4 15.4477 4 16V18C4 18.5523 4.44772 19 5 19H19C19.5523 19 20 18.5523 20 18V16C20 15.4477 19.5523 15 19 15H5Z" fill="black"/>
</svg>
