<svg width="24" height="24" viewBox="0 0 24 24" fill="none" xmlns="http://www.w3.org/2000/svg">
<path d="M17.5586 2.25C18.7422 2.25005 19.7927 3.00795 20.167 4.13086L21.6084 8.45508C21.7018 8.73538 21.75 9.02876 21.75 9.32422V19C21.75 20.5188 20.5188 21.75 19 21.75H5C3.48122 21.75 2.25 20.5188 2.25 19V9.32422C2.25004 9.02876 2.29817 8.73538 2.3916 8.45508L3.83301 4.13086C4.20731 3.00795 5.25777 2.25005 6.44141 2.25H17.5586ZM4 19C4 19.5523 4.44772 20 5 20H19C19.5523 20 20 19.5523 20 19V15.75H4V19ZM6.00098 17.25C6.41519 17.25 6.75098 17.5858 6.75098 18C6.75098 18.4142 6.41519 18.75 6.00098 18.75H6C5.58579 18.75 5.25 18.4142 5.25 18C5.25 17.5858 5.58579 17.25 6 17.25H6.00098ZM9.00098 17.25C9.41519 17.25 9.75098 17.5858 9.75098 18C9.75098 18.4142 9.41519 18.75 9.00098 18.75H9C8.58579 18.75 8.25 18.4142 8.25 18C8.25 17.5858 8.58579 17.25 9 17.25H9.00098ZM18 17.25C18.4142 17.25 18.75 17.5858 18.75 18C18.75 18.4142 18.4142 18.75 18 18.75H12C11.5858 18.75 11.25 18.4142 11.25 18C11.25 17.5858 11.5858 17.25 12 17.25H18ZM5 10C4.44772 10 4 10.4477 4 11V14.25H20V11C20 10.4477 19.5523 10 19 10H5ZM6.00098 11.25C6.41519 11.25 6.75098 11.5858 6.75098 12C6.75098 12.4142 6.41519 12.75 6.00098 12.75H6C5.58579 12.75 5.25 12.4142 5.25 12C5.25 11.5858 5.58579 11.25 6 11.25H6.00098ZM9.00098 11.25C9.41519 11.25 9.75098 11.5858 9.75098 12C9.75098 12.4142 9.41519 12.75 9.00098 12.75H9C8.58579 12.75 8.25 12.4142 8.25 12C8.25 11.5858 8.58579 11.25 9 11.25H9.00098ZM18 11.25C18.4142 11.25 18.75 11.5858 18.75 12C18.75 12.4142 18.4142 12.75 18 12.75H12C11.5858 12.75 11.25 12.4142 11.25 12C11.25 11.5858 11.5858 11.25 12 11.25H18Z" fill="black"/>
</svg>
