<svg width="24" height="24" viewBox="0 0 24 24" fill="none" xmlns="http://www.w3.org/2000/svg">
<path d="M9.25 16.0003C9.25021 17.5189 10.4813 18.7503 12 18.7503C13.5187 18.7503 14.7498 17.5189 14.75 16.0003V7.75033H18C19.5188 7.75033 20.75 8.98155 20.75 10.5003V19.0003C20.7498 20.5189 19.5187 21.7503 18 21.7503H6C4.48135 21.7503 3.25021 20.5189 3.25 19.0003V10.5003C3.25 8.98155 4.48122 7.75033 6 7.75033H9.25V16.0003Z" fill="black"/>
<path d="M11.2109 1.73764C11.7019 1.3372 12.4261 1.36596 12.8838 1.82357L15.5303 4.47006C15.823 4.76297 15.8231 5.23778 15.5303 5.53061C15.2374 5.82324 14.7626 5.82324 14.4697 5.53061L12.75 3.81088V16.0003C12.7498 16.4144 12.4141 16.7503 12 16.7503C11.5859 16.7503 11.2502 16.4144 11.25 16.0003V3.81088L9.53027 5.53061C9.23743 5.82324 8.76257 5.82324 8.46973 5.53061C8.1769 5.23778 8.17703 4.76297 8.46973 4.47006L11.1162 1.82357L11.2109 1.73764Z" fill="black"/>
</svg>
