<svg width="24" height="24" viewBox="0 0 24 24" fill="none" xmlns="http://www.w3.org/2000/svg">
<path d="M9.25 16.0005C9.25021 17.5191 10.4813 18.7505 12 18.7505C13.5187 18.7505 14.7498 17.5191 14.75 16.0005V7.75045H18C19.5188 7.75045 20.75 8.98167 20.75 10.5005V19.0005C20.7498 20.5191 19.5187 21.7505 18 21.7505H6C4.48135 21.7505 3.25021 20.5191 3.25 19.0005V10.5005C3.25 8.98167 4.48122 7.75045 6 7.75045H9.25V16.0005Z" fill="black"/>
<path d="M11.2109 1.73776C11.7019 1.33732 12.4261 1.36608 12.8838 1.8237L15.5303 4.47018C15.823 4.76309 15.8231 5.2379 15.5303 5.53073C15.2374 5.82336 14.7626 5.82336 14.4697 5.53073L12.75 3.811V16.0005C12.7498 16.4145 12.4141 16.7505 12 16.7505C11.5859 16.7505 11.2502 16.4145 11.25 16.0005V3.811L9.53027 5.53073C9.23743 5.82336 8.76257 5.82336 8.46973 5.53073C8.1769 5.2379 8.17703 4.76309 8.46973 4.47018L11.1162 1.8237L11.2109 1.73776Z" fill="black"/>
</svg>
