<svg width="24" height="24" viewBox="0 0 24 24" fill="none" xmlns="http://www.w3.org/2000/svg">
<path d="M16 15.75C16.9793 15.75 17.81 16.3766 18.1191 17.25H20C20.4142 17.25 20.75 17.5858 20.75 18C20.75 18.4142 20.4142 18.75 20 18.75H18.1191C17.81 19.6234 16.9793 20.25 16 20.25C15.0207 20.25 14.19 19.6234 13.8809 18.75H4C3.58579 18.75 3.25 18.4142 3.25 18C3.25 17.5858 3.58579 17.25 4 17.25H13.8809C14.19 16.3766 15.0207 15.75 16 15.75Z" fill="black"/>
<path d="M8 9.75C8.97933 9.75 9.81001 10.3766 10.1191 11.25H20C20.4142 11.25 20.75 11.5858 20.75 12C20.75 12.4142 20.4142 12.75 20 12.75H10.1191C9.81001 13.6234 8.97933 14.25 8 14.25C7.02067 14.25 6.18999 13.6234 5.88086 12.75H4C3.58579 12.75 3.25 12.4142 3.25 12C3.25 11.5858 3.58579 11.25 4 11.25H5.88086C6.18999 10.3766 7.02067 9.75 8 9.75Z" fill="black"/>
<path d="M14 3.75C14.9793 3.75 15.81 4.37657 16.1191 5.25H20C20.4142 5.25 20.75 5.58579 20.75 6C20.75 6.41421 20.4142 6.75 20 6.75H16.1191C15.81 7.62343 14.9793 8.25 14 8.25C13.0207 8.25 12.19 7.62343 11.8809 6.75H4C3.58579 6.75 3.25 6.41421 3.25 6C3.25 5.58579 3.58579 5.25 4 5.25H11.8809C12.19 4.37657 13.0207 3.75 14 3.75Z" fill="black"/>
</svg>
