<svg width="24" height="24" viewBox="0 0 24 24" fill="none" xmlns="http://www.w3.org/2000/svg">
<path d="M15.75 8C15.75 7.02067 16.3766 6.18999 17.25 5.88086V4C17.25 3.58579 17.5858 3.25 18 3.25C18.4142 3.25 18.75 3.58579 18.75 4V5.88086C19.6234 6.18999 20.25 7.02067 20.25 8C20.25 8.97933 19.6234 9.81001 18.75 10.1191V20C18.75 20.4142 18.4142 20.75 18 20.75C17.5858 20.75 17.25 20.4142 17.25 20V10.1191C16.3766 9.81001 15.75 8.97933 15.75 8Z" fill="black"/>
<path d="M9.75 16C9.75 15.0207 10.3766 14.19 11.25 13.8809V4C11.25 3.58579 11.5858 3.25 12 3.25C12.4142 3.25 12.75 3.58579 12.75 4V13.8809C13.6234 14.19 14.25 15.0207 14.25 16C14.25 16.9793 13.6234 17.81 12.75 18.1191V20C12.75 20.4142 12.4142 20.75 12 20.75C11.5858 20.75 11.25 20.4142 11.25 20V18.1191C10.3766 17.81 9.75 16.9793 9.75 16Z" fill="black"/>
<path d="M3.75 10C3.75 9.02067 4.37657 8.18999 5.25 7.88086V4C5.25 3.58579 5.58579 3.25 6 3.25C6.41421 3.25 6.75 3.58579 6.75 4V7.88086C7.62343 8.18999 8.25 9.02067 8.25 10C8.25 10.9793 7.62343 11.81 6.75 12.1191V20C6.75 20.4142 6.41421 20.75 6 20.75C5.58579 20.75 5.25 20.4142 5.25 20V12.1191C4.37657 11.81 3.75 10.9793 3.75 10Z" fill="black"/>
</svg>
