<svg width="24" height="24" viewBox="0 0 24 24" fill="none" xmlns="http://www.w3.org/2000/svg">
<path fill-rule="evenodd" clip-rule="evenodd" d="M19 2.25C20.5188 2.25 21.75 3.48122 21.75 5V19C21.75 20.5188 20.5188 21.75 19 21.75H5C3.48122 21.75 2.25 20.5188 2.25 19V5C2.25 3.48122 3.48122 2.25 5 2.25H19ZM5 16.25C4.58579 16.25 4.25 16.5858 4.25 17V18C4.25 18.9665 5.0335 19.75 6 19.75H7C7.41421 19.75 7.75 19.4142 7.75 19C7.75 18.5858 7.41421 18.25 7 18.25H6C5.86193 18.25 5.75 18.1381 5.75 18V17C5.75 16.5858 5.41421 16.25 5 16.25ZM11 18.25C10.5858 18.25 10.25 18.5858 10.25 19C10.25 19.4142 10.5858 19.75 11 19.75H13C13.4142 19.75 13.75 19.4142 13.75 19C13.75 18.5858 13.4142 18.25 13 18.25H11ZM19 16.25C18.5858 16.25 18.25 16.5858 18.25 17V18C18.25 18.1381 18.1381 18.25 18 18.25H17C16.5858 18.25 16.25 18.5858 16.25 19C16.25 19.4142 16.5858 19.75 17 19.75H18C18.9665 19.75 19.75 18.9665 19.75 18V17C19.75 16.5858 19.4142 16.25 19 16.25ZM5 10.25C4.58579 10.25 4.25 10.5858 4.25 11V13C4.25 13.4142 4.58579 13.75 5 13.75C5.41421 13.75 5.75 13.4142 5.75 13V11C5.75 10.5858 5.41421 10.25 5 10.25ZM19 10.25C18.5858 10.25 18.25 10.5858 18.25 11V13C18.25 13.4142 18.5858 13.75 19 13.75C19.4142 13.75 19.75 13.4142 19.75 13V11C19.75 10.5858 19.4142 10.25 19 10.25ZM6 4.25C5.0335 4.25 4.25 5.0335 4.25 6V7C4.25 7.41421 4.58579 7.75 5 7.75C5.41421 7.75 5.75 7.41421 5.75 7V6C5.75 5.86193 5.86193 5.75 6 5.75H7C7.41421 5.75 7.75 5.41421 7.75 5C7.75 4.58579 7.41421 4.25 7 4.25H6ZM17 4.25C16.5858 4.25 16.25 4.58579 16.25 5C16.25 5.41421 16.5858 5.75 17 5.75H18C18.1381 5.75 18.25 5.86193 18.25 6V7C18.25 7.41421 18.5858 7.75 19 7.75C19.4142 7.75 19.75 7.41421 19.75 7V6C19.75 5.0335 18.9665 4.25 18 4.25H17ZM11 4.25C10.5858 4.25 10.25 4.58579 10.25 5C10.25 5.41421 10.5858 5.75 11 5.75H13C13.4142 5.75 13.75 5.41421 13.75 5C13.75 4.58579 13.4142 4.25 13 4.25H11Z" fill="black"/>
</svg>
