<svg width="24" height="24" viewBox="0 0 24 24" fill="none" xmlns="http://www.w3.org/2000/svg">
<path d="M12 19.75C12.4142 19.75 12.75 20.0858 12.75 20.5V21C12.75 21.4142 12.4142 21.75 12 21.75C11.5858 21.75 11.249 21.4142 11.249 21V20.5L11.2529 20.4229C11.2916 20.0449 11.6118 19.75 12 19.75Z" fill="black"/>
<path d="M5.51562 17.4277C5.81015 17.1878 6.24407 17.2051 6.51855 17.4795L6.51953 17.4805C6.81227 17.7734 6.81237 18.2482 6.51953 18.541L6.16602 18.8945C5.87316 19.1872 5.39832 19.1872 5.10547 18.8945C4.81263 18.6017 4.81175 18.1259 5.10449 17.833L5.45801 17.4795L5.51562 17.4277Z" fill="black"/>
<path d="M17.4805 17.4805C17.7734 17.1876 18.2481 17.1876 18.541 17.4805L18.8945 17.834C19.1873 18.1269 19.1874 18.6017 18.8945 18.8945C18.6016 19.1874 18.1259 19.1874 17.833 18.8945L17.4795 18.541L17.4277 18.4844C17.1878 18.1898 17.206 17.7549 17.4805 17.4805Z" fill="black"/>
<path d="M12 7.25C14.6234 7.25 16.75 9.37665 16.75 12C16.75 14.6234 14.6234 16.75 12 16.75C9.37665 16.75 7.25 14.6234 7.25 12C7.25 9.37665 9.37665 7.25 12 7.25Z" fill="black"/>
<path d="M21 11.25C21.4142 11.25 21.75 11.5858 21.75 12C21.75 12.4142 21.4142 12.751 21 12.751H20.5L20.4229 12.7471C20.0449 12.7084 19.75 12.3891 19.75 12.001C19.75 11.5868 20.0858 11.25 20.5 11.25H21Z" fill="black"/>
<path d="M3.57715 11.2529C3.95512 11.2916 4.25 11.6109 4.25 11.999C4.25 12.4132 3.91421 12.75 3.5 12.75H3C2.58579 12.75 2.25 12.4142 2.25 12C2.25 11.5858 2.58579 11.249 3 11.249H3.5L3.57715 11.2529Z" fill="black"/>
<path d="M5.10645 5.10547C5.39934 4.81258 5.8741 4.81258 6.16699 5.10547L6.52051 5.45898L6.57227 5.51562C6.81222 5.8102 6.79498 6.24506 6.52051 6.51953C6.22761 6.81242 5.75188 6.81242 5.45898 6.51953L5.10547 6.16602C4.81273 5.87311 4.8136 5.39831 5.10645 5.10547Z" fill="black"/>
<path d="M17.834 5.10547C18.1268 4.81278 18.6017 4.81278 18.8945 5.10547C19.1874 5.39831 19.1882 5.87409 18.8955 6.16699L18.542 6.52051L18.4844 6.57227C18.1898 6.81218 17.7559 6.79485 17.4814 6.52051L17.4805 6.51953C17.1877 6.22663 17.1876 5.75183 17.4805 5.45898L17.834 5.10547Z" fill="black"/>
<path d="M12.001 2.25C12.4152 2.25 12.751 2.58579 12.751 3V3.5L12.7471 3.57715C12.7084 3.95512 12.3891 4.25 12.001 4.25C11.5868 4.25 11.25 3.91421 11.25 3.5V3C11.25 2.58579 11.5868 2.25 12.001 2.25Z" fill="black"/>
</svg>
