<svg width="24" height="24" viewBox="0 0 24 24" fill="none" xmlns="http://www.w3.org/2000/svg">
<path d="M21 17.25C21.4142 17.25 21.75 17.5858 21.75 18C21.75 18.4142 21.4142 18.75 21 18.75H3C2.58579 18.75 2.25 18.4142 2.25 18C2.25 17.5858 2.58579 17.25 3 17.25H21Z" fill="black"/>
<path d="M21 13.75C21.4142 13.75 21.75 14.0858 21.75 14.5C21.75 14.9142 21.4142 15.251 21 15.251H19.5L19.4229 15.2471C19.0449 15.2084 18.75 14.8891 18.75 14.501C18.75 14.0868 19.0858 13.75 19.5 13.75H21Z" fill="black"/>
<path d="M4.57715 13.7529C4.95512 13.7916 5.25 14.1109 5.25 14.499C5.25 14.9132 4.91421 15.25 4.5 15.25H3C2.58579 15.25 2.25 14.9142 2.25 14.5C2.25 14.0858 2.58579 13.749 3 13.749H4.5L4.57715 13.7529Z" fill="black"/>
<path d="M12 9.75C14.5239 9.75 16.5879 11.7184 16.7412 14.2041C16.778 14.8032 16.2898 15.25 15.75 15.25H8.25C7.7102 15.25 7.22203 14.8032 7.25879 14.2041L7.2793 13.9727C7.54197 11.5972 9.55486 9.75 12 9.75Z" fill="black"/>
<path d="M5.10645 7.60547C5.39934 7.31258 5.8741 7.31258 6.16699 7.60547L7.22754 8.66602L7.2793 8.72266C7.51925 9.01723 7.50201 9.45209 7.22754 9.72656C6.93465 10.0195 6.45891 10.0195 6.16602 9.72656L5.10547 8.66602C4.81273 8.37311 4.8136 7.89831 5.10645 7.60547Z" fill="black"/>
<path d="M17.834 7.60547C18.1268 7.31278 18.6017 7.31278 18.8945 7.60547C19.1874 7.89831 19.1882 8.37409 18.8955 8.66699L17.835 9.72754L17.7773 9.7793C17.4828 10.0192 17.0489 10.0019 16.7744 9.72754L16.7734 9.72656C16.4807 9.43366 16.4806 8.95886 16.7734 8.66602L17.834 7.60547Z" fill="black"/>
<path d="M12 4.75C12.4142 4.75 12.75 5.08579 12.75 5.5V7C12.75 7.41421 12.4142 7.75 12 7.75C11.5858 7.75 11.25 7.41421 11.25 7V5.5C11.25 5.08579 11.5858 4.75 12 4.75Z" fill="black"/>
</svg>
