<svg width="24" height="24" viewBox="0 0 24 24" fill="none" xmlns="http://www.w3.org/2000/svg">
<path d="M12 18.75C12.4142 18.75 12.75 19.0858 12.75 19.5V21C12.75 21.4142 12.4142 21.75 12 21.75C11.5858 21.75 11.249 21.4142 11.249 21V19.5L11.2529 19.4229C11.2916 19.0449 11.6118 18.75 12 18.75Z" fill="black"/>
<path d="M6.22266 16.7207C6.51718 16.4808 6.9511 16.4981 7.22559 16.7725L7.22656 16.7734C7.5193 17.0663 7.5194 17.5411 7.22656 17.834L6.16602 18.8945C5.87316 19.1872 5.39832 19.1872 5.10547 18.8945C4.81263 18.6017 4.81175 18.1259 5.10449 17.833L6.16504 16.7725L6.22266 16.7207Z" fill="black"/>
<path d="M16.7734 16.7734C17.0663 16.4805 17.5411 16.4805 17.834 16.7734L18.8945 17.834C19.1873 18.1269 19.1874 18.6017 18.8945 18.8945C18.6016 19.1874 18.1259 19.1874 17.833 18.8945L16.7725 17.834L16.7207 17.7773C16.4807 17.4828 16.499 17.0479 16.7734 16.7734Z" fill="black"/>
<path d="M10.5732 7.47461C11.2058 7.34108 11.7498 7.85601 11.75 8.44824V9.34082C11.7502 10.7605 13.0492 11.8253 14.4414 11.5469L15.5537 11.3242C16.155 11.204 16.7885 11.6687 16.7363 12.3613C16.5512 14.8162 14.5018 16.75 12 16.75C9.37666 16.75 7.25002 14.6233 7.25 12C7.25003 9.91979 8.58714 8.15319 10.4463 7.50977L10.5732 7.47461Z" fill="black"/>
<path d="M21 11.25C21.4142 11.25 21.75 11.5858 21.75 12C21.75 12.4142 21.4142 12.751 21 12.751H19.5L19.4229 12.7471C19.0449 12.7084 18.75 12.3891 18.75 12.001C18.75 11.5868 19.0858 11.25 19.5 11.25H21Z" fill="black"/>
<path d="M4.57715 11.2529C4.95512 11.2916 5.25 11.6109 5.25 11.999C5.25 12.4132 4.91421 12.75 4.5 12.75H3C2.58579 12.75 2.25 12.4142 2.25 12C2.25 11.5858 2.58579 11.249 3 11.249H4.5L4.57715 11.2529Z" fill="black"/>
<path d="M5.10645 5.10547C5.39934 4.81258 5.8741 4.81258 6.16699 5.10547L7.22754 6.16602L7.2793 6.22266C7.51925 6.51723 7.50201 6.95209 7.22754 7.22656C6.93465 7.51946 6.45891 7.51946 6.16602 7.22656L5.10547 6.16602C4.81273 5.87311 4.8136 5.39831 5.10645 5.10547Z" fill="black"/>
<path d="M17.834 5.10547C18.1268 4.81278 18.6017 4.81278 18.8945 5.10547C19.1874 5.39831 19.1882 5.87409 18.8955 6.16699L17.835 7.22754L17.7773 7.2793C17.4828 7.51921 17.0489 7.50189 16.7744 7.22754L16.7734 7.22656C16.4807 6.93366 16.4806 6.45886 16.7734 6.16602L17.834 5.10547Z" fill="black"/>
<path d="M12.001 2.25C12.4152 2.25 12.751 2.58579 12.751 3V4.5L12.7471 4.57715C12.7084 4.95512 12.3891 5.25 12.001 5.25C11.5868 5.25 11.25 4.91421 11.25 4.5V3C11.25 2.58579 11.5868 2.25 12.001 2.25Z" fill="black"/>
</svg>
