<svg width="24" height="24" viewBox="0 0 24 24" fill="none" xmlns="http://www.w3.org/2000/svg">
<path d="M21 17.2501C21.4142 17.2501 21.75 17.5859 21.75 18.0001C21.7499 18.4143 21.4142 18.7501 21 18.7501H3C2.58584 18.7501 2.25008 18.4143 2.25 18.0001C2.25 17.5859 2.58579 17.2501 3 17.2501H21Z" fill="black"/>
<path d="M4.5 13.7501C4.91421 13.7501 5.25 14.0859 5.25 14.5001C5.24992 14.9143 4.91416 15.2501 4.5 15.2501H3C2.58584 15.2501 2.25008 14.9143 2.25 14.5001C2.25 14.0859 2.58579 13.7501 3 13.7501H4.5Z" fill="black"/>
<path d="M12 9.75011C14.5239 9.75011 16.5879 11.7185 16.7412 14.2042C16.7779 14.8032 16.2898 15.2501 15.75 15.2501H8.25C7.71025 15.2501 7.22212 14.8032 7.25879 14.2042L7.2793 13.9728C7.54197 11.5973 9.55486 9.75011 12 9.75011Z" fill="black"/>
<path d="M21 13.7501C21.4142 13.7501 21.75 14.0859 21.75 14.5001C21.7499 14.9143 21.4142 15.2501 21 15.2501H19.5C19.0858 15.2501 18.7501 14.9143 18.75 14.5001C18.75 14.0859 19.0858 13.7501 19.5 13.7501H21Z" fill="black"/>
<path d="M5.10547 7.60558C5.39834 7.31279 5.87314 7.31279 6.16602 7.60558L7.22656 8.66613C7.51943 8.959 7.51938 9.43378 7.22656 9.72668C6.93367 10.0196 6.45891 10.0196 6.16602 9.72668L5.10547 8.66613C4.81265 8.37323 4.8126 7.89845 5.10547 7.60558Z" fill="black"/>
<path d="M17.833 7.60558C18.1259 7.31279 18.6007 7.31279 18.8936 7.60558C19.1864 7.89845 19.1864 8.37323 18.8936 8.66613L17.833 9.72668C17.5401 10.0196 17.0654 10.0196 16.7725 9.72668C16.4796 9.43378 16.4796 8.959 16.7725 8.66613L17.833 7.60558Z" fill="black"/>
<path d="M11.1162 1.82335C11.6044 1.33525 12.3956 1.33525 12.8838 1.82335L15.0303 3.96984C15.3231 4.26274 15.3231 4.73752 15.0303 5.03039C14.7374 5.32318 14.2626 5.32318 13.9697 5.03039L12.75 3.81066V7.00011C12.7499 7.41426 12.4142 7.75011 12 7.75011C11.5858 7.75011 11.2501 7.41426 11.25 7.00011V3.81066L10.0303 5.03039C9.7374 5.32318 9.2626 5.32318 8.96973 5.03039C8.67686 4.73752 8.67691 4.26274 8.96973 3.96984L11.1162 1.82335Z" fill="black"/>
</svg>
