<svg width="24" height="24" viewBox="0 0 24 24" fill="none" xmlns="http://www.w3.org/2000/svg">
<path d="M21 17.25C21.4142 17.25 21.75 17.5858 21.75 18C21.75 18.4142 21.4142 18.75 21 18.75H3C2.58579 18.75 2.25 18.4142 2.25 18C2.25 17.5858 2.58579 17.25 3 17.25H21Z" fill="black"/>
<path d="M4.5 13.75C4.91421 13.75 5.25 14.0858 5.25 14.5C5.25 14.9142 4.91421 15.25 4.5 15.25H3C2.58579 15.25 2.25 14.9142 2.25 14.5C2.25 14.0858 2.58579 13.75 3 13.75H4.5Z" fill="black"/>
<path d="M12 9.75C14.5239 9.75 16.5879 11.7184 16.7412 14.2041C16.778 14.8032 16.2898 15.25 15.75 15.25H8.25C7.7102 15.25 7.22203 14.8032 7.25879 14.2041L7.2793 13.9727C7.54197 11.5972 9.55486 9.75 12 9.75Z" fill="black"/>
<path d="M21 13.75C21.4142 13.75 21.75 14.0858 21.75 14.5C21.75 14.9142 21.4142 15.25 21 15.25H19.5C19.0858 15.25 18.75 14.9142 18.75 14.5C18.75 14.0858 19.0858 13.75 19.5 13.75H21Z" fill="black"/>
<path d="M5.10547 7.60547C5.39832 7.31278 5.87316 7.31278 6.16602 7.60547L7.22656 8.66602C7.5194 8.95886 7.5193 9.43366 7.22656 9.72656C6.93367 10.0195 6.45891 10.0195 6.16602 9.72656L5.10547 8.66602C4.81273 8.37311 4.81263 7.89831 5.10547 7.60547Z" fill="black"/>
<path d="M17.833 7.60547C18.1259 7.31278 18.6007 7.31278 18.8936 7.60547C19.1864 7.89831 19.1863 8.37311 18.8936 8.66602L17.833 9.72656C17.5401 10.0195 17.0654 10.0195 16.7725 9.72656C16.4797 9.43366 16.4796 8.95886 16.7725 8.66602L17.833 7.60547Z" fill="black"/>
<path d="M12 1.25C12.4142 1.25 12.75 1.58579 12.75 2V5.18945L13.9697 3.96973C14.2626 3.67683 14.7374 3.67683 15.0303 3.96973C15.3232 4.26262 15.3232 4.73738 15.0303 5.03027L12.8838 7.17676C12.3956 7.66486 11.6044 7.66486 11.1162 7.17676L8.96973 5.03027C8.67683 4.73738 8.67683 4.26262 8.96973 3.96973C9.26262 3.67683 9.73738 3.67683 10.0303 3.96973L11.25 5.18945V2C11.25 1.58579 11.5858 1.25 12 1.25Z" fill="black"/>
</svg>
