<svg width="24" height="24" viewBox="0 0 24 24" fill="none" xmlns="http://www.w3.org/2000/svg">
<path d="M19 3.75C20.5188 3.75 21.75 4.98122 21.75 6.5V17.5C21.75 19.0188 20.5188 20.25 19 20.25H5C3.48122 20.25 2.25 19.0188 2.25 17.5V6.5C2.25 4.98122 3.48122 3.75 5 3.75H19ZM3.75 17.5C3.75 18.1904 4.30964 18.75 5 18.75H8.25V15.25H3.75V17.5ZM9.75 18.75H19C19.6904 18.75 20.25 18.1904 20.25 17.5V15.25H9.75V18.75ZM3.75 13.75H8.25V10.25H3.75V13.75ZM9.75 13.75H20.25V10.25H9.75V13.75Z" fill="black"/>
</svg>
