<svg width="24" height="24" viewBox="0 0 24 24" fill="none" xmlns="http://www.w3.org/2000/svg">
<path fill-rule="evenodd" clip-rule="evenodd" d="M19 2.25C20.5187 2.25004 21.75 3.48127 21.75 5V19C21.75 20.5187 20.5187 21.75 19 21.75H5C3.48124 21.75 2.25004 20.5187 2.25 19V5C2.25003 3.48124 3.48124 2.25 5 2.25H19ZM6 17.25C5.58581 17.25 5.25003 17.5858 5.25 18C5.25003 18.4142 5.58581 18.75 6 18.75H18C18.4142 18.75 18.75 18.4142 18.75 18C18.75 17.5858 18.4142 17.25 18 17.25H6ZM6 13.25C5.58581 13.25 5.25003 13.5858 5.25 14C5.25003 14.4142 5.58581 14.75 6 14.75H18C18.4142 14.75 18.75 14.4142 18.75 14C18.75 13.5858 18.4142 13.25 18 13.25H6ZM6 5.25C5.58581 5.25 5.25003 5.58581 5.25 6C5.25003 6.41419 5.58581 6.75 6 6.75H7.75V10C7.75003 10.4142 8.08581 10.75 8.5 10.75C8.91419 10.75 9.24997 10.4142 9.25 10V6.75H11C11.4142 6.75 11.75 6.41419 11.75 6C11.75 5.58581 11.4142 5.25 11 5.25H6ZM15 9.25C14.5858 9.25 14.25 9.58581 14.25 10C14.25 10.4142 14.5858 10.75 15 10.75H18C18.4142 10.75 18.75 10.4142 18.75 10C18.75 9.58581 18.4142 9.25 18 9.25H15ZM15 5.25C14.5858 5.25 14.25 5.58581 14.25 6C14.25 6.41419 14.5858 6.75 15 6.75H18C18.4142 6.75 18.75 6.41419 18.75 6C18.75 5.58581 18.4142 5.25 18 5.25H15Z" fill="black"/>
</svg>
