<svg width="24" height="24" viewBox="0 0 24 24" fill="none" xmlns="http://www.w3.org/2000/svg">
<path fill-rule="evenodd" clip-rule="evenodd" d="M19 2.25C20.5187 2.25004 21.75 3.48127 21.75 5V19C21.75 20.5187 20.5187 21.75 19 21.75H5C3.48124 21.75 2.25004 20.5187 2.25 19V5C2.25003 3.48124 3.48124 2.25 5 2.25H19ZM9 17.25C8.58581 17.25 8.25003 17.5858 8.25 18C8.25004 18.4142 8.58581 18.75 9 18.75H15C15.4142 18.75 15.75 18.4142 15.75 18C15.75 17.5858 15.4142 17.25 15 17.25H9ZM6 13.25C5.58581 13.25 5.25003 13.5858 5.25 14C5.25004 14.4142 5.58581 14.75 6 14.75H18C18.4142 14.75 18.75 14.4142 18.75 14C18.75 13.5858 18.4142 13.25 18 13.25H6ZM9 9.25C8.58581 9.25 8.25003 9.58581 8.25 10C8.25004 10.4142 8.58581 10.75 9 10.75H15C15.4142 10.75 15.75 10.4142 15.75 10C15.75 9.58581 15.4142 9.25 15 9.25H9ZM6 5.25C5.58581 5.25 5.25003 5.58581 5.25 6C5.25004 6.41418 5.58581 6.75 6 6.75H18C18.4142 6.75 18.75 6.41418 18.75 6C18.75 5.58581 18.4142 5.25 18 5.25H6Z" fill="black"/>
</svg>
