<svg width="24" height="24" viewBox="0 0 24 24" fill="none" xmlns="http://www.w3.org/2000/svg">
<path fill-rule="evenodd" clip-rule="evenodd" d="M19 2.25C20.5187 2.25004 21.75 3.48128 21.75 5V19C21.75 20.5187 20.5187 21.75 19 21.75H5C3.48124 21.75 2.25004 20.5187 2.25 19V5C2.25004 3.48125 3.48124 2.25 5 2.25H19ZM6.5 5.25C5.80967 5.25 5.25004 5.80968 5.25 6.5V7C5.25004 7.41418 5.58581 7.75 6 7.75C6.41419 7.75 6.74996 7.41418 6.75 7V6.75H11.25V17.25H10C9.58581 17.25 9.25004 17.5858 9.25 18C9.25004 18.4142 9.58581 18.75 10 18.75H14C14.4142 18.75 14.75 18.4142 14.75 18C14.75 17.5858 14.4142 17.25 14 17.25H12.75V6.75H17.25V7C17.25 7.41418 17.5858 7.75 18 7.75C18.4142 7.75 18.75 7.41418 18.75 7V6.5C18.75 5.80968 18.1903 5.25 17.5 5.25H6.5Z" fill="black"/>
</svg>
