<svg width="24" height="24" viewBox="0 0 24 24" fill="none" xmlns="http://www.w3.org/2000/svg">
<path fill-rule="evenodd" clip-rule="evenodd" d="M7 2.25C7.41421 2.25 7.75 2.58579 7.75 3H16.25C16.25 2.58579 16.5858 2.25 17 2.25H19C20.5188 2.25 21.75 3.48122 21.75 5V7C21.75 7.41421 21.4142 7.75 21 7.75V16.25C21.4142 16.25 21.75 16.5858 21.75 17V19C21.75 20.5188 20.5188 21.75 19 21.75H17C16.5858 21.75 16.25 21.4142 16.25 21H7.75C7.75 21.4142 7.41421 21.75 7 21.75H5C3.48122 21.75 2.25 20.5188 2.25 19V17C2.25 16.5858 2.58579 16.25 3 16.25V7.75C2.58579 7.75 2.25 7.41421 2.25 7V5C2.25 3.48122 3.48122 2.25 5 2.25H7ZM7.5 15.75C7.08579 15.75 6.75 16.0858 6.75 16.5C6.75 16.9142 7.08579 17.25 7.5 17.25H12.5C12.9142 17.25 13.25 16.9142 13.25 16.5C13.25 16.0858 12.9142 15.75 12.5 15.75H7.5ZM7.5 11.25C7.08579 11.25 6.75 11.5858 6.75 12C6.75 12.4142 7.08579 12.75 7.5 12.75H16.5C16.9142 12.75 17.25 12.4142 17.25 12C17.25 11.5858 16.9142 11.25 16.5 11.25H7.5ZM7.5 6.75C7.08579 6.75 6.75 7.08579 6.75 7.5C6.75 7.91421 7.08579 8.25 7.5 8.25H16.5C16.9142 8.25 17.25 7.91421 17.25 7.5C17.25 7.08579 16.9142 6.75 16.5 6.75H7.5Z" fill="black"/>
</svg>
