<svg width="24" height="24" viewBox="0 0 24 24" fill="none" xmlns="http://www.w3.org/2000/svg">
<path fill-rule="evenodd" clip-rule="evenodd" d="M14 2.25C15.5188 2.25 16.75 3.48122 16.75 5V6.25H21C21.4142 6.25 21.75 6.58579 21.75 7C21.75 7.41421 21.4142 7.75 21 7.75H19.7246L19.3184 19.0986C19.2653 20.578 18.0507 21.7499 16.5703 21.75H7.42969C5.94934 21.7499 4.73473 20.578 4.68164 19.0986L4.27539 7.75H3C2.58579 7.75 2.25 7.41421 2.25 7C2.25 6.58579 2.58579 6.25 3 6.25H7.25V5C7.25 3.48122 8.48122 2.25 10 2.25H14ZM9.47363 10.25C9.05982 10.2648 8.73545 10.6126 8.75 11.0264L8.96484 17.0264C8.97963 17.4403 9.32726 17.7648 9.74121 17.75C10.155 17.7351 10.4784 17.3874 10.4639 16.9736L10.25 10.9736C10.2352 10.5598 9.8874 10.2354 9.47363 10.25ZM14.5273 10.25C14.1134 10.2352 13.7658 10.5597 13.751 10.9736L13.5361 16.9736C13.5216 17.3874 13.846 17.7352 14.2598 17.75C14.6733 17.7643 15.0214 17.44 15.0361 17.0264L15.25 11.0264C15.2645 10.6128 14.9409 10.2651 14.5273 10.25ZM10 3.75C9.30964 3.75 8.75 4.30964 8.75 5V6.25H15.25V5C15.25 4.30964 14.6904 3.75 14 3.75H10Z" fill="black"/>
</svg>
