<svg width="24" height="24" viewBox="0 0 24 24" fill="none" xmlns="http://www.w3.org/2000/svg">
<path fill-rule="evenodd" clip-rule="evenodd" d="M10.0707 4.25852C10.9446 2.80201 13.0562 2.80201 13.9301 4.25852L21.7807 17.3435C22.6791 18.8428 21.5991 20.7502 19.851 20.7507H4.14983C2.40114 20.7507 1.32094 18.8431 2.22014 17.3435L10.0707 4.25852ZM6.3803 15.7546C6.02534 15.5419 5.5642 15.6568 5.351 16.0115L4.84417 16.8572C4.34455 17.6901 4.94422 18.7493 5.91545 18.7497H6.9301C7.34389 18.7493 7.67995 18.4136 7.6801 17.9997C7.67977 17.586 7.34377 17.2501 6.9301 17.2497H6.35784L6.63713 16.7839C6.84997 16.429 6.7349 15.9679 6.3803 15.7546ZM10.9858 17.2497C10.5719 17.2499 10.2361 17.5859 10.2358 17.9997C10.2359 18.4137 10.5718 18.7496 10.9858 18.7497H13.0141C13.4279 18.7493 13.7639 18.4136 13.7641 17.9997C13.7638 17.586 13.4278 17.2501 13.0141 17.2497H10.9858ZM18.6489 16.0115C18.4356 15.6568 17.9745 15.5418 17.6196 15.7546C17.2645 15.9677 17.1499 16.4288 17.3627 16.7839L17.642 17.2497H17.0698C16.6559 17.2499 16.3201 17.5859 16.3198 17.9997C16.3199 18.4137 16.6557 18.7496 17.0698 18.7497H18.0834C19.0545 18.7494 19.6548 17.6901 19.1557 16.8572L18.6489 16.0115ZM9.42229 10.6853C9.06731 10.4725 8.60617 10.5874 8.39299 10.9421L7.37932 12.6325C7.16639 12.9875 7.28145 13.4476 7.63616 13.6609C7.99127 13.8736 8.45241 13.759 8.66545 13.404L9.67913 11.7146C9.89197 11.3596 9.77691 10.8985 9.42229 10.6853ZM15.6069 10.9421C15.3936 10.5875 14.9325 10.4724 14.5776 10.6853C14.2226 10.8984 14.1079 11.3595 14.3207 11.7146L15.3344 13.404C15.5476 13.7589 16.0087 13.8739 16.3637 13.6609C16.7183 13.4477 16.8331 12.9875 16.6205 12.6325L15.6069 10.9421ZM13.0717 6.71751C12.6163 5.95971 11.5573 5.91245 11.0268 6.57591L10.9282 6.71751L10.4213 7.56321C10.2085 7.91817 10.3235 8.37828 10.6782 8.59153C11.0333 8.8043 11.4944 8.68971 11.7074 8.33469L11.9994 7.84641L12.2924 8.33469C12.5056 8.68956 12.9667 8.80458 13.3217 8.59153C13.6763 8.37839 13.7911 7.91815 13.5785 7.56321L13.0717 6.71751Z" fill="black"/>
</svg>
