<svg width="24" height="24" viewBox="0 0 24 24" fill="none" xmlns="http://www.w3.org/2000/svg">
<path fill-rule="evenodd" clip-rule="evenodd" d="M10.0707 4.2584C10.9446 2.80189 13.0562 2.80189 13.9301 4.2584L21.7807 17.3434C22.6791 18.8427 21.5991 20.7501 19.851 20.7506H4.14983C2.40114 20.7506 1.32094 18.843 2.22014 17.3434L10.0707 4.2584ZM6.3803 15.7545C6.02534 15.5417 5.5642 15.6567 5.351 16.0113L4.84417 16.857C4.34455 17.69 4.94422 18.7492 5.91545 18.7496H6.9301C7.34389 18.7492 7.67995 18.4135 7.6801 17.9996C7.67977 17.5859 7.34377 17.25 6.9301 17.2496H6.35784L6.63713 16.7838C6.84997 16.4289 6.7349 15.9678 6.3803 15.7545ZM10.9858 17.2496C10.5719 17.2497 10.2361 17.5858 10.2358 17.9996C10.2359 18.4136 10.5718 18.7495 10.9858 18.7496H13.0141C13.4279 18.7492 13.7639 18.4135 13.7641 17.9996C13.7638 17.5859 13.4278 17.25 13.0141 17.2496H10.9858ZM18.6489 16.0113C18.4356 15.6567 17.9745 15.5417 17.6196 15.7545C17.2645 15.9676 17.1499 16.4287 17.3627 16.7838L17.642 17.2496H17.0698C16.6559 17.2497 16.3201 17.5858 16.3198 17.9996C16.3199 18.4136 16.6557 18.7495 17.0698 18.7496H18.0834C19.0545 18.7493 19.6548 17.69 19.1557 16.857L18.6489 16.0113ZM9.42229 10.6852C9.06731 10.4724 8.60617 10.5873 8.39299 10.942L7.37932 12.6324C7.16639 12.9874 7.28145 13.4475 7.63616 13.6607C7.99127 13.8735 8.45241 13.7589 8.66545 13.4039L9.67913 11.7145C9.89197 11.3595 9.77691 10.8984 9.42229 10.6852ZM15.6069 10.942C15.3936 10.5873 14.9325 10.4723 14.5776 10.6852C14.2226 10.8982 14.1079 11.3594 14.3207 11.7145L15.3344 13.4039C15.5476 13.7588 16.0087 13.8738 16.3637 13.6607C16.7183 13.4476 16.8331 12.9873 16.6205 12.6324L15.6069 10.942ZM13.0717 6.71738C12.6163 5.95959 11.5573 5.91233 11.0268 6.57578L10.9282 6.71738L10.4213 7.56309C10.2085 7.91804 10.3235 8.37816 10.6782 8.59141C11.0333 8.80418 11.4944 8.68959 11.7074 8.33457L11.9994 7.84629L12.2924 8.33457C12.5056 8.68944 12.9667 8.80445 13.3217 8.59141C13.6763 8.37827 13.7911 7.91803 13.5785 7.56309L13.0717 6.71738Z" fill="black"/>
</svg>
