<svg width="24" height="24" viewBox="0 0 24 24" fill="none" xmlns="http://www.w3.org/2000/svg">
<path fill-rule="evenodd" clip-rule="evenodd" d="M18.5 2.25C20.0188 2.25 21.25 3.48122 21.25 5V19C21.25 20.5188 20.0188 21.75 18.5 21.75H5.5C3.98122 21.75 2.75 20.5188 2.75 19V5C2.75 3.48122 3.98122 2.25 5.5 2.25H18.5ZM10.5 12.75C10.0858 12.75 9.75 13.0858 9.75 13.5V16.1768C9.74995 16.4876 9.66743 16.903 9.44824 17.2178C9.25798 17.4908 8.92691 17.75 8.25 17.75C7.57309 17.75 7.24202 17.4908 7.05176 17.2178C6.83257 16.903 6.75005 16.4876 6.75 16.1768V13.5C6.75 13.0858 6.41421 12.75 6 12.75C5.58579 12.75 5.25 13.0858 5.25 13.5V16.1768C5.25005 16.6892 5.37469 17.4354 5.82129 18.0762C6.29721 18.759 7.09169 19.25 8.25 19.25C9.40831 19.25 10.2028 18.759 10.6787 18.0762C11.1253 17.4354 11.25 16.6892 11.25 16.1768V13.5C11.25 13.0858 10.9142 12.75 10.5 12.75ZM18.502 12.9424C18.1941 12.6653 17.7195 12.6902 17.4424 12.998L15.75 14.8779L14.0576 12.998C13.7805 12.6902 13.3059 12.6653 12.998 12.9424C12.6902 13.2195 12.6653 13.6941 12.9424 14.002L14.7402 16L12.9424 17.998C12.6653 18.3059 12.6902 18.7805 12.998 19.0576C13.3059 19.3347 13.7805 19.3098 14.0576 19.002L15.75 17.1211L17.4424 19.002C17.7195 19.3098 18.1941 19.3347 18.502 19.0576C18.8098 18.7805 18.8347 18.3059 18.5576 17.998L16.7588 16L18.5576 14.002C18.8347 13.6941 18.8098 13.2195 18.502 12.9424ZM10.5 4.75C10.0858 4.75 9.75 5.08579 9.75 5.5V8.17676C9.74995 8.48761 9.66743 8.90298 9.44824 9.21777C9.25798 9.49078 8.92691 9.75 8.25 9.75C7.57309 9.75 7.24202 9.49078 7.05176 9.21777C6.83257 8.90298 6.75005 8.48761 6.75 8.17676V5.5C6.75 5.08579 6.41421 4.75 6 4.75C5.58579 4.75 5.25 5.08579 5.25 5.5V8.17676C5.25005 8.68925 5.37469 9.43535 5.82129 10.0762C6.29721 10.759 7.09169 11.25 8.25 11.25C9.40831 11.25 10.2028 10.759 10.6787 10.0762C11.1253 9.43535 11.25 8.68925 11.25 8.17676V5.5C11.25 5.08579 10.9142 4.75 10.5 4.75ZM13.5 4.75C13.0858 4.75 12.75 5.08579 12.75 5.5V10.5C12.75 10.9142 13.0858 11.25 13.5 11.25C13.9142 11.25 14.25 10.9142 14.25 10.5V5.5C14.25 5.08579 13.9142 4.75 13.5 4.75ZM18.2158 4.78125C17.8191 4.66224 17.4003 4.88755 17.2812 5.28418L15.7812 10.2842C15.6622 10.6809 15.8875 11.0997 16.2842 11.2188C16.6809 11.3378 17.0997 11.1125 17.2188 10.7158L18.7188 5.71582C18.8378 5.31914 18.6125 4.90035 18.2158 4.78125Z" fill="black"/>
</svg>
