<svg width="24" height="24" viewBox="0 0 24 24" fill="none" xmlns="http://www.w3.org/2000/svg">
<path d="M19 2.25C20.5187 2.25004 21.75 3.48124 21.75 5V19C21.75 20.5187 20.5187 21.75 19 21.75H5C3.48124 21.75 2.25004 20.5187 2.25 19V5C2.25 3.48122 3.48122 2.25 5 2.25H19ZM15.7129 8.28809C15.42 7.99524 14.9452 7.99534 14.6523 8.28809L12 10.9395L9.34863 8.28809C9.05574 7.99519 8.58098 7.99519 8.28809 8.28809C7.99522 8.58098 7.9952 9.05575 8.28809 9.34863L10.9395 12L8.28809 14.6523C7.99537 14.9453 7.99525 15.4201 8.28809 15.7129C8.58096 16.0052 9.0559 16.0054 9.34863 15.7129L12 13.0605L14.6523 15.7129C14.9453 16.0051 15.4202 16.0055 15.7129 15.7129C16.0056 15.4202 16.0051 14.9453 15.7129 14.6523L13.0605 12L15.7129 9.34863C16.0055 9.0559 16.0052 8.58097 15.7129 8.28809Z" fill="black"/>
</svg>
