<svg width="24" height="24" viewBox="0 0 24 24" fill="none" xmlns="http://www.w3.org/2000/svg">
<path d="M21 12.75H3C2.58579 12.75 2.25 12.4142 2.25 12C2.25 11.5858 2.58579 11.25 3 11.25H21C21.4142 11.25 21.75 11.5858 21.75 12C21.75 12.4142 21.4142 12.75 21 12.75ZM17.25 7.25V5.75H14.75V7.25H17.25ZM17.25 18.25V16.75H14.75V18.25H17.25ZM9.25 7.25V3.75H6.75V7.25H9.25ZM9.25 20.25V16.75H6.75V20.25H9.25ZM17.5 15.25C18.1904 15.25 18.75 15.8096 18.75 16.5V18.5C18.75 19.1904 18.1904 19.75 17.5 19.75H14.5C13.8096 19.75 13.25 19.1904 13.25 18.5V16.5C13.25 15.8096 13.8096 15.25 14.5 15.25H17.5ZM17.5 4.25C18.1904 4.25 18.75 4.80964 18.75 5.5V7.5C18.75 8.19036 18.1904 8.75 17.5 8.75H14.5C13.8096 8.75 13.25 8.19036 13.25 7.5V5.5C13.25 4.80964 13.8096 4.25 14.5 4.25H17.5ZM9.5 15.25C10.1904 15.25 10.75 15.8096 10.75 16.5V20.5C10.75 21.1904 10.1904 21.75 9.5 21.75H6.5C5.80964 21.75 5.25 21.1904 5.25 20.5V16.5C5.25 15.8096 5.80964 15.25 6.5 15.25H9.5ZM9.5 2.25C10.1904 2.25 10.75 2.80964 10.75 3.5V7.5C10.75 8.19036 10.1904 8.75 9.5 8.75H6.5C5.80964 8.75 5.25 8.19036 5.25 7.5V3.5C5.25 2.80964 5.80964 2.25 6.5 2.25H9.5Z" fill="black"/>
</svg>
