<svg width="24" height="24" viewBox="0 0 24 24" fill="none" xmlns="http://www.w3.org/2000/svg">
<path d="M11.25 21V3C11.25 2.58579 11.5858 2.25 12 2.25C12.4142 2.25 12.75 2.58579 12.75 3V21C12.75 21.4142 12.4142 21.75 12 21.75C11.5858 21.75 11.25 21.4142 11.25 21ZM16.75 17.25H18.25V14.75H16.75V17.25ZM5.75 17.25H7.25V14.75H5.75V17.25ZM16.75 9.25H20.25V6.75H16.75V9.25ZM3.75 9.25H7.25V6.75H3.75V9.25ZM8.75 17.5C8.75 18.1904 8.19036 18.75 7.5 18.75H5.5C4.80964 18.75 4.25 18.1904 4.25 17.5V14.5C4.25 13.8096 4.80964 13.25 5.5 13.25H7.5C8.19036 13.25 8.75 13.8096 8.75 14.5V17.5ZM19.75 17.5C19.75 18.1904 19.1904 18.75 18.5 18.75H16.5C15.8096 18.75 15.25 18.1904 15.25 17.5V14.5C15.25 13.8096 15.8096 13.25 16.5 13.25H18.5C19.1904 13.25 19.75 13.8096 19.75 14.5V17.5ZM8.75 9.5C8.75 10.1904 8.19036 10.75 7.5 10.75H3.5C2.80964 10.75 2.25 10.1904 2.25 9.5V6.5C2.25 5.80964 2.80964 5.25 3.5 5.25H7.5C8.19036 5.25 8.75 5.80964 8.75 6.5V9.5ZM21.75 9.5C21.75 10.1904 21.1904 10.75 20.5 10.75H16.5C15.8096 10.75 15.25 10.1904 15.25 9.5V6.5C15.25 5.80964 15.8096 5.25 16.5 5.25H20.5C21.1904 5.25 21.75 5.80964 21.75 6.5V9.5Z" fill="black"/>
</svg>
