<svg width="24" height="24" viewBox="0 0 24 24" fill="none" xmlns="http://www.w3.org/2000/svg">
<path d="M3.75 19C3.75 19.6904 4.30964 20.25 5 20.25H19C19.6904 20.25 20.25 19.6904 20.25 19V5C20.25 4.30964 19.6904 3.75 19 3.75H5C4.30964 3.75 3.75 4.30964 3.75 5V19ZM8.53027 16.5303C8.23738 16.8232 7.76262 16.8232 7.46973 16.5303C7.17683 16.2374 7.17683 15.7626 7.46973 15.4697L14.1895 8.75H10C9.58579 8.75 9.25 8.41421 9.25 8C9.25 7.58579 9.58579 7.25 10 7.25H15.5C16.1904 7.25 16.75 7.80964 16.75 8.5V14C16.75 14.4142 16.4142 14.75 16 14.75C15.5858 14.75 15.25 14.4142 15.25 14V9.81055L8.53027 16.5303ZM2.25 5C2.25 3.48122 3.48122 2.25 5 2.25H19C20.5188 2.25 21.75 3.48122 21.75 5V19C21.75 20.5188 20.5188 21.75 19 21.75H5C3.48122 21.75 2.25 20.5188 2.25 19V5Z" fill="black"/>
</svg>
