<svg width="24" height="24" viewBox="0 0 24 24" fill="none" xmlns="http://www.w3.org/2000/svg">
<path d="M3.75 5C3.75 4.30964 4.30964 3.75 5 3.75H19C19.6904 3.75 20.25 4.30964 20.25 5V19C20.25 19.6904 19.6904 20.25 19 20.25H5C4.30964 20.25 3.75 19.6904 3.75 19V5ZM8.53027 7.46973C8.23738 7.17683 7.76262 7.17683 7.46973 7.46973C7.17683 7.76262 7.17683 8.23738 7.46973 8.53027L14.1895 15.25H10C9.58579 15.25 9.25 15.5858 9.25 16C9.25 16.4142 9.58579 16.75 10 16.75H15.5C16.1904 16.75 16.75 16.1904 16.75 15.5V10C16.75 9.58579 16.4142 9.25 16 9.25C15.5858 9.25 15.25 9.58579 15.25 10V14.1895L8.53027 7.46973ZM2.25 19C2.25 20.5188 3.48122 21.75 5 21.75H19C20.5188 21.75 21.75 20.5188 21.75 19V5C21.75 3.48122 20.5188 2.25 19 2.25H5C3.48122 2.25 2.25 3.48122 2.25 5V19Z" fill="black"/>
</svg>
