<svg width="24" height="24" viewBox="0 0 24 24" fill="none" xmlns="http://www.w3.org/2000/svg">
<path d="M17.8336 17.8336C14.6118 21.0555 9.3882 21.0555 6.16637 17.8336C2.94454 14.6118 2.94454 9.38819 6.16637 6.16637C9.3882 2.94454 14.6118 2.94454 17.8336 6.16637C21.0555 9.38819 21.0555 14.6118 17.8336 17.8336ZM9.12876 15.5355C9.12876 15.9497 9.46447 16.2855 9.87868 16.2855H15.0356C15.7259 16.2854 16.2854 15.7259 16.2855 15.0356V9.87868C16.2855 9.46447 15.9497 9.12876 15.5355 9.12876C15.1213 9.12876 14.7856 9.46447 14.7856 9.87868V13.725L8.9948 7.93414C8.7019 7.64124 8.22703 7.64124 7.93414 7.93414C7.64124 8.22703 7.64124 8.7019 7.93414 8.9948L13.725 14.7856H9.87868C9.46447 14.7856 9.12876 15.1213 9.12876 15.5355ZM18.8943 18.8943C22.7019 15.0867 22.7019 8.91332 18.8943 5.10571C15.0867 1.2981 8.91332 1.2981 5.10571 5.10571C1.2981 8.91332 1.2981 15.0867 5.10571 18.8943C8.91332 22.7019 15.0867 22.7019 18.8943 18.8943Z" fill="black"/>
</svg>
