<svg width="24" height="24" viewBox="0 0 24 24" fill="none" xmlns="http://www.w3.org/2000/svg">
<path d="M19 20.25C19.6904 20.25 20.25 19.6904 20.25 19V5C20.25 4.30964 19.6904 3.75 19 3.75H5C4.30964 3.75 3.75 4.30964 3.75 5V19C3.75 19.6904 4.30964 20.25 5 20.25H19ZM17 11.25C17.4142 11.25 17.75 11.5858 17.75 12C17.75 12.4142 17.4142 12.75 17 12.75H8.81055L11.5303 15.4697C11.8232 15.7626 11.8232 16.2374 11.5303 16.5303C11.2374 16.8232 10.7626 16.8232 10.4697 16.5303L6.82324 12.8838C6.33514 12.3956 6.33513 11.6044 6.82324 11.1162L10.4697 7.46973C10.7626 7.17683 11.2374 7.17683 11.5303 7.46973C11.8232 7.76262 11.8232 8.23738 11.5303 8.53027L8.81055 11.25H17ZM5 21.75C3.48122 21.75 2.25 20.5188 2.25 19V5C2.25 3.48122 3.48122 2.25 5 2.25H19C20.5188 2.25 21.75 3.48122 21.75 5V19C21.75 20.5188 20.5188 21.75 19 21.75H5Z" fill="black"/>
</svg>
