<svg width="24" height="24" viewBox="0 0 24 24" fill="none" xmlns="http://www.w3.org/2000/svg">
<path d="M20.25 5C20.25 4.30964 19.6904 3.75 19 3.75H5C4.30964 3.75 3.75 4.30964 3.75 5V19C3.75 19.6904 4.30964 20.25 5 20.25H19C19.6904 20.25 20.25 19.6904 20.25 19V5ZM15.4697 7.46973C15.7626 7.17683 16.2374 7.17683 16.5303 7.46973C16.8232 7.76262 16.8232 8.23738 16.5303 8.53027L9.81055 15.25H14C14.4142 15.25 14.75 15.5858 14.75 16C14.75 16.4142 14.4142 16.75 14 16.75H8.5C7.80964 16.75 7.25 16.1904 7.25 15.5V10C7.25 9.58579 7.58579 9.25 8 9.25C8.41421 9.25 8.75 9.58579 8.75 10V14.1895L15.4697 7.46973ZM21.75 19C21.75 20.5188 20.5188 21.75 19 21.75H5C3.48122 21.75 2.25 20.5188 2.25 19V5C2.25 3.48122 3.48122 2.25 5 2.25H19C20.5188 2.25 21.75 3.48122 21.75 5V19Z" fill="black"/>
</svg>
