<svg width="24" height="24" viewBox="0 0 24 24" fill="none" xmlns="http://www.w3.org/2000/svg">
<path d="M3.47192 1.39342C3.47192 0.979215 3.80771 0.643431 4.22192 0.643425C4.63613 0.643425 4.97192 0.979211 4.97192 1.39342V5.24499C5.01646 5.19867 5.06007 5.15097 5.10571 5.10534C8.91333 1.29788 15.0872 1.29779 18.8948 5.10534C22.7023 8.9129 22.7022 15.0868 18.8948 18.8944C15.0872 22.702 8.91332 22.702 5.10571 18.8944C3.25576 17.0445 2.30429 14.6343 2.25219 12.2108C2.2433 11.7967 2.57245 11.4531 2.98657 11.4442C3.40046 11.4356 3.7433 11.7646 3.75219 12.1786C3.79632 14.231 4.60051 16.2681 6.16625 17.8339C9.38796 21.0556 14.6114 21.0553 17.8332 17.8339C21.0551 14.612 21.0551 9.38869 17.8332 6.16686C14.6114 2.94505 9.38807 2.94504 6.16625 6.16686C6.12234 6.21078 6.08005 6.25602 6.03735 6.30065H9.87914C10.2932 6.30085 10.6291 6.63656 10.6291 7.05065C10.6289 7.46457 10.2931 7.80046 9.87914 7.80065H4.72192C4.03169 7.80065 3.47212 7.24083 3.47192 6.55065V1.39342Z" fill="black"/>
</svg>
