<svg width="24" height="24" viewBox="0 0 24 24" fill="none" xmlns="http://www.w3.org/2000/svg">
<path d="M6.16637 6.16638C9.38819 2.94455 14.6118 2.94455 17.8336 6.16638C21.0555 9.3882 21.0555 14.6118 17.8336 17.8336C14.6118 21.0555 9.38819 21.0555 6.16637 17.8336C2.94454 14.6118 2.94454 9.3882 6.16637 6.16638ZM14.8712 8.46447C14.8712 8.05026 14.5355 7.71455 14.1213 7.71455H8.96441C8.2741 7.71458 7.71457 8.2741 7.71455 8.96442V14.1213C7.71455 14.5355 8.05025 14.8712 8.46447 14.8712C8.87868 14.8712 9.21439 14.5355 9.21439 14.1213V10.2751L15.0052 16.0659C15.2981 16.3588 15.773 16.3588 16.0659 16.0659C16.3588 15.773 16.3588 15.2981 16.0659 15.0052L10.275 9.21439H14.1213C14.5355 9.21439 14.8712 8.87869 14.8712 8.46447ZM5.10571 5.10572C1.2981 8.91333 1.2981 15.0867 5.10571 18.8943C8.91332 22.7019 15.0867 22.7019 18.8943 18.8943C22.7019 15.0867 22.7019 8.91333 18.8943 5.10572C15.0867 1.2981 8.91332 1.2981 5.10571 5.10572Z" fill="black"/>
</svg>
