<svg width="24" height="24" viewBox="0 0 24 24" fill="none" xmlns="http://www.w3.org/2000/svg">
<path d="M6.16637 17.8336C9.38819 21.0555 14.6118 21.0555 17.8336 17.8336C21.0555 14.6118 21.0555 9.38819 17.8336 6.16637C14.6118 2.94454 9.38819 2.94454 6.16637 6.16637C2.94454 9.38819 2.94454 14.6118 6.16637 17.8336ZM14.8712 15.5355C14.8712 15.9497 14.5355 16.2855 14.1213 16.2855H8.96441C8.2741 16.2854 7.71457 15.7259 7.71455 15.0356V9.87868C7.71455 9.46447 8.05025 9.12876 8.46447 9.12876C8.87868 9.12876 9.21439 9.46447 9.21439 9.87868V13.725L15.0052 7.93414C15.2981 7.64124 15.773 7.64124 16.0659 7.93414C16.3588 8.22703 16.3588 8.7019 16.0659 8.9948L10.275 14.7856H14.1213C14.5355 14.7856 14.8712 15.1213 14.8712 15.5355ZM5.10571 18.8943C1.2981 15.0867 1.2981 8.91332 5.10571 5.10571C8.91332 1.2981 15.0867 1.2981 18.8943 5.10571C22.7019 8.91332 22.7019 15.0867 18.8943 18.8943C15.0867 22.7019 8.91332 22.7019 5.10571 18.8943Z" fill="black"/>
</svg>
