<svg width="24" height="24" viewBox="0 0 24 24" fill="none" xmlns="http://www.w3.org/2000/svg">
<path d="M11.1953 5.46308C8.84271 4.41751 6.15729 4.41751 3.80469 5.46308L3.75 5.48652V19.8537C6.15283 18.865 8.84717 18.865 11.25 19.8537V5.48359C11.232 5.47624 11.2131 5.47099 11.1953 5.46308ZM20.1953 5.46308C17.8427 4.41751 15.1573 4.41751 12.8047 5.46308C12.7869 5.47099 12.768 5.47624 12.75 5.48359V19.8537C15.1528 18.865 17.8472 18.865 20.25 19.8537V5.48652L20.1953 5.46308ZM14.8564 12.3371C15.9417 12.1261 17.0583 12.1261 18.1436 12.3371C18.55 12.4163 18.8154 12.8105 18.7363 13.217C18.6572 13.6235 18.263 13.8888 17.8564 13.8098C16.9605 13.6356 16.0395 13.6356 15.1436 13.8098C14.737 13.8888 14.3428 13.6235 14.2637 13.217C14.1846 12.8105 14.45 12.4163 14.8564 12.3371ZM14.8564 9.33711C15.9417 9.12608 17.0583 9.12608 18.1436 9.33711C18.55 9.41631 18.8154 9.8105 18.7363 10.217C18.6572 10.6235 18.263 10.8888 17.8564 10.8098C16.9605 10.6356 16.0395 10.6356 15.1436 10.8098C14.737 10.8888 14.3428 10.6235 14.2637 10.217C14.1846 9.8105 14.45 9.41631 14.8564 9.33711ZM14.8564 6.33711C15.9417 6.12608 17.0583 6.12608 18.1436 6.33711C18.55 6.41631 18.8154 6.8105 18.7363 7.21699C18.6572 7.6235 18.263 7.88881 17.8564 7.80976C16.9605 7.63561 16.0395 7.63561 15.1436 7.80976C14.737 7.88881 14.3428 7.6235 14.2637 7.21699C14.1846 6.8105 14.45 6.41631 14.8564 6.33711ZM21.75 20.1242C21.7498 21.0788 20.7669 21.717 19.8945 21.3293C17.7334 20.3689 15.2666 20.3689 13.1055 21.3293L12.8047 21.4631C12.2924 21.6907 11.7076 21.6907 11.1953 21.4631L10.8945 21.3293C8.73343 20.3689 6.26657 20.3689 4.10547 21.3293C3.23311 21.717 2.25018 21.0788 2.25 20.1242V5.4123C2.25001 4.86517 2.57229 4.36889 3.07227 4.14668L3.19531 4.09199C5.93576 2.87404 9.06424 2.87404 11.8047 4.09199C11.9291 4.14728 12.0709 4.14728 12.1953 4.09199C14.9358 2.87404 18.0642 2.87404 20.8047 4.09199L20.9277 4.14668C21.4277 4.36889 21.75 4.86517 21.75 5.4123V20.1242Z" fill="black"/>
</svg>
