<svg width="24" height="24" viewBox="0 0 24 24" fill="none" xmlns="http://www.w3.org/2000/svg">
<path d="M10.21 15.5459C11.2398 14.6632 12.7602 14.6632 13.79 15.5459L17.8369 19.0156C17.999 19.1545 18.2497 19.0395 18.25 18.8262V5C18.25 4.30964 17.6904 3.75 17 3.75H7C6.30964 3.75 5.75 4.30964 5.75 5V18.8262C5.75031 19.0395 6.00102 19.1545 6.16309 19.0156L10.21 15.5459ZM19.75 18.8262C19.7497 20.321 17.9964 21.1272 16.8613 20.1543L12.8135 16.6855C12.3454 16.2843 11.6546 16.2843 11.1865 16.6855L7.13867 20.1543C6.00359 21.1272 4.25031 20.321 4.25 18.8262V5C4.25 3.48122 5.48122 2.25 7 2.25H17C18.5188 2.25 19.75 3.48122 19.75 5V18.8262Z" fill="black"/>
</svg>
