<svg width="24" height="24" viewBox="0 0 24 24" fill="none" xmlns="http://www.w3.org/2000/svg">
<path d="M20.25 7.75H3.75V19C3.75 19.6904 4.30964 20.25 5 20.25H19C19.6904 20.25 20.25 19.6904 20.25 19V7.75ZM14.4697 11.4697C14.7626 11.1768 15.2374 11.1768 15.5303 11.4697C15.8232 11.7626 15.8232 12.2374 15.5303 12.5303L11.707 16.3535C11.3165 16.744 10.6835 16.744 10.293 16.3535L8.46973 14.5303C8.17683 14.2374 8.17683 13.7626 8.46973 13.4697C8.76262 13.1768 9.23738 13.1768 9.53027 13.4697L11 14.9395L14.4697 11.4697ZM15.25 4V3.75H8.75V4C8.75 4.41421 8.41421 4.75 8 4.75C7.58579 4.75 7.25 4.41421 7.25 4V3.75H5C4.30964 3.75 3.75 4.30964 3.75 5V6.25H20.25V5C20.25 4.30964 19.6904 3.75 19 3.75H16.75V4C16.75 4.41421 16.4142 4.75 16 4.75C15.5858 4.75 15.25 4.41421 15.25 4ZM21.75 19C21.75 20.5188 20.5188 21.75 19 21.75H5C3.48122 21.75 2.25 20.5188 2.25 19V5C2.25 3.48122 3.48122 2.25 5 2.25H7.25V2C7.25 1.58579 7.58579 1.25 8 1.25C8.41421 1.25 8.75 1.58579 8.75 2V2.25H15.25V2C15.25 1.58579 15.5858 1.25 16 1.25C16.4142 1.25 16.75 1.58579 16.75 2V2.25H19C20.5188 2.25 21.75 3.48122 21.75 5V19Z" fill="black"/>
</svg>
