<svg width="24" height="24" viewBox="0 0 24 24" fill="none" xmlns="http://www.w3.org/2000/svg">
<path d="M13.0781 20.1807C13.4889 20.1271 13.8654 20.4164 13.9189 20.8271C13.9724 21.2378 13.6831 21.6144 13.2725 21.668C12.8557 21.7223 12.4309 21.75 12 21.75C11.5691 21.75 11.1443 21.7223 10.7275 21.668C10.3169 21.6144 10.0276 21.2378 10.0811 20.8271C10.1346 20.4164 10.5111 20.1271 10.9219 20.1807C11.2744 20.2266 11.6343 20.25 12 20.25C12.3657 20.25 12.7256 20.2266 13.0781 20.1807ZM4.40234 16.8848C4.73078 16.6324 5.20171 16.694 5.4541 17.0225C5.89339 17.5941 6.40593 18.1066 6.97754 18.5459C7.30598 18.7983 7.36763 19.2692 7.11523 19.5977C6.8628 19.9259 6.39184 19.9877 6.06348 19.7354C5.38851 19.2166 4.78337 18.6115 4.26465 17.9365C4.01232 17.6082 4.07411 17.1372 4.40234 16.8848ZM18.5459 17.0225C18.7983 16.694 19.2692 16.6324 19.5977 16.8848C19.9259 17.1372 19.9877 17.6082 19.7354 17.9365C19.2166 18.6115 18.6115 19.2166 17.9365 19.7354C17.6082 19.9877 17.1372 19.9259 16.8848 19.5977C16.6324 19.2692 16.694 18.7983 17.0225 18.5459C17.5941 18.1066 18.1066 17.5941 18.5459 17.0225ZM2.25 12C2.25 11.5691 2.27767 11.1443 2.33203 10.7275C2.3856 10.3169 2.76219 10.0276 3.17285 10.0811C3.58359 10.1346 3.87291 10.5111 3.81934 10.9219C3.77337 11.2744 3.75 11.6343 3.75 12C3.75 12.3657 3.77337 12.7256 3.81934 13.0781C3.87291 13.4889 3.58359 13.8654 3.17285 13.9189C2.76219 13.9724 2.3856 13.6831 2.33203 13.2725C2.27767 12.8557 2.25 12.4309 2.25 12ZM20.25 12C20.25 11.6343 20.2266 11.2744 20.1807 10.9219C20.1271 10.5111 20.4164 10.1346 20.8271 10.0811C21.2378 10.0276 21.6144 10.3169 21.668 10.7275C21.7223 11.1443 21.75 11.5691 21.75 12C21.75 12.4309 21.7223 12.8557 21.668 13.2725C21.6144 13.6831 21.2378 13.9724 20.8271 13.9189C20.4164 13.8654 20.1271 13.4889 20.1807 13.0781C20.2266 12.7256 20.25 12.3657 20.25 12ZM6.06348 4.26465C6.39184 4.01232 6.8628 4.07411 7.11523 4.40234C7.36763 4.73078 7.30598 5.20171 6.97754 5.4541C6.40593 5.89339 5.89339 6.40593 5.4541 6.97754C5.20171 7.30598 4.73078 7.36763 4.40234 7.11523C4.07411 6.8628 4.01232 6.39184 4.26465 6.06348C4.78337 5.38851 5.38851 4.78337 6.06348 4.26465ZM16.8848 4.40234C17.1372 4.07411 17.6082 4.01232 17.9365 4.26465C18.6115 4.78337 19.2166 5.38851 19.7354 6.06348C19.9877 6.39184 19.9259 6.8628 19.5977 7.11523C19.2692 7.36763 18.7983 7.30598 18.5459 6.97754C18.1066 6.40593 17.5941 5.89339 17.0225 5.4541C16.694 5.20171 16.6324 4.73078 16.8848 4.40234ZM12 2.25C12.4309 2.25 12.8557 2.27767 13.2725 2.33203C13.6831 2.3856 13.9724 2.76219 13.9189 3.17285C13.8654 3.58359 13.4889 3.87291 13.0781 3.81934C12.7256 3.77337 12.3657 3.75 12 3.75C11.6343 3.75 11.2744 3.77337 10.9219 3.81934C10.5111 3.87291 10.1346 3.58359 10.0811 3.17285C10.0276 2.76219 10.3169 2.3856 10.7275 2.33203C11.1443 2.27767 11.5691 2.25 12 2.25Z" fill="black"/>
</svg>
