<svg width="24" height="24" viewBox="0 0 24 24" fill="none" xmlns="http://www.w3.org/2000/svg">
<path d="M18.4697 9.96973C18.7626 9.67683 19.2374 9.67683 19.5303 9.96973L22.1768 12.6162C22.6649 13.1044 22.6649 13.8956 22.1768 14.3838L19.5303 17.0303C19.2374 17.3232 18.7626 17.3232 18.4697 17.0303C18.1768 16.7374 18.1768 16.2626 18.4697 15.9697L20.1895 14.25H13C12.5858 14.25 12.25 13.9142 12.25 13.5C12.25 13.0858 12.5858 12.75 13 12.75H20.1895L18.4697 11.0303C18.1768 10.7374 18.1768 10.2626 18.4697 9.96973ZM18.75 7V6.5C18.75 5.80964 18.1904 5.25 17.5 5.25H16.6191C16.31 6.12343 15.4793 6.75 14.5 6.75H9.5C8.52067 6.75 7.68999 6.12343 7.38086 5.25H6.5C5.80964 5.25 5.25 5.80964 5.25 6.5V19C5.25 19.6904 5.80964 20.25 6.5 20.25H18.5C18.6381 20.25 18.75 20.1381 18.75 20C18.75 19.5858 19.0858 19.25 19.5 19.25C19.9142 19.25 20.25 19.5858 20.25 20C20.25 20.9665 19.4665 21.75 18.5 21.75H6.5C4.98122 21.75 3.75 20.5188 3.75 19V6.5C3.75 4.98122 4.98122 3.75 6.5 3.75H7.38086C7.68999 2.87657 8.52067 2.25 9.5 2.25H14.5C15.4793 2.25 16.31 2.87657 16.6191 3.75H17.5C19.0188 3.75 20.25 4.98122 20.25 6.5V7C20.25 7.41421 19.9142 7.75 19.5 7.75C19.0858 7.75 18.75 7.41421 18.75 7ZM9.5 3.75C9.08579 3.75 8.75 4.08579 8.75 4.5C8.75 4.91421 9.08579 5.25 9.5 5.25H14.5C14.9142 5.25 15.25 4.91421 15.25 4.5C15.25 4.08579 14.9142 3.75 14.5 3.75H9.5Z" fill="black"/>
</svg>
