<svg width="24" height="24" viewBox="0 0 24 24" fill="none" xmlns="http://www.w3.org/2000/svg">
<path d="M18.75 6.5C18.75 5.80964 18.1904 5.25 17.5 5.25H16.6191C16.31 6.12343 15.4793 6.75 14.5 6.75H9.5C8.52067 6.75 7.68999 6.12343 7.38086 5.25H6.5C5.80964 5.25 5.25 5.80964 5.25 6.5V19C5.25 19.6904 5.80964 20.25 6.5 20.25H17.5C18.1904 20.25 18.75 19.6904 18.75 19V6.5ZM9.5 3.75C9.08579 3.75 8.75 4.08579 8.75 4.5C8.75 4.91421 9.08579 5.25 9.5 5.25H14.5C14.9142 5.25 15.25 4.91421 15.25 4.5C15.25 4.08579 14.9142 3.75 14.5 3.75H9.5ZM20.25 19C20.25 20.5188 19.0188 21.75 17.5 21.75H6.5C4.98122 21.75 3.75 20.5188 3.75 19V6.5C3.75 4.98122 4.98122 3.75 6.5 3.75H7.38086C7.68999 2.87657 8.52067 2.25 9.5 2.25H14.5C15.4793 2.25 16.31 2.87657 16.6191 3.75H17.5C19.0188 3.75 20.25 4.98122 20.25 6.5V19Z" fill="black"/>
</svg>
