<svg width="24" height="24" viewBox="0 0 24 24" fill="none" xmlns="http://www.w3.org/2000/svg">
<path d="M18.75 6.5C18.75 5.80964 18.1904 5.25 17.5 5.25H16.6191C16.31 6.12343 15.4793 6.75 14.5 6.75H9.5C8.52067 6.75 7.68999 6.12343 7.38086 5.25H6.5C5.80964 5.25 5.25 5.80964 5.25 6.5V19C5.25 19.6904 5.80964 20.25 6.5 20.25H17.5C18.1904 20.25 18.75 19.6904 18.75 19V6.5ZM8.50098 16.25C8.91519 16.25 9.25098 16.5858 9.25098 17C9.25098 17.4142 8.91519 17.75 8.50098 17.75H8.5C8.08579 17.75 7.75 17.4142 7.75 17C7.75 16.5858 8.08579 16.25 8.5 16.25H8.50098ZM15.5 16.25C15.9142 16.25 16.25 16.5858 16.25 17C16.25 17.4142 15.9142 17.75 15.5 17.75H12C11.5858 17.75 11.25 17.4142 11.25 17C11.25 16.5858 11.5858 16.25 12 16.25H15.5ZM8.50098 12.75C8.91519 12.75 9.25098 13.0858 9.25098 13.5C9.25098 13.9142 8.91519 14.25 8.50098 14.25H8.5C8.08579 14.25 7.75 13.9142 7.75 13.5C7.75 13.0858 8.08579 12.75 8.5 12.75H8.50098ZM15.5 12.75C15.9142 12.75 16.25 13.0858 16.25 13.5C16.25 13.9142 15.9142 14.25 15.5 14.25H12C11.5858 14.25 11.25 13.9142 11.25 13.5C11.25 13.0858 11.5858 12.75 12 12.75H15.5ZM8.50098 9.25C8.91519 9.25 9.25098 9.58579 9.25098 10C9.25098 10.4142 8.91519 10.75 8.50098 10.75H8.5C8.08579 10.75 7.75 10.4142 7.75 10C7.75 9.58579 8.08579 9.25 8.5 9.25H8.50098ZM15.5 9.25C15.9142 9.25 16.25 9.58579 16.25 10C16.25 10.4142 15.9142 10.75 15.5 10.75H12C11.5858 10.75 11.25 10.4142 11.25 10C11.25 9.58579 11.5858 9.25 12 9.25H15.5ZM9.5 3.75C9.08579 3.75 8.75 4.08579 8.75 4.5C8.75 4.91421 9.08579 5.25 9.5 5.25H14.5C14.9142 5.25 15.25 4.91421 15.25 4.5C15.25 4.08579 14.9142 3.75 14.5 3.75H9.5ZM20.25 19C20.25 20.5188 19.0188 21.75 17.5 21.75H6.5C4.98122 21.75 3.75 20.5188 3.75 19V6.5C3.75 4.98122 4.98122 3.75 6.5 3.75H7.38086C7.68999 2.87657 8.52067 2.25 9.5 2.25H14.5C15.4793 2.25 16.31 2.87657 16.6191 3.75H17.5C19.0188 3.75 20.25 4.98122 20.25 6.5V19Z" fill="black"/>
</svg>
