<svg width="24" height="24" viewBox="0 0 24 24" fill="none" xmlns="http://www.w3.org/2000/svg">
<path d="M3.75 12C3.75 7.44365 7.44365 3.75 12 3.75C16.5563 3.75 20.25 7.44365 20.25 12C20.25 16.5563 16.5563 20.25 12 20.25C7.44365 20.25 3.75 16.5563 3.75 12ZM2.25 12C2.25 17.3848 6.61522 21.75 12 21.75C17.3848 21.75 21.75 17.3848 21.75 12C21.75 6.61522 17.3848 2.25 12 2.25C6.61522 2.25 2.25 6.61522 2.25 12ZM11.25 11.8965C11.25 12.1617 11.3554 12.416 11.543 12.6035L14.2979 15.3584C14.5907 15.6513 15.0655 15.6513 15.3584 15.3584C15.6512 15.0655 15.6513 14.5907 15.3584 14.2979L12.75 11.6895V7C12.75 6.58581 12.4142 6.25003 12 6.25C11.5859 6.25006 11.25 6.58584 11.25 7V11.8965Z" fill="black"/>
</svg>
