<svg width="24" height="24" viewBox="0 0 24 24" fill="none" xmlns="http://www.w3.org/2000/svg">
<path d="M5.10363 5.10546C8.91125 1.29792 15.0851 1.29787 18.8927 5.10546C22.7002 8.91306 22.7002 15.0869 18.8927 18.8945C15.0851 22.7021 8.91125 22.7021 5.10363 18.8945C3.25372 17.0446 2.30226 14.6344 2.25012 12.2109C2.24122 11.7968 2.57037 11.4532 2.98449 11.4443C3.39839 11.4357 3.74122 11.7647 3.75012 12.1787C3.79428 14.2311 4.59847 16.2683 6.16418 17.834C9.38587 21.0556 14.6093 21.0554 17.8312 17.834C21.053 14.6122 21.053 9.38783 17.8312 6.16601C14.6093 2.94463 9.38587 2.94439 6.16418 6.16601C6.12045 6.20974 6.07878 6.25536 6.03625 6.2998H7.99816C8.41217 6.29987 8.74792 6.63583 8.74816 7.0498C8.74816 7.46397 8.41231 7.79972 7.99816 7.7998H4.71984C4.02959 7.79967 3.46984 7.24007 3.46984 6.5498V3.2705C3.46984 2.85637 3.80574 2.52063 4.21984 2.5205C4.63406 2.5205 4.96984 2.85629 4.96984 3.2705V5.24511C5.01441 5.19877 5.05797 5.15112 5.10363 5.10546ZM11.2501 6.99999C11.2501 6.58578 11.5859 6.24999 12.0001 6.24999C12.4143 6.25007 12.7501 6.58582 12.7501 6.99999V11.25H16.0001C16.4143 11.2501 16.7501 11.5858 16.7501 12C16.7501 12.4142 16.4143 12.7499 16.0001 12.75H12.2501C11.6978 12.75 11.2501 12.3023 11.2501 11.75V6.99999Z" fill="black"/>
</svg>
