<svg width="24" height="24" viewBox="0 0 24 24" fill="none" xmlns="http://www.w3.org/2000/svg">
<path d="M5.10546 5.10546C8.91308 1.29785 15.0869 1.29785 18.8945 5.10546C18.9402 5.15115 18.9837 5.19875 19.0283 5.24511V3.2705C19.0283 2.85629 19.3641 2.5205 19.7783 2.5205C20.1924 2.5207 20.5283 2.85641 20.5283 3.2705V6.5498C20.5283 7.24003 19.9685 7.7996 19.2783 7.7998H16C15.5858 7.7998 15.25 7.46401 15.25 7.0498C15.2502 6.63579 15.5859 6.2998 16 6.2998H17.9619C17.9194 6.25534 17.8777 6.20976 17.834 6.16601C14.6122 2.94419 9.38784 2.94419 6.16601 6.16601C2.94419 9.38784 2.94419 14.6122 6.16601 17.834C9.38784 21.0558 14.6122 21.0558 17.834 17.834C19.3997 16.2683 20.2039 14.2311 20.248 12.1787C20.2569 11.7647 20.5997 11.4356 21.0137 11.4443C21.4278 11.4532 21.7569 11.7968 21.748 12.2109C21.6959 14.6344 20.7444 17.0446 18.8945 18.8945C15.0869 22.7021 8.91308 22.7021 5.10546 18.8945C1.29785 15.0869 1.29785 8.91308 5.10546 5.10546ZM11.25 7C11.25 6.58578 11.5858 6.25 12 6.25C12.4142 6.25 12.75 6.58578 12.75 7V11.25H16C16.4142 11.25 16.75 11.5858 16.75 12C16.75 12.4142 16.4142 12.75 16 12.75H12.25C11.6977 12.75 11.25 12.3023 11.25 11.75V7Z" fill="black"/>
</svg>
