<svg width="24" height="24" viewBox="0 0 24 24" fill="none" xmlns="http://www.w3.org/2000/svg">
<path d="M9.25 5C9.25 4.30964 8.69036 3.75 8 3.75H5C4.30964 3.75 3.75 4.30964 3.75 5V19C3.75 19.6904 4.30964 20.25 5 20.25H8C8.69036 20.25 9.25 19.6904 9.25 19V5ZM20.25 5C20.25 4.30964 19.6904 3.75 19 3.75H16C15.3096 3.75 14.75 4.30964 14.75 5V19C14.75 19.6904 15.3096 20.25 16 20.25H19C19.6904 20.25 20.25 19.6904 20.25 19V5ZM10.75 19C10.75 20.5188 9.51878 21.75 8 21.75H5C3.48122 21.75 2.25 20.5188 2.25 19V5C2.25 3.48122 3.48122 2.25 5 2.25H8C9.51878 2.25 10.75 3.48122 10.75 5V19ZM21.75 19C21.75 20.5188 20.5188 21.75 19 21.75H16C14.4812 21.75 13.25 20.5188 13.25 19V5C13.25 3.48122 14.4812 2.25 16 2.25H19C20.5188 2.25 21.75 3.48122 21.75 5V19Z" fill="black"/>
</svg>
