<svg width="24" height="24" viewBox="0 0 24 24" fill="none" xmlns="http://www.w3.org/2000/svg">
<path d="M20.25 9C20.25 8.30964 19.6904 7.75 19 7.75H9C8.30964 7.75 7.75 8.30964 7.75 9V19C7.75 19.6904 8.30964 20.25 9 20.25H19C19.6904 20.25 20.25 19.6904 20.25 19V9ZM16.25 5C16.25 4.30964 15.6904 3.75 15 3.75H5C4.30964 3.75 3.75 4.30964 3.75 5V15C3.75 15.6904 4.30964 16.25 5 16.25H6.25V9C6.25 7.48122 7.48122 6.25 9 6.25H16.25V5ZM17.75 6.25H19C20.5188 6.25 21.75 7.48122 21.75 9V19C21.75 20.5188 20.5188 21.75 19 21.75H9C7.48122 21.75 6.25 20.5188 6.25 19V17.75H5C3.48122 17.75 2.25 16.5188 2.25 15V5C2.25 3.48122 3.48122 2.25 5 2.25H15C16.5188 2.25 17.75 3.48122 17.75 5V6.25Z" fill="black"/>
</svg>
