<svg width="24" height="24" viewBox="0 0 24 24" fill="none" xmlns="http://www.w3.org/2000/svg">
<path d="M20.25 9.27344L12.6074 13.5205C12.2299 13.7302 11.7701 13.7302 11.3926 13.5205L3.75 9.27344V17.5C3.75 18.1904 4.30964 18.75 5 18.75H19C19.6904 18.75 20.25 18.1904 20.25 17.5V9.27344ZM20.25 6.5C20.25 5.80964 19.6904 5.25 19 5.25H5C4.30964 5.25 3.75 5.80964 3.75 6.5V7.55859L12 12.1426L20.25 7.55859V6.5ZM21.75 17.5C21.75 19.0188 20.5188 20.25 19 20.25H5C3.48122 20.25 2.25 19.0188 2.25 17.5V6.5C2.25 4.98122 3.48122 3.75 5 3.75H19C20.5188 3.75 21.75 4.98122 21.75 6.5V17.5Z" fill="black"/>
</svg>
