<svg width="24" height="24" viewBox="0 0 24 24" fill="none" xmlns="http://www.w3.org/2000/svg">
<path d="M20.25 9.2742L12.6074 13.5203C12.2299 13.73 11.7701 13.73 11.3926 13.5203L3.75 9.2742V17.4998C3.75 18.1901 4.30964 18.7498 5 18.7498H19C19.6904 18.7498 20.25 18.1901 20.25 17.4998V9.2742ZM12.3955 3.92264C12.1389 3.83711 11.8611 3.83711 11.6045 3.92264L4.60449 6.25565C4.09427 6.42581 3.75014 6.90336 3.75 7.44119V7.55838L12 12.1424L20.25 7.55838V7.44119C20.2499 6.90336 19.9057 6.42581 19.3955 6.25565L12.3955 3.92264ZM21.75 17.4998C21.75 19.0186 20.5188 20.2498 19 20.2498H5C3.48122 20.2498 2.25 19.0186 2.25 17.4998V7.44119C2.25014 6.25764 3.00802 5.20708 4.13086 4.8328L11.1309 2.49979C11.6952 2.31176 12.3048 2.31176 12.8691 2.49979L19.8691 4.8328C20.992 5.20708 21.7499 6.25764 21.75 7.44119V17.4998Z" fill="black"/>
</svg>
