<svg width="24" height="24" viewBox="0 0 24 24" fill="none" xmlns="http://www.w3.org/2000/svg">
<path d="M3.75 19V5C3.75 3.48122 4.98122 2.25 6.5 2.25H13.6719C14.4011 2.25008 15.1006 2.54001 15.6162 3.05566L19.4443 6.88379C19.96 7.39944 20.2499 8.09889 20.25 8.82812V19C20.25 20.5188 19.0188 21.75 17.5 21.75H6.5C4.98122 21.75 3.75 20.5188 3.75 19ZM11.25 10.5C11.25 10.0858 11.5858 9.75 12 9.75C12.4142 9.75 12.75 10.0858 12.75 10.5V15.1895L14.4697 13.4697C14.7626 13.1768 15.2374 13.1768 15.5303 13.4697C15.8232 13.7626 15.8232 14.2374 15.5303 14.5303L12.8838 17.1768C12.3956 17.6649 11.6044 17.6649 11.1162 17.1768L8.46973 14.5303C8.17683 14.2374 8.17683 13.7626 8.46973 13.4697C8.76262 13.1768 9.23738 13.1768 9.53027 13.4697L11.25 15.1895V10.5ZM15.25 7.25H17.6895L15.25 4.81055V7.25ZM5.25 19C5.25 19.6904 5.80964 20.25 6.5 20.25H17.5C18.1904 20.25 18.75 19.6904 18.75 19V8.82812C18.75 8.80196 18.7477 8.77596 18.7461 8.75H15C14.3096 8.75 13.75 8.19036 13.75 7.5V3.75293C13.7241 3.7513 13.698 3.75001 13.6719 3.75H6.5C5.80964 3.75 5.25 4.30964 5.25 5V19Z" fill="black"/>
</svg>
