<svg width="24" height="24" viewBox="0 0 24 24" fill="none" xmlns="http://www.w3.org/2000/svg">
<path d="M3.75 19V5C3.75 3.48122 4.98122 2.25 6.5 2.25H13.6719C14.4011 2.25008 15.1006 2.54001 15.6162 3.05566L19.4443 6.88379C19.96 7.39944 20.2499 8.09889 20.25 8.82812V19C20.25 20.5188 19.0188 21.75 17.5 21.75H6.5C4.98122 21.75 3.75 20.5188 3.75 19ZM11.25 17V14.75H9C8.58579 14.75 8.25 14.4142 8.25 14C8.25 13.5858 8.58579 13.25 9 13.25H11.25V11C11.25 10.5858 11.5858 10.25 12 10.25C12.4142 10.25 12.75 10.5858 12.75 11V13.25H15C15.4142 13.25 15.75 13.5858 15.75 14C15.75 14.4142 15.4142 14.75 15 14.75H12.75V17C12.75 17.4142 12.4142 17.75 12 17.75C11.5858 17.75 11.25 17.4142 11.25 17ZM15.25 7.25H17.6895L15.25 4.81055V7.25ZM5.25 19C5.25 19.6904 5.80964 20.25 6.5 20.25H17.5C18.1904 20.25 18.75 19.6904 18.75 19V8.82812C18.75 8.80196 18.7477 8.77596 18.7461 8.75H15C14.3096 8.75 13.75 8.19036 13.75 7.5V3.75293C13.7241 3.7513 13.698 3.75001 13.6719 3.75H6.5C5.80964 3.75 5.25 4.30964 5.25 5V19Z" fill="black"/>
</svg>
