<svg width="24" height="24" viewBox="0 0 24 24" fill="none" xmlns="http://www.w3.org/2000/svg">
<path d="M3.75 19V5C3.75 3.48122 4.98122 2.25 6.5 2.25H13.6719C14.4011 2.25008 15.1006 2.54001 15.6162 3.05566L19.4443 6.88379C19.96 7.39944 20.2499 8.09889 20.25 8.82812V19C20.25 20.5188 19.0188 21.75 17.5 21.75H6.5C4.98122 21.75 3.75 20.5188 3.75 19ZM13.5908 11.3486C13.8837 11.0557 14.3595 11.0557 14.6523 11.3486C14.9448 11.6415 14.945 12.1164 14.6523 12.4092L13.0605 14L14.6523 15.5908C14.945 15.8836 14.9448 16.3585 14.6523 16.6514C14.3595 16.9443 13.8837 16.9443 13.5908 16.6514L12 15.0605L10.4092 16.6514C10.1163 16.9443 9.64153 16.9443 9.34863 16.6514C9.05586 16.3585 9.05578 15.8837 9.34863 15.5908L10.9395 14L9.34863 12.4092C9.05578 12.1163 9.05586 11.6415 9.34863 11.3486C9.64153 11.0557 10.1163 11.0557 10.4092 11.3486L12 12.9385L13.5908 11.3486ZM15.25 7.25H17.6895L15.25 4.81055V7.25ZM5.25 19C5.25 19.6904 5.80964 20.25 6.5 20.25H17.5C18.1904 20.25 18.75 19.6904 18.75 19V8.82812C18.75 8.80196 18.7477 8.77596 18.7461 8.75H15C14.3096 8.75 13.75 8.19036 13.75 7.5V3.75293C13.7241 3.7513 13.698 3.75001 13.6719 3.75H6.5C5.80964 3.75 5.25 4.30964 5.25 5V19Z" fill="black"/>
</svg>
