<svg width="24" height="24" viewBox="0 0 24 24" fill="none" xmlns="http://www.w3.org/2000/svg">
<path d="M2.25 18V6C2.25 4.48122 3.48122 3.25 5 3.25H8.5C9.36552 3.25 10.1808 3.65724 10.7002 4.34961L11 4.75L11.0947 4.8623C11.3291 5.10844 11.6559 5.25 12 5.25H19C20.5188 5.25 21.75 6.48122 21.75 8V18C21.75 19.5188 20.5188 20.75 19 20.75H5C3.48122 20.75 2.25 19.5188 2.25 18ZM17 9.25C17.4142 9.25 17.75 9.58579 17.75 10C17.75 10.4142 17.4142 10.75 17 10.75H7C6.58579 10.75 6.25 10.4142 6.25 10C6.25 9.58579 6.58579 9.25 7 9.25H17ZM3.75 18C3.75 18.6904 4.30964 19.25 5 19.25H19C19.6904 19.25 20.25 18.6904 20.25 18V8C20.25 7.30964 19.6904 6.75 19 6.75H12C11.1345 6.75 10.3192 6.34276 9.7998 5.65039L9.5 5.25C9.26393 4.93524 8.89345 4.75 8.5 4.75H5C4.30964 4.75 3.75 5.30964 3.75 6V18Z" fill="black"/>
</svg>
