<svg width="24" height="24" viewBox="0 0 24 24" fill="none" xmlns="http://www.w3.org/2000/svg">
<path d="M2.25 6C2.25 4.48122 3.48122 3.25 5 3.25H8.5C9.36552 3.25 10.1808 3.65724 10.7002 4.34961L11 4.75L11.0947 4.8623C11.3291 5.10844 11.6559 5.25 12 5.25H18C19.5188 5.25 20.75 6.48122 20.75 8V9.25H20.7803C21.8844 9.25005 22.7124 10.2601 22.4961 11.3428L21.0566 18.5391C20.7996 19.8245 19.6712 20.75 18.3604 20.75H5C3.48122 20.75 2.25 19.5188 2.25 18V6ZM3.75 18C3.75 18.6904 4.30964 19.25 5 19.25H18.3604C18.9562 19.25 19.4691 18.8294 19.5859 18.2451L21.0254 11.0488C21.0562 10.8942 20.9379 10.75 20.7803 10.75H10.1641C9.56149 10.75 9.04429 11.18 8.93457 11.7725L8.12598 16.1367C8.05046 16.5439 7.65917 16.8127 7.25195 16.7373C6.84488 16.6617 6.57597 16.2704 6.65137 15.8633L7.45996 11.499C7.70146 10.1957 8.8385 9.25 10.1641 9.25H19.25V8C19.25 7.30964 18.6904 6.75 18 6.75H12C11.1345 6.75 10.3192 6.34276 9.7998 5.65039L9.5 5.25C9.26393 4.93524 8.89345 4.75 8.5 4.75H5C4.30964 4.75 3.75 5.30964 3.75 6V18Z" fill="black"/>
</svg>
