<svg width="24" height="24" viewBox="0 0 24 24" fill="none" xmlns="http://www.w3.org/2000/svg">
<path d="M19.2499 10.8688L17.7499 11.693V16.9049L19.1229 16.1335C19.2016 16.0892 19.2499 16.005 19.2499 15.9147V10.8688ZM12.121 3.92252C12.0459 3.88126 11.9548 3.88127 11.8797 3.92252L3.95494 8.28091C3.78224 8.3759 3.78224 8.62441 3.95494 8.71939L11.8797 13.0778C11.9547 13.119 12.046 13.119 12.121 13.0778L15.4442 11.2497L11.6385 9.15689C11.2757 8.95723 11.143 8.50123 11.3426 8.13834C11.5422 7.77558 11.9983 7.64313 12.3612 7.84244L16.9999 10.3932L20.0458 8.71939C20.2183 8.62441 20.2182 8.37597 20.0458 8.28091L12.121 3.92252ZM4.74986 15.9147C4.74986 16.005 4.79907 16.0892 4.87779 16.1335L11.8778 20.071C11.9538 20.1135 12.0469 20.1137 12.1229 20.071L16.2499 17.7487V12.5182L12.8436 14.3922C12.3186 14.681 11.6822 14.6809 11.1571 14.3922L4.74986 10.8688V15.9147ZM20.7499 15.9147C20.7499 16.5468 20.4091 17.1301 19.8583 17.4401L17.7499 18.6256V20.4997C17.7499 20.9139 17.4141 21.2497 16.9999 21.2497C16.5857 21.2496 16.2499 20.9138 16.2499 20.4997V19.4694L12.8583 21.3776C12.3256 21.6772 11.6751 21.6772 11.1424 21.3776L4.14244 17.4401C3.5914 17.1301 3.24986 16.5469 3.24986 15.9147V10.0436L3.2313 10.0338C2.02263 9.36897 2.02272 7.63141 3.2313 6.96646L11.1571 2.60806C11.6822 2.31937 12.3185 2.31928 12.8436 2.60806L20.7684 6.96646C21.9773 7.63133 21.9773 9.36897 20.7684 10.0338L20.7499 10.0436V15.9147Z" fill="black"/>
</svg>
