<svg width="24" height="24" viewBox="0 0 24 24" fill="none" xmlns="http://www.w3.org/2000/svg">
<path d="M9.25 16C9.25 15.3096 8.69036 14.75 8 14.75H5C4.30964 14.75 3.75 15.3096 3.75 16V19C3.75 19.6904 4.30964 20.25 5 20.25H8C8.69036 20.25 9.25 19.6904 9.25 19V16ZM19.9697 14.9697C20.2626 14.6768 20.7374 14.6768 21.0303 14.9697C21.3232 15.2626 21.3232 15.7374 21.0303 16.0303L17.207 19.8535C16.8165 20.244 16.1835 20.244 15.793 19.8535L13.9697 18.0303C13.6768 17.7374 13.6768 17.2626 13.9697 16.9697C14.2626 16.6768 14.7374 16.6768 15.0303 16.9697L16.5 18.4395L19.9697 14.9697ZM9.25 5C9.25 4.30964 8.69036 3.75 8 3.75H5C4.30964 3.75 3.75 4.30964 3.75 5V8C3.75 8.69036 4.30964 9.25 5 9.25H8C8.69036 9.25 9.25 8.69036 9.25 8V5ZM20.25 5C20.25 4.30964 19.6904 3.75 19 3.75H16C15.3096 3.75 14.75 4.30964 14.75 5V8C14.75 8.69036 15.3096 9.25 16 9.25H19C19.6904 9.25 20.25 8.69036 20.25 8V5ZM10.75 19C10.75 20.5188 9.51878 21.75 8 21.75H5C3.48122 21.75 2.25 20.5188 2.25 19V16C2.25 14.4812 3.48122 13.25 5 13.25H8C9.51878 13.25 10.75 14.4812 10.75 16V19ZM10.75 8C10.75 9.51878 9.51878 10.75 8 10.75H5C3.48122 10.75 2.25 9.51878 2.25 8V5C2.25 3.48122 3.48122 2.25 5 2.25H8C9.51878 2.25 10.75 3.48122 10.75 5V8ZM21.75 8C21.75 9.51878 20.5188 10.75 19 10.75H16C14.4812 10.75 13.25 9.51878 13.25 8V5C13.25 3.48122 14.4812 2.25 16 2.25H19C20.5188 2.25 21.75 3.48122 21.75 5V8Z" fill="black"/>
</svg>
