<svg width="24" height="24" viewBox="0 0 24 24" fill="none" xmlns="http://www.w3.org/2000/svg">
<path d="M9.75 20.2498H14.25V14.7498H9.75V20.2498ZM15.75 20.2498H19C19.6904 20.2498 20.25 19.6902 20.25 18.9998V9.1766C20.2499 8.72279 20.0041 8.30428 19.6074 8.08383L12.6074 4.19516C12.2299 3.98542 11.7701 3.98542 11.3926 4.19516L4.39258 8.08383C3.9959 8.30428 3.75008 8.72279 3.75 9.1766V18.9998C3.75 19.6902 4.30964 20.2498 5 20.2498H8.25V14.4998C8.25009 13.8096 8.8097 13.2498 9.5 13.2498H14.5C15.1903 13.2498 15.7499 13.8096 15.75 14.4998V20.2498ZM21.75 18.9998C21.75 20.5186 20.5188 21.7498 19 21.7498H5C3.48122 21.7498 2.25 20.5186 2.25 18.9998V9.1766C2.25008 8.17816 2.79138 7.25834 3.66406 6.77328L10.6641 2.88363C11.4946 2.42221 12.5054 2.42221 13.3359 2.88363L20.3359 6.77328C21.2086 7.25834 21.7499 8.17816 21.75 9.1766V18.9998Z" fill="black"/>
</svg>
