<svg width="24" height="24" viewBox="0 0 24 24" fill="none" xmlns="http://www.w3.org/2000/svg">
<path d="M20.25 13.75H16.8281C16.4967 13.7501 16.1787 13.8819 15.9443 14.1162L15.1162 14.9443C14.6006 15.46 13.9011 15.7499 13.1719 15.75H10.8281C10.0989 15.7499 9.39944 15.46 8.88379 14.9443L8.05566 14.1162C7.82131 13.8819 7.50329 13.7501 7.17188 13.75H3.75V18C3.75 18.6904 4.30964 19.25 5 19.25H19C19.6904 19.25 20.25 18.6904 20.25 18V13.75ZM11.25 3C11.25 2.58579 11.5858 2.25 12 2.25C12.4142 2.25 12.75 2.58579 12.75 3V9.18945L13.9697 7.96973C14.2626 7.67683 14.7374 7.67683 15.0303 7.96973C15.3232 8.26262 15.3232 8.73738 15.0303 9.03027L12.8838 11.1768C12.3956 11.6649 11.6044 11.6649 11.1162 11.1768L8.96973 9.03027C8.67683 8.73738 8.67683 8.26262 8.96973 7.96973C9.26262 7.67683 9.73738 7.67683 10.0303 7.96973L11.25 9.18945V3ZM21.75 18C21.75 19.5188 20.5188 20.75 19 20.75H5C3.48122 20.75 2.25 19.5188 2.25 18V13.3242C2.25002 13.1746 2.26193 13.0251 2.28613 12.8779C2.30972 12.7346 2.34552 12.5933 2.3916 12.4551L3.83301 8.13086C4.20731 7.00795 5.25777 6.25005 6.44141 6.25H7C7.41421 6.25 7.75 6.58579 7.75 7C7.75 7.41421 7.41421 7.75 7 7.75H6.44141C5.90351 7.75005 5.42607 8.09424 5.25586 8.60449L4.04102 12.25H7.17188C7.90111 12.2501 8.60056 12.54 9.11621 13.0557L9.94434 13.8838C10.1787 14.1181 10.4967 14.2499 10.8281 14.25H13.1719C13.5033 14.2499 13.8213 14.1181 14.0557 13.8838L14.8838 13.0557C15.3994 12.54 16.0989 12.2501 16.8281 12.25H19.959L18.7441 8.60449C18.5739 8.09424 18.0965 7.75005 17.5586 7.75H17C16.5858 7.75 16.25 7.41421 16.25 7C16.25 6.58579 16.5858 6.25 17 6.25H17.5586C18.7422 6.25005 19.7927 7.00795 20.167 8.13086L21.6084 12.4551C21.632 12.526 21.6532 12.5975 21.6709 12.6699C21.7201 12.7698 21.75 12.8811 21.75 13C21.75 13.0362 21.7462 13.0716 21.7412 13.1064C21.747 13.1788 21.75 13.2515 21.75 13.3242V18Z" fill="black"/>
</svg>
