<svg width="24" height="24" viewBox="0 0 24 24" fill="none" xmlns="http://www.w3.org/2000/svg">
<path d="M20.25 13.7501H16.8281C16.4967 13.7501 16.1787 13.8819 15.9443 14.1163L15.1162 14.9444C14.6006 15.46 13.9011 15.75 13.1719 15.7501H10.8281C10.0989 15.75 9.39944 15.4601 8.88379 14.9444L8.05566 14.1163C7.82131 13.8819 7.50329 13.7501 7.17188 13.7501H3.75V18.0001C3.75004 18.6904 4.30967 19.2501 5 19.2501H19C19.6903 19.2501 20.25 18.6904 20.25 18.0001V13.7501ZM11.25 10.0001V3.81061L10.0303 5.03033C9.73739 5.32318 9.26261 5.32318 8.96973 5.03033C8.67685 4.73745 8.67687 4.26268 8.96973 3.96979L11.1162 1.8233L11.2109 1.73737C11.7019 1.33688 12.4261 1.36564 12.8838 1.8233L15.0303 3.96979C15.3231 4.26268 15.3232 4.73745 15.0303 5.03033C14.7374 5.32318 14.2626 5.32318 13.9697 5.03033L12.75 3.81061V10.0001C12.75 10.4142 12.4142 10.7501 12 10.7501C11.5858 10.7501 11.25 10.4142 11.25 10.0001ZM21.75 18.0001C21.75 19.5188 20.5188 20.7501 19 20.7501H5C3.48124 20.7501 2.25004 19.5188 2.25 18.0001V13.3243C2.25001 13.1746 2.26193 13.0252 2.28613 12.878C2.30972 12.7347 2.34552 12.5934 2.3916 12.4551L3.83301 8.12994C4.20745 7.0073 5.25794 6.25011 6.44141 6.25006H7C7.41421 6.25006 7.75 6.58585 7.75 7.00006C7.74996 7.41424 7.41419 7.75006 7 7.75006H6.44141C5.90348 7.75011 5.42605 8.09427 5.25586 8.60455L4.04102 12.2501H7.17188C7.90111 12.2501 8.60056 12.5401 9.11621 13.0557L9.94434 13.8839C10.1787 14.1182 10.4967 14.25 10.8281 14.2501H13.1719C13.5033 14.25 13.8213 14.1182 14.0557 13.8839L14.8838 13.0557C15.3994 12.5401 16.0989 12.2501 16.8281 12.2501H19.959L18.7441 8.60455C18.574 8.09427 18.0965 7.75011 17.5586 7.75006H17C16.5858 7.75006 16.25 7.41424 16.25 7.00006C16.25 6.58585 16.5858 6.25006 17 6.25006H17.5586C18.7421 6.25011 19.7925 7.0073 20.167 8.12994L21.6084 12.4551C21.632 12.526 21.6532 12.5976 21.6709 12.67C21.7201 12.7698 21.75 12.8812 21.75 13.0001C21.75 13.0359 21.7461 13.071 21.7412 13.1055C21.747 13.1782 21.75 13.2512 21.75 13.3243V18.0001Z" fill="black"/>
</svg>
