<svg width="24" height="24" viewBox="0 0 24 24" fill="none" xmlns="http://www.w3.org/2000/svg">
<path d="M10.1686 2.54259C10.9716 2.45532 11.4913 3.34322 11.1051 4.0172L10.9 4.3756C7.39036 10.5011 14.1562 17.368 20.3327 13.9488L20.4743 13.8844C21.1903 13.624 22.0225 14.2714 21.7399 15.1129C20.1132 19.9553 14.9779 22.7578 9.97621 21.4176C4.77507 20.0238 1.68802 14.6774 3.08168 9.47618C4.01871 5.97943 6.743 3.43929 10.0045 2.57286L10.1686 2.54259ZM9.18324 4.44591C6.97048 5.41909 5.20469 7.35023 4.5309 9.86485C3.35172 14.2659 5.96383 18.7901 10.3649 19.9693C14.1623 20.9867 18.0489 19.1798 19.8014 15.8385C12.9522 18.3857 6.12006 11.247 9.18324 4.44591Z" fill="black"/>
</svg>
