<svg width="24" height="24" viewBox="0 0 24 24" fill="none" xmlns="http://www.w3.org/2000/svg">
<path d="M5 3.75C4.30964 3.75 3.75 4.30964 3.75 5V19C3.75 19.6904 4.30964 20.25 5 20.25H19C19.6904 20.25 20.25 19.6904 20.25 19V5C20.25 4.30964 19.6904 3.75 19 3.75H5ZM17 17.75H16C15.5858 17.75 15.25 17.4142 15.25 17C15.25 16.5858 15.5858 16.25 16 16.25H17C17.4142 16.25 17.75 16.5858 17.75 17C17.75 17.4142 17.4142 17.75 17 17.75ZM17 7.75H16C15.5858 7.75 15.25 7.41421 15.25 7C15.25 6.58579 15.5858 6.25 16 6.25H17C17.4142 6.25 17.75 6.58579 17.75 7C17.75 7.41421 17.4142 7.75 17 7.75ZM12.5 17.75H11.5C11.0858 17.75 10.75 17.4142 10.75 17C10.75 16.5858 11.0858 16.25 11.5 16.25H12.5C12.9142 16.25 13.25 16.5858 13.25 17C13.25 17.4142 12.9142 17.75 12.5 17.75ZM12.5 7.75H11.5C11.0858 7.75 10.75 7.41421 10.75 7C10.75 6.58579 11.0858 6.25 11.5 6.25H12.5C12.9142 6.25 13.25 6.58579 13.25 7C13.25 7.41421 12.9142 7.75 12.5 7.75ZM8 17.75H7C6.58579 17.75 6.25 17.4142 6.25 17C6.25 16.5858 6.58579 16.25 7 16.25H8C8.41421 16.25 8.75 16.5858 8.75 17C8.75 17.4142 8.41421 17.75 8 17.75ZM8 7.75H7C6.58579 7.75 6.25 7.41421 6.25 7C6.25 6.58579 6.58579 6.25 7 6.25H8C8.41421 6.25 8.75 6.58579 8.75 7C8.75 7.41421 8.41421 7.75 8 7.75ZM19 2.25C20.5188 2.25 21.75 3.48122 21.75 5V19C21.75 20.5188 20.5188 21.75 19 21.75H5C3.48122 21.75 2.25 20.5188 2.25 19V5C2.25 3.48122 3.48122 2.25 5 2.25H19Z" fill="black"/>
</svg>
