<svg width="24" height="24" viewBox="0 0 24 24" fill="none" xmlns="http://www.w3.org/2000/svg">
<path d="M20.25 5C20.25 4.30964 19.6904 3.75 19 3.75H5C4.30964 3.75 3.75 4.30964 3.75 5V19C3.75 19.6904 4.30964 20.25 5 20.25H19C19.6904 20.25 20.25 19.6904 20.25 19V5ZM8.25 17V16C8.25 15.5858 8.58579 15.25 9 15.25C9.41421 15.25 9.75 15.5858 9.75 16V17C9.75 17.4142 9.41421 17.75 9 17.75C8.58579 17.75 8.25 17.4142 8.25 17ZM8.25 12.5V11.5C8.25 11.0858 8.58579 10.75 9 10.75C9.41421 10.75 9.75 11.0858 9.75 11.5V12.5C9.75 12.9142 9.41421 13.25 9 13.25C8.58579 13.25 8.25 12.9142 8.25 12.5ZM8.25 8V7C8.25 6.58579 8.58579 6.25 9 6.25C9.41421 6.25 9.75 6.58579 9.75 7V8C9.75 8.41421 9.41421 8.75 9 8.75C8.58579 8.75 8.25 8.41421 8.25 8ZM21.75 19C21.75 20.5188 20.5188 21.75 19 21.75H5C3.48122 21.75 2.25 20.5188 2.25 19V5C2.25 3.48122 3.48122 2.25 5 2.25H19C20.5188 2.25 21.75 3.48122 21.75 5V19Z" fill="black"/>
</svg>
