<svg width="24" height="24" viewBox="0 0 24 24" fill="none" xmlns="http://www.w3.org/2000/svg">
<path d="M3.75 5C3.75 4.30964 4.30964 3.75 5 3.75H19C19.6904 3.75 20.25 4.30964 20.25 5V19C20.25 19.6904 19.6904 20.25 19 20.25H5C4.30964 20.25 3.75 19.6904 3.75 19V5ZM15.75 17V16C15.75 15.5858 15.4142 15.25 15 15.25C14.5858 15.25 14.25 15.5858 14.25 16V17C14.25 17.4142 14.5858 17.75 15 17.75C15.4142 17.75 15.75 17.4142 15.75 17ZM15.75 12.5V11.5C15.75 11.0858 15.4142 10.75 15 10.75C14.5858 10.75 14.25 11.0858 14.25 11.5V12.5C14.25 12.9142 14.5858 13.25 15 13.25C15.4142 13.25 15.75 12.9142 15.75 12.5ZM15.75 8V7C15.75 6.58579 15.4142 6.25 15 6.25C14.5858 6.25 14.25 6.58579 14.25 7V8C14.25 8.41421 14.5858 8.75 15 8.75C15.4142 8.75 15.75 8.41421 15.75 8ZM2.25 19C2.25 20.5188 3.48122 21.75 5 21.75H19C20.5188 21.75 21.75 20.5188 21.75 19V5C21.75 3.48122 20.5188 2.25 19 2.25H5C3.48122 2.25 2.25 3.48122 2.25 5V19Z" fill="black"/>
</svg>
