<svg width="24" height="24" viewBox="0 0 24 24" fill="none" xmlns="http://www.w3.org/2000/svg">
<path d="M13.5908 15.8486C13.8837 15.5557 14.3585 15.5557 14.6514 15.8486C14.9443 16.1415 14.9443 16.6163 14.6514 16.9092L13.0605 18.499L14.6523 20.0908C14.9452 20.3837 14.9452 20.8595 14.6523 21.1523C14.3595 21.4452 13.8837 21.4452 13.5908 21.1523L12 19.5605L10.4092 21.1523C10.1163 21.4452 9.64054 21.4452 9.34766 21.1523C9.05478 20.8595 9.0548 20.3837 9.34766 20.0908L10.9385 18.499L9.34863 16.9092C9.05574 16.6163 9.05574 16.1415 9.34863 15.8486C9.64153 15.5557 10.1163 15.5557 10.4092 15.8486L12 17.4385L13.5908 15.8486ZM20.25 13V11C20.25 10.8619 20.1381 10.75 20 10.75H4C3.86193 10.75 3.75 10.8619 3.75 11V13C3.75 13.1381 3.86193 13.25 4 13.25H7C7.41421 13.25 7.75 13.5858 7.75 14C7.75 14.4142 7.41421 14.75 7 14.75H4C3.0335 14.75 2.25 13.9665 2.25 13V11C2.25 10.0335 3.0335 9.25 4 9.25H20C20.9665 9.25 21.75 10.0335 21.75 11V13C21.75 13.9665 20.9665 14.75 20 14.75H17C16.5858 14.75 16.25 14.4142 16.25 14C16.25 13.5858 16.5858 13.25 17 13.25H20C20.1381 13.25 20.25 13.1381 20.25 13ZM20.25 4C20.25 3.86193 20.1381 3.75 20 3.75H4C3.86193 3.75 3.75 3.86193 3.75 4V6C3.75 6.13807 3.86193 6.25 4 6.25H20C20.1381 6.25 20.25 6.13807 20.25 6V4ZM21.75 6C21.75 6.9665 20.9665 7.75 20 7.75H4C3.0335 7.75 2.25 6.9665 2.25 6V4C2.25 3.0335 3.0335 2.25 4 2.25H20C20.9665 2.25 21.75 3.0335 21.75 4V6Z" fill="black"/>
</svg>
