<svg width="24" height="24" viewBox="0 0 24 24" fill="none" xmlns="http://www.w3.org/2000/svg">
<path d="M20.25 14.75H3.75V18C3.75 18.6904 4.30964 19.25 5 19.25H19C19.6904 19.25 20.25 18.6904 20.25 18V14.75ZM6.00098 16.25C6.41519 16.25 6.75098 16.5858 6.75098 17C6.75098 17.4142 6.41519 17.75 6.00098 17.75H6C5.58579 17.75 5.25 17.4142 5.25 17C5.25 16.5858 5.58579 16.25 6 16.25H6.00098ZM9.00098 16.25C9.41519 16.25 9.75098 16.5858 9.75098 17C9.75098 17.4142 9.41519 17.75 9.00098 17.75H9C8.58579 17.75 8.25 17.4142 8.25 17C8.25 16.5858 8.58579 16.25 9 16.25H9.00098ZM18 16.25C18.4142 16.25 18.75 16.5858 18.75 17C18.75 17.4142 18.4142 17.75 18 17.75H12C11.5858 17.75 11.25 17.4142 11.25 17C11.25 16.5858 11.5858 16.25 12 16.25H18ZM6.63965 4.75C6.0438 4.75 5.53092 5.17061 5.41406 5.75488L3.91504 13.25H20.085L18.5859 5.75488C18.4691 5.17061 17.9562 4.75 17.3604 4.75H6.63965ZM21.75 18C21.75 19.5188 20.5188 20.75 19 20.75H5C3.48122 20.75 2.25 19.5188 2.25 18V14.1982C2.25 14.1611 2.25436 14.124 2.25586 14.0869C2.25256 14.0584 2.25 14.0294 2.25 14C2.25 13.9253 2.26481 13.8542 2.28516 13.7861C2.29157 13.7438 2.29532 13.7012 2.30371 13.6592L3.94336 5.46094C4.20044 4.17552 5.32877 3.25 6.63965 3.25H17.3604C18.6712 3.25 19.7996 4.17552 20.0566 5.46094L21.6963 13.6592C21.7047 13.7012 21.7084 13.7438 21.7148 13.7861C21.7352 13.8542 21.75 13.9253 21.75 14C21.75 14.0294 21.7474 14.0584 21.7441 14.0869C21.7456 14.124 21.75 14.1611 21.75 14.1982V18Z" fill="black"/>
</svg>
