<svg width="24" height="24" viewBox="0 0 24 24" fill="none" xmlns="http://www.w3.org/2000/svg">
<path d="M3.25 19.0001V10.5001C3.25 8.98128 4.48122 7.75006 6 7.75006H8C8.41421 7.75006 8.75 8.08585 8.75 8.50006C8.74996 8.91424 8.41419 9.25006 8 9.25006H6C5.30964 9.25006 4.75 9.80971 4.75 10.5001V19.0001C4.75004 19.6904 5.30967 20.2501 6 20.2501H18C18.6903 20.2501 19.25 19.6904 19.25 19.0001V10.5001C19.25 9.80971 18.6904 9.25006 18 9.25006H16C15.5858 9.25006 15.25 8.91424 15.25 8.50006C15.25 8.08585 15.5858 7.75006 16 7.75006H18C19.5188 7.75006 20.75 8.98128 20.75 10.5001V19.0001C20.75 20.5188 19.5188 21.7501 18 21.7501H6C4.48124 21.7501 3.25004 20.5188 3.25 19.0001ZM11.25 16.0001V3.81061L9.53027 5.53033C9.23739 5.82318 8.76261 5.82318 8.46973 5.53033C8.17685 5.23745 8.17687 4.76268 8.46973 4.46979L11.1162 1.8233L11.2109 1.73737C11.7019 1.33688 12.4261 1.36564 12.8838 1.8233L15.5303 4.46979C15.8231 4.76268 15.8232 5.23745 15.5303 5.53033C15.2374 5.82318 14.7626 5.82318 14.4697 5.53033L12.75 3.81061V16.0001C12.75 16.4142 12.4142 16.7501 12 16.7501C11.5858 16.7501 11.25 16.4142 11.25 16.0001Z" fill="black"/>
</svg>
