<svg width="24" height="24" viewBox="0 0 24 24" fill="none" xmlns="http://www.w3.org/2000/svg">
<path d="M16 15.25C17.2585 15.25 18.3168 16.0961 18.6436 17.25H20C20.4142 17.25 20.75 17.5858 20.75 18C20.75 18.4142 20.4142 18.75 20 18.75H18.6436C18.3168 19.9039 17.2585 20.75 16 20.75C14.7415 20.75 13.6832 19.9039 13.3564 18.75H4C3.58579 18.75 3.25 18.4142 3.25 18C3.25 17.5858 3.58579 17.25 4 17.25H13.3564C13.6832 16.0961 14.7415 15.25 16 15.25ZM16 16.75C15.3096 16.75 14.75 17.3096 14.75 18C14.75 18.6904 15.3096 19.25 16 19.25C16.6904 19.25 17.25 18.6904 17.25 18C17.25 17.3096 16.6904 16.75 16 16.75ZM8 9.25C9.2585 9.25 10.3168 10.0961 10.6436 11.25H20C20.4142 11.25 20.75 11.5858 20.75 12C20.75 12.4142 20.4142 12.75 20 12.75H10.6436C10.3168 13.9039 9.2585 14.75 8 14.75C6.7415 14.75 5.68316 13.9039 5.35645 12.75H4C3.58579 12.75 3.25 12.4142 3.25 12C3.25 11.5858 3.58579 11.25 4 11.25H5.35645C5.68316 10.0961 6.7415 9.25 8 9.25ZM8 10.75C7.30964 10.75 6.75 11.3096 6.75 12C6.75 12.6904 7.30964 13.25 8 13.25C8.69036 13.25 9.25 12.6904 9.25 12C9.25 11.3096 8.69036 10.75 8 10.75ZM14 3.25C15.2585 3.25 16.3168 4.09614 16.6436 5.25H20C20.4142 5.25 20.75 5.58579 20.75 6C20.75 6.41421 20.4142 6.75 20 6.75H16.6436C16.3168 7.90386 15.2585 8.75 14 8.75C12.7415 8.75 11.6832 7.90386 11.3564 6.75H4C3.58579 6.75 3.25 6.41421 3.25 6C3.25 5.58579 3.58579 5.25 4 5.25H11.3564C11.6832 4.09614 12.7415 3.25 14 3.25ZM14 4.75C13.3096 4.75 12.75 5.30964 12.75 6C12.75 6.69036 13.3096 7.25 14 7.25C14.6904 7.25 15.25 6.69036 15.25 6C15.25 5.30964 14.6904 4.75 14 4.75Z" fill="black"/>
</svg>
