<svg width="24" height="24" viewBox="0 0 24 24" fill="none" xmlns="http://www.w3.org/2000/svg">
<path d="M2.25 20V19.1113C2.25 18.6971 2.58579 18.3613 3 18.3613C3.41421 18.3613 3.75 18.6971 3.75 19.1113V20C3.75 20.1381 3.86193 20.25 4 20.25H4.88867C5.30289 20.25 5.63867 20.5858 5.63867 21C5.63867 21.4142 5.30289 21.75 4.88867 21.75H4C3.0335 21.75 2.25 20.9665 2.25 20ZM10.2227 20.25C10.6367 20.2502 10.9727 20.5859 10.9727 21C10.9727 21.4141 10.6367 21.7498 10.2227 21.75H8.44434C8.03017 21.7499 7.69434 21.4142 7.69434 21C7.69434 20.5858 8.03017 20.2501 8.44434 20.25H10.2227ZM15.5557 20.25C15.9698 20.2501 16.3057 20.5858 16.3057 21C16.3057 21.4142 15.9698 21.7499 15.5557 21.75H13.7773C13.3633 21.7498 13.0273 21.4141 13.0273 21C13.0273 20.5859 13.3633 20.2502 13.7773 20.25H15.5557ZM20.25 20V19.1113C20.25 18.6971 20.5858 18.3613 21 18.3613C21.4142 18.3613 21.75 18.6971 21.75 19.1113V20C21.75 20.9665 20.9665 21.75 20 21.75H19.1113C18.6971 21.75 18.3613 21.4142 18.3613 21C18.3613 20.5858 18.6971 20.25 19.1113 20.25H20C20.1381 20.25 20.25 20.1381 20.25 20ZM2.25 15.5557V13.7773C2.25023 13.3633 2.58593 13.0273 3 13.0273C3.41407 13.0273 3.74977 13.3633 3.75 13.7773V15.5557C3.74994 15.9698 3.41418 16.3057 3 16.3057C2.58582 16.3057 2.25006 15.9698 2.25 15.5557ZM20.25 15.5557V13.7773C20.2502 13.3633 20.5859 13.0273 21 13.0273C21.4141 13.0273 21.7498 13.3633 21.75 13.7773V15.5557C21.7499 15.9698 21.4142 16.3057 21 16.3057C20.5858 16.3057 20.2501 15.9698 20.25 15.5557ZM2.25 10.2227V8.44434C2.25006 8.03017 2.58582 7.69434 3 7.69434C3.41418 7.69434 3.74994 8.03017 3.75 8.44434V10.2227C3.74977 10.6367 3.41407 10.9727 3 10.9727C2.58593 10.9727 2.25023 10.6367 2.25 10.2227ZM20.25 10.2227V8.44434C20.2501 8.03017 20.5858 7.69434 21 7.69434C21.4142 7.69434 21.7499 8.03017 21.75 8.44434V10.2227C21.7498 10.6367 21.4141 10.9727 21 10.9727C20.5859 10.9727 20.2502 10.6367 20.25 10.2227ZM2.25 4.88867V4C2.25 3.0335 3.0335 2.25 4 2.25H4.88867C5.30289 2.25 5.63867 2.58579 5.63867 3C5.63867 3.41421 5.30289 3.75 4.88867 3.75H4C3.86193 3.75 3.75 3.86193 3.75 4V4.88867C3.75 5.30289 3.41421 5.63867 3 5.63867C2.58579 5.63867 2.25 5.30289 2.25 4.88867ZM20.25 4.88867V4C20.25 3.86193 20.1381 3.75 20 3.75H19.1113C18.6971 3.75 18.3613 3.41421 18.3613 3C18.3613 2.58579 18.6971 2.25 19.1113 2.25H20C20.9665 2.25 21.75 3.0335 21.75 4V4.88867C21.75 5.30289 21.4142 5.63867 21 5.63867C20.5858 5.63867 20.25 5.30289 20.25 4.88867ZM10.2227 2.25C10.6367 2.25023 10.9727 2.58593 10.9727 3C10.9727 3.41407 10.6367 3.74977 10.2227 3.75H8.44434C8.03017 3.74994 7.69434 3.41418 7.69434 3C7.69434 2.58582 8.03017 2.25006 8.44434 2.25H10.2227ZM15.5557 2.25C15.9698 2.25006 16.3057 2.58582 16.3057 3C16.3057 3.41418 15.9698 3.74994 15.5557 3.75H13.7773C13.3633 3.74977 13.0273 3.41407 13.0273 3C13.0273 2.58593 13.3633 2.25023 13.7773 2.25H15.5557Z" fill="black"/>
</svg>
