<svg width="24" height="24" viewBox="0 0 24 24" fill="none" xmlns="http://www.w3.org/2000/svg">
<path d="M11.25 21V19.5C11.25 19.0858 11.5858 18.75 12 18.75C12.4142 18.75 12.75 19.0858 12.75 19.5V21C12.75 21.4142 12.4142 21.75 12 21.75C11.5858 21.75 11.25 21.4142 11.25 21ZM6.16504 16.7725C6.45766 16.4795 6.93251 16.4791 7.22559 16.7715C7.51867 17.0642 7.51926 17.5399 7.22656 17.833L6.16602 18.8936C5.87332 19.1866 5.39855 19.1872 5.10547 18.8945C4.81258 18.6018 4.81284 18.127 5.10547 17.834L6.16504 16.7725ZM17.3037 16.5537C17.5026 16.5537 17.6934 16.6328 17.834 16.7734L18.8945 17.833H18.8936L18.8945 17.834C19.1872 18.1268 19.1872 18.6017 18.8945 18.8945C18.6018 19.1871 18.1269 19.187 17.834 18.8945L16.7725 17.835C16.4795 17.5423 16.4799 17.0675 16.7725 16.7744V16.7734L16.8867 16.6797C17.0091 16.5979 17.1543 16.5538 17.3037 16.5537ZM10.25 9.34082V9.26074C9.34745 9.83863 8.75 10.8502 8.75 12C8.75001 13.7949 10.2051 15.25 12 15.25C13.4667 15.25 14.7033 14.277 15.1074 12.9424L14.7354 13.0176C12.415 13.4816 10.2501 11.7071 10.25 9.34082ZM4.5 11.25C4.91421 11.25 5.25 11.5858 5.25 12C5.25 12.4142 4.91421 12.75 4.5 12.75H3C2.58579 12.75 2.25 12.4142 2.25 12C2.25 11.5858 2.58579 11.25 3 11.25H4.5ZM21 11.25C21.4142 11.25 21.75 11.5858 21.75 12C21.75 12.4142 21.4142 12.75 21 12.75H19.5C19.0858 12.75 18.75 12.4142 18.75 12C18.75 11.5858 19.0858 11.25 19.5 11.25H21ZM17.834 5.10547C18.1268 4.8128 18.6017 4.81279 18.8945 5.10547C19.1874 5.3982 19.1872 5.873 18.8945 6.16602L17.835 7.22754C17.6944 7.36826 17.5036 7.44716 17.3047 7.44727C17.1057 7.44737 16.9151 7.36817 16.7744 7.22754H16.7734C16.6328 7.08701 16.5539 6.89607 16.5537 6.69727C16.5537 6.54793 16.598 6.40268 16.6797 6.28027L16.7734 6.16602L17.834 5.10547ZM5.10645 5.10547C5.38107 4.83084 5.81577 4.81335 6.11035 5.05371L6.16699 5.10547L7.22754 6.16602C7.50207 6.44054 7.51939 6.87437 7.2793 7.16895L7.22754 7.22656C6.95294 7.50116 6.51821 7.51861 6.22363 7.27832L6.16699 7.22656L5.10547 6.16602C4.813 5.87312 4.8128 5.39824 5.10547 5.10547H5.10645ZM11.25 4.5V3C11.25 2.58579 11.5858 2.25 12 2.25C12.4142 2.25 12.75 2.58579 12.75 3V4.5C12.75 4.91421 12.4142 5.25 12 5.25C11.5858 5.25 11.25 4.91421 11.25 4.5ZM11.75 9.34082C11.7501 10.7606 13.0492 11.8253 14.4414 11.5469L15.5537 11.3242C16.155 11.204 16.7885 11.6687 16.7363 12.3613C16.5513 14.8163 14.5019 16.75 12 16.75C9.37665 16.75 7.25001 14.6233 7.25 12C7.25 9.91976 8.58712 8.1532 10.4463 7.50977L10.5732 7.47461C11.2059 7.34108 11.7498 7.856 11.75 8.44824V9.34082Z" fill="black"/>
</svg>
