<svg width="24" height="24" viewBox="0 0 24 24" fill="none" xmlns="http://www.w3.org/2000/svg">
<path d="M21 17.2501C21.4142 17.2501 21.75 17.5858 21.75 18.0001C21.75 18.4142 21.4142 18.7501 21 18.7501H3C2.58581 18.7501 2.25004 18.4142 2.25 18.0001C2.25 17.5858 2.58579 17.2501 3 17.2501H21ZM4.5 13.7501C4.91421 13.7501 5.25 14.0858 5.25 14.5001C5.24996 14.9142 4.91419 15.2501 4.5 15.2501H3C2.58581 15.2501 2.25004 14.9142 2.25 14.5001C2.25 14.0858 2.58579 13.7501 3 13.7501H4.5ZM15.25 14.5001C15.25 12.7051 13.7949 11.2501 12 11.2501C10.2051 11.2501 8.75 12.7051 8.75 14.5001C8.74996 14.9142 8.41419 15.2501 8 15.2501C7.58581 15.2501 7.25004 14.9142 7.25 14.5001C7.25 11.8767 9.37665 9.75006 12 9.75006C14.6234 9.75006 16.75 11.8767 16.75 14.5001C16.75 14.9142 16.4142 15.2501 16 15.2501C15.5858 15.2501 15.25 14.9142 15.25 14.5001ZM21 13.7501C21.4142 13.7501 21.75 14.0858 21.75 14.5001C21.75 14.9142 21.4142 15.2501 21 15.2501H19.5C19.0858 15.2501 18.75 14.9142 18.75 14.5001C18.75 14.0858 19.0858 13.7501 19.5 13.7501H21ZM5.10547 7.60553C5.39833 7.31279 5.87315 7.31279 6.16602 7.60553L7.22656 8.66608C7.51942 8.95893 7.51934 9.43372 7.22656 9.72662C6.93367 10.0195 6.45891 10.0195 6.16602 9.72662L5.10547 8.66608C4.81269 8.37317 4.81261 7.89838 5.10547 7.60553ZM17.833 7.60553C18.1259 7.31264 18.6016 7.31264 18.8945 7.60553C19.1872 7.89831 19.187 8.3732 18.8945 8.66608L17.833 9.72662C17.5401 10.0195 17.0653 10.0195 16.7725 9.72662C16.4799 9.43371 16.4797 8.95885 16.7725 8.66608L17.833 7.60553ZM11.25 7.00006V3.81061L10.0303 5.03033C9.73739 5.32318 9.26261 5.32318 8.96973 5.03033C8.67685 4.73745 8.67687 4.26268 8.96973 3.96979L11.1162 1.8233L11.2109 1.73737C11.7019 1.33688 12.4261 1.36564 12.8838 1.8233L15.0303 3.96979C15.3231 4.26268 15.3232 4.73745 15.0303 5.03033C14.7374 5.32318 14.2626 5.32318 13.9697 5.03033L12.75 3.81061V7.00006C12.75 7.41424 12.4142 7.75006 12 7.75006C11.5858 7.75006 11.25 7.41424 11.25 7.00006Z" fill="black"/>
</svg>
