<svg width="24" height="24" viewBox="0 0 24 24" fill="none" xmlns="http://www.w3.org/2000/svg">
<path d="M21 17.25C21.4142 17.25 21.75 17.5858 21.75 18C21.75 18.4142 21.4142 18.75 21 18.75H3C2.58579 18.75 2.25 18.4142 2.25 18C2.25 17.5858 2.58579 17.25 3 17.25H21ZM4.5 13.75C4.91421 13.75 5.25 14.0858 5.25 14.5C5.25 14.9142 4.91421 15.25 4.5 15.25H3C2.58579 15.25 2.25 14.9142 2.25 14.5C2.25 14.0858 2.58579 13.75 3 13.75H4.5ZM15.25 14.5C15.25 12.7051 13.7949 11.25 12 11.25C10.2051 11.25 8.75 12.7051 8.75 14.5C8.75 14.9142 8.41421 15.25 8 15.25C7.58579 15.25 7.25 14.9142 7.25 14.5C7.25 11.8766 9.37665 9.75 12 9.75C14.6234 9.75 16.75 11.8766 16.75 14.5C16.75 14.9142 16.4142 15.25 16 15.25C15.5858 15.25 15.25 14.9142 15.25 14.5ZM21 13.75C21.4142 13.75 21.75 14.0858 21.75 14.5C21.75 14.9142 21.4142 15.25 21 15.25H19.5C19.0858 15.25 18.75 14.9142 18.75 14.5C18.75 14.0858 19.0858 13.75 19.5 13.75H21ZM5.10547 7.60547C5.39832 7.31278 5.87316 7.31278 6.16602 7.60547L7.22656 8.66602C7.5194 8.95886 7.5193 9.43366 7.22656 9.72656C6.93367 10.0195 6.45891 10.0195 6.16602 9.72656L5.10547 8.66602C4.81273 8.37311 4.81263 7.89831 5.10547 7.60547ZM17.833 7.60547C18.1259 7.31258 18.6016 7.31258 18.8945 7.60547C19.1872 7.89824 19.187 8.37312 18.8945 8.66602L17.833 9.72656C17.5401 10.0195 17.0654 10.0195 16.7725 9.72656C16.48 9.43364 16.4797 8.95878 16.7725 8.66602L17.833 7.60547ZM11.25 2C11.25 1.58579 11.5858 1.25 12 1.25C12.4142 1.25 12.75 1.58579 12.75 2V5.18945L13.9697 3.96973C14.2626 3.67683 14.7374 3.67683 15.0303 3.96973C15.3232 4.26262 15.3232 4.73738 15.0303 5.03027L12.8838 7.17676C12.3956 7.66486 11.6044 7.66486 11.1162 7.17676L8.96973 5.03027C8.67683 4.73738 8.67683 4.26262 8.96973 3.96973C9.26262 3.67683 9.73738 3.67683 10.0303 3.96973L11.25 5.18945V2Z" fill="black"/>
</svg>
