<svg width="24" height="24" viewBox="0 0 24 24" fill="none" xmlns="http://www.w3.org/2000/svg">
<path d="M18.75 7C18.75 7.41421 18.4142 7.75 18 7.75C17.5858 7.75 17.25 7.41421 17.25 7V6.75H12.75V17.25H14C14.4142 17.25 14.75 17.5858 14.75 18C14.75 18.4142 14.4142 18.75 14 18.75H10C9.58579 18.75 9.25 18.4142 9.25 18C9.25 17.5858 9.58579 17.25 10 17.25H11.25V6.75H6.75V7C6.75 7.41421 6.41421 7.75 6 7.75C5.58579 7.75 5.25 7.41421 5.25 7V6.5C5.25 5.80964 5.80964 5.25 6.5 5.25H17.5C18.1904 5.25 18.75 5.80964 18.75 6.5V7Z" fill="black"/>
</svg>
