<svg width="24" height="24" viewBox="0 0 24 24" fill="none" xmlns="http://www.w3.org/2000/svg">
<path d="M15.25 5C15.25 4.30964 14.6904 3.75 14 3.75H10C9.30964 3.75 8.75 4.30964 8.75 5V6.25H15.25V5ZM6.18066 19.0449C6.20484 19.7173 6.75687 20.2499 7.42969 20.25H16.5703C17.2431 20.2499 17.7952 19.7173 17.8193 19.0449L18.2227 7.75H5.77734L6.18066 19.0449ZM9.47363 10.25C9.8874 10.2354 10.2352 10.5598 10.25 10.9736L10.4639 16.9736C10.4784 17.3874 10.155 17.7351 9.74121 17.75C9.32726 17.7648 8.97963 17.4403 8.96484 17.0264L8.75 11.0264C8.73545 10.6126 9.05982 10.2648 9.47363 10.25ZM14.5264 10.25C14.9402 10.2648 15.2636 10.6126 15.249 11.0264L15.0352 17.0264C15.0204 17.4403 14.6727 17.7648 14.2588 17.75C13.845 17.7352 13.5216 17.3874 13.5361 16.9736L13.75 10.9736C13.7648 10.5598 14.1126 10.2354 14.5264 10.25ZM16.75 6.25H21C21.4142 6.25 21.75 6.58579 21.75 7C21.75 7.41421 21.4142 7.75 21 7.75H19.7246L19.3184 19.0986C19.2653 20.578 18.0507 21.7499 16.5703 21.75H7.42969C5.94934 21.7499 4.73473 20.578 4.68164 19.0986L4.27539 7.75H3C2.58579 7.75 2.25 7.41421 2.25 7C2.25 6.58579 2.58579 6.25 3 6.25H7.25V5C7.25 3.48122 8.48122 2.25 10 2.25H14C15.5188 2.25 16.75 3.48122 16.75 5V6.25Z" fill="black"/>
</svg>
