<svg width="24" height="24" viewBox="0 0 24 24" fill="none" xmlns="http://www.w3.org/2000/svg">
<path d="M1.84523 17.9659C2.05839 17.6109 2.51941 17.496 2.87452 17.7091C3.22971 17.9222 3.34447 18.3832 3.13136 18.7384L2.82472 19.2501H3.45167C3.86588 19.2501 4.20167 19.5859 4.20167 20.0001C4.20159 20.4143 3.86583 20.7501 3.45167 20.7501H2.38331C1.41169 20.7501 0.811152 19.6897 1.31105 18.8566L1.84523 17.9659ZM9.8628 19.2501C10.277 19.2501 10.6128 19.5859 10.6128 20.0001C10.6127 20.4143 10.277 20.7501 9.8628 20.7501H7.72608C7.31192 20.7501 6.97616 20.4143 6.97608 20.0001C6.97608 19.5859 7.31187 19.2501 7.72608 19.2501H9.8628ZM16.2739 19.2501C16.6882 19.2501 17.0239 19.5859 17.0239 20.0001C17.0239 20.4143 16.6881 20.7501 16.2739 20.7501H14.1372C13.7231 20.7501 13.3873 20.4143 13.3872 20.0001C13.3872 19.5859 13.723 19.2501 14.1372 19.2501H16.2739ZM21.1255 17.7091C21.4806 17.496 21.9416 17.6109 22.1548 17.9659L22.689 18.8566C23.1889 19.6897 22.5883 20.7501 21.6167 20.7501H20.5483C20.1342 20.7501 19.7984 20.4143 19.7983 20.0001C19.7983 19.5859 20.1341 19.2501 20.5483 19.2501H21.1753L20.8687 18.7384C20.6556 18.3832 20.7703 17.9222 21.1255 17.7091ZM5.05128 12.6241C5.26439 12.269 5.72539 12.1532 6.08058 12.3663C6.43554 12.5795 6.55047 13.0405 6.33741 13.3956L5.26905 15.1759C5.05594 15.5311 4.59494 15.6468 4.23976 15.4337C3.88458 15.2206 3.76981 14.7596 3.98292 14.4044L5.05128 12.6241ZM17.9194 12.3663C18.2746 12.1532 18.7356 12.269 18.9487 12.6241L20.0171 14.4044C20.2302 14.7596 20.1154 15.2206 19.7603 15.4337C19.4051 15.6468 18.9441 15.5311 18.731 15.1759L17.6626 13.3956C17.4496 13.0405 17.5645 12.5795 17.9194 12.3663ZM8.25636 7.28137C8.46944 6.92623 8.93049 6.81057 9.28566 7.02356C9.64081 7.23665 9.75652 7.69768 9.54347 8.05285L8.47413 9.83313C8.26108 10.1882 7.80096 10.3038 7.44581 10.0909C7.09063 9.87783 6.97489 9.41683 7.188 9.06164L8.25636 7.28137ZM14.7144 7.02356C15.0695 6.81057 15.5306 6.92623 15.7437 7.28137L16.812 9.06164C17.0251 9.41683 16.9094 9.87783 16.5542 10.0909C16.1991 10.3038 15.7389 10.1882 15.5259 9.83313L14.4566 8.05285C14.2435 7.69768 14.3592 7.23665 14.7144 7.02356ZM11.0269 2.68664C11.5222 2.06694 12.4779 2.06694 12.9732 2.68664L13.0718 2.82824L13.606 3.71887C13.819 4.074 13.7042 4.53501 13.3491 4.74817C12.994 4.96122 12.533 4.84628 12.3198 4.49133L11.9995 3.95715L11.6802 4.49133C11.467 4.84628 11.006 4.96122 10.6509 4.74817C10.2958 4.53501 10.181 4.074 10.3941 3.71887L10.9282 2.82824L11.0269 2.68664Z" fill="black"/>
</svg>
