<svg width="24" height="24" viewBox="0 0 24 24" fill="none" xmlns="http://www.w3.org/2000/svg">
<path d="M3.25 18V14C3.25 13.5858 3.58579 13.25 4 13.25C4.41421 13.25 4.75 13.5858 4.75 14V18C4.75 18.38 4.8705 18.9664 5.20898 19.4365C5.51994 19.8684 6.04444 20.25 7 20.25C7.95556 20.25 8.48006 19.8684 8.79102 19.4365C9.1295 18.9664 9.25 18.38 9.25 18V14C9.25 13.5858 9.58579 13.25 10 13.25C10.4142 13.25 10.75 13.5858 10.75 14V18C10.75 18.62 10.5703 19.5336 10.0088 20.3135C9.41973 21.1315 8.44438 21.75 7 21.75C5.55562 21.75 4.58027 21.1315 3.99121 20.3135C3.4297 19.5336 3.25 18.62 3.25 18ZM19.4307 13.5117C19.7003 13.1974 20.1738 13.1611 20.4883 13.4307C20.8026 13.7003 20.8389 14.1738 20.5693 14.4883L17.9873 17.5L20.5693 20.5117C20.8389 20.8262 20.8026 21.2997 20.4883 21.5693C20.1738 21.8389 19.7003 21.8026 19.4307 21.4883L17 18.6523L14.5693 21.4883C14.2997 21.8026 13.8262 21.8389 13.5117 21.5693C13.1974 21.2997 13.1611 20.8262 13.4307 20.5117L16.0117 17.5L13.4307 14.4883C13.1611 14.1738 13.1974 13.7003 13.5117 13.4307C13.8262 13.1611 14.2997 13.1974 14.5693 13.5117L17 16.3467L19.4307 13.5117ZM3.25 7V3C3.25 2.58579 3.58579 2.25 4 2.25C4.41421 2.25 4.75 2.58579 4.75 3V7C4.75 7.37998 4.8705 7.9664 5.20898 8.43652C5.51994 8.8684 6.04444 9.25 7 9.25C7.95556 9.25 8.48006 8.8684 8.79102 8.43652C9.1295 7.9664 9.25 7.37998 9.25 7V3C9.25 2.58579 9.58579 2.25 10 2.25C10.4142 2.25 10.75 2.58579 10.75 3V7C10.75 7.62002 10.5703 8.5336 10.0088 9.31348C9.41973 10.1316 8.44438 10.75 7 10.75C5.55562 10.75 4.58027 10.1316 3.99121 9.31348C3.4297 8.5336 3.25 7.62002 3.25 7ZM13.25 10V3C13.25 2.58579 13.5858 2.25 14 2.25C14.4142 2.25 14.75 2.58579 14.75 3V10C14.75 10.4142 14.4142 10.75 14 10.75C13.5858 10.75 13.25 10.4142 13.25 10ZM19.2793 2.79395C19.3931 2.39575 19.8078 2.16552 20.2061 2.2793C20.6043 2.39314 20.8345 2.80782 20.7207 3.20605L18.7207 10.2061C18.6069 10.6043 18.1922 10.8345 17.7939 10.7207C17.3957 10.6069 17.1655 10.1922 17.2793 9.79395L19.2793 2.79395Z" fill="black"/>
</svg>
