<svg width="24" height="24" viewBox="0 0 24 24" fill="none" xmlns="http://www.w3.org/2000/svg">
<path d="M18.4697 4.46973C18.7626 4.17684 19.2374 4.17684 19.5303 4.46973C19.8232 4.76262 19.8232 5.23738 19.5303 5.53028L13.0606 12L19.5303 18.4697C19.8232 18.7626 19.8232 19.2374 19.5303 19.5303C19.2374 19.8232 18.7626 19.8232 18.4697 19.5303L12 13.0606L5.53028 19.5303C5.23738 19.8232 4.76262 19.8232 4.46973 19.5303C4.17684 19.2374 4.17684 18.7626 4.46973 18.4697L10.9395 12L4.46973 5.53028C4.17684 5.23738 4.17684 4.76262 4.46973 4.46973C4.76262 4.17684 5.23738 4.17684 5.53028 4.46973L12 10.9395L18.4697 4.46973Z" fill="black"/>
</svg>
