<svg width="24" height="24" viewBox="0 0 24 24" fill="none" xmlns="http://www.w3.org/2000/svg">
<path d="M3 9.5C3 9.77614 3.22386 10 3.5 10H16.5C16.7761 10 17 9.77614 17 9.5V6.5C17 6.22386 16.7761 6 16.5 6H3.5C3.22386 6 3 6.22386 3 6.5V9.5Z" fill="#8A38F5" fill-opacity="0.25"/>
<path d="M11 17.5C11 17.7761 11.2239 18 11.5 18H16.5C16.7761 18 17 17.7761 17 17.5V14.5C17 14.2239 16.7761 14 16.5 14H11.5C11.2239 14 11 14.2239 11 14.5V17.5Z" fill="#8A38F5" fill-opacity="0.25"/>
<path d="M21.5 21V3C21.5 2.72386 21.2761 2.5 21 2.5C20.7239 2.5 20.5 2.72386 20.5 3V21C20.5 21.2761 20.7239 21.5 21 21.5C21.2761 21.5 21.5 21.2761 21.5 21ZM16.5 14.5V17.5H11.5V14.5H16.5ZM16.5 6.5V9.5H3.5V6.5H16.5ZM10.5 17.5C10.5 18.0523 10.9477 18.5 11.5 18.5H16.5C17.0523 18.5 17.5 18.0523 17.5 17.5V14.5C17.5 13.9477 17.0523 13.5 16.5 13.5H11.5C10.9477 13.5 10.5 13.9477 10.5 14.5V17.5ZM2.5 9.5C2.5 10.0523 2.94772 10.5 3.5 10.5H16.5C17.0523 10.5 17.5 10.0523 17.5 9.5V6.5C17.5 5.94772 17.0523 5.5 16.5 5.5H3.5C2.94772 5.5 2.5 5.94772 2.5 6.5V9.5Z" fill="black"/>
</svg>
