<svg width="24" height="24" viewBox="0 0 24 24" fill="none" xmlns="http://www.w3.org/2000/svg">
<path d="M9.5 21C9.77614 21 10 20.7761 10 20.5V7.5C10 7.22386 9.77614 7 9.5 7H6.5C6.22386 7 6 7.22386 6 7.5V20.5C6 20.7761 6.22386 21 6.5 21H9.5Z" fill="#8A38F5" fill-opacity="0.25"/>
<path d="M17.5 13C17.7761 13 18 12.7761 18 12.5V7.5C18 7.22386 17.7761 7 17.5 7H14.5C14.2239 7 14 7.22386 14 7.5V12.5C14 12.7761 14.2239 13 14.5 13H17.5Z" fill="#8A38F5" fill-opacity="0.25"/>
<path d="M21 2.5H3C2.72386 2.5 2.5 2.72386 2.5 3C2.5 3.27614 2.72386 3.5 3 3.5H21C21.2761 3.5 21.5 3.27614 21.5 3C21.5 2.72386 21.2761 2.5 21 2.5ZM14.5 7.5H17.5V12.5H14.5V7.5ZM6.5 7.5H9.5V20.5H6.5V7.5ZM17.5 13.5C18.0523 13.5 18.5 13.0523 18.5 12.5V7.5C18.5 6.94772 18.0523 6.5 17.5 6.5H14.5C13.9477 6.5 13.5 6.94772 13.5 7.5V12.5C13.5 13.0523 13.9477 13.5 14.5 13.5H17.5ZM9.5 21.5C10.0523 21.5 10.5 21.0523 10.5 20.5V7.5C10.5 6.94772 10.0523 6.5 9.5 6.5H6.5C5.94772 6.5 5.5 6.94772 5.5 7.5V20.5C5.5 21.0523 5.94772 21.5 6.5 21.5H9.5Z" fill="black"/>
</svg>
