<svg width="24" height="24" viewBox="0 0 24 24" fill="none" xmlns="http://www.w3.org/2000/svg">
<path d="M21 9.5C21 9.77614 20.7761 10 20.5 10H7.5C7.22386 10 7 9.77614 7 9.5V6.5C7 6.22386 7.22386 6 7.5 6H20.5C20.7761 6 21 6.22386 21 6.5V9.5Z" fill="#8A38F5" fill-opacity="0.25"/>
<path d="M13 17.5C13 17.7761 12.7761 18 12.5 18H7.5C7.22386 18 7 17.7761 7 17.5V14.5C7 14.2239 7.22386 14 7.5 14H12.5C12.7761 14 13 14.2239 13 14.5V17.5Z" fill="#8A38F5" fill-opacity="0.25"/>
<path d="M2.5 21V3C2.5 2.72386 2.72386 2.5 3 2.5C3.27614 2.5 3.5 2.72386 3.5 3V21C3.5 21.2761 3.27614 21.5 3 21.5C2.72386 21.5 2.5 21.2761 2.5 21ZM7.5 14.5V17.5H12.5V14.5H7.5ZM7.5 6.5V9.5H20.5V6.5H7.5ZM13.5 17.5C13.5 18.0523 13.0523 18.5 12.5 18.5H7.5C6.94772 18.5 6.5 18.0523 6.5 17.5V14.5C6.5 13.9477 6.94772 13.5 7.5 13.5H12.5C13.0523 13.5 13.5 13.9477 13.5 14.5V17.5ZM21.5 9.5C21.5 10.0523 21.0523 10.5 20.5 10.5H7.5C6.94772 10.5 6.5 10.0523 6.5 9.5V6.5C6.5 5.94772 6.94772 5.5 7.5 5.5H20.5C21.0523 5.5 21.5 5.94772 21.5 6.5V9.5Z" fill="black"/>
</svg>
