<svg width="24" height="24" viewBox="0 0 24 24" fill="none" xmlns="http://www.w3.org/2000/svg">
<path d="M9.5 16C9.77614 16 10 16.2239 10 16.5V20.5C10 20.7761 9.77614 21 9.5 21H6.5C6.22386 21 6 20.7761 6 20.5V16.5C6 16.2239 6.22386 16 6.5 16H9.5Z" fill="#8A38F5" fill-opacity="0.25"/>
<path d="M17.5 16C17.7761 16 18 16.2239 18 16.5V18.5C18 18.7761 17.7761 19 17.5 19H14.5C14.2239 19 14 18.7761 14 18.5V16.5C14 16.2239 14.2239 16 14.5 16H17.5Z" fill="#8A38F5" fill-opacity="0.25"/>
<path d="M9.5 3C9.77614 3 10 3.22386 10 3.5V7.5C10 7.77614 9.77614 8 9.5 8H6.5C6.22386 8 6 7.77614 6 7.5V3.5C6 3.22386 6.22386 3 6.5 3H9.5Z" fill="#8A38F5" fill-opacity="0.25"/>
<path d="M17.5 5C17.7761 5 18 5.22386 18 5.5V7.5C18 7.77614 17.7761 8 17.5 8H14.5C14.2239 8 14 7.77614 14 7.5V5.5C14 5.22386 14.2239 5 14.5 5H17.5Z" fill="#8A38F5" fill-opacity="0.25"/>
<path d="M21 12.5H3C2.72386 12.5 2.5 12.2761 2.5 12C2.5 11.7239 2.72386 11.5 3 11.5H21C21.2761 11.5 21.5 11.7239 21.5 12C21.5 12.2761 21.2761 12.5 21 12.5ZM14.5 18.5H17.5V16.5H14.5V18.5ZM14.5 7.5H17.5V5.5H14.5V7.5ZM6.5 20.5H9.5V16.5H6.5V20.5ZM6.5 7.5H9.5V3.5H6.5V7.5ZM17.5 15.5C18.0523 15.5 18.5 15.9477 18.5 16.5V18.5C18.5 19.0523 18.0523 19.5 17.5 19.5H14.5C13.9477 19.5 13.5 19.0523 13.5 18.5V16.5C13.5 15.9477 13.9477 15.5 14.5 15.5H17.5ZM17.5 4.5C18.0523 4.5 18.5 4.94772 18.5 5.5V7.5C18.5 8.05229 18.0523 8.5 17.5 8.5H14.5C13.9477 8.5 13.5 8.05229 13.5 7.5V5.5C13.5 4.94772 13.9477 4.5 14.5 4.5H17.5ZM9.5 15.5C10.0523 15.5 10.5 15.9477 10.5 16.5V20.5C10.5 21.0523 10.0523 21.5 9.5 21.5H6.5C5.94772 21.5 5.5 21.0523 5.5 20.5V16.5C5.5 15.9477 5.94772 15.5 6.5 15.5H9.5ZM9.5 2.5C10.0523 2.5 10.5 2.94772 10.5 3.5V7.5C10.5 8.05229 10.0523 8.5 9.5 8.5H6.5C5.94772 8.5 5.5 8.05229 5.5 7.5V3.5C5.5 2.94772 5.94772 2.5 6.5 2.5H9.5Z" fill="black"/>
</svg>
