<svg width="24" height="24" viewBox="0 0 24 24" fill="none" xmlns="http://www.w3.org/2000/svg">
<path d="M3 5C3 3.89543 3.89543 3 5 3H19C20.1046 3 21 3.89543 21 5V19C21 20.1046 20.1046 21 19 21H5C3.89543 21 3 20.1046 3 19V5Z" fill="#8A38F5" fill-opacity="0.25"/>
<path d="M20.5 5C20.5 4.17157 19.8284 3.5 19 3.5H5C4.17157 3.5 3.5 4.17157 3.5 5V19C3.5 19.8284 4.17157 20.5 5 20.5H19C19.8284 20.5 20.5 19.8284 20.5 19V5ZM7.00098 6.5C7.27712 6.5 7.50098 6.72386 7.50098 7C7.50098 7.27614 7.27712 7.5 7.00098 7.5C6.72483 7.5 6.5 7.27614 6.5 7C6.5 6.72386 6.72483 6.5 7.00098 6.5ZM10.001 6.5C10.2771 6.5 10.501 6.72386 10.501 7C10.501 7.27614 10.2771 7.5 10.001 7.5C9.72483 7.5 9.5 7.27614 9.5 7C9.5 6.72386 9.72483 6.5 10.001 6.5ZM17 6.5C17.2761 6.5 17.5 6.72386 17.5 7C17.5 7.27614 17.2761 7.5 17 7.5H13C12.7239 7.5 12.5 7.27614 12.5 7C12.5 6.72386 12.7239 6.5 13 6.5H17ZM21.5 19C21.5 20.3807 20.3807 21.5 19 21.5H5C3.61929 21.5 2.5 20.3807 2.5 19V5C2.5 3.61929 3.61929 2.5 5 2.5H19C20.3807 2.5 21.5 3.61929 21.5 5V19Z" fill="black"/>
</svg>
