<svg width="24" height="24" viewBox="0 0 24 24" fill="none" xmlns="http://www.w3.org/2000/svg">
<path d="M4 7H20V19C20 20.1046 19.1046 21 18 21H6C4.89543 21 4 20.1046 4 19V7Z" fill="#8A38F5" fill-opacity="0.25"/>
<path d="M19.5 7.5H4.5V19C4.5 19.8284 5.17157 20.5 6 20.5H18C18.8284 20.5 19.5 19.8284 19.5 19V7.5ZM14 10.5C14.2761 10.5 14.5 10.7239 14.5 11C14.5 11.2761 14.2761 11.5 14 11.5H10C9.72386 11.5 9.5 11.2761 9.5 11C9.5 10.7239 9.72386 10.5 10 10.5H14ZM20.5 4C20.5 3.72386 20.2761 3.5 20 3.5H4C3.72386 3.5 3.5 3.72386 3.5 4V6C3.5 6.27614 3.72386 6.5 4 6.5H20C20.2761 6.5 20.5 6.27614 20.5 6V4ZM21.5 6C21.5 6.65281 21.0822 7.20597 20.5 7.41211V19C20.5 20.3807 19.3807 21.5 18 21.5H6C4.61929 21.5 3.5 20.3807 3.5 19V7.41211C2.91782 7.20597 2.5 6.65281 2.5 6V4C2.5 3.17157 3.17157 2.5 4 2.5H20C20.8284 2.5 21.5 3.17157 21.5 4V6Z" fill="black"/>
</svg>
