<svg width="24" height="24" viewBox="0 0 24 24" fill="none" xmlns="http://www.w3.org/2000/svg">
<path d="M21 12C21 16.9706 16.9706 21 12 21C7.02944 21 3 16.9706 3 12C3 7.02944 7.02944 3 12 3C16.9706 3 21 7.02944 21 12Z" fill="#8A38F5" fill-opacity="0.25"/>
<path d="M3.72191 1.39349C3.72191 1.11736 3.94578 0.8935 4.22191 0.893494C4.49806 0.893494 4.72191 1.11735 4.72191 1.39349V5.89447C4.89847 5.68447 5.08498 5.47964 5.28246 5.28217C8.99245 1.57233 15.0081 1.57224 18.718 5.28217C22.4279 8.9921 22.4278 15.0077 18.718 18.7177C15.008 22.4277 8.99244 22.4277 5.28246 18.7177C3.47984 16.9151 2.55291 14.5668 2.50219 12.205C2.49642 11.9291 2.71546 11.7002 2.99144 11.6943C3.26742 11.6883 3.4961 11.9076 3.50219 12.1835C3.5476 14.2979 4.37634 16.3975 5.98949 18.0107C9.30895 21.3301 14.6915 21.3301 18.011 18.0107C21.3301 14.6914 21.3299 9.30962 18.011 5.99017C14.6915 2.67072 9.30895 2.67072 5.98949 5.99017C5.80857 6.17112 5.63789 6.35835 5.4768 6.55072H9.87914C10.1551 6.55092 10.3791 6.7747 10.3791 7.05072C10.3789 7.32657 10.155 7.55053 9.87914 7.55072H4.72191C4.16976 7.55071 3.72211 7.10283 3.72191 6.55072V1.39349Z" fill="black"/>
</svg>
