<svg width="24" height="24" viewBox="0 0 24 24" fill="none" xmlns="http://www.w3.org/2000/svg">
<path d="M6.34313 6.34314V12.7071L13.0606 19.4246C13.8417 20.2057 15.108 20.2057 15.8891 19.4246L19.4246 15.8891C20.2057 15.108 20.2057 13.8417 19.4246 13.0607L12.7071 6.34314H6.34313Z" fill="#8A38F5" fill-opacity="0.25"/>
<path d="M13.207 6.34309C13.207 6.06694 12.9832 5.84314 12.7071 5.84314L6.84308 5.84314C6.29084 5.84317 5.84321 6.29079 5.84319 6.84303V12.707C5.84319 12.9832 6.06699 13.207 6.34313 13.207C6.61927 13.207 6.84308 12.9832 6.84308 12.707V7.55014L17.3033 18.0103C17.4985 18.2056 17.8151 18.2056 18.0104 18.0103C18.2057 17.8151 18.2057 17.4985 18.0104 17.3032L7.55019 6.84303L12.7071 6.84303C12.9832 6.84303 13.207 6.61923 13.207 6.34309Z" fill="black"/>
</svg>
