<svg width="24" height="24" viewBox="0 0 24 24" fill="none" xmlns="http://www.w3.org/2000/svg">
<path d="M12 4L7.5 8.5V18C7.5 19.1046 8.39543 20 9.5 20H14.5C15.6046 20 16.5 19.1046 16.5 18V8.5L12 4Z" fill="#8A38F5" fill-opacity="0.25"/>
<path d="M16.8535 8.85352C17.0488 8.65826 17.0488 8.34176 16.8535 8.14649L12.707 4.00001C12.3165 3.60954 11.6835 3.60953 11.293 4.00001L7.14649 8.14649C6.95123 8.34176 6.95123 8.65826 7.14649 8.85352C7.34176 9.04879 7.65826 9.04879 7.85352 8.85352L11.5 5.20704V20C11.5 20.2762 11.7239 20.5 12 20.5C12.2762 20.5 12.5 20.2762 12.5 20V5.20704L16.1465 8.85352C16.3418 9.04879 16.6583 9.04879 16.8535 8.85352Z" fill="black"/>
</svg>
