<svg width="24" height="24" viewBox="0 0 24 24" fill="none" xmlns="http://www.w3.org/2000/svg">
<path d="M21 12C21 16.9706 16.9706 21 12 21C7.02944 21 3 16.9706 3 12C3 7.02944 7.02944 3 12 3C16.9706 3 21 7.02944 21 12Z" fill="#8A38F5" fill-opacity="0.25"/>
<path d="M12 20.5C16.6944 20.5 20.5 16.6944 20.5 12C20.5 7.30558 16.6944 3.5 12 3.5C7.30558 3.5 3.5 7.30558 3.5 12C3.5 16.6944 7.30558 20.5 12 20.5ZM16.3535 12.6465C16.5488 12.8417 16.5488 13.1583 16.3535 13.3535L12.707 17C12.3165 17.3905 11.6835 17.3905 11.293 17L7.64648 13.3535C7.45122 13.1583 7.45122 12.8417 7.64648 12.6465C7.84175 12.4512 8.15825 12.4512 8.35352 12.6465L11.5 15.793V7C11.5 6.72386 11.7239 6.5 12 6.5C12.2761 6.5 12.5 6.72386 12.5 7V15.793L15.6465 12.6465C15.8417 12.4512 16.1583 12.4512 16.3535 12.6465ZM12 21.5C6.75329 21.5 2.5 17.2467 2.5 12C2.5 6.75329 6.75329 2.5 12 2.5C17.2467 2.5 21.5 6.75329 21.5 12C21.5 17.2467 17.2467 21.5 12 21.5Z" fill="black"/>
</svg>
