<svg width="24" height="24" viewBox="0 0 24 24" fill="none" xmlns="http://www.w3.org/2000/svg">
<path d="M6.34313 6.34314V12.7071L13.0606 19.4246C13.8417 20.2057 15.108 20.2057 15.8891 19.4246L19.4246 15.8891C20.2057 15.108 20.2057 13.8417 19.4246 13.0607L12.7071 6.34314H6.34313Z" fill="#8A38F5" fill-opacity="0.25"/>
<path d="M13.207 6.34315C13.207 6.067 12.9832 5.8432 12.7071 5.8432L6.84308 5.8432C6.29084 5.84323 5.84321 6.29085 5.84319 6.84309V12.7071C5.84319 12.9833 6.06699 13.2071 6.34313 13.2071C6.61927 13.2071 6.84308 12.9833 6.84308 12.7071V7.5502L17.3033 18.0104C17.4985 18.2057 17.8151 18.2057 18.0104 18.0104C18.2057 17.8151 18.2057 17.4986 18.0104 17.3033L7.55019 6.84309L12.7071 6.84309C12.9832 6.84309 13.207 6.61929 13.207 6.34315Z" fill="black"/>
</svg>
