<svg width="24" height="24" viewBox="0 0 24 24" fill="none" xmlns="http://www.w3.org/2000/svg">
<path d="M4 12L8.5 16.5H18C19.1046 16.5 20 15.6046 20 14.5V9.5C20 8.39543 19.1046 7.5 18 7.5H8.5L4 12Z" fill="#8A38F5" fill-opacity="0.25"/>
<path d="M8.85351 7.14645C8.65825 6.95118 8.34174 6.95118 8.14648 7.14645L3.99999 11.2929C3.60952 11.6834 3.60952 12.3165 3.99999 12.707L8.14648 16.8535C8.34174 17.0487 8.65825 17.0487 8.85351 16.8535C9.04877 16.6582 9.04877 16.3417 8.85351 16.1464L5.20702 12.5H20C20.2761 12.5 20.5 12.2761 20.5 12C20.5 11.7238 20.2761 11.5 20 11.5H5.20702L8.85351 7.85348C9.04877 7.65822 9.04877 7.34171 8.85351 7.14645Z" fill="black"/>
</svg>
