<svg width="24" height="24" viewBox="0 0 24 24" fill="none" xmlns="http://www.w3.org/2000/svg">
<path d="M17.6569 17.6568V11.2929L10.9393 4.57535C10.1583 3.7943 8.89196 3.7943 8.11091 4.57535L4.57538 8.11088C3.79433 8.89193 3.79433 10.1583 4.57538 10.9393L11.2929 17.6568H17.6569Z" fill="#8A38F5" fill-opacity="0.25"/>
<path d="M10.7929 17.6568C10.7929 17.933 11.0167 18.1568 11.2929 18.1568H17.1569C17.7091 18.1568 18.1568 17.7091 18.1568 17.1569V11.2929C18.1568 11.0167 17.933 10.7929 17.6568 10.7929C17.3807 10.7929 17.1569 11.0167 17.1569 11.2929V16.4498L6.69669 5.98959C6.50143 5.79432 6.18485 5.79432 5.98959 5.98959C5.79432 6.18485 5.79432 6.50143 5.98959 6.69669L16.4498 17.1569H11.2929C11.0167 17.1569 10.7929 17.3807 10.7929 17.6568Z" fill="black"/>
</svg>
