<svg width="24" height="24" viewBox="0 0 24 24" fill="none" xmlns="http://www.w3.org/2000/svg">
<path d="M20 12L15.5 16.5H6C4.89543 16.5 4 15.6046 4 14.5V9.5C4 8.39543 4.89543 7.5 6 7.5H15.5L20 12Z" fill="#8A38F5" fill-opacity="0.25"/>
<path d="M15.1465 7.14651C15.3417 6.95125 15.6583 6.95125 15.8535 7.14651L20 11.293C20.3905 11.6835 20.3905 12.3165 20 12.7071L15.8535 16.8535C15.6583 17.0488 15.3417 17.0488 15.1465 16.8535C14.9512 16.6583 14.9512 16.3418 15.1465 16.1465L18.793 12.5H4C3.72386 12.5 3.5 12.2762 3.5 12C3.5 11.7239 3.72386 11.5 4 11.5H18.793L15.1465 7.85354C14.9512 7.65828 14.9512 7.34177 15.1465 7.14651Z" fill="black"/>
</svg>
