<svg width="24" height="24" viewBox="0 0 24 24" fill="none" xmlns="http://www.w3.org/2000/svg">
<path d="M21 12C21 16.9706 16.9706 21 12 21C7.02944 21 3 16.9706 3 12C3 7.02944 7.02944 3 12 3C16.9706 3 21 7.02944 21 12Z" fill="#8A38F5" fill-opacity="0.25"/>
<path d="M5.98959 18.0104C9.30905 21.3299 14.691 21.3299 18.0104 18.0104C21.3299 14.691 21.3299 9.30905 18.0104 5.98959C14.691 2.67014 9.30905 2.67014 5.98959 5.98959C2.67014 9.30905 2.67014 14.691 5.98959 18.0104ZM14.6213 15.5355C14.6213 15.8117 14.3975 16.0355 14.1213 16.0355H8.96441C8.41217 16.0355 7.96455 15.5878 7.96452 15.0356V9.87868C7.96452 9.60254 8.18832 9.37873 8.46447 9.37873C8.74061 9.37873 8.96441 9.60254 8.96441 9.87868V14.3285L15.182 8.11091C15.3772 7.91565 15.6938 7.91565 15.8891 8.11091C16.0843 8.30617 16.0843 8.62276 15.8891 8.81802L9.67152 15.0356H14.1213C14.3975 15.0356 14.6213 15.2594 14.6213 15.5355ZM5.28249 18.7175C1.5725 15.0075 1.5725 8.99247 5.28249 5.28249C8.99247 1.5725 15.0075 1.5725 18.7175 5.28249C22.4275 8.99247 22.4275 15.0075 18.7175 18.7175C15.0075 22.4275 8.99247 22.4275 5.28249 18.7175Z" fill="black"/>
</svg>
