<svg width="24" height="24" viewBox="0 0 24 24" fill="none" xmlns="http://www.w3.org/2000/svg">
<path d="M21 12C21 16.9706 16.9706 21 12 21C7.02944 21 3 16.9706 3 12C3 7.02944 7.02944 3 12 3C16.9706 3 21 7.02944 21 12Z" fill="#8A38F5" fill-opacity="0.25"/>
<path d="M19.2784 1.39343C19.2784 1.11729 19.5022 0.893433 19.7784 0.893433C20.0544 0.893512 20.2784 1.11734 20.2784 1.39343V6.55066C20.2782 7.10272 19.8305 7.55058 19.2784 7.55066H14.1211C13.8452 7.55054 13.6213 7.32656 13.6211 7.05066C13.6211 6.77459 13.8451 6.55078 14.1211 6.55066H18.5235C18.3624 6.35829 18.1917 6.17106 18.0108 5.99011C14.6913 2.67066 9.30875 2.67066 5.9893 5.99011C2.67027 9.30958 2.67005 14.6913 5.9893 18.0106C9.30875 21.3301 14.6913 21.3301 18.0108 18.0106C19.6239 16.3975 20.4527 14.2978 20.4981 12.1835C20.5042 11.9075 20.7328 11.6883 21.0088 11.6942C21.2847 11.7002 21.5038 11.9291 21.4981 12.205C21.4474 14.5667 20.5204 16.915 18.7178 18.7177C15.0078 22.4276 8.99224 22.4276 5.28226 18.7177C1.57236 15.0077 1.57231 8.99206 5.28226 5.2821C8.99222 1.57223 15.0078 1.57223 18.7178 5.2821C18.9153 5.4796 19.1018 5.68438 19.2784 5.89441V1.39343Z" fill="black"/>
</svg>
