<svg width="24" height="24" viewBox="0 0 24 24" fill="none" xmlns="http://www.w3.org/2000/svg">
<path d="M17.6569 6.34314H11.2929L4.57538 13.0607C3.79433 13.8417 3.79433 15.108 4.57538 15.8891L8.11091 19.4246C8.89196 20.2057 10.1583 20.2057 10.9393 19.4246L17.6569 12.7071V6.34314Z" fill="#8A38F5" fill-opacity="0.25"/>
<path d="M17.6569 13.2071C17.933 13.2071 18.1568 12.9833 18.1568 12.7071V6.84309C18.1568 6.29085 17.7092 5.84323 17.1569 5.8432H11.2929C11.0168 5.8432 10.793 6.067 10.793 6.34315C10.793 6.61929 11.0168 6.84309 11.2929 6.84309H16.4498L5.9896 17.3033C5.79434 17.4986 5.79434 17.8151 5.9896 18.0104C6.18486 18.2057 6.50145 18.2057 6.69671 18.0104L17.1569 7.5502V12.7071C17.1569 12.9833 17.3807 13.2071 17.6569 13.2071Z" fill="black"/>
</svg>
