<svg width="24" height="24" viewBox="0 0 24 24" fill="none" xmlns="http://www.w3.org/2000/svg">
<path d="M3 5C3 3.89543 3.89543 3 5 3H19C20.1046 3 21 3.89543 21 5V19C21 20.1046 20.1046 21 19 21H5C3.89543 21 3 20.1046 3 19V5Z" fill="#8A38F5" fill-opacity="0.25"/>
<path d="M20.5 5C20.5 4.17157 19.8284 3.5 19 3.5H5C4.17157 3.5 3.5 4.17157 3.5 5V19C3.5 19.8284 4.17157 20.5 5 20.5H19C19.8284 20.5 20.5 19.8284 20.5 19V5ZM15.6465 7.64648C15.8417 7.45122 16.1583 7.45122 16.3535 7.64648C16.5488 7.84175 16.5488 8.15825 16.3535 8.35352L9.20703 15.5H14C14.2761 15.5 14.5 15.7239 14.5 16C14.5 16.2761 14.2761 16.5 14 16.5H8.5C7.94772 16.5 7.5 16.0523 7.5 15.5V10C7.5 9.72386 7.72386 9.5 8 9.5C8.27614 9.5 8.5 9.72386 8.5 10V14.793L15.6465 7.64648ZM21.5 19C21.5 20.3807 20.3807 21.5 19 21.5H5C3.61929 21.5 2.5 20.3807 2.5 19V5C2.5 3.61929 3.61929 2.5 5 2.5H19C20.3807 2.5 21.5 3.61929 21.5 5V19Z" fill="black"/>
</svg>
