<svg width="24" height="24" viewBox="0 0 24 24" fill="none" xmlns="http://www.w3.org/2000/svg">
<path d="M6.34314 17.6568H12.7071L19.4246 10.9393C20.2057 10.1583 20.2057 8.89193 19.4246 8.11088L15.8891 4.57535C15.108 3.7943 13.8417 3.7943 13.0607 4.57535L6.34314 11.2929V17.6568Z" fill="#8A38F5" fill-opacity="0.25"/>
<path d="M6.34315 10.7929C6.067 10.7929 5.8432 11.0167 5.8432 11.2929L5.8432 17.1569C5.84323 17.7091 6.29085 18.1568 6.84309 18.1568H12.7071C12.9833 18.1568 13.2071 17.933 13.2071 17.6568C13.2071 17.3807 12.9833 17.1569 12.7071 17.1569H7.5502L18.0104 6.69669C18.2057 6.50143 18.2057 6.18485 18.0104 5.98959C17.8151 5.79432 17.4986 5.79432 17.3033 5.98959L6.84309 16.4498L6.84309 11.2929C6.84309 11.0167 6.61929 10.7929 6.34315 10.7929Z" fill="black"/>
</svg>
