<svg width="24" height="24" viewBox="0 0 24 24" fill="none" xmlns="http://www.w3.org/2000/svg">
<path d="M5 5C5 3.89543 5.89543 3 7 3L17 3C18.1046 3 19 3.89543 19 5V18.8258C19 19.6801 17.9979 20.141 17.3492 19.585L13.3016 16.1156C12.5526 15.4737 11.4474 15.4737 10.6984 16.1156L6.65079 19.585C6.00212 20.141 5 19.6801 5 18.8258V5Z" fill="#8A38F5" fill-opacity="0.25"/>
<path d="M10.373 15.7363C11.3093 14.9339 12.6907 14.9339 13.627 15.7363L17.6748 19.2051C17.999 19.483 18.4997 19.2531 18.5 18.8262V5C18.5 4.17157 17.8284 3.5 17 3.5H7C6.17157 3.5 5.5 4.17157 5.5 5V18.8262C5.50031 19.2531 6.00096 19.483 6.3252 19.2051L10.373 15.7363ZM19.5 18.8262C19.4997 20.1075 17.9963 20.7988 17.0234 19.9648L12.9766 16.4951C12.4148 16.0136 11.5852 16.0136 11.0234 16.4951L6.97656 19.9648C6.00365 20.7988 4.50031 20.1075 4.5 18.8262V5C4.5 3.61929 5.61929 2.5 7 2.5H17C18.3807 2.5 19.5 3.61929 19.5 5V18.8262Z" fill="black"/>
</svg>
