<svg width="24" height="24" viewBox="0 0 24 24" fill="none" xmlns="http://www.w3.org/2000/svg">
<path d="M3 7H21V19C21 20.1046 20.1046 21 19 21H5C3.89543 21 3 20.1046 3 19V7Z" fill="#8A38F5" fill-opacity="0.25"/>
<path d="M20.5 7.5H3.5V19C3.5 19.8284 4.17157 20.5 5 20.5H19C19.8284 20.5 20.5 19.8284 20.5 19V7.5ZM15.5 4V3.5H8.5V4C8.5 4.27614 8.27614 4.5 8 4.5C7.72386 4.5 7.5 4.27614 7.5 4V3.5H5C4.17157 3.5 3.5 4.17157 3.5 5V6.5H20.5V5C20.5 4.17157 19.8284 3.5 19 3.5H16.5V4C16.5 4.27614 16.2761 4.5 16 4.5C15.7239 4.5 15.5 4.27614 15.5 4ZM21.5 19C21.5 20.3807 20.3807 21.5 19 21.5H5C3.61929 21.5 2.5 20.3807 2.5 19V5C2.5 3.61929 3.61929 2.5 5 2.5H7.5V2C7.5 1.72386 7.72386 1.5 8 1.5C8.27614 1.5 8.5 1.72386 8.5 2V2.5H15.5V2C15.5 1.72386 15.7239 1.5 16 1.5C16.2761 1.5 16.5 1.72386 16.5 2V2.5H19C20.3807 2.5 21.5 3.61929 21.5 5V19Z" fill="black"/>
</svg>
