<svg width="24" height="24" viewBox="0 0 24 24" fill="none" xmlns="http://www.w3.org/2000/svg">
<path d="M21 12C21 16.9706 16.9706 21 12 21C7.02944 21 3 16.9706 3 12C3 7.02944 7.02944 3 12 3C16.9706 3 21 7.02944 21 12Z" fill="#8A38F5" fill-opacity="0.25"/>
<path d="M3.5 12C3.5 7.30558 7.30558 3.5 12 3.5C16.6944 3.5 20.5 7.30558 20.5 12C20.5 16.6944 16.6944 20.5 12 20.5C7.30558 20.5 3.5 16.6944 3.5 12ZM13.3535 7.64648C13.1583 7.45122 12.8417 7.45122 12.6465 7.64648L9 11.293C8.60953 11.6835 8.60952 12.3165 9 12.707L12.6465 16.3535C12.8417 16.5488 13.1583 16.5488 13.3535 16.3535C13.5488 16.1583 13.5488 15.8417 13.3535 15.6465L9.70703 12L13.3535 8.35352C13.5488 8.15825 13.5488 7.84175 13.3535 7.64648ZM2.5 12C2.5 17.2467 6.75329 21.5 12 21.5C17.2467 21.5 21.5 17.2467 21.5 12C21.5 6.75329 17.2467 2.5 12 2.5C6.75329 2.5 2.5 6.75329 2.5 12Z" fill="black"/>
</svg>
