<svg width="24" height="24" viewBox="0 0 24 24" fill="none" xmlns="http://www.w3.org/2000/svg">
<path d="M21 12C21 16.9706 16.9706 21 12 21C7.02944 21 3 16.9706 3 12C3 7.02944 7.02944 3 12 3C16.9706 3 21 7.02944 21 12Z" fill="#8A38F5" fill-opacity="0.25"/>
<path d="M20.5 12C20.5 7.30558 16.6944 3.5 12 3.5C7.30558 3.5 3.5 7.30558 3.5 12C3.5 16.6944 7.30558 20.5 12 20.5C16.6944 20.5 20.5 16.6944 20.5 12ZM10.6465 7.64648C10.8417 7.45122 11.1583 7.45122 11.3535 7.64648L15 11.293C15.3905 11.6835 15.3905 12.3165 15 12.707L11.3535 16.3535C11.1583 16.5488 10.8417 16.5488 10.6465 16.3535C10.4512 16.1583 10.4512 15.8417 10.6465 15.6465L14.293 12L10.6465 8.35352C10.4512 8.15825 10.4512 7.84175 10.6465 7.64648ZM21.5 12C21.5 17.2467 17.2467 21.5 12 21.5C6.75329 21.5 2.5 17.2467 2.5 12C2.5 6.75329 6.75329 2.5 12 2.5C17.2467 2.5 21.5 6.75329 21.5 12Z" fill="black"/>
</svg>
