<svg width="24" height="24" viewBox="0 0 24 24" fill="none" xmlns="http://www.w3.org/2000/svg">
<path d="M21 12C21 16.9706 16.9706 21 12 21C7.02944 21 3 16.9706 3 12C3 7.02944 7.02944 3 12 3C16.9706 3 21 7.02944 21 12Z" fill="#8A38F5" fill-opacity="0.25"/>
<path d="M13.1104 20.4277C13.3842 20.392 13.6352 20.5856 13.6709 20.8594C13.7066 21.1332 13.514 21.3842 13.2402 21.4199C12.8341 21.4729 12.4201 21.5 12 21.5C11.5799 21.5 11.1659 21.4729 10.7598 21.4199C10.486 21.3842 10.2934 21.1332 10.3291 20.8594C10.3648 20.5856 10.6158 20.392 10.8896 20.4277C11.2529 20.4751 11.6234 20.5 12 20.5C12.3766 20.5 12.7471 20.4751 13.1104 20.4277ZM4.55469 17.083C4.77365 16.9147 5.0876 16.9558 5.25586 17.1748C5.70839 17.7636 6.23636 18.2916 6.8252 18.7441C7.04415 18.9124 7.08525 19.2264 6.91699 19.4453C6.74869 19.6641 6.4347 19.7053 6.21582 19.5371C5.55808 19.0316 4.96838 18.4419 4.46289 17.7842C4.29469 17.5653 4.33593 17.2513 4.55469 17.083ZM18.7441 17.1748C18.9124 16.9558 19.2264 16.9147 19.4453 17.083C19.6641 17.2513 19.7053 17.5653 19.5371 17.7842C19.0316 18.4419 18.4419 19.0316 17.7842 19.5371C17.5653 19.7053 17.2513 19.6641 17.083 19.4453C16.9147 19.2264 16.9558 18.9124 17.1748 18.7441C17.7636 18.2916 18.2916 17.7636 18.7441 17.1748ZM2.5 12C2.5 11.5799 2.5271 11.1659 2.58008 10.7598C2.61582 10.486 2.86685 10.2934 3.14062 10.3291C3.41445 10.3648 3.60798 10.6158 3.57227 10.8896C3.52491 11.2529 3.5 11.6234 3.5 12C3.5 12.3766 3.52491 12.7471 3.57227 13.1104C3.60798 13.3842 3.41445 13.6352 3.14062 13.6709C2.86685 13.7066 2.61582 13.514 2.58008 13.2402C2.5271 12.8341 2.5 12.4201 2.5 12ZM20.5 12C20.5 11.6234 20.4751 11.2529 20.4277 10.8896C20.392 10.6158 20.5856 10.3648 20.8594 10.3291C21.1332 10.2934 21.3842 10.486 21.4199 10.7598C21.4729 11.1659 21.5 11.5799 21.5 12C21.5 12.4201 21.4729 12.8341 21.4199 13.2402C21.3842 13.514 21.1332 13.7066 20.8594 13.6709C20.5856 13.6352 20.392 13.3842 20.4277 13.1104C20.4751 12.7471 20.5 12.3766 20.5 12ZM6.21582 4.46289C6.4347 4.29469 6.74869 4.33593 6.91699 4.55469C7.08525 4.77365 7.04415 5.0876 6.8252 5.25586C6.23636 5.70839 5.70839 6.23636 5.25586 6.8252C5.0876 7.04415 4.77365 7.08525 4.55469 6.91699C4.33593 6.74869 4.29469 6.4347 4.46289 6.21582C4.96838 5.55808 5.55808 4.96838 6.21582 4.46289ZM17.083 4.55469C17.2513 4.33593 17.5653 4.29469 17.7842 4.46289C18.4419 4.96838 19.0316 5.55808 19.5371 6.21582C19.7053 6.4347 19.6641 6.74869 19.4453 6.91699C19.2264 7.08525 18.9124 7.04415 18.7441 6.8252C18.2916 6.23636 17.7636 5.70839 17.1748 5.25586C16.9558 5.0876 16.9147 4.77365 17.083 4.55469ZM12 2.5C12.4201 2.5 12.8341 2.5271 13.2402 2.58008C13.514 2.61582 13.7066 2.86685 13.6709 3.14062C13.6352 3.41445 13.3842 3.60798 13.1104 3.57227C12.7471 3.52491 12.3766 3.5 12 3.5C11.6234 3.5 11.2529 3.52491 10.8896 3.57227C10.6158 3.60798 10.3648 3.41445 10.3291 3.14062C10.2934 2.86685 10.486 2.61582 10.7598 2.58008C11.1659 2.5271 11.5799 2.5 12 2.5Z" fill="black"/>
</svg>
