<svg width="24" height="24" viewBox="0 0 24 24" fill="none" xmlns="http://www.w3.org/2000/svg">
<path d="M17.5 4.5C18.6046 4.5 19.5 5.39543 19.5 6.5V19C19.5 20.1046 18.6046 21 17.5 21H6.5C5.39543 21 4.5 20.1046 4.5 19V6.5C4.5 5.39543 5.39543 4.5 6.5 4.5H8C8 5.32843 8.67157 6 9.5 6H14.5C15.3284 6 16 5.32843 16 4.5H17.5Z" fill="#8A38F5" fill-opacity="0.25"/>
<path d="M14.6465 10.1465C14.8417 9.95122 15.1583 9.95122 15.3535 10.1465C15.5488 10.3417 15.5488 10.6583 15.3535 10.8535L13.207 13H21C21.2761 13 21.5 13.2239 21.5 13.5C21.5 13.7761 21.2761 14 21 14H13.207L15.3535 16.1465C15.5488 16.3417 15.5488 16.6583 15.3535 16.8535C15.1583 17.0488 14.8417 17.0488 14.6465 16.8535L12 14.207C11.6095 13.8165 11.6095 13.1835 12 12.793L14.6465 10.1465ZM19 9.5V6.5C19 5.67157 18.3284 5 17.5 5H16.4346C16.2123 5.86232 15.4317 6.5 14.5 6.5H9.5C8.56829 6.5 7.78765 5.86232 7.56543 5H6.5C5.67157 5 5 5.67157 5 6.5V19C5 19.8284 5.67157 20.5 6.5 20.5H17.5C18.3284 20.5 19 19.8284 19 19V17.5C19 17.2239 19.2239 17 19.5 17C19.7761 17 20 17.2239 20 17.5V19C20 20.3807 18.8807 21.5 17.5 21.5H6.5C5.11929 21.5 4 20.3807 4 19V6.5C4 5.11929 5.11929 4 6.5 4H7.56543C7.78765 3.13768 8.56829 2.5 9.5 2.5H14.5C15.4317 2.5 16.2123 3.13768 16.4346 4H17.5C18.8807 4 20 5.11929 20 6.5V9.5C20 9.77614 19.7761 10 19.5 10C19.2239 10 19 9.77614 19 9.5ZM9.5 3.5C8.94772 3.5 8.5 3.94772 8.5 4.5C8.5 5.05228 8.94772 5.5 9.5 5.5H14.5C15.0523 5.5 15.5 5.05228 15.5 4.5C15.5 3.94772 15.0523 3.5 14.5 3.5H9.5Z" fill="black"/>
</svg>
