<svg width="24" height="24" viewBox="0 0 24 24" fill="none" xmlns="http://www.w3.org/2000/svg">
<path d="M21 12C21 16.9706 16.9706 21 12 21C7.02944 21 3 16.9706 3 12C3 7.02944 7.02944 3 12 3C16.9706 3 21 7.02944 21 12Z" fill="#8A38F5" fill-opacity="0.25"/>
<path d="M5.28152 5.28221C8.9915 1.57229 15.0071 1.57225 18.7171 5.28221C22.427 8.99217 22.427 15.0078 18.7171 18.7178C15.0071 22.4277 8.9915 22.4277 5.28152 18.7178C3.47889 16.9151 2.55197 14.5668 2.50124 12.2051C2.49539 11.929 2.71447 11.7002 2.9905 11.6943C3.26653 11.6884 3.49524 11.9076 3.50124 12.1836C3.54666 14.2979 4.37539 16.3976 5.98855 18.0107C9.30801 21.3301 14.6906 21.3302 18.01 18.0107C21.3294 14.6913 21.3294 9.30868 18.01 5.98924C14.6906 2.66981 9.30801 2.66985 5.98855 5.98924C5.8078 6.16999 5.63779 6.35764 5.47683 6.54979H7.99929C8.27522 6.54986 8.49905 6.77389 8.49929 7.04979C8.49929 7.32588 8.27537 7.54971 7.99929 7.54979H4.72097C4.16879 7.54966 3.72097 7.10199 3.72097 6.54979V3.27049C3.72097 2.99443 3.94494 2.77062 4.22097 2.77049C4.49711 2.77049 4.72097 2.99435 4.72097 3.27049V5.89451C4.89755 5.68448 5.08401 5.47971 5.28152 5.28221ZM11.5012 6.99998C11.5012 6.72384 11.7251 6.49998 12.0012 6.49998C12.2773 6.50005 12.5012 6.72388 12.5012 6.99998V11.5H16.0012C16.2773 11.5001 16.5012 11.7239 16.5012 12C16.5012 12.2761 16.2773 12.4999 16.0012 12.5H12.2512C11.837 12.5 11.5012 12.1642 11.5012 11.75V6.99998Z" fill="black"/>
</svg>
