<svg width="24" height="24" viewBox="0 0 24 24" fill="none" xmlns="http://www.w3.org/2000/svg">
<path d="M21 12C21 16.9706 16.9706 21 12 21C7.02944 21 3 16.9706 3 12C3 7.02944 7.02944 3 12 3C16.9706 3 21 7.02944 21 12Z" fill="#8A38F5" fill-opacity="0.25"/>
<path d="M5.28152 5.28227C8.9915 1.57236 15.0071 1.57231 18.7171 5.28227C22.427 8.99223 22.427 15.0079 18.7171 18.7178C15.0071 22.4278 8.9915 22.4277 5.28152 18.7178C3.47889 16.9152 2.55197 14.5669 2.50124 12.2051C2.49539 11.9291 2.71447 11.7003 2.9905 11.6944C3.26653 11.6884 3.49524 11.9076 3.50124 12.1836C3.54666 14.298 4.37539 16.3976 5.98855 18.0108C9.30801 21.3302 14.6906 21.3302 18.01 18.0108C21.3294 14.6913 21.3294 9.30874 18.01 5.9893C14.6906 2.66987 9.30801 2.66991 5.98855 5.9893C5.8078 6.17005 5.63779 6.3577 5.47683 6.54985H7.99929C8.27522 6.54992 8.49905 6.77395 8.49929 7.04985C8.49929 7.32594 8.27537 7.54977 7.99929 7.54985H4.72097C4.16879 7.54972 3.72097 7.10205 3.72097 6.54985V3.27055C3.72097 2.99449 3.94494 2.77068 4.22097 2.77055C4.49711 2.77055 4.72097 2.99441 4.72097 3.27055V5.89457C4.89755 5.68454 5.08401 5.47977 5.28152 5.28227ZM11.5012 7.00004C11.5012 6.7239 11.7251 6.50004 12.0012 6.50004C12.2773 6.50011 12.5012 6.72394 12.5012 7.00004V11.5H16.0012C16.2773 11.5001 16.5012 11.7239 16.5012 12C16.5012 12.2761 16.2773 12.5 16.0012 12.5H12.2512C11.837 12.5 11.5012 12.1643 11.5012 11.75V7.00004Z" fill="black"/>
</svg>
