<svg width="24" height="24" viewBox="0 0 24 24" fill="none" xmlns="http://www.w3.org/2000/svg">
<path d="M8 3C9.10457 3 10 3.89543 10 5V19C10 20.1046 9.10457 21 8 21H5C3.89543 21 3 20.1046 3 19V5C3 3.89543 3.89543 3 5 3H8Z" fill="#8A38F5" fill-opacity="0.25"/>
<path d="M19 3C20.1046 3 21 3.89543 21 5V19C21 20.1046 20.1046 21 19 21H16C14.8954 21 14 20.1046 14 19V5C14 3.89543 14.8954 3 16 3H19Z" fill="#8A38F5" fill-opacity="0.25"/>
<path d="M9.5 5C9.5 4.17157 8.82843 3.5 8 3.5H5C4.17157 3.5 3.5 4.17157 3.5 5V19C3.5 19.8284 4.17157 20.5 5 20.5H8C8.82843 20.5 9.5 19.8284 9.5 19V5ZM20.5 5C20.5 4.17157 19.8284 3.5 19 3.5H16C15.1716 3.5 14.5 4.17157 14.5 5V19C14.5 19.8284 15.1716 20.5 16 20.5H19C19.8284 20.5 20.5 19.8284 20.5 19V5ZM10.5 19C10.5 20.3807 9.38071 21.5 8 21.5H5C3.61929 21.5 2.5 20.3807 2.5 19V5C2.5 3.61929 3.61929 2.5 5 2.5H8C9.38071 2.5 10.5 3.61929 10.5 5V19ZM21.5 19C21.5 20.3807 20.3807 21.5 19 21.5H16C14.6193 21.5 13.5 20.3807 13.5 19V5C13.5 3.61929 14.6193 2.5 16 2.5H19C20.3807 2.5 21.5 3.61929 21.5 5V19Z" fill="black"/>
</svg>
