<svg width="24" height="24" viewBox="0 0 24 24" fill="none" xmlns="http://www.w3.org/2000/svg">
<path d="M3 4C3 3.44772 3.44772 3 4 3H6C6.55228 3 7 3.44772 7 4V20C7 20.5523 6.55228 21 6 21H4C3.44772 21 3 20.5523 3 20V4Z" fill="#8A38F5" fill-opacity="0.25"/>
<path d="M6.5 4C6.5 3.72386 6.27614 3.5 6 3.5H4C3.72386 3.5 3.5 3.72386 3.5 4V20C3.5 20.2761 3.72386 20.5 4 20.5H6C6.27614 20.5 6.5 20.2761 6.5 20V4ZM17.5 15V12.5H15C14.7239 12.5 14.5 12.2761 14.5 12C14.5 11.7239 14.7239 11.5 15 11.5H17.5V9C17.5 8.72386 17.7239 8.5 18 8.5C18.2761 8.5 18.5 8.72386 18.5 9V11.5H21C21.2761 11.5 21.5 11.7239 21.5 12C21.5 12.2761 21.2761 12.5 21 12.5H18.5V15C18.5 15.2761 18.2761 15.5 18 15.5C17.7239 15.5 17.5 15.2761 17.5 15ZM13.5 8V4C13.5 3.72386 13.2761 3.5 13 3.5H11C10.7239 3.5 10.5 3.72386 10.5 4V20C10.5 20.2761 10.7239 20.5 11 20.5H13C13.2761 20.5 13.5 20.2761 13.5 20V16C13.5 15.7239 13.7239 15.5 14 15.5C14.2761 15.5 14.5 15.7239 14.5 16V20C14.5 20.8284 13.8284 21.5 13 21.5H11C10.1716 21.5 9.5 20.8284 9.5 20V4C9.5 3.17157 10.1716 2.5 11 2.5H13C13.8284 2.5 14.5 3.17157 14.5 4V8C14.5 8.27614 14.2761 8.5 14 8.5C13.7239 8.5 13.5 8.27614 13.5 8ZM7.5 20C7.5 20.8284 6.82843 21.5 6 21.5H4C3.17157 21.5 2.5 20.8284 2.5 20V4C2.5 3.17157 3.17157 2.5 4 2.5H6C6.82843 2.5 7.5 3.17157 7.5 4V20Z" fill="black"/>
</svg>
