<svg width="24" height="24" viewBox="0 0 24 24" fill="none" xmlns="http://www.w3.org/2000/svg">
<path d="M3 4C3 3.44772 3.44772 3 4 3H6C6.55228 3 7 3.44772 7 4V20C7 20.5523 6.55228 21 6 21H4C3.44772 21 3 20.5523 3 20V4Z" fill="#8A38F5" fill-opacity="0.25"/>
<path d="M6.5 4C6.5 3.72386 6.27614 3.5 6 3.5H4C3.72386 3.5 3.5 3.72386 3.5 4V20C3.5 20.2761 3.72386 20.5 4 20.5H6C6.27614 20.5 6.5 20.2761 6.5 20V4ZM20.2676 9.52539C20.4628 9.33013 20.7803 9.33013 20.9756 9.52539C21.1704 9.72064 21.1706 10.0373 20.9756 10.2324L19.207 12L20.9756 13.7676C21.1706 13.9627 21.1704 14.2794 20.9756 14.4746C20.7803 14.6699 20.4628 14.6699 20.2676 14.4746L18.5 12.707L16.7324 14.4746C16.5372 14.6699 16.2207 14.6699 16.0254 14.4746C15.8302 14.2793 15.8302 13.9628 16.0254 13.7676L17.793 12L16.0254 10.2324C15.8302 10.0372 15.8302 9.72066 16.0254 9.52539C16.2207 9.33013 16.5372 9.33013 16.7324 9.52539L18.5 11.292L20.2676 9.52539ZM13.5 7V4C13.5 3.72386 13.2761 3.5 13 3.5H11C10.7239 3.5 10.5 3.72386 10.5 4V20C10.5 20.2761 10.7239 20.5 11 20.5H13C13.2761 20.5 13.5 20.2761 13.5 20V17C13.5 16.7239 13.7239 16.5 14 16.5C14.2761 16.5 14.5 16.7239 14.5 17V20C14.5 20.8284 13.8284 21.5 13 21.5H11C10.1716 21.5 9.5 20.8284 9.5 20V4C9.5 3.17157 10.1716 2.5 11 2.5H13C13.8284 2.5 14.5 3.17157 14.5 4V7C14.5 7.27614 14.2761 7.5 14 7.5C13.7239 7.5 13.5 7.27614 13.5 7ZM7.5 20C7.5 20.8284 6.82843 21.5 6 21.5H4C3.17157 21.5 2.5 20.8284 2.5 20V4C2.5 3.17157 3.17157 2.5 4 2.5H6C6.82843 2.5 7.5 3.17157 7.5 4V20Z" fill="black"/>
</svg>
