<svg width="24" height="24" viewBox="0 0 24 24" fill="none" xmlns="http://www.w3.org/2000/svg">
<path d="M4 10C4 8.89543 4.89543 8 6 8H18C19.1046 8 20 8.89543 20 10V14C20 15.1046 19.1046 16 18 16H6C4.89543 16 4 15.1046 4 14V10Z" fill="#8A38F5" fill-opacity="0.25"/>
<path d="M4 10.5C4.82843 10.5 5.5 11.1716 5.5 12C5.5 12.8284 4.82843 13.5 4 13.5C3.17157 13.5 2.5 12.8284 2.5 12C2.5 11.1716 3.17157 10.5 4 10.5Z" fill="black"/>
<path d="M12 10.5C12.8284 10.5 13.5 11.1716 13.5 12C13.5 12.8284 12.8284 13.5 12 13.5C11.1716 13.5 10.5 12.8284 10.5 12C10.5 11.1716 11.1716 10.5 12 10.5Z" fill="black"/>
<path d="M20 10.5C20.8284 10.5 21.5 11.1716 21.5 12C21.5 12.8284 20.8284 13.5 20 13.5C19.1716 13.5 18.5 12.8284 18.5 12C18.5 11.1716 19.1716 10.5 20 10.5Z" fill="black"/>
</svg>
