<svg width="24" height="24" viewBox="0 0 24 24" fill="none" xmlns="http://www.w3.org/2000/svg">
<path d="M3 8L11.0287 12.4604C11.6328 12.796 12.3672 12.796 12.9713 12.4604L21 8V17.5C21 18.6046 20.1046 19.5 19 19.5H5C3.89543 19.5 3 18.6046 3 17.5V8Z" fill="#8A38F5" fill-opacity="0.25"/>
<path d="M20.5 8.84936L12.4854 13.3025C12.1835 13.47 11.8165 13.47 11.5146 13.3025L3.5 8.84936V17.4998C3.5 18.3282 4.17157 18.9998 5 18.9998H19C19.8284 18.9998 20.5 18.3282 20.5 17.4998V8.84936ZM20.5 7.44116C20.4999 6.79571 20.0869 6.2225 19.4746 6.01831L12.4746 3.6853C12.1667 3.58267 11.8333 3.58267 11.5254 3.6853L4.52539 6.01831C3.91309 6.2225 3.50014 6.79571 3.5 7.44116V7.70581L12 12.4285L20.5 7.70581V7.44116ZM21.5 17.4998C21.5 18.8805 20.3807 19.9998 19 19.9998H5C3.61929 19.9998 2.5 18.8805 2.5 17.4998V7.44116C2.50014 6.36539 3.1885 5.41046 4.20898 5.07006L11.209 2.73608C11.7222 2.56502 12.2778 2.56502 12.791 2.73608L19.791 5.07006C20.8115 5.41046 21.4999 6.36539 21.5 7.44116V17.4998Z" fill="black"/>
</svg>
