<svg width="24" height="24" viewBox="0 0 24 24" fill="none" xmlns="http://www.w3.org/2000/svg">
<path d="M4.5 5C4.5 3.89543 5.39543 3 6.5 3H14.5V7.5C14.5 7.77614 14.7239 8 15 8H19.5V19C19.5 20.1046 18.6046 21 17.5 21H6.5C5.39543 21 4.5 20.1046 4.5 19V5Z" fill="#8A38F5" fill-opacity="0.25"/>
<path d="M4 19V5C4 3.61929 5.11929 2.5 6.5 2.5H13.6719C14.3348 2.50008 14.9707 2.76365 15.4395 3.23242L19.2676 7.06055C19.7363 7.52932 19.9999 8.16519 20 8.82812V19C20 20.3807 18.8807 21.5 17.5 21.5H6.5C5.11929 21.5 4 20.3807 4 19ZM15.5 16.5C15.7761 16.5 16 16.7239 16 17C16 17.2761 15.7761 17.5 15.5 17.5H8.5C8.22386 17.5 8 17.2761 8 17C8 16.7239 8.22386 16.5 8.5 16.5H15.5ZM15.5 13C15.7761 13 16 13.2239 16 13.5C16 13.7761 15.7761 14 15.5 14H8.5C8.22386 14 8 13.7761 8 13.5C8 13.2239 8.22386 13 8.5 13H15.5ZM10.5 9.5C10.7761 9.5 11 9.72386 11 10C11 10.2761 10.7761 10.5 10.5 10.5H8.5C8.22386 10.5 8 10.2761 8 10C8 9.72386 8.22386 9.5 8.5 9.5H10.5ZM18.293 7.5L15 4.20703V7.5H18.293ZM5 19C5 19.8284 5.67157 20.5 6.5 20.5H17.5C18.3284 20.5 19 19.8284 19 19V8.82812C19 8.71674 18.986 8.60699 18.9619 8.5H15C14.4477 8.5 14 8.05229 14 7.5V3.53711C13.8931 3.5131 13.7832 3.50002 13.6719 3.5H6.5C5.67157 3.5 5 4.17157 5 5V19Z" fill="black"/>
</svg>
