<svg width="24" height="24" viewBox="0 0 24 24" fill="none" xmlns="http://www.w3.org/2000/svg">
<path d="M3 6C3 4.89543 3.89543 4 5 4H8.5C9.12951 4 9.72229 4.29639 10.1 4.8L10.4 5.2C10.7777 5.70361 11.3705 6 12 6H19C20.1046 6 21 6.89543 21 8V18C21 19.1046 20.1046 20 19 20H5C3.89543 20 3 19.1046 3 18V6Z" fill="#8A38F5" fill-opacity="0.25"/>
<path d="M2.5 18V6C2.5 4.61929 3.61929 3.5 5 3.5H8.5C9.28689 3.5 10.0279 3.87049 10.5 4.5L10.7998 4.90039C11.0831 5.278 11.5279 5.5 12 5.5H19C20.3807 5.5 21.5 6.61929 21.5 8V18C21.5 19.3807 20.3807 20.5 19 20.5H5C3.61929 20.5 2.5 19.3807 2.5 18ZM17 9.5C17.2761 9.5 17.5 9.72386 17.5 10C17.5 10.2761 17.2761 10.5 17 10.5H7C6.72386 10.5 6.5 10.2761 6.5 10C6.5 9.72386 6.72386 9.5 7 9.5H17ZM3.5 18C3.5 18.8284 4.17157 19.5 5 19.5H19C19.8284 19.5 20.5 18.8284 20.5 18V8C20.5 7.17157 19.8284 6.5 19 6.5H12C11.2131 6.5 10.4721 6.12951 10 5.5L9.7002 5.09961C9.41691 4.722 8.97207 4.5 8.5 4.5H5C4.17157 4.5 3.5 5.17157 3.5 6V18Z" fill="black"/>
</svg>
