<svg width="24" height="24" viewBox="0 0 24 24" fill="none" xmlns="http://www.w3.org/2000/svg">
<path d="M3 6V18C3 19.1046 3.89543 20 5 20H6.5L8.17845 11.6078C8.36542 10.6729 9.18625 10 10.1396 10H20V8C20 6.89543 19.1046 6 18 6H12C11.3705 6 10.7777 5.70361 10.4 5.2L10.1 4.8C9.72229 4.29639 9.12951 4 8.5 4H5C3.89543 4 3 4.89543 3 6Z" fill="#8A38F5" fill-opacity="0.25"/>
<path d="M2.5 6C2.5 4.61929 3.61929 3.5 5 3.5H8.5C9.28689 3.5 10.0279 3.87049 10.5 4.5L10.7998 4.90039C11.0831 5.278 11.5279 5.5 12 5.5H18C19.3807 5.5 20.5 6.61929 20.5 8V9.5H20.7803C21.7267 9.50005 22.4365 10.3659 22.251 11.2939L20.8115 18.4902C20.5778 19.6588 19.5521 20.5 18.3604 20.5H5C3.61929 20.5 2.5 19.3807 2.5 18V6ZM3.5 18C3.5 18.8284 4.17157 19.5 5 19.5H18.3604C19.0754 19.5 19.6908 18.9951 19.8311 18.2939L21.2705 11.0977C21.3321 10.7884 21.0956 10.5 20.7803 10.5H10.1641C9.44106 10.5 8.82024 11.0157 8.68848 11.7266L7.88086 16.0908C7.83058 16.3623 7.56938 16.5415 7.29785 16.4912C7.02642 16.4409 6.84729 16.1806 6.89746 15.9092L7.70508 11.5449C7.92452 10.3599 8.95892 9.5 10.1641 9.5H19.5V8C19.5 7.17157 18.8284 6.5 18 6.5H12C11.2624 6.5 10.5651 6.17449 10.0918 5.61523L10 5.5L9.7002 5.09961C9.41691 4.722 8.97207 4.5 8.5 4.5H5C4.17157 4.5 3.5 5.17157 3.5 6V18Z" fill="black"/>
</svg>
