<svg width="24" height="24" viewBox="0 0 24 24" fill="none" xmlns="http://www.w3.org/2000/svg">
<path fill-rule="evenodd" clip-rule="evenodd" d="M13.3096 3C13.4219 3 13.5207 3.07536 13.5508 3.18359L14.3076 5.91113C14.3511 6.06772 14.5304 6.14245 14.6719 6.0625L17.1377 4.66895C17.2355 4.6137 17.3581 4.63056 17.4375 4.70996L19.29 6.56152C19.3694 6.64086 19.3861 6.76361 19.3311 6.86133L17.9375 9.32715C17.8576 9.46858 17.9314 9.64787 18.0879 9.69141L20.8164 10.4492C20.9246 10.4793 21 10.5781 21 10.6904V13.3096C21 13.4219 20.9246 13.5207 20.8164 13.5508L18.0879 14.3076C17.9314 14.3511 17.8576 14.5304 17.9375 14.6719L19.3311 17.1387C19.3861 17.2364 19.3694 17.3591 19.29 17.4385L17.4375 19.29C17.3581 19.3695 17.2355 19.3863 17.1377 19.3311L14.6719 17.9365C14.5304 17.8565 14.3511 17.9313 14.3076 18.0879L13.5508 20.8164C13.5208 20.9246 13.4219 21 13.3096 21H10.6895C10.5775 20.9999 10.4794 20.9252 10.4492 20.8174L9.69043 18.0879C9.6467 17.9318 9.4684 17.8578 9.32715 17.9375L6.8623 19.3311C6.76455 19.3863 6.64193 19.3694 6.5625 19.29L4.70898 17.4385C4.62969 17.3592 4.61307 17.2364 4.66797 17.1387L6.0625 14.6719C6.14228 14.5304 6.06765 14.3511 5.91113 14.3076L3.18262 13.5508C3.07453 13.5207 3 13.4218 3 13.3096V10.6904C3 10.5782 3.07454 10.4794 3.18262 10.4492L5.91113 9.69043C6.06763 9.6469 6.14239 9.46759 6.0625 9.32617L4.66895 6.86133C4.61403 6.76364 4.63069 6.6408 4.70996 6.56152L6.5625 4.70996C6.64191 4.63056 6.76454 4.61369 6.8623 4.66895L9.32715 6.06152C9.46844 6.14123 9.64673 6.06731 9.69043 5.91113L10.4492 3.18262C10.4794 3.07479 10.5775 3.00013 10.6895 3H13.3096ZM12 9C10.3431 9 9 10.3431 9 12C9 13.6569 10.3431 15 12 15C13.6569 15 15 13.6569 15 12C15 10.3431 13.6569 9 12 9Z" fill="#8A38F5" fill-opacity="0.25"/>
<path d="M10.1729 6.04492C10.0422 6.51437 9.50532 6.73682 9.08105 6.49707L6.78125 5.19727L5.19824 6.78027L6.49805 9.08008C6.73782 9.50434 6.51538 10.0412 6.0459 10.1719L3.5 10.8789V13.1201L6.04492 13.8262C6.51465 13.9565 6.73779 14.4936 6.49805 14.918L5.19727 17.2178L6.78125 18.8018L9.08105 17.502L9.16211 17.4629C9.54382 17.303 9.98662 17.4862 10.1436 17.8691L10.1729 17.9541L10.8799 20.5H13.1201L13.8262 17.9541L13.8555 17.8691C14.0121 17.4857 14.4549 17.302 14.8369 17.4619L14.918 17.502L17.2188 18.8018L18.8018 17.2188L17.502 14.918C17.2622 14.4935 17.4854 13.9565 17.9551 13.8262L20.5 13.1201V10.8799L17.9541 10.1729C17.4847 10.0422 17.2622 9.5053 17.502 9.08105L18.8018 6.78027L17.2188 5.19727L14.918 6.49805C14.4935 6.7378 13.9565 6.51464 13.8262 6.04492L13.1201 3.5H10.8799L10.1729 6.04492ZM14.5 12C14.5 10.6193 13.3807 9.5 12 9.5C10.6194 9.50013 9.5 10.6194 9.5 12C9.5 13.3806 10.6194 14.4999 12 14.5C13.3807 14.5 14.5 13.3807 14.5 12ZM15.5 12C15.5 13.933 13.933 15.5 12 15.5C10.0671 15.4999 8.5 13.9329 8.5 12C8.5 10.0671 10.0671 8.50013 12 8.5C13.933 8.5 15.5 10.067 15.5 12ZM21.5 13.3096C21.5 13.6465 21.2749 13.9421 20.9502 14.0322L18.5303 14.7041L19.7666 16.8926C19.9322 17.1858 19.8817 17.5538 19.6436 17.792L17.792 19.6436C17.5538 19.8817 17.1858 19.9322 16.8926 19.7666L14.7041 18.5293L14.0322 20.9502C13.9421 21.2749 13.6466 21.5 13.3096 21.5H10.6904C10.3537 21.5 10.0581 21.2755 9.96777 20.9512L9.29395 18.5303L7.1084 19.7666C6.81519 19.9322 6.44717 19.8826 6.20898 19.6445L4.35645 17.792C4.1182 17.5539 4.06779 17.1859 4.2334 16.8926L5.46875 14.7041L3.0498 14.0322C2.72511 13.9421 2.5 13.6465 2.5 13.3096V10.6904C2.5 10.3537 2.72449 10.0581 3.04883 9.96777L5.46875 9.29297L4.23438 7.10742C4.06877 6.81416 4.11926 6.44617 4.35742 6.20801L6.20898 4.35645L6.30469 4.27539C6.50538 4.13238 6.76451 4.09727 6.99609 4.18164L7.1084 4.2334L9.29395 5.46777L9.96777 3.04883L10.0107 2.93262C10.1323 2.67214 10.3956 2.5 10.6904 2.5H13.3096L13.4336 2.51074C13.6768 2.55132 13.885 2.70924 13.9893 2.93262L14.0322 3.0498L14.7041 5.46875L16.8926 4.2334L17.0059 4.18164C17.2372 4.09767 17.4959 4.13255 17.6963 4.27539L17.792 4.35645L19.6436 6.20801C19.8817 6.44617 19.9322 6.81417 19.7666 7.10742L18.5303 9.29395L20.9512 9.96777C21.2755 10.0581 21.5 10.3537 21.5 10.6904V13.3096Z" fill="black"/>
</svg>
