<svg width="24" height="24" viewBox="0 0 24 24" fill="none" xmlns="http://www.w3.org/2000/svg">
<path d="M20.4908 7.66999L12.9638 3.53016C12.3637 3.20007 11.6363 3.20007 11.0362 3.53016L3.50921 7.66999C2.85482 8.0299 2.85482 8.9702 3.50921 9.33011C3.81193 9.49661 4 9.8147 4 10.1602V15.3304C4 16.0529 4.38973 16.7193 5.01948 17.0735L11.0195 20.4485C11.6283 20.791 12.3717 20.791 12.9805 20.4485L18.9805 17.0735C19.6103 16.7193 20 16.0529 20 15.3304V10.1602C20 9.8147 20.1881 9.49661 20.4908 9.33011C21.1452 8.9702 21.1452 8.0299 20.4908 7.66999Z" fill="#8A38F5" fill-opacity="0.25"/>
<path d="M19.5 10.445L17.5 11.5455V17.3326L19.2451 16.3512C19.4026 16.2626 19.5 16.0953 19.5 15.9147V10.445ZM12.2412 3.70276C12.0912 3.62029 11.9088 3.62026 11.7588 3.70276L3.83398 8.06214C3.48896 8.2522 3.48888 8.74814 3.83398 8.93812L11.7588 13.2965C11.9088 13.379 12.0912 13.379 12.2412 13.2965L15.9619 11.2496L11.7588 8.93812C11.5171 8.80497 11.4296 8.50125 11.5625 8.25941C11.6956 8.01744 11.9992 7.92906 12.2412 8.06214L16.999 10.6793L20.166 8.93812C20.5114 8.74817 20.5113 8.25213 20.166 8.06214L12.2412 3.70276ZM4.5 15.9147C4.5 16.0953 4.59744 16.2626 4.75488 16.3512L11.7549 20.2887C11.907 20.3743 12.093 20.3742 12.2451 20.2887L16.5 17.8951V12.0953L12.7227 14.1735C12.2727 14.4207 11.7273 14.4208 11.2773 14.1735L4.5 10.445V15.9147ZM20.5 15.9147C20.5 16.4566 20.2077 16.9566 19.7354 17.2223L17.5 18.4791V20.4996C17.5 20.7758 17.2761 20.9996 17 20.9996C16.7239 20.9996 16.5 20.7757 16.5 20.4996V19.0416L12.7354 21.1598C12.2787 21.4166 11.7212 21.4166 11.2646 21.1598L4.26465 17.2223C3.79243 16.9566 3.5 16.4565 3.5 15.9147V9.89515L3.35254 9.81409C2.31638 9.2442 2.31638 7.75508 3.35254 7.18519L11.2773 2.82679C11.7273 2.57934 12.2726 2.57943 12.7227 2.82679L20.6484 7.18519C21.6843 7.75506 21.6841 9.24406 20.6484 9.81409L20.5 9.89515V15.9147Z" fill="black"/>
</svg>
