<svg width="24" height="24" viewBox="0 0 24 24" fill="none" xmlns="http://www.w3.org/2000/svg">
<path d="M8 14C9.10457 14 10 14.8954 10 16V19C10 20.1046 9.10457 21 8 21H5C3.89543 21 3 20.1046 3 19V16C3 14.8954 3.89543 14 5 14H8Z" fill="#8A38F5" fill-opacity="0.25"/>
<path d="M8 3C9.10457 3 10 3.89543 10 5V8C10 9.10457 9.10457 10 8 10H5C3.89543 10 3 9.10457 3 8V5C3 3.89543 3.89543 3 5 3H8Z" fill="#8A38F5" fill-opacity="0.25"/>
<path d="M19 3C20.1046 3 21 3.89543 21 5V8C21 9.10457 20.1046 10 19 10H16C14.8954 10 14 9.10457 14 8V5C14 3.89543 14.8954 3 16 3H19Z" fill="#8A38F5" fill-opacity="0.25"/>
<path d="M9.5 16C9.5 15.1716 8.82843 14.5 8 14.5H5C4.17157 14.5 3.5 15.1716 3.5 16V19C3.5 19.8284 4.17157 20.5 5 20.5H8C8.82843 20.5 9.5 19.8284 9.5 19V16ZM19.2676 15.0254C19.4628 14.8301 19.7803 14.8301 19.9756 15.0254C20.1704 15.2206 20.1706 15.5373 19.9756 15.7324L18.207 17.5L19.9756 19.2676C20.1706 19.4627 20.1704 19.7794 19.9756 19.9746C19.7803 20.1699 19.4628 20.1699 19.2676 19.9746L17.5 18.207L15.7324 19.9746C15.5372 20.1699 15.2207 20.1699 15.0254 19.9746C14.8302 19.7793 14.8302 19.4628 15.0254 19.2676L16.793 17.5L15.0254 15.7324C14.8302 15.5372 14.8302 15.2207 15.0254 15.0254C15.2207 14.8301 15.5372 14.8301 15.7324 15.0254L17.5 16.792L19.2676 15.0254ZM9.5 5C9.5 4.17157 8.82843 3.5 8 3.5H5C4.17157 3.5 3.5 4.17157 3.5 5V8C3.5 8.82843 4.17157 9.5 5 9.5H8C8.82843 9.5 9.5 8.82843 9.5 8V5ZM20.5 5C20.5 4.17157 19.8284 3.5 19 3.5H16C15.1716 3.5 14.5 4.17157 14.5 5V8C14.5 8.82843 15.1716 9.5 16 9.5H19C19.8284 9.5 20.5 8.82843 20.5 8V5ZM10.5 19C10.5 20.3807 9.38071 21.5 8 21.5H5C3.61929 21.5 2.5 20.3807 2.5 19V16C2.5 14.6193 3.61929 13.5 5 13.5H8C9.38071 13.5 10.5 14.6193 10.5 16V19ZM10.5 8C10.5 9.38071 9.38071 10.5 8 10.5H5C3.61929 10.5 2.5 9.38071 2.5 8V5C2.5 3.61929 3.61929 2.5 5 2.5H8C9.38071 2.5 10.5 3.61929 10.5 5V8ZM21.5 8C21.5 9.38071 20.3807 10.5 19 10.5H16C14.6193 10.5 13.5 9.38071 13.5 8V5C13.5 3.61929 14.6193 2.5 16 2.5H19C20.3807 2.5 21.5 3.61929 21.5 5V8Z" fill="black"/>
</svg>
