<svg width="24" height="24" viewBox="0 0 24 24" fill="none" xmlns="http://www.w3.org/2000/svg">
<path d="M11.0283 3.54002C11.6324 3.20443 12.3676 3.20443 12.9717 3.54002L19.9717 7.42869C20.6064 7.78148 21 8.45056 21 9.17673V19C21 20.1045 20.1046 21 19 21H15V14.5C15 14.2238 14.7761 14 14.5 14H9.5C9.22386 14 9 14.2238 9 14.5V21H5C3.89544 21 3.00001 20.1045 3 19V9.17673C3.00001 8.45056 3.39363 7.78148 4.02832 7.42869L11.0283 3.54002Z" fill="#8A38F5" fill-opacity="0.25"/>
<path d="M9.5 14.4998V20.4998H14.5V14.4998H9.5ZM15.5 20.4998H19C19.8284 20.4998 20.5 19.8282 20.5 18.9998V9.17653C20.4999 8.63195 20.2045 8.13054 19.7285 7.86598L12.7285 3.97633C12.2755 3.72471 11.7245 3.72471 11.2715 3.97633L4.27148 7.86598C3.79549 8.13054 3.50008 8.63195 3.5 9.17653V18.9998C3.5 19.8282 4.17157 20.4998 5 20.4998H8.5V14.4998C8.50009 13.9476 8.94777 13.4998 9.5 13.4998H14.5C15.0522 13.4998 15.4999 13.9476 15.5 14.4998V20.4998ZM21.5 18.9998C21.5 20.3805 20.3807 21.4998 19 21.4998H5C3.61929 21.4998 2.5 20.3805 2.5 18.9998V9.17653C2.50008 8.26869 2.99253 7.43187 3.78613 6.99098L10.7861 3.10231C11.5411 2.68302 12.4589 2.68302 13.2139 3.10231L20.2139 6.99098C21.0075 7.43187 21.4999 8.26869 21.5 9.17653V18.9998Z" fill="black"/>
</svg>
