<svg width="24" height="24" viewBox="0 0 24 24" fill="none" xmlns="http://www.w3.org/2000/svg">
<path d="M3 13H7.17157C7.70201 13 8.21071 13.2107 8.58579 13.5858L9.41421 14.4142C9.78929 14.7893 10.298 15 10.8284 15H13.1716C13.702 15 14.2107 14.7893 14.5858 14.4142L15.4142 13.5858C15.7893 13.2107 16.298 13 16.8284 13H21V18C21 19.1046 20.1046 20 19 20H5C3.89543 20 3 19.1046 3 18V13Z" fill="#8A38F5" fill-opacity="0.25"/>
<path d="M20.5 13.5H16.8281C16.4304 13.5001 16.0488 13.6583 15.7676 13.9395L14.9395 14.7676C14.4707 15.2364 13.8348 15.5 13.1719 15.5H10.8281C10.1652 15.5 9.52932 15.2364 9.06055 14.7676L8.23242 13.9395C7.95119 13.6583 7.56959 13.5001 7.17188 13.5H3.5V18C3.50004 18.8284 4.1716 19.5 5 19.5H19C19.8284 19.5 20.5 18.8284 20.5 18V13.5ZM11.5 10V3.20708L9.85352 4.85356C9.65826 5.04877 9.34174 5.04877 9.14648 4.85356C8.95123 4.65831 8.95126 4.3418 9.14648 4.14653L11.293 2.00005C11.6835 1.60952 12.3165 1.60952 12.707 2.00005L14.8535 4.14653C15.0487 4.3418 15.0488 4.65831 14.8535 4.85356C14.6583 5.04877 14.3417 5.04877 14.1465 4.85356L12.5 3.20708V10C12.5 10.2762 12.2761 10.5 12 10.5C11.7239 10.5 11.5 10.2762 11.5 10ZM21.5 18C21.5 19.3807 20.3807 20.5 19 20.5H5C3.61931 20.5 2.50004 19.3807 2.5 18V13.3243C2.50001 13.1883 2.51121 13.0527 2.5332 12.919C2.55463 12.7887 2.58606 12.6599 2.62793 12.5342L4.06934 8.20903C4.40966 7.18832 5.36544 6.50009 6.44141 6.50005H7C7.27614 6.50005 7.5 6.7239 7.5 7.00005C7.49996 7.27615 7.27612 7.50005 7 7.50005H6.44141C5.79587 7.50009 5.22277 7.91306 5.01855 8.52544L3.69434 12.5H7.17188C7.83481 12.5001 8.47068 12.7637 8.93945 13.2325L9.76758 14.0606C10.0488 14.3418 10.4304 14.5 10.8281 14.5H13.1719C13.5696 14.5 13.9512 14.3418 14.2324 14.0606L15.0605 13.2325C15.5293 12.7637 16.1652 12.5001 16.8281 12.5H20.3057L18.9814 8.52544C18.7772 7.91306 18.2041 7.50009 17.5586 7.50005H17C16.7239 7.50005 16.5 7.27615 16.5 7.00005C16.5 6.7239 16.7239 6.50005 17 6.50005H17.5586C18.6346 6.50009 19.5903 7.18832 19.9307 8.20903L21.3721 12.5342C21.396 12.6061 21.4153 12.6794 21.4326 12.753C21.4744 12.8261 21.5 12.9098 21.5 13C21.5 13.0356 21.4953 13.0701 21.4883 13.1036C21.4948 13.1769 21.5 13.2504 21.5 13.3243V18Z" fill="black"/>
</svg>
