<svg width="24" height="24" viewBox="0 0 24 24" fill="none" xmlns="http://www.w3.org/2000/svg">
<path d="M10.1973 3.29808C7.18456 4.09842 4.67163 6.44363 3.80695 9.67064C2.52047 14.4718 5.36971 19.4069 10.1709 20.6933C14.7876 21.9304 19.5281 19.3434 21.0294 14.874C21.0972 14.672 20.8827 14.5015 20.6963 14.6047C13.8559 18.3917 6.36234 10.7873 10.2493 4.00319L10.455 3.64423C10.5597 3.46144 10.4009 3.244 10.1973 3.29808Z" fill="#8A38F5" fill-opacity="0.25"/>
<path d="M10.1903 2.79159C10.7874 2.72637 11.1787 3.38659 10.8885 3.89315L10.6834 4.25155C7.04799 10.5966 14.0562 17.7093 20.4539 14.1676L20.5604 14.1187C21.0966 13.9237 21.7122 14.409 21.5028 15.0328C19.918 19.751 14.9143 22.4822 10.0409 21.1764C4.97328 19.8183 1.96635 14.6093 3.32405 9.54159C4.23693 6.13468 6.89054 3.65943 10.0692 2.81503L10.1903 2.79159ZM9.69319 3.97616C7.13149 4.87494 5.04508 6.9819 4.28987 9.80038C3.07507 14.3347 5.76626 18.9956 10.3006 20.2105C14.4329 21.3175 18.6683 19.1795 20.3065 15.3599C13.2794 18.5729 5.95237 10.9331 9.69319 3.97616Z" fill="black"/>
</svg>
