<svg width="24" height="24" viewBox="0 0 24 24" fill="none" xmlns="http://www.w3.org/2000/svg">
<path fill-rule="evenodd" clip-rule="evenodd" d="M19 3C20.1046 3 21 3.89543 21 5V19C21 20.1046 20.1046 21 19 21H5C3.89543 21 3 20.1046 3 19V5C3 3.89543 3.89543 3 5 3H19ZM7.5 7C7.22386 7 7 7.22386 7 7.5V16.5C7 16.7761 7.22386 17 7.5 17H16.5C16.7761 17 17 16.7761 17 16.5V7.5C17 7.22386 16.7761 7 16.5 7H7.5Z" fill="#8A38F5" fill-opacity="0.25"/>
<path d="M20.5 5C20.5 4.17157 19.8284 3.5 19 3.5H5C4.17157 3.5 3.5 4.17157 3.5 5V19C3.5 19.8284 4.17157 20.5 5 20.5H19C19.8284 20.5 20.5 19.8284 20.5 19V5ZM6.5 16.5V16C6.5 15.7239 6.72386 15.5 7 15.5C7.27614 15.5 7.5 15.7239 7.5 16V16.5H8C8.27614 16.5 8.5 16.7239 8.5 17C8.5 17.2761 8.27614 17.5 8 17.5H7.5C6.94772 17.5 6.5 17.0523 6.5 16.5ZM12.5 16.5C12.7761 16.5 13 16.7239 13 17C13 17.2761 12.7761 17.5 12.5 17.5H11.5C11.2239 17.5 11 17.2761 11 17C11 16.7239 11.2239 16.5 11.5 16.5H12.5ZM16.5 16.5V16C16.5 15.7239 16.7239 15.5 17 15.5C17.2761 15.5 17.5 15.7239 17.5 16V16.5C17.5 17.0523 17.0523 17.5 16.5 17.5H16C15.7239 17.5 15.5 17.2761 15.5 17C15.5 16.7239 15.7239 16.5 16 16.5H16.5ZM6.5 12.5V11.5C6.5 11.2239 6.72386 11 7 11C7.27614 11 7.5 11.2239 7.5 11.5V12.5C7.5 12.7761 7.27614 13 7 13C6.72386 13 6.5 12.7761 6.5 12.5ZM16.5 12.5V11.5C16.5 11.2239 16.7239 11 17 11C17.2761 11 17.5 11.2239 17.5 11.5V12.5C17.5 12.7761 17.2761 13 17 13C16.7239 13 16.5 12.7761 16.5 12.5ZM6.5 8V7.5C6.5 6.94772 6.94772 6.5 7.5 6.5H8C8.27614 6.5 8.5 6.72386 8.5 7C8.5 7.27614 8.27614 7.5 8 7.5H7.5V8C7.5 8.27614 7.27614 8.5 7 8.5C6.72386 8.5 6.5 8.27614 6.5 8ZM16.5 8V7.5H16C15.7239 7.5 15.5 7.27614 15.5 7C15.5 6.72386 15.7239 6.5 16 6.5H16.5C17.0523 6.5 17.5 6.94772 17.5 7.5V8C17.5 8.27614 17.2761 8.5 17 8.5C16.7239 8.5 16.5 8.27614 16.5 8ZM12.5 6.5C12.7761 6.5 13 6.72386 13 7C13 7.27614 12.7761 7.5 12.5 7.5H11.5C11.2239 7.5 11 7.27614 11 7C11 6.72386 11.2239 6.5 11.5 6.5H12.5ZM21.5 19C21.5 20.3807 20.3807 21.5 19 21.5H5C3.61929 21.5 2.5 20.3807 2.5 19V5C2.5 3.61929 3.61929 2.5 5 2.5H19C20.3807 2.5 21.5 3.61929 21.5 5V19Z" fill="black"/>
</svg>
