<svg width="24" height="24" viewBox="0 0 24 24" fill="none" xmlns="http://www.w3.org/2000/svg">
<path d="M21 8C21 9.10457 20.1046 10 19 10H5C3.89543 10 3 9.10457 3 8V5C3 3.89543 3.89543 3 5 3H19C20.1046 3 21 3.89543 21 5V8Z" fill="#8A38F5" fill-opacity="0.25"/>
<path d="M21 19C21 20.1046 20.1046 21 19 21H5C3.89543 21 3 20.1046 3 19V16C3 14.8954 3.89543 14 5 14H19C20.1046 14 21 14.8954 21 16V19Z" fill="#8A38F5" fill-opacity="0.25"/>
<path d="M20.5 16C20.5 15.1716 19.8284 14.5 19 14.5H5C4.17157 14.5 3.5 15.1716 3.5 16V19C3.5 19.8284 4.17157 20.5 5 20.5H19C19.8284 20.5 20.5 19.8284 20.5 19V16ZM20.5 5C20.5 4.17157 19.8284 3.5 19 3.5H5C4.17157 3.5 3.5 4.17157 3.5 5V8C3.5 8.82843 4.17157 9.5 5 9.5H19C19.8284 9.5 20.5 8.82843 20.5 8V5ZM21.5 19C21.5 20.3807 20.3807 21.5 19 21.5H5C3.61929 21.5 2.5 20.3807 2.5 19V16C2.5 14.6193 3.61929 13.5 5 13.5H19C20.3807 13.5 21.5 14.6193 21.5 16V19ZM21.5 8C21.5 9.38071 20.3807 10.5 19 10.5H5C3.61929 10.5 2.5 9.38071 2.5 8V5C2.5 3.61929 3.61929 2.5 5 2.5H19C20.3807 2.5 21.5 3.61929 21.5 5V8Z" fill="black"/>
</svg>
