<svg width="24" height="24" viewBox="0 0 24 24" fill="none" xmlns="http://www.w3.org/2000/svg">
<path d="M20 3C20.5523 3 21 3.44772 21 4V6C21 6.55228 20.5523 7 20 7H4C3.44772 7 3 6.55228 3 6V4C3 3.44772 3.44772 3 4 3H20Z" fill="#8A38F5" fill-opacity="0.25"/>
<path d="M11.5 21V18.5H9C8.72386 18.5 8.5 18.2761 8.5 18C8.5 17.7239 8.72386 17.5 9 17.5H11.5V15C11.5 14.7239 11.7239 14.5 12 14.5C12.2761 14.5 12.5 14.7239 12.5 15V17.5H15C15.2761 17.5 15.5 17.7239 15.5 18C15.5 18.2761 15.2761 18.5 15 18.5H12.5V21C12.5 21.2761 12.2761 21.5 12 21.5C11.7239 21.5 11.5 21.2761 11.5 21ZM20.5 13V11C20.5 10.7239 20.2761 10.5 20 10.5H4C3.72386 10.5 3.5 10.7239 3.5 11V13C3.5 13.2761 3.72386 13.5 4 13.5H8C8.27614 13.5 8.5 13.7239 8.5 14C8.5 14.2761 8.27614 14.5 8 14.5H4C3.17157 14.5 2.5 13.8284 2.5 13V11C2.5 10.1716 3.17157 9.5 4 9.5H20C20.8284 9.5 21.5 10.1716 21.5 11V13C21.5 13.8284 20.8284 14.5 20 14.5H16C15.7239 14.5 15.5 14.2761 15.5 14C15.5 13.7239 15.7239 13.5 16 13.5H20C20.2761 13.5 20.5 13.2761 20.5 13ZM20.5 4C20.5 3.72386 20.2761 3.5 20 3.5H4C3.72386 3.5 3.5 3.72386 3.5 4V6C3.5 6.27614 3.72386 6.5 4 6.5H20C20.2761 6.5 20.5 6.27614 20.5 6V4ZM21.5 6C21.5 6.82843 20.8284 7.5 20 7.5H4C3.17157 7.5 2.5 6.82843 2.5 6V4C2.5 3.17157 3.17157 2.5 4 2.5H20C20.8284 2.5 21.5 3.17157 21.5 4V6Z" fill="black"/>
</svg>
