<svg width="24" height="24" viewBox="0 0 24 24" fill="none" xmlns="http://www.w3.org/2000/svg">
<path d="M20 3C20.5523 3 21 3.44772 21 4V6C21 6.55228 20.5523 7 20 7H4C3.44772 7 3 6.55228 3 6V4C3 3.44772 3.44772 3 4 3H20Z" fill="#8A38F5" fill-opacity="0.25"/>
<path d="M13.7676 16.0254C13.9628 15.8301 14.2793 15.8301 14.4746 16.0254C14.6699 16.2207 14.6699 16.5372 14.4746 16.7324L12.707 18.499L14.4756 20.2676C14.6708 20.4628 14.6708 20.7803 14.4756 20.9756C14.2803 21.1708 13.9628 21.1708 13.7676 20.9756L12 19.207L10.2324 20.9756C10.0372 21.1708 9.71966 21.1708 9.52441 20.9756C9.32916 20.7803 9.32919 20.4628 9.52441 20.2676L11.292 18.499L9.52539 16.7324C9.33013 16.5372 9.33013 16.2207 9.52539 16.0254C9.72065 15.8301 10.0372 15.8301 10.2324 16.0254L12 17.792L13.7676 16.0254ZM20.5 13V11C20.5 10.7239 20.2761 10.5 20 10.5H4C3.72386 10.5 3.5 10.7239 3.5 11V13C3.5 13.2761 3.72386 13.5 4 13.5H7C7.27614 13.5 7.5 13.7239 7.5 14C7.5 14.2761 7.27614 14.5 7 14.5H4C3.17157 14.5 2.5 13.8284 2.5 13V11C2.5 10.1716 3.17157 9.5 4 9.5H20C20.8284 9.5 21.5 10.1716 21.5 11V13C21.5 13.8284 20.8284 14.5 20 14.5H17C16.7239 14.5 16.5 14.2761 16.5 14C16.5 13.7239 16.7239 13.5 17 13.5H20C20.2761 13.5 20.5 13.2761 20.5 13ZM20.5 4C20.5 3.72386 20.2761 3.5 20 3.5H4C3.72386 3.5 3.5 3.72386 3.5 4V6C3.5 6.27614 3.72386 6.5 4 6.5H20C20.2761 6.5 20.5 6.27614 20.5 6V4ZM21.5 6C21.5 6.82843 20.8284 7.5 20 7.5H4C3.17157 7.5 2.5 6.82843 2.5 6V4C2.5 3.17157 3.17157 2.5 4 2.5H20C20.8284 2.5 21.5 3.17157 21.5 4V6Z" fill="black"/>
</svg>
