<svg width="24" height="24" viewBox="0 0 24 24" fill="none" xmlns="http://www.w3.org/2000/svg">
<path d="M17 10C17 13.866 13.866 17 10 17C6.13401 17 3 13.866 3 10C3 6.13401 6.13401 3 10 3C13.866 3 17 6.13401 17 10Z" fill="#8A38F5" fill-opacity="0.25"/>
<path d="M16.5 10C16.5 6.41015 13.5899 3.5 10 3.5C6.41015 3.5 3.5 6.41015 3.5 10C3.5 13.5899 6.41015 16.5 10 16.5C13.5899 16.5 16.5 13.5899 16.5 10ZM17.5 10C17.5 11.8911 16.7985 13.6173 15.6436 14.9365L21.3535 20.6465C21.5488 20.8417 21.5488 21.1583 21.3535 21.3535C21.1583 21.5488 20.8417 21.5488 20.6465 21.3535L14.9365 15.6436C13.6173 16.7985 11.8911 17.5 10 17.5C5.85786 17.5 2.5 14.1421 2.5 10C2.5 5.85786 5.85786 2.5 10 2.5C14.1421 2.5 17.5 5.85786 17.5 10Z" fill="black"/>
</svg>
