<svg width="24" height="24" viewBox="0 0 24 24" fill="none" xmlns="http://www.w3.org/2000/svg">
<path d="M3 9H21V19C21 20.1046 20.1046 21 19 21H5C3.89543 21 3 20.1046 3 19V9Z" fill="#8A38F5" fill-opacity="0.25"/>
<path d="M20.5 15.5H3.5V19C3.5 19.8284 4.17157 20.5 5 20.5H19C19.8284 20.5 20.5 19.8284 20.5 19V15.5ZM6.00098 17.5C6.27712 17.5 6.50098 17.7239 6.50098 18C6.50098 18.2761 6.27712 18.5 6.00098 18.5H6C5.72386 18.5 5.5 18.2761 5.5 18C5.5 17.7239 5.72386 17.5 6 17.5H6.00098ZM9.00098 17.5C9.27712 17.5 9.50098 17.7239 9.50098 18C9.50098 18.2761 9.27712 18.5 9.00098 18.5H9C8.72386 18.5 8.5 18.2761 8.5 18C8.5 17.7239 8.72386 17.5 9 17.5H9.00098ZM18 17.5C18.2761 17.5 18.5 17.7239 18.5 18C18.5 18.2761 18.2761 18.5 18 18.5H12C11.7239 18.5 11.5 18.2761 11.5 18C11.5 17.7239 11.7239 17.5 12 17.5H18ZM3.5 14.5H20.5V9.5H3.5V14.5ZM6.00098 11.5C6.27712 11.5 6.50098 11.7239 6.50098 12C6.50098 12.2761 6.27712 12.5 6.00098 12.5H6C5.72386 12.5 5.5 12.2761 5.5 12C5.5 11.7239 5.72386 11.5 6 11.5H6.00098ZM9.00098 11.5C9.27712 11.5 9.50098 11.7239 9.50098 12C9.50098 12.2761 9.27712 12.5 9.00098 12.5H9C8.72386 12.5 8.5 12.2761 8.5 12C8.5 11.7239 8.72386 11.5 9 11.5H9.00098ZM18 11.5C18.2761 11.5 18.5 11.7239 18.5 12C18.5 12.2761 18.2761 12.5 18 12.5H12C11.7239 12.5 11.5 12.2761 11.5 12C11.5 11.7239 11.7239 11.5 12 11.5H18ZM6.44141 3.5C5.7959 3.50005 5.22279 3.91306 5.01855 4.52539L3.69434 8.5H20.3057L18.9814 4.52539C18.7772 3.91306 18.2041 3.50005 17.5586 3.5H6.44141ZM21.5 19C21.5 20.3807 20.3807 21.5 19 21.5H5C3.61929 21.5 2.5 20.3807 2.5 19V9.32422C2.50001 9.24977 2.50412 9.17552 2.51074 9.10156C2.50396 9.06874 2.5 9.03483 2.5 9C2.5 8.91005 2.52581 8.82683 2.56738 8.75391C2.58472 8.67999 2.60387 8.6064 2.62793 8.53418L4.06934 4.20898C4.40968 3.18831 5.36547 2.50005 6.44141 2.5H17.5586C18.6345 2.50005 19.5903 3.18831 19.9307 4.20898L21.3721 8.53418C21.3961 8.6064 21.4153 8.67999 21.4326 8.75391C21.4742 8.82683 21.5 8.91005 21.5 9C21.5 9.03483 21.496 9.06874 21.4893 9.10156C21.4959 9.17552 21.5 9.24977 21.5 9.32422V19Z" fill="black"/>
</svg>
