<svg width="24" height="24" viewBox="0 0 24 24" fill="none" xmlns="http://www.w3.org/2000/svg">
<path d="M3 14H21V18C21 19.1046 20.1046 20 19 20H5C3.89543 20 3 19.1046 3 18V14Z" fill="#8A38F5" fill-opacity="0.25"/>
<path d="M20.5 14.5H3.5V18C3.5 18.8284 4.17157 19.5 5 19.5H19C19.8284 19.5 20.5 18.8284 20.5 18V14.5ZM6.00098 16.5C6.27712 16.5 6.50098 16.7239 6.50098 17C6.50098 17.2761 6.27712 17.5 6.00098 17.5H6C5.72386 17.5 5.5 17.2761 5.5 17C5.5 16.7239 5.72386 16.5 6 16.5H6.00098ZM9.00098 16.5C9.27712 16.5 9.50098 16.7239 9.50098 17C9.50098 17.2761 9.27712 17.5 9.00098 17.5H9C8.72386 17.5 8.5 17.2761 8.5 17C8.5 16.7239 8.72386 16.5 9 16.5H9.00098ZM18 16.5C18.2761 16.5 18.5 16.7239 18.5 17C18.5 17.2761 18.2761 17.5 18 17.5H12C11.7239 17.5 11.5 17.2761 11.5 17C11.5 16.7239 11.7239 16.5 12 16.5H18ZM6.63965 4.5C5.92463 4.5 5.30917 5.00492 5.16895 5.70605L3.61035 13.5H20.3896L18.8311 5.70605C18.6908 5.00492 18.0754 4.5 17.3604 4.5H6.63965ZM21.5 18C21.5 19.3807 20.3807 20.5 19 20.5H5C3.61929 20.5 2.5 19.3807 2.5 18V14.1982C2.5 14.1536 2.50445 14.109 2.50684 14.0645C2.50409 14.0432 2.5 14.022 2.5 14C2.5 13.9427 2.51153 13.8882 2.5293 13.8369C2.53558 13.7939 2.5403 13.7507 2.54883 13.708L4.18848 5.50977C4.42219 4.34121 5.44795 3.5 6.63965 3.5H17.3604C18.5521 3.5 19.5778 4.34121 19.8115 5.50977L21.4512 13.708C21.4597 13.7507 21.4644 13.7939 21.4707 13.8369C21.4885 13.8882 21.5 13.9427 21.5 14C21.5 14.022 21.4959 14.0432 21.4932 14.0645C21.4956 14.109 21.5 14.1536 21.5 14.1982V18Z" fill="black"/>
</svg>
