<svg width="24" height="24" viewBox="0 0 24 24" fill="none" xmlns="http://www.w3.org/2000/svg">
<path d="M16 12C16 14.2091 14.2091 16 12 16C9.79086 16 8 14.2091 8 12C8 9.79086 9.79086 8 12 8C14.2091 8 16 9.79086 16 12Z" fill="#8A38F5" fill-opacity="0.25"/>
<path d="M12 20C12.2761 20 12.5 20.2239 12.5 20.5V21C12.5 21.2761 12.2761 21.5 12 21.5H11.999C11.7229 21.5 11.499 21.2761 11.499 21V20.5C11.499 20.2239 11.7229 20 11.999 20H12ZM5.63477 17.6572C5.82964 17.4616 6.14615 17.4604 6.3418 17.6553C6.53732 17.8501 6.53753 18.1667 6.34277 18.3623L5.99023 18.7168C5.79536 18.9124 5.47886 18.9126 5.2832 18.7178C5.08762 18.5229 5.0864 18.2064 5.28125 18.0107L5.63477 17.6572ZM18.0107 17.5107C18.1433 17.5108 18.2705 17.5635 18.3643 17.6572L18.7178 18.0107C18.9127 18.2059 18.9127 18.5215 18.7178 18.7168C18.5228 18.9121 18.2072 18.9125 18.0117 18.7178L18.0107 18.7168V18.7178L17.752 18.459L17.6572 18.3652C17.5632 18.2716 17.5099 18.1444 17.5098 18.0117C17.5096 17.8791 17.5626 17.7521 17.6562 17.6582L17.6572 17.6572L17.7334 17.5947C17.8149 17.5403 17.9113 17.5108 18.0107 17.5107ZM15.5 12C15.5 10.067 13.933 8.5 12 8.5C10.067 8.5 8.5 10.067 8.5 12C8.5 13.933 10.067 15.5 12 15.5C13.933 15.5 15.5 13.933 15.5 12ZM21 11.5C21.2761 11.5 21.5 11.7239 21.5 12V12.001C21.5 12.2771 21.2761 12.501 21 12.501H20.5C20.2239 12.501 20 12.2771 20 12.001V12C20 11.7239 20.2239 11.5 20.5 11.5H21ZM3.5 11.499L3.60059 11.5088C3.82855 11.5553 4 11.7573 4 11.999V12C4 12.2761 3.77614 12.5 3.5 12.5H3C2.72386 12.5 2.5 12.2761 2.5 12V11.999C2.5 11.7229 2.72386 11.499 3 11.499H3.5ZM18.0107 5.28223C18.2059 5.08725 18.5225 5.08735 18.7178 5.28223C18.9129 5.47717 18.9134 5.79381 18.7188 5.98926L18.3652 6.34277C18.2716 6.43681 18.1445 6.49008 18.0117 6.49023C17.8791 6.49032 17.752 6.43752 17.6582 6.34375H17.6572C17.5634 6.24999 17.5108 6.1219 17.5107 5.98926C17.5108 5.88984 17.5403 5.79341 17.5947 5.71191L17.6572 5.63574L18.0107 5.28223ZM5.63672 5.13574C5.76933 5.13574 5.89647 5.18846 5.99023 5.28223L6.15332 5.44531L6.34375 5.63477H6.34277L6.34375 5.63574C6.53871 5.83077 6.53933 6.14647 6.34473 6.3418C6.1498 6.53712 5.83321 6.53751 5.6377 6.34277L5.63672 6.3418L5.37793 6.08398L5.2832 5.99023C5.18924 5.89659 5.1369 5.76938 5.13672 5.63672C5.13659 5.50398 5.1884 5.37611 5.28223 5.28223H5.2832C5.37692 5.18851 5.50419 5.1358 5.63672 5.13574ZM12.001 2.5C12.2771 2.5 12.501 2.72386 12.501 3V3.5L12.4912 3.60059C12.4447 3.82855 12.2427 4 12.001 4H12C11.7239 4 11.5 3.77614 11.5 3.5V3C11.5 2.72386 11.7239 2.5 12 2.5H12.001ZM16.5 12C16.5 14.4853 14.4853 16.5 12 16.5C9.51472 16.5 7.5 14.4853 7.5 12C7.5 9.51472 9.51472 7.5 12 7.5C14.4853 7.5 16.5 9.51472 16.5 12Z" fill="black"/>
</svg>
