<svg width="24" height="24" viewBox="0 0 24 24" fill="none" xmlns="http://www.w3.org/2000/svg">
<path d="M16 12C16 14.2091 14.2091 16 12 16C9.79086 16 8 14.2091 8 12C8 9.79086 9.79086 8 12 8C14.2091 8 16 9.79086 16 12Z" fill="#8A38F5" fill-opacity="0.25"/>
<path d="M11.5 21V19.5C11.5 19.2239 11.7239 19 12 19C12.2761 19 12.5 19.2239 12.5 19.5V21C12.5 21.2761 12.2761 21.5 12 21.5C11.7239 21.5 11.5 21.2761 11.5 21ZM6.3418 16.9492C6.53693 16.7538 6.85344 16.7541 7.04883 16.9492C7.24411 17.1444 7.2449 17.4609 7.0498 17.6562L5.98926 18.7168C5.79413 18.9122 5.47762 18.9129 5.28223 18.7178C5.08692 18.5226 5.08712 18.2061 5.28223 18.0107L6.3418 16.9492ZM17.3037 16.8037C17.4363 16.8037 17.5635 16.8565 17.6572 16.9502L18.7178 18.0098H18.7168L18.7178 18.0107C18.9128 18.206 18.9129 18.5225 18.7178 18.7178C18.5226 18.9128 18.206 18.9128 18.0107 18.7178L16.9492 17.6582C16.7539 17.4631 16.7543 17.1466 16.9492 16.9512L16.9502 16.9502L17.0264 16.8877C17.1079 16.8333 17.2043 16.8037 17.3037 16.8037ZM15.5 12C15.5 10.067 13.933 8.5 12 8.5C10.067 8.5 8.5 10.067 8.5 12C8.5 13.933 10.067 15.5 12 15.5C13.933 15.5 15.5 13.933 15.5 12ZM4.5 11.5C4.77614 11.5 5 11.7239 5 12C5 12.2761 4.77614 12.5 4.5 12.5H3C2.72386 12.5 2.5 12.2761 2.5 12C2.5 11.7239 2.72386 11.5 3 11.5H4.5ZM21 11.5C21.2761 11.5 21.5 11.7239 21.5 12C21.5 12.2761 21.2761 12.5 21 12.5H19.5C19.2239 12.5 19 12.2761 19 12C19 11.7239 19.2239 11.5 19.5 11.5H21ZM18.0107 5.28223C18.206 5.08717 18.5225 5.08716 18.7178 5.28223C18.9131 5.47738 18.9129 5.79391 18.7178 5.98926L17.6582 7.05078C17.5645 7.1446 17.4373 7.19716 17.3047 7.19727C17.1721 7.19733 17.045 7.14454 16.9512 7.05078H16.9502C16.8565 6.95714 16.8039 6.82973 16.8037 6.69727C16.8037 6.59766 16.8332 6.50057 16.8877 6.41895L16.9502 6.34277L18.0107 5.28223ZM5.2832 5.28223C5.45408 5.11135 5.71803 5.08958 5.91211 5.21777L5.99023 5.28223L7.05078 6.34277C7.22155 6.51354 7.24316 6.77665 7.11523 6.9707L7.05078 7.0498C6.87994 7.22065 6.61595 7.24237 6.42188 7.11426L6.34375 7.0498L5.28223 5.98926C5.08739 5.794 5.08719 5.47737 5.28223 5.28223H5.2832ZM11.5 4.5V3C11.5 2.72386 11.7239 2.5 12 2.5C12.2761 2.5 12.5 2.72386 12.5 3V4.5C12.5 4.77614 12.2761 5 12 5C11.7239 5 11.5 4.77614 11.5 4.5ZM16.5 12C16.5 14.4853 14.4853 16.5 12 16.5C9.51472 16.5 7.5 14.4853 7.5 12C7.5 9.51472 9.51472 7.5 12 7.5C14.4853 7.5 16.5 9.51472 16.5 12Z" fill="black"/>
</svg>
