<svg width="24" height="24" viewBox="0 0 24 24" fill="none" xmlns="http://www.w3.org/2000/svg">
<path d="M15.9691 15C15.9895 14.8362 16 14.6693 16 14.5C16 12.2909 14.2091 10.5 12 10.5C9.79086 10.5 8 12.2909 8 14.5C8 14.6693 8.01052 14.8362 8.03095 15H15.9691Z" fill="#8A38F5" fill-opacity="0.25"/>
<path d="M21 17.6036C21.2761 17.6036 21.5 17.8275 21.5 18.1036C21.5 18.3798 21.2761 18.6036 21 18.6036H3C2.72386 18.6036 2.5 18.3798 2.5 18.1036C2.5 17.8275 2.72386 17.6036 3 17.6036H21ZM4.5 14.1036C4.77614 14.1036 5 14.3275 5 14.6036C5 14.8798 4.77614 15.1036 4.5 15.1036H3C2.72386 15.1036 2.5 14.8798 2.5 14.6036C2.5 14.3275 2.72386 14.1036 3 14.1036H4.5ZM15.5 14.6036C15.5 12.6706 13.933 11.1036 12 11.1036C10.067 11.1036 8.5 12.6706 8.5 14.6036C8.5 14.8798 8.27614 15.1036 8 15.1036C7.72386 15.1036 7.5 14.8798 7.5 14.6036C7.5 12.1184 9.51472 10.1036 12 10.1036C14.4853 10.1036 16.5 12.1184 16.5 14.6036C16.5 14.8798 16.2761 15.1036 16 15.1036C15.7239 15.1036 15.5 14.8798 15.5 14.6036ZM21 14.1036C21.2761 14.1036 21.5 14.3275 21.5 14.6036C21.5 14.8798 21.2761 15.1036 21 15.1036H19.5C19.2239 15.1036 19 14.8798 19 14.6036C19 14.3275 19.2239 14.1036 19.5 14.1036H21ZM5.28223 7.88586C5.47745 7.69081 5.79403 7.69081 5.98926 7.88586L7.0498 8.94641C7.24502 9.14162 7.24491 9.45817 7.0498 9.65344C6.85454 9.8487 6.53804 9.8487 6.34277 9.65344L5.28223 8.5929C5.08712 8.39762 5.08702 8.08108 5.28223 7.88586ZM18.0098 7.88586C18.205 7.6906 18.5225 7.6906 18.7178 7.88586C18.9128 8.081 18.9126 8.39763 18.7178 8.5929L17.6562 9.65344C17.461 9.8487 17.1445 9.8487 16.9492 9.65344C16.7544 9.45815 16.7541 9.14154 16.9492 8.94641L18.0098 7.88586ZM11.5 2.10364C11.5 1.8275 11.7239 1.60364 12 1.60364C12.2761 1.60364 12.5 1.8275 12.5 2.10364V5.89661L14.1465 4.25012C14.3417 4.05486 14.6583 4.05486 14.8535 4.25012C15.0488 4.44538 15.0488 4.76189 14.8535 4.95715L12.707 7.10364C12.3165 7.49411 11.6835 7.49411 11.293 7.10364L9.14648 4.95715C8.95122 4.76189 8.95122 4.44538 9.14648 4.25012C9.34175 4.05486 9.65825 4.05486 9.85352 4.25012L11.5 5.89661V2.10364Z" fill="black"/>
</svg>
