<svg width="24" height="24" viewBox="0 0 24 24" fill="none" xmlns="http://www.w3.org/2000/svg">
<path d="M3 9.5H21V17.5C21 18.6046 20.1046 19.5 19 19.5H5C3.89543 19.5 3 18.6046 3 17.5V9.5Z" fill="#8A38F5" fill-opacity="0.25"/>
<path d="M20.5 15H9.5V19H19C19.8284 19 20.5 18.3284 20.5 17.5V15ZM9.5 14H20.5V10H9.5V14ZM3.5 14H8.5V10H3.5V14ZM3.5 17.5C3.5 18.3284 4.17157 19 5 19H8.5V15H3.5V17.5ZM20.5 6.5C20.5 5.67157 19.8284 5 19 5H5C4.17157 5 3.5 5.67157 3.5 6.5V9H20.5V6.5ZM21.5 17.5C21.5 18.8807 20.3807 20 19 20H5C3.61929 20 2.5 18.8807 2.5 17.5V6.5C2.5 5.11929 3.61929 4 5 4H19C20.3807 4 21.5 5.11929 21.5 6.5V17.5Z" fill="black"/>
</svg>
