<svg width="24" height="24" viewBox="0 0 24 24" fill="none" xmlns="http://www.w3.org/2000/svg">
<path d="M4 14H13V6H20V18H4V14Z" fill="#8A38F5" fill-opacity="0.25"/>
<path d="M20 17.5C20.2761 17.5 20.5 17.7239 20.5 18C20.5 18.2761 20.2761 18.5 20 18.5H4C3.72386 18.5 3.5 18.2761 3.5 18C3.5 17.7239 3.72386 17.5 4 17.5H20ZM20 13.5C20.2761 13.5 20.5 13.7239 20.5 14C20.5 14.2761 20.2761 14.5 20 14.5H4C3.72386 14.5 3.5 14.2761 3.5 14C3.5 13.7239 3.72386 13.5 4 13.5H20ZM6 10V6.5H4C3.72386 6.5 3.5 6.27614 3.5 6C3.5 5.72386 3.72386 5.5 4 5.5H9C9.27614 5.5 9.5 5.72386 9.5 6C9.5 6.27614 9.27614 6.5 9 6.5H7V10C7 10.2761 6.77614 10.5 6.5 10.5C6.22386 10.5 6 10.2761 6 10ZM20 9.5C20.2761 9.5 20.5 9.72386 20.5 10C20.5 10.2761 20.2761 10.5 20 10.5H13C12.7239 10.5 12.5 10.2761 12.5 10C12.5 9.72386 12.7239 9.5 13 9.5H20ZM20 5.5C20.2761 5.5 20.5 5.72386 20.5 6C20.5 6.27614 20.2761 6.5 20 6.5H13C12.7239 6.5 12.5 6.27614 12.5 6C12.5 5.72386 12.7239 5.5 13 5.5H20Z" fill="black"/>
</svg>
