<svg width="24" height="24" viewBox="0 0 24 24" fill="none" xmlns="http://www.w3.org/2000/svg">
<path d="M3 5C3 3.89543 3.89543 3 5 3H19C20.1046 3 21 3.89543 21 5V19C21 20.1046 20.1046 21 19 21H5C3.89543 21 3 20.1046 3 19V5Z" fill="#8A38F5" fill-opacity="0.25"/>
<path d="M2.5 19V17C2.5 16.7239 2.72386 16.5 3 16.5C3.27614 16.5 3.5 16.7239 3.5 17V19C3.5 19.8284 4.17157 20.5 5 20.5H7C7.27614 20.5 7.5 20.7239 7.5 21C7.5 21.2761 7.27614 21.5 7 21.5H5C3.61929 21.5 2.5 20.3807 2.5 19ZM20.5 19V17C20.5 16.7239 20.7239 16.5 21 16.5C21.2761 16.5 21.5 16.7239 21.5 17V19C21.5 20.3807 20.3807 21.5 19 21.5H17C16.7239 21.5 16.5 21.2761 16.5 21C16.5 20.7239 16.7239 20.5 17 20.5H19C19.8284 20.5 20.5 19.8284 20.5 19ZM12.5 16C12.7761 16 13 16.2239 13 16.5C13 16.7761 12.7761 17 12.5 17H7.5C7.22386 17 7 16.7761 7 16.5C7 16.2239 7.22386 16 7.5 16H12.5ZM16.5 11.5C16.7761 11.5 17 11.7239 17 12C17 12.2761 16.7761 12.5 16.5 12.5H7.5C7.22386 12.5 7 12.2761 7 12C7 11.7239 7.22386 11.5 7.5 11.5H16.5ZM16.5 7C16.7761 7 17 7.22386 17 7.5C17 7.77614 16.7761 8 16.5 8H7.5C7.22386 8 7 7.77614 7 7.5C7 7.22386 7.22386 7 7.5 7H16.5ZM2.5 7V5C2.5 3.61929 3.61929 2.5 5 2.5H7C7.27614 2.5 7.5 2.72386 7.5 3C7.5 3.27614 7.27614 3.5 7 3.5H5C4.17157 3.5 3.5 4.17157 3.5 5V7C3.5 7.27614 3.27614 7.5 3 7.5C2.72386 7.5 2.5 7.27614 2.5 7ZM20.5 7V5C20.5 4.17157 19.8284 3.5 19 3.5H17C16.7239 3.5 16.5 3.27614 16.5 3C16.5 2.72386 16.7239 2.5 17 2.5H19C20.3807 2.5 21.5 3.61929 21.5 5V7C21.5 7.27614 21.2761 7.5 21 7.5C20.7239 7.5 20.5 7.27614 20.5 7Z" fill="black"/>
</svg>
