<svg width="24" height="24" viewBox="0 0 24 24" fill="none" xmlns="http://www.w3.org/2000/svg">
<path d="M18.5689 19.0714L19 7H5L5.43112 19.0714C5.46955 20.1475 6.35306 21 7.42985 21H16.5702C17.6469 21 18.5304 20.1475 18.5689 19.0714Z" fill="#8A38F5" fill-opacity="0.25"/>
<path d="M15.5 5C15.5 4.17157 14.8284 3.5 14 3.5H10C9.17157 3.5 8.5 4.17157 8.5 5V6.5H15.5V5ZM5.93066 19.0537C5.95957 19.8607 6.62222 20.4999 7.42969 20.5H16.5703C17.3778 20.4999 18.0404 19.8607 18.0693 19.0537L18.4814 7.5H5.51855L5.93066 19.0537ZM9.48242 10.5C9.75827 10.4903 9.99015 10.7065 10 10.9824L10.2139 16.9824C10.2236 17.2582 10.0082 17.49 9.73242 17.5C9.45646 17.5099 9.2247 17.2935 9.21484 17.0176L9 11.0176C8.9903 10.7417 9.20655 10.5099 9.48242 10.5ZM14.5176 10.5C14.7935 10.5099 15.0097 10.7417 15 11.0176L14.7852 17.0176C14.7753 17.2935 14.5435 17.5099 14.2676 17.5C13.9918 17.49 13.7764 17.2582 13.7861 16.9824L14 10.9824C14.0099 10.7065 14.2417 10.4903 14.5176 10.5ZM16.5 6.5H21C21.2761 6.5 21.5 6.72386 21.5 7C21.5 7.27614 21.2761 7.5 21 7.5H19.4824L19.0684 19.0889C19.0203 20.4339 17.9162 21.4999 16.5703 21.5H7.42969C6.08377 21.4999 4.97968 20.4339 4.93164 19.0889L4.51758 7.5H3C2.72386 7.5 2.5 7.27614 2.5 7C2.5 6.72386 2.72386 6.5 3 6.5H7.5V5C7.5 3.61929 8.61929 2.5 10 2.5H14C15.3807 2.5 16.5 3.61929 16.5 5V6.5Z" fill="black"/>
</svg>
