<svg width="24" height="24" viewBox="0 0 24 24" fill="none" xmlns="http://www.w3.org/2000/svg">
<path d="M10.7133 4.64378C11.2959 3.67278 12.7031 3.67277 13.2858 4.64378L21.1365 17.7283C21.7363 18.7281 21.0162 20.0001 19.8502 20.0001H4.1488C2.98286 20.0001 2.26269 18.7281 2.86256 17.7283L10.7133 4.64378Z" fill="#8A38F5" fill-opacity="0.25"/>
<path d="M10.2842 4.38622C11.061 3.09164 12.938 3.09164 13.7148 4.38622L21.5654 17.4712C22.365 18.8041 21.4049 20.5002 19.8506 20.5005H4.14844C2.59415 20.5002 1.63404 18.8041 2.4336 17.4712L10.2842 4.38622ZM12.8574 4.90087C12.469 4.25353 11.53 4.25353 11.1416 4.90087L3.29102 17.9858C2.89154 18.6522 3.37149 19.5002 4.14844 19.5005H19.8506C20.6275 19.5002 21.1075 18.6522 20.708 17.9858L12.8574 4.90087Z" fill="black"/>
</svg>
