<svg width="24" height="24" viewBox="0 0 24 24" fill="none" xmlns="http://www.w3.org/2000/svg">
<path d="M20 12C20 16.4183 16.4183 20 12 20C7.58172 20 4 16.4183 4 12C4 7.58172 7.58172 4 12 4C16.4183 4 20 7.58172 20 12Z" fill="#8A38F5" fill-opacity="0.25"/>
<path d="M3.5 18V14C3.5 13.7239 3.72386 13.5 4 13.5C4.27614 13.5 4.5 13.7239 4.5 14V18C4.5 18.42 4.6302 19.0613 5.00586 19.583C5.36317 20.0792 5.96306 20.5 7 20.5C8.03694 20.5 8.63683 20.0792 8.99414 19.583C9.3698 19.0613 9.5 18.42 9.5 18V14C9.5 13.7239 9.72386 13.5 10 13.5C10.2761 13.5 10.5 13.7239 10.5 14V18C10.5 18.58 10.33 19.4388 9.80566 20.167C9.26297 20.9207 8.36296 21.5 7 21.5C5.63704 21.5 4.73703 20.9207 4.19434 20.167C3.67003 19.4388 3.5 18.58 3.5 18ZM19.6201 13.6748C19.7998 13.4652 20.1155 13.4406 20.3252 13.6201C20.5348 13.7998 20.5594 14.1155 20.3799 14.3252L17.6582 17.5L20.3799 20.6748C20.5594 20.8845 20.5348 21.2002 20.3252 21.3799C20.1155 21.5594 19.7998 21.5348 19.6201 21.3252L17 18.2676L14.3799 21.3252C14.2002 21.5348 13.8845 21.5594 13.6748 21.3799C13.4652 21.2002 13.4406 20.8845 13.6201 20.6748L16.3408 17.5L13.6201 14.3252C13.4406 14.1155 13.4652 13.7998 13.6748 13.6201C13.8845 13.4406 14.2002 13.4652 14.3799 13.6748L17 16.7314L19.6201 13.6748ZM3.5 7V3C3.5 2.72386 3.72386 2.5 4 2.5C4.27614 2.5 4.5 2.72386 4.5 3V7C4.5 7.41999 4.6302 8.06126 5.00586 8.58301C5.36317 9.0792 5.96306 9.5 7 9.5C8.03694 9.5 8.63683 9.0792 8.99414 8.58301C9.3698 8.06126 9.5 7.41999 9.5 7V3C9.5 2.72386 9.72386 2.5 10 2.5C10.2761 2.5 10.5 2.72386 10.5 3V7C10.5 7.58 10.33 8.43875 9.80566 9.16699C9.26297 9.92074 8.36296 10.5 7 10.5C5.63704 10.5 4.73703 9.92074 4.19434 9.16699C3.67003 8.43875 3.5 7.58 3.5 7ZM13.5 10V3C13.5 2.72386 13.7239 2.5 14 2.5C14.2761 2.5 14.5 2.72386 14.5 3V10C14.5 10.2761 14.2761 10.5 14 10.5C13.7239 10.5 13.5 10.2761 13.5 10ZM20.1377 2.51953C20.403 2.59555 20.5563 2.87231 20.4805 3.1377L18.4805 10.1377C18.4044 10.403 18.1277 10.5563 17.8623 10.4805C17.597 10.4044 17.4437 10.1277 17.5195 9.8623L19.5195 2.8623C19.5956 2.59702 19.8723 2.44371 20.1377 2.51953Z" fill="black"/>
</svg>
