<svg width="24" height="24" viewBox="0 0 24 24" fill="none" xmlns="http://www.w3.org/2000/svg">
<path d="M21 12C21 16.9706 16.9706 21 12 21C7.02944 21 3 16.9706 3 12C3 7.02944 7.02944 3 12 3C16.9706 3 21 7.02944 21 12Z" fill="#8A38F5" fill-opacity="0.25"/>
<path d="M20.5 12C20.5 7.30558 16.6944 3.5 12 3.5C7.30558 3.5 3.5 7.30558 3.5 12C3.5 16.6944 7.30558 20.5 12 20.5C16.6944 20.5 20.5 16.6944 20.5 12ZM14.8281 8.46484C15.0234 8.2696 15.3399 8.26963 15.5352 8.46484C15.7304 8.66011 15.7304 8.97661 15.5352 9.17188L12.707 12L15.5352 14.8281C15.7304 15.0234 15.7304 15.3399 15.5352 15.5352C15.3399 15.7304 15.0234 15.7304 14.8281 15.5352L12 12.707L9.17188 15.5352C8.97661 15.7304 8.66011 15.7304 8.46484 15.5352C8.26963 15.3399 8.2696 15.0234 8.46484 14.8281L11.293 12L8.46484 9.17188C8.2696 8.97663 8.26963 8.66011 8.46484 8.46484C8.66011 8.26958 8.97661 8.26958 9.17188 8.46484L12 11.293L14.8281 8.46484ZM21.5 12C21.5 17.2467 17.2467 21.5 12 21.5C6.75329 21.5 2.5 17.2467 2.5 12C2.5 6.75329 6.75329 2.5 12 2.5C17.2467 2.5 21.5 6.75329 21.5 12Z" fill="black"/>
</svg>
