<svg width="24" height="24" viewBox="0 0 24 24" fill="none" xmlns="http://www.w3.org/2000/svg">
<path d="M3 5C3 3.89543 3.89543 3 5 3H19C20.1046 3 21 3.89543 21 5V19C21 20.1046 20.1046 21 19 21H5C3.89543 21 3 20.1046 3 19V5Z" fill="#8A38F5" fill-opacity="0.25"/>
<path d="M20.5 5C20.5 4.17157 19.8284 3.5 19 3.5H5C4.17157 3.5 3.5 4.17157 3.5 5V19C3.5 19.8284 4.17157 20.5 5 20.5H19C19.8284 20.5 20.5 19.8284 20.5 19V5ZM14.8281 8.46484C15.0234 8.2696 15.3399 8.26963 15.5352 8.46484C15.7304 8.66011 15.7304 8.97661 15.5352 9.17188L12.707 12L15.5352 14.8281C15.7304 15.0234 15.7304 15.3399 15.5352 15.5352C15.3399 15.7304 15.0234 15.7304 14.8281 15.5352L12 12.707L9.17188 15.5352C8.97661 15.7304 8.66011 15.7304 8.46484 15.5352C8.26963 15.3399 8.2696 15.0234 8.46484 14.8281L11.293 12L8.46484 9.17188C8.2696 8.97663 8.26963 8.66011 8.46484 8.46484C8.66011 8.26958 8.97661 8.26958 9.17188 8.46484L12 11.293L14.8281 8.46484ZM21.5 19C21.5 20.3807 20.3807 21.5 19 21.5H5C3.61929 21.5 2.5 20.3807 2.5 19V5C2.5 3.61929 3.61929 2.5 5 2.5H19C20.3807 2.5 21.5 3.61929 21.5 5V19Z" fill="black"/>
</svg>
