<svg width="24" height="24" viewBox="0 0 24 24" fill="none" xmlns="http://www.w3.org/2000/svg">
<path d="M11.5 21V3C11.5 2.72386 11.7239 2.5 12 2.5C12.2761 2.5 12.5 2.72386 12.5 3V21C12.5 21.2761 12.2761 21.5 12 21.5C11.7239 21.5 11.5 21.2761 11.5 21ZM5.5 14.5V17.5H7.5V14.5H5.5ZM16.5 14.5V17.5H18.5V14.5H16.5ZM3.5 6.5V9.5H7.5V6.5H3.5ZM16.5 6.5V9.5H20.5V6.5H16.5ZM8.5 17.5C8.5 18.0523 8.05228 18.5 7.5 18.5H5.5C4.94772 18.5 4.5 18.0523 4.5 17.5V14.5C4.5 13.9477 4.94772 13.5 5.5 13.5H7.5C8.05228 13.5 8.5 13.9477 8.5 14.5V17.5ZM19.5 17.5C19.5 18.0523 19.0523 18.5 18.5 18.5H16.5C15.9477 18.5 15.5 18.0523 15.5 17.5V14.5C15.5 13.9477 15.9477 13.5 16.5 13.5H18.5C19.0523 13.5 19.5 13.9477 19.5 14.5V17.5ZM8.5 9.5C8.5 10.0523 8.05228 10.5 7.5 10.5H3.5C2.94772 10.5 2.5 10.0523 2.5 9.5V6.5C2.5 5.94772 2.94772 5.5 3.5 5.5H7.5C8.05228 5.5 8.5 5.94772 8.5 6.5V9.5ZM21.5 9.5C21.5 10.0523 21.0523 10.5 20.5 10.5H16.5C15.9477 10.5 15.5 10.0523 15.5 9.5V6.5C15.5 5.94772 15.9477 5.5 16.5 5.5H20.5C21.0523 5.5 21.5 5.94772 21.5 6.5V9.5Z" fill="black"/>
</svg>
