<svg width="24" height="24" viewBox="0 0 24 24" fill="none" xmlns="http://www.w3.org/2000/svg">
<path d="M21 21.5H3C2.72386 21.5 2.5 21.2761 2.5 21C2.5 20.7239 2.72386 20.5 3 20.5H21C21.2761 20.5 21.5 20.7239 21.5 21C21.5 21.2761 21.2761 21.5 21 21.5ZM14.5 16.5H17.5V11.5H14.5V16.5ZM6.5 16.5H9.5V3.5H6.5V16.5ZM17.5 10.5C18.0523 10.5 18.5 10.9477 18.5 11.5V16.5C18.5 17.0523 18.0523 17.5 17.5 17.5H14.5C13.9477 17.5 13.5 17.0523 13.5 16.5V11.5C13.5 10.9477 13.9477 10.5 14.5 10.5H17.5ZM9.5 2.5C10.0523 2.5 10.5 2.94772 10.5 3.5V16.5C10.5 17.0523 10.0523 17.5 9.5 17.5H6.5C5.94772 17.5 5.5 17.0523 5.5 16.5V3.5C5.5 2.94772 5.94772 2.5 6.5 2.5H9.5Z" fill="black"/>
</svg>
