<svg width="24" height="24" viewBox="0 0 24 24" fill="none" xmlns="http://www.w3.org/2000/svg">
<path d="M21 12.5H3C2.72386 12.5 2.5 12.2761 2.5 12C2.5 11.7239 2.72386 11.5 3 11.5H21C21.2761 11.5 21.5 11.7239 21.5 12C21.5 12.2761 21.2761 12.5 21 12.5ZM14.5 18.5H17.5V16.5H14.5V18.5ZM14.5 7.5H17.5V5.5H14.5V7.5ZM6.5 20.5H9.5V16.5H6.5V20.5ZM6.5 7.5H9.5V3.5H6.5V7.5ZM17.5 15.5C18.0523 15.5 18.5 15.9477 18.5 16.5V18.5C18.5 19.0523 18.0523 19.5 17.5 19.5H14.5C13.9477 19.5 13.5 19.0523 13.5 18.5V16.5C13.5 15.9477 13.9477 15.5 14.5 15.5H17.5ZM17.5 4.5C18.0523 4.5 18.5 4.94772 18.5 5.5V7.5C18.5 8.05229 18.0523 8.5 17.5 8.5H14.5C13.9477 8.5 13.5 8.05229 13.5 7.5V5.5C13.5 4.94772 13.9477 4.5 14.5 4.5H17.5ZM9.5 15.5C10.0523 15.5 10.5 15.9477 10.5 16.5V20.5C10.5 21.0523 10.0523 21.5 9.5 21.5H6.5C5.94772 21.5 5.5 21.0523 5.5 20.5V16.5C5.5 15.9477 5.94772 15.5 6.5 15.5H9.5ZM9.5 2.5C10.0523 2.5 10.5 2.94772 10.5 3.5V7.5C10.5 8.05229 10.0523 8.5 9.5 8.5H6.5C5.94772 8.5 5.5 8.05229 5.5 7.5V3.5C5.5 2.94772 5.94772 2.5 6.5 2.5H9.5Z" fill="black"/>
</svg>
