<svg width="24" height="24" viewBox="0 0 24 24" fill="none" xmlns="http://www.w3.org/2000/svg">
<path d="M2.5 19V3C2.5 2.72386 2.72386 2.5 3 2.5C3.27614 2.5 3.5 2.72386 3.5 3V19C3.5 19.8284 4.17157 20.5 5 20.5H21C21.2761 20.5 21.5 20.7239 21.5 21C21.5 21.2761 21.2761 21.5 21 21.5H5C3.61929 21.5 2.5 20.3807 2.5 19ZM9.26855 5.40625C9.52781 5.31214 9.81464 5.44597 9.90918 5.70508C10.0036 5.96457 9.86984 6.25223 9.61035 6.34668L7.35449 7.16699C11.8643 8.58528 15.4213 12.1458 16.8359 16.6572L17.6621 14.3896C17.7565 14.1302 18.0433 13.9964 18.3027 14.0908C18.5622 14.1853 18.696 14.472 18.6016 14.7314L17.5635 17.584C17.3746 18.1028 16.8011 18.3703 16.2822 18.1816L13.4297 17.1436C13.1702 17.0491 13.0365 16.7624 13.1309 16.5029C13.2253 16.2434 13.512 16.1097 13.7715 16.2041L15.8877 16.9736C14.5712 12.7551 11.2407 9.42529 7.02148 8.11035L7.7959 10.2373C7.89023 10.4967 7.7565 10.7835 7.49707 10.8779C7.23762 10.9723 6.9509 10.8385 6.85645 10.5791L5.81836 7.72656C5.62947 7.20759 5.89704 6.63421 6.41602 6.44531L9.26855 5.40625Z" fill="black"/>
</svg>
