<svg width="24" height="24" viewBox="0 0 24 24" fill="none" xmlns="http://www.w3.org/2000/svg">
<path d="M19.2783 1.39346C19.2783 1.11732 19.5022 0.893463 19.7783 0.893463C20.0544 0.893542 20.2783 1.11737 20.2783 1.39346V6.55069C20.2781 7.10275 19.8304 7.55061 19.2783 7.55069H14.1211C13.8452 7.55057 13.6213 7.32659 13.6211 7.05069C13.6211 6.77462 13.845 6.55081 14.1211 6.55069H18.5234C18.3623 6.35832 18.1916 6.17109 18.0107 5.99014C14.6913 2.67069 9.30869 2.67069 5.98923 5.99014C2.67021 9.30961 2.66999 14.6913 5.98923 18.0107C9.30869 21.3301 14.6913 21.3301 18.0107 18.0107C19.6238 16.3975 20.4526 14.2978 20.498 12.1835C20.5041 11.9076 20.7328 11.6883 21.0088 11.6942C21.2847 11.7002 21.5038 11.9291 21.498 12.205C21.4473 14.5667 20.5203 16.9151 18.7177 18.7177C15.0078 22.4277 8.99218 22.4277 5.2822 18.7177C1.5723 15.0077 1.57225 8.99209 5.2822 5.28214C8.99216 1.57226 15.0078 1.57226 18.7177 5.28214C18.9152 5.47963 19.1017 5.68441 19.2783 5.89444V1.39346Z" fill="black"/>
</svg>
