<svg width="24" height="24" viewBox="0 0 24 24" fill="none" xmlns="http://www.w3.org/2000/svg">
<path d="M3.72191 1.39347C3.72191 1.11733 3.94578 0.893477 4.22191 0.893471C4.49806 0.893471 4.72191 1.11733 4.72191 1.39347V5.89445C4.89847 5.68445 5.08498 5.47962 5.28246 5.28214C8.99245 1.57231 15.0081 1.57222 18.718 5.28214C22.4279 8.99207 22.4278 15.0077 18.718 18.7177C15.008 22.4277 8.99244 22.4277 5.28246 18.7177C3.47984 16.9151 2.55291 14.5667 2.50219 12.205C2.49642 11.929 2.71546 11.7002 2.99144 11.6943C3.26742 11.6883 3.4961 11.9076 3.50219 12.1835C3.5476 14.2979 4.37634 16.3975 5.98949 18.0107C9.30895 21.3301 14.6915 21.3301 18.011 18.0107C21.3301 14.6913 21.3299 9.3096 18.011 5.99015C14.6915 2.67069 9.30895 2.67069 5.98949 5.99015C5.80857 6.17109 5.63789 6.35833 5.4768 6.5507H9.87914C10.1551 6.55089 10.3791 6.77468 10.3791 7.0507C10.3789 7.32655 10.155 7.5505 9.87914 7.5507H4.72191C4.16976 7.55069 3.72211 7.10281 3.72191 6.5507V1.39347Z" fill="black"/>
</svg>
