<svg width="24" height="24" viewBox="0 0 24 24" fill="none" xmlns="http://www.w3.org/2000/svg">
<path d="M12 3.5C16.6944 3.5 20.5 7.30558 20.5 12C20.5 16.6944 16.6944 20.5 12 20.5C7.30558 20.5 3.5 16.6944 3.5 12C3.5 7.30558 7.30558 3.5 12 3.5ZM16.3535 11.3535C16.5488 11.1583 16.5488 10.8417 16.3535 10.6465L12.707 7C12.3165 6.60953 11.6835 6.60952 11.293 7L7.64648 10.6465C7.45122 10.8417 7.45122 11.1583 7.64648 11.3535C7.84175 11.5488 8.15825 11.5488 8.35352 11.3535L11.5 8.20703V17C11.5 17.2761 11.7239 17.5 12 17.5C12.2761 17.5 12.5 17.2761 12.5 17V8.20703L15.6465 11.3535C15.8417 11.5488 16.1583 11.5488 16.3535 11.3535ZM12 2.5C6.75329 2.5 2.5 6.75329 2.5 12C2.5 17.2467 6.75329 21.5 12 21.5C17.2467 21.5 21.5 17.2467 21.5 12C21.5 6.75329 17.2467 2.5 12 2.5Z" fill="black"/>
</svg>
