<svg width="24" height="24" viewBox="0 0 24 24" fill="none" xmlns="http://www.w3.org/2000/svg">
<path d="M20.5 19C20.5 19.8284 19.8284 20.5 19 20.5H5C4.17157 20.5 3.5 19.8284 3.5 19V5C3.5 4.17157 4.17157 3.5 5 3.5H19C19.8284 3.5 20.5 4.17157 20.5 5V19ZM11.5 17C11.5 17.2761 11.7239 17.5 12 17.5C12.2761 17.5 12.5 17.2761 12.5 17V8.20703L15.6465 11.3535C15.8417 11.5488 16.1583 11.5488 16.3535 11.3535C16.5488 11.1583 16.5488 10.8417 16.3535 10.6465L12.707 7C12.3165 6.60953 11.6835 6.60952 11.293 7L7.64648 10.6465C7.45122 10.8417 7.45122 11.1583 7.64648 11.3535C7.84175 11.5488 8.15825 11.5488 8.35352 11.3535L11.5 8.20703V17ZM21.5 5C21.5 3.61929 20.3807 2.5 19 2.5H5C3.61929 2.5 2.5 3.61929 2.5 5V19C2.5 20.3807 3.61929 21.5 5 21.5H19C20.3807 21.5 21.5 20.3807 21.5 19V5Z" fill="black"/>
</svg>
