<svg width="24" height="24" viewBox="0 0 24 24" fill="none" xmlns="http://www.w3.org/2000/svg">
<path d="M20.5 19C20.5 19.8284 19.8284 20.5 19 20.5H5C4.17157 20.5 3.5 19.8284 3.5 19V5C3.5 4.17157 4.17157 3.5 5 3.5H19C19.8284 3.5 20.5 4.17157 20.5 5V19ZM15.6465 16.3535C15.8417 16.5488 16.1583 16.5488 16.3535 16.3535C16.5488 16.1583 16.5488 15.8417 16.3535 15.6465L9.20703 8.5H14C14.2761 8.5 14.5 8.27614 14.5 8C14.5 7.72386 14.2761 7.5 14 7.5H8.5C7.94772 7.5 7.5 7.94772 7.5 8.5V14C7.5 14.2761 7.72386 14.5 8 14.5C8.27614 14.5 8.5 14.2761 8.5 14V9.20703L15.6465 16.3535ZM21.5 5C21.5 3.61929 20.3807 2.5 19 2.5H5C3.61929 2.5 2.5 3.61929 2.5 5V19C2.5 20.3807 3.61929 21.5 5 21.5H19C20.3807 21.5 21.5 20.3807 21.5 19V5Z" fill="black"/>
</svg>
