<svg width="24" height="24" viewBox="0 0 24 24" fill="none" xmlns="http://www.w3.org/2000/svg">
<path d="M20.5 5C20.5 4.17157 19.8284 3.5 19 3.5H5C4.17157 3.5 3.5 4.17157 3.5 5V19C3.5 19.8284 4.17157 20.5 5 20.5H19C19.8284 20.5 20.5 19.8284 20.5 19V5ZM11.5 7C11.5 6.72386 11.7239 6.5 12 6.5C12.2761 6.5 12.5 6.72386 12.5 7V15.793L15.6465 12.6465C15.8417 12.4512 16.1583 12.4512 16.3535 12.6465C16.5488 12.8417 16.5488 13.1583 16.3535 13.3535L12.707 17C12.3165 17.3905 11.6835 17.3905 11.293 17L7.64648 13.3535C7.45122 13.1583 7.45122 12.8417 7.64648 12.6465C7.84175 12.4512 8.15825 12.4512 8.35352 12.6465L11.5 15.793V7ZM21.5 19C21.5 20.3807 20.3807 21.5 19 21.5H5C3.61929 21.5 2.5 20.3807 2.5 19V5C2.5 3.61929 3.61929 2.5 5 2.5H19C20.3807 2.5 21.5 3.61929 21.5 5V19Z" fill="black"/>
</svg>
