<svg width="24" height="24" viewBox="0 0 24 24" fill="none" xmlns="http://www.w3.org/2000/svg">
<path d="M3.5 19C3.5 19.8284 4.17157 20.5 5 20.5H19C19.8284 20.5 20.5 19.8284 20.5 19V5C20.5 4.17157 19.8284 3.5 19 3.5H5C4.17157 3.5 3.5 4.17157 3.5 5V19ZM8.35352 16.3535C8.15825 16.5488 7.84175 16.5488 7.64648 16.3535C7.45122 16.1583 7.45122 15.8417 7.64648 15.6465L14.793 8.5H10C9.72386 8.5 9.5 8.27614 9.5 8C9.5 7.72386 9.72386 7.5 10 7.5H15.5C16.0523 7.5 16.5 7.94772 16.5 8.5V14C16.5 14.2761 16.2761 14.5 16 14.5C15.7239 14.5 15.5 14.2761 15.5 14V9.20703L8.35352 16.3535ZM2.5 5C2.5 3.61929 3.61929 2.5 5 2.5H19C20.3807 2.5 21.5 3.61929 21.5 5V19C21.5 20.3807 20.3807 21.5 19 21.5H5C3.61929 21.5 2.5 20.3807 2.5 19V5Z" fill="black"/>
</svg>
