<svg width="24" height="24" viewBox="0 0 24 24" fill="none" xmlns="http://www.w3.org/2000/svg">
<path d="M18.0104 5.98959C14.691 2.67014 9.30905 2.67014 5.98959 5.98959C2.67014 9.30905 2.67014 14.691 5.98959 18.0104C9.30905 21.3299 14.691 21.3299 18.0104 18.0104C21.3299 14.691 21.3299 9.30905 18.0104 5.98959ZM9.37873 8.46447C9.37873 8.18832 9.60254 7.96452 9.87868 7.96452H15.0356C15.5878 7.96455 16.0355 8.41217 16.0355 8.96441V14.1213C16.0355 14.3975 15.8117 14.6213 15.5355 14.6213C15.2594 14.6213 15.0356 14.3975 15.0356 14.1213V9.67152L8.81802 15.8891C8.62276 16.0843 8.30617 16.0843 8.11091 15.8891C7.91565 15.6938 7.91565 15.3772 8.11091 15.182L14.3285 8.96441H9.87868C9.60254 8.96441 9.37873 8.74061 9.37873 8.46447ZM18.7175 5.28249C22.4275 8.99247 22.4275 15.0075 18.7175 18.7175C15.0075 22.4275 8.99247 22.4275 5.28249 18.7175C1.5725 15.0075 1.5725 8.99247 5.28249 5.28249C8.99247 1.5725 15.0075 1.5725 18.7175 5.28249Z" fill="black"/>
</svg>
