<svg width="24" height="24" viewBox="0 0 24 24" fill="none" xmlns="http://www.w3.org/2000/svg">
<path d="M5.98959 5.98959C9.30905 2.67014 14.691 2.67014 18.0104 5.98959C21.3299 9.30905 21.3299 14.691 18.0104 18.0104C14.691 21.3299 9.30905 21.3299 5.98959 18.0104C2.67014 14.691 2.67014 9.30905 5.98959 5.98959ZM14.6213 8.46447C14.6213 8.18832 14.3975 7.96452 14.1213 7.96452H8.96441C8.41217 7.96455 7.96455 8.41217 7.96452 8.96441V14.1213C7.96452 14.3975 8.18832 14.6213 8.46447 14.6213C8.74061 14.6213 8.96441 14.3975 8.96441 14.1213V9.67152L15.182 15.8891C15.3772 16.0843 15.6938 16.0843 15.8891 15.8891C16.0843 15.6938 16.0843 15.3772 15.8891 15.182L9.67152 8.96441H14.1213C14.3975 8.96441 14.6213 8.74061 14.6213 8.46447ZM5.28249 5.28249C1.5725 8.99247 1.5725 15.0075 5.28249 18.7175C8.99247 22.4275 15.0075 22.4275 18.7175 18.7175C22.4275 15.0075 22.4275 8.99247 18.7175 5.28249C15.0075 1.5725 8.99247 1.5725 5.28249 5.28249Z" fill="black"/>
</svg>
