<svg width="24" height="24" viewBox="0 0 24 24" fill="none" xmlns="http://www.w3.org/2000/svg">
<path d="M3.5 12C3.5 7.30558 7.30558 3.5 12 3.5C16.6944 3.5 20.5 7.30558 20.5 12C20.5 16.6944 16.6944 20.5 12 20.5C7.30558 20.5 3.5 16.6944 3.5 12ZM11.3535 7.64648C11.1583 7.45122 10.8417 7.45122 10.6465 7.64648L7 11.293C6.60953 11.6835 6.60952 12.3165 7 12.707L10.6465 16.3535C10.8417 16.5488 11.1583 16.5488 11.3535 16.3535C11.5488 16.1583 11.5488 15.8417 11.3535 15.6465L8.20703 12.5H17C17.2761 12.5 17.5 12.2761 17.5 12C17.5 11.7239 17.2761 11.5 17 11.5H8.20703L11.3535 8.35352C11.5488 8.15825 11.5488 7.84175 11.3535 7.64648ZM2.5 12C2.5 17.2467 6.75329 21.5 12 21.5C17.2467 21.5 21.5 17.2467 21.5 12C21.5 6.75329 17.2467 2.5 12 2.5C6.75329 2.5 2.5 6.75329 2.5 12Z" fill="black"/>
</svg>
