<svg width="24" height="24" viewBox="0 0 24 24" fill="none" xmlns="http://www.w3.org/2000/svg">
<path d="M18.0104 18.0104C14.691 21.3299 9.30905 21.3299 5.98959 18.0104C2.67014 14.691 2.67014 9.30905 5.98959 5.98959C9.30905 2.67014 14.691 2.67014 18.0104 5.98959C21.3299 9.30905 21.3299 14.691 18.0104 18.0104ZM9.37873 15.5355C9.37873 15.8117 9.60254 16.0355 9.87868 16.0355H15.0356C15.5878 16.0355 16.0355 15.5878 16.0355 15.0356V9.87868C16.0355 9.60254 15.8117 9.37873 15.5355 9.37873C15.2594 9.37873 15.0356 9.60254 15.0356 9.87868V14.3285L8.81802 8.11091C8.62276 7.91565 8.30617 7.91565 8.11091 8.11091C7.91565 8.30617 7.91565 8.62276 8.11091 8.81802L14.3285 15.0356H9.87868C9.60254 15.0356 9.37873 15.2594 9.37873 15.5355ZM18.7175 18.7175C22.4275 15.0075 22.4275 8.99247 18.7175 5.28249C15.0075 1.5725 8.99247 1.5725 5.28249 5.28249C1.5725 8.99247 1.5725 15.0075 5.28249 18.7175C8.99247 22.4275 15.0075 22.4275 18.7175 18.7175Z" fill="black"/>
</svg>
