<svg width="24" height="24" viewBox="0 0 24 24" fill="none" xmlns="http://www.w3.org/2000/svg">
<path d="M5 3.5C4.17157 3.5 3.5 4.17157 3.5 5V19C3.5 19.8284 4.17157 20.5 5 20.5H19C19.8284 20.5 20.5 19.8284 20.5 19V5C20.5 4.17157 19.8284 3.5 19 3.5H5ZM7 12.5C6.72386 12.5 6.5 12.2761 6.5 12C6.5 11.7239 6.72386 11.5 7 11.5H15.793L12.6465 8.35352C12.4512 8.15825 12.4512 7.84175 12.6465 7.64648C12.8417 7.45122 13.1583 7.45122 13.3535 7.64648L17 11.293C17.3905 11.6835 17.3905 12.3165 17 12.707L13.3535 16.3535C13.1583 16.5488 12.8417 16.5488 12.6465 16.3535C12.4512 16.1583 12.4512 15.8417 12.6465 15.6465L15.793 12.5H7ZM19 2.5C20.3807 2.5 21.5 3.61929 21.5 5V19C21.5 20.3807 20.3807 21.5 19 21.5H5C3.61929 21.5 2.5 20.3807 2.5 19V5C2.5 3.61929 3.61929 2.5 5 2.5H19Z" fill="black"/>
</svg>
