<svg width="24" height="24" viewBox="0 0 24 24" fill="none" xmlns="http://www.w3.org/2000/svg">
<path d="M3.5 5C3.5 4.17157 4.17157 3.5 5 3.5H19C19.8284 3.5 20.5 4.17157 20.5 5V19C20.5 19.8284 19.8284 20.5 19 20.5H5C4.17157 20.5 3.5 19.8284 3.5 19V5ZM8.35352 7.64648C8.15825 7.45122 7.84175 7.45122 7.64648 7.64648C7.45122 7.84175 7.45122 8.15825 7.64648 8.35352L14.793 15.5H10C9.72386 15.5 9.5 15.7239 9.5 16C9.5 16.2761 9.72386 16.5 10 16.5H15.5C16.0523 16.5 16.5 16.0523 16.5 15.5V10C16.5 9.72386 16.2761 9.5 16 9.5C15.7239 9.5 15.5 9.72386 15.5 10V14.793L8.35352 7.64648ZM2.5 19C2.5 20.3807 3.61929 21.5 5 21.5H19C20.3807 21.5 21.5 20.3807 21.5 19V5C21.5 3.61929 20.3807 2.5 19 2.5H5C3.61929 2.5 2.5 3.61929 2.5 5V19Z" fill="black"/>
</svg>
