<svg width="24" height="24" viewBox="0 0 24 24" fill="none" xmlns="http://www.w3.org/2000/svg">
<path d="M20.5 12C20.5 7.30558 16.6944 3.5 12 3.5C7.30558 3.5 3.5 7.30558 3.5 12C3.5 16.6944 7.30558 20.5 12 20.5C16.6944 20.5 20.5 16.6944 20.5 12ZM12.6465 7.64648C12.8417 7.45122 13.1583 7.45122 13.3535 7.64648L17 11.293C17.3905 11.6835 17.3905 12.3165 17 12.707L13.3535 16.3535C13.1583 16.5488 12.8417 16.5488 12.6465 16.3535C12.4512 16.1583 12.4512 15.8417 12.6465 15.6465L15.793 12.5H7C6.72386 12.5 6.5 12.2761 6.5 12C6.5 11.7239 6.72386 11.5 7 11.5H15.793L12.6465 8.35352C12.4512 8.15825 12.4512 7.84175 12.6465 7.64648ZM21.5 12C21.5 17.2467 17.2467 21.5 12 21.5C6.75329 21.5 2.5 17.2467 2.5 12C2.5 6.75329 6.75329 2.5 12 2.5C17.2467 2.5 21.5 6.75329 21.5 12Z" fill="black"/>
</svg>
