<svg width="24" height="24" viewBox="0 0 24 24" fill="none" xmlns="http://www.w3.org/2000/svg">
<path d="M20.5 5.4123C20.5 5.35916 20.4685 5.31084 20.4199 5.28925L20.2969 5.23457C17.8796 4.16026 15.1204 4.16026 12.7031 5.23457C12.6369 5.264 12.5686 5.28708 12.5 5.30781V20.2307L12.5977 20.1877C15.0822 19.0835 17.9178 19.0835 20.4023 20.1877C20.4481 20.208 20.4998 20.1742 20.5 20.1242V5.4123ZM14.9043 12.5832C15.9581 12.3783 17.0419 12.3783 18.0957 12.5832C18.3666 12.6361 18.5439 12.8982 18.4912 13.1691C18.4385 13.4402 18.1754 13.6174 17.9043 13.5646C16.9768 13.3843 16.0232 13.3843 15.0957 13.5646C14.8246 13.6174 14.5615 13.4402 14.5088 13.1691C14.4561 12.8982 14.6334 12.6361 14.9043 12.5832ZM14.9043 9.5832C15.9581 9.3783 17.0419 9.3783 18.0957 9.5832C18.3666 9.63605 18.5439 9.89819 18.4912 10.1691C18.4385 10.4402 18.1754 10.6174 17.9043 10.5646C16.9768 10.3843 16.0232 10.3843 15.0957 10.5646C14.8246 10.6174 14.5615 10.4402 14.5088 10.1691C14.4561 9.89819 14.6334 9.63605 14.9043 9.5832ZM14.9043 6.5832C15.9581 6.3783 17.0419 6.3783 18.0957 6.5832C18.3666 6.63605 18.5439 6.89819 18.4912 7.16914C18.4385 7.4402 18.1754 7.61735 17.9043 7.56464C16.9768 7.38432 16.0232 7.38432 15.0957 7.56464C14.8246 7.61735 14.5615 7.4402 14.5088 7.16914C14.4561 6.89819 14.6334 6.63605 14.9043 6.5832ZM3.5 20.1242C3.50018 20.1742 3.5519 20.208 3.59766 20.1877C6.08217 19.0835 8.91783 19.0835 11.4023 20.1877L11.5 20.2307V5.30781C11.4314 5.28708 11.3631 5.264 11.2969 5.23457C8.87963 4.16026 6.12037 4.16026 3.70312 5.23457L3.58008 5.28925C3.53151 5.31084 3.50001 5.35916 3.5 5.4123V20.1242ZM21.5 20.1242C21.4998 20.8979 20.7031 21.415 19.9961 21.1008C17.7703 20.1117 15.2297 20.1117 13.0039 21.1008L12.7031 21.2346C12.2555 21.4335 11.7445 21.4335 11.2969 21.2346L10.9961 21.1008C8.77035 20.1117 6.22965 20.1117 4.00391 21.1008C3.29687 21.415 2.50018 20.8979 2.5 20.1242V5.4123C2.50001 4.96397 2.76413 4.55728 3.17383 4.37519L3.29688 4.3205C5.97268 3.13128 9.02732 3.13128 11.7031 4.3205C11.8922 4.40452 12.1078 4.40452 12.2969 4.3205C14.9727 3.13128 18.0273 3.13128 20.7031 4.3205L20.8262 4.37519C21.2359 4.55728 21.5 4.96397 21.5 5.4123V20.1242Z" fill="black"/>
</svg>
