<svg width="24" height="24" viewBox="0 0 24 24" fill="none" xmlns="http://www.w3.org/2000/svg">
<path d="M19.5 4C19.5 3.72386 19.2761 3.5 19 3.5H7C5.61929 3.5 4.5 4.61929 4.5 6V15.5518C5.1353 14.9031 6.02033 14.5 7 14.5H19.5V4ZM4.5 18C4.5 19.3807 5.61929 20.5 7 20.5H18.8818C19.2535 20.5 19.4953 20.1088 19.3291 19.7764L19.1084 19.335C18.6933 18.5047 18.6254 17.5437 18.9189 16.6631L19.3057 15.5H7C5.61929 15.5 4.5 16.6193 4.5 18ZM20.5 14.6758C20.5 14.9443 20.4569 15.2111 20.3721 15.4658L19.8672 16.9795C19.6576 17.6084 19.7065 18.2948 20.0029 18.8877L20.2236 19.3291C20.7223 20.3265 19.9969 21.5 18.8818 21.5H7C5.067 21.5 3.5 19.933 3.5 18V6C3.5 4.067 5.067 2.5 7 2.5H19C19.8284 2.5 20.5 3.17157 20.5 4V14.6758Z" fill="black"/>
</svg>
