<svg width="24" height="24" viewBox="0 0 24 24" fill="none" xmlns="http://www.w3.org/2000/svg">
<path d="M20.5 7.5H3.5V19C3.5 19.8284 4.17157 20.5 5 20.5H19C19.8284 20.5 20.5 19.8284 20.5 19V7.5ZM13.7676 11.5254C13.9628 11.3301 14.2803 11.3301 14.4756 11.5254C14.6704 11.7206 14.6706 12.0373 14.4756 12.2324L12.707 14L14.4756 15.7676C14.6706 15.9627 14.6704 16.2794 14.4756 16.4746C14.2803 16.6699 13.9628 16.6699 13.7676 16.4746L12 14.707L10.2324 16.4746C10.0372 16.6699 9.72065 16.6699 9.52539 16.4746C9.33024 16.2793 9.33016 15.9628 9.52539 15.7676L11.293 14L9.52539 12.2324C9.33016 12.0372 9.33024 11.7207 9.52539 11.5254C9.72065 11.3301 10.0372 11.3301 10.2324 11.5254L12 13.292L13.7676 11.5254ZM15.5 4V3.5H8.5V4C8.5 4.27614 8.27614 4.5 8 4.5C7.72386 4.5 7.5 4.27614 7.5 4V3.5H5C4.17157 3.5 3.5 4.17157 3.5 5V6.5H20.5V5C20.5 4.17157 19.8284 3.5 19 3.5H16.5V4C16.5 4.27614 16.2761 4.5 16 4.5C15.7239 4.5 15.5 4.27614 15.5 4ZM21.5 19C21.5 20.3807 20.3807 21.5 19 21.5H5C3.61929 21.5 2.5 20.3807 2.5 19V5C2.5 3.61929 3.61929 2.5 5 2.5H7.5V2C7.5 1.72386 7.72386 1.5 8 1.5C8.27614 1.5 8.5 1.72386 8.5 2V2.5H15.5V2C15.5 1.72386 15.7239 1.5 16 1.5C16.2761 1.5 16.5 1.72386 16.5 2V2.5H19C20.3807 2.5 21.5 3.61929 21.5 5V19Z" fill="black"/>
</svg>
