<svg width="24" height="24" viewBox="0 0 24 24" fill="none" xmlns="http://www.w3.org/2000/svg">
<path d="M12 3.5C7.30558 3.5 3.5 7.30558 3.5 12C3.5 16.6944 7.30558 20.5 12 20.5C16.6944 20.5 20.5 16.6944 20.5 12C20.5 7.30558 16.6944 3.5 12 3.5ZM7.64648 13.3535C7.45122 13.1583 7.45122 12.8417 7.64648 12.6465L11.293 9C11.6835 8.60953 12.3165 8.60952 12.707 9L16.3535 12.6465C16.5488 12.8417 16.5488 13.1583 16.3535 13.3535C16.1583 13.5488 15.8417 13.5488 15.6465 13.3535L12 9.70703L8.35352 13.3535C8.15825 13.5488 7.84175 13.5488 7.64648 13.3535ZM12 2.5C17.2467 2.5 21.5 6.75329 21.5 12C21.5 17.2467 17.2467 21.5 12 21.5C6.75329 21.5 2.5 17.2467 2.5 12C2.5 6.75329 6.75329 2.5 12 2.5Z" fill="black"/>
</svg>
