<svg width="24" height="24" viewBox="0 0 24 24" fill="none" xmlns="http://www.w3.org/2000/svg">
<path d="M18.6465 10.1465C18.8417 9.95122 19.1583 9.95122 19.3535 10.1465L22 12.793C22.3905 13.1835 22.3905 13.8165 22 14.207L19.3535 16.8535C19.1583 17.0488 18.8417 17.0488 18.6465 16.8535C18.4512 16.6583 18.4512 16.3417 18.6465 16.1465L20.793 14H13C12.7239 14 12.5 13.7761 12.5 13.5C12.5 13.2239 12.7239 13 13 13H20.793L18.6465 10.8535C18.4512 10.6583 18.4512 10.3417 18.6465 10.1465ZM19 7V6.5C19 5.67157 18.3284 5 17.5 5H16.4346C16.2123 5.86232 15.4317 6.5 14.5 6.5H9.5C8.56829 6.5 7.78765 5.86232 7.56543 5H6.5C5.67157 5 5 5.67157 5 6.5V19C5 19.8284 5.67157 20.5 6.5 20.5H18.5C18.7417 20.5 18.9437 20.3286 18.9902 20.1006L19.0098 19.8994C19.0563 19.6714 19.2583 19.5 19.5 19.5C19.7761 19.5 20 19.7239 20 20C20 20.8284 19.3284 21.5 18.5 21.5H6.5C5.11929 21.5 4 20.3807 4 19V6.5C4 5.11929 5.11929 4 6.5 4H7.56543C7.78765 3.13768 8.56829 2.5 9.5 2.5H14.5C15.4317 2.5 16.2123 3.13768 16.4346 4H17.5C18.8807 4 20 5.11929 20 6.5V7C20 7.27614 19.7761 7.5 19.5 7.5C19.2239 7.5 19 7.27614 19 7ZM9.5 3.5C8.94772 3.5 8.5 3.94772 8.5 4.5C8.5 5.05228 8.94772 5.5 9.5 5.5H14.5C15.0523 5.5 15.5 5.05228 15.5 4.5C15.5 3.94772 15.0523 3.5 14.5 3.5H9.5Z" fill="black"/>
</svg>
