<svg width="24" height="24" viewBox="0 0 24 24" fill="none" xmlns="http://www.w3.org/2000/svg">
<path d="M19 6.5C19 5.67157 18.3284 5 17.5 5H16.4346C16.2123 5.86232 15.4317 6.5 14.5 6.5H9.5C8.56829 6.5 7.78765 5.86232 7.56543 5H6.5C5.67157 5 5 5.67157 5 6.5V19C5 19.8284 5.67157 20.5 6.5 20.5H17.5C18.3284 20.5 19 19.8284 19 19V6.5ZM11.5 17V14.5H9C8.72386 14.5 8.5 14.2761 8.5 14C8.5 13.7239 8.72386 13.5 9 13.5H11.5V11C11.5 10.7239 11.7239 10.5 12 10.5C12.2761 10.5 12.5 10.7239 12.5 11V13.5H15C15.2761 13.5 15.5 13.7239 15.5 14C15.5 14.2761 15.2761 14.5 15 14.5H12.5V17C12.5 17.2761 12.2761 17.5 12 17.5C11.7239 17.5 11.5 17.2761 11.5 17ZM9.5 3.5C8.94772 3.5 8.5 3.94772 8.5 4.5C8.5 5.05228 8.94772 5.5 9.5 5.5H14.5C15.0523 5.5 15.5 5.05228 15.5 4.5C15.5 3.94772 15.0523 3.5 14.5 3.5H9.5ZM20 19C20 20.3807 18.8807 21.5 17.5 21.5H6.5C5.11929 21.5 4 20.3807 4 19V6.5C4 5.11929 5.11929 4 6.5 4H7.56543C7.78765 3.13768 8.56829 2.5 9.5 2.5H14.5C15.4317 2.5 16.2123 3.13768 16.4346 4H17.5C18.8807 4 20 5.11929 20 6.5V19Z" fill="black"/>
</svg>
