<svg width="24" height="24" viewBox="0 0 24 24" fill="none" xmlns="http://www.w3.org/2000/svg">
<path d="M5.28152 5.28224C8.9915 1.57233 15.0071 1.57228 18.7171 5.28224C22.427 8.9922 22.427 15.0078 18.7171 18.7178C15.0071 22.4277 8.9915 22.4277 5.28152 18.7178C3.47889 16.9152 2.55197 14.5668 2.50124 12.2051C2.49539 11.9291 2.71447 11.7003 2.9905 11.6943C3.26653 11.6884 3.49524 11.9076 3.50124 12.1836C3.54666 14.298 4.37539 16.3976 5.98855 18.0108C9.30801 21.3301 14.6906 21.3302 18.01 18.0108C21.3294 14.6913 21.3294 9.30871 18.01 5.98927C14.6906 2.66984 9.30801 2.66988 5.98855 5.98927C5.8078 6.17002 5.63779 6.35767 5.47683 6.54982H7.99929C8.27522 6.54989 8.49905 6.77392 8.49929 7.04982C8.49929 7.32591 8.27537 7.54974 7.99929 7.54982H4.72097C4.16879 7.54969 3.72097 7.10202 3.72097 6.54982V3.27052C3.72097 2.99446 3.94494 2.77065 4.22097 2.77052C4.49711 2.77052 4.72097 2.99438 4.72097 3.27052V5.89454C4.89755 5.68451 5.08401 5.47974 5.28152 5.28224ZM11.5012 7.00001C11.5012 6.72387 11.7251 6.50001 12.0012 6.50001C12.2773 6.50008 12.5012 6.72391 12.5012 7.00001V11.5H16.0012C16.2773 11.5001 16.5012 11.7239 16.5012 12C16.5012 12.2761 16.2773 12.4999 16.0012 12.5H12.2512C11.837 12.5 11.5012 12.1642 11.5012 11.75V7.00001Z" fill="black"/>
</svg>
