<svg width="24" height="24" viewBox="0 0 24 24" fill="none" xmlns="http://www.w3.org/2000/svg">
<path d="M3.5 12C3.5 7.30558 7.30558 3.5 12 3.5C16.6944 3.5 20.5 7.30558 20.5 12C20.5 16.6944 16.6944 20.5 12 20.5C7.30558 20.5 3.5 16.6944 3.5 12ZM2.5 12C2.5 17.2467 6.75329 21.5 12 21.5C17.2467 21.5 21.5 17.2467 21.5 12C21.5 6.75329 17.2467 2.5 12 2.5C6.75329 2.5 2.5 6.75329 2.5 12ZM11.5 11.8965C11.5 12.0954 11.5791 12.2861 11.7197 12.4268L14.4746 15.1816C14.6699 15.3769 14.9864 15.3769 15.1816 15.1816C15.3768 14.9864 15.3769 14.6698 15.1816 14.4746L12.5 11.793V7C12.5 6.72387 12.2761 6.50002 12 6.5C11.7239 6.50006 11.5 6.72391 11.5 7V11.8965Z" fill="black"/>
</svg>
