<svg width="24" height="24" viewBox="0 0 24 24" fill="none" xmlns="http://www.w3.org/2000/svg">
<path d="M21.3965 16.5C22.0646 16.5 22.3992 17.3078 21.9268 17.7803L18.207 21.5H22C22.2761 21.5 22.5 21.7239 22.5 22C22.5 22.2761 22.2761 22.5 22 22.5H17.6035C16.9354 22.5 16.6008 21.6922 17.0732 21.2197L20.793 17.5H17C16.7239 17.5 16.5 17.2761 16.5 17C16.5 16.7239 16.7239 16.5 17 16.5H21.3965ZM11.5 7C11.5 6.72386 11.7239 6.5 12 6.5C12.2761 6.5 12.5 6.72386 12.5 7V11.5H16C16.2761 11.5 16.5 11.7239 16.5 12C16.5 12.2761 16.2761 12.5 16 12.5H12.25C11.8358 12.5 11.5 12.1642 11.5 11.75V7ZM20.5 12C20.5 7.30558 16.6944 3.5 12 3.5C7.30558 3.5 3.5 7.30558 3.5 12C3.5 16.6944 7.30558 20.5 12 20.5C12.2761 20.5 12.5 20.7239 12.5 21C12.5 21.2761 12.2761 21.5 12 21.5C6.75329 21.5 2.5 17.2467 2.5 12C2.5 6.75329 6.75329 2.5 12 2.5C17.2467 2.5 21.5 6.75329 21.5 12C21.5 12.2761 21.2761 12.5 21 12.5C20.7239 12.5 20.5 12.2761 20.5 12Z" fill="black"/>
</svg>
