<svg width="24" height="24" viewBox="0 0 24 24" fill="none" xmlns="http://www.w3.org/2000/svg">
<path d="M20.5 12C20.5 7.30558 16.6944 3.5 12 3.5C7.30558 3.5 3.5 7.30558 3.5 12C3.5 16.6944 7.30558 20.5 12 20.5C16.6944 20.5 20.5 16.6944 20.5 12ZM21.5 12C21.5 17.2467 17.2467 21.5 12 21.5C6.75329 21.5 2.5 17.2467 2.5 12C2.5 6.75329 6.75329 2.5 12 2.5C17.2467 2.5 21.5 6.75329 21.5 12ZM12.5 11.8965C12.5 12.0954 12.4209 12.2861 12.2803 12.4268L9.52539 15.1816C9.33013 15.3769 9.01362 15.3769 8.81836 15.1816C8.62322 14.9864 8.62314 14.6698 8.81836 14.4746L11.5 11.793V7C11.5 6.72387 11.7239 6.50002 12 6.5C12.2761 6.50006 12.5 6.72391 12.5 7V11.8965Z" fill="black"/>
</svg>
