<svg width="24" height="24" viewBox="0 0 24 24" fill="none" xmlns="http://www.w3.org/2000/svg">
<path d="M5.28328 5.28224C8.99326 1.57226 15.0088 1.57226 18.7188 5.28224C18.9164 5.47977 19.1028 5.68449 19.2794 5.89455V3.27052C19.2794 2.99438 19.5032 2.77052 19.7794 2.77052C20.0553 2.77072 20.2794 2.9945 20.2794 3.27052V6.54982C20.2794 7.10198 19.8315 7.54962 19.2794 7.54982H16.0011C15.7249 7.54982 15.5011 7.32596 15.5011 7.04982C15.5013 6.77388 15.7251 6.54982 16.0011 6.54982H18.5235C18.3625 6.35765 18.1926 6.17004 18.0118 5.98927C14.6923 2.66982 9.30977 2.66982 5.99031 5.98927C2.67085 9.30873 2.67085 14.6913 5.99031 18.0108C9.30977 21.3302 14.6923 21.3302 18.0118 18.0108C19.625 16.3976 20.4537 14.298 20.4991 12.1836C20.5051 11.9076 20.7338 11.6884 21.0098 11.6944C21.2858 11.7004 21.505 11.9291 21.4991 12.2051C21.4484 14.5668 20.5215 16.9152 18.7188 18.7178C15.0088 22.4278 8.99326 22.4278 5.28328 18.7178C1.5733 15.0078 1.5733 8.99222 5.28328 5.28224ZM11.5011 7.00001C11.5011 6.72387 11.7249 6.50001 12.0011 6.50001C12.2772 6.50001 12.5011 6.72387 12.5011 7.00001V11.5H16.0011C16.2772 11.5 16.5011 11.7239 16.5011 12C16.5011 12.2762 16.2772 12.5 16.0011 12.5H12.2511C11.8368 12.5 11.5011 12.1642 11.5011 11.75V7.00001Z" fill="black"/>
</svg>
