<svg width="24" height="24" viewBox="0 0 24 24" fill="none" xmlns="http://www.w3.org/2000/svg">
<path d="M20.5 9C20.5 8.17157 19.8284 7.5 19 7.5H9C8.17157 7.5 7.5 8.17157 7.5 9V19C7.5 19.8284 8.17157 20.5 9 20.5H19C19.8284 20.5 20.5 19.8284 20.5 19V9ZM16.5 5C16.5 4.17157 15.8284 3.5 15 3.5H5C4.17157 3.5 3.5 4.17157 3.5 5V15C3.5 15.8284 4.17157 16.5 5 16.5H6.5V9C6.5 7.61929 7.61929 6.5 9 6.5H16.5V5ZM17.5 6.5H19C20.3807 6.5 21.5 7.61929 21.5 9V19C21.5 20.3807 20.3807 21.5 19 21.5H9C7.61929 21.5 6.5 20.3807 6.5 19V17.5H5C3.61929 17.5 2.5 16.3807 2.5 15V5C2.5 3.61929 3.61929 2.5 5 2.5H15C16.3807 2.5 17.5 3.61929 17.5 5V6.5Z" fill="black"/>
</svg>
