<svg width="24" height="24" viewBox="0 0 24 24" fill="none" xmlns="http://www.w3.org/2000/svg">
<path d="M20.5 8.84939L12.4854 13.3025C12.1835 13.47 11.8165 13.47 11.5146 13.3025L3.5 8.84939V17.4998C3.5 18.3282 4.17157 18.9998 5 18.9998H19C19.8284 18.9998 20.5 18.3282 20.5 17.4998V8.84939ZM20.5 7.44119C20.4999 6.79574 20.0869 6.22253 19.4746 6.01834L12.4746 3.68533C12.1667 3.5827 11.8333 3.5827 11.5254 3.68533L4.52539 6.01834C3.91309 6.22253 3.50014 6.79574 3.5 7.44119V7.70584L12 12.4285L20.5 7.70584V7.44119ZM21.5 17.4998C21.5 18.8805 20.3807 19.9998 19 19.9998H5C3.61929 19.9998 2.5 18.8805 2.5 17.4998V7.44119C2.50014 6.36542 3.1885 5.41049 4.20898 5.07009L11.209 2.73611C11.7222 2.56505 12.2778 2.56505 12.791 2.73611L19.791 5.07009C20.8115 5.41049 21.4999 6.36542 21.5 7.44119V17.4998Z" fill="black"/>
</svg>
