<svg width="24" height="24" viewBox="0 0 24 24" fill="none" xmlns="http://www.w3.org/2000/svg">
<path d="M20.5 8.84961L12.4854 13.3018C12.1834 13.4695 11.8166 13.4695 11.5146 13.3018L3.5 8.84961V17.5C3.5 18.3284 4.17157 19 5 19H19C19.8284 19 20.5 18.3284 20.5 17.5V8.84961ZM20.5 6.5C20.5 5.67157 19.8284 5 19 5H5C4.17157 5 3.5 5.67157 3.5 6.5V7.70508L12 12.4277L20.5 7.70508V6.5ZM21.5 17.5C21.5 18.8807 20.3807 20 19 20H5C3.61929 20 2.5 18.8807 2.5 17.5V6.5C2.5 5.11929 3.61929 4 5 4H19C20.3807 4 21.5 5.11929 21.5 6.5V17.5Z" fill="black"/>
</svg>
