<svg width="24" height="24" viewBox="0 0 24 24" fill="none" xmlns="http://www.w3.org/2000/svg">
<path d="M4 19V5C4 3.61929 5.11929 2.5 6.5 2.5H13.6719C14.3348 2.50008 14.9707 2.76365 15.4395 3.23242L19.2676 7.06055C19.7363 7.52932 19.9999 8.16519 20 8.82812V19C20 20.3807 18.8807 21.5 17.5 21.5H6.5C5.11929 21.5 4 20.3807 4 19ZM11.5 17V11.707L9.35352 13.8535C9.15825 14.0488 8.84175 14.0488 8.64648 13.8535C8.45122 13.6583 8.45122 13.3417 8.64648 13.1465L11.293 10.5C11.6835 10.1095 12.3165 10.1095 12.707 10.5L15.3535 13.1465C15.5488 13.3417 15.5488 13.6583 15.3535 13.8535C15.1583 14.0488 14.8417 14.0488 14.6465 13.8535L12.5 11.707V17C12.5 17.2761 12.2761 17.5 12 17.5C11.7239 17.5 11.5 17.2761 11.5 17ZM18.293 7.5L15 4.20703V7.5H18.293ZM5 19C5 19.8284 5.67157 20.5 6.5 20.5H17.5C18.3284 20.5 19 19.8284 19 19V8.82812C19 8.71674 18.986 8.60699 18.9619 8.5H15C14.4477 8.5 14 8.05229 14 7.5V3.53711C13.8931 3.5131 13.7832 3.50002 13.6719 3.5H6.5C5.67157 3.5 5 4.17157 5 5V19Z" fill="black"/>
</svg>
