<svg width="24" height="24" viewBox="0 0 24 24" fill="none" xmlns="http://www.w3.org/2000/svg">
<path d="M4 19V5C4 3.61929 5.11929 2.5 6.5 2.5H13.6719C14.3348 2.50008 14.9707 2.76365 15.4395 3.23242L19.2676 7.06055C19.7363 7.52932 19.9999 8.16519 20 8.82812V19C20 20.3807 18.8807 21.5 17.5 21.5H6.5C5.11929 21.5 4 20.3807 4 19ZM13.7676 11.5254C13.9628 11.3301 14.2803 11.3301 14.4756 11.5254C14.6704 11.7206 14.6706 12.0373 14.4756 12.2324L12.707 14L14.4756 15.7676C14.6706 15.9627 14.6704 16.2794 14.4756 16.4746C14.2803 16.6699 13.9628 16.6699 13.7676 16.4746L12 14.707L10.2324 16.4746C10.0372 16.6699 9.72065 16.6699 9.52539 16.4746C9.33025 16.2793 9.33017 15.9628 9.52539 15.7676L11.293 14L9.52539 12.2324C9.33017 12.0372 9.33025 11.7207 9.52539 11.5254C9.72065 11.3301 10.0372 11.3301 10.2324 11.5254L12 13.292L13.7676 11.5254ZM18.293 7.5L15 4.20703V7.5H18.293ZM5 19C5 19.8284 5.67157 20.5 6.5 20.5H17.5C18.3284 20.5 19 19.8284 19 19V8.82812C19 8.71674 18.986 8.60699 18.9619 8.5H15C14.4477 8.5 14 8.05229 14 7.5V3.53711C13.8931 3.5131 13.7832 3.50002 13.6719 3.5H6.5C5.67157 3.5 5 4.17157 5 5V19Z" fill="black"/>
</svg>
