<svg width="24" height="24" viewBox="0 0 24 24" fill="none" xmlns="http://www.w3.org/2000/svg">
<path d="M2.5 18V6C2.5 4.61929 3.61929 3.5 5 3.5H8.5C9.28689 3.5 10.0279 3.87049 10.5 4.5L10.7998 4.90039C11.0831 5.278 11.5279 5.5 12 5.5H19C20.3807 5.5 21.5 6.61929 21.5 8V18C21.5 19.3807 20.3807 20.5 19 20.5H5C3.61929 20.5 2.5 19.3807 2.5 18ZM11.5 16V13.5H9C8.72386 13.5 8.5 13.2761 8.5 13C8.5 12.7239 8.72386 12.5 9 12.5H11.5V10C11.5 9.72386 11.7239 9.5 12 9.5C12.2761 9.5 12.5 9.72386 12.5 10V12.5H15C15.2761 12.5 15.5 12.7239 15.5 13C15.5 13.2761 15.2761 13.5 15 13.5H12.5V16C12.5 16.2761 12.2761 16.5 12 16.5C11.7239 16.5 11.5 16.2761 11.5 16ZM3.5 18C3.5 18.8284 4.17157 19.5 5 19.5H19C19.8284 19.5 20.5 18.8284 20.5 18V8C20.5 7.17157 19.8284 6.5 19 6.5H12C11.2131 6.5 10.4721 6.12951 10 5.5L9.7002 5.09961C9.41691 4.722 8.97207 4.5 8.5 4.5H5C4.17157 4.5 3.5 5.17157 3.5 6V18Z" fill="black"/>
</svg>
