<svg width="24" height="24" viewBox="0 0 24 24" fill="none" xmlns="http://www.w3.org/2000/svg">
<path d="M2.5 18V6C2.5 4.61929 3.61929 3.5 5 3.5H8.5C9.28689 3.5 10.0279 3.87049 10.5 4.5L10.7998 4.90039C11.0831 5.278 11.5279 5.5 12 5.5H19C20.3807 5.5 21.5 6.61929 21.5 8V18C21.5 19.3807 20.3807 20.5 19 20.5H5C3.61929 20.5 2.5 19.3807 2.5 18ZM9.64648 9.64648C9.84175 9.45122 10.1583 9.45122 10.3535 9.64648C10.5488 9.84175 10.5488 10.1583 10.3535 10.3535L7.70703 13L10.3535 15.6465C10.5488 15.8417 10.5488 16.1583 10.3535 16.3535C10.1583 16.5488 9.84175 16.5488 9.64648 16.3535L7 13.707C6.60953 13.3165 6.60953 12.6835 7 12.293L9.64648 9.64648ZM13.6465 9.64648C13.8417 9.45122 14.1583 9.45122 14.3535 9.64648L17 12.293C17.3905 12.6835 17.3905 13.3165 17 13.707L14.3535 16.3535C14.1583 16.5488 13.8417 16.5488 13.6465 16.3535C13.4512 16.1583 13.4512 15.8417 13.6465 15.6465L16.293 13L13.6465 10.3535C13.4512 10.1583 13.4512 9.84175 13.6465 9.64648ZM3.5 18C3.5 18.8284 4.17157 19.5 5 19.5H19C19.8284 19.5 20.5 18.8284 20.5 18V8C20.5 7.17157 19.8284 6.5 19 6.5H12C11.2131 6.5 10.4721 6.12951 10 5.5L9.7002 5.09961C9.41691 4.722 8.97207 4.5 8.5 4.5H5C4.17157 4.5 3.5 5.17157 3.5 6V18Z" fill="black"/>
</svg>
