<svg width="24" height="24" viewBox="0 0 24 24" fill="none" xmlns="http://www.w3.org/2000/svg">
<path d="M19.5 10.445L17.5 11.5456V17.3327L19.2451 16.3513C19.4026 16.2627 19.5 16.0954 19.5 15.9147V10.445ZM12.2412 3.70283C12.0912 3.62035 11.9088 3.62032 11.7588 3.70283L3.83398 8.0622C3.48896 8.25226 3.48888 8.7482 3.83398 8.93818L11.7588 13.2966C11.9088 13.3791 12.0912 13.3791 12.2412 13.2966L15.9619 11.2497L11.7588 8.93818C11.5171 8.80503 11.4296 8.50131 11.5625 8.25947C11.6956 8.01751 11.9992 7.92912 12.2412 8.0622L16.999 10.6794L20.166 8.93818C20.5114 8.74823 20.5113 8.25219 20.166 8.0622L12.2412 3.70283ZM4.5 15.9147C4.5 16.0954 4.59744 16.2627 4.75488 16.3513L11.7549 20.2888C11.907 20.3743 12.093 20.3742 12.2451 20.2888L16.5 17.8952V12.0954L12.7227 14.1735C12.2727 14.4208 11.7273 14.4209 11.2773 14.1735L4.5 10.445V15.9147ZM20.5 15.9147C20.5 16.4566 20.2077 16.9567 19.7354 17.2224L17.5 18.4792V20.4997C17.5 20.7758 17.2761 20.9997 17 20.9997C16.7239 20.9996 16.5 20.7758 16.5 20.4997V19.0417L12.7354 21.1599C12.2787 21.4167 11.7212 21.4167 11.2646 21.1599L4.26465 17.2224C3.79243 16.9567 3.5 16.4566 3.5 15.9147V9.89521L3.35254 9.81415C2.31638 9.24426 2.31638 7.75514 3.35254 7.18525L11.2773 2.82685C11.7273 2.5794 12.2726 2.57949 12.7227 2.82685L20.6484 7.18525C21.6843 7.75512 21.6841 9.24412 20.6484 9.81415L20.5 9.89521V15.9147Z" fill="black"/>
</svg>
