<svg width="24" height="24" viewBox="0 0 24 24" fill="none" xmlns="http://www.w3.org/2000/svg">
<path d="M9.5 16C9.5 15.1716 8.82843 14.5 8 14.5H5C4.17157 14.5 3.5 15.1716 3.5 16V19C3.5 19.8284 4.17157 20.5 5 20.5H8C8.82843 20.5 9.5 19.8284 9.5 19V16ZM17 20.5V18H14.5C14.2239 18 14 17.7761 14 17.5C14 17.2239 14.2239 17 14.5 17H17V14.5C17 14.2239 17.2239 14 17.5 14C17.7761 14 18 14.2239 18 14.5V17H20.5C20.7761 17 21 17.2239 21 17.5C21 17.7761 20.7761 18 20.5 18H18V20.5C18 20.7761 17.7761 21 17.5 21C17.2239 21 17 20.7761 17 20.5ZM9.5 5C9.5 4.17157 8.82843 3.5 8 3.5H5C4.17157 3.5 3.5 4.17157 3.5 5V8C3.5 8.82843 4.17157 9.5 5 9.5H8C8.82843 9.5 9.5 8.82843 9.5 8V5ZM20.5 5C20.5 4.17157 19.8284 3.5 19 3.5H16C15.1716 3.5 14.5 4.17157 14.5 5V8C14.5 8.82843 15.1716 9.5 16 9.5H19C19.8284 9.5 20.5 8.82843 20.5 8V5ZM10.5 19C10.5 20.3807 9.38071 21.5 8 21.5H5C3.61929 21.5 2.5 20.3807 2.5 19V16C2.5 14.6193 3.61929 13.5 5 13.5H8C9.38071 13.5 10.5 14.6193 10.5 16V19ZM10.5 8C10.5 9.38071 9.38071 10.5 8 10.5H5C3.61929 10.5 2.5 9.38071 2.5 8V5C2.5 3.61929 3.61929 2.5 5 2.5H8C9.38071 2.5 10.5 3.61929 10.5 5V8ZM21.5 8C21.5 9.38071 20.3807 10.5 19 10.5H16C14.6193 10.5 13.5 9.38071 13.5 8V5C13.5 3.61929 14.6193 2.5 16 2.5H19C20.3807 2.5 21.5 3.61929 21.5 5V8Z" fill="black"/>
</svg>
