<svg width="24" height="24" viewBox="0 0 24 24" fill="none" xmlns="http://www.w3.org/2000/svg">
<path d="M9.5 14.4998V20.4998H14.5V14.4998H9.5ZM15.5 20.4998H19C19.8284 20.4998 20.5 19.8283 20.5 18.9998V9.17659C20.4999 8.63202 20.2045 8.1306 19.7285 7.86604L12.7285 3.97639C12.2755 3.72477 11.7245 3.72477 11.2715 3.97639L4.27148 7.86604C3.79549 8.1306 3.50008 8.63201 3.5 9.17659V18.9998C3.5 19.8283 4.17157 20.4998 5 20.4998H8.5V14.4998C8.50009 13.9476 8.94777 13.4998 9.5 13.4998H14.5C15.0522 13.4998 15.4999 13.9476 15.5 14.4998V20.4998ZM21.5 18.9998C21.5 20.3805 20.3807 21.4998 19 21.4998H5C3.61929 21.4998 2.5 20.3805 2.5 18.9998V9.17659C2.50008 8.26876 2.99253 7.43193 3.78613 6.99104L10.7861 3.10237C11.5411 2.68308 12.4589 2.68308 13.2139 3.10237L20.2139 6.99104C21.0075 7.43193 21.4999 8.26876 21.5 9.17659V18.9998Z" fill="black"/>
</svg>
