<svg width="24" height="24" viewBox="0 0 24 24" fill="none" xmlns="http://www.w3.org/2000/svg">
<path d="M20.5 13.5H16.8281C16.4304 13.5001 16.0488 13.6582 15.7676 13.9395L14.9395 14.7676C14.4707 15.2363 13.8348 15.4999 13.1719 15.5H10.8281C10.1652 15.4999 9.52932 15.2363 9.06055 14.7676L8.23242 13.9395C7.95119 13.6582 7.56959 13.5001 7.17188 13.5H3.5V18C3.5 18.8284 4.17157 19.5 5 19.5H19C19.8284 19.5 20.5 18.8284 20.5 18V13.5ZM11.5 3C11.5 2.72386 11.7239 2.5 12 2.5C12.2761 2.5 12.5 2.72386 12.5 3V9.79297L14.1465 8.14648C14.3417 7.95122 14.6583 7.95122 14.8535 8.14648C15.0488 8.34175 15.0488 8.65825 14.8535 8.85352L12.707 11C12.3165 11.3905 11.6835 11.3905 11.293 11L9.14648 8.85352C8.95122 8.65825 8.95122 8.34175 9.14648 8.14648C9.34175 7.95122 9.65825 7.95122 9.85352 8.14648L11.5 9.79297V3ZM21.5 18C21.5 19.3807 20.3807 20.5 19 20.5H5C3.61929 20.5 2.5 19.3807 2.5 18V13.3242C2.50002 13.1882 2.51121 13.0527 2.5332 12.9189C2.55463 12.7886 2.58605 12.6599 2.62793 12.5342L4.06934 8.20898C4.40968 7.18831 5.36547 6.50005 6.44141 6.5H7C7.27614 6.5 7.5 6.72386 7.5 7C7.5 7.27614 7.27614 7.5 7 7.5H6.44141C5.7959 7.50005 5.22279 7.91306 5.01855 8.52539L3.69434 12.5H7.17188C7.83481 12.5001 8.47068 12.7637 8.93945 13.2324L9.76758 14.0605C10.0488 14.3418 10.4304 14.4999 10.8281 14.5H13.1719C13.5696 14.4999 13.9512 14.3418 14.2324 14.0605L15.0605 13.2324C15.5293 12.7637 16.1652 12.5001 16.8281 12.5H20.3057L18.9814 8.52539C18.7772 7.91306 18.2041 7.50005 17.5586 7.5H17C16.7239 7.5 16.5 7.27614 16.5 7C16.5 6.72386 16.7239 6.5 17 6.5H17.5586C18.6345 6.50005 19.5903 7.18831 19.9307 8.20898L21.3721 12.5342C21.396 12.6061 21.4153 12.6793 21.4326 12.7529C21.4745 12.826 21.5 12.9097 21.5 13C21.5 13.0356 21.4953 13.0701 21.4883 13.1035C21.4948 13.1769 21.5 13.2504 21.5 13.3242V18Z" fill="black"/>
</svg>
