<svg width="24" height="24" viewBox="0 0 24 24" fill="none" xmlns="http://www.w3.org/2000/svg">
<path d="M20.5 13.5001H16.8281C16.4304 13.5002 16.0488 13.6583 15.7676 13.9395L14.9395 14.7677C14.4707 15.2364 13.8348 15.5 13.1719 15.5001H10.8281C10.1652 15.5 9.52932 15.2364 9.06055 14.7677L8.23242 13.9395C7.95119 13.6583 7.56959 13.5002 7.17188 13.5001H3.5V18.0001C3.50004 18.8285 4.1716 19.5001 5 19.5001H19C19.8284 19.5001 20.5 18.8285 20.5 18.0001V13.5001ZM11.5 10.0001V3.20711L9.85352 4.85359C9.65826 5.0488 9.34174 5.0488 9.14648 4.85359C8.95123 4.65834 8.95126 4.34183 9.14648 4.14656L11.293 2.00008C11.6835 1.60955 12.3165 1.60955 12.707 2.00008L14.8535 4.14656C15.0487 4.34183 15.0488 4.65834 14.8535 4.85359C14.6583 5.0488 14.3417 5.0488 14.1465 4.85359L12.5 3.20711V10.0001C12.5 10.2762 12.2761 10.5001 12 10.5001C11.7239 10.5001 11.5 10.2762 11.5 10.0001ZM21.5 18.0001C21.5 19.3808 20.3807 20.5001 19 20.5001H5C3.61931 20.5001 2.50004 19.3808 2.5 18.0001V13.3243C2.50001 13.1883 2.51121 13.0528 2.5332 12.919C2.55463 12.7887 2.58606 12.6599 2.62793 12.5343L4.06934 8.20906C4.40966 7.18835 5.36544 6.50012 6.44141 6.50008H7C7.27614 6.50008 7.5 6.72393 7.5 7.00008C7.49996 7.27618 7.27612 7.50008 7 7.50008H6.44141C5.79587 7.50012 5.22277 7.91309 5.01855 8.52547L3.69434 12.5001H7.17188C7.83481 12.5002 8.47068 12.7637 8.93945 13.2325L9.76758 14.0606C10.0488 14.3419 10.4304 14.5 10.8281 14.5001H13.1719C13.5696 14.5 13.9512 14.3419 14.2324 14.0606L15.0605 13.2325C15.5293 12.7637 16.1652 12.5002 16.8281 12.5001H20.3057L18.9814 8.52547C18.7772 7.9131 18.2041 7.50012 17.5586 7.50008H17C16.7239 7.50008 16.5 7.27618 16.5 7.00008C16.5 6.72393 16.7239 6.50008 17 6.50008H17.5586C18.6346 6.50012 19.5903 7.18835 19.9307 8.20906L21.3721 12.5343C21.396 12.6062 21.4153 12.6794 21.4326 12.753C21.4744 12.8261 21.5 12.9099 21.5 13.0001C21.5 13.0356 21.4953 13.0701 21.4883 13.1036C21.4948 13.1769 21.5 13.2505 21.5 13.3243V18.0001Z" fill="black"/>
</svg>
