<svg width="24" height="24" viewBox="0 0 24 24" fill="none" xmlns="http://www.w3.org/2000/svg">
<path d="M20.5 13.5H16.8281C16.4304 13.5001 16.0488 13.6582 15.7676 13.9395L14.9395 14.7676C14.4707 15.2363 13.8348 15.4999 13.1719 15.5H10.8281C10.1652 15.4999 9.52932 15.2363 9.06055 14.7676L8.23242 13.9395C7.95119 13.6582 7.56959 13.5001 7.17188 13.5H3.5V18C3.5 18.8284 4.17157 19.5 5 19.5H19C19.8284 19.5 20.5 18.8284 20.5 18V13.5ZM6.60449 4.5C5.90144 4.5 5.29216 4.9885 5.13965 5.6748L3.62402 12.5H7.17188C7.83481 12.5001 8.47068 12.7637 8.93945 13.2324L9.76758 14.0605C10.0488 14.3418 10.4304 14.4999 10.8281 14.5H13.1719C13.5696 14.4999 13.9512 14.3418 14.2324 14.0605L15.0605 13.2324C15.5293 12.7637 16.1652 12.5001 16.8281 12.5H20.376L18.8604 5.6748C18.7078 4.9885 18.0986 4.5 17.3955 4.5H6.60449ZM21.5 18C21.5 19.3807 20.3807 20.5 19 20.5H5C3.61929 20.5 2.5 19.3807 2.5 18V13.2197C2.5 13.0373 2.52 12.8548 2.55957 12.6768L4.16406 5.45801C4.41825 4.31416 5.43275 3.5 6.60449 3.5H17.3955C18.5673 3.5 19.5818 4.31416 19.8359 5.45801L21.4404 12.6768C21.48 12.8548 21.5 13.0373 21.5 13.2197V18Z" fill="black"/>
</svg>
