<svg width="24" height="24" viewBox="0 0 24 24" fill="none" xmlns="http://www.w3.org/2000/svg">
<path d="M10.1903 2.79159C10.7874 2.72637 11.1787 3.38659 10.8885 3.89315L10.6834 4.25155C7.04799 10.5966 14.0562 17.7093 20.4539 14.1676L20.5604 14.1187C21.0966 13.9237 21.7122 14.409 21.5028 15.0328C19.918 19.751 14.9143 22.4822 10.0409 21.1764C4.97328 19.8183 1.96635 14.6093 3.32405 9.54159C4.23693 6.13468 6.89054 3.65943 10.0692 2.81503L10.1903 2.79159ZM9.69319 3.97616C7.13149 4.87494 5.04508 6.9819 4.28987 9.80038C3.07507 14.3347 5.76626 18.9956 10.3006 20.2105C14.4329 21.3175 18.6683 19.1795 20.3065 15.3599C13.2794 18.5729 5.95237 10.9331 9.69319 3.97616Z" fill="black"/>
</svg>
