<svg width="24" height="24" viewBox="0 0 24 24" fill="none" xmlns="http://www.w3.org/2000/svg">
<path d="M20.5 5C20.5 4.17157 19.8284 3.5 19 3.5H5C4.17157 3.5 3.5 4.17157 3.5 5V19C3.5 19.8284 4.17157 20.5 5 20.5H19C19.8284 20.5 20.5 19.8284 20.5 19V5ZM6.5 17V16C6.5 15.7239 6.72386 15.5 7 15.5C7.27614 15.5 7.5 15.7239 7.5 16V17C7.5 17.2761 7.27614 17.5 7 17.5C6.72386 17.5 6.5 17.2761 6.5 17ZM16.5 17V16C16.5 15.7239 16.7239 15.5 17 15.5C17.2761 15.5 17.5 15.7239 17.5 16V17C17.5 17.2761 17.2761 17.5 17 17.5C16.7239 17.5 16.5 17.2761 16.5 17ZM6.5 12.5V11.5C6.5 11.2239 6.72386 11 7 11C7.27614 11 7.5 11.2239 7.5 11.5V12.5C7.5 12.7761 7.27614 13 7 13C6.72386 13 6.5 12.7761 6.5 12.5ZM16.5 12.5V11.5C16.5 11.2239 16.7239 11 17 11C17.2761 11 17.5 11.2239 17.5 11.5V12.5C17.5 12.7761 17.2761 13 17 13C16.7239 13 16.5 12.7761 16.5 12.5ZM6.5 8V7C6.5 6.72386 6.72386 6.5 7 6.5C7.27614 6.5 7.5 6.72386 7.5 7V8C7.5 8.27614 7.27614 8.5 7 8.5C6.72386 8.5 6.5 8.27614 6.5 8ZM16.5 8V7C16.5 6.72386 16.7239 6.5 17 6.5C17.2761 6.5 17.5 6.72386 17.5 7V8C17.5 8.27614 17.2761 8.5 17 8.5C16.7239 8.5 16.5 8.27614 16.5 8ZM21.5 19C21.5 20.3807 20.3807 21.5 19 21.5H5C3.61929 21.5 2.5 20.3807 2.5 19V5C2.5 3.61929 3.61929 2.5 5 2.5H19C20.3807 2.5 21.5 3.61929 21.5 5V19Z" fill="black"/>
</svg>
