<svg width="24" height="24" viewBox="0 0 24 24" fill="none" xmlns="http://www.w3.org/2000/svg">
<path d="M20.5 5C20.5 4.17157 19.8284 3.5 19 3.5H5C4.17157 3.5 3.5 4.17157 3.5 5V19C3.5 19.8284 4.17157 20.5 5 20.5H19C19.8284 20.5 20.5 19.8284 20.5 19V5ZM8.5 17V16C8.5 15.7239 8.72386 15.5 9 15.5C9.27614 15.5 9.5 15.7239 9.5 16V17C9.5 17.2761 9.27614 17.5 9 17.5C8.72386 17.5 8.5 17.2761 8.5 17ZM8.5 12.5V11.5C8.5 11.2239 8.72386 11 9 11C9.27614 11 9.5 11.2239 9.5 11.5V12.5C9.5 12.7761 9.27614 13 9 13C8.72386 13 8.5 12.7761 8.5 12.5ZM8.5 8V7C8.5 6.72386 8.72386 6.5 9 6.5C9.27614 6.5 9.5 6.72386 9.5 7V8C9.5 8.27614 9.27614 8.5 9 8.5C8.72386 8.5 8.5 8.27614 8.5 8ZM21.5 19C21.5 20.3807 20.3807 21.5 19 21.5H5C3.61929 21.5 2.5 20.3807 2.5 19V5C2.5 3.61929 3.61929 2.5 5 2.5H19C20.3807 2.5 21.5 3.61929 21.5 5V19Z" fill="black"/>
</svg>
