<svg width="24" height="24" viewBox="0 0 24 24" fill="none" xmlns="http://www.w3.org/2000/svg">
<path d="M5 3.5C4.17157 3.5 3.5 4.17157 3.5 5V19C3.5 19.8284 4.17157 20.5 5 20.5H19C19.8284 20.5 20.5 19.8284 20.5 19V5C20.5 4.17157 19.8284 3.5 19 3.5H5ZM17 17.5H16C15.7239 17.5 15.5 17.2761 15.5 17C15.5 16.7239 15.7239 16.5 16 16.5H17C17.2761 16.5 17.5 16.7239 17.5 17C17.5 17.2761 17.2761 17.5 17 17.5ZM17 7.5H16C15.7239 7.5 15.5 7.27614 15.5 7C15.5 6.72386 15.7239 6.5 16 6.5H17C17.2761 6.5 17.5 6.72386 17.5 7C17.5 7.27614 17.2761 7.5 17 7.5ZM12.5 17.5H11.5C11.2239 17.5 11 17.2761 11 17C11 16.7239 11.2239 16.5 11.5 16.5H12.5C12.7761 16.5 13 16.7239 13 17C13 17.2761 12.7761 17.5 12.5 17.5ZM12.5 7.5H11.5C11.2239 7.5 11 7.27614 11 7C11 6.72386 11.2239 6.5 11.5 6.5H12.5C12.7761 6.5 13 6.72386 13 7C13 7.27614 12.7761 7.5 12.5 7.5ZM8 17.5H7C6.72386 17.5 6.5 17.2761 6.5 17C6.5 16.7239 6.72386 16.5 7 16.5H8C8.27614 16.5 8.5 16.7239 8.5 17C8.5 17.2761 8.27614 17.5 8 17.5ZM8 7.5H7C6.72386 7.5 6.5 7.27614 6.5 7C6.5 6.72386 6.72386 6.5 7 6.5H8C8.27614 6.5 8.5 6.72386 8.5 7C8.5 7.27614 8.27614 7.5 8 7.5ZM19 2.5C20.3807 2.5 21.5 3.61929 21.5 5V19C21.5 20.3807 20.3807 21.5 19 21.5H5C3.61929 21.5 2.5 20.3807 2.5 19V5C2.5 3.61929 3.61929 2.5 5 2.5H19Z" fill="black"/>
</svg>
