<svg width="24" height="24" viewBox="0 0 24 24" fill="none" xmlns="http://www.w3.org/2000/svg">
<path d="M19 3.5C19.8284 3.5 20.5 4.17157 20.5 5V19C20.5 19.8284 19.8284 20.5 19 20.5H5C4.17157 20.5 3.5 19.8284 3.5 19V5C3.5 4.17157 4.17157 3.5 5 3.5H19ZM7 15.5H8C8.27614 15.5 8.5 15.2761 8.5 15C8.5 14.7239 8.27614 14.5 8 14.5H7C6.72386 14.5 6.5 14.7239 6.5 15C6.5 15.2761 6.72386 15.5 7 15.5ZM11.5 15.5H12.5C12.7761 15.5 13 15.2761 13 15C13 14.7239 12.7761 14.5 12.5 14.5H11.5C11.2239 14.5 11 14.7239 11 15C11 15.2761 11.2239 15.5 11.5 15.5ZM16 15.5H17C17.2761 15.5 17.5 15.2761 17.5 15C17.5 14.7239 17.2761 14.5 17 14.5H16C15.7239 14.5 15.5 14.7239 15.5 15C15.5 15.2761 15.7239 15.5 16 15.5ZM5 2.5C3.61929 2.5 2.5 3.61929 2.5 5V19C2.5 20.3807 3.61929 21.5 5 21.5H19C20.3807 21.5 21.5 20.3807 21.5 19V5C21.5 3.61929 20.3807 2.5 19 2.5H5Z" fill="black"/>
</svg>
