<svg width="24" height="24" viewBox="0 0 24 24" fill="none" xmlns="http://www.w3.org/2000/svg">
<path d="M3.5 5C3.5 4.17157 4.17157 3.5 5 3.5H19C19.8284 3.5 20.5 4.17157 20.5 5V19C20.5 19.8284 19.8284 20.5 19 20.5H5C4.17157 20.5 3.5 19.8284 3.5 19V5ZM15.5 17V16C15.5 15.7239 15.2761 15.5 15 15.5C14.7239 15.5 14.5 15.7239 14.5 16V17C14.5 17.2761 14.7239 17.5 15 17.5C15.2761 17.5 15.5 17.2761 15.5 17ZM15.5 12.5V11.5C15.5 11.2239 15.2761 11 15 11C14.7239 11 14.5 11.2239 14.5 11.5V12.5C14.5 12.7761 14.7239 13 15 13C15.2761 13 15.5 12.7761 15.5 12.5ZM15.5 8V7C15.5 6.72386 15.2761 6.5 15 6.5C14.7239 6.5 14.5 6.72386 14.5 7V8C14.5 8.27614 14.7239 8.5 15 8.5C15.2761 8.5 15.5 8.27614 15.5 8ZM2.5 19C2.5 20.3807 3.61929 21.5 5 21.5H19C20.3807 21.5 21.5 20.3807 21.5 19V5C21.5 3.61929 20.3807 2.5 19 2.5H5C3.61929 2.5 2.5 3.61929 2.5 5V19Z" fill="black"/>
</svg>
