<svg width="24" height="24" viewBox="0 0 24 24" fill="none" xmlns="http://www.w3.org/2000/svg">
<path d="M19 20.5C19.8284 20.5 20.5 19.8284 20.5 19V5C20.5 4.17157 19.8284 3.5 19 3.5H5C4.17157 3.5 3.5 4.17157 3.5 5V19C3.5 19.8284 4.17157 20.5 5 20.5H19ZM7 8.5H8C8.27614 8.5 8.5 8.72386 8.5 9C8.5 9.27614 8.27614 9.5 8 9.5H7C6.72386 9.5 6.5 9.27614 6.5 9C6.5 8.72386 6.72386 8.5 7 8.5ZM11.5 8.5H12.5C12.7761 8.5 13 8.72386 13 9C13 9.27614 12.7761 9.5 12.5 9.5H11.5C11.2239 9.5 11 9.27614 11 9C11 8.72386 11.2239 8.5 11.5 8.5ZM16 8.5H17C17.2761 8.5 17.5 8.72386 17.5 9C17.5 9.27614 17.2761 9.5 17 9.5H16C15.7239 9.5 15.5 9.27614 15.5 9C15.5 8.72386 15.7239 8.5 16 8.5ZM5 21.5C3.61929 21.5 2.5 20.3807 2.5 19V5C2.5 3.61929 3.61929 2.5 5 2.5H19C20.3807 2.5 21.5 3.61929 21.5 5V19C21.5 20.3807 20.3807 21.5 19 21.5H5Z" fill="black"/>
</svg>
