<svg width="24" height="24" viewBox="0 0 24 24" fill="none" xmlns="http://www.w3.org/2000/svg">
<path d="M14.6465 16.6465C14.8417 16.4512 15.1583 16.4512 15.3535 16.6465C15.5488 16.8417 15.5488 17.1583 15.3535 17.3535L11.5303 21.1768C11.2374 21.4696 10.7626 21.4696 10.4697 21.1768L8.64648 19.3535C8.45122 19.1583 8.45122 18.8417 8.64648 18.6465C8.84175 18.4512 9.15825 18.4512 9.35352 18.6465L11 20.293L14.6465 16.6465ZM20.5 13V11C20.5 10.7239 20.2761 10.5 20 10.5H4C3.72386 10.5 3.5 10.7239 3.5 11V13C3.5 13.2761 3.72386 13.5 4 13.5H11C11.2761 13.5 11.5 13.7239 11.5 14C11.5 14.2761 11.2761 14.5 11 14.5H4C3.17157 14.5 2.5 13.8284 2.5 13V11C2.5 10.1716 3.17157 9.5 4 9.5H20C20.8284 9.5 21.5 10.1716 21.5 11V13C21.5 13.8284 20.8284 14.5 20 14.5H19C18.7239 14.5 18.5 14.2761 18.5 14C18.5 13.7239 18.7239 13.5 19 13.5H20C20.2761 13.5 20.5 13.2761 20.5 13ZM20.5 4C20.5 3.72386 20.2761 3.5 20 3.5H4C3.72386 3.5 3.5 3.72386 3.5 4V6C3.5 6.27614 3.72386 6.5 4 6.5H20C20.2761 6.5 20.5 6.27614 20.5 6V4ZM21.5 6C21.5 6.82843 20.8284 7.5 20 7.5H4C3.17157 7.5 2.5 6.82843 2.5 6V4C2.5 3.17157 3.17157 2.5 4 2.5H20C20.8284 2.5 21.5 3.17157 21.5 4V6Z" fill="black"/>
</svg>
