<svg width="24" height="24" viewBox="0 0 24 24" fill="none" xmlns="http://www.w3.org/2000/svg">
<path d="M3.5 19V10.5C3.5 9.11933 4.61929 8.00005 6 8.00005H8C8.27614 8.00005 8.5 8.2239 8.5 8.50005C8.49996 8.77615 8.27612 9.00005 8 9.00005H6C5.17157 9.00005 4.5 9.67162 4.5 10.5V19C4.50004 19.8284 5.1716 20.5 6 20.5H18C18.8284 20.5 19.5 19.8284 19.5 19V10.5C19.5 9.67162 18.8284 9.00005 18 9.00005H16C15.7239 9.00005 15.5 8.77615 15.5 8.50005C15.5 8.2239 15.7239 8.00005 16 8.00005H18C19.3807 8.00005 20.5 9.11933 20.5 10.5V19C20.5 20.3807 19.3807 21.5 18 21.5H6C4.61931 21.5 3.50004 20.3807 3.5 19ZM11.5 16V3.20708L9.35352 5.35356C9.15826 5.54877 8.84174 5.54877 8.64648 5.35356C8.45123 5.15831 8.45126 4.8418 8.64648 4.64653L11.293 2.00005C11.6835 1.60952 12.3165 1.60952 12.707 2.00005L15.3535 4.64653C15.5487 4.8418 15.5488 5.15831 15.3535 5.35356C15.1583 5.54877 14.8417 5.54877 14.6465 5.35356L12.5 3.20708V16C12.5 16.2762 12.2761 16.5 12 16.5C11.7239 16.5 11.5 16.2762 11.5 16Z" fill="black"/>
</svg>
