<svg width="24" height="24" viewBox="0 0 24 24" fill="none" xmlns="http://www.w3.org/2000/svg">
<path d="M16 15.5C17.2108 15.5 18.22 16.3609 18.4502 17.5039C18.4666 17.5023 18.4831 17.5 18.5 17.5H20C20.2761 17.5 20.5 17.7239 20.5 18C20.5 18.2761 20.2761 18.5 20 18.5H18.5C18.4831 18.5 18.4667 18.4968 18.4502 18.4951C18.2204 19.6386 17.2112 20.5 16 20.5C14.7888 20.5 13.7786 19.6387 13.5488 18.4951C13.5327 18.4967 13.5166 18.5 13.5 18.5H4C3.72386 18.5 3.5 18.2761 3.5 18C3.5 17.7239 3.72386 17.5 4 17.5H13.5C13.5165 17.5 13.5327 17.5023 13.5488 17.5039C13.7789 16.3608 14.7891 15.5 16 15.5ZM16 16.5C15.1716 16.5 14.5 17.1716 14.5 18C14.5 18.8284 15.1716 19.5 16 19.5C16.8284 19.5 17.5 18.8284 17.5 18C17.5 17.1716 16.8284 16.5 16 16.5ZM8 9.5C9.21082 9.5 10.22 10.3609 10.4502 11.5039C10.4666 11.5023 10.4831 11.5 10.5 11.5H20C20.2761 11.5 20.5 11.7239 20.5 12C20.5 12.2761 20.2761 12.5 20 12.5H10.5C10.4831 12.5 10.4667 12.4968 10.4502 12.4951C10.2204 13.6386 9.21115 14.5 8 14.5C6.78878 14.5 5.77856 13.6387 5.54883 12.4951C5.53268 12.4967 5.51656 12.5 5.5 12.5H4C3.72386 12.5 3.5 12.2761 3.5 12C3.5 11.7239 3.72386 11.5 4 11.5H5.5C5.51653 11.5 5.53271 11.5023 5.54883 11.5039C5.77892 10.3608 6.78911 9.5 8 9.5ZM8 10.5C7.17157 10.5 6.5 11.1716 6.5 12C6.5 12.8284 7.17157 13.5 8 13.5C8.82843 13.5 9.5 12.8284 9.5 12C9.5 11.1716 8.82843 10.5 8 10.5ZM14 3.5C15.2108 3.5 16.22 4.3609 16.4502 5.50391C16.4666 5.50228 16.4831 5.5 16.5 5.5H20C20.2761 5.5 20.5 5.72386 20.5 6C20.5 6.27614 20.2761 6.5 20 6.5H16.5C16.4831 6.5 16.4667 6.49675 16.4502 6.49512C16.2204 7.63859 15.2112 8.5 14 8.5C12.7888 8.5 11.7786 7.63869 11.5488 6.49512C11.5327 6.49669 11.5166 6.5 11.5 6.5H4C3.72386 6.5 3.5 6.27614 3.5 6C3.5 5.72386 3.72386 5.5 4 5.5H11.5C11.5165 5.5 11.5327 5.50234 11.5488 5.50391C11.7789 4.3608 12.7891 3.5 14 3.5ZM14 4.5C13.1716 4.5 12.5 5.17157 12.5 6C12.5 6.82843 13.1716 7.5 14 7.5C14.8284 7.5 15.5 6.82843 15.5 6C15.5 5.17157 14.8284 4.5 14 4.5Z" fill="black"/>
</svg>
