<svg width="24" height="24" viewBox="0 0 24 24" fill="none" xmlns="http://www.w3.org/2000/svg">
<path d="M15.5 8C15.5 6.78918 16.3609 5.77997 17.5039 5.5498C17.5023 5.53338 17.5 5.51686 17.5 5.5V4C17.5 3.72386 17.7239 3.5 18 3.5C18.2761 3.5 18.5 3.72386 18.5 4V5.5C18.5 5.51689 18.4968 5.53334 18.4951 5.5498C19.6386 5.77961 20.5 6.78885 20.5 8C20.5 9.21122 19.6387 10.2214 18.4951 10.4512C18.4967 10.4673 18.5 10.4834 18.5 10.5V20C18.5 20.2761 18.2761 20.5 18 20.5C17.7239 20.5 17.5 20.2761 17.5 20V10.5C17.5 10.4835 17.5023 10.4673 17.5039 10.4512C16.3608 10.2211 15.5 9.21089 15.5 8ZM16.5 8C16.5 8.82843 17.1716 9.5 18 9.5C18.8284 9.5 19.5 8.82843 19.5 8C19.5 7.17157 18.8284 6.5 18 6.5C17.1716 6.5 16.5 7.17157 16.5 8ZM9.5 16C9.5 14.7892 10.3609 13.78 11.5039 13.5498C11.5023 13.5334 11.5 13.5169 11.5 13.5V4C11.5 3.72386 11.7239 3.5 12 3.5C12.2761 3.5 12.5 3.72386 12.5 4V13.5C12.5 13.5169 12.4968 13.5333 12.4951 13.5498C13.6386 13.7796 14.5 14.7888 14.5 16C14.5 17.2112 13.6387 18.2214 12.4951 18.4512C12.4967 18.4673 12.5 18.4834 12.5 18.5V20C12.5 20.2761 12.2761 20.5 12 20.5C11.7239 20.5 11.5 20.2761 11.5 20V18.5C11.5 18.4835 11.5023 18.4673 11.5039 18.4512C10.3608 18.2211 9.5 17.2109 9.5 16ZM10.5 16C10.5 16.8284 11.1716 17.5 12 17.5C12.8284 17.5 13.5 16.8284 13.5 16C13.5 15.1716 12.8284 14.5 12 14.5C11.1716 14.5 10.5 15.1716 10.5 16ZM3.5 10C3.5 8.78918 4.3609 7.77997 5.50391 7.5498C5.50228 7.53338 5.5 7.51686 5.5 7.5V4C5.5 3.72386 5.72386 3.5 6 3.5C6.27614 3.5 6.5 3.72386 6.5 4V7.5C6.5 7.51689 6.49675 7.53335 6.49512 7.5498C7.63859 7.77961 8.5 8.78885 8.5 10C8.5 11.2112 7.63869 12.2214 6.49512 12.4512C6.49669 12.4673 6.5 12.4834 6.5 12.5V20C6.5 20.2761 6.27614 20.5 6 20.5C5.72386 20.5 5.5 20.2761 5.5 20V12.5C5.5 12.4835 5.50234 12.4673 5.50391 12.4512C4.3608 12.2211 3.5 11.2109 3.5 10ZM4.5 10C4.5 10.8284 5.17157 11.5 6 11.5C6.82843 11.5 7.5 10.8284 7.5 10C7.5 9.17157 6.82843 8.5 6 8.5C5.17157 8.5 4.5 9.17157 4.5 10Z" fill="black"/>
</svg>
