<svg width="24" height="24" viewBox="0 0 24 24" fill="none" xmlns="http://www.w3.org/2000/svg">
<path d="M2.5 20V19.1113C2.5 18.8352 2.72386 18.6113 3 18.6113C3.27614 18.6113 3.5 18.8352 3.5 19.1113V20C3.5 20.2761 3.72386 20.5 4 20.5H4.88867C5.16481 20.5 5.38867 20.7239 5.38867 21C5.38867 21.2761 5.16481 21.5 4.88867 21.5H4C3.17157 21.5 2.5 20.8284 2.5 20ZM10.2227 20.5C10.4986 20.5002 10.7227 20.724 10.7227 21C10.7227 21.276 10.4986 21.4998 10.2227 21.5H8.44434C8.16824 21.4999 7.94434 21.2761 7.94434 21C7.94434 20.7239 8.16824 20.5001 8.44434 20.5H10.2227ZM15.5557 20.5C15.8318 20.5001 16.0557 20.7239 16.0557 21C16.0557 21.2761 15.8318 21.4999 15.5557 21.5H13.7773C13.5014 21.4998 13.2773 21.276 13.2773 21C13.2773 20.724 13.5014 20.5002 13.7773 20.5H15.5557ZM20.5 20V19.1113C20.5 18.8352 20.7239 18.6113 21 18.6113C21.2761 18.6113 21.5 18.8352 21.5 19.1113V20C21.5 20.8284 20.8284 21.5 20 21.5H19.1113C18.8352 21.5 18.6113 21.2761 18.6113 21C18.6113 20.7239 18.8352 20.5 19.1113 20.5H20C20.2761 20.5 20.5 20.2761 20.5 20ZM2.5 15.5557V13.7773C2.50023 13.5014 2.724 13.2773 3 13.2773C3.276 13.2773 3.49977 13.5014 3.5 13.7773V15.5557C3.49994 15.8318 3.27611 16.0557 3 16.0557C2.72389 16.0557 2.50006 15.8318 2.5 15.5557ZM20.5 15.5557V13.7773C20.5002 13.5014 20.724 13.2773 21 13.2773C21.276 13.2773 21.4998 13.5014 21.5 13.7773V15.5557C21.4999 15.8318 21.2761 16.0557 21 16.0557C20.7239 16.0557 20.5001 15.8318 20.5 15.5557ZM2.5 10.2227V8.44434C2.50006 8.16824 2.72389 7.94434 3 7.94434C3.27611 7.94434 3.49994 8.16824 3.5 8.44434V10.2227C3.49977 10.4986 3.276 10.7227 3 10.7227C2.724 10.7227 2.50023 10.4986 2.5 10.2227ZM20.5 10.2227V8.44434C20.5001 8.16824 20.7239 7.94434 21 7.94434C21.2761 7.94434 21.4999 8.16824 21.5 8.44434V10.2227C21.4998 10.4986 21.276 10.7227 21 10.7227C20.724 10.7227 20.5002 10.4986 20.5 10.2227ZM2.5 4.88867V4C2.5 3.17157 3.17157 2.5 4 2.5H4.88867C5.16481 2.5 5.38867 2.72386 5.38867 3C5.38867 3.27614 5.16481 3.5 4.88867 3.5H4C3.72386 3.5 3.5 3.72386 3.5 4V4.88867C3.5 5.16481 3.27614 5.38867 3 5.38867C2.72386 5.38867 2.5 5.16481 2.5 4.88867ZM20.5 4.88867V4C20.5 3.72386 20.2761 3.5 20 3.5H19.1113C18.8352 3.5 18.6113 3.27614 18.6113 3C18.6113 2.72386 18.8352 2.5 19.1113 2.5H20C20.8284 2.5 21.5 3.17157 21.5 4V4.88867C21.5 5.16481 21.2761 5.38867 21 5.38867C20.7239 5.38867 20.5 5.16481 20.5 4.88867ZM10.2227 2.5C10.4986 2.50023 10.7227 2.724 10.7227 3C10.7227 3.276 10.4986 3.49977 10.2227 3.5H8.44434C8.16824 3.49994 7.94434 3.27611 7.94434 3C7.94434 2.72389 8.16824 2.50006 8.44434 2.5H10.2227ZM15.5557 2.5C15.8318 2.50006 16.0557 2.72389 16.0557 3C16.0557 3.27611 15.8318 3.49994 15.5557 3.5H13.7773C13.5014 3.49977 13.2773 3.276 13.2773 3C13.2773 2.724 13.5014 2.50023 13.7773 2.5H15.5557Z" fill="black"/>
</svg>
