<svg width="24" height="24" viewBox="0 0 24 24" fill="none" xmlns="http://www.w3.org/2000/svg">
<path d="M21 17.5C21.2761 17.5 21.5 17.7239 21.5 18C21.5 18.2761 21.2761 18.5 21 18.5H3C2.72386 18.5 2.5 18.2761 2.5 18C2.5 17.7239 2.72386 17.5 3 17.5H21ZM21 14C21.2761 14 21.5 14.2239 21.5 14.5V14.501C21.5 14.7771 21.2761 15.001 21 15.001H19.5C19.2239 15.001 19 14.7771 19 14.501V14.5C19 14.2239 19.2239 14 19.5 14H21ZM4.5 13.999C4.77614 13.999 5 14.2229 5 14.499V14.5C5 14.7761 4.77614 15 4.5 15H3C2.72386 15 2.5 14.7761 2.5 14.5V14.499C2.5 14.2229 2.72386 13.999 3 13.999H4.5ZM15.5 14.5C15.5 12.567 13.933 11 12 11C10.067 11 8.5 12.567 8.5 14.5C8.5 14.7761 8.27614 15 8 15C7.72386 15 7.5 14.7761 7.5 14.5C7.5 12.0147 9.51472 10 12 10C14.4853 10 16.5 12.0147 16.5 14.5C16.5 14.7761 16.2761 15 16 15C15.7239 15 15.5 14.7761 15.5 14.5ZM18.0107 7.78223C18.206 7.58717 18.5225 7.58716 18.7178 7.78223C18.9131 7.97738 18.9129 8.29391 18.7178 8.48926L17.6582 9.55078C17.5645 9.6446 17.4373 9.69716 17.3047 9.69727C17.1721 9.69733 17.045 9.64454 16.9512 9.55078H16.9502C16.8565 9.45714 16.8039 9.32973 16.8037 9.19727C16.8037 9.09766 16.8332 9.00057 16.8877 8.91895L16.9502 8.84277L18.0107 7.78223ZM5.2832 7.78223C5.47847 7.58696 5.79497 7.58696 5.99023 7.78223L7.05078 8.84277C7.24581 9.03805 7.24597 9.35462 7.05078 9.5498H7.0498C6.85454 9.74507 6.53804 9.74507 6.34277 9.5498L5.28223 8.48926C5.08711 8.29398 5.08701 7.97744 5.28223 7.78223H5.2832ZM11.5 7V5.5C11.5 5.22386 11.7239 5 12 5C12.2761 5 12.5 5.22386 12.5 5.5V7C12.5 7.27614 12.2761 7.5 12 7.5C11.7239 7.5 11.5 7.27614 11.5 7Z" fill="black"/>
</svg>
