<svg width="24" height="24" viewBox="0 0 24 24" fill="none" xmlns="http://www.w3.org/2000/svg">
<path d="M21 17.5001C21.2761 17.5001 21.5 17.7239 21.5 18.0001C21.5 18.2762 21.2761 18.5001 21 18.5001H3C2.72388 18.5001 2.50004 18.2762 2.5 18.0001C2.5 17.7239 2.72386 17.5001 3 17.5001H21ZM4.5 14.0001C4.77614 14.0001 5 14.2239 5 14.5001C4.99996 14.7762 4.77612 15.0001 4.5 15.0001H3C2.72388 15.0001 2.50004 14.7762 2.5 14.5001C2.5 14.2239 2.72386 14.0001 3 14.0001H4.5ZM15.5 14.5001C15.5 12.5671 13.933 11.0001 12 11.0001C10.067 11.0001 8.5 12.5671 8.5 14.5001C8.49996 14.7762 8.27612 15.0001 8 15.0001C7.72388 15.0001 7.50004 14.7762 7.5 14.5001C7.5 12.0148 9.51472 10.0001 12 10.0001C14.4853 10.0001 16.5 12.0148 16.5 14.5001C16.5 14.7762 16.2761 15.0001 16 15.0001C15.7239 15.0001 15.5 14.7762 15.5 14.5001ZM21 14.0001C21.2761 14.0001 21.5 14.2239 21.5 14.5001C21.5 14.7762 21.2761 15.0001 21 15.0001H19.5C19.2239 15.0001 19 14.7762 19 14.5001C19 14.2239 19.2239 14.0001 19.5 14.0001H21ZM5.28223 7.7823C5.47746 7.58719 5.79402 7.58719 5.98926 7.7823L7.0498 8.84285C7.24503 9.03807 7.24495 9.35461 7.0498 9.54988C6.85454 9.74514 6.53804 9.74514 6.34277 9.54988L5.28223 8.48933C5.08708 8.29406 5.087 7.97753 5.28223 7.7823ZM18.0098 7.7823C18.205 7.58704 18.5225 7.58704 18.7178 7.7823C18.9128 7.97746 18.9126 8.29409 18.7178 8.48933L17.6562 9.54988C17.461 9.74513 17.1445 9.74514 16.9492 9.54988C16.7543 9.3546 16.7541 9.03799 16.9492 8.84285L18.0098 7.7823ZM11.5 7.00008V3.20711L9.85352 4.85359C9.65826 5.0488 9.34174 5.0488 9.14648 4.85359C8.95123 4.65834 8.95126 4.34183 9.14648 4.14656L11.293 2.00008C11.6835 1.60955 12.3165 1.60955 12.707 2.00008L14.8535 4.14656C15.0487 4.34183 15.0488 4.65834 14.8535 4.85359C14.6583 5.0488 14.3417 5.0488 14.1465 4.85359L12.5 3.20711V7.00008C12.5 7.27618 12.2761 7.50008 12 7.50008C11.7239 7.50008 11.5 7.27618 11.5 7.00008Z" fill="black"/>
</svg>
