<svg width="24" height="24" viewBox="0 0 24 24" fill="none" xmlns="http://www.w3.org/2000/svg">
<path d="M21 17.5C21.2761 17.5 21.5 17.7239 21.5 18C21.5 18.2762 21.2761 18.5 21 18.5H3C2.72388 18.5 2.50004 18.2762 2.5 18C2.5 17.7239 2.72386 17.5 3 17.5H21ZM4.5 14C4.77614 14 5 14.2239 5 14.5C4.99996 14.7762 4.77612 15 4.5 15H3C2.72388 15 2.50004 14.7762 2.5 14.5C2.5 14.2239 2.72386 14 3 14H4.5ZM15.5 14.5C15.5 12.567 13.933 11 12 11C10.067 11 8.5 12.567 8.5 14.5C8.49996 14.7762 8.27612 15 8 15C7.72388 15 7.50004 14.7762 7.5 14.5C7.5 12.0148 9.51472 10 12 10C14.4853 10 16.5 12.0148 16.5 14.5C16.5 14.7762 16.2761 15 16 15C15.7239 15 15.5 14.7762 15.5 14.5ZM21 14C21.2761 14 21.5 14.2239 21.5 14.5C21.5 14.7762 21.2761 15 21 15H19.5C19.2239 15 19 14.7762 19 14.5C19 14.2239 19.2239 14 19.5 14H21ZM5.28223 7.78227C5.47746 7.58716 5.79402 7.58716 5.98926 7.78227L7.0498 8.84282C7.24503 9.03804 7.24495 9.35458 7.0498 9.54985C6.85454 9.74511 6.53804 9.74511 6.34277 9.54985L5.28223 8.4893C5.08708 8.29403 5.087 7.9775 5.28223 7.78227ZM18.0098 7.78227C18.205 7.58701 18.5225 7.58701 18.7178 7.78227C18.9128 7.97743 18.9126 8.29406 18.7178 8.4893L17.6562 9.54985C17.461 9.7451 17.1445 9.74511 16.9492 9.54985C16.7543 9.35457 16.7541 9.03796 16.9492 8.84282L18.0098 7.78227ZM11.5 7.00005V3.20708L9.85352 4.85356C9.65826 5.04877 9.34174 5.04877 9.14648 4.85356C8.95123 4.65831 8.95126 4.3418 9.14648 4.14653L11.293 2.00005C11.6835 1.60952 12.3165 1.60952 12.707 2.00005L14.8535 4.14653C15.0487 4.3418 15.0488 4.65831 14.8535 4.85356C14.6583 5.04877 14.3417 5.04877 14.1465 4.85356L12.5 3.20708V7.00005C12.5 7.27615 12.2761 7.50005 12 7.50005C11.7239 7.50005 11.5 7.27615 11.5 7.00005Z" fill="black"/>
</svg>
