<svg width="24" height="24" viewBox="0 0 24 24" fill="none" xmlns="http://www.w3.org/2000/svg">
<path d="M17.5 7V6.5H12.5V17.5H14C14.2761 17.5 14.5 17.7239 14.5 18C14.5 18.2761 14.2761 18.5 14 18.5H10C9.72386 18.5 9.5 18.2761 9.5 18C9.5 17.7239 9.72386 17.5 10 17.5H11.5V6.5H6.5V7C6.5 7.27614 6.27614 7.5 6 7.5C5.72386 7.5 5.5 7.27614 5.5 7V6.5C5.5 5.94772 5.94772 5.5 6.5 5.5H17.5C18.0523 5.5 18.5 5.94772 18.5 6.5V7C18.5 7.27614 18.2761 7.5 18 7.5C17.7239 7.5 17.5 7.27614 17.5 7Z" fill="black"/>
</svg>
