<svg width="24" height="24" viewBox="0 0 24 24" fill="none" xmlns="http://www.w3.org/2000/svg">
<path d="M2.06006 18.0949C2.20219 17.8583 2.50889 17.782 2.74561 17.924C2.98238 18.066 3.0595 18.3727 2.91748 18.6095L2.3833 19.5002H3.45166C3.7278 19.5002 3.95166 19.724 3.95166 20.0002C3.95159 20.2762 3.72775 20.5001 3.45166 20.5002H2.3833C1.60601 20.5002 1.12597 19.652 1.52588 18.9855L2.06006 18.0949ZM9.8628 19.5002C10.1389 19.5002 10.3628 19.724 10.3628 20.0002C10.3627 20.2762 10.1389 20.5002 9.8628 20.5002H7.72608C7.44999 20.5002 7.22616 20.2762 7.22608 20.0002C7.22608 19.724 7.44994 19.5002 7.72608 19.5002H9.8628ZM16.2739 19.5002C16.5501 19.5002 16.7739 19.724 16.7739 20.0002C16.7739 20.2762 16.55 20.5002 16.2739 20.5002H14.1372C13.8611 20.5002 13.6373 20.2762 13.6372 20.0002C13.6372 19.724 13.8611 19.5002 14.1372 19.5002H16.2739ZM21.2544 17.924C21.4911 17.782 21.7978 17.8583 21.9399 18.0949L22.4741 18.9855C22.874 19.652 22.394 20.5002 21.6167 20.5002H20.5483C20.2723 20.5001 20.0484 20.2762 20.0483 20.0002C20.0483 19.724 20.2722 19.5002 20.5483 19.5002H21.6167L21.0825 18.6095C20.9405 18.3727 21.0176 18.066 21.2544 17.924ZM5.26514 12.7521C5.40722 12.5153 5.71487 12.4391 5.95166 12.5812C6.18824 12.7234 6.26458 13.0301 6.12256 13.2668L5.0542 15.048C4.91205 15.2845 4.60534 15.3609 4.36866 15.2189C4.13193 15.0769 4.05485 14.7701 4.19678 14.5334L5.26514 12.7521ZM18.0483 12.5812C18.2851 12.4391 18.5928 12.5153 18.7349 12.7521L19.8032 14.5334C19.9452 14.7701 19.8681 15.0769 19.6314 15.2189C19.3947 15.3609 19.088 15.2845 18.9458 15.048L17.8774 13.2668C17.7354 13.0301 17.8118 12.7234 18.0483 12.5812ZM8.4712 7.40933C8.6133 7.17277 8.92005 7.09653 9.15674 7.23843C9.39351 7.38049 9.47063 7.6872 9.32862 7.92398L8.26026 9.70523C8.11816 9.94195 7.81049 10.0182 7.57373 9.87613C7.33729 9.73394 7.26085 9.42723 7.40284 9.19058L8.4712 7.40933ZM14.8433 7.23843C15.08 7.09653 15.3867 7.17277 15.5288 7.40933L16.5972 9.19058C16.7392 9.42723 16.6627 9.73394 16.4263 9.87613C16.1895 10.0182 15.8818 9.94195 15.7397 9.70523L14.6714 7.92398C14.5294 7.6872 14.6065 7.38049 14.8433 7.23843ZM11.1421 2.95718C11.5305 2.30985 12.4695 2.30984 12.8579 2.95718L13.3921 3.84781C13.534 4.08453 13.4568 4.39127 13.2202 4.53336C12.9835 4.67537 12.6768 4.59901 12.5347 4.36246L12.0005 3.47183L11.4653 4.36246C11.3232 4.59901 11.0165 4.67537 10.7798 4.53336C10.5432 4.39127 10.466 4.08453 10.6079 3.84781L11.1421 2.95718Z" fill="black"/>
</svg>
