<svg width="24" height="24" viewBox="0 0 24 24" fill="none" xmlns="http://www.w3.org/2000/svg">
<path d="M18.6465 4.64651C18.8417 4.45125 19.1583 4.45125 19.3535 4.64651C19.5488 4.84177 19.5488 5.15828 19.3535 5.35354L12.707 12L19.3535 18.6465C19.5488 18.8418 19.5488 19.1583 19.3535 19.3535C19.1583 19.5488 18.8417 19.5488 18.6465 19.3535L12 12.7071L5.35352 19.3535C5.15825 19.5488 4.84175 19.5488 4.64648 19.3535C4.45122 19.1583 4.45122 18.8418 4.64648 18.6465L11.293 12L4.64648 5.35354C4.45122 5.15828 4.45122 4.84177 4.64648 4.64651C4.84175 4.45125 5.15825 4.45125 5.35352 4.64651L12 11.293L18.6465 4.64651Z" fill="black"/>
</svg>
