<svg width="24" height="24" viewBox="0 0 24 24" fill="none" xmlns="http://www.w3.org/2000/svg">
<path d="M2.5 12C2.5 11.7239 2.72386 11.5 3 11.5H21C21.2761 11.5 21.5 11.7239 21.5 12C21.5 12.2761 21.2761 12.5 21 12.5H3C2.72386 12.5 2.5 12.2761 2.5 12Z" fill="black"/>
<path d="M13.5 16.5C13.5 15.9477 13.9477 15.5 14.5 15.5H17.5C18.0523 15.5 18.5 15.9477 18.5 16.5V18.5C18.5 19.0523 18.0523 19.5 17.5 19.5H14.5C13.9477 19.5 13.5 19.0523 13.5 18.5V16.5Z" fill="black"/>
<path d="M13.5 5.5C13.5 4.94772 13.9477 4.5 14.5 4.5H17.5C18.0523 4.5 18.5 4.94772 18.5 5.5V7.5C18.5 8.05228 18.0523 8.5 17.5 8.5H14.5C13.9477 8.5 13.5 8.05228 13.5 7.5V5.5Z" fill="black"/>
<path d="M5.5 16.5C5.5 15.9477 5.94772 15.5 6.5 15.5H9.5C10.0523 15.5 10.5 15.9477 10.5 16.5V20.5C10.5 21.0523 10.0523 21.5 9.5 21.5H6.5C5.94772 21.5 5.5 21.0523 5.5 20.5V16.5Z" fill="black"/>
<path d="M5.5 3.5C5.5 2.94772 5.94772 2.5 6.5 2.5H9.5C10.0523 2.5 10.5 2.94772 10.5 3.5V7.5C10.5 8.05228 10.0523 8.5 9.5 8.5H6.5C5.94772 8.5 5.5 8.05228 5.5 7.5V3.5Z" fill="black"/>
</svg>
