<svg width="24" height="24" viewBox="0 0 24 24" fill="none" xmlns="http://www.w3.org/2000/svg">
<path fill-rule="evenodd" clip-rule="evenodd" d="M19 2.5C20.3807 2.5 21.5 3.61929 21.5 5V19C21.5 20.3807 20.3807 21.5 19 21.5H5C3.61929 21.5 2.5 20.3807 2.5 19V5C2.5 3.61929 3.61929 2.5 5 2.5H19ZM9.90918 5.70508C9.8146 5.44587 9.52789 5.31289 9.26855 5.40723L6.41602 6.44531C5.89709 6.63422 5.62951 7.20761 5.81836 7.72656L6.85645 10.5791C6.9509 10.8385 7.23762 10.9723 7.49707 10.8779C7.7565 10.7835 7.89023 10.4967 7.7959 10.2373L7.02148 8.11035C11.2408 9.42528 14.5711 12.7551 15.8877 16.9736L13.7715 16.2041C13.512 16.1097 13.2253 16.2434 13.1309 16.5029C13.0365 16.7624 13.1702 17.0491 13.4297 17.1436L16.2822 18.1816C16.8011 18.3703 17.3746 18.1028 17.5635 17.584L18.6016 14.7314C18.6959 14.472 18.5622 14.1853 18.3027 14.0908C18.0433 13.9964 17.7565 14.1302 17.6621 14.3896L16.8359 16.6572C15.4213 12.1459 11.8642 8.58531 7.35449 7.16699L9.61035 6.34668C9.86984 6.25223 10.0036 5.96457 9.90918 5.70508Z" fill="black"/>
</svg>
