<svg width="24" height="24" viewBox="0 0 24 24" fill="none" xmlns="http://www.w3.org/2000/svg">
<path d="M19 2.5C20.3807 2.5 21.5 3.61929 21.5 5V19C21.5 20.3807 20.3807 21.5 19 21.5H5C3.61929 21.5 2.5 20.3807 2.5 19V5C2.5 3.61929 3.61929 2.5 5 2.5H19ZM7 6.5C6.72386 6.5 6.5 6.72386 6.5 7C6.5 7.27614 6.72386 7.5 7 7.5C7.27614 7.5 7.50098 7.27614 7.50098 7C7.50098 6.72386 7.27614 6.5 7 6.5ZM10 6.5C9.72386 6.5 9.5 6.72386 9.5 7C9.5 7.27614 9.72386 7.5 10 7.5C10.2761 7.5 10.501 7.27614 10.501 7C10.501 6.72386 10.2761 6.5 10 6.5ZM13 6.5C12.7239 6.5 12.5 6.72386 12.5 7C12.5 7.27614 12.7239 7.5 13 7.5H17C17.2761 7.5 17.5 7.27614 17.5 7C17.5 6.72386 17.2761 6.5 17 6.5H13Z" fill="black"/>
</svg>
