<svg width="24" height="24" viewBox="0 0 24 24" fill="none" xmlns="http://www.w3.org/2000/svg">
<path fill-rule="evenodd" clip-rule="evenodd" d="M20 2.5C20.8284 2.5 21.5 3.17157 21.5 4V6C21.5 6.65281 21.0822 7.20597 20.5 7.41211V19C20.5 20.3807 19.3807 21.5 18 21.5H6C4.61929 21.5 3.5 20.3807 3.5 19V7.41211C2.91782 7.20597 2.5 6.65281 2.5 6V4C2.5 3.17157 3.17157 2.5 4 2.5H20ZM14.4756 11.5254C14.2803 11.3301 13.9628 11.3301 13.7676 11.5254L12 13.292L10.2324 11.5254C10.0372 11.3301 9.72065 11.3301 9.52539 11.5254C9.33024 11.7207 9.33016 12.0372 9.52539 12.2324L11.293 14L9.52539 15.7676C9.33016 15.9628 9.33024 16.2793 9.52539 16.4746C9.72065 16.6699 10.0372 16.6699 10.2324 16.4746L12 14.707L13.7676 16.4746C13.9628 16.6699 14.2803 16.6699 14.4756 16.4746C14.6704 16.2794 14.6706 15.9627 14.4756 15.7676L12.707 14L14.4756 12.2324C14.6706 12.0373 14.6704 11.7206 14.4756 11.5254ZM4 3.5C3.72386 3.5 3.5 3.72386 3.5 4V6C3.5 6.27614 3.72386 6.5 4 6.5H20C20.2761 6.5 20.5 6.27614 20.5 6V4C20.5 3.72386 20.2761 3.5 20 3.5H4Z" fill="black"/>
</svg>
