<svg width="24" height="24" viewBox="0 0 24 24" fill="none" xmlns="http://www.w3.org/2000/svg">
<path d="M21.5 12C21.5 17.2467 17.2467 21.5 12 21.5C6.75329 21.5 2.5 17.2467 2.5 12C2.5 6.75329 6.75329 2.5 12 2.5C17.2467 2.5 21.5 6.75329 21.5 12ZM16.3535 13.3535C16.5488 13.1583 16.5488 12.8417 16.3535 12.6465C16.1583 12.4512 15.8417 12.4512 15.6465 12.6465L12.5 15.793V7C12.5 6.72386 12.2761 6.5 12 6.5C11.7239 6.5 11.5 6.72386 11.5 7V15.793L8.35352 12.6465C8.15825 12.4512 7.84175 12.4512 7.64648 12.6465C7.45122 12.8417 7.45122 13.1583 7.64648 13.3535L11.293 17C11.6835 17.3905 12.3165 17.3905 12.707 17L16.3535 13.3535Z" fill="black"/>
</svg>
