<svg width="24" height="24" viewBox="0 0 24 24" fill="none" xmlns="http://www.w3.org/2000/svg">
<path d="M5.28249 5.28249C8.99247 1.5725 15.0075 1.5725 18.7175 5.28249C22.4275 8.99247 22.4275 15.0075 18.7175 18.7175C15.0075 22.4275 8.99247 22.4275 5.28249 18.7175C1.5725 15.0075 1.5725 8.99247 5.28249 5.28249ZM9.87868 7.96452C9.60254 7.96452 9.37873 8.18832 9.37873 8.46447C9.37873 8.74061 9.60254 8.96441 9.87868 8.96441H14.3285L8.11091 15.182C7.91565 15.3772 7.91565 15.6938 8.11091 15.8891C8.30617 16.0843 8.62276 16.0843 8.81802 15.8891L15.0356 9.67152V14.1213C15.0356 14.3975 15.2594 14.6213 15.5355 14.6213C15.8117 14.6213 16.0355 14.3975 16.0355 14.1213V8.96441C16.0355 8.41217 15.5878 7.96455 15.0356 7.96452H9.87868Z" fill="black"/>
</svg>
