<svg width="24" height="24" viewBox="0 0 24 24" fill="none" xmlns="http://www.w3.org/2000/svg">
<path d="M18.7175 18.7175C15.0075 22.4275 8.99247 22.4275 5.28249 18.7175C1.5725 15.0075 1.5725 8.99247 5.28249 5.28249C8.99247 1.5725 15.0075 1.5725 18.7175 5.28249C22.4275 8.99247 22.4275 15.0075 18.7175 18.7175ZM14.1213 16.0355C14.3975 16.0355 14.6213 15.8117 14.6213 15.5355C14.6213 15.2594 14.3975 15.0356 14.1213 15.0356H9.67152L15.8891 8.81802C16.0843 8.62276 16.0843 8.30617 15.8891 8.11091C15.6938 7.91565 15.3772 7.91565 15.182 8.11091L8.96441 14.3285V9.87868C8.96441 9.60254 8.74061 9.37873 8.46447 9.37873C8.18832 9.37873 7.96452 9.60254 7.96452 9.87868V15.0356C7.96455 15.5878 8.41217 16.0355 8.96441 16.0355H14.1213Z" fill="black"/>
</svg>
