<svg width="24" height="24" viewBox="0 0 24 24" fill="none" xmlns="http://www.w3.org/2000/svg">
<path d="M5.5 21.5C3.84315 21.5 2.5 20.1569 2.5 18.5V5.5C2.5 3.84315 3.84315 2.5 5.5 2.5H18.5C20.1569 2.5 21.5 3.84315 21.5 5.5V18.5C21.5 20.1569 20.1569 21.5 18.5 21.5H5.5ZM10.6465 16.3535C10.8417 16.5488 11.1583 16.5488 11.3535 16.3535C11.5488 16.1583 11.5488 15.8417 11.3535 15.6465L8.20703 12.5H17C17.2761 12.5 17.5 12.2761 17.5 12C17.5 11.7239 17.2761 11.5 17 11.5H8.20703L11.3535 8.35352C11.5488 8.15825 11.5488 7.84175 11.3535 7.64648C11.1583 7.45122 10.8417 7.45122 10.6465 7.64648L7 11.293C6.60953 11.6835 6.60953 12.3165 7 12.707L10.6465 16.3535Z" fill="black"/>
</svg>
