<svg width="24" height="24" viewBox="0 0 24 24" fill="none" xmlns="http://www.w3.org/2000/svg">
<path d="M12 2.5C17.2467 2.5 21.5 6.75329 21.5 12C21.5 17.2467 17.2467 21.5 12 21.5C6.75329 21.5 2.5 17.2467 2.5 12C2.5 6.75329 6.75329 2.5 12 2.5ZM13.3535 7.64648C13.1583 7.45122 12.8417 7.45122 12.6465 7.64648C12.4512 7.84175 12.4512 8.15825 12.6465 8.35352L15.793 11.5H7C6.72386 11.5 6.5 11.7239 6.5 12C6.5 12.2761 6.72386 12.5 7 12.5H15.793L12.6465 15.6465C12.4512 15.8417 12.4512 16.1583 12.6465 16.3535C12.8417 16.5488 13.1583 16.5488 13.3535 16.3535L17 12.707C17.3905 12.3165 17.3905 11.6835 17 11.293L13.3535 7.64648Z" fill="black"/>
</svg>
