<svg width="24" height="24" viewBox="0 0 24 24" fill="none" xmlns="http://www.w3.org/2000/svg">
<path d="M18.7175 5.28249C15.0075 1.5725 8.99247 1.5725 5.28249 5.28249C1.5725 8.99247 1.5725 15.0075 5.28249 18.7175C8.99247 22.4275 15.0075 22.4275 18.7175 18.7175C22.4275 15.0075 22.4275 8.99247 18.7175 5.28249ZM14.1213 7.96452C14.3975 7.96452 14.6213 8.18832 14.6213 8.46447C14.6213 8.74061 14.3975 8.96441 14.1213 8.96441H9.67152L15.8891 15.182C16.0843 15.3772 16.0843 15.6938 15.8891 15.8891C15.6938 16.0843 15.3772 16.0843 15.182 15.8891L8.96441 9.67152V14.1213C8.96441 14.3975 8.74061 14.6213 8.46447 14.6213C8.18832 14.6213 7.96452 14.3975 7.96452 14.1213V8.96441C7.96455 8.41217 8.41217 7.96455 8.96441 7.96452H14.1213Z" fill="black"/>
</svg>
