<svg width="24" height="24" viewBox="0 0 24 24" fill="none" xmlns="http://www.w3.org/2000/svg">
<path d="M5.5 2.5C3.84315 2.5 2.5 3.84315 2.5 5.5V18.5C2.5 20.1569 3.84315 21.5 5.5 21.5H18.5C20.1569 21.5 21.5 20.1569 21.5 18.5V5.5C21.5 3.84315 20.1569 2.5 18.5 2.5H5.5ZM14 7.5C14.2761 7.5 14.5 7.72386 14.5 8C14.5 8.27614 14.2761 8.5 14 8.5H9.20703L16.3535 15.6465C16.5488 15.8417 16.5488 16.1583 16.3535 16.3535C16.1583 16.5488 15.8417 16.5488 15.6465 16.3535L8.5 9.20703V14C8.5 14.2761 8.27614 14.5 8 14.5C7.72386 14.5 7.5 14.2761 7.5 14V8.5C7.5 7.94772 7.94772 7.5 8.5 7.5H14Z" fill="black"/>
</svg>
