<svg width="24" height="24" viewBox="0 0 24 24" fill="none" xmlns="http://www.w3.org/2000/svg">
<path d="M3.72155 1.924C3.72175 1.49823 4.20417 1.27205 4.52917 1.50994L4.59265 1.56365L6.97351 3.94549C10.6405 1.65462 15.5297 2.10126 18.7176 5.28924C22.4271 8.99911 22.4271 15.0139 18.7176 18.7238C15.0077 22.4336 8.99204 22.4336 5.2821 18.7238C3.47977 16.9213 2.55266 14.5735 2.50183 12.2121C2.4959 11.936 2.71501 11.7073 2.99108 11.7013C3.26716 11.6954 3.4959 11.9145 3.50183 12.1906C3.54735 14.3047 4.37627 16.4038 5.98913 18.0168C9.30855 21.336 14.6912 21.336 18.0106 18.0168C21.3295 14.6974 21.3296 9.31562 18.0106 5.99627C15.2154 3.20103 10.9572 2.75967 7.70007 4.67205L9.71472 6.6867C10.0356 7.00797 9.80858 7.55674 9.35437 7.55681H4.72155C4.16938 7.55681 3.72172 7.10895 3.72155 6.55681V1.924Z" fill="black"/>
</svg>
