<svg width="24" height="24" viewBox="0 0 24 24" fill="none" xmlns="http://www.w3.org/2000/svg">
<path d="M18.5 21.5C20.1569 21.5 21.5 20.1569 21.5 18.5V5.5C21.5 3.84315 20.1569 2.5 18.5 2.5H5.5C3.84315 2.5 2.5 3.84315 2.5 5.5V18.5C2.5 20.1569 3.84315 21.5 5.5 21.5H18.5ZM10 16.5C9.72386 16.5 9.5 16.2761 9.5 16C9.5 15.7239 9.72386 15.5 10 15.5H14.793L7.64648 8.35352C7.45122 8.15825 7.45122 7.84175 7.64648 7.64648C7.84175 7.45122 8.15825 7.45122 8.35352 7.64648L15.5 14.793V10C15.5 9.72386 15.7239 9.5 16 9.5C16.2761 9.5 16.5 9.72386 16.5 10V15.5C16.5 16.0523 16.0523 16.5 15.5 16.5H10Z" fill="black"/>
</svg>
