<svg width="24" height="24" viewBox="0 0 24 24" fill="none" xmlns="http://www.w3.org/2000/svg">
<path d="M5.28249 18.7175C8.99247 22.4275 15.0075 22.4275 18.7175 18.7175C22.4275 15.0075 22.4275 8.99247 18.7175 5.28249C15.0075 1.5725 8.99247 1.5725 5.28249 5.28249C1.5725 8.99247 1.5725 15.0075 5.28249 18.7175ZM9.87868 16.0355C9.60254 16.0355 9.37873 15.8117 9.37873 15.5355C9.37873 15.2594 9.60254 15.0356 9.87868 15.0356H14.3285L8.11091 8.81802C7.91565 8.62276 7.91565 8.30617 8.11091 8.11091C8.30617 7.91565 8.62276 7.91565 8.81802 8.11091L15.0356 14.3285V9.87868C15.0356 9.60254 15.2594 9.37873 15.5355 9.37873C15.8117 9.37873 16.0355 9.60254 16.0355 9.87868V15.0356C16.0355 15.5878 15.5878 16.0355 15.0356 16.0355H9.87868Z" fill="black"/>
</svg>
