<svg width="24" height="24" viewBox="0 0 24 24" fill="none" xmlns="http://www.w3.org/2000/svg">
<path d="M12 2.5C6.75329 2.5 2.5 6.75329 2.5 12C2.5 17.2467 6.75329 21.5 12 21.5C17.2467 21.5 21.5 17.2467 21.5 12C21.5 6.75329 17.2467 2.5 12 2.5ZM10.6465 7.64648C10.8417 7.45122 11.1583 7.45122 11.3535 7.64648C11.5488 7.84175 11.5488 8.15825 11.3535 8.35352L8.20703 11.5H17C17.2761 11.5 17.5 11.7239 17.5 12C17.5 12.2761 17.2761 12.5 17 12.5H8.20703L11.3535 15.6465C11.5488 15.8417 11.5488 16.1583 11.3535 16.3535C11.1583 16.5488 10.8417 16.5488 10.6465 16.3535L7 12.707C6.60953 12.3165 6.60953 11.6835 7 11.293L10.6465 7.64648Z" fill="black"/>
</svg>
