<svg width="24" height="24" viewBox="0 0 24 24" fill="none" xmlns="http://www.w3.org/2000/svg">
<path d="M19.4073 1.55679C19.7285 1.23575 20.2781 1.46308 20.2784 1.91714V6.54996C20.2784 7.10217 19.8306 7.54984 19.2784 7.54996H14.6456C14.1911 7.54996 13.964 7.00107 14.2852 6.67984L16.2989 4.66519C13.0419 2.75326 8.78438 3.19443 5.98932 5.98941C2.67013 9.30875 2.67028 14.6905 5.98932 18.0099C9.30878 21.3294 14.6913 21.3294 18.0108 18.0099C19.6236 16.3968 20.4527 14.2979 20.4981 12.1837C20.5041 11.9077 20.7328 11.6886 21.0089 11.6945C21.2848 11.7005 21.504 11.9293 21.4981 12.2052C21.4473 14.5667 20.5201 16.9144 18.7178 18.7169C15.0079 22.4269 8.99227 22.4269 5.28229 18.7169C1.57273 15.007 1.57258 8.99225 5.28229 5.28238C8.47009 2.09466 13.3586 1.64821 17.0255 3.93863L19.4073 1.55679Z" fill="black"/>
</svg>
