<svg width="24" height="24" viewBox="0 0 24 24" fill="none" xmlns="http://www.w3.org/2000/svg">
<path d="M21.5 5.5C21.5 3.84315 20.1569 2.5 18.5 2.5H5.5C3.84315 2.5 2.5 3.84315 2.5 5.5V18.5C2.5 20.1569 3.84315 21.5 5.5 21.5H18.5C20.1569 21.5 21.5 20.1569 21.5 18.5V5.5ZM16.3535 10.6465C16.5488 10.8417 16.5488 11.1583 16.3535 11.3535C16.1583 11.5488 15.8417 11.5488 15.6465 11.3535L12.5 8.20703V17C12.5 17.2761 12.2761 17.5 12 17.5C11.7239 17.5 11.5 17.2761 11.5 17V8.20703L8.35352 11.3535C8.15825 11.5488 7.84175 11.5488 7.64648 11.3535C7.45122 11.1583 7.45122 10.8417 7.64648 10.6465L11.293 7C11.6835 6.60953 12.3165 6.60953 12.707 7L16.3535 10.6465Z" fill="black"/>
</svg>
