<svg width="24" height="24" viewBox="0 0 24 24" fill="none" xmlns="http://www.w3.org/2000/svg">
<path d="M5.5 21.5C3.84315 21.5 2.5 20.1569 2.5 18.5V5.5C2.5 3.84315 3.84315 2.5 5.5 2.5H18.5C20.1569 2.5 21.5 3.84315 21.5 5.5V18.5C21.5 20.1569 20.1569 21.5 18.5 21.5H5.5ZM14 16.5C14.2761 16.5 14.5 16.2761 14.5 16C14.5 15.7239 14.2761 15.5 14 15.5H9.20703L16.3535 8.35352C16.5488 8.15825 16.5488 7.84175 16.3535 7.64648C16.1583 7.45122 15.8417 7.45122 15.6465 7.64648L8.5 14.793V10C8.5 9.72386 8.27614 9.5 8 9.5C7.72386 9.5 7.5 9.72386 7.5 10V15.5C7.5 16.0523 7.94772 16.5 8.5 16.5H14Z" fill="black"/>
</svg>
