<svg width="24" height="24" viewBox="0 0 24 24" fill="none" xmlns="http://www.w3.org/2000/svg">
<path d="M18.5 2.5C20.1569 2.5 21.5 3.84315 21.5 5.5V18.5C21.5 20.1569 20.1569 21.5 18.5 21.5H5.5C3.84315 21.5 2.5 20.1569 2.5 18.5V5.5C2.5 3.84315 3.84315 2.5 5.5 2.5H18.5ZM10 7.5C9.72386 7.5 9.5 7.72386 9.5 8C9.5 8.27614 9.72386 8.5 10 8.5H14.793L7.64648 15.6465C7.45122 15.8417 7.45122 16.1583 7.64648 16.3535C7.84175 16.5488 8.15825 16.5488 8.35352 16.3535L15.5 9.20703V14C15.5 14.2761 15.7239 14.5 16 14.5C16.2761 14.5 16.5 14.2761 16.5 14V8.5C16.5 7.94772 16.0523 7.5 15.5 7.5H10Z" fill="black"/>
</svg>
