<svg width="24" height="24" viewBox="0 0 24 24" fill="none" xmlns="http://www.w3.org/2000/svg">
<path d="M12.5 4.23693C15.1268 3.13563 18.0944 3.16153 20.7031 4.32091L20.8262 4.3756C21.2356 4.55761 21.4997 4.96367 21.5 5.41173V20.1236C21.5 20.8974 20.7032 21.4155 19.9961 21.1012C17.7703 20.112 15.2297 20.112 13.0039 21.1012L12.7031 21.234C12.2555 21.4329 11.7445 21.4329 11.2969 21.234L10.9961 21.1012C8.77028 20.112 6.22972 20.112 4.00391 21.1012C3.2968 21.4155 2.50004 20.8974 2.5 20.1236V5.41173C2.50026 4.96367 2.76436 4.55761 3.17383 4.3756L3.29688 4.32091C5.90561 3.16153 8.87322 3.13563 11.5 4.23693V16.9996C11.5 17.2758 11.7239 17.4996 12 17.4996C12.2761 17.4996 12.5 17.2758 12.5 16.9996V4.23693Z" fill="black"/>
</svg>
