<svg width="24" height="24" viewBox="0 0 24 24" fill="none" xmlns="http://www.w3.org/2000/svg">
<path fill-rule="evenodd" clip-rule="evenodd" d="M12.5 4.23723C15.1268 3.13586 18.0943 3.16175 20.7031 4.32122L20.8262 4.3759C21.2358 4.55797 21.4999 4.96382 21.5 5.41204V20.124C21.5 20.8977 20.7032 21.4158 19.9961 21.1015C17.7702 20.1122 15.2298 20.1122 13.0039 21.1015L12.7031 21.2343C12.2555 21.4332 11.7445 21.4332 11.2969 21.2343L10.9961 21.1015C8.77019 20.1122 6.22981 20.1122 4.00391 21.1015C3.2968 21.4158 2.50004 20.8977 2.5 20.124V5.41204C2.50011 4.96382 2.76424 4.55797 3.17383 4.3759L3.29688 4.32122C5.90569 3.16175 8.87315 3.13586 11.5 4.23723V16.9999C11.5 17.2761 11.7239 17.4999 12 17.4999C12.2761 17.4999 12.5 17.2761 12.5 16.9999V4.23723ZM15.6592 11.9355C15.6076 11.9373 15.5617 11.94 15.5293 11.9413C15.5133 11.942 15.5002 11.9419 15.4912 11.9423C15.4868 11.9425 15.4829 11.9432 15.4805 11.9433H15.4766C15.201 11.9562 14.9884 12.1902 15.001 12.4657C15.0137 12.7416 15.2476 12.955 15.5234 12.9423H15.5264C15.5284 12.9422 15.5314 12.9415 15.5352 12.9413C15.5435 12.941 15.556 12.941 15.5713 12.9404C15.6019 12.9391 15.6447 12.9372 15.6934 12.9355C15.7927 12.932 15.911 12.9286 16 12.9286C16.6629 12.9286 17.2574 13.0057 17.6865 13.0829C17.9004 13.1214 18.0721 13.1591 18.1885 13.1874C18.2463 13.2015 18.2904 13.2138 18.3193 13.2216C18.3338 13.2255 18.345 13.2285 18.3516 13.2304L18.3584 13.2324C18.6233 13.3104 18.9015 13.1584 18.9795 12.8935C19.057 12.6289 18.906 12.3515 18.6416 12.2734L18.6406 12.2724C18.6397 12.2721 18.6371 12.2718 18.6357 12.2714C18.6327 12.2705 18.6281 12.2689 18.623 12.2675C18.6129 12.2646 18.5982 12.2607 18.5801 12.2558C18.5435 12.2459 18.4912 12.2319 18.4248 12.2157C18.2912 12.1833 18.0993 12.141 17.8633 12.0986C17.3924 12.0138 16.7369 11.9286 16 11.9286C15.8928 11.9286 15.7607 11.9319 15.6592 11.9355ZM15.6592 8.93548C15.6076 8.93728 15.5617 8.93999 15.5293 8.94134C15.5133 8.942 15.5002 8.94192 15.4912 8.94231C15.4868 8.94251 15.4829 8.94318 15.4805 8.94329H15.4766C15.201 8.95622 14.9884 9.19017 15.001 9.46575C15.0137 9.74156 15.2476 9.95504 15.5234 9.94231H15.5264C15.5284 9.94222 15.5314 9.9415 15.5352 9.94134C15.5435 9.94097 15.556 9.941 15.5713 9.94036C15.6019 9.93908 15.6447 9.93717 15.6934 9.93548C15.7927 9.93201 15.911 9.92864 16 9.92864C16.6629 9.92864 17.2574 10.0057 17.6865 10.0829C17.9004 10.1214 18.0721 10.1591 18.1885 10.1874C18.2463 10.2015 18.2904 10.2138 18.3193 10.2216C18.3338 10.2255 18.345 10.2285 18.3516 10.2304L18.3584 10.2324C18.6233 10.3104 18.9015 10.1584 18.9795 9.89348C19.057 9.62892 18.906 9.35148 18.6416 9.27337L18.6406 9.27239C18.6397 9.27213 18.6371 9.2718 18.6357 9.27141C18.6327 9.27054 18.6281 9.26894 18.623 9.26751C18.6129 9.26463 18.5982 9.26068 18.5801 9.25579C18.5435 9.24592 18.4912 9.23189 18.4248 9.21575C18.2912 9.18329 18.0993 9.14104 17.8633 9.09856C17.3924 9.01382 16.7369 8.92864 16 8.92864C15.8928 8.92864 15.7607 8.93194 15.6592 8.93548ZM15.6592 5.93548C15.6076 5.93727 15.5617 5.93999 15.5293 5.94133C15.5133 5.942 15.5002 5.94192 15.4912 5.94231C15.4868 5.94251 15.4829 5.94318 15.4805 5.94329H15.4766C15.201 5.95622 14.9884 6.19017 15.001 6.46575C15.0137 6.74156 15.2476 6.95504 15.5234 6.94231H15.5264C15.5284 6.94222 15.5314 6.9415 15.5352 6.94133C15.5435 6.94097 15.556 6.941 15.5713 6.94036C15.6019 6.93908 15.6447 6.93717 15.6934 6.93548C15.7927 6.93201 15.911 6.92864 16 6.92864C16.6629 6.92864 17.2574 7.0057 17.6865 7.08294C17.9004 7.12144 18.0721 7.15914 18.1885 7.18743C18.2463 7.20149 18.2904 7.2138 18.3193 7.22161C18.3338 7.2255 18.345 7.22854 18.3516 7.2304L18.3584 7.23235C18.6233 7.31038 18.9015 7.15837 18.9795 6.89348C19.057 6.62892 18.906 6.35148 18.6416 6.27337L18.6406 6.27239C18.6397 6.27213 18.6371 6.2718 18.6357 6.27141C18.6327 6.27054 18.6281 6.26894 18.623 6.26751C18.6129 6.26463 18.5982 6.26068 18.5801 6.25579C18.5435 6.24591 18.4912 6.23189 18.4248 6.21575C18.2912 6.18329 18.0993 6.14104 17.8633 6.09856C17.3924 6.01382 16.7369 5.92864 16 5.92864C15.8928 5.92864 15.7607 5.93193 15.6592 5.93548Z" fill="black"/>
</svg>
