<svg width="24" height="24" viewBox="0 0 24 24" fill="none" xmlns="http://www.w3.org/2000/svg">
<path fill-rule="evenodd" clip-rule="evenodd" d="M12.5 4.23723C15.1268 3.13586 18.0943 3.16175 20.7031 4.32121L20.8262 4.3759C21.2357 4.55796 21.4999 4.96383 21.5 5.41203V20.1239C21.5 20.8977 20.7032 21.4158 19.9961 21.1015C17.7702 20.1122 15.2298 20.1122 13.0039 21.1015L12.7031 21.2343C12.2555 21.4332 11.7445 21.4332 11.2969 21.2343L10.9961 21.1015C8.7702 20.1122 6.2298 20.1122 4.00391 21.1015C3.2968 21.4158 2.50004 20.8977 2.5 20.1239V5.41203C2.50012 4.96383 2.76425 4.55796 3.17383 4.3759L3.29688 4.32121C5.90568 3.16175 8.87316 3.13586 11.5 4.23723V16.9999C11.5 17.2761 11.7239 17.4999 12 17.4999C12.2761 17.4999 12.5 17.2761 12.5 16.9999V4.23723ZM16.1592 12.4355C16.1076 12.4373 16.0617 12.44 16.0293 12.4413C16.0133 12.442 16.0002 12.4419 15.9912 12.4423C15.9868 12.4425 15.9829 12.4432 15.9805 12.4433H15.9766C15.701 12.4562 15.4884 12.6902 15.501 12.9657C15.5137 13.2416 15.7476 13.455 16.0234 13.4423H16.0264C16.0284 13.4422 16.0314 13.4415 16.0352 13.4413C16.0435 13.441 16.056 13.441 16.0713 13.4404C16.1019 13.4391 16.1447 13.4372 16.1934 13.4355C16.2927 13.432 16.411 13.4286 16.5 13.4286C17.1629 13.4286 17.7574 13.5057 18.1865 13.5829C18.4004 13.6214 18.5721 13.6591 18.6885 13.6874C18.7463 13.7015 18.7904 13.7138 18.8193 13.7216C18.8338 13.7255 18.845 13.7285 18.8516 13.7304L18.8584 13.7323C19.1233 13.8104 19.4015 13.6584 19.4795 13.3935C19.557 13.1289 19.406 12.8515 19.1416 12.7734L19.1406 12.7724L19.1357 12.7714C19.1327 12.7705 19.1281 12.7689 19.123 12.7675C19.1129 12.7646 19.0982 12.7607 19.0801 12.7558C19.0435 12.7459 18.9912 12.7319 18.9248 12.7157C18.7912 12.6833 18.5993 12.641 18.3633 12.5986C17.8924 12.5138 17.2369 12.4286 16.5 12.4286C16.3928 12.4286 16.2607 12.4319 16.1592 12.4355ZM16.1592 8.93547C16.1076 8.93727 16.0617 8.93998 16.0293 8.94133C16.0133 8.942 16.0002 8.94191 15.9912 8.94231C15.9868 8.9425 15.9829 8.94317 15.9805 8.94328H15.9766C15.701 8.95621 15.4884 9.19017 15.501 9.46574C15.5137 9.74156 15.7476 9.95503 16.0234 9.94231H16.0264C16.0284 9.94221 16.0314 9.9415 16.0352 9.94133C16.0435 9.94096 16.056 9.94099 16.0713 9.94035C16.1019 9.93908 16.1447 9.93717 16.1934 9.93547C16.2927 9.93201 16.411 9.92863 16.5 9.92863C17.1629 9.92863 17.7574 10.0057 18.1865 10.0829C18.4004 10.1214 18.5721 10.1591 18.6885 10.1874C18.7463 10.2015 18.7904 10.2138 18.8193 10.2216C18.8338 10.2255 18.845 10.2285 18.8516 10.2304L18.8584 10.2323C19.1233 10.3104 19.4015 10.1584 19.4795 9.89348C19.557 9.62892 19.406 9.35148 19.1416 9.27336L19.1406 9.27238L19.1357 9.27141C19.1327 9.27053 19.1281 9.26893 19.123 9.2675C19.1129 9.26462 19.0982 9.26067 19.0801 9.25578C19.0435 9.24591 18.9912 9.23189 18.9248 9.21574C18.7912 9.18329 18.5993 9.14103 18.3633 9.09856C17.8924 9.01381 17.2369 8.92863 16.5 8.92863C16.3928 8.92863 16.2607 8.93193 16.1592 8.93547ZM16.1592 5.43547C16.1076 5.43727 16.0617 5.43998 16.0293 5.44133C16.0133 5.442 16.0002 5.44191 15.9912 5.44231C15.9868 5.4425 15.9829 5.44317 15.9805 5.44328H15.9766C15.701 5.45621 15.4884 5.69017 15.501 5.96574C15.5137 6.24156 15.7476 6.45503 16.0234 6.44231H16.0264C16.0284 6.44221 16.0314 6.4415 16.0352 6.44133C16.0435 6.44096 16.056 6.44099 16.0713 6.44035C16.1019 6.43908 16.1447 6.43717 16.1934 6.43547C16.2927 6.43201 16.411 6.42863 16.5 6.42863C17.1629 6.42863 17.7574 6.50569 18.1865 6.58293C18.4004 6.62143 18.5721 6.65914 18.6885 6.68742C18.7463 6.70148 18.7904 6.71379 18.8193 6.7216C18.8338 6.7255 18.845 6.72853 18.8516 6.73039L18.8584 6.73235C19.1233 6.81037 19.4015 6.65837 19.4795 6.39348C19.557 6.12892 19.406 5.85148 19.1416 5.77336L19.1406 5.77238L19.1357 5.77141C19.1327 5.77053 19.1281 5.76893 19.123 5.7675C19.1129 5.76462 19.0982 5.76067 19.0801 5.75578C19.0435 5.74591 18.9912 5.73189 18.9248 5.71574C18.7912 5.68329 18.5993 5.64103 18.3633 5.59856C17.8924 5.51381 17.2369 5.42863 16.5 5.42863C16.3928 5.42863 16.2607 5.43193 16.1592 5.43547Z" fill="black"/>
</svg>
