<svg width="24" height="24" viewBox="0 0 24 24" fill="none" xmlns="http://www.w3.org/2000/svg">
<path fill-rule="evenodd" clip-rule="evenodd" d="M21.5 12C21.5 17.2467 17.2467 21.5 12 21.5C6.75329 21.5 2.5 17.2467 2.5 12C2.5 6.75329 6.75329 2.5 12 2.5C17.2467 2.5 21.5 6.75329 21.5 12ZM16.3535 11.3535C16.5488 11.1583 16.5488 10.8417 16.3535 10.6465C16.1583 10.4512 15.8417 10.4512 15.6465 10.6465L12 14.293L8.35352 10.6465C8.15825 10.4512 7.84175 10.4512 7.64648 10.6465C7.45122 10.8417 7.45122 11.1583 7.64648 11.3535L11.293 15C11.6835 15.3905 12.3165 15.3905 12.707 15L16.3535 11.3535Z" fill="black"/>
</svg>
