<svg width="24" height="24" viewBox="0 0 24 24" fill="none" xmlns="http://www.w3.org/2000/svg">
<path fill-rule="evenodd" clip-rule="evenodd" d="M12 2.5C17.2467 2.5 21.5 6.75329 21.5 12C21.5 17.2467 17.2467 21.5 12 21.5C6.75329 21.5 2.5 17.2467 2.5 12C2.5 6.75329 6.75329 2.5 12 2.5ZM11.3535 7.64648C11.1583 7.45122 10.8417 7.45122 10.6465 7.64648C10.4512 7.84175 10.4512 8.15825 10.6465 8.35352L14.293 12L10.6465 15.6465C10.4512 15.8417 10.4512 16.1583 10.6465 16.3535C10.8417 16.5488 11.1583 16.5488 11.3535 16.3535L15 12.707C15.3905 12.3165 15.3905 11.6835 15 11.293L11.3535 7.64648Z" fill="black"/>
</svg>
