<svg width="24" height="24" viewBox="0 0 24 24" fill="none" xmlns="http://www.w3.org/2000/svg">
<path fill-rule="evenodd" clip-rule="evenodd" d="M12 2.5C6.75329 2.5 2.5 6.75329 2.5 12C2.5 17.2467 6.75329 21.5 12 21.5C17.2467 21.5 21.5 17.2467 21.5 12C21.5 6.75329 17.2467 2.5 12 2.5ZM12.6465 7.64648C12.8417 7.45122 13.1583 7.45122 13.3535 7.64648C13.5488 7.84175 13.5488 8.15825 13.3535 8.35352L9.70703 12L13.3535 15.6465C13.5488 15.8417 13.5488 16.1583 13.3535 16.3535C13.1583 16.5488 12.8417 16.5488 12.6465 16.3535L9 12.707C8.60953 12.3165 8.60953 11.6835 9 11.293L12.6465 7.64648Z" fill="black"/>
</svg>
