<svg width="24" height="24" viewBox="0 0 24 24" fill="none" xmlns="http://www.w3.org/2000/svg">
<path fill-rule="evenodd" clip-rule="evenodd" d="M2.5 12C2.5 6.75329 6.75329 2.5 12 2.5C17.2467 2.5 21.5 6.75329 21.5 12C21.5 17.2467 17.2467 21.5 12 21.5C6.75329 21.5 2.5 17.2467 2.5 12ZM7.64648 12.6465C7.45122 12.8417 7.45122 13.1583 7.64648 13.3535C7.84175 13.5488 8.15825 13.5488 8.35352 13.3535L12 9.70703L15.6465 13.3535C15.8417 13.5488 16.1583 13.5488 16.3535 13.3535C16.5488 13.1583 16.5488 12.8417 16.3535 12.6465L12.707 9C12.3165 8.60953 11.6835 8.60953 11.293 9L7.64648 12.6465Z" fill="black"/>
</svg>
