<svg width="24" height="24" viewBox="0 0 24 24" fill="none" xmlns="http://www.w3.org/2000/svg">
<path fill-rule="evenodd" clip-rule="evenodd" d="M12 2.5C17.2467 2.5 21.5 6.75329 21.5 12C21.5 17.2467 17.2467 21.5 12 21.5C6.75329 21.5 2.5 17.2467 2.5 12C2.5 6.75329 6.75329 2.5 12 2.5ZM12.8496 18.4453C12.5718 18.4816 12.2882 18.5 12 18.5C11.7118 18.5 11.4282 18.4816 11.1504 18.4453C10.8766 18.4096 10.6256 18.6022 10.5898 18.876C10.5541 19.1498 10.7477 19.4008 11.0215 19.4365C11.342 19.4783 11.6686 19.5 12 19.5C12.3314 19.5 12.658 19.4783 12.9785 19.4365C13.2523 19.4008 13.4459 19.1498 13.4102 18.876C13.3744 18.6022 13.1234 18.4096 12.8496 18.4453ZM6.84277 15.957C6.67451 15.7381 6.36056 15.697 6.1416 15.8652C5.9227 16.0335 5.88156 16.3475 6.0498 16.5664C6.44885 17.0857 6.91435 17.5511 7.43359 17.9502C7.65253 18.1184 7.96649 18.0773 8.13477 17.8584C8.30303 17.6394 8.26193 17.3255 8.04297 17.1572C7.59263 16.8111 7.18886 16.4074 6.84277 15.957ZM17.8584 15.8652C17.6394 15.697 17.3255 15.7381 17.1572 15.957C16.8111 16.4074 16.4074 16.8111 15.957 17.1572C15.7381 17.3255 15.697 17.6394 15.8652 17.8584C16.0335 18.0773 16.3475 18.1184 16.5664 17.9502C17.0857 17.5511 17.5511 17.0857 17.9502 16.5664C18.1184 16.3475 18.0773 16.0335 17.8584 15.8652ZM5.12402 10.5898C4.8502 10.5541 4.59919 10.7477 4.56348 11.0215C4.52169 11.342 4.5 11.6686 4.5 12C4.5 12.3314 4.52169 12.658 4.56348 12.9785C4.59919 13.2523 4.8502 13.4459 5.12402 13.4102C5.39776 13.3744 5.5904 13.1234 5.55469 12.8496C5.51845 12.5718 5.5 12.2882 5.5 12C5.5 11.7118 5.51845 11.4282 5.55469 11.1504C5.5904 10.8766 5.39776 10.6256 5.12402 10.5898ZM18.876 10.5898C18.6022 10.6256 18.4096 10.8766 18.4453 11.1504C18.4816 11.4282 18.5 11.7118 18.5 12C18.5 12.2882 18.4816 12.5718 18.4453 12.8496C18.4096 13.1234 18.6022 13.3744 18.876 13.4102C19.1498 13.4459 19.4008 13.2523 19.4365 12.9785C19.4783 12.658 19.5 12.3314 19.5 12C19.5 11.6686 19.4783 11.342 19.4365 11.0215C19.4008 10.7477 19.1498 10.5541 18.876 10.5898ZM8.13477 6.1416C7.96649 5.9227 7.65253 5.88156 7.43359 6.0498C6.91435 6.44885 6.44885 6.91435 6.0498 7.43359C5.88156 7.65253 5.9227 7.96649 6.1416 8.13477C6.36056 8.30303 6.67451 8.26193 6.84277 8.04297C7.18886 7.59263 7.59263 7.18886 8.04297 6.84277C8.26193 6.67451 8.30303 6.36056 8.13477 6.1416ZM16.5664 6.0498C16.3475 5.88156 16.0335 5.9227 15.8652 6.1416C15.697 6.36056 15.7381 6.67451 15.957 6.84277C16.4074 7.18886 16.8111 7.59263 17.1572 8.04297C17.3255 8.26193 17.6394 8.30303 17.8584 8.13477C18.0773 7.96649 18.1184 7.65253 17.9502 7.43359C17.5511 6.91435 17.0857 6.44885 16.5664 6.0498ZM12 4.5C11.6686 4.5 11.342 4.52169 11.0215 4.56348C10.7477 4.59919 10.5541 4.8502 10.5898 5.12402C10.6256 5.39776 10.8766 5.5904 11.1504 5.55469C11.4282 5.51845 11.7118 5.5 12 5.5C12.2882 5.5 12.5718 5.51845 12.8496 5.55469C13.1234 5.5904 13.3744 5.39776 13.4102 5.12402C13.4459 4.8502 13.2523 4.59919 12.9785 4.56348C12.658 4.52169 12.3314 4.5 12 4.5Z" fill="black"/>
</svg>
