<svg width="24" height="24" viewBox="0 0 24 24" fill="none" xmlns="http://www.w3.org/2000/svg">
<path fill-rule="evenodd" clip-rule="evenodd" d="M14.5 2.5C15.4317 2.5 16.2123 3.13768 16.4346 4H17.5C18.8807 4 20 5.11929 20 6.5V19C20 20.3807 18.8807 21.5 17.5 21.5H6.5C5.11929 21.5 4 20.3807 4 19V6.5C4 5.11929 5.11929 4 6.5 4H7.56543C7.78765 3.13768 8.56829 2.5 9.5 2.5H14.5ZM9.5 3.5C8.94772 3.5 8.5 3.94772 8.5 4.5C8.5 5.05228 8.94772 5.5 9.5 5.5H14.5C15.0523 5.5 15.5 5.05228 15.5 4.5C15.5 3.94772 15.0523 3.5 14.5 3.5H9.5Z" fill="black"/>
</svg>
