<svg width="24" height="24" viewBox="0 0 24 24" fill="none" xmlns="http://www.w3.org/2000/svg">
<path fill-rule="evenodd" clip-rule="evenodd" d="M14.5 2.5C15.4317 2.5 16.2123 3.13768 16.4346 4H17.5C18.8807 4 20 5.11929 20 6.5V8.21094C19.0851 7.81148 17.981 7.9838 17.2324 8.73242C16.6163 9.34852 16.3903 10.2058 16.5518 11H13C11.6193 11 10.5 12.1193 10.5 13.5C10.5 14.8807 11.6193 16 13 16H16.5518C16.3903 16.7942 16.6163 17.6515 17.2324 18.2676C17.9811 19.0163 19.0851 19.1877 20 18.7881V19C20 20.3807 18.8807 21.5 17.5 21.5H6.5C5.11929 21.5 4 20.3807 4 19V6.5C4 5.11929 5.11929 4 6.5 4H7.56543C7.78765 3.13768 8.56829 2.5 9.5 2.5H14.5ZM9.5 3.5C8.94772 3.5 8.5 3.94772 8.5 4.5C8.5 5.05228 8.94772 5.5 9.5 5.5H14.5C15.0523 5.5 15.5 5.05228 15.5 4.5C15.5 3.94772 15.0523 3.5 14.5 3.5H9.5Z" fill="black"/>
<path d="M18.6465 10.1465C18.8417 9.95122 19.1583 9.95122 19.3535 10.1465L22 12.793C22.3905 13.1835 22.3905 13.8165 22 14.207L19.3535 16.8535C19.1583 17.0488 18.8417 17.0488 18.6465 16.8535C18.4512 16.6583 18.4512 16.3417 18.6465 16.1465L20.793 14H13C12.7239 14 12.5 13.7761 12.5 13.5C12.5 13.2239 12.7239 13 13 13H20.793L18.6465 10.8535C18.4512 10.6583 18.4512 10.3417 18.6465 10.1465Z" fill="black"/>
</svg>
