<svg width="24" height="24" viewBox="0 0 24 24" fill="none" xmlns="http://www.w3.org/2000/svg">
<path fill-rule="evenodd" clip-rule="evenodd" d="M14.5 2.5C15.4317 2.5 16.2123 3.13768 16.4346 4H17.5C18.8807 4 20 5.11929 20 6.5V19C20 20.3807 18.8807 21.5 17.5 21.5H6.5C5.11929 21.5 4 20.3807 4 19V6.5C4 5.11929 5.11929 4 6.5 4H7.56543C7.78765 3.13768 8.56829 2.5 9.5 2.5H14.5ZM15.3535 11.6465C15.1583 11.4512 14.8417 11.4512 14.6465 11.6465L11 15.293L9.35352 13.6465C9.15825 13.4512 8.84175 13.4512 8.64648 13.6465C8.45122 13.8417 8.45122 14.1583 8.64648 14.3535L10.4697 16.1768C10.7626 16.4696 11.2374 16.4696 11.5303 16.1768L15.3535 12.3535C15.5488 12.1583 15.5488 11.8417 15.3535 11.6465ZM9.5 3.5C8.94772 3.5 8.5 3.94772 8.5 4.5C8.5 5.05228 8.94772 5.5 9.5 5.5H14.5C15.0523 5.5 15.5 5.05228 15.5 4.5C15.5 3.94772 15.0523 3.5 14.5 3.5H9.5Z" fill="black"/>
</svg>
