<svg width="24" height="24" viewBox="0 0 24 24" fill="none" xmlns="http://www.w3.org/2000/svg">
<path fill-rule="evenodd" clip-rule="evenodd" d="M14.5 2.5C15.4317 2.5 16.2123 3.13768 16.4346 4H17.5C18.8807 4 20 5.11929 20 6.5V11H17.4482C17.6097 10.2058 17.3837 9.34852 16.7676 8.73242C15.7913 7.75611 14.2087 7.75611 13.2324 8.73242L10.5859 11.3789C9.41442 12.5505 9.41441 14.4495 10.5859 15.6211L13.2324 18.2676C14.2087 19.2439 15.7913 19.2439 16.7676 18.2676C17.3837 17.6515 17.6097 16.7942 17.4482 16H20V19C20 20.3807 18.8807 21.5 17.5 21.5H6.5C5.11929 21.5 4 20.3807 4 19V6.5C4 5.11929 5.11929 4 6.5 4H7.56543C7.78765 3.13768 8.56829 2.5 9.5 2.5H14.5ZM9.5 3.5C8.94772 3.5 8.5 3.94772 8.5 4.5C8.5 5.05228 8.94772 5.5 9.5 5.5H14.5C15.0523 5.5 15.5 5.05228 15.5 4.5C15.5 3.94772 15.0523 3.5 14.5 3.5H9.5Z" fill="black"/>
<path d="M14.6465 10.1465C14.8417 9.95122 15.1583 9.95122 15.3535 10.1465C15.5488 10.3417 15.5488 10.6583 15.3535 10.8535L13.207 13H21C21.2761 13 21.5 13.2239 21.5 13.5C21.5 13.7761 21.2761 14 21 14H13.207L15.3535 16.1465C15.5488 16.3417 15.5488 16.6583 15.3535 16.8535C15.1583 17.0488 14.8417 17.0488 14.6465 16.8535L12 14.207C11.6095 13.8165 11.6095 13.1835 12 12.793L14.6465 10.1465Z" fill="black"/>
</svg>
