<svg width="24" height="24" viewBox="0 0 24 24" fill="none" xmlns="http://www.w3.org/2000/svg">
<path d="M22 16.5C22.0327 16.5 22.0655 16.5024 22.0977 16.5088C22.1488 16.5189 22.196 16.5391 22.2402 16.5635C22.2806 16.5857 22.3193 16.6123 22.3535 16.6465C22.3833 16.6762 22.4071 16.7096 22.4277 16.7441C22.4565 16.7922 22.4789 16.8446 22.4902 16.9014C22.5032 16.9661 22.5031 17.0329 22.4902 17.0977C22.4801 17.1488 22.46 17.196 22.4355 17.2402C22.4287 17.2526 22.423 17.2655 22.415 17.2773C22.3991 17.3011 22.381 17.3231 22.3613 17.3438C22.3585 17.3467 22.3565 17.3506 22.3535 17.3535L18.207 21.5H22C22.2761 21.5 22.5 21.7239 22.5 22C22.5 22.2761 22.2761 22.5 22 22.5H17C16.967 22.5 16.9339 22.4967 16.9014 22.4902C16.8502 22.48 16.803 22.4601 16.7588 22.4355C16.7189 22.4134 16.6803 22.3874 16.6465 22.3535C16.6123 22.3193 16.5857 22.2806 16.5635 22.2402C16.5391 22.196 16.5189 22.1488 16.5088 22.0977C16.496 22.033 16.4959 21.966 16.5088 21.9014C16.519 21.8503 16.539 21.8029 16.5635 21.7588C16.5856 21.7188 16.6125 21.6805 16.6465 21.6465L20.793 17.5H17C16.7239 17.5 16.5 17.2761 16.5 17C16.5 16.7239 16.7239 16.5 17 16.5H22ZM12 2.5C17.2467 2.5 21.5 6.75329 21.5 12C21.5 12.7988 21.3989 13.5743 21.2129 14.3154C21.1853 14.4246 21.0863 14.5 20.9736 14.5H17C15.6193 14.5 14.5 15.6193 14.5 17C14.5 17.9345 15.0138 18.7464 15.7734 19.1748C15.9318 19.2641 15.9789 19.4846 15.8506 19.6133L15.2324 20.2324C15.1432 20.3216 15.0641 20.4172 14.9912 20.5156C14.9665 20.549 14.941 20.5816 14.918 20.6162C14.9012 20.6413 14.8868 20.6678 14.8711 20.6934C14.8476 20.7315 14.8232 20.7691 14.8018 20.8086L14.7861 20.8379C14.773 20.8628 14.7622 20.8888 14.75 20.9141C14.7358 20.9434 14.722 20.973 14.709 21.0029C14.6776 21.075 14.6178 21.1323 14.542 21.1533C13.7328 21.3778 12.8807 21.5 12 21.5C6.75329 21.5 2.5 17.2467 2.5 12C2.5 6.75329 6.75329 2.5 12 2.5ZM12 6.5C11.7239 6.5 11.5 6.72386 11.5 7V11.75C11.5 12.1642 11.8358 12.5 12.25 12.5H16C16.2761 12.5 16.5 12.2761 16.5 12C16.5 11.7239 16.2761 11.5 16 11.5H12.5V7C12.5 6.72386 12.2761 6.5 12 6.5Z" fill="black"/>
</svg>
