<svg width="24" height="24" viewBox="0 0 24 24" fill="none" xmlns="http://www.w3.org/2000/svg">
<path d="M12 2.5C6.75329 2.5 2.5 6.75329 2.5 12C2.5 17.2467 6.75329 21.5 12 21.5C17.2467 21.5 21.5 17.2467 21.5 12C21.5 6.75329 17.2467 2.5 12 2.5ZM12 6.5C12.2761 6.50002 12.5 6.72387 12.5 7L12.499 11.793L15.1816 14.4746C15.3769 14.6699 15.3769 14.9874 15.1816 15.1826C14.9865 15.3774 14.6698 15.3773 14.4746 15.1826L11.7188 12.4268C11.5784 12.2862 11.4991 12.0952 11.499 11.8965L11.5 7C11.5 6.72391 11.7239 6.50006 12 6.5Z" fill="black"/>
</svg>
