<svg width="24" height="24" viewBox="0 0 24 24" fill="none" xmlns="http://www.w3.org/2000/svg">
<path d="M5.28298 5.28255C8.71199 1.85353 14.1085 1.59657 17.8358 4.50618L19.4081 2.9339L19.4706 2.88019C19.7956 2.64177 20.279 2.86831 20.2792 3.29425V6.55014C20.279 7.10217 19.8312 7.54995 19.2792 7.55015H16.0252C15.5713 7.54994 15.3434 7.00137 15.6639 6.68002L17.1229 5.21907C13.7919 2.69653 9.02793 2.95167 5.99001 5.98959C2.67081 9.3091 2.67062 14.6918 5.99001 18.0112C9.3094 21.3305 14.6921 21.3304 18.0116 18.0112C19.6247 16.3981 20.4534 14.2983 20.4989 12.184C20.5049 11.908 20.7337 11.6889 21.0097 11.6947C21.2856 11.7007 21.5048 11.9295 21.4989 12.2055C21.4481 14.5671 20.5212 16.9156 18.7186 18.7182C15.0086 22.4279 8.99289 22.4281 5.28298 18.7182C1.57306 15.0083 1.57325 8.99259 5.28298 5.28255ZM12.0008 6.50033C12.2769 6.50033 12.5008 6.72419 12.5008 7.00034V11.5004H16.0008C16.277 11.5004 16.5008 11.7242 16.5008 12.0004C16.5007 12.2764 16.2769 12.5004 16.0008 12.5004H12.2508C11.8368 12.5002 11.501 12.1644 11.5008 11.7504V7.00034C11.5008 6.72428 11.7248 6.50047 12.0008 6.50033Z" fill="black"/>
</svg>
