<svg width="24" height="24" viewBox="0 0 24 24" fill="none" xmlns="http://www.w3.org/2000/svg">
<path d="M6.16213 4.50617C9.88945 1.59556 15.2874 1.8533 18.7168 5.28254C22.4268 8.99252 22.4268 15.0081 18.7168 18.7181C15.0068 22.428 8.99123 22.428 5.28127 18.7181C3.47875 16.9155 2.55172 14.5671 2.501 12.2054C2.4952 11.9295 2.71443 11.7008 2.99026 11.6946C3.26625 11.6887 3.49494 11.9079 3.501 12.1839C3.54641 14.2982 4.37525 16.3979 5.9883 18.0111C9.30774 21.3305 14.6903 21.3304 18.0098 18.0111C21.3292 14.6916 21.3292 9.30902 18.0098 5.98957C14.9715 2.95143 10.2061 2.69551 6.87502 5.21906L8.33596 6.68097C8.65642 7.00237 8.42869 7.55109 7.97463 7.55109H4.72072C4.16886 7.55077 3.72096 7.10297 3.72072 6.55109V3.29523C3.72072 2.86923 4.20425 2.64203 4.52932 2.88019L4.59182 2.93488L6.16213 4.50617ZM12.001 6.50031C12.2771 6.50031 12.5009 6.72421 12.501 7.00031V11.5003H16.001C16.2771 11.5003 16.5009 11.7242 16.501 12.0003C16.501 12.2765 16.2771 12.5003 16.001 12.5003H12.251C11.8369 12.5002 11.501 12.1644 11.501 11.7503V7.00031C11.501 6.72429 11.725 6.50044 12.001 6.50031Z" fill="black"/>
</svg>
