<svg width="24" height="24" viewBox="0 0 24 24" fill="none" xmlns="http://www.w3.org/2000/svg">
<path d="M12 2.5C17.2467 2.5 21.5 6.75329 21.5 12C21.5 13.575 21.1159 15.0604 20.4375 16.3682C20.3951 16.4496 20.3106 16.5 20.2188 16.5H16C14.6193 16.5 13.5 17.6193 13.5 19C13.5 19.6931 13.7833 20.3192 14.2393 20.7715C14.3919 20.9233 14.3455 21.2083 14.1357 21.2568C13.4493 21.4152 12.7345 21.5 12 21.5C6.75329 21.5 2.5 17.2467 2.5 12C2.5 6.75329 6.75329 2.5 12 2.5ZM22 18.5C22.2761 18.5 22.5 18.7239 22.5 19C22.5 19.2761 22.2761 19.5 22 19.5H16C15.7239 19.5 15.5 19.2761 15.5 19C15.5 18.7239 15.7239 18.5 16 18.5H22ZM12 6.5C11.7239 6.5 11.5 6.72386 11.5 7V11.75C11.5 12.1642 11.8358 12.5 12.25 12.5H16C16.2761 12.5 16.5 12.2761 16.5 12C16.5 11.7239 16.2761 11.5 16 11.5H12.5V7C12.5 6.72386 12.2761 6.5 12 6.5Z" fill="black"/>
</svg>
