<svg width="24" height="24" viewBox="0 0 24 24" fill="none" xmlns="http://www.w3.org/2000/svg">
<path d="M12 2.5C17.2467 2.5 21.5 6.75329 21.5 12C21.5 17.2467 17.2467 21.5 12 21.5C6.75329 21.5 2.5 17.2467 2.5 12C2.5 6.75329 6.75329 2.5 12 2.5ZM12 6.5C11.7239 6.50002 11.5 6.72387 11.5 7L11.501 11.793L8.81836 14.4746C8.6231 14.6699 8.6231 14.9874 8.81836 15.1826C9.0135 15.3774 9.33021 15.3773 9.52539 15.1826L12.2812 12.4268C12.4216 12.2862 12.5009 12.0952 12.501 11.8965L12.5 7C12.5 6.72391 12.2761 6.50006 12 6.5Z" fill="black"/>
</svg>
