<svg width="24" height="24" viewBox="0 0 24 24" fill="none" xmlns="http://www.w3.org/2000/svg">
<path d="M6 2.5C6.82843 2.5 7.5 3.17157 7.5 4V20C7.5 20.8284 6.82843 21.5 6 21.5H4C3.17157 21.5 2.5 20.8284 2.5 20V4C2.5 3.17157 3.17157 2.5 4 2.5H6Z" fill="black"/>
<path d="M13 2.5C13.8284 2.5 14.5 3.17157 14.5 4V8C14.5 8.27614 14.2761 8.5 14 8.5C13.7239 8.5 13.5 8.27614 13.5 8V4C13.5 3.72386 13.2761 3.5 13 3.5H11C10.7239 3.5 10.5 3.72386 10.5 4V20C10.5 20.2761 10.7239 20.5 11 20.5H13C13.2761 20.5 13.5 20.2761 13.5 20V16C13.5 15.7239 13.7239 15.5 14 15.5C14.2761 15.5 14.5 15.7239 14.5 16V20C14.5 20.8284 13.8284 21.5 13 21.5H11C10.1716 21.5 9.5 20.8284 9.5 20V4C9.5 3.17157 10.1716 2.5 11 2.5H13Z" fill="black"/>
<path d="M20.6465 9.64648C20.8417 9.45122 21.1583 9.45122 21.3535 9.64648C21.5488 9.84175 21.5488 10.1583 21.3535 10.3535L17.5303 14.1768C17.2374 14.4696 16.7626 14.4696 16.4697 14.1768L14.6465 12.3535C14.4512 12.1583 14.4512 11.8417 14.6465 11.6465C14.8417 11.4512 15.1583 11.4512 15.3535 11.6465L17 13.293L20.6465 9.64648Z" fill="black"/>
</svg>
