<svg width="24" height="24" viewBox="0 0 24 24" fill="none" xmlns="http://www.w3.org/2000/svg">
<path fill-rule="evenodd" clip-rule="evenodd" d="M19 2.5C20.3807 2.5 21.5 3.61929 21.5 5V19C21.5 20.3807 20.3807 21.5 19 21.5H5C3.61929 21.5 2.5 20.3807 2.5 19V5C2.5 3.61929 3.61929 2.5 5 2.5H19ZM6.5 10.5C5.67157 10.5 5 11.1716 5 12C5 12.8284 5.67157 13.5 6.5 13.5C7.32843 13.5 8 12.8284 8 12C8 11.1716 7.32843 10.5 6.5 10.5ZM12 10.5C11.1716 10.5 10.5 11.1716 10.5 12C10.5 12.8284 11.1716 13.5 12 13.5C12.8284 13.5 13.5 12.8284 13.5 12C13.5 11.1716 12.8284 10.5 12 10.5ZM17.5 10.5C16.6716 10.5 16 11.1716 16 12C16 12.8284 16.6716 13.5 17.5 13.5C18.3284 13.5 19 12.8284 19 12C19 11.1716 18.3284 10.5 17.5 10.5Z" fill="black"/>
</svg>
