<svg width="24" height="24" viewBox="0 0 24 24" fill="none" xmlns="http://www.w3.org/2000/svg">
<path d="M11.209 2.73645C11.7222 2.56539 12.2778 2.56539 12.791 2.73645L19.791 5.06945C20.8117 5.40981 21.5 6.3656 21.5 7.44152V17.5001C21.4999 18.8808 20.3807 20.0001 19 20.0001H5C3.61932 20.0001 2.50006 18.8808 2.5 17.5001V7.44152C2.50005 6.3656 3.18833 5.40981 4.20898 5.06945L11.209 2.73645ZM19.4375 8.86828C19.3034 8.62695 18.9982 8.53985 18.7568 8.67395L12 12.4288L5.24316 8.67395C5.0018 8.53985 4.69663 8.62695 4.5625 8.86828C4.42861 9.10961 4.51559 9.41486 4.75684 9.54895L11.5146 13.3029C11.8164 13.4703 12.1836 13.4703 12.4854 13.3029L19.2432 9.54895C19.4844 9.41486 19.5714 9.10961 19.4375 8.86828Z" fill="black"/>
</svg>
