<svg width="24" height="24" viewBox="0 0 24 24" fill="none" xmlns="http://www.w3.org/2000/svg">
<path d="M19 4C20.3807 4 21.5 5.11929 21.5 6.5V17.5C21.5 18.8807 20.3807 20 19 20H5C3.70566 20 2.64082 19.0164 2.5127 17.7559L2.5 17.5V6.5C2.5 5.11929 3.61929 4 5 4H19ZM19.4375 8.86816C19.3034 8.62684 18.9982 8.53974 18.7568 8.67383L12 12.4287L5.24316 8.67383C5.0018 8.53974 4.69663 8.62684 4.5625 8.86816C4.42854 9.1095 4.51556 9.41473 4.75684 9.54883L11.5146 13.3027C11.8164 13.4702 12.1836 13.4702 12.4854 13.3027L19.2432 9.54883C19.4844 9.41473 19.5715 9.1095 19.4375 8.86816Z" fill="black"/>
</svg>
