<svg width="24" height="24" viewBox="0 0 24 24" fill="none" xmlns="http://www.w3.org/2000/svg">
<path fill-rule="evenodd" clip-rule="evenodd" d="M13.6719 2.5C14.3348 2.50008 14.9707 2.76365 15.4395 3.23242L19.2676 7.06055C19.7363 7.52932 19.9999 8.16519 20 8.82812V19C20 20.3807 18.8807 21.5 17.5 21.5H6.5C5.11929 21.5 4 20.3807 4 19V5C4 3.61929 5.11929 2.5 6.5 2.5H13.6719ZM12 10C11.7239 10 11.5 10.2239 11.5 10.5V15.793L9.35352 13.6465C9.15825 13.4512 8.84175 13.4512 8.64648 13.6465C8.45122 13.8417 8.45122 14.1583 8.64648 14.3535L11.293 17C11.6835 17.3905 12.3165 17.3905 12.707 17L15.3535 14.3535C15.5488 14.1583 15.5488 13.8417 15.3535 13.6465C15.1583 13.4512 14.8417 13.4512 14.6465 13.6465L12.5 15.793V10.5C12.5 10.2239 12.2761 10 12 10ZM14.5 8H18.0859L14.5 4.41406V8Z" fill="black"/>
</svg>
