<svg width="24" height="24" viewBox="0 0 24 24" fill="none" xmlns="http://www.w3.org/2000/svg">
<path fill-rule="evenodd" clip-rule="evenodd" d="M13.6719 2.5C14.3348 2.50008 14.9707 2.76365 15.4395 3.23242L19.2676 7.06055C19.7363 7.52932 19.9999 8.16519 20 8.82812V19C20 20.3807 18.8807 21.5 17.5 21.5H6.5C5.11929 21.5 4 20.3807 4 19V5C4 3.61929 5.11929 2.5 6.5 2.5H13.6719ZM8.5 16.5C8.22386 16.5 8 16.7239 8 17C8 17.2761 8.22386 17.5 8.5 17.5H15.5C15.7761 17.5 16 17.2761 16 17C16 16.7239 15.7761 16.5 15.5 16.5H8.5ZM8.5 13C8.22386 13 8 13.2239 8 13.5C8 13.7761 8.22386 14 8.5 14H15.5C15.7761 14 16 13.7761 16 13.5C16 13.2239 15.7761 13 15.5 13H8.5ZM8.5 9.5C8.22386 9.5 8 9.72386 8 10C8 10.2761 8.22386 10.5 8.5 10.5H10.5C10.7761 10.5 11 10.2761 11 10C11 9.72386 10.7761 9.5 10.5 9.5H8.5ZM14.5 8H18.0859L14.5 4.41406V8Z" fill="black"/>
</svg>
