<svg width="24" height="24" viewBox="0 0 24 24" fill="none" xmlns="http://www.w3.org/2000/svg">
<path fill-rule="evenodd" clip-rule="evenodd" d="M13.6719 2.5C14.3348 2.50008 14.9707 2.76365 15.4395 3.23242L19.2676 7.06055C19.7363 7.52932 19.9999 8.16519 20 8.82812V19C20 20.3807 18.8807 21.5 17.5 21.5H6.5C5.11929 21.5 4 20.3807 4 19V5C4 3.61929 5.11929 2.5 6.5 2.5H13.6719ZM12 10.5C11.7239 10.5 11.5 10.7239 11.5 11V13.5H9C8.72386 13.5 8.5 13.7239 8.5 14C8.5 14.2761 8.72386 14.5 9 14.5H11.5V17C11.5 17.2761 11.7239 17.5 12 17.5C12.2761 17.5 12.5 17.2761 12.5 17V14.5H15C15.2761 14.5 15.5 14.2761 15.5 14C15.5 13.7239 15.2761 13.5 15 13.5H12.5V11C12.5 10.7239 12.2761 10.5 12 10.5ZM14.5 8H18.0859L14.5 4.41406V8Z" fill="black"/>
</svg>
