<svg width="24" height="24" viewBox="0 0 24 24" fill="none" xmlns="http://www.w3.org/2000/svg">
<path fill-rule="evenodd" clip-rule="evenodd" d="M13.6719 2.5C14.3348 2.50008 14.9707 2.76365 15.4395 3.23242L19.2676 7.06055C19.7363 7.52932 19.9999 8.16519 20 8.82812V19C20 20.3807 18.8807 21.5 17.5 21.5H6.5C5.11929 21.5 4 20.3807 4 19V5C4 3.61929 5.11929 2.5 6.5 2.5H13.6719ZM12.707 10.5C12.3165 10.1095 11.6835 10.1095 11.293 10.5L8.64648 13.1465C8.45122 13.3417 8.45122 13.6583 8.64648 13.8535C8.84175 14.0488 9.15825 14.0488 9.35352 13.8535L11.5 11.707V17C11.5 17.2761 11.7239 17.5 12 17.5C12.2761 17.5 12.5 17.2761 12.5 17V11.707L14.6465 13.8535C14.8417 14.0488 15.1583 14.0488 15.3535 13.8535C15.5488 13.6583 15.5488 13.3417 15.3535 13.1465L12.707 10.5ZM14.5 8H18.0859L14.5 4.41406V8Z" fill="black"/>
</svg>
