<svg width="24" height="24" viewBox="0 0 24 24" fill="none" xmlns="http://www.w3.org/2000/svg">
<path fill-rule="evenodd" clip-rule="evenodd" d="M19 2.5C20.3807 2.50004 21.5 3.61931 21.5 5V19C21.5 20.3807 20.3807 21.5 19 21.5H5C3.61931 21.5 2.50004 20.3807 2.5 19V5C2.5 3.61929 3.61929 2.5 5 2.5H19ZM10 16.5C9.72386 16.5 9.5 16.7239 9.5 17C9.50004 17.2761 9.72388 17.5 10 17.5H14C14.2761 17.5 14.5 17.2761 14.5 17C14.5 16.7239 14.2761 16.5 14 16.5H10ZM8 11.5C7.72386 11.5 7.5 11.7239 7.5 12C7.50004 12.2761 7.72388 12.5 8 12.5H16C16.2761 12.5 16.5 12.2761 16.5 12C16.5 11.7239 16.2761 11.5 16 11.5H8ZM6 6.5C5.72386 6.5 5.5 6.72386 5.5 7C5.50004 7.27611 5.72388 7.5 6 7.5H18C18.2761 7.5 18.5 7.27611 18.5 7C18.5 6.72386 18.2761 6.5 18 6.5H6Z" fill="black"/>
</svg>
