<svg width="24" height="24" viewBox="0 0 24 24" fill="none" xmlns="http://www.w3.org/2000/svg">
<path fill-rule="evenodd" clip-rule="evenodd" d="M8.5 3.5C9.28689 3.5 10.0279 3.87049 10.5 4.5L10.7998 4.90039C11.0831 5.278 11.5279 5.5 12 5.5H19C20.3807 5.5 21.5 6.61929 21.5 8V18C21.5 19.3807 20.3807 20.5 19 20.5H5C3.61929 20.5 2.5 19.3807 2.5 18V6C2.5 4.61929 3.61929 3.5 5 3.5H8.5ZM7 9.5C6.72386 9.5 6.5 9.72386 6.5 10C6.5 10.2761 6.72386 10.5 7 10.5H17C17.2761 10.5 17.5 10.2761 17.5 10C17.5 9.72386 17.2761 9.5 17 9.5H7Z" fill="black"/>
</svg>
