<svg width="24" height="24" viewBox="0 0 24 24" fill="none" xmlns="http://www.w3.org/2000/svg">
<path fill-rule="evenodd" clip-rule="evenodd" d="M8.5 3.5C9.28689 3.5 10.0279 3.87049 10.5 4.5L10.7998 4.90039C11.0831 5.278 11.5279 5.5 12 5.5H19C20.3807 5.5 21.5 6.61929 21.5 8V18C21.5 19.3807 20.3807 20.5 19 20.5H5C3.61929 20.5 2.5 19.3807 2.5 18V6C2.5 4.61929 3.61929 3.5 5 3.5H8.5ZM14.4756 10.5254C14.2803 10.3301 13.9628 10.3301 13.7676 10.5254L12 12.292L10.2324 10.5254C10.0372 10.3301 9.72065 10.3301 9.52539 10.5254C9.33025 10.7207 9.33017 11.0372 9.52539 11.2324L11.293 13L9.52539 14.7676C9.33017 14.9628 9.33025 15.2793 9.52539 15.4746C9.72065 15.6699 10.0372 15.6699 10.2324 15.4746L12 13.707L13.7676 15.4746C13.9628 15.6699 14.2803 15.6699 14.4756 15.4746C14.6704 15.2794 14.6706 14.9627 14.4756 14.7676L12.707 13L14.4756 11.2324C14.6706 11.0373 14.6704 10.7206 14.4756 10.5254Z" fill="black"/>
</svg>
