<svg width="24" height="24" viewBox="0 0 24 24" fill="none" xmlns="http://www.w3.org/2000/svg">
<path d="M8.5 3.5C9.28689 3.5 10.0279 3.87049 10.5 4.5L10.7998 4.90039C11.0831 5.278 11.5279 5.5 12 5.5H18C19.3807 5.5 20.5 6.61929 20.5 8V9.5H10.1631C8.95808 9.50016 7.9245 10.36 7.70508 11.5449L6.89746 15.9092C6.84727 16.1807 7.02637 16.4409 7.29785 16.4912C7.56933 16.5414 7.82961 16.3623 7.87988 16.0908L8.68848 11.7266C8.82024 11.0158 9.44024 10.5002 10.1631 10.5H21.6035C21.8308 10.5 22.0443 10.5507 22.2354 10.6396C22.2867 10.8465 22.2961 11.0682 22.251 11.2939L20.8115 18.4902C20.5778 19.6588 19.5521 20.5 18.3604 20.5H5C3.61929 20.5 2.5 19.3807 2.5 18V6C2.5 4.61929 3.61929 3.5 5 3.5H8.5Z" fill="black"/>
</svg>
