<svg width="24" height="24" viewBox="0 0 24 24" fill="none" xmlns="http://www.w3.org/2000/svg">
<path fill-rule="evenodd" clip-rule="evenodd" d="M8.5 3.5C9.28689 3.5 10.0279 3.87049 10.5 4.5L10.7998 4.90039C11.0831 5.278 11.5279 5.5 12 5.5H19C20.3807 5.5 21.5 6.61929 21.5 8V18C21.5 19.3807 20.3807 20.5 19 20.5H5C3.61929 20.5 2.5 19.3807 2.5 18V6C2.5 4.61929 3.61929 3.5 5 3.5H8.5ZM9 12.5C8.72386 12.5 8.5 12.7239 8.5 13C8.5 13.2761 8.72386 13.5 9 13.5H15C15.2761 13.5 15.5 13.2761 15.5 13C15.5 12.7239 15.2761 12.5 15 12.5H9Z" fill="black"/>
</svg>
