<svg width="24" height="24" viewBox="0 0 24 24" fill="none" xmlns="http://www.w3.org/2000/svg">
<path fill-rule="evenodd" clip-rule="evenodd" d="M8.5 3.5C9.28689 3.5 10.0279 3.87049 10.5 4.5L10.7998 4.90039C11.0831 5.278 11.5279 5.5 12 5.5H19C20.3807 5.5 21.5 6.61929 21.5 8V18C21.5 19.3807 20.3807 20.5 19 20.5H5C3.61929 20.5 2.5 19.3807 2.5 18V6C2.5 4.61929 3.61929 3.5 5 3.5H8.5ZM10.3535 9.64648C10.1583 9.45122 9.84175 9.45122 9.64648 9.64648L7 12.293C6.60953 12.6835 6.60953 13.3165 7 13.707L9.64648 16.3535C9.84175 16.5488 10.1583 16.5488 10.3535 16.3535C10.5488 16.1583 10.5488 15.8417 10.3535 15.6465L7.70703 13L10.3535 10.3535C10.5488 10.1583 10.5488 9.84175 10.3535 9.64648ZM14.3535 9.64648C14.1583 9.45122 13.8417 9.45122 13.6465 9.64648C13.4512 9.84175 13.4512 10.1583 13.6465 10.3535L16.293 13L13.6465 15.6465C13.4512 15.8417 13.4512 16.1583 13.6465 16.3535C13.8417 16.5488 14.1583 16.5488 14.3535 16.3535L17 13.707C17.3905 13.3165 17.3905 12.6835 17 12.293L14.3535 9.64648Z" fill="black"/>
</svg>
