<svg width="24" height="24" viewBox="0 0 24 24" fill="none" xmlns="http://www.w3.org/2000/svg">
<path fill-rule="evenodd" clip-rule="evenodd" d="M8.5 3.5C9.28689 3.5 10.0279 3.87049 10.5 4.5L10.7998 4.90039C11.0831 5.278 11.5279 5.5 12 5.5H19C20.3807 5.5 21.5 6.61929 21.5 8V18C21.5 19.3807 20.3807 20.5 19 20.5H5C3.61929 20.5 2.5 19.3807 2.5 18V6C2.5 4.61929 3.61929 3.5 5 3.5H8.5ZM15.3535 10.6465C15.1583 10.4512 14.8417 10.4512 14.6465 10.6465L11 14.293L9.35352 12.6465C9.15825 12.4512 8.84175 12.4512 8.64648 12.6465C8.45122 12.8417 8.45122 13.1583 8.64648 13.3535L10.4697 15.1768C10.7626 15.4696 11.2374 15.4696 11.5303 15.1768L15.3535 11.3535C15.5488 11.1583 15.5488 10.8417 15.3535 10.6465Z" fill="black"/>
</svg>
