<svg width="24" height="24" viewBox="0 0 24 24" fill="none" xmlns="http://www.w3.org/2000/svg">
<path fill-rule="evenodd" clip-rule="evenodd" d="M13.3096 2.5C13.6043 2.50009 13.8677 2.6722 13.9893 2.93262L14.0322 3.0498L14.7041 5.46875L16.8926 4.2334L17.0059 4.18164C17.2372 4.09777 17.4959 4.1326 17.6963 4.27539L17.792 4.35645L19.6436 6.20801C19.8816 6.44615 19.9321 6.81423 19.7666 7.10742L18.5303 9.29395L20.9512 9.96777C21.2754 10.0582 21.5 10.3538 21.5 10.6904V13.3096C21.5 13.6465 21.2748 13.942 20.9502 14.0322L18.5303 14.7041L19.7666 16.8926C19.9321 17.1858 19.8816 17.5539 19.6436 17.792L17.792 19.6436C17.5539 19.8817 17.1858 19.9321 16.8926 19.7666L14.7041 18.5293L14.0322 20.9502C13.9422 21.2748 13.6465 21.4999 13.3096 21.5H10.6904C10.3537 21.5 10.0581 21.2755 9.96777 20.9512L9.29395 18.5303L7.1084 19.7666C6.81525 19.9322 6.44718 19.8825 6.20898 19.6445L4.35645 17.792C4.1182 17.5539 4.06779 17.1859 4.2334 16.8926L5.46875 14.7041L3.0498 14.0322C2.72511 13.9421 2.5 13.6465 2.5 13.3096V10.6904C2.5 10.3537 2.72449 10.0581 3.04883 9.96777L5.46875 9.29297L4.23438 7.10742C4.06877 6.81416 4.11926 6.44617 4.35742 6.20801L6.20898 4.35645L6.30469 4.27539C6.50535 4.13247 6.76458 4.09729 6.99609 4.18164L7.1084 4.2334L9.29395 5.46777L9.96777 3.04883L10.0107 2.93262C10.1323 2.67219 10.3957 2.5 10.6904 2.5H13.3096ZM12 9.5C10.6193 9.5 9.5 10.6193 9.5 12C9.5 13.3807 10.6193 14.5 12 14.5C13.3807 14.5 14.5 13.3807 14.5 12C14.5 10.6193 13.3807 9.5 12 9.5Z" fill="black"/>
</svg>
