<svg width="24" height="24" viewBox="0 0 24 24" fill="none" xmlns="http://www.w3.org/2000/svg">
<path d="M10.555 15.4873C11.4549 15.9819 12.5457 15.9821 13.4456 15.4873L15.0003 14.6319V19.8848L12.7356 21.1592C12.2792 21.4159 11.7214 21.4157 11.2649 21.1592L4.26495 17.2217C3.79304 16.9561 3.50057 16.4566 3.5003 15.9151V11.6084L10.555 15.4873Z" fill="black"/>
<path d="M11.5618 8.25882C11.6949 8.01695 11.9996 7.9285 12.2415 8.06155L16.723 10.5274C17.202 10.791 17.5001 11.2941 17.5003 11.8408V20.5C17.5003 20.776 17.2763 20.9999 17.0003 21C16.7242 21 16.5003 20.7761 16.5003 20.5V11.8408C16.5001 11.6589 16.4008 11.4912 16.2415 11.4033L11.7591 8.93851C11.5172 8.80542 11.4287 8.50077 11.5618 8.25882Z" fill="black"/>
<path d="M20.5003 15.9151C20.5 16.4563 20.2072 16.956 19.7356 17.2217L19.0003 17.6348V12.4326L20.5003 11.6084V15.9151Z" fill="black"/>
<path d="M11.2776 2.82718C11.7276 2.58002 12.2731 2.57979 12.723 2.82718L20.6478 7.18558C21.6831 7.7556 21.6831 9.24444 20.6478 9.81448L18.8196 10.8194C18.5752 10.1457 18.0936 9.56948 17.4456 9.21292L12.9642 6.74808C11.9965 6.21585 10.7808 6.56868 10.2483 7.53616C9.71607 8.50393 10.0688 9.71961 11.0364 10.252L15.0003 12.4317V12.92L12.723 14.1729C12.2731 14.4202 11.7276 14.42 11.2776 14.1729L3.35284 9.81448C2.3167 9.24461 2.31675 7.7555 3.35284 7.18558L11.2776 2.82718Z" fill="black"/>
</svg>
