<svg width="24" height="24" viewBox="0 0 24 24" fill="none" xmlns="http://www.w3.org/2000/svg">
<path d="M10.555 15.4875C11.4549 15.982 12.5457 15.9822 13.4456 15.4875L15.0003 14.632V19.8849L12.7356 21.1593C12.2792 21.416 11.7214 21.4158 11.2649 21.1593L4.26495 17.2218C3.79304 16.9562 3.50057 16.4567 3.5003 15.9152V11.6086L10.555 15.4875Z" fill="black"/>
<path d="M11.5618 8.25894C11.6949 8.01707 11.9996 7.92862 12.2415 8.06168L16.723 10.5275C17.202 10.7911 17.5001 11.2942 17.5003 11.841V20.5002C17.5003 20.7762 17.2763 21 17.0003 21.0002C16.7242 21.0002 16.5003 20.7763 16.5003 20.5002V11.841C16.5001 11.659 16.4008 11.4914 16.2415 11.4035L11.7591 8.93863C11.5172 8.80554 11.4287 8.50089 11.5618 8.25894Z" fill="black"/>
<path d="M20.5003 15.9152C20.5 16.4564 20.2072 16.9561 19.7356 17.2218L19.0003 17.6349V12.4328L20.5003 11.6086V15.9152Z" fill="black"/>
<path d="M11.2776 2.8273C11.7276 2.58014 12.2731 2.57991 12.723 2.8273L20.6478 7.1857C21.6831 7.75572 21.6831 9.24457 20.6478 9.81461L18.8196 10.8195C18.5752 10.1458 18.0936 9.5696 17.4456 9.21304L12.9642 6.7482C11.9965 6.21597 10.7808 6.5688 10.2483 7.53628C9.71607 8.50405 10.0688 9.71973 11.0364 10.2521L15.0003 12.4318V12.9201L12.723 14.173C12.2731 14.4204 11.7276 14.4202 11.2776 14.173L3.35284 9.81461C2.3167 9.24473 2.31675 7.75562 3.35284 7.1857L11.2776 2.8273Z" fill="black"/>
</svg>
