<svg width="24" height="24" viewBox="0 0 24 24" fill="none" xmlns="http://www.w3.org/2000/svg">
<path d="M8 13.5C9.38071 13.5 10.5 14.6193 10.5 16V19C10.5 20.3807 9.38071 21.5 8 21.5H5C3.61929 21.5 2.5 20.3807 2.5 19V16C2.5 14.6193 3.61929 13.5 5 13.5H8Z" fill="black"/>
<path d="M17.5 14C17.7761 14 18 14.2239 18 14.5V17H20.5C20.7761 17 21 17.2239 21 17.5C21 17.7761 20.7761 18 20.5 18H18V20.5C18 20.7761 17.7761 21 17.5 21C17.2239 21 17 20.7761 17 20.5V18H14.5C14.2239 18 14 17.7761 14 17.5C14 17.2239 14.2239 17 14.5 17H17V14.5C17 14.2239 17.2239 14 17.5 14Z" fill="black"/>
<path d="M8 2.5C9.38071 2.5 10.5 3.61929 10.5 5V8C10.5 9.38071 9.38071 10.5 8 10.5H5C3.61929 10.5 2.5 9.38071 2.5 8V5C2.5 3.61929 3.61929 2.5 5 2.5H8Z" fill="black"/>
<path d="M19 2.5C20.3807 2.5 21.5 3.61929 21.5 5V8C21.5 9.38071 20.3807 10.5 19 10.5H16C14.6193 10.5 13.5 9.38071 13.5 8V5C13.5 3.61929 14.6193 2.5 16 2.5H19Z" fill="black"/>
</svg>
