<svg width="24" height="24" viewBox="0 0 24 24" fill="none" xmlns="http://www.w3.org/2000/svg">
<path d="M8 13.5C9.38071 13.5 10.5 14.6193 10.5 16V19C10.5 20.3807 9.38071 21.5 8 21.5H5C3.61929 21.5 2.5 20.3807 2.5 19V16C2.5 14.6193 3.61929 13.5 5 13.5H8Z" fill="black"/>
<path d="M19 13.5C20.3807 13.5 21.5 14.6193 21.5 16V19C21.5 20.3807 20.3807 21.5 19 21.5H16C14.6193 21.5 13.5 20.3807 13.5 19V16C13.5 14.6193 14.6193 13.5 16 13.5H19Z" fill="black"/>
<path d="M8 2.5C9.38071 2.5 10.5 3.61929 10.5 5V8C10.5 9.38071 9.38071 10.5 8 10.5H5C3.61929 10.5 2.5 9.38071 2.5 8V5C2.5 3.61929 3.61929 2.5 5 2.5H8Z" fill="black"/>
<path d="M19 2.5C20.3807 2.5 21.5 3.61929 21.5 5V8C21.5 9.38071 20.3807 10.5 19 10.5H16C14.6193 10.5 13.5 9.38071 13.5 8V5C13.5 3.61929 14.6193 2.5 16 2.5H19Z" fill="black"/>
</svg>
