<svg width="24" height="24" viewBox="0 0 24 24" fill="none" xmlns="http://www.w3.org/2000/svg">
<path d="M8 13.5C9.38071 13.5 10.5 14.6193 10.5 16V19C10.5 20.3807 9.38071 21.5 8 21.5H5C3.61929 21.5 2.5 20.3807 2.5 19V16C2.5 14.6193 3.61929 13.5 5 13.5H8Z" fill="black"/>
<path d="M19.2676 15.0254C19.4628 14.8301 19.7803 14.8301 19.9756 15.0254C20.1704 15.2206 20.1706 15.5373 19.9756 15.7324L18.207 17.5L19.9756 19.2676C20.1706 19.4627 20.1704 19.7794 19.9756 19.9746C19.7803 20.1699 19.4628 20.1699 19.2676 19.9746L17.5 18.207L15.7324 19.9746C15.5372 20.1699 15.2207 20.1699 15.0254 19.9746C14.8302 19.7793 14.8302 19.4628 15.0254 19.2676L16.793 17.5L15.0254 15.7324C14.8302 15.5372 14.8302 15.2207 15.0254 15.0254C15.2207 14.8301 15.5372 14.8301 15.7324 15.0254L17.5 16.792L19.2676 15.0254Z" fill="black"/>
<path d="M8 2.5C9.38071 2.5 10.5 3.61929 10.5 5V8C10.5 9.38071 9.38071 10.5 8 10.5H5C3.61929 10.5 2.5 9.38071 2.5 8V5C2.5 3.61929 3.61929 2.5 5 2.5H8Z" fill="black"/>
<path d="M19 2.5C20.3807 2.5 21.5 3.61929 21.5 5V8C21.5 9.38071 20.3807 10.5 19 10.5H16C14.6193 10.5 13.5 9.38071 13.5 8V5C13.5 3.61929 14.6193 2.5 16 2.5H19Z" fill="black"/>
</svg>
