<svg width="24" height="24" viewBox="0 0 24 24" fill="none" xmlns="http://www.w3.org/2000/svg">
<path d="M10.7861 3.10284C11.5411 2.68349 12.4589 2.68349 13.2139 3.10284L20.2139 6.99151C21.0075 7.43244 21.5 8.2692 21.5 9.17706V19.0003C21.4999 20.3809 20.3806 21.5003 19 21.5003H15.5C14.9477 21.5003 14.5 21.0526 14.5 20.5003V15.5003C14.5 14.948 14.0523 14.5003 13.5 14.5003H10.5C9.94772 14.5003 9.5 14.948 9.5 15.5003V20.5003C9.5 21.0526 9.05228 21.5003 8.5 21.5003H5C3.61937 21.5003 2.50014 20.3809 2.5 19.0003V9.17706C2.50002 8.2692 2.99255 7.43244 3.78613 6.99151L10.7861 3.10284Z" fill="black"/>
</svg>
