<svg width="24" height="24" viewBox="0 0 24 24" fill="none" xmlns="http://www.w3.org/2000/svg">
<path fill-rule="evenodd" clip-rule="evenodd" d="M17.3955 3.5C18.5673 3.5 19.5818 4.31416 19.8359 5.45801L21.4404 12.6768C21.48 12.8548 21.5 13.0373 21.5 13.2197V18C21.5 19.3807 20.3807 20.5 19 20.5H5C3.61929 20.5 2.5 19.3807 2.5 18V13.2197C2.5 13.0373 2.52 12.8548 2.55957 12.6768L4.16406 5.45801C4.41825 4.31416 5.43275 3.5 6.60449 3.5H17.3955ZM4 13.5V18C4 18.5523 4.44772 19 5 19H19C19.5523 19 20 18.5523 20 18V13.5H16.8281C16.1652 13.5001 15.5293 13.7637 15.0605 14.2324L14.2324 15.0605C13.9512 15.3418 13.5696 15.4999 13.1719 15.5H10.8281C10.4304 15.4999 10.0488 15.3418 9.76758 15.0605L8.93945 14.2324C8.52929 13.8223 7.99113 13.5696 7.41895 13.5127L7.17188 13.5H4Z" fill="black"/>
</svg>
