<svg width="24" height="24" viewBox="0 0 24 24" fill="none" xmlns="http://www.w3.org/2000/svg">
<path fill-rule="evenodd" clip-rule="evenodd" d="M17.3955 3.5C18.5673 3.5 19.5818 4.31416 19.8359 5.45801L21.4404 12.6768C21.48 12.8548 21.5 13.0373 21.5 13.2197V18C21.5 19.3807 20.3807 20.5 19 20.5H5C3.61929 20.5 2.5 19.3807 2.5 18V13.2197C2.5 13.0373 2.52 12.8548 2.55957 12.6768L4.16406 5.45801C4.41825 4.31416 5.43275 3.5 6.60449 3.5H17.3955ZM4 18C4 18.5523 4.44772 19 5 19H19C19.5523 19 20 18.5523 20 18V14H16.8281C16.1652 14.0001 15.5293 14.2637 15.0605 14.7324L14.2324 15.5605C13.9512 15.8418 13.5696 15.9999 13.1719 16H10.8281C10.4304 15.9999 10.0488 15.8418 9.76758 15.5605L8.93945 14.7324C8.52929 14.3223 7.99113 14.0696 7.41895 14.0127L7.17188 14H4V18ZM12.707 6C12.3165 5.60953 11.6835 5.60953 11.293 6L9.14648 8.14648C8.95122 8.34175 8.95122 8.65825 9.14648 8.85352C9.34175 9.04878 9.65825 9.04878 9.85352 8.85352L11.5 7.20703V12C11.5 12.2761 11.7239 12.5 12 12.5C12.2761 12.5 12.5 12.2761 12.5 12V7.20703L14.1465 8.85352C14.3417 9.04878 14.6583 9.04878 14.8535 8.85352C15.0488 8.65825 15.0488 8.34175 14.8535 8.14648L12.707 6Z" fill="black"/>
</svg>
