<svg width="24" height="24" viewBox="0 0 24 24" fill="none" xmlns="http://www.w3.org/2000/svg">
<path fill-rule="evenodd" clip-rule="evenodd" d="M19 2.5C20.3807 2.50004 21.5 3.61931 21.5 5V19C21.5 20.3807 20.3807 21.5 19 21.5H5C3.61931 21.5 2.50004 20.3807 2.5 19V5C2.5 3.61929 3.61929 2.5 5 2.5H19ZM7 16.5C6.72386 16.5 6.5 16.7239 6.5 17C6.50004 17.2761 6.72388 17.5 7 17.5H13C13.2761 17.5 13.5 17.2761 13.5 17C13.5 16.7239 13.2761 16.5 13 16.5H7ZM7 11.5C6.72386 11.5 6.5 11.7239 6.5 12C6.50004 12.2761 6.72388 12.5 7 12.5H17C17.2761 12.5 17.5 12.2761 17.5 12C17.5 11.7239 17.2761 11.5 17 11.5H7ZM7 6.5C6.72386 6.5 6.5 6.72386 6.5 7C6.50004 7.27611 6.72388 7.5 7 7.5H17C17.2761 7.5 17.5 7.27611 17.5 7C17.5 6.72386 17.2761 6.5 17 6.5H7Z" fill="black"/>
</svg>
