<svg width="24" height="24" viewBox="0 0 24 24" fill="none" xmlns="http://www.w3.org/2000/svg">
<path fill-rule="evenodd" clip-rule="evenodd" d="M21.5 19C21.5 20.3807 20.3807 21.5 19 21.5H5C3.61929 21.5 2.5 20.3807 2.5 19V5C2.5 3.61929 3.61929 2.5 5 2.5H19C20.3807 2.5 21.5 3.61929 21.5 5V19ZM8.5 9C8.5 8.72386 8.27614 8.5 8 8.5H7C6.72386 8.5 6.5 8.72386 6.5 9C6.5 9.27614 6.72386 9.5 7 9.5H8C8.27614 9.5 8.5 9.27614 8.5 9ZM13 9C13 8.72386 12.7761 8.5 12.5 8.5H11.5C11.2239 8.5 11 8.72386 11 9C11 9.27614 11.2239 9.5 11.5 9.5H12.5C12.7761 9.5 13 9.27614 13 9ZM17.5 9C17.5 8.72386 17.2761 8.5 17 8.5H16C15.7239 8.5 15.5 8.72386 15.5 9C15.5 9.27614 15.7239 9.5 16 9.5H17C17.2761 9.5 17.5 9.27614 17.5 9Z" fill="black"/>
</svg>
