<svg width="24" height="24" viewBox="0 0 24 24" fill="none" xmlns="http://www.w3.org/2000/svg">
<path fill-rule="evenodd" clip-rule="evenodd" d="M19 2.5C20.3807 2.5 21.5 3.61929 21.5 5V19C21.5 20.3807 20.3807 21.5 19 21.5H5C3.61929 21.5 2.5 20.3807 2.5 19V5C2.5 3.61929 3.61929 2.5 5 2.5H19ZM9 15.5C8.72386 15.5 8.5 15.7239 8.5 16V17C8.5 17.2761 8.72386 17.5 9 17.5C9.27614 17.5 9.5 17.2761 9.5 17V16C9.5 15.7239 9.27614 15.5 9 15.5ZM9 11C8.72386 11 8.5 11.2239 8.5 11.5V12.5C8.5 12.7761 8.72386 13 9 13C9.27614 13 9.5 12.7761 9.5 12.5V11.5C9.5 11.2239 9.27614 11 9 11ZM9 6.5C8.72386 6.5 8.5 6.72386 8.5 7V8C8.5 8.27614 8.72386 8.5 9 8.5C9.27614 8.5 9.5 8.27614 9.5 8V7C9.5 6.72386 9.27614 6.5 9 6.5Z" fill="black"/>
</svg>
