<svg width="24" height="24" viewBox="0 0 24 24" fill="none" xmlns="http://www.w3.org/2000/svg">
<path fill-rule="evenodd" clip-rule="evenodd" d="M19 2.5C20.3807 2.5 21.5 3.61929 21.5 5V19C21.5 20.3807 20.3807 21.5 19 21.5H5C3.61929 21.5 2.5 20.3807 2.5 19V5C2.5 3.61929 3.61929 2.5 5 2.5H19ZM7 15.5C6.72386 15.5 6.5 15.7239 6.5 16V16.5C6.5 17.0523 6.94772 17.5 7.5 17.5H8C8.27614 17.5 8.5 17.2761 8.5 17C8.5 16.7239 8.27614 16.5 8 16.5H7.5V16C7.5 15.7239 7.27614 15.5 7 15.5ZM11.5 16.5C11.2239 16.5 11 16.7239 11 17C11 17.2761 11.2239 17.5 11.5 17.5H12.5C12.7761 17.5 13 17.2761 13 17C13 16.7239 12.7761 16.5 12.5 16.5H11.5ZM17 15.5C16.7239 15.5 16.5 15.7239 16.5 16V16.5H16C15.7239 16.5 15.5 16.7239 15.5 17C15.5 17.2761 15.7239 17.5 16 17.5H16.5C17.0523 17.5 17.5 17.0523 17.5 16.5V16C17.5 15.7239 17.2761 15.5 17 15.5ZM7 11C6.72386 11 6.5 11.2239 6.5 11.5V12.5C6.5 12.7761 6.72386 13 7 13C7.27614 13 7.5 12.7761 7.5 12.5V11.5C7.5 11.2239 7.27614 11 7 11ZM17 11C16.7239 11 16.5 11.2239 16.5 11.5V12.5C16.5 12.7761 16.7239 13 17 13C17.2761 13 17.5 12.7761 17.5 12.5V11.5C17.5 11.2239 17.2761 11 17 11ZM7.5 6.5C6.94772 6.5 6.5 6.94772 6.5 7.5V8C6.5 8.27614 6.72386 8.5 7 8.5C7.27614 8.5 7.5 8.27614 7.5 8V7.5H8C8.27614 7.5 8.5 7.27614 8.5 7C8.5 6.72386 8.27614 6.5 8 6.5H7.5ZM16 6.5C15.7239 6.5 15.5 6.72386 15.5 7C15.5 7.27614 15.7239 7.5 16 7.5H16.5V8C16.5 8.27614 16.7239 8.5 17 8.5C17.2761 8.5 17.5 8.27614 17.5 8V7.5C17.5 6.94772 17.0523 6.5 16.5 6.5H16ZM11.5 6.5C11.2239 6.5 11 6.72386 11 7C11 7.27614 11.2239 7.5 11.5 7.5H12.5C12.7761 7.5 13 7.27614 13 7C13 6.72386 12.7761 6.5 12.5 6.5H11.5Z" fill="black"/>
</svg>
