<svg width="24" height="24" viewBox="0 0 24 24" fill="none" xmlns="http://www.w3.org/2000/svg">
<path d="M19 2.5C20.3807 2.50004 21.5 3.61931 21.5 5V19C21.5 20.3807 20.3807 21.5 19 21.5H5C3.61931 21.5 2.50004 20.3807 2.5 19V5C2.5 3.61929 3.61929 2.5 5 2.5H19ZM12 5.5C11.7239 5.5 11.5 5.72386 11.5 6V11.5H6C5.72386 11.5 5.5 11.7239 5.5 12C5.50004 12.2761 5.72388 12.5 6 12.5H11.5V18C11.5 18.2761 11.7239 18.5 12 18.5C12.2761 18.5 12.5 18.2761 12.5 18V12.5H18C18.2761 12.5 18.5 12.2761 18.5 12C18.5 11.7239 18.2761 11.5 18 11.5H12.5V6C12.5 5.72388 12.2761 5.50003 12 5.5Z" fill="black"/>
</svg>
