<svg width="24" height="24" viewBox="0 0 24 24" fill="none" xmlns="http://www.w3.org/2000/svg">
<path d="M6.00098 16.5C6.27712 16.5 6.50098 16.7239 6.50098 17C6.50098 17.2761 6.27712 17.5 6.00098 17.5C5.72483 17.5 5.5 17.2761 5.5 17C5.5 16.7239 5.72483 16.5 6.00098 16.5Z" fill="black"/>
<path d="M9.00098 16.5C9.27712 16.5 9.50098 16.7239 9.50098 17C9.50098 17.2761 9.27712 17.5 9.00098 17.5C8.72483 17.5 8.5 17.2761 8.5 17C8.5 16.7239 8.72483 16.5 9.00098 16.5Z" fill="black"/>
<path d="M18 16.5C18.2761 16.5 18.5 16.7239 18.5 17C18.5 17.2761 18.2761 17.5 18 17.5H12C11.7239 17.5 11.5 17.2761 11.5 17C11.5 16.7239 11.7239 16.5 12 16.5H18Z" fill="black"/>
<path fill-rule="evenodd" clip-rule="evenodd" d="M17.3604 3.5C18.5521 3.5 19.5778 4.34121 19.8115 5.50977L21.4512 13.708C21.4834 13.8694 21.5 14.0337 21.5 14.1982V18C21.5 19.3807 20.3807 20.5 19 20.5H5C3.61929 20.5 2.5 19.3807 2.5 18V14.1982C2.5 14.0337 2.51657 13.8694 2.54883 13.708L4.18848 5.50977C4.42219 4.34121 5.44795 3.5 6.63965 3.5H17.3604ZM5 15C4.44772 15 4 15.4477 4 16V18C4 18.5523 4.44772 19 5 19H19C19.5523 19 20 18.5523 20 18V16C20 15.4477 19.5523 15 19 15H5Z" fill="black"/>
</svg>
