<svg width="24" height="24" viewBox="0 0 24 24" fill="none" xmlns="http://www.w3.org/2000/svg">
<path d="M17.5586 2.5C18.6345 2.50005 19.5903 3.18831 19.9307 4.20898L21.3721 8.53418C21.4569 8.7889 21.5 9.05573 21.5 9.32422V19C21.5 20.3807 20.3807 21.5 19 21.5H5C3.61929 21.5 2.5 20.3807 2.5 19V9.32422C2.50004 9.05573 2.54306 8.7889 2.62793 8.53418L4.06934 4.20898C4.40968 3.18831 5.36547 2.50005 6.44141 2.5H17.5586ZM4 19C4 19.5523 4.44772 20 5 20H19C19.5523 20 20 19.5523 20 19V15.5H4V19ZM6.00098 17.5C6.27712 17.5 6.50098 17.7239 6.50098 18C6.50098 18.2761 6.27712 18.5 6.00098 18.5H6C5.72386 18.5 5.5 18.2761 5.5 18C5.5 17.7239 5.72386 17.5 6 17.5H6.00098ZM9.00098 17.5C9.27712 17.5 9.50098 17.7239 9.50098 18C9.50098 18.2761 9.27712 18.5 9.00098 18.5H9C8.72386 18.5 8.5 18.2761 8.5 18C8.5 17.7239 8.72386 17.5 9 17.5H9.00098ZM18 17.5C18.2761 17.5 18.5 17.7239 18.5 18C18.5 18.2761 18.2761 18.5 18 18.5H12C11.7239 18.5 11.5 18.2761 11.5 18C11.5 17.7239 11.7239 17.5 12 17.5H18ZM5 10C4.44772 10 4 10.4477 4 11V14.5H20V11C20 10.4477 19.5523 10 19 10H5ZM6.00098 11.5C6.27712 11.5 6.50098 11.7239 6.50098 12C6.50098 12.2761 6.27712 12.5 6.00098 12.5H6C5.72386 12.5 5.5 12.2761 5.5 12C5.5 11.7239 5.72386 11.5 6 11.5H6.00098ZM9.00098 11.5C9.27712 11.5 9.50098 11.7239 9.50098 12C9.50098 12.2761 9.27712 12.5 9.00098 12.5H9C8.72386 12.5 8.5 12.2761 8.5 12C8.5 11.7239 8.72386 11.5 9 11.5H9.00098ZM18 11.5C18.2761 11.5 18.5 11.7239 18.5 12C18.5 12.2761 18.2761 12.5 18 12.5H12C11.7239 12.5 11.5 12.2761 11.5 12C11.5 11.7239 11.7239 11.5 12 11.5H18Z" fill="black"/>
</svg>
