<svg width="24" height="24" viewBox="0 0 24 24" fill="none" xmlns="http://www.w3.org/2000/svg">
<path d="M9.5 15.9998C9.5 17.3805 10.6193 18.4998 12 18.4998C13.3807 18.4998 14.5 17.3805 14.5 15.9998V7.99978H18C19.3806 7.99978 20.4999 9.11917 20.5 10.4998V18.9998C20.5 20.3805 19.3807 21.4998 18 21.4998H6C4.61929 21.4998 3.5 20.3805 3.5 18.9998V10.4998C3.50011 9.11917 4.61936 7.99978 6 7.99978H9.5V15.9998Z" fill="black"/>
<path d="M11.293 1.99978C11.6835 1.60945 12.3165 1.60945 12.707 1.99978L15.3535 4.64627C15.5487 4.8415 15.5487 5.15803 15.3535 5.3533C15.1583 5.54856 14.8417 5.54856 14.6465 5.3533L12.5 3.20682V15.9998C12.5 16.2759 12.2761 16.4998 12 16.4998C11.7239 16.4998 11.5 16.2759 11.5 15.9998V3.20682L9.35352 5.3533C9.15825 5.54856 8.84175 5.54856 8.64648 5.3533C8.45133 5.15803 8.45126 4.8415 8.64648 4.64627L11.293 1.99978Z" fill="black"/>
</svg>
