<svg width="24" height="24" viewBox="0 0 24 24" fill="none" xmlns="http://www.w3.org/2000/svg">
<path d="M16 16C16.9338 16 17.7153 16.6406 17.9355 17.5059C17.9567 17.5031 17.9781 17.5 18 17.5H20C20.2761 17.5 20.5 17.7239 20.5 18C20.5 18.2761 20.2761 18.5 20 18.5H18C17.978 18.5 17.9568 18.4959 17.9355 18.4932C17.7156 19.3589 16.9341 20 16 20C15.0658 20 14.2833 19.359 14.0635 18.4932C14.0426 18.4958 14.0216 18.5 14 18.5H4C3.72386 18.5 3.5 18.2761 3.5 18C3.5 17.7239 3.72386 17.5 4 17.5H14C14.0216 17.5 14.0426 17.5032 14.0635 17.5059C14.2836 16.6405 15.0661 16 16 16Z" fill="black"/>
<path d="M8 10C8.93378 10 9.71532 10.6406 9.93555 11.5059C9.95672 11.5031 9.97808 11.5 10 11.5H20C20.2761 11.5 20.5 11.7239 20.5 12C20.5 12.2761 20.2761 12.5 20 12.5H10C9.97804 12.5 9.95676 12.4959 9.93555 12.4932C9.71565 13.3589 8.93411 14 8 14C7.06581 14 6.2833 13.359 6.06348 12.4932C6.04257 12.4958 6.02163 12.5 6 12.5H4C3.72386 12.5 3.5 12.2761 3.5 12C3.5 11.7239 3.72386 11.5 4 11.5H6C6.02158 11.5 6.04261 11.5032 6.06348 11.5059C6.28362 10.6405 7.06614 10 8 10Z" fill="black"/>
<path d="M14 4C14.9338 4 15.7153 4.64063 15.9355 5.50586C15.9567 5.50313 15.9781 5.5 16 5.5H20C20.2761 5.5 20.5 5.72386 20.5 6C20.5 6.27614 20.2761 6.5 20 6.5H16C15.978 6.5 15.9568 6.49591 15.9355 6.49316C15.7156 7.35886 14.9341 8 14 8C13.0658 8 12.2833 7.35898 12.0635 6.49316C12.0426 6.49583 12.0216 6.5 12 6.5H4C3.72386 6.5 3.5 6.27614 3.5 6C3.5 5.72386 3.72386 5.5 4 5.5H12C12.0216 5.5 12.0426 5.50321 12.0635 5.50586C12.2836 4.64051 13.0661 4 14 4Z" fill="black"/>
</svg>
