<svg width="24" height="24" viewBox="0 0 24 24" fill="none" xmlns="http://www.w3.org/2000/svg">
<path d="M16 8C16 7.06622 16.6406 6.28468 17.5059 6.06445C17.5031 6.04328 17.5 6.02192 17.5 6V4C17.5 3.72386 17.7239 3.5 18 3.5C18.2761 3.5 18.5 3.72386 18.5 4V6C18.5 6.02196 18.4959 6.04324 18.4932 6.06445C19.3589 6.28435 20 7.06589 20 8C20 8.93419 19.359 9.7167 18.4932 9.93652C18.4958 9.95743 18.5 9.97837 18.5 10V20C18.5 20.2761 18.2761 20.5 18 20.5C17.7239 20.5 17.5 20.2761 17.5 20V10C17.5 9.97842 17.5032 9.95739 17.5059 9.93652C16.6405 9.71638 16 8.93386 16 8Z" fill="black"/>
<path d="M10 16C10 15.0662 10.6406 14.2847 11.5059 14.0645C11.5031 14.0433 11.5 14.0219 11.5 14V4C11.5 3.72386 11.7239 3.5 12 3.5C12.2761 3.5 12.5 3.72386 12.5 4V14C12.5 14.022 12.4959 14.0432 12.4932 14.0645C13.3589 14.2844 14 15.0659 14 16C14 16.9342 13.359 17.7167 12.4932 17.9365C12.4958 17.9574 12.5 17.9784 12.5 18V20C12.5 20.2761 12.2761 20.5 12 20.5C11.7239 20.5 11.5 20.2761 11.5 20V18C11.5 17.9784 11.5032 17.9574 11.5059 17.9365C10.6405 17.7164 10 16.9339 10 16Z" fill="black"/>
<path d="M4 10C4 9.06622 4.64063 8.28468 5.50586 8.06445C5.50313 8.04328 5.5 8.02192 5.5 8V4C5.5 3.72386 5.72386 3.5 6 3.5C6.27614 3.5 6.5 3.72386 6.5 4V8C6.5 8.02196 6.49591 8.04324 6.49316 8.06445C7.35886 8.28435 8 9.06589 8 10C8 10.9342 7.35898 11.7167 6.49316 11.9365C6.49583 11.9574 6.5 11.9784 6.5 12V20C6.5 20.2761 6.27614 20.5 6 20.5C5.72386 20.5 5.5 20.2761 5.5 20V12C5.5 11.9784 5.50321 11.9574 5.50586 11.9365C4.64051 11.7164 4 10.9339 4 10Z" fill="black"/>
</svg>
