<svg width="24" height="24" viewBox="0 0 24 24" fill="none" xmlns="http://www.w3.org/2000/svg">
<path fill-rule="evenodd" clip-rule="evenodd" d="M19 2.5C20.3807 2.5 21.5 3.61929 21.5 5V19C21.5 20.3807 20.3807 21.5 19 21.5H5C3.61929 21.5 2.5 20.3807 2.5 19V5C2.5 3.61929 3.61929 2.5 5 2.5H19ZM5 16.5C4.72386 16.5 4.5 16.7239 4.5 17V18C4.5 18.8284 5.17157 19.5 6 19.5H7C7.27614 19.5 7.5 19.2761 7.5 19C7.5 18.7239 7.27614 18.5 7 18.5H6C5.72386 18.5 5.5 18.2761 5.5 18V17C5.5 16.7239 5.27614 16.5 5 16.5ZM11 18.5C10.7239 18.5 10.5 18.7239 10.5 19C10.5 19.2761 10.7239 19.5 11 19.5H13C13.2761 19.5 13.5 19.2761 13.5 19C13.5 18.7239 13.2761 18.5 13 18.5H11ZM19 16.5C18.7239 16.5 18.5 16.7239 18.5 17V18C18.5 18.2761 18.2761 18.5 18 18.5H17C16.7239 18.5 16.5 18.7239 16.5 19C16.5 19.2761 16.7239 19.5 17 19.5H18C18.8284 19.5 19.5 18.8284 19.5 18V17C19.5 16.7239 19.2761 16.5 19 16.5ZM5 10.5C4.72386 10.5 4.5 10.7239 4.5 11V13C4.5 13.2761 4.72386 13.5 5 13.5C5.27614 13.5 5.5 13.2761 5.5 13V11C5.5 10.7239 5.27614 10.5 5 10.5ZM19 10.5C18.7239 10.5 18.5 10.7239 18.5 11V13C18.5 13.2761 18.7239 13.5 19 13.5C19.2761 13.5 19.5 13.2761 19.5 13V11C19.5 10.7239 19.2761 10.5 19 10.5ZM6 4.5C5.17157 4.5 4.5 5.17157 4.5 6V7C4.5 7.27614 4.72386 7.5 5 7.5C5.27614 7.5 5.5 7.27614 5.5 7V6C5.5 5.72386 5.72386 5.5 6 5.5H7C7.27614 5.5 7.5 5.27614 7.5 5C7.5 4.72386 7.27614 4.5 7 4.5H6ZM17 4.5C16.7239 4.5 16.5 4.72386 16.5 5C16.5 5.27614 16.7239 5.5 17 5.5H18C18.2761 5.5 18.5 5.72386 18.5 6V7C18.5 7.27614 18.7239 7.5 19 7.5C19.2761 7.5 19.5 7.27614 19.5 7V6C19.5 5.17157 18.8284 4.5 18 4.5H17ZM11 4.5C10.7239 4.5 10.5 4.72386 10.5 5C10.5 5.27614 10.7239 5.5 11 5.5H13C13.2761 5.5 13.5 5.27614 13.5 5C13.5 4.72386 13.2761 4.5 13 4.5H11Z" fill="black"/>
</svg>
