<svg width="24" height="24" viewBox="0 0 24 24" fill="none" xmlns="http://www.w3.org/2000/svg">
<path d="M21 17.5C21.2761 17.5 21.5 17.7239 21.5 18C21.5 18.2761 21.2761 18.5 21 18.5H3C2.72386 18.5 2.5 18.2761 2.5 18C2.5 17.7239 2.72386 17.5 3 17.5H21Z" fill="black"/>
<path d="M21 14C21.2761 14 21.5 14.2239 21.5 14.5C21.5 14.7761 21.2761 15.001 21 15.001H19.5C19.2239 15.001 19 14.7771 19 14.501C19 14.2248 19.2239 14 19.5 14H21Z" fill="black"/>
<path d="M4.5 13.999C4.77614 13.999 5 14.2229 5 14.499C5 14.7752 4.77614 15 4.5 15H3C2.72386 15 2.5 14.7761 2.5 14.5C2.5 14.2239 2.72386 13.999 3 13.999H4.5Z" fill="black"/>
<path d="M12 10C14.3908 10 16.3458 11.8642 16.4912 14.2188C16.5187 14.6642 16.156 15 15.75 15H8.25C7.84404 15 7.48132 14.6642 7.50879 14.2188C7.65424 11.8642 9.60915 10 12 10Z" fill="black"/>
<path d="M18.0107 7.78223C18.206 7.58717 18.5226 7.58717 18.7178 7.78223C18.913 7.97744 18.9139 8.29496 18.7188 8.49023L17.6582 9.55078C17.463 9.746 17.1464 9.74591 16.9512 9.55078L16.9502 9.5498C16.7551 9.35453 16.755 9.03798 16.9502 8.84277L18.0107 7.78223Z" fill="black"/>
<path d="M5.2832 7.78223C5.47847 7.58696 5.79497 7.58696 5.99023 7.78223L7.05078 8.84277C7.24582 9.03805 7.24597 9.35462 7.05078 9.5498C6.85552 9.74507 6.53804 9.74507 6.34277 9.5498L5.28223 8.48926C5.08712 8.29398 5.08799 7.97744 5.2832 7.78223Z" fill="black"/>
<path d="M12 5C12.2761 5 12.5 5.22386 12.5 5.5V7C12.5 7.27614 12.2761 7.5 12 7.5C11.7239 7.5 11.5 7.27614 11.5 7V5.5C11.5 5.22386 11.7239 5 12 5Z" fill="black"/>
</svg>
