<svg width="24" height="24" viewBox="0 0 24 24" fill="none" xmlns="http://www.w3.org/2000/svg">
<path d="M12 20C12.2761 20 12.5 20.2239 12.5 20.5V21C12.5 21.2761 12.2761 21.5 12 21.5C11.7239 21.5 11.499 21.2761 11.499 21V20.5L11.5088 20.3994C11.5553 20.1714 11.7583 20 12 20Z" fill="black"/>
<path d="M5.71289 17.5918C5.90694 17.4635 6.17088 17.4855 6.3418 17.6562L6.34277 17.6572C6.53788 17.8525 6.53798 18.169 6.34277 18.3643L5.98926 18.7178C5.79403 18.9128 5.47745 18.9128 5.28223 18.7178C5.08702 18.5226 5.08614 18.205 5.28125 18.0098L5.63477 17.6562L5.71289 17.5918Z" fill="black"/>
<path d="M17.6572 17.6572C17.8525 17.462 18.169 17.462 18.3643 17.6572L18.7178 18.0107C18.9129 18.206 18.913 18.5226 18.7178 18.7178C18.5225 18.913 18.205 18.913 18.0098 18.7178L17.6562 18.3643L17.5918 18.2861C17.4639 18.0921 17.4865 17.828 17.6572 17.6572Z" fill="black"/>
<path d="M12 7.5C14.4853 7.5 16.5 9.51472 16.5 12C16.5 14.4853 14.4853 16.5 12 16.5C9.51472 16.5 7.5 14.4853 7.5 12C7.5 9.51472 9.51472 7.5 12 7.5Z" fill="black"/>
<path d="M21 11.5C21.2761 11.5 21.5 11.7239 21.5 12C21.5 12.2761 21.2761 12.501 21 12.501H20.5L20.3994 12.4912C20.1714 12.4447 20 12.2427 20 12.001C20 11.7248 20.2239 11.5 20.5 11.5H21Z" fill="black"/>
<path d="M3.60059 11.5088C3.82855 11.5553 4 11.7573 4 11.999C4 12.2752 3.77614 12.5 3.5 12.5H3C2.72386 12.5 2.5 12.2761 2.5 12C2.5 11.7239 2.72386 11.499 3 11.499H3.5L3.60059 11.5088Z" fill="black"/>
<path d="M5.2832 5.28223C5.47847 5.08696 5.79497 5.08696 5.99023 5.28223L6.34375 5.63574L6.4082 5.71387C6.5361 5.90791 6.51451 6.17202 6.34375 6.34277C6.14849 6.53804 5.831 6.53804 5.63574 6.34277L5.28223 5.98926C5.08712 5.79398 5.08799 5.47744 5.2832 5.28223Z" fill="black"/>
<path d="M18.0107 5.28223C18.206 5.08717 18.5226 5.08717 18.7178 5.28223C18.913 5.47744 18.9139 5.79496 18.7188 5.99023L18.3652 6.34375L18.2871 6.4082C18.0931 6.53646 17.8291 6.51454 17.6582 6.34375L17.6572 6.34277C17.4621 6.1475 17.462 5.83095 17.6572 5.63574L18.0107 5.28223Z" fill="black"/>
<path d="M12.001 2.5C12.2771 2.5 12.501 2.72386 12.501 3V3.5L12.4912 3.60059C12.4447 3.82855 12.2427 4 12.001 4C11.7248 4 11.5 3.77614 11.5 3.5V3C11.5 2.72386 11.7248 2.5 12.001 2.5Z" fill="black"/>
</svg>
