<svg width="24" height="24" viewBox="0 0 24 24" fill="none" xmlns="http://www.w3.org/2000/svg">
<path d="M12 19C12.2761 19 12.5 19.2239 12.5 19.5V21C12.5 21.2761 12.2761 21.5 12 21.5C11.7239 21.5 11.499 21.2761 11.499 21V19.5C11.499 19.2239 11.7239 19 12 19Z" fill="black"/>
<path d="M6.3418 16.9492C6.53701 16.754 6.85356 16.7541 7.04883 16.9492L7.0498 16.9502C7.24491 17.1455 7.24502 17.462 7.0498 17.6572L5.98926 18.7178C5.79403 18.9128 5.47745 18.9128 5.28223 18.7178C5.08702 18.5226 5.08614 18.205 5.28125 18.0098L6.3418 16.9492Z" fill="black"/>
<path d="M16.9502 16.9502C17.1455 16.7549 17.462 16.7549 17.6572 16.9502L18.7178 18.0107C18.9129 18.206 18.913 18.5226 18.7178 18.7178C18.5225 18.913 18.205 18.913 18.0098 18.7178L16.9492 17.6572C16.7542 17.4619 16.755 17.1454 16.9502 16.9502Z" fill="black"/>
<path d="M12 7.5C14.4853 7.5 16.5 9.51472 16.5 12C16.5 14.4853 14.4853 16.5 12 16.5C9.51472 16.5 7.5 14.4853 7.5 12C7.5 9.51472 9.51472 7.5 12 7.5Z" fill="black"/>
<path d="M21 11.5C21.2761 11.5 21.5 11.7239 21.5 12C21.5 12.2761 21.2761 12.501 21 12.501H19.5C19.2239 12.501 19 12.2771 19 12.001C19 11.7248 19.2239 11.5 19.5 11.5H21Z" fill="black"/>
<path d="M4.5 11.499C4.77614 11.499 5 11.7229 5 11.999C5 12.2752 4.77614 12.5 4.5 12.5H3C2.72386 12.5 2.5 12.2761 2.5 12C2.5 11.7239 2.72386 11.499 3 11.499H4.5Z" fill="black"/>
<path d="M18.0107 5.28223C18.206 5.08717 18.5226 5.08717 18.7178 5.28223C18.913 5.47744 18.9139 5.79496 18.7188 5.99023L17.6582 7.05078C17.463 7.246 17.1464 7.24591 16.9512 7.05078L16.9502 7.0498C16.7551 6.85453 16.755 6.53798 16.9502 6.34277L18.0107 5.28223Z" fill="black"/>
<path d="M5.2832 5.28223C5.47847 5.08696 5.79497 5.08696 5.99023 5.28223L7.05078 6.34277C7.24582 6.53805 7.24597 6.85462 7.05078 7.0498C6.85552 7.24507 6.53804 7.24507 6.34277 7.0498L5.28223 5.98926C5.08712 5.79398 5.08799 5.47744 5.2832 5.28223Z" fill="black"/>
<path d="M12.001 2.5C12.2771 2.5 12.501 2.72386 12.501 3V4.5C12.501 4.77614 12.2771 5 12.001 5C11.7248 5 11.5 4.77614 11.5 4.5V3C11.5 2.72386 11.7248 2.5 12.001 2.5Z" fill="black"/>
</svg>
