<svg width="24" height="24" viewBox="0 0 24 24" fill="none" xmlns="http://www.w3.org/2000/svg">
<path d="M21 17.5001C21.2761 17.5001 21.5 17.724 21.5 18.0001C21.4999 18.2762 21.2761 18.5001 21 18.5001H3C2.72391 18.5001 2.50008 18.2762 2.5 18.0001C2.5 17.724 2.72386 17.5001 3 17.5001H21Z" fill="black"/>
<path d="M4.5 14.0001C4.77614 14.0001 5 14.224 5 14.5001C4.99992 14.7762 4.77609 15.0001 4.5 15.0001H3C2.72391 15.0001 2.50008 14.7762 2.5 14.5001C2.5 14.224 2.72386 14.0001 3 14.0001H4.5Z" fill="black"/>
<path d="M12 10.0001C14.3908 10.0001 16.3458 11.8644 16.4912 14.2189C16.5186 14.6643 16.1559 15.0001 15.75 15.0001H8.25C7.84409 15.0001 7.48141 14.6643 7.50879 14.2189C7.65424 11.8644 9.60915 10.0001 12 10.0001Z" fill="black"/>
<path d="M21 14.0001C21.2761 14.0001 21.5 14.224 21.5 14.5001C21.4999 14.7762 21.2761 15.0001 21 15.0001H19.5C19.2239 15.0001 19.0001 14.7762 19 14.5001C19 14.224 19.2239 14.0001 19.5 14.0001H21Z" fill="black"/>
<path d="M5.28223 7.78236C5.47747 7.5872 5.79402 7.5872 5.98926 7.78236L7.0498 8.8429C7.24504 9.03814 7.24499 9.35467 7.0498 9.54994C6.85454 9.7452 6.53804 9.7452 6.34277 9.54994L5.28223 8.48939C5.08704 8.29412 5.08699 7.97759 5.28223 7.78236Z" fill="black"/>
<path d="M18.0098 7.78236C18.205 7.5872 18.5216 7.5872 18.7168 7.78236C18.912 7.97759 18.912 8.29412 18.7168 8.48939L17.6562 9.54994C17.461 9.7452 17.1445 9.7452 16.9492 9.54994C16.754 9.35467 16.754 9.03814 16.9492 8.8429L18.0098 7.78236Z" fill="black"/>
<path d="M11.293 2.00013C11.6835 1.60966 12.3165 1.60966 12.707 2.00013L14.8535 4.14662C15.0487 4.34188 15.0488 4.65841 14.8535 4.85365C14.6583 5.04881 14.3417 5.04881 14.1465 4.85365L12.5 3.20716V7.00013C12.4999 7.2762 12.2761 7.50013 12 7.50013C11.7239 7.50013 11.5001 7.2762 11.5 7.00013V3.20716L9.85352 4.85365C9.65827 5.04881 9.34173 5.04881 9.14648 4.85365C8.95125 4.65841 8.9513 4.34188 9.14648 4.14662L11.293 2.00013Z" fill="black"/>
</svg>
