<svg width="24" height="24" viewBox="0 0 24 24" fill="none" xmlns="http://www.w3.org/2000/svg">
<path d="M21 17.5C21.2761 17.5 21.5 17.7239 21.5 18C21.5 18.2761 21.2761 18.5 21 18.5H3C2.72386 18.5 2.5 18.2761 2.5 18C2.5 17.7239 2.72386 17.5 3 17.5H21Z" fill="black"/>
<path d="M4.5 14C4.77614 14 5 14.2239 5 14.5C5 14.7761 4.77614 15 4.5 15H3C2.72386 15 2.5 14.7761 2.5 14.5C2.5 14.2239 2.72386 14 3 14H4.5Z" fill="black"/>
<path d="M12 10C14.3908 10 16.3458 11.8642 16.4912 14.2188C16.5187 14.6642 16.156 15 15.75 15H8.25C7.84404 15 7.48132 14.6642 7.50879 14.2188C7.65424 11.8642 9.60915 10 12 10Z" fill="black"/>
<path d="M21 14C21.2761 14 21.5 14.2239 21.5 14.5C21.5 14.7761 21.2761 15 21 15H19.5C19.2239 15 19 14.7761 19 14.5C19 14.2239 19.2239 14 19.5 14H21Z" fill="black"/>
<path d="M5.28223 7.78223C5.47745 7.58717 5.79403 7.58717 5.98926 7.78223L7.0498 8.84277C7.24502 9.03798 7.24491 9.35453 7.0498 9.5498C6.85454 9.74507 6.53804 9.74507 6.34277 9.5498L5.28223 8.48926C5.08712 8.29398 5.08702 7.97744 5.28223 7.78223Z" fill="black"/>
<path d="M18.0098 7.78223C18.205 7.58717 18.5216 7.58717 18.7168 7.78223C18.912 7.97744 18.9119 8.29398 18.7168 8.48926L17.6562 9.5498C17.461 9.74507 17.1445 9.74507 16.9492 9.5498C16.7541 9.35453 16.754 9.03798 16.9492 8.84277L18.0098 7.78223Z" fill="black"/>
<path d="M12 1.5C12.2761 1.5 12.5 1.72386 12.5 2V5.79297L14.1465 4.14648C14.3417 3.95122 14.6583 3.95122 14.8535 4.14648C15.0488 4.34175 15.0488 4.65825 14.8535 4.85352L12.707 7C12.3165 7.39047 11.6835 7.39047 11.293 7L9.14648 4.85352C8.95122 4.65825 8.95122 4.34175 9.14648 4.14648C9.34175 3.95122 9.65825 3.95122 9.85352 4.14648L11.5 5.79297V2C11.5 1.72386 11.7239 1.5 12 1.5Z" fill="black"/>
</svg>
