<svg width="24" height="24" viewBox="0 0 24 24" fill="none" xmlns="http://www.w3.org/2000/svg">
<path fill-rule="evenodd" clip-rule="evenodd" d="M19 2.5C20.3807 2.50004 21.5 3.61934 21.5 5V19C21.5 20.3807 20.3807 21.5 19 21.5H5C3.61931 21.5 2.50004 20.3807 2.5 19V5C2.50003 3.61932 3.61931 2.5 5 2.5H19ZM6 17.5C5.72388 17.5 5.50003 17.7239 5.5 18C5.50003 18.2761 5.72388 18.5 6 18.5H12C12.2761 18.5 12.5 18.2761 12.5 18C12.5 17.7239 12.2761 17.5 12 17.5H6ZM6 13.5C5.72388 13.5 5.50003 13.7239 5.5 14C5.50004 14.2761 5.72388 14.5 6 14.5H18C18.2761 14.5 18.5 14.2761 18.5 14C18.5 13.7239 18.2761 13.5 18 13.5H6ZM6 9.5C5.72388 9.5 5.50003 9.72389 5.5 10C5.50003 10.2761 5.72388 10.5 6 10.5H12C12.2761 10.5 12.5 10.2761 12.5 10C12.5 9.72389 12.2761 9.5 12 9.5H6ZM6 5.5C5.72388 5.5 5.50003 5.72389 5.5 6C5.50004 6.27611 5.72388 6.5 6 6.5H18C18.2761 6.5 18.5 6.27611 18.5 6C18.5 5.72389 18.2761 5.5 18 5.5H6Z" fill="black"/>
</svg>
