<svg width="24" height="24" viewBox="0 0 24 24" fill="none" xmlns="http://www.w3.org/2000/svg">
<path fill-rule="evenodd" clip-rule="evenodd" d="M19 2.5C20.3807 2.50004 21.5 3.61935 21.5 5V19C21.5 20.3807 20.3807 21.5 19 21.5H5C3.61931 21.5 2.50004 20.3807 2.5 19V5C2.50004 3.61932 3.61931 2.5 5 2.5H19ZM6.5 5.5C5.94774 5.5 5.50004 5.94775 5.5 6.5V7C5.50004 7.27611 5.72388 7.5 6 7.5C6.27612 7.5 6.49996 7.27611 6.5 7V6.5H11.5V17.5H10C9.72388 17.5 9.50004 17.7239 9.5 18C9.50004 18.2761 9.72388 18.5 10 18.5H14C14.2761 18.5 14.5 18.2761 14.5 18C14.5 17.7239 14.2761 17.5 14 17.5H12.5V6.5H17.5V7C17.5 7.27611 17.7239 7.5 18 7.5C18.2761 7.5 18.5 7.27611 18.5 7V6.5C18.5 5.94775 18.0523 5.5 17.5 5.5H6.5Z" fill="black"/>
</svg>
