<svg width="24" height="24" viewBox="0 0 24 24" fill="none" xmlns="http://www.w3.org/2000/svg">
<path fill-rule="evenodd" clip-rule="evenodd" d="M7 2.5C7.27614 2.5 7.5 2.72386 7.5 3H16.5C16.5 2.72386 16.7239 2.5 17 2.5H19C20.3807 2.5 21.5 3.61929 21.5 5V7C21.5 7.27614 21.2761 7.5 21 7.5V16.5C21.2761 16.5 21.5 16.7239 21.5 17V19C21.5 20.3807 20.3807 21.5 19 21.5H17C16.7239 21.5 16.5 21.2761 16.5 21H7.5C7.5 21.2761 7.27614 21.5 7 21.5H5C3.61929 21.5 2.5 20.3807 2.5 19V17C2.5 16.7239 2.72386 16.5 3 16.5V7.5C2.72386 7.5 2.5 7.27614 2.5 7V5C2.5 3.61929 3.61929 2.5 5 2.5H7ZM7.5 16C7.22386 16 7 16.2239 7 16.5C7 16.7761 7.22386 17 7.5 17H12.5C12.7761 17 13 16.7761 13 16.5C13 16.2239 12.7761 16 12.5 16H7.5ZM7.5 11.5C7.22386 11.5 7 11.7239 7 12C7 12.2761 7.22386 12.5 7.5 12.5H16.5C16.7761 12.5 17 12.2761 17 12C17 11.7239 16.7761 11.5 16.5 11.5H7.5ZM7.5 7C7.22386 7 7 7.22386 7 7.5C7 7.77614 7.22386 8 7.5 8H16.5C16.7761 8 17 7.77614 17 7.5C17 7.22386 16.7761 7 16.5 7H7.5Z" fill="black"/>
</svg>
