<svg width="24" height="24" viewBox="0 0 24 24" fill="none" xmlns="http://www.w3.org/2000/svg">
<path fill-rule="evenodd" clip-rule="evenodd" d="M14 2.5C15.3807 2.5 16.5 3.61929 16.5 5V6.5H21C21.2761 6.5 21.5 6.72386 21.5 7C21.5 7.27614 21.2761 7.5 21 7.5H19.4824L19.0684 19.0889C19.0203 20.4339 17.9162 21.4999 16.5703 21.5H7.42969C6.08377 21.4999 4.97968 20.4339 4.93164 19.0889L4.51758 7.5H3C2.72386 7.5 2.5 7.27614 2.5 7C2.5 6.72386 2.72386 6.5 3 6.5H7.5V5C7.5 3.61929 8.61929 2.5 10 2.5H14ZM9.48242 10.5C9.20655 10.5099 8.9903 10.7417 9 11.0176L9.21484 17.0176C9.2247 17.2935 9.45646 17.5099 9.73242 17.5C10.0082 17.49 10.2236 17.2582 10.2139 16.9824L10 10.9824C9.99015 10.7065 9.75827 10.4903 9.48242 10.5ZM14.5186 10.5C14.2426 10.4901 14.0108 10.7065 14.001 10.9824L13.7861 16.9824C13.7764 17.2583 13.9927 17.4901 14.2686 17.5C14.5442 17.5094 14.7763 17.2933 14.7861 17.0176L15 11.0176C15.0097 10.742 14.7941 10.5103 14.5186 10.5ZM10 3.5C9.17157 3.5 8.5 4.17157 8.5 5V6.5H15.5V5C15.5 4.17157 14.8284 3.5 14 3.5H10Z" fill="black"/>
</svg>
