<svg width="24" height="24" viewBox="0 0 24 24" fill="none" xmlns="http://www.w3.org/2000/svg">
<path fill-rule="evenodd" clip-rule="evenodd" d="M10.2852 4.38672C11.0621 3.09246 12.938 3.09243 13.7149 4.38672L21.5655 17.4707C22.3648 18.8036 21.4049 20.4998 19.8506 20.5H4.14946C2.59494 20.5 1.63497 18.8037 2.43461 17.4707L10.2852 4.38672ZM6.25102 15.9688C6.01448 15.8272 5.70663 15.9034 5.5645 16.1397L5.05766 16.9844C4.65779 17.6507 5.13809 18.4986 5.91508 18.499H6.92973C7.20571 18.4988 7.42973 18.2751 7.42973 17.999C7.42918 17.7235 7.20537 17.4992 6.92973 17.499H5.91508L6.42289 16.6543C6.56433 16.4177 6.48738 16.1107 6.25102 15.9688ZM10.9854 17.499C10.7097 17.4992 10.4859 17.7234 10.4854 17.999C10.4854 18.2751 10.7094 18.4989 10.9854 18.499H13.0137C13.2897 18.4988 13.5137 18.2751 13.5137 17.999C13.5132 17.7235 13.2894 17.4992 13.0137 17.499H10.9854ZM18.4336 16.1397C18.2914 15.9037 17.9845 15.827 17.7481 15.9688C17.5116 16.1107 17.4348 16.4176 17.5762 16.6543L18.0831 17.499H17.0694C16.7937 17.4992 16.5699 17.7234 16.5694 17.999C16.5694 18.2751 16.7934 18.4989 17.0694 18.499H18.0831C18.8603 18.499 19.3404 17.6509 18.9405 16.9844L18.4336 16.1397ZM9.29301 10.8984C9.05658 10.7571 8.74961 10.8344 8.60747 11.0703L7.59282 12.7598C7.45083 12.9964 7.52829 13.3041 7.76469 13.4463C8.00145 13.5882 8.30819 13.5111 8.45024 13.2744L9.46489 11.585C9.60643 11.3483 9.52957 11.0404 9.29301 10.8984ZM15.3916 11.0703C15.2494 10.8344 14.9425 10.757 14.7061 10.8984C14.4696 11.0404 14.3928 11.3483 14.5342 11.585L15.5489 13.2744C15.6909 13.5112 15.9976 13.5883 16.2344 13.4463C16.471 13.3041 16.5483 12.9965 16.4063 12.7598L15.3916 11.0703ZM12.8575 6.84571C12.4689 6.19928 11.5301 6.19918 11.1416 6.84571L10.6348 7.69043C10.4928 7.92705 10.5703 8.23474 10.8067 8.37696C11.0434 8.51889 11.3502 8.4418 11.4922 8.20508L12 7.36036L12.5069 8.20508C12.6489 8.44181 12.9557 8.51891 13.1924 8.37696C13.429 8.23481 13.5063 7.92714 13.3643 7.69043L12.8575 6.84571Z" fill="black"/>
</svg>
