<svg width="24" height="24" viewBox="0 0 24 24" fill="none" xmlns="http://www.w3.org/2000/svg">
<path fill-rule="evenodd" clip-rule="evenodd" d="M18.5 2.5C19.8807 2.5 21 3.61929 21 5V19C21 20.3807 19.8807 21.5 18.5 21.5H5.5C4.11929 21.5 3 20.3807 3 19V5C3 3.61929 4.11929 2.5 5.5 2.5H18.5ZM10.5 13C10.2239 13 10 13.2239 10 13.5V16.1768C9.99995 16.5213 9.91059 16.9922 9.65332 17.3613C9.41545 17.7026 9.00716 18 8.25 18C7.49284 18 7.08455 17.7026 6.84668 17.3613C6.58941 16.9922 6.50005 16.5213 6.5 16.1768V13.5C6.5 13.2239 6.27614 13 6 13C5.72386 13 5.5 13.2239 5.5 13.5V16.1768C5.50005 16.6556 5.6178 17.3462 6.02637 17.9326C6.45467 18.5472 7.17186 19 8.25 19C9.32814 19 10.0453 18.5472 10.4736 17.9326C10.8822 17.3462 11 16.6556 11 16.1768V13.5C11 13.2239 10.7761 13 10.5 13ZM18.335 13.1279C18.1297 12.9432 17.8127 12.9598 17.6279 13.165L15.75 15.251L13.8721 13.165C13.6873 12.9598 13.3703 12.9432 13.165 13.1279C12.9598 13.3127 12.9432 13.6297 13.1279 13.835L15.0762 16L13.1279 18.165C12.9432 18.3703 12.9598 18.6873 13.165 18.8721C13.3703 19.0568 13.6873 19.0402 13.8721 18.835L15.75 16.748L17.6279 18.835C17.8127 19.0402 18.1297 19.0568 18.335 18.8721C18.5402 18.6873 18.5568 18.3703 18.3721 18.165L16.4229 16L18.3721 13.835C18.5568 13.6297 18.5402 13.3127 18.335 13.1279ZM10.5 5C10.2239 5 10 5.22386 10 5.5V8.17676C9.99995 8.52133 9.91059 8.99216 9.65332 9.36133C9.41545 9.70264 9.00716 10 8.25 10C7.49284 10 7.08455 9.70264 6.84668 9.36133C6.58941 8.99216 6.50005 8.52133 6.5 8.17676V5.5C6.5 5.22386 6.27614 5 6 5C5.72386 5 5.5 5.22386 5.5 5.5V8.17676C5.50005 8.65558 5.6178 9.34619 6.02637 9.93262C6.45467 10.5472 7.17186 11 8.25 11C9.32814 11 10.0453 10.5472 10.4736 9.93262C10.8822 9.34619 11 8.65558 11 8.17676V5.5C11 5.22386 10.7761 5 10.5 5ZM13.5 5C13.2239 5 13 5.22386 13 5.5V10.5C13 10.7761 13.2239 11 13.5 11C13.7761 11 14 10.7761 14 10.5V5.5C14 5.22386 13.7761 5 13.5 5ZM18.1436 5.02148C17.8791 4.94214 17.6008 5.09195 17.5215 5.35645L16.0215 10.3564C15.9421 10.6209 16.0919 10.8992 16.3564 10.9785C16.6209 11.0579 16.8992 10.9081 16.9785 10.6436L18.4785 5.64355C18.5579 5.37906 18.4081 5.10083 18.1436 5.02148Z" fill="black"/>
</svg>
