<svg width="24" height="24" viewBox="0 0 24 24" fill="none" xmlns="http://www.w3.org/2000/svg">
<path d="M12 2.5C17.2467 2.50004 21.5 6.75332 21.5 12C21.5 17.2466 17.2466 21.5 12 21.5C6.75332 21.5 2.50004 17.2467 2.5 12C2.5 6.75329 6.75329 2.5 12 2.5ZM15.5361 8.46484C15.3409 8.26963 15.0244 8.26973 14.8291 8.46484L12 11.293L9.17188 8.46484C8.97661 8.26958 8.66011 8.26958 8.46484 8.46484C8.26962 8.66011 8.26959 8.97663 8.46484 9.17188L11.293 12L8.46484 14.8291C8.26977 15.0244 8.26964 15.3409 8.46484 15.5361C8.66009 15.7308 8.97677 15.731 9.17188 15.5361L12 12.707L14.8291 15.5361C15.0244 15.7307 15.3411 15.7311 15.5361 15.5361C15.7312 15.3411 15.7307 15.0244 15.5361 14.8291L12.707 12L15.5361 9.17188C15.7311 8.97678 15.7308 8.6601 15.5361 8.46484Z" fill="black"/>
</svg>
