<svg width="24" height="24" viewBox="0 0 24 24" fill="none" xmlns="http://www.w3.org/2000/svg">
<path d="M18.6465 4.64645C18.8417 4.45118 19.1583 4.45118 19.3535 4.64645C19.5488 4.84171 19.5488 5.15822 19.3535 5.35348L12.707 12L19.3535 18.6464C19.5488 18.8417 19.5488 19.1582 19.3535 19.3535C19.1583 19.5487 18.8417 19.5487 18.6465 19.3535L12 12.707L5.35352 19.3535C5.15825 19.5487 4.84175 19.5487 4.64648 19.3535C4.45122 19.1582 4.45122 18.8417 4.64648 18.6464L11.293 12L4.64648 5.35348C4.45122 5.15822 4.45122 4.84171 4.64648 4.64645C4.84175 4.45118 5.15825 4.45118 5.35352 4.64645L12 11.2929L18.6465 4.64645Z" fill="black"/>
</svg>
