<svg width="24" height="24" viewBox="0 0 24 24" fill="none" xmlns="http://www.w3.org/2000/svg">
<path d="M21 9.5C21 9.77614 20.7761 10 20.5 10H7.5C7.22386 10 7 9.77614 7 9.5V6.5C7 6.22386 7.22386 6 7.5 6L20.5 6C20.7761 6 21 6.22386 21 6.5V9.5Z" fill="#8A38F5" fill-opacity="0.25"/>
<path d="M13 17.5C13 17.7761 12.7761 18 12.5 18H7.5C7.22386 18 7 17.7761 7 17.5V14.5C7 14.2239 7.22386 14 7.5 14H12.5C12.7761 14 13 14.2239 13 14.5V17.5Z" fill="#8A38F5" fill-opacity="0.25"/>
<path d="M2 21V3C2 2.44772 2.44772 2 3 2C3.55228 2 4 2.44772 4 3V21C4 21.5523 3.55228 22 3 22C2.44772 22 2 21.5523 2 21ZM8 17H12V15H8V17ZM8 9H20V7H8V9ZM14 17.5C14 18.3284 13.3284 19 12.5 19H7.5C6.67157 19 6 18.3284 6 17.5V14.5C6 13.6716 6.67157 13 7.5 13H12.5C13.3284 13 14 13.6716 14 14.5V17.5ZM22 9.5C22 10.3284 21.3284 11 20.5 11H7.5C6.67157 11 6 10.3284 6 9.5V6.5C6 5.67157 6.67157 5 7.5 5H20.5C21.3284 5 22 5.67157 22 6.5V9.5Z" fill="black"/>
</svg>
