<svg width="24" height="24" viewBox="0 0 24 24" fill="none" xmlns="http://www.w3.org/2000/svg">
<path d="M9.5 21C9.77614 21 10 20.7761 10 20.5V7.5C10 7.22386 9.77614 7 9.5 7H6.5C6.22386 7 6 7.22386 6 7.5V20.5C6 20.7761 6.22386 21 6.5 21H9.5Z" fill="#8A38F5" fill-opacity="0.25"/>
<path d="M17.5 13C17.7761 13 18 12.7761 18 12.5V7.5C18 7.22386 17.7761 7 17.5 7H14.5C14.2239 7 14 7.22386 14 7.5V12.5C14 12.7761 14.2239 13 14.5 13H17.5Z" fill="#8A38F5" fill-opacity="0.25"/>
<path d="M21 2H3C2.44772 2 2 2.44772 2 3C2 3.55228 2.44772 4 3 4H21C21.5523 4 22 3.55228 22 3C22 2.44772 21.5523 2 21 2ZM17 8V12H15V8H17ZM9 8V20H7V8H9ZM17.5 14C18.3284 14 19 13.3284 19 12.5V7.5C19 6.67157 18.3284 6 17.5 6H14.5C13.6716 6 13 6.67157 13 7.5V12.5C13 13.3284 13.6716 14 14.5 14H17.5ZM9.5 22C10.3284 22 11 21.3284 11 20.5V7.5C11 6.67157 10.3284 6 9.5 6H6.5C5.67157 6 5 6.67157 5 7.5V20.5C5 21.3284 5.67157 22 6.5 22H9.5Z" fill="black"/>
</svg>
