<svg width="24" height="24" viewBox="0 0 24 24" fill="none" xmlns="http://www.w3.org/2000/svg">
<path d="M9.5 3C9.77614 3 10 3.22386 10 3.5V16.5C10 16.7761 9.77614 17 9.5 17H6.5C6.22386 17 6 16.7761 6 16.5V3.5C6 3.22386 6.22386 3 6.5 3H9.5Z" fill="#8A38F5" fill-opacity="0.25"/>
<path d="M17.5 11C17.7761 11 18 11.2239 18 11.5V16.5C18 16.7761 17.7761 17 17.5 17H14.5C14.2239 17 14 16.7761 14 16.5V11.5C14 11.2239 14.2239 11 14.5 11H17.5Z" fill="#8A38F5" fill-opacity="0.25"/>
<path d="M21 22H3C2.44772 22 2 21.5523 2 21C2 20.4477 2.44772 20 3 20H21C21.5523 20 22 20.4477 22 21C22 21.5523 21.5523 22 21 22ZM17 16V12H15V16H17ZM9 16V4H7V16H9ZM17.5 10C18.3284 10 19 10.6716 19 11.5V16.5C19 17.3284 18.3284 18 17.5 18H14.5C13.6716 18 13 17.3284 13 16.5V11.5C13 10.6716 13.6716 10 14.5 10H17.5ZM9.5 2C10.3284 2 11 2.67157 11 3.5V16.5C11 17.3284 10.3284 18 9.5 18H6.5C5.67157 18 5 17.3284 5 16.5V3.5C5 2.67157 5.67157 2 6.5 2H9.5Z" fill="black"/>
</svg>
