<svg width="24" height="24" viewBox="0 0 24 24" fill="none" xmlns="http://www.w3.org/2000/svg">
<path d="M9.5 16C9.77614 16 10 16.2239 10 16.5V20.5C10 20.7761 9.77614 21 9.5 21H6.5C6.22386 21 6 20.7761 6 20.5V16.5C6 16.2239 6.22386 16 6.5 16H9.5Z" fill="#8A38F5" fill-opacity="0.25"/>
<path d="M17.5 16C17.7761 16 18 16.2239 18 16.5V18.5C18 18.7761 17.7761 19 17.5 19H14.5C14.2239 19 14 18.7761 14 18.5V16.5C14 16.2239 14.2239 16 14.5 16H17.5Z" fill="#8A38F5" fill-opacity="0.25"/>
<path d="M9.5 3C9.77614 3 10 3.22386 10 3.5V7.5C10 7.77614 9.77614 8 9.5 8H6.5C6.22386 8 6 7.77614 6 7.5V3.5C6 3.22386 6.22386 3 6.5 3H9.5Z" fill="#8A38F5" fill-opacity="0.25"/>
<path d="M17.5 5C17.7761 5 18 5.22386 18 5.5V7.5C18 7.77614 17.7761 8 17.5 8H14.5C14.2239 8 14 7.77614 14 7.5V5.5C14 5.22386 14.2239 5 14.5 5H17.5Z" fill="#8A38F5" fill-opacity="0.25"/>
<path d="M21 13H3C2.44772 13 2 12.5523 2 12C2 11.4477 2.44772 11 3 11H21C21.5523 11 22 11.4477 22 12C22 12.5523 21.5523 13 21 13ZM17 7V6H15V7H17ZM17 18V17H15V18H17ZM9 7V4H7V7H9ZM9 20V17H7V20H9ZM17.5 15C18.3284 15 19 15.6716 19 16.5V18.5C19 19.3284 18.3284 20 17.5 20H14.5C13.6716 20 13 19.3284 13 18.5V16.5C13 15.6716 13.6716 15 14.5 15H17.5ZM17.5 4C18.3284 4 19 4.67157 19 5.5V7.5C19 8.32843 18.3284 9 17.5 9H14.5C13.6716 9 13 8.32843 13 7.5V5.5C13 4.67157 13.6716 4 14.5 4H17.5ZM9.5 15C10.3284 15 11 15.6716 11 16.5V20.5C11 21.3284 10.3284 22 9.5 22H6.5C5.67157 22 5 21.3284 5 20.5V16.5C5 15.6716 5.67157 15 6.5 15H9.5ZM9.5 2C10.3284 2 11 2.67157 11 3.5V7.5C11 8.32843 10.3284 9 9.5 9H6.5C5.67157 9 5 8.32843 5 7.5V3.5C5 2.67157 5.67157 2 6.5 2H9.5Z" fill="black"/>
</svg>
