<svg width="24" height="24" viewBox="0 0 24 24" fill="none" xmlns="http://www.w3.org/2000/svg">
<path d="M3 9.5C3 9.77614 3.22386 10 3.5 10H16.5C16.7761 10 17 9.77614 17 9.5V6.5C17 6.22386 16.7761 6 16.5 6L3.5 6C3.22386 6 3 6.22386 3 6.5V9.5Z" fill="#8A38F5" fill-opacity="0.25"/>
<path d="M11 17.5C11 17.7761 11.2239 18 11.5 18H16.5C16.7761 18 17 17.7761 17 17.5V14.5C17 14.2239 16.7761 14 16.5 14H11.5C11.2239 14 11 14.2239 11 14.5V17.5Z" fill="#8A38F5" fill-opacity="0.25"/>
<path d="M22 21V3C22 2.44772 21.5523 2 21 2C20.4477 2 20 2.44772 20 3V21C20 21.5523 20.4477 22 21 22C21.5523 22 22 21.5523 22 21ZM16 17H12V15H16V17ZM16 9H4V7H16V9ZM10 17.5C10 18.3284 10.6716 19 11.5 19H16.5C17.3284 19 18 18.3284 18 17.5V14.5C18 13.6716 17.3284 13 16.5 13H11.5C10.6716 13 10 13.6716 10 14.5V17.5ZM2 9.5C2 10.3284 2.67157 11 3.5 11H16.5C17.3284 11 18 10.3284 18 9.5V6.5C18 5.67157 17.3284 5 16.5 5H3.5C2.67157 5 2 5.67157 2 6.5V9.5Z" fill="black"/>
</svg>
