<svg width="24" height="24" viewBox="0 0 24 24" fill="none" xmlns="http://www.w3.org/2000/svg">
<path d="M4 7H20V19C20 20.1046 19.1046 21 18 21H6C4.89543 21 4 20.1046 4 19V7Z" fill="#8A38F5" fill-opacity="0.25"/>
<path d="M19 8H5V19C5 19.5523 5.44772 20 6 20H18C18.5523 20 19 19.5523 19 19V8ZM13.4141 11.1719C13.8046 10.7814 14.4386 10.7814 14.8291 11.1719C15.2192 11.5624 15.2194 12.1955 14.8291 12.5859L13.4141 14L14.8291 15.4141C15.2194 15.8045 15.2192 16.4376 14.8291 16.8281C14.4386 17.2186 13.8046 17.2186 13.4141 16.8281L12 15.4141L10.5859 16.8281C10.1954 17.2186 9.5624 17.2186 9.17188 16.8281C8.78146 16.4376 8.78139 15.8046 9.17188 15.4141L10.5859 14L9.17188 12.5859C8.78139 12.1954 8.78146 11.5624 9.17188 11.1719C9.5624 10.7814 10.1954 10.7814 10.5859 11.1719L12 12.585L13.4141 11.1719ZM4 4V6H20V4H4ZM22 6C22 6.73976 21.5971 7.3835 21 7.72949V19C21 20.6569 19.6569 22 18 22H6C4.34315 22 3 20.6569 3 19V7.72949C2.4029 7.3835 2 6.73976 2 6V4C2 2.89543 2.89543 2 4 2H20C21.1046 2 22 2.89543 22 4V6Z" fill="black"/>
</svg>
