<svg width="24" height="24" viewBox="0 0 24 24" fill="none" xmlns="http://www.w3.org/2000/svg">
<path d="M20 12L15.5 16.5H6C4.89543 16.5 4 15.6046 4 14.5V9.5C4 8.39543 4.89543 7.5 6 7.5H15.5L20 12Z" fill="#8A38F5" fill-opacity="0.25"/>
<path d="M14.793 6.79295C15.1835 6.40243 15.8165 6.40243 16.207 6.79295L20.3535 10.9394C20.9392 11.5252 20.9393 12.4748 20.3535 13.0605L16.207 17.207C15.8165 17.5975 15.1835 17.5975 14.793 17.207C14.4024 16.8165 14.4024 16.1835 14.793 15.793L17.5859 13H4C3.44772 13 3 12.5523 3 12C3 11.4477 3.44772 11 4 11H17.5859L14.793 8.20702C14.4024 7.81649 14.4024 7.18348 14.793 6.79295Z" fill="black"/>
</svg>
