<svg width="24" height="24" viewBox="0 0 24 24" fill="none" xmlns="http://www.w3.org/2000/svg">
<path d="M6.34314 6.34314V12.7071L13.0607 19.4246C13.8417 20.2057 15.108 20.2057 15.8891 19.4246L19.4246 15.8891C20.2057 15.108 20.2057 13.8417 19.4246 13.0607L12.7071 6.34314H6.34314Z" fill="#8A38F5" fill-opacity="0.25"/>
<path d="M13.707 6.34315C13.707 5.79087 13.2594 5.34326 12.7071 5.34326L6.8431 5.34326C6.01472 5.34329 5.34329 6.01471 5.34326 6.8431V12.7071C5.34326 13.2594 5.79087 13.707 6.34315 13.707C6.89544 13.707 7.34305 13.2594 7.34305 12.7071V8.75726L16.9498 18.364C17.3403 18.7545 17.9734 18.7545 18.364 18.364C18.7545 17.9734 18.7545 17.3403 18.364 16.9498L8.75726 7.34305L12.7071 7.34305C13.2594 7.34305 13.707 6.89544 13.707 6.34315Z" fill="black"/>
</svg>
