<svg width="24" height="24" viewBox="0 0 24 24" fill="none" xmlns="http://www.w3.org/2000/svg">
<path d="M17.6568 6.34314H11.2929L4.57535 13.0607C3.7943 13.8417 3.7943 15.108 4.57535 15.8891L8.11088 19.4246C8.89193 20.2057 10.1583 20.2057 10.9393 19.4246L17.6568 12.7071V6.34314Z" fill="#8A38F5" fill-opacity="0.25"/>
<path d="M17.6568 13.707C18.2091 13.707 18.6567 13.2594 18.6567 12.7071V6.8431C18.6567 6.01472 17.9853 5.34329 17.1569 5.34326H11.2929C10.7406 5.34326 10.293 5.79087 10.293 6.34315C10.293 6.89544 10.7406 7.34305 11.2929 7.34305H15.2427L5.63603 16.9498C5.24551 17.3403 5.24551 17.9734 5.63603 18.364C6.02656 18.7545 6.65972 18.7545 7.05025 18.364L16.657 8.75726V12.7071C16.657 13.2594 17.1046 13.707 17.6568 13.707Z" fill="black"/>
</svg>
