<svg width="24" height="24" viewBox="0 0 24 24" fill="none" xmlns="http://www.w3.org/2000/svg">
<path d="M3 5C3 3.89543 3.89543 3 5 3H19C20.1046 3 21 3.89543 21 5V19C21 20.1046 20.1046 21 19 21H5C3.89543 21 3 20.1046 3 19V5Z" fill="#8A38F5" fill-opacity="0.25"/>
<path d="M20 5C20 4.44772 19.5523 4 19 4H5C4.44772 4 4 4.44772 4 5V19C4 19.5523 4.44772 20 5 20H19C19.5523 20 20 19.5523 20 19V5ZM11 17V9.41406L8.70703 11.707C8.31651 12.0976 7.68349 12.0976 7.29297 11.707C6.90244 11.3165 6.90244 10.6835 7.29297 10.293L10.9395 6.64648L11.0537 6.54395C11.6036 6.09549 12.3964 6.0955 12.9463 6.54395L13.0605 6.64648L16.707 10.293C17.0976 10.6835 17.0976 11.3165 16.707 11.707C16.3165 12.0976 15.6835 12.0976 15.293 11.707L13 9.41406V17C13 17.5523 12.5523 18 12 18C11.4477 18 11 17.5523 11 17ZM22 19C22 20.6569 20.6569 22 19 22H5C3.34315 22 2 20.6569 2 19V5C2 3.34315 3.34315 2 5 2H19C20.6569 2 22 3.34315 22 5V19Z" fill="black"/>
</svg>
