<svg width="24" height="24" viewBox="0 0 24 24" fill="none" xmlns="http://www.w3.org/2000/svg">
<path d="M6.34314 17.6568H12.7071L19.4246 10.9393C20.2057 10.1583 20.2057 8.89193 19.4246 8.11088L15.8891 4.57535C15.108 3.7943 13.8417 3.7943 13.0607 4.57535L6.34314 11.2929V17.6568Z" fill="#8A38F5" fill-opacity="0.25"/>
<path d="M6.34315 10.293C5.79087 10.293 5.34326 10.7406 5.34326 11.2929L5.34326 17.1569C5.34329 17.9853 6.01471 18.6567 6.8431 18.6567H12.7071C13.2594 18.6567 13.707 18.2091 13.707 17.6568C13.707 17.1046 13.2594 16.657 12.7071 16.657H8.75726L18.364 7.05025C18.7545 6.65972 18.7545 6.02656 18.364 5.63603C17.9734 5.24551 17.3403 5.24551 16.9498 5.63603L7.34305 15.2427L7.34305 11.2929C7.34305 10.7406 6.89544 10.293 6.34315 10.293Z" fill="black"/>
</svg>
