<svg width="24" height="24" viewBox="0 0 24 24" fill="none" xmlns="http://www.w3.org/2000/svg">
<path d="M21 12C21 16.9706 16.9706 21 12 21C7.02944 21 3 16.9706 3 12C3 7.02944 7.02944 3 12 3C16.9706 3 21 7.02944 21 12Z" fill="#8A38F5" fill-opacity="0.25"/>
<path d="M18.7784 1.39343C18.7784 0.841148 19.2261 0.393433 19.7784 0.393433C20.3306 0.393512 20.7784 0.841197 20.7784 1.39343V6.55066C20.7782 7.37887 20.1066 8.05058 19.2784 8.05066H14.1212C13.5691 8.05054 13.1214 7.6027 13.1212 7.05066C13.1212 6.49845 13.569 6.05078 14.1212 6.05066H17.3487C14.208 3.22225 9.36627 3.32019 6.34283 6.34363C3.21908 9.46783 3.21885 14.533 6.34283 17.6571C9.46703 20.7813 14.5331 20.7813 17.6573 17.6571C19.1757 16.1387 19.9554 14.1634 19.9981 12.1727C20.0101 11.6207 20.4675 11.1833 21.0196 11.1952C21.5716 11.2071 22.0098 11.6637 21.9981 12.2157C21.9447 14.7011 20.9687 17.1738 19.0714 19.0712C15.1661 22.9764 8.83401 22.9764 4.92877 19.0712C1.02361 15.1659 1.02355 8.83381 4.92877 4.92859C8.73815 1.1193 14.8557 1.02698 18.7784 4.64929V1.39343Z" fill="black"/>
</svg>
