<svg width="24" height="24" viewBox="0 0 24 24" fill="none" xmlns="http://www.w3.org/2000/svg">
<path d="M21 12C21 16.9706 16.9706 21 12 21C7.02944 21 3 16.9706 3 12C3 7.02944 7.02944 3 12 3C16.9706 3 21 7.02944 21 12Z" fill="#8A38F5" fill-opacity="0.25"/>
<path d="M20 12C20 7.58172 16.4183 4 12 4C7.58172 4 4 7.58172 4 12C4 16.4183 7.58172 20 12 20C16.4183 20 20 16.4183 20 12ZM11 17V9.41406L8.70703 11.707C8.31651 12.0976 7.68349 12.0976 7.29297 11.707C6.90244 11.3165 6.90244 10.6835 7.29297 10.293L10.9395 6.64648L11.0537 6.54395C11.6036 6.0955 12.3964 6.09549 12.9463 6.54395L13.0605 6.64648L16.707 10.293C17.0976 10.6835 17.0976 11.3165 16.707 11.707C16.3165 12.0976 15.6835 12.0976 15.293 11.707L13 9.41406V17C13 17.5523 12.5523 18 12 18C11.4477 18 11 17.5523 11 17ZM22 12C22 17.5228 17.5228 22 12 22C6.47715 22 2 17.5228 2 12C2 6.47715 6.47715 2 12 2C17.5228 2 22 6.47715 22 12Z" fill="black"/>
</svg>
