<svg width="24" height="24" viewBox="0 0 24 24" fill="none" xmlns="http://www.w3.org/2000/svg">
<path d="M4 12L8.5 16.5H18C19.1046 16.5 20 15.6046 20 14.5V9.5C20 8.39543 19.1046 7.5 18 7.5H8.5L4 12Z" fill="#8A38F5" fill-opacity="0.25"/>
<path d="M9.207 6.79295C8.81648 6.40243 8.18346 6.40243 7.79294 6.79295L3.64646 10.9394C3.06072 11.5252 3.06072 12.4748 3.64646 13.0605L7.79294 17.207C8.18346 17.5975 8.81648 17.5975 9.207 17.207C9.59753 16.8165 9.59753 16.1835 9.207 15.793L6.41403 13H20C20.5523 13 21 12.5523 21 12C21 11.4477 20.5523 11 20 11H6.41403L9.207 8.20702C9.59753 7.81649 9.59753 7.18348 9.207 6.79295Z" fill="black"/>
</svg>
