<svg width="24" height="24" viewBox="0 0 24 24" fill="none" xmlns="http://www.w3.org/2000/svg">
<path d="M21 12C21 16.9706 16.9706 21 12 21C7.02944 21 3 16.9706 3 12C3 7.02944 7.02944 3 12 3C16.9706 3 21 7.02944 21 12Z" fill="#8A38F5" fill-opacity="0.25"/>
<path d="M3.22185 1.39343C3.22185 0.841152 3.66957 0.393439 4.22185 0.393433C4.77413 0.393433 5.22185 0.841148 5.22185 1.39343V4.64929C9.14458 1.02703 15.2621 1.11925 19.0715 4.92859C22.9767 8.83378 22.9766 15.1659 19.0715 19.0712C15.1662 22.9764 8.83412 22.9764 4.92888 19.0712C3.03152 17.1738 2.05551 14.7011 2.00212 12.2157C1.99042 11.6637 2.42859 11.2071 2.98064 11.1952C3.53269 11.1833 3.9901 11.6207 4.00212 12.1727C4.04488 14.1634 4.82452 16.1387 6.34294 17.6571C9.46702 20.7812 14.5322 20.781 17.6564 17.6571C20.7806 14.5329 20.7806 9.46782 17.6564 6.34363C14.633 3.32023 9.79223 3.22232 6.65154 6.05066H9.87907C10.4312 6.05085 10.8791 6.49849 10.8791 7.05066C10.8789 7.60265 10.4311 8.05046 9.87907 8.05066H4.72185C3.89355 8.05065 3.22205 7.37891 3.22185 6.55066V1.39343Z" fill="black"/>
</svg>
