<svg width="24" height="24" viewBox="0 0 24 24" fill="none" xmlns="http://www.w3.org/2000/svg">
<path d="M17.6568 17.6568V11.2929L10.9393 4.57535C10.1583 3.7943 8.89193 3.7943 8.11088 4.57535L4.57535 8.11088C3.7943 8.89193 3.7943 10.1583 4.57535 10.9393L11.2929 17.6568H17.6568Z" fill="#8A38F5" fill-opacity="0.25"/>
<path d="M10.293 17.6568C10.293 18.2091 10.7406 18.6567 11.2929 18.6567H17.1569C17.9853 18.6567 18.6567 17.9853 18.6567 17.1569V11.2929C18.6567 10.7406 18.2091 10.293 17.6568 10.293C17.1046 10.293 16.657 10.7406 16.657 11.2929V15.2427L7.05025 5.63603C6.65972 5.24551 6.02656 5.24551 5.63603 5.63603C5.24551 6.02656 5.24551 6.65972 5.63603 7.05025L15.2427 16.657H11.2929C10.7406 16.657 10.293 17.1046 10.293 17.6568Z" fill="black"/>
</svg>
