<svg width="24" height="24" viewBox="0 0 24 24" fill="none" xmlns="http://www.w3.org/2000/svg">
<path d="M21 12C21 16.9706 16.9706 21 12 21C7.02944 21 3 16.9706 3 12C3 7.02944 7.02944 3 12 3C16.9706 3 21 7.02944 21 12Z" fill="#8A38F5" fill-opacity="0.25"/>
<path d="M20 12C20 7.58172 16.4183 4 12 4C7.58172 4 4 7.58172 4 12C4 16.4183 7.58172 20 12 20C16.4183 20 20 16.4183 20 12ZM12.293 7.29297C12.6835 6.90244 13.3165 6.90244 13.707 7.29297L17.3535 10.9395C17.9392 11.5252 17.9393 12.4748 17.3535 13.0605L13.707 16.707C13.3165 17.0976 12.6835 17.0976 12.293 16.707C11.9024 16.3165 11.9024 15.6835 12.293 15.293L14.5859 13H7C6.44772 13 6 12.5523 6 12C6 11.4477 6.44772 11 7 11H14.5859L12.293 8.70703C11.9024 8.31651 11.9024 7.68349 12.293 7.29297ZM22 12C22 17.5228 17.5228 22 12 22C6.47715 22 2 17.5228 2 12C2 6.47715 6.47715 2 12 2C17.5228 2 22 6.47715 22 12Z" fill="black"/>
</svg>
