<svg width="24" height="24" viewBox="0 0 24 24" fill="none" xmlns="http://www.w3.org/2000/svg">
<path d="M12 20L7.5 15.5V6C7.5 4.89543 8.39543 4 9.5 4H14.5C15.6046 4 16.5 4.89543 16.5 6V15.5L12 20Z" fill="#8A38F5" fill-opacity="0.25"/>
<path d="M17.207 14.793C17.5975 15.1835 17.5975 15.8165 17.207 16.207L13.0605 20.3535C12.4748 20.9392 11.5252 20.9393 10.9394 20.3535L6.79295 16.207C6.40243 15.8165 6.40243 15.1835 6.79295 14.793C7.18348 14.4024 7.81649 14.4024 8.20702 14.793L11 17.5859V4C11 3.44772 11.4477 3 12 3C12.5523 3 13 3.44772 13 4V17.5859L15.793 14.793C16.1835 14.4024 16.8165 14.4024 17.207 14.793Z" fill="black"/>
</svg>
