<svg width="24" height="24" viewBox="0 0 24 24" fill="none" xmlns="http://www.w3.org/2000/svg">
<path d="M3 5C3 3.89543 3.89543 3 5 3H19C20.1046 3 21 3.89543 21 5V19C21 20.1046 20.1046 21 19 21H5C3.89543 21 3 20.1046 3 19V5Z" fill="#8A38F5" fill-opacity="0.25"/>
<path d="M4 5C4 4.44772 4.44772 4 5 4H19C19.5523 4 20 4.44772 20 5V19C20 19.5523 19.5523 20 19 20H5C4.44772 20 4 19.5523 4 19V5ZM8.70703 7.29297C8.31651 6.90244 7.68349 6.90244 7.29297 7.29297C6.90244 7.68349 6.90244 8.31651 7.29297 8.70703L13.5859 15H10C9.44772 15 9 15.4477 9 16C9 16.5523 9.44772 17 10 17H15.5C16.3284 17 17 16.3284 17 15.5V10C17 9.44772 16.5523 9 16 9C15.4477 9 15 9.44772 15 10V13.5859L8.70703 7.29297ZM2 19C2 20.6569 3.34315 22 5 22H19C20.6569 22 22 20.6569 22 19V5C22 3.34315 20.6569 2 19 2H5C3.34315 2 2 3.34315 2 5V19Z" fill="black"/>
</svg>
