<svg width="24" height="24" viewBox="0 0 24 24" fill="none" xmlns="http://www.w3.org/2000/svg">
<path d="M3 5C3 3.89543 3.89543 3 5 3H19C20.1046 3 21 3.89543 21 5V19C21 20.1046 20.1046 21 19 21H5C3.89543 21 3 20.1046 3 19V5Z" fill="#8A38F5" fill-opacity="0.25"/>
<path d="M20 5C20 4.44772 19.5523 4 19 4H5C4.44772 4 4 4.44772 4 5V19C4 19.5523 4.44772 20 5 20H19C19.5523 20 20 19.5523 20 19V5ZM15.293 7.29297C15.6835 6.90244 16.3165 6.90244 16.707 7.29297C17.0976 7.68349 17.0976 8.31651 16.707 8.70703L10.4141 15H14C14.5523 15 15 15.4477 15 16C15 16.5523 14.5523 17 14 17H8.5C7.67157 17 7 16.3284 7 15.5V10C7 9.44772 7.44772 9 8 9C8.55228 9 9 9.44772 9 10V13.5859L15.293 7.29297ZM22 19C22 20.6569 20.6569 22 19 22H5C3.34315 22 2 20.6569 2 19V5C2 3.34315 3.34315 2 5 2H19C20.6569 2 22 3.34315 22 5V19Z" fill="black"/>
</svg>
