<svg width="24" height="24" viewBox="0 0 24 24" fill="none" xmlns="http://www.w3.org/2000/svg">
<path d="M21 12C21 16.9706 16.9706 21 12 21C7.02944 21 3 16.9706 3 12C3 7.02944 7.02944 3 12 3C16.9706 3 21 7.02944 21 12Z" fill="#8A38F5" fill-opacity="0.25"/>
<path d="M4.92869 4.92869C8.83393 1.02345 15.166 1.02345 19.0713 4.92869C22.9765 8.83393 22.9765 15.166 19.0713 19.0713C15.166 22.9765 8.83393 22.9765 4.92869 19.0713C1.02345 15.166 1.02345 8.83393 4.92869 4.92869ZM17.6572 6.34275C14.533 3.21856 9.46694 3.21856 6.34275 6.34275C3.21856 9.46694 3.21856 14.533 6.34275 17.6572C9.46694 20.7814 14.533 20.7814 17.6572 17.6572C20.7814 14.533 20.7814 9.46694 17.6572 6.34275ZM7.46482 14.1211V8.96482C7.46482 8.1364 8.13639 7.46482 8.96482 7.46482H14.1211C14.6734 7.46482 15.1211 7.91254 15.1211 8.46482C15.1209 9.01693 14.6732 9.46482 14.1211 9.46482H10.8789L16.2422 14.8281C16.6327 15.2186 16.6327 15.8516 16.2422 16.2422C15.8516 16.6327 15.2186 16.6327 14.8281 16.2422L9.46482 10.8789V14.1211C9.46482 14.6732 9.01693 15.1209 8.46482 15.1211C7.91254 15.1211 7.46482 14.6734 7.46482 14.1211Z" fill="black"/>
</svg>
