<svg width="24" height="24" viewBox="0 0 24 24" fill="none" xmlns="http://www.w3.org/2000/svg">
<path d="M3 5C3 3.89543 3.89543 3 5 3H19C20.1046 3 21 3.89543 21 5V19C21 20.1046 20.1046 21 19 21H5C3.89543 21 3 20.1046 3 19V5Z" fill="#8A38F5" fill-opacity="0.25"/>
<path d="M20 5C20 4.44772 19.5523 4 19 4H5C4.44772 4 4 4.44772 4 5V19C4 19.5523 4.44772 20 5 20H19C19.5523 20 20 19.5523 20 19V5ZM10.293 7.29297C10.6835 6.90244 11.3165 6.90244 11.707 7.29297C12.0976 7.68349 12.0976 8.31651 11.707 8.70703L9.41406 11H17C17.5523 11 18 11.4477 18 12C18 12.5523 17.5523 13 17 13H9.41406L11.707 15.293C12.0976 15.6835 12.0976 16.3165 11.707 16.707C11.3165 17.0976 10.6835 17.0976 10.293 16.707L6.64648 13.0605C6.06075 12.4748 6.06074 11.5252 6.64648 10.9395L10.293 7.29297ZM22 19C22 20.6569 20.6569 22 19 22H5C3.34315 22 2 20.6569 2 19V5C2 3.34315 3.34315 2 5 2H19C20.6569 2 22 3.34315 22 5V19Z" fill="black"/>
</svg>
