<svg width="24" height="24" viewBox="0 0 24 24" fill="none" xmlns="http://www.w3.org/2000/svg">
<path d="M21 12C21 16.9706 16.9706 21 12 21C7.02944 21 3 16.9706 3 12C3 7.02944 7.02944 3 12 3C16.9706 3 21 7.02944 21 12Z" fill="#8A38F5" fill-opacity="0.25"/>
<path d="M4.92875 4.92869C8.83399 1.02345 15.1661 1.02345 19.0713 4.92869C22.9766 8.83393 22.9766 15.166 19.0713 19.0713C15.1661 22.9765 8.83399 22.9765 4.92875 19.0713C1.02351 15.166 1.02351 8.83393 4.92875 4.92869ZM17.6573 6.34275C14.5331 3.21856 9.46701 3.21856 6.34281 6.34275C3.21862 9.46694 3.21862 14.533 6.34281 17.6572C9.46701 20.7814 14.5331 20.7814 17.6573 17.6572C20.7815 14.533 20.7815 9.46694 17.6573 6.34275ZM7.75785 7.75779C8.14838 7.36727 8.78139 7.36727 9.17191 7.75779L14.5352 13.1211V9.87888C14.5352 9.32672 14.9831 8.87909 15.5352 8.87888C16.0875 8.87888 16.5352 9.3266 16.5352 9.87888V15.0351C16.5352 15.8636 15.8636 16.5351 15.0352 16.5351H9.87894C9.32666 16.5351 8.87894 16.0874 8.87894 15.5351C8.87915 14.983 9.32679 14.5351 9.87894 14.5351H13.1211L7.75785 9.17185C7.36733 8.78133 7.36733 8.14831 7.75785 7.75779Z" fill="black"/>
</svg>
