<svg width="24" height="24" viewBox="0 0 24 24" fill="none" xmlns="http://www.w3.org/2000/svg">
<path d="M21 12C21 16.9706 16.9706 21 12 21C7.02944 21 3 16.9706 3 12C3 7.02944 7.02944 3 12 3C16.9706 3 21 7.02944 21 12Z" fill="#8A38F5" fill-opacity="0.25"/>
<path d="M20 12C20 7.58172 16.4183 4 12 4C7.58172 4 4 7.58172 4 12C4 16.4183 7.58172 20 12 20C16.4183 20 20 16.4183 20 12ZM11 7C11 6.44772 11.4477 6 12 6C12.5523 6 13 6.44772 13 7V14.5859L15.293 12.293C15.6835 11.9024 16.3165 11.9024 16.707 12.293C17.0976 12.6835 17.0976 13.3165 16.707 13.707L13.0605 17.3535C12.4748 17.9392 11.5252 17.9393 10.9395 17.3535L7.29297 13.707C6.90244 13.3165 6.90244 12.6835 7.29297 12.293C7.68349 11.9024 8.31651 11.9024 8.70703 12.293L11 14.5859V7ZM22 12C22 17.5228 17.5228 22 12 22C6.47715 22 2 17.5228 2 12C2 6.47715 6.47715 2 12 2C17.5228 2 22 6.47715 22 12Z" fill="black"/>
</svg>
