<svg width="24" height="24" viewBox="0 0 24 24" fill="none" xmlns="http://www.w3.org/2000/svg">
<path d="M21 12C21 16.9706 16.9706 21 12 21C7.02944 21 3 16.9706 3 12C3 7.02944 7.02944 3 12 3C16.9706 3 21 7.02944 21 12Z" fill="#8A38F5" fill-opacity="0.25"/>
<path d="M4.92869 4.92869C8.83393 1.02345 15.166 1.02345 19.0713 4.92869C22.9765 8.83393 22.9765 15.166 19.0713 19.0713C15.166 22.9765 8.83393 22.9765 4.92869 19.0713C1.02345 15.166 1.02345 8.83393 4.92869 4.92869ZM17.6572 6.34275C14.533 3.21856 9.46694 3.21856 6.34275 6.34275C3.21856 9.46694 3.21856 14.533 6.34275 17.6572C9.46694 20.7814 14.533 20.7814 17.6572 17.6572C20.7814 14.533 20.7814 9.46694 17.6572 6.34275ZM14.8281 7.75779C15.2186 7.36727 15.8516 7.36727 16.2422 7.75779C16.6327 8.14831 16.6327 8.78133 16.2422 9.17185L10.8789 14.5351H14.1211C14.6732 14.5351 15.1209 14.983 15.1211 15.5351C15.1211 16.0874 14.6734 16.5351 14.1211 16.5351H8.96482C8.1364 16.5351 7.46482 15.8636 7.46482 15.0351V9.87888C7.46482 9.3266 7.91254 8.87888 8.46482 8.87888C9.01693 8.87909 9.46482 9.32672 9.46482 9.87888V13.1211L14.8281 7.75779Z" fill="black"/>
</svg>
