<svg width="24" height="24" viewBox="0 0 24 24" fill="none" xmlns="http://www.w3.org/2000/svg">
<path d="M12 4L7.5 8.5V18C7.5 19.1046 8.39543 20 9.5 20H14.5C15.6046 20 16.5 19.1046 16.5 18V8.5L12 4Z" fill="#8A38F5" fill-opacity="0.25"/>
<path d="M17.207 9.207C17.5975 8.81648 17.5975 8.18346 17.207 7.79294L13.0605 3.64646C12.4748 3.06072 11.5252 3.06072 10.9394 3.64646L6.79295 7.79294C6.40243 8.18346 6.40243 8.81648 6.79295 9.207C7.18348 9.59753 7.81649 9.59753 8.20702 9.207L11 6.41403V20C11 20.5523 11.4477 21 12 21C12.5523 21 13 20.5523 13 20V6.41403L15.793 9.207C16.1835 9.59753 16.8165 9.59753 17.207 9.207Z" fill="black"/>
</svg>
