<svg width="24" height="24" viewBox="0 0 24 24" fill="none" xmlns="http://www.w3.org/2000/svg">
<path d="M12 5.76098C12 5.29823 12.2725 4.87888 12.6954 4.69094C15.1176 3.61441 17.8824 3.61441 20.3046 4.69094L20.6232 4.83253C20.8523 4.93437 21 5.1616 21 5.41235V20.124C21 20.536 20.576 20.8115 20.1995 20.6442L19.6408 20.3959C17.6412 19.5072 15.3588 19.5072 13.3592 20.3959C12.72 20.68 12 20.2121 12 19.5126V5.76098Z" fill="#8A38F5" fill-opacity="0.25"/>
<path d="M11 5.65254C8.76554 4.68998 6.23446 4.68998 4 5.65254V19.4865C6.25883 18.6526 8.74117 18.6526 11 19.4865V5.65254ZM20 5.65254C17.7655 4.68998 15.2345 4.68998 13 5.65254V19.4865C15.2588 18.6526 17.7412 18.6526 20 19.4865V5.65254ZM22 20.1242C21.9998 21.2597 20.8307 22.019 19.793 21.5578C17.6965 20.6262 15.3035 20.6262 13.207 21.5578L12.9062 21.6916C12.3294 21.948 11.6706 21.948 11.0938 21.6916L10.793 21.5578C8.69651 20.6262 6.30349 20.6262 4.20703 21.5578C3.16935 22.019 2.00018 21.2597 2 20.1242V5.4123C2.00001 4.76643 2.38052 4.18151 2.9707 3.91914L3.09375 3.86348C5.89884 2.6168 9.10116 2.6168 11.9062 3.86348C11.966 3.89003 12.034 3.89003 12.0938 3.86348C14.8988 2.6168 18.1012 2.6168 20.9062 3.86348L21.0293 3.91914C21.6195 4.18151 22 4.76643 22 5.4123V20.1242Z" fill="black"/>
</svg>
