<svg width="24" height="24" viewBox="0 0 24 24" fill="none" xmlns="http://www.w3.org/2000/svg">
<path d="M3 7H21V19C21 20.1046 20.1046 21 19 21H5C3.89543 21 3 20.1046 3 19V7Z" fill="#8A38F5" fill-opacity="0.25"/>
<path d="M20 8H4V19C4 19.5523 4.44772 20 5 20H19C19.5523 20 20 19.5523 20 19V8ZM8 16C8.55228 16 9 16.4477 9 17C9 17.5523 8.55228 18 8 18H7C6.44772 18 6 17.5523 6 17C6 16.4477 6.44772 16 7 16H8ZM12.5 16C13.0523 16 13.5 16.4477 13.5 17C13.5 17.5523 13.0523 18 12.5 18H11.5C10.9477 18 10.5 17.5523 10.5 17C10.5 16.4477 10.9477 16 11.5 16H12.5ZM8 13C8.55228 13 9 13.4477 9 14C9 14.5523 8.55228 15 8 15H7C6.44772 15 6 14.5523 6 14C6 13.4477 6.44772 13 7 13H8ZM12.5 13C13.0523 13 13.5 13.4477 13.5 14C13.5 14.5523 13.0523 15 12.5 15H11.5C10.9477 15 10.5 14.5523 10.5 14C10.5 13.4477 10.9477 13 11.5 13H12.5ZM17 13C17.5523 13 18 13.4477 18 14C18 14.5523 17.5523 15 17 15H16C15.4477 15 15 14.5523 15 14C15 13.4477 15.4477 13 16 13H17ZM12.5 10C13.0523 10 13.5 10.4477 13.5 11C13.5 11.5523 13.0523 12 12.5 12H11.5C10.9477 12 10.5 11.5523 10.5 11C10.5 10.4477 10.9477 10 11.5 10H12.5ZM17 10C17.5523 10 18 10.4477 18 11C18 11.5523 17.5523 12 17 12H16C15.4477 12 15 11.5523 15 11C15 10.4477 15.4477 10 16 10H17ZM15 4H9C9 4.55228 8.55228 5 8 5C7.44772 5 7 4.55228 7 4H5C4.44772 4 4 4.44772 4 5V6H20V5C20 4.44772 19.5523 4 19 4H17C17 4.55228 16.5523 5 16 5C15.4477 5 15 4.55228 15 4ZM22 19C22 20.6569 20.6569 22 19 22H5C3.34315 22 2 20.6569 2 19V5C2 3.34315 3.34315 2 5 2H7C7 1.44772 7.44772 1 8 1C8.55228 1 9 1.44772 9 2H15C15 1.44772 15.4477 1 16 1C16.5523 1 17 1.44772 17 2H19C20.6569 2 22 3.34315 22 5V19Z" fill="black"/>
</svg>
