<svg width="24" height="24" viewBox="0 0 24 24" fill="none" xmlns="http://www.w3.org/2000/svg">
<path d="M21 12C21 16.9706 16.9706 21 12 21C7.02944 21 3 16.9706 3 12C3 7.02944 7.02944 3 12 3C16.9706 3 21 7.02944 21 12Z" fill="#8A38F5" fill-opacity="0.25"/>
<path d="M12 20C16.4183 20 20 16.4183 20 12C20 7.58172 16.4183 4 12 4C7.58172 4 4 7.58172 4 12C4 16.4183 7.58172 20 12 20ZM16.707 10.293C17.0976 10.6835 17.0976 11.3165 16.707 11.707L13.0605 15.3535C12.4748 15.9392 11.5252 15.9393 10.9395 15.3535L7.29297 11.707C6.90244 11.3165 6.90244 10.6835 7.29297 10.293C7.68349 9.90244 8.31651 9.90244 8.70703 10.293L12 13.5859L15.293 10.293C15.6835 9.90244 16.3165 9.90244 16.707 10.293ZM12 22C6.47715 22 2 17.5228 2 12C2 6.47715 6.47715 2 12 2C17.5228 2 22 6.47715 22 12C22 17.5228 17.5228 22 12 22Z" fill="black"/>
</svg>
