<svg width="24" height="24" viewBox="0 0 24 24" fill="none" xmlns="http://www.w3.org/2000/svg">
<path d="M17.5 4.5C18.6046 4.5 19.5 5.39543 19.5 6.5V19C19.5 20.1046 18.6046 21 17.5 21H6.5C5.39543 21 4.5 20.1046 4.5 19V6.5C4.5 5.39543 5.39543 4.5 6.5 4.5H8C8 5.32843 8.67157 6 9.5 6H14.5C15.3284 6 16 5.32843 16 4.5H17.5Z" fill="#8A38F5" fill-opacity="0.25"/>
<path d="M18.5 6.5C18.5 5.94772 18.0523 5.5 17.5 5.5H16.79C16.4041 6.38257 15.5249 7 14.5 7H9.5C8.47512 7 7.5959 6.38257 7.20996 5.5H6.5C5.94772 5.5 5.5 5.94772 5.5 6.5V19C5.5 19.5523 5.94772 20 6.5 20H17.5C18.0523 20 18.5 19.5523 18.5 19V6.5ZM8.50098 16C9.05326 16 9.50098 16.4477 9.50098 17C9.50098 17.5523 9.05326 18 8.50098 18H8.5C7.94772 18 7.5 17.5523 7.5 17C7.5 16.4477 7.94772 16 8.5 16H8.50098ZM15.5 16C16.0523 16 16.5 16.4477 16.5 17C16.5 17.5523 16.0523 18 15.5 18H12C11.4477 18 11 17.5523 11 17C11 16.4477 11.4477 16 12 16H15.5ZM8.50098 12.5C9.05326 12.5 9.50098 12.9477 9.50098 13.5C9.50098 14.0523 9.05326 14.5 8.50098 14.5H8.5C7.94772 14.5 7.5 14.0523 7.5 13.5C7.5 12.9477 7.94772 12.5 8.5 12.5H8.50098ZM15.5 12.5C16.0523 12.5 16.5 12.9477 16.5 13.5C16.5 14.0523 16.0523 14.5 15.5 14.5H12C11.4477 14.5 11 14.0523 11 13.5C11 12.9477 11.4477 12.5 12 12.5H15.5ZM8.50098 9C9.05326 9 9.50098 9.44772 9.50098 10C9.50098 10.5523 9.05326 11 8.50098 11H8.5C7.94772 11 7.5 10.5523 7.5 10C7.5 9.44772 7.94772 9 8.5 9H8.50098ZM15.5 9C16.0523 9 16.5 9.44772 16.5 10C16.5 10.5523 16.0523 11 15.5 11H12C11.4477 11 11 10.5523 11 10C11 9.44772 11.4477 9 12 9H15.5ZM9.5 4C9.22386 4 9 4.22386 9 4.5C9 4.77614 9.22386 5 9.5 5H14.5C14.7761 5 15 4.77614 15 4.5C15 4.22386 14.7761 4 14.5 4H9.5ZM20.5 19C20.5 20.6569 19.1569 22 17.5 22H6.5C4.84315 22 3.5 20.6569 3.5 19V6.5C3.5 4.84315 4.84315 3.5 6.5 3.5H7.20996C7.5959 2.61743 8.47512 2 9.5 2H14.5C15.5249 2 16.4041 2.61743 16.79 3.5H17.5C19.1569 3.5 20.5 4.84315 20.5 6.5V19Z" fill="black"/>
</svg>
