<svg width="24" height="24" viewBox="0 0 24 24" fill="none" xmlns="http://www.w3.org/2000/svg">
<path d="M17.5 4.5C18.6046 4.5 19.5 5.39543 19.5 6.5V19C19.5 20.1046 18.6046 21 17.5 21H6.5C5.39543 21 4.5 20.1046 4.5 19V6.5C4.5 5.39543 5.39543 4.5 6.5 4.5H8C8 5.32843 8.67157 6 9.5 6H14.5C15.3284 6 16 5.32843 16 4.5H17.5Z" fill="#8A38F5" fill-opacity="0.25"/>
<path d="M18.5 6.5C18.5 5.94772 18.0523 5.5 17.5 5.5H16.79C16.4041 6.38257 15.5249 7 14.5 7H9.5C8.47512 7 7.5959 6.38257 7.20996 5.5H6.5C5.94772 5.5 5.5 5.94772 5.5 6.5V19C5.5 19.5523 5.94772 20 6.5 20H17.5C18.0523 20 18.5 19.5523 18.5 19V6.5ZM15 13C15.5523 13 16 13.4477 16 14C16 14.5523 15.5523 15 15 15H9C8.44772 15 8 14.5523 8 14C8 13.4477 8.44772 13 9 13H15ZM9.5 4C9.22386 4 9 4.22386 9 4.5C9 4.77614 9.22386 5 9.5 5H14.5C14.7761 5 15 4.77614 15 4.5C15 4.22386 14.7761 4 14.5 4H9.5ZM20.5 19C20.5 20.6569 19.1569 22 17.5 22H6.5C4.84315 22 3.5 20.6569 3.5 19V6.5C3.5 4.84315 4.84315 3.5 6.5 3.5H7.20996C7.5959 2.61743 8.47512 2 9.5 2H14.5C15.5249 2 16.4041 2.61743 16.79 3.5H17.5C19.1569 3.5 20.5 4.84315 20.5 6.5V19Z" fill="black"/>
</svg>
