<svg width="24" height="24" viewBox="0 0 24 24" fill="none" xmlns="http://www.w3.org/2000/svg">
<path d="M17.5 4.5C18.6046 4.5 19.5 5.39543 19.5 6.5V19C19.5 20.1046 18.6046 21 17.5 21H6.5C5.39543 21 4.5 20.1046 4.5 19V6.5C4.5 5.39543 5.39543 4.5 6.5 4.5H8C8 5.32843 8.67157 6 9.5 6H14.5C15.3284 6 16 5.32843 16 4.5H17.5Z" fill="#8A38F5" fill-opacity="0.25"/>
<path d="M18.293 9.79297C18.6835 9.40244 19.3165 9.40244 19.707 9.79297L22.3535 12.4395C22.9393 13.0252 22.9393 13.9748 22.3535 14.5605L19.707 17.207C19.3165 17.5976 18.6835 17.5976 18.293 17.207C17.9024 16.8165 17.9024 16.1835 18.293 15.793L19.5859 14.5H13C12.4477 14.5 12 14.0523 12 13.5C12 12.9477 12.4477 12.5 13 12.5H19.5859L18.293 11.207C17.9024 10.8165 17.9024 10.1835 18.293 9.79297ZM18.5 7V6.5C18.5 5.94772 18.0523 5.5 17.5 5.5H16.79C16.4041 6.38257 15.5249 7 14.5 7H9.5C8.47512 7 7.5959 6.38257 7.20996 5.5H6.5C5.94772 5.5 5.5 5.94772 5.5 6.5V19C5.5 19.5523 5.94772 20 6.5 20H18.5C18.5 19.4477 18.9477 19 19.5 19C20.0523 19 20.5 19.4477 20.5 20C20.5 21.1046 19.6046 22 18.5 22H6.5C4.84315 22 3.5 20.6569 3.5 19V6.5C3.5 4.84315 4.84315 3.5 6.5 3.5H7.20996C7.5959 2.61743 8.47512 2 9.5 2H14.5C15.5249 2 16.4041 2.61743 16.79 3.5H17.5C19.1569 3.5 20.5 4.84315 20.5 6.5V7C20.5 7.55228 20.0523 8 19.5 8C18.9477 8 18.5 7.55228 18.5 7ZM9.5 4C9.22386 4 9 4.22386 9 4.5C9 4.77614 9.22386 5 9.5 5H14.5C14.7761 5 15 4.77614 15 4.5C15 4.22386 14.7761 4 14.5 4H9.5Z" fill="black"/>
</svg>
