<svg width="24" height="24" viewBox="0 0 24 24" fill="none" xmlns="http://www.w3.org/2000/svg">
<path d="M21 12C21 16.9706 16.9706 21 12 21C7.02944 21 3 16.9706 3 12C3 7.02944 7.02944 3 12 3C16.9706 3 21 7.02944 21 12Z" fill="#8A38F5" fill-opacity="0.25"/>
<path d="M4.92979 4.92868C8.73918 1.11929 14.8567 1.02698 18.7794 4.64939V3.27048C18.7794 2.71819 19.2271 2.27048 19.7794 2.27048C20.3315 2.27068 20.7794 2.71832 20.7794 3.27048V6.54978C20.7794 7.37808 20.1077 8.04957 19.2794 8.04978H16.0011C15.4488 8.04978 15.0011 7.60206 15.0011 7.04978C15.0013 6.49769 15.4489 6.04978 16.0011 6.04978H17.3478C14.207 3.22273 9.36681 3.31979 6.34385 6.34274C3.21965 9.46694 3.21965 14.533 6.34385 17.6572C9.46804 20.7814 14.5341 20.7814 17.6583 17.6572C19.1767 16.1388 19.9564 14.1635 19.9991 12.1728C20.0111 11.6207 20.4685 11.1824 21.0206 11.1943C21.5727 11.2062 22.0109 11.6637 21.9991 12.2158C21.9457 14.7012 20.9697 17.1739 19.0724 19.0713C15.1671 22.9765 8.83503 22.9765 4.92979 19.0713C1.02454 15.166 1.02454 8.83393 4.92979 4.92868ZM11.0011 6.99997C11.0011 6.44769 11.4488 5.99997 12.0011 5.99997C12.5534 5.99997 13.0011 6.44769 13.0011 6.99997V11H16.0011C16.5534 11 17.0011 11.4477 17.0011 12C17.0011 12.5523 16.5534 13 16.0011 13H12.2511C11.5607 13 11.0011 12.4403 11.0011 11.75V6.99997Z" fill="black"/>
</svg>
