<svg width="24" height="24" viewBox="0 0 24 24" fill="none" xmlns="http://www.w3.org/2000/svg">
<path d="M21 12C21 16.9706 16.9706 21 12 21C7.02944 21 3 16.9706 3 12C3 7.02944 7.02944 3 12 3C16.9706 3 21 7.02944 21 12Z" fill="#8A38F5" fill-opacity="0.25"/>
<path d="M5.221 4.64972C9.14372 1.02738 15.2612 1.11964 19.0706 4.92901C22.9758 8.83424 22.9758 15.1664 19.0706 19.0716C15.1654 22.9768 8.83328 22.9768 4.92803 19.0716C3.03066 17.1742 2.05465 14.7015 2.00127 12.2161C1.98948 11.664 2.42767 11.2065 2.97979 11.1946C3.53189 11.1828 3.98933 11.6211 4.00127 12.1732C4.04403 14.1638 4.82366 16.1391 6.34209 17.6575C9.46615 20.7815 14.5314 20.7813 17.6556 17.6575C20.7798 14.5333 20.7798 9.46727 17.6556 6.34308C14.6326 3.32055 9.79323 3.22327 6.65264 6.05011H7.99932C8.55139 6.05018 8.99908 6.49807 8.99932 7.05011C8.99932 7.60235 8.55154 8.05003 7.99932 8.05011H4.721C3.89268 8.04998 3.221 7.37845 3.221 6.55011V3.27081C3.221 2.7186 3.66882 2.27094 4.221 2.27081C4.77328 2.27081 5.221 2.71853 5.221 3.27081V4.64972ZM11.0013 7.0003C11.0013 6.44802 11.449 6.0003 12.0013 6.0003C12.5535 6.00038 13.0013 6.44806 13.0013 7.0003V11.0003H16.0013C16.5535 11.0004 17.0013 11.4481 17.0013 12.0003C17.0013 12.5525 16.5535 13.0002 16.0013 13.0003H12.2513C11.5609 13.0003 11.0013 12.4407 11.0013 11.7503V7.0003Z" fill="black"/>
</svg>
