<svg width="24" height="24" viewBox="0 0 24 24" fill="none" xmlns="http://www.w3.org/2000/svg">
<path d="M21 12C21 16.9706 16.9706 21 12 21C7.02944 21 3 16.9706 3 12C3 7.02944 7.02944 3 12 3C16.9706 3 21 7.02944 21 12Z" fill="#8A38F5" fill-opacity="0.25"/>
<path d="M20 12C20 7.58172 16.4183 4 12 4C7.58172 4 4 7.58172 4 12C4 16.4183 7.58172 20 12 20C16.4183 20 20 16.4183 20 12ZM22 12C22 17.5228 17.5228 22 12 22C6.47715 22 2 17.5228 2 12C2 6.47715 6.47715 2 12 2C17.5228 2 22 6.47715 22 12ZM13 11.8965C13 12.228 12.8682 12.5459 12.6338 12.7803L9.87891 15.5352C9.48838 15.9257 8.85537 15.9257 8.46484 15.5352C8.07444 15.1446 8.07436 14.5116 8.46484 14.1211L11 11.5859V7C11 6.44775 11.4477 6.00004 12 6C12.5522 6.00006 13 6.44777 13 7V11.8965Z" fill="black"/>
</svg>
