<svg width="24" height="24" viewBox="0 0 24 24" fill="none" xmlns="http://www.w3.org/2000/svg">
<path d="M21 12C21 16.9706 16.9706 21 12 21C7.02944 21 3 16.9706 3 12C3 7.02944 7.02944 3 12 3C16.9706 3 21 7.02944 21 12Z" fill="#8A38F5" fill-opacity="0.25"/>
<path d="M4 12C4 7.58172 7.58172 4 12 4C16.4183 4 20 7.58172 20 12C20 16.4183 16.4183 20 12 20C7.58172 20 4 16.4183 4 12ZM2 12C2 17.5228 6.47715 22 12 22C17.5228 22 22 17.5228 22 12C22 6.47715 17.5228 2 12 2C6.47715 2 2 6.47715 2 12ZM11 11.8965C11 12.228 11.1318 12.5459 11.3662 12.7803L14.1211 15.5352C14.5116 15.9257 15.1446 15.9257 15.5352 15.5352C15.9256 15.1446 15.9256 14.5116 15.5352 14.1211L13 11.5859V7C13 6.44775 12.5523 6.00004 12 6C11.4478 6.00006 11 6.44777 11 7V11.8965Z" fill="black"/>
</svg>
