<svg width="24" height="24" viewBox="0 0 24 24" fill="none" xmlns="http://www.w3.org/2000/svg">
<path d="M3 4C3 3.44772 3.44772 3 4 3H6C6.55228 3 7 3.44772 7 4V20C7 20.5523 6.55228 21 6 21H4C3.44772 21 3 20.5523 3 20V4Z" fill="#8A38F5" fill-opacity="0.25"/>
<path d="M4 4V20H6V4H4ZM19.9141 9.17188C20.3046 8.78135 20.9386 8.78135 21.3291 9.17188C21.7192 9.56238 21.7194 10.1955 21.3291 10.5859L19.9141 12L21.3291 13.4141C21.7194 13.8045 21.7192 14.4376 21.3291 14.8281C20.9386 15.2186 20.3046 15.2186 19.9141 14.8281L18.5 13.4141L17.0859 14.8281C16.6954 15.2186 16.0624 15.2186 15.6719 14.8281C15.2815 14.4376 15.2814 13.8046 15.6719 13.4141L17.0859 12L15.6719 10.5859C15.2814 10.1954 15.2815 9.56241 15.6719 9.17188C16.0624 8.78135 16.6954 8.78135 17.0859 9.17188L18.5 10.585L19.9141 9.17188ZM13 7V4H11V20H13V17C13 16.4477 13.4477 16 14 16C14.5523 16 15 16.4477 15 17V20C15 21.1046 14.1046 22 13 22H11C9.89543 22 9 21.1046 9 20V4C9 2.89543 9.89543 2 11 2H13C14.1046 2 15 2.89543 15 4V7C15 7.55228 14.5523 8 14 8C13.4477 8 13 7.55228 13 7ZM8 20C8 21.1046 7.10457 22 6 22H4C2.89543 22 2 21.1046 2 20V4C2 2.89543 2.89543 2 4 2H6C7.10457 2 8 2.89543 8 4V20Z" fill="black"/>
</svg>
