<svg width="24" height="24" viewBox="0 0 24 24" fill="none" xmlns="http://www.w3.org/2000/svg">
<path d="M8 3C9.10457 3 10 3.89543 10 5V19C10 20.1046 9.10457 21 8 21H5C3.89543 21 3 20.1046 3 19V5C3 3.89543 3.89543 3 5 3H8Z" fill="#8A38F5" fill-opacity="0.25"/>
<path d="M19 3C20.1046 3 21 3.89543 21 5V19C21 20.1046 20.1046 21 19 21H16C14.8954 21 14 20.1046 14 19V5C14 3.89543 14.8954 3 16 3H19Z" fill="#8A38F5" fill-opacity="0.25"/>
<path d="M9 5C9 4.44772 8.55228 4 8 4H5C4.44772 4 4 4.44772 4 5V19C4 19.5523 4.44772 20 5 20H8C8.55228 20 9 19.5523 9 19V5ZM20 5C20 4.44772 19.5523 4 19 4H16C15.4477 4 15 4.44772 15 5V19C15 19.5523 15.4477 20 16 20H19C19.5523 20 20 19.5523 20 19V5ZM11 19C11 20.6569 9.65685 22 8 22H5C3.34315 22 2 20.6569 2 19V5C2 3.34315 3.34315 2 5 2H8C9.65685 2 11 3.34315 11 5V19ZM22 19C22 20.6569 20.6569 22 19 22H16C14.3431 22 13 20.6569 13 19V5C13 3.34315 14.3431 2 16 2H19C20.6569 2 22 3.34315 22 5V19Z" fill="black"/>
</svg>
