<svg width="24" height="24" viewBox="0 0 24 24" fill="none" xmlns="http://www.w3.org/2000/svg">
<path d="M7 9C7 7.89543 7.89543 7 9 7H19C20.1046 7 21 7.89543 21 9V19C21 20.1046 20.1046 21 19 21H9C7.89543 21 7 20.1046 7 19V9Z" fill="#8A38F5" fill-opacity="0.25"/>
<path d="M20 9C20 8.44772 19.5523 8 19 8H9C8.44772 8 8 8.44772 8 9V19C8 19.5523 8.44772 20 9 20H19C19.5523 20 20 19.5523 20 19V9ZM16 5C16 4.44772 15.5523 4 15 4H5C4.44772 4 4 4.44772 4 5V15C4 15.5523 4.44772 16 5 16H6V9C6 7.34315 7.34315 6 9 6H16V5ZM18 6H19C20.6569 6 22 7.34315 22 9V19C22 20.6569 20.6569 22 19 22H9C7.34315 22 6 20.6569 6 19V18H5C3.34315 18 2 16.6569 2 15V5C2 3.34315 3.34315 2 5 2H15C16.6569 2 18 3.34315 18 5V6Z" fill="black"/>
</svg>
