<svg width="24" height="24" viewBox="0 0 24 24" fill="none" xmlns="http://www.w3.org/2000/svg">
<path d="M10 20C8.89543 20 8 19.1046 8 18V6C8 4.89543 8.89543 4 10 4H14C15.1046 4 16 4.89543 16 6V18C16 19.1046 15.1046 20 14 20H10Z" fill="#8A38F5" fill-opacity="0.25"/>
<path d="M10 20C10 18.8954 10.8954 18 12 18C13.1046 18 14 18.8954 14 20C14 21.1046 13.1046 22 12 22C10.8954 22 10 21.1046 10 20Z" fill="black"/>
<path d="M10 12C10 10.8954 10.8954 10 12 10C13.1046 10 14 10.8954 14 12C14 13.1046 13.1046 14 12 14C10.8954 14 10 13.1046 10 12Z" fill="black"/>
<path d="M10 4C10 2.89543 10.8954 2 12 2C13.1046 2 14 2.89543 14 4C14 5.10457 13.1046 6 12 6C10.8954 6 10 5.10457 10 4Z" fill="black"/>
</svg>
