<svg width="24" height="24" viewBox="0 0 24 24" fill="none" xmlns="http://www.w3.org/2000/svg">
<path d="M3 8L11.0287 12.4604C11.6328 12.796 12.3672 12.796 12.9713 12.4604L21 8V17.5C21 18.6046 20.1046 19.5 19 19.5H5C3.89543 19.5 3 18.6046 3 17.5V8Z" fill="#8A38F5" fill-opacity="0.25"/>
<path d="M20 9.69902L12.7285 13.7391C12.2755 13.9907 11.7245 13.9907 11.2715 13.7391L4 9.69902V17.4998C4 18.0521 4.44772 18.4998 5 18.4998H19C19.5523 18.4998 20 18.0521 20 17.4998V9.69902ZM12.3164 4.15996C12.1111 4.09153 11.8889 4.09153 11.6836 4.15996L4.68359 6.49296C4.28445 6.6261 4.01388 6.99431 4.00195 7.41289L12 11.8553L19.9971 7.41289C19.9851 6.99432 19.7155 6.6261 19.3164 6.49296L12.3164 4.15996ZM22 17.4998C22 19.1567 20.6569 20.4998 19 20.4998H5C3.34315 20.4998 2 19.1567 2 17.4998V7.44121C2.00014 6.15005 2.82683 5.00381 4.05176 4.5955L11.0518 2.2625C11.6674 2.05736 12.3326 2.05736 12.9482 2.2625L19.9482 4.5955C21.1732 5.00381 21.9999 6.15005 22 7.44121V17.4998Z" fill="black"/>
</svg>
