<svg width="24" height="24" viewBox="0 0 24 24" fill="none" xmlns="http://www.w3.org/2000/svg">
<path d="M4.5 5C4.5 3.89543 5.39543 3 6.5 3H14.5V7.5C14.5 7.77614 14.7239 8 15 8H19.5V19C19.5 20.1046 18.6046 21 17.5 21H6.5C5.39543 21 4.5 20.1046 4.5 19V5Z" fill="#8A38F5" fill-opacity="0.25"/>
<path d="M3.5 19V5C3.5 3.34315 4.84315 2 6.5 2H13.6719C14.4674 2.00008 15.2304 2.31637 15.793 2.87891L19.6211 6.70703C20.1836 7.26957 20.4999 8.03259 20.5 8.82812V19C20.5 20.6569 19.1569 22 17.5 22H6.5C4.84315 22 3.5 20.6569 3.5 19ZM11 10.5C11 9.94772 11.4477 9.5 12 9.5C12.5523 9.5 13 9.94772 13 10.5V14.5859L14.293 13.293C14.6835 12.9024 15.3165 12.9024 15.707 13.293C16.0976 13.6835 16.0976 14.3165 15.707 14.707L13.0605 17.3535C12.4748 17.9393 11.5252 17.9393 10.9395 17.3535L8.29297 14.707C7.90244 14.3165 7.90244 13.6835 8.29297 13.293C8.68349 12.9024 9.31651 12.9024 9.70703 13.293L11 14.5859V10.5ZM15.5 7H17.0859L15.5 5.41406V7ZM5.5 19C5.5 19.5523 5.94772 20 6.5 20H17.5C18.0523 20 18.5 19.5523 18.5 19V9H15C14.1716 9 13.5 8.32843 13.5 7.5V4H6.5C5.94772 4 5.5 4.44772 5.5 5V19Z" fill="black"/>
</svg>
