<svg width="24" height="24" viewBox="0 0 24 24" fill="none" xmlns="http://www.w3.org/2000/svg">
<path d="M4.5 5C4.5 3.89543 5.39543 3 6.5 3H14.5V7.5C14.5 7.77614 14.7239 8 15 8H19.5V19C19.5 20.1046 18.6046 21 17.5 21H6.5C5.39543 21 4.5 20.1046 4.5 19V5Z" fill="#8A38F5" fill-opacity="0.25"/>
<path d="M3.5 19V5C3.5 3.34315 4.84315 2 6.5 2H13.6719C14.4674 2.00008 15.2304 2.31637 15.793 2.87891L19.6211 6.70703C20.1836 7.26957 20.4999 8.03259 20.5 8.82812V19C20.5 20.6569 19.1569 22 17.5 22H6.5C4.84315 22 3.5 20.6569 3.5 19ZM11 17V12.9141L9.70703 14.207C9.31651 14.5976 8.68349 14.5976 8.29297 14.207C7.90244 13.8165 7.90244 13.1835 8.29297 12.793L10.9395 10.1465L11.0537 10.0439C11.6036 9.5955 12.3964 9.5955 12.9463 10.0439L13.0605 10.1465L15.707 12.793C16.0976 13.1835 16.0976 13.8165 15.707 14.207C15.3165 14.5976 14.6835 14.5976 14.293 14.207L13 12.9141V17C13 17.5523 12.5523 18 12 18C11.4477 18 11 17.5523 11 17ZM15.5 7H17.0859L15.5 5.41406V7ZM5.5 19C5.5 19.5523 5.94772 20 6.5 20H17.5C18.0523 20 18.5 19.5523 18.5 19V9H15C14.1716 9 13.5 8.32843 13.5 7.5V4H6.5C5.94772 4 5.5 4.44772 5.5 5V19Z" fill="black"/>
</svg>
