<svg width="24" height="24" viewBox="0 0 24 24" fill="none" xmlns="http://www.w3.org/2000/svg">
<path d="M3 6V18C3 19.1046 3.89543 20 5 20H6.5L8.17845 11.6078C8.36542 10.6729 9.18625 10 10.1396 10H20V8C20 6.89543 19.1046 6 18 6H12C11.3705 6 10.7777 5.70361 10.4 5.2L10.1 4.8C9.72229 4.29639 9.12951 4 8.5 4H5C3.89543 4 3 4.89543 3 6Z" fill="#8A38F5" fill-opacity="0.25"/>
<path d="M2 6C2 4.34315 3.34315 3 5 3H8.5C9.44427 3 10.3338 3.44478 10.9004 4.2002L11.2002 4.59961C11.389 4.85141 11.6852 5 12 5H18C19.6569 5 21 6.34315 21 8V9.0127C22.1497 9.13739 22.9741 10.228 22.7412 11.3926L21.3018 18.5879C21.0213 19.9902 19.7904 21 18.3604 21H5C3.34315 21 2 19.6569 2 18V6ZM4 18C4 18.5523 4.44772 19 5 19H18.3604C18.837 19 19.2473 18.6636 19.3408 18.1963L20.7803 11H10.1641C9.682 11 9.26844 11.3444 9.18066 11.8184L8.37207 16.1816C8.27152 16.7246 7.74999 17.0838 7.20703 16.9834C6.66414 16.8829 6.30502 16.3612 6.40527 15.8184L7.21387 11.4541C7.4772 10.0321 8.71789 9 10.1641 9H19V8C19 7.44771 18.5523 7 18 7H12C11.0557 7 10.1662 6.55522 9.59961 5.7998L9.2998 5.40039C9.11095 5.14859 8.81476 5 8.5 5H5C4.44772 5 4 5.44772 4 6V18Z" fill="black"/>
</svg>
