<svg width="24" height="24" viewBox="0 0 24 24" fill="none" xmlns="http://www.w3.org/2000/svg">
<path d="M3 6C3 4.89543 3.89543 4 5 4H8.5C9.12951 4 9.72229 4.29639 10.1 4.8L10.4 5.2C10.7777 5.70361 11.3705 6 12 6H19C20.1046 6 21 6.89543 21 8V18C21 19.1046 20.1046 20 19 20H5C3.89543 20 3 19.1046 3 18V6Z" fill="#8A38F5" fill-opacity="0.25"/>
<path d="M2 18V6C2 4.34315 3.34315 3 5 3H8.5C9.44427 3 10.3338 3.44478 10.9004 4.2002L11.2002 4.59961C11.389 4.85142 11.6852 5 12 5H19C20.6569 5 22 6.34315 22 8V18C22 19.6569 20.6569 21 19 21H5C3.34315 21 2 19.6569 2 18ZM13.4141 10.1719C13.8046 9.78135 14.4386 9.78135 14.8291 10.1719C15.2192 10.5624 15.2193 11.1955 14.8291 11.5859L13.4141 13L14.8291 14.4141C15.2193 14.8045 15.2192 15.4376 14.8291 15.8281C14.4386 16.2186 13.8046 16.2186 13.4141 15.8281L12 14.4141L10.5859 15.8281C10.1954 16.2186 9.5624 16.2186 9.17188 15.8281C8.78147 15.4376 8.78139 14.8045 9.17188 14.4141L10.5859 13L9.17188 11.5859C8.78139 11.1955 8.78147 10.5624 9.17188 10.1719C9.5624 9.78135 10.1954 9.78135 10.5859 10.1719L12 11.585L13.4141 10.1719ZM4 18C4 18.5523 4.44772 19 5 19H19C19.5523 19 20 18.5523 20 18V8C20 7.44772 19.5523 7 19 7H12C11.0557 7 10.1662 6.55522 9.59961 5.7998L9.2998 5.40039C9.11095 5.14858 8.81476 5 8.5 5H5C4.44772 5 4 5.44772 4 6V18Z" fill="black"/>
</svg>
