<svg width="24" height="24" viewBox="0 0 24 24" fill="none" xmlns="http://www.w3.org/2000/svg">
<path d="M20.4908 7.66999L12.9639 3.53016C12.3637 3.20007 11.6363 3.20007 11.0362 3.53016L3.50923 7.66999C2.85483 8.0299 2.85484 8.9702 3.50923 9.33011C3.81194 9.49661 4.00002 9.8147 4.00002 10.1602V15.3304C4.00002 16.0529 4.38974 16.7193 5.0195 17.0735L11.0195 20.4485C11.6283 20.791 12.3717 20.791 12.9805 20.4485L18.9805 17.0735C19.6103 16.7193 20 16.0529 20 15.3304V10.1602C20 9.8147 20.1881 9.49661 20.4908 9.33011C21.1452 8.9702 21.1452 8.0299 20.4908 7.66999Z" fill="#8A38F5" fill-opacity="0.25"/>
<path d="M19 11.2907L18 11.8405V16.4772L19 15.9147V11.2907ZM4.07519 8.49964L12 12.859L14.9248 11.2496L11.5185 9.3766C11.0347 9.11045 10.8579 8.50211 11.124 8.0182C11.3902 7.53428 11.9985 7.35751 12.4824 7.62367L17 10.108L19.9248 8.49964L12 4.14124L4.07519 8.49964ZM12 19.8522L16 17.6022V12.941L12.9639 14.611C12.3637 14.941 11.6363 14.9411 11.0361 14.611L4.99999 11.2907V15.9147L12 19.8522ZM21 15.9147C21 16.6372 20.6102 17.3036 19.9805 17.6578L18 18.7711V20.4996C18 21.0519 17.5523 21.4996 17 21.4996C16.4478 21.4996 16 21.0519 16 20.4996V19.8961L12.9805 21.5953C12.3716 21.9378 11.6283 21.9378 11.0195 21.5953L4.01952 17.6578C3.38992 17.3036 2.99999 16.6371 2.99999 15.9147V10.1852C1.73156 9.38208 1.76827 7.48645 3.11132 6.74769L11.0361 2.38929C11.6363 2.0592 12.3637 2.0592 12.9639 2.38929L20.8887 6.74769C22.2319 7.48646 22.2687 9.38215 21 10.1852V15.9147Z" fill="black"/>
</svg>
