<svg width="24" height="24" viewBox="0 0 24 24" fill="none" xmlns="http://www.w3.org/2000/svg">
<path d="M8 14C9.10457 14 10 14.8954 10 16V19C10 20.1046 9.10457 21 8 21H5C3.89543 21 3 20.1046 3 19V16C3 14.8954 3.89543 14 5 14H8Z" fill="#8A38F5" fill-opacity="0.25"/>
<path d="M8 3C9.10457 3 10 3.89543 10 5V8C10 9.10457 9.10457 10 8 10H5C3.89543 10 3 9.10457 3 8V5C3 3.89543 3.89543 3 5 3H8Z" fill="#8A38F5" fill-opacity="0.25"/>
<path d="M19 3C20.1046 3 21 3.89543 21 5V8C21 9.10457 20.1046 10 19 10H16C14.8954 10 14 9.10457 14 8V5C14 3.89543 14.8954 3 16 3H19Z" fill="#8A38F5" fill-opacity="0.25"/>
<path d="M9 16C9 15.4477 8.55228 15 8 15H5C4.44772 15 4 15.4477 4 16V19C4 19.5523 4.44772 20 5 20H8C8.55228 20 9 19.5523 9 19V16ZM18.9141 14.6719C19.3046 14.2814 19.9386 14.2814 20.3291 14.6719C20.7192 15.0624 20.7194 15.6955 20.3291 16.0859L18.9141 17.5L20.3291 18.9141C20.7194 19.3045 20.7192 19.9376 20.3291 20.3281C19.9386 20.7186 19.3046 20.7186 18.9141 20.3281L17.5 18.9141L16.0859 20.3281C15.6954 20.7186 15.0624 20.7186 14.6719 20.3281C14.2815 19.9376 14.2814 19.3046 14.6719 18.9141L16.0859 17.5L14.6719 16.0859C14.2814 15.6954 14.2815 15.0624 14.6719 14.6719C15.0624 14.2814 15.6954 14.2814 16.0859 14.6719L17.5 16.085L18.9141 14.6719ZM9 5C9 4.44772 8.55228 4 8 4H5C4.44772 4 4 4.44772 4 5V8C4 8.55228 4.44772 9 5 9H8C8.55228 9 9 8.55228 9 8V5ZM20 5C20 4.44772 19.5523 4 19 4H16C15.4477 4 15 4.44772 15 5V8C15 8.55228 15.4477 9 16 9H19C19.5523 9 20 8.55228 20 8V5ZM11 19C11 20.6569 9.65685 22 8 22H5C3.34315 22 2 20.6569 2 19V16C2 14.3431 3.34315 13 5 13H8C9.65685 13 11 14.3431 11 16V19ZM11 8C11 9.65685 9.65685 11 8 11H5C3.34315 11 2 9.65685 2 8V5C2 3.34315 3.34315 2 5 2H8C9.65685 2 11 3.34315 11 5V8ZM22 8C22 9.65685 20.6569 11 19 11H16C14.3431 11 13 9.65685 13 8V5C13 3.34315 14.3431 2 16 2H19C20.6569 2 22 3.34315 22 5V8Z" fill="black"/>
</svg>
