<svg width="24" height="24" viewBox="0 0 24 24" fill="none" xmlns="http://www.w3.org/2000/svg">
<path d="M11.0283 3.54002C11.6324 3.20443 12.3676 3.20443 12.9717 3.54002L19.9717 7.42869C20.6064 7.78148 21 8.45056 21 9.17673V19C21 20.1045 20.1046 21 19 21H15V14.5C15 14.2238 14.7761 14 14.5 14H9.5C9.22386 14 9 14.2238 9 14.5V21H5C3.89544 21 3.00001 20.1045 3 19V9.17673C3.00001 8.45056 3.39363 7.78148 4.02832 7.42869L11.0283 3.54002Z" fill="#8A38F5" fill-opacity="0.25"/>
<path d="M10 19.9998H14V14.9998H10V19.9998ZM16 19.9998H19C19.5523 19.9998 20 19.5521 20 18.9998V9.1766C19.9999 8.81352 19.8028 8.47891 19.4854 8.30258L12.4854 4.41391C12.1834 4.24624 11.8166 4.24624 11.5146 4.41391L4.51465 8.30258C4.19725 8.47891 4.00008 8.81352 4 9.1766V18.9998C4 19.5521 4.44772 19.9998 5 19.9998H8V14.4998C8.00009 13.6715 8.67163 12.9998 9.5 12.9998H14.5C15.3284 12.9998 15.9999 13.6715 16 14.4998V19.9998ZM22 18.9998C22 20.6567 20.6569 21.9998 19 21.9998H5C3.34315 21.9998 2 20.6567 2 18.9998V9.1766C2.00008 8.08724 2.59073 7.08363 3.54297 6.55453L10.543 2.66586C11.449 2.16249 12.551 2.16249 13.457 2.66586L20.457 6.55453C21.4093 7.08363 21.9999 8.08724 22 9.1766V18.9998Z" fill="black"/>
</svg>
