<svg width="24" height="24" viewBox="0 0 24 24" fill="none" xmlns="http://www.w3.org/2000/svg">
<path d="M3 13H7.17157C7.70201 13 8.21071 13.2107 8.58579 13.5858L9.41421 14.4142C9.78929 14.7893 10.298 15 10.8284 15H13.1716C13.702 15 14.2107 14.7893 14.5858 14.4142L15.4142 13.5858C15.7893 13.2107 16.298 13 16.8284 13H21V18C21 19.1046 20.1046 20 19 20H5C3.89543 20 3 19.1046 3 18V13Z" fill="#8A38F5" fill-opacity="0.25"/>
<path d="M20 14H16.8281C16.563 14.0001 16.3086 14.1055 16.1211 14.293L15.293 15.1211C14.7304 15.6836 13.9674 15.9999 13.1719 16H10.8281C10.0326 15.9999 9.26957 15.6836 8.70703 15.1211L7.87891 14.293C7.69144 14.1055 7.43698 14.0001 7.17188 14H4V18C4 18.5523 4.44772 19 5 19H19C19.5523 19 20 18.5523 20 18V14ZM6.60449 5C6.13579 5 5.7296 5.32567 5.62793 5.7832L4.24609 12H7.17188C7.96742 12.0001 8.73043 12.3164 9.29297 12.8789L10.1211 13.707C10.3086 13.8945 10.563 13.9999 10.8281 14H13.1719C13.437 13.9999 13.6914 13.8945 13.8789 13.707L14.707 12.8789C15.2696 12.3164 16.0326 12.0001 16.8281 12H19.7539L18.3721 5.7832C18.2704 5.32567 17.8642 5 17.3955 5H6.60449ZM22 18C22 19.6569 20.6569 21 19 21H5C3.34315 21 2 19.6569 2 18V13.2197C2 13.0008 2.02381 12.782 2.07129 12.5684L3.67578 5.34961C3.98081 3.977 5.1984 3 6.60449 3H17.3955C18.8016 3 20.0192 3.977 20.3242 5.34961L21.9287 12.5684C21.9762 12.782 22 13.0008 22 13.2197V18Z" fill="black"/>
</svg>
