<svg width="24" height="24" viewBox="0 0 24 24" fill="none" xmlns="http://www.w3.org/2000/svg">
<path d="M3 13H7.17157C7.70201 13 8.21071 13.2107 8.58579 13.5858L9.41421 14.4142C9.78929 14.7893 10.298 15 10.8284 15H13.1716C13.702 15 14.2107 14.7893 14.5858 14.4142L15.4142 13.5858C15.7893 13.2107 16.298 13 16.8284 13H21V18C21 19.1046 20.1046 20 19 20H5C3.89543 20 3 19.1046 3 18V13Z" fill="#8A38F5" fill-opacity="0.25"/>
<path d="M20 14.0001H16.8281C16.563 14.0002 16.3086 14.1056 16.1211 14.2931L15.293 15.1212C14.7304 15.6837 13.9674 16 13.1719 16.0001H10.8281C10.0326 16 9.26957 15.6837 8.70703 15.1212L7.87891 14.2931C7.69144 14.1056 7.43698 14.0002 7.17188 14.0001H4V18.0001C4.00004 18.5523 4.44774 19.0001 5 19.0001H19C19.5523 19.0001 20 18.5523 20 18.0001V14.0001ZM11 10.0001V4.41416L10.207 5.20712C9.81652 5.5976 9.18348 5.5976 8.79297 5.20712C8.40246 4.81661 8.40248 4.18359 8.79297 3.79306L10.9395 1.64658L11.0537 1.54306C11.6429 1.06295 12.5115 1.09755 13.0605 1.64658L15.207 3.79306C15.5975 4.18359 15.5975 4.81661 15.207 5.20712C14.8165 5.5976 14.1835 5.5976 13.793 5.20712L13 4.41416V10.0001C13 10.5523 12.5523 11.0001 12 11.0001C11.4477 11.0001 11 10.5523 11 10.0001ZM22 18.0001C22 19.6569 20.6568 21.0001 19 21.0001H5C3.34317 21.0001 2.00004 19.6569 2 18.0001V13.3243C2.00001 13.1611 2.01365 12.9985 2.04004 12.838C2.06577 12.6815 2.104 12.527 2.1543 12.3761L3.5957 8.05087C4.00417 6.82615 5.15033 6.00014 6.44141 6.00009H7C7.55228 6.00009 8 6.44781 8 7.00009C7.99996 7.55234 7.55226 8.00009 7 8.00009H6.44141C6.01109 8.00014 5.62932 8.27549 5.49316 8.68369L4.3877 12.0001H7.17188C7.96742 12.0002 8.73043 12.3165 9.29297 12.879L10.1211 13.7071C10.3086 13.8946 10.563 14 10.8281 14.0001H13.1719C13.437 14 13.6914 13.8946 13.8789 13.7071L14.707 12.879C15.2696 12.3165 16.0326 12.0002 16.8281 12.0001H19.6123L18.5068 8.68369C18.3707 8.27549 17.9889 8.00014 17.5586 8.00009H17C16.4477 8.00009 16 7.55234 16 7.00009C16 6.44781 16.4477 6.00009 17 6.00009H17.5586C18.8497 6.00014 19.9958 6.82615 20.4043 8.05087L21.8457 12.3761C21.867 12.4401 21.8844 12.5052 21.9014 12.5704C21.9636 12.7008 22 12.846 22 13.0001C22 13.0415 21.9961 13.0821 21.9912 13.1222C21.9958 13.1894 22 13.2568 22 13.3243V18.0001Z" fill="black"/>
</svg>
