<svg width="24" height="24" viewBox="0 0 24 24" fill="none" xmlns="http://www.w3.org/2000/svg">
<path d="M10.1973 3.29808C7.18456 4.09842 4.67163 6.44363 3.80695 9.67064C2.52047 14.4718 5.36971 19.4069 10.1709 20.6933C14.7876 21.9304 19.5281 19.3434 21.0294 14.874C21.0972 14.672 20.8827 14.5015 20.6963 14.6047C13.8559 18.3917 6.36234 10.7873 10.2493 4.00319L10.455 3.64423C10.5597 3.46144 10.4009 3.244 10.1973 3.29808Z" fill="#8A38F5" fill-opacity="0.25"/>
<path d="M9.94086 2.33165C11.0647 2.03308 11.837 3.24359 11.3227 4.14122L11.1176 4.50059C7.73386 10.4066 14.2573 17.0267 20.2123 13.7301L20.3002 13.6861C21.2135 13.2706 22.3451 14.098 21.978 15.192C20.3096 20.1589 15.0426 23.0334 9.91254 21.6588C4.57793 20.2293 1.41184 14.7464 2.84125 9.41172C3.80233 5.82497 6.59636 3.22016 9.94086 2.33165ZM8.70258 4.9586C6.83172 5.96811 5.366 7.71583 4.77289 9.9293C3.62936 14.197 6.16245 18.5836 10.4301 19.7272C13.8953 20.6556 17.4391 19.1603 19.2612 16.2809C12.6335 18.2024 6.28607 11.5599 8.70258 4.9586Z" fill="black"/>
</svg>
