<svg width="24" height="24" viewBox="0 0 24 24" fill="none" xmlns="http://www.w3.org/2000/svg">
<path d="M3 9H21V5C21 3.89543 20.1046 3 19 3H5C3.89543 3 3 3.89543 3 5V9Z" fill="#8A38F5" fill-opacity="0.25"/>
<path d="M19 20C19.5523 20 20 19.5523 20 19V5C20 4.44772 19.5523 4 19 4H5C4.44772 4 4 4.44772 4 5V19C4 19.5523 4.44772 20 5 20H19ZM7 8H8C8.55229 8 9 8.44772 9 9C9 9.55228 8.55229 10 8 10H7C6.44771 10 6 9.55228 6 9C6 8.44772 6.44771 8 7 8ZM11.5 8H12.5C13.0523 8 13.5 8.44772 13.5 9C13.5 9.55228 13.0523 10 12.5 10H11.5C10.9477 10 10.5 9.55228 10.5 9C10.5 8.44772 10.9477 8 11.5 8ZM16 8H17C17.5523 8 18 8.44772 18 9C18 9.55228 17.5523 10 17 10H16C15.4477 10 15 9.55228 15 9C15 8.44772 15.4477 8 16 8ZM5 22C3.34315 22 2 20.6569 2 19V5C2 3.34315 3.34315 2 5 2H19C20.6569 2 22 3.34315 22 5V19C22 20.6569 20.6569 22 19 22H5Z" fill="black"/>
</svg>
