<svg width="24" height="24" viewBox="0 0 24 24" fill="none" xmlns="http://www.w3.org/2000/svg">
<path d="M21 17V19C21 20.1046 20.1046 21 19 21H5C3.89543 21 3 20.1046 3 19V17H21Z" fill="#8A38F5" fill-opacity="0.25"/>
<path d="M3 5C3 3.89543 3.89543 3 5 3H19C20.1046 3 21 3.89543 21 5V7H3V5Z" fill="#8A38F5" fill-opacity="0.25"/>
<path d="M5 4C4.44772 4 4 4.44772 4 5V19C4 19.5523 4.44772 20 5 20H19C19.5523 20 20 19.5523 20 19V5C20 4.44772 19.5523 4 19 4H5ZM17 18H16C15.4477 18 15 17.5523 15 17C15 16.4477 15.4477 16 16 16H17C17.5523 16 18 16.4477 18 17C18 17.5523 17.5523 18 17 18ZM17 8H16C15.4477 8 15 7.55229 15 7C15 6.44771 15.4477 6 16 6H17C17.5523 6 18 6.44771 18 7C18 7.55229 17.5523 8 17 8ZM12.5 18H11.5C10.9477 18 10.5 17.5523 10.5 17C10.5 16.4477 10.9477 16 11.5 16H12.5C13.0523 16 13.5 16.4477 13.5 17C13.5 17.5523 13.0523 18 12.5 18ZM12.5 8H11.5C10.9477 8 10.5 7.55229 10.5 7C10.5 6.44771 10.9477 6 11.5 6H12.5C13.0523 6 13.5 6.44771 13.5 7C13.5 7.55229 13.0523 8 12.5 8ZM8 18H7C6.44772 18 6 17.5523 6 17C6 16.4477 6.44772 16 7 16H8C8.55228 16 9 16.4477 9 17C9 17.5523 8.55228 18 8 18ZM8 8H7C6.44772 8 6 7.55229 6 7C6 6.44771 6.44772 6 7 6H8C8.55228 6 9 6.44771 9 7C9 7.55229 8.55228 8 8 8ZM19 2C20.6569 2 22 3.34315 22 5V19C22 20.6569 20.6569 22 19 22H5C3.34315 22 2 20.6569 2 19V5C2 3.34315 3.34315 2 5 2H19Z" fill="black"/>
</svg>
