<svg width="24" height="24" viewBox="0 0 24 24" fill="none" xmlns="http://www.w3.org/2000/svg">
<path fill-rule="evenodd" clip-rule="evenodd" d="M19 3C20.1046 3 21 3.89543 21 5V19C21 20.1046 20.1046 21 19 21H5C3.89543 21 3 20.1046 3 19V5C3 3.89543 3.89543 3 5 3H19ZM7.5 7C7.22386 7 7 7.22386 7 7.5V16.5C7 16.7761 7.22386 17 7.5 17H16.5C16.7761 17 17 16.7761 17 16.5V7.5C17 7.22386 16.7761 7 16.5 7H7.5Z" fill="#8A38F5" fill-opacity="0.25"/>
<path d="M20 5C20 4.44772 19.5523 4 19 4H5C4.44772 4 4 4.44772 4 5V19C4 19.5523 4.44772 20 5 20H19C19.5523 20 20 19.5523 20 19V5ZM6 16C6 15.4477 6.44772 15 7 15C7.55228 15 8 15.4477 8 16C8.55228 16 9 16.4477 9 17C9 17.5523 8.55228 18 8 18H7.5C6.67157 18 6 17.3284 6 16.5V16ZM12.5 16C13.0523 16 13.5 16.4477 13.5 17C13.5 17.5523 13.0523 18 12.5 18H11.5C10.9477 18 10.5 17.5523 10.5 17C10.5 16.4477 10.9477 16 11.5 16H12.5ZM6 12.5V11.5C6 10.9477 6.44772 10.5 7 10.5C7.55228 10.5 8 10.9477 8 11.5V12.5C8 13.0523 7.55228 13.5 7 13.5C6.44772 13.5 6 13.0523 6 12.5ZM16 12.5V11.5C16 10.9477 16.4477 10.5 17 10.5C17.5523 10.5 18 10.9477 18 11.5V12.5C18 13.0523 17.5523 13.5 17 13.5C16.4477 13.5 16 13.0523 16 12.5ZM6 8V7.5C6 6.67157 6.67157 6 7.5 6H8C8.55228 6 9 6.44772 9 7C9 7.55228 8.55228 8 8 8C8 8.55228 7.55228 9 7 9C6.44772 9 6 8.55228 6 8ZM12.5 6C13.0523 6 13.5 6.44772 13.5 7C13.5 7.55228 13.0523 8 12.5 8H11.5C10.9477 8 10.5 7.55228 10.5 7C10.5 6.44772 10.9477 6 11.5 6H12.5ZM18 16.5C18 17.3284 17.3284 18 16.5 18H16C15.4477 18 15 17.5523 15 17C15 16.4477 15.4477 16 16 16C16 15.4477 16.4477 15 17 15C17.5523 15 18 15.4477 18 16V16.5ZM18 8C18 8.55228 17.5523 9 17 9C16.4477 9 16 8.55228 16 8C15.4477 8 15 7.55228 15 7C15 6.44772 15.4477 6 16 6H16.5C17.3284 6 18 6.67157 18 7.5V8ZM22 19C22 20.6569 20.6569 22 19 22H5C3.34315 22 2 20.6569 2 19V5C2 3.34315 3.34315 2 5 2H19C20.6569 2 22 3.34315 22 5V19Z" fill="black"/>
</svg>
