<svg width="24" height="24" viewBox="0 0 24 24" fill="none" xmlns="http://www.w3.org/2000/svg">
<path d="M3 5C3 3.89543 3.89543 3 5 3H9V21H5C3.89543 21 3 20.1046 3 19V5Z" fill="#8A38F5" fill-opacity="0.25"/>
<path d="M20 5C20 4.44772 19.5523 4 19 4H5C4.44772 4 4 4.44772 4 5V19C4 19.5523 4.44772 20 5 20H19C19.5523 20 20 19.5523 20 19V5ZM8 17V16C8 15.4477 8.44772 15 9 15C9.55228 15 10 15.4477 10 16V17C10 17.5523 9.55228 18 9 18C8.44772 18 8 17.5523 8 17ZM8 12.5V11.5C8 10.9477 8.44772 10.5 9 10.5C9.55228 10.5 10 10.9477 10 11.5V12.5C10 13.0523 9.55228 13.5 9 13.5C8.44772 13.5 8 13.0523 8 12.5ZM8 8V7C8 6.44772 8.44772 6 9 6C9.55228 6 10 6.44772 10 7V8C10 8.55228 9.55228 9 9 9C8.44772 9 8 8.55228 8 8ZM22 19C22 20.6569 20.6569 22 19 22H5C3.34315 22 2 20.6569 2 19V5C2 3.34315 3.34315 2 5 2H19C20.6569 2 22 3.34315 22 5V19Z" fill="black"/>
</svg>
