<svg width="24" height="24" viewBox="0 0 24 24" fill="none" xmlns="http://www.w3.org/2000/svg">
<path d="M4 6C4 4.89543 4.89543 4 6 4H18C19.1046 4 20 4.89543 20 6V18C20 19.1046 19.1046 20 18 20H6C4.89543 20 4 19.1046 4 18V6Z" fill="#8A38F5" fill-opacity="0.25"/>
<path d="M11 20V13H4C3.44772 13 3 12.5523 3 12C3 11.4477 3.44772 11 4 11H11V4C11 3.44772 11.4477 3 12 3C12.5523 3 13 3.44772 13 4V11H20C20.5523 11 21 11.4477 21 12C21 12.5523 20.5523 13 20 13H13V20C13 20.5523 12.5523 21 12 21C11.4477 21 11 20.5523 11 20Z" fill="black"/>
</svg>
