<svg width="24" height="24" viewBox="0 0 24 24" fill="none" xmlns="http://www.w3.org/2000/svg">
<path d="M3 14H21V18C21 19.1046 20.1046 20 19 20H5C3.89543 20 3 19.1046 3 18V14Z" fill="#8A38F5" fill-opacity="0.25"/>
<path d="M20 15H4V18C4 18.5523 4.44772 19 5 19H19C19.5523 19 20 18.5523 20 18V15ZM6.00098 16C6.55326 16 7.00098 16.4477 7.00098 17C7.00098 17.5523 6.55326 18 6.00098 18H6C5.44772 18 5 17.5523 5 17C5 16.4477 5.44772 16 6 16H6.00098ZM9.00098 16C9.55326 16 10.001 16.4477 10.001 17C10.001 17.5523 9.55326 18 9.00098 18H9C8.44772 18 8 17.5523 8 17C8 16.4477 8.44772 16 9 16H9.00098ZM18 16C18.5523 16 19 16.4477 19 17C19 17.5523 18.5523 18 18 18H12C11.4477 18 11 17.5523 11 17C11 16.4477 11.4477 16 12 16H18ZM6.63965 5C6.16304 5 5.75274 5.33639 5.65918 5.80371L4.21973 13H19.7803L18.3408 5.80371C18.2473 5.33639 17.837 5 17.3604 5H6.63965ZM22 18C22 19.6569 20.6569 21 19 21H5C3.34315 21 2 19.6569 2 18V14.1982C2 14.1654 2.0038 14.1324 2.00488 14.0996C2.00164 14.0668 2 14.0336 2 14C2 13.8963 2.01562 13.7962 2.04492 13.7021C2.05007 13.6715 2.05249 13.6399 2.05859 13.6094L3.69824 5.41211C3.9787 4.00984 5.2096 3 6.63965 3H17.3604C18.7904 3 20.0213 4.00984 20.3018 5.41211L21.9414 13.6094C21.9475 13.6399 21.9499 13.6715 21.9551 13.7021C21.9844 13.7962 22 13.8963 22 14C22 14.0336 21.9984 14.0668 21.9951 14.0996C21.9962 14.1324 22 14.1654 22 14.1982V18Z" fill="black"/>
</svg>
