<svg width="24" height="24" viewBox="0 0 24 24" fill="none" xmlns="http://www.w3.org/2000/svg">
<path d="M3 4C3 3.44772 3.44772 3 4 3H20C20.5523 3 21 3.44772 21 4V20C21 20.5523 20.5523 21 20 21H4C3.44772 21 3 20.5523 3 20V4Z" fill="#8A38F5" fill-opacity="0.25"/>
<path d="M2 20V19.1113C2 18.559 2.44772 18.1113 3 18.1113C3.55228 18.1113 4 18.559 4 19.1113V20H4.88867C5.44096 20 5.88867 20.4477 5.88867 21C5.88867 21.5523 5.44096 22 4.88867 22H4C2.89543 22 2 21.1046 2 20ZM10.2227 20C10.7747 20.0002 11.2227 20.4479 11.2227 21C11.2227 21.5521 10.7747 21.9998 10.2227 22H8.44434C7.8921 21.9999 7.44434 21.5522 7.44434 21C7.44434 20.4478 7.8921 20.0001 8.44434 20H10.2227ZM15.5557 20C16.1079 20.0001 16.5557 20.4478 16.5557 21C16.5557 21.5522 16.1079 21.9999 15.5557 22H13.7773C13.2253 21.9998 12.7773 21.5521 12.7773 21C12.7773 20.4479 13.2253 20.0002 13.7773 20H15.5557ZM20 20V19.1113C20 18.559 20.4477 18.1113 21 18.1113C21.5523 18.1113 22 18.559 22 19.1113V20C22 21.1046 21.1046 22 20 22H19.1113C18.559 22 18.1113 21.5523 18.1113 21C18.1113 20.4477 18.559 20 19.1113 20H20ZM2 15.5557V13.7773C2.00023 13.2253 2.44786 12.7773 3 12.7773C3.55214 12.7773 3.99977 13.2253 4 13.7773V15.5557C3.99994 16.1079 3.55225 16.5557 3 16.5557C2.44775 16.5557 2.00006 16.1079 2 15.5557ZM20 15.5557V13.7773C20.0002 13.2253 20.4479 12.7773 21 12.7773C21.5521 12.7773 21.9998 13.2253 22 13.7773V15.5557C21.9999 16.1079 21.5522 16.5557 21 16.5557C20.4478 16.5557 20.0001 16.1079 20 15.5557ZM2 10.2227V8.44434C2.00006 7.8921 2.44775 7.44434 3 7.44434C3.55225 7.44434 3.99994 7.8921 4 8.44434V10.2227C3.99977 10.7747 3.55214 11.2227 3 11.2227C2.44786 11.2227 2.00023 10.7747 2 10.2227ZM20 10.2227V8.44434C20.0001 7.8921 20.4478 7.44434 21 7.44434C21.5522 7.44434 21.9999 7.8921 22 8.44434V10.2227C21.9998 10.7747 21.5521 11.2227 21 11.2227C20.4479 11.2227 20.0002 10.7747 20 10.2227ZM2 4.88867V4C2 2.89543 2.89543 2 4 2H4.88867C5.44096 2 5.88867 2.44772 5.88867 3C5.88867 3.55228 5.44096 4 4.88867 4H4V4.88867C4 5.44096 3.55228 5.88867 3 5.88867C2.44772 5.88867 2 5.44096 2 4.88867ZM20 4.88867V4H19.1113C18.559 4 18.1113 3.55228 18.1113 3C18.1113 2.44772 18.559 2 19.1113 2H20C21.1046 2 22 2.89543 22 4V4.88867C22 5.44096 21.5523 5.88867 21 5.88867C20.4477 5.88867 20 5.44096 20 4.88867ZM10.2227 2C10.7747 2.00023 11.2227 2.44786 11.2227 3C11.2227 3.55214 10.7747 3.99977 10.2227 4H8.44434C7.8921 3.99994 7.44434 3.55225 7.44434 3C7.44434 2.44775 7.8921 2.00006 8.44434 2H10.2227ZM15.5557 2C16.1079 2.00006 16.5557 2.44775 16.5557 3C16.5557 3.55225 16.1079 3.99994 15.5557 4H13.7773C13.2253 3.99977 12.7773 3.55214 12.7773 3C12.7773 2.44786 13.2253 2.00023 13.7773 2H15.5557Z" fill="black"/>
</svg>
