<svg width="24" height="24" viewBox="0 0 24 24" fill="none" xmlns="http://www.w3.org/2000/svg">
<path d="M15.9691 15C15.9895 14.8362 16 14.6693 16 14.5C16 12.2909 14.2091 10.5 12 10.5C9.79086 10.5 8 12.2909 8 14.5C8 14.6693 8.01052 14.8362 8.03095 15H15.9691Z" fill="#8A38F5" fill-opacity="0.25"/>
<path d="M21 17C21.5523 17 22 17.4477 22 18C22 18.5523 21.5523 19 21 19H3C2.44772 19 2 18.5523 2 18C2 17.4477 2.44772 17 3 17H21ZM21 13.5C21.5523 13.5 22 13.9477 22 14.5V14.501C22 15.0533 21.5523 15.501 21 15.501H19.5C18.9477 15.501 18.5 15.0533 18.5 14.501V14.5C18.5 13.9477 18.9477 13.5 19.5 13.5H21ZM4.5 13.499L4.60254 13.5039C5.10667 13.5552 5.5 13.9813 5.5 14.499V14.5C5.5 15.0523 5.05228 15.5 4.5 15.5H3C2.44772 15.5 2 15.0523 2 14.5V14.499C2 13.9467 2.44772 13.499 3 13.499H4.5ZM15 14.5C15 12.8431 13.6569 11.5 12 11.5C10.3431 11.5 9 12.8431 9 14.5C9 15.0523 8.55228 15.5 8 15.5C7.44772 15.5 7 15.0523 7 14.5C7 11.7386 9.23858 9.5 12 9.5C14.7614 9.5 17 11.7386 17 14.5C17 15.0523 16.5523 15.5 16 15.5C15.4477 15.5 15 15.0523 15 14.5ZM17.6572 7.42871C18.0477 7.03843 18.6808 7.03846 19.0713 7.42871C19.4617 7.81896 19.4622 8.4521 19.0723 8.84277L18.0117 9.9043C17.8243 10.0919 17.5699 10.1971 17.3047 10.1973C17.0395 10.1974 16.7853 10.0918 16.5977 9.9043H16.5967C16.4091 9.71687 16.3039 9.4624 16.3037 9.19727C16.3037 8.96498 16.3842 8.74055 16.5303 8.5625L16.5967 8.48926L17.6572 7.42871ZM5.00488 7.35938C5.39761 7.03894 5.97758 7.06171 6.34375 7.42773L7.4043 8.48926C7.79459 8.8798 7.79474 9.51287 7.4043 9.90332H7.40332C7.0128 10.2938 6.37978 10.2938 5.98926 9.90332L4.92871 8.84277C4.53833 8.45224 4.53823 7.81919 4.92871 7.42871L4.92969 7.42773L5.00488 7.35938ZM11 7V5.5C11 4.94772 11.4477 4.5 12 4.5C12.5523 4.5 13 4.94772 13 5.5V7C13 7.55228 12.5523 8 12 8C11.4477 8 11 7.55228 11 7Z" fill="black"/>
</svg>
