<svg width="24" height="24" viewBox="0 0 24 24" fill="none" xmlns="http://www.w3.org/2000/svg">
<path d="M10.6913 8.21895C9.12483 8.76107 8 10.2491 8 11.9999C8 14.2091 9.79086 15.9999 12 15.9999C14.1065 15.9999 15.8328 14.3716 15.9885 12.3049C16.0004 12.1476 15.8557 12.0288 15.701 12.0597L14.5883 12.2823C12.732 12.6535 11 11.2337 11 9.34053V8.44845C11 8.28509 10.8456 8.16553 10.6913 8.21895Z" fill="#8A38F5" fill-opacity="0.25"/>
<path d="M11 21V19.5C11 18.9477 11.4477 18.5 12 18.5C12.5523 18.5 13 18.9477 13 19.5V21C13 21.5523 12.5523 22 12 22C11.4477 22 11 21.5523 11 21ZM5.98828 16.5957C6.37852 16.2052 7.01162 16.2047 7.40234 16.5947C7.79305 16.9849 7.79334 17.618 7.40332 18.0088L6.34375 19.0703C5.95349 19.4611 5.3195 19.4616 4.92871 19.0713C4.5383 18.6811 4.53775 18.0479 4.92773 17.6572L5.98828 16.5957ZM17.3037 16.3037C17.5688 16.3037 17.8233 16.4083 18.0107 16.5957L19.0713 17.6562H19.0703L19.0713 17.6572C19.4616 18.0477 19.4615 18.6808 19.0713 19.0713C18.681 19.4615 18.0478 19.4613 17.6572 19.0713L16.5967 18.0117C16.2059 17.6215 16.2054 16.9884 16.5957 16.5977V16.5967L16.6689 16.5303C16.8469 16.3841 17.0714 16.3038 17.3037 16.3037ZM10.5244 7.22949C11.3199 7.06159 11.9998 7.70962 12 8.44824V9.34082C12.0001 10.6028 13.1551 11.5493 14.3926 11.3018L15.5049 11.0791L15.6455 11.0596C16.3509 11.0027 17.0468 11.5632 16.9854 12.3799C16.7905 14.9642 14.6336 17 12 17C9.23858 17 7.00001 14.7614 7 12C7 9.80998 8.40754 7.95164 10.3643 7.27441L10.5244 7.22949ZM4.5 11C5.05228 11 5.5 11.4477 5.5 12C5.5 12.5523 5.05228 13 4.5 13H3C2.44772 13 2 12.5523 2 12C2 11.4477 2.44772 11 3 11H4.5ZM21 11C21.5523 11 22 11.4477 22 12C22 12.5523 21.5523 13 21 13H19.5C18.9477 13 18.5 12.5523 18.5 12C18.5 11.4477 18.9477 11 19.5 11H21ZM17.6572 4.92871C18.0477 4.53843 18.6808 4.53846 19.0713 4.92871C19.4617 5.31896 19.4622 5.9521 19.0723 6.34277L18.0117 7.4043C17.8243 7.59187 17.5699 7.69713 17.3047 7.69727C17.0395 7.69737 16.7853 7.59178 16.5977 7.4043H16.5967C16.4091 7.21687 16.3039 6.9624 16.3037 6.69727C16.3037 6.46498 16.3842 6.24055 16.5303 6.0625L16.5967 5.98926L17.6572 4.92871ZM4.92969 4.92871C5.29586 4.56254 5.87578 4.53888 6.26855 4.85938L6.34375 4.92871L7.4043 5.98926L7.47363 6.06445C7.79407 6.45723 7.77044 7.03717 7.4043 7.40332V7.4043C7.01392 7.79457 6.38077 7.79432 5.99023 7.4043L4.92871 6.34277C4.53861 5.95225 4.53841 5.31911 4.92871 4.92871H4.92969ZM11 4.5V3C11 2.44772 11.4477 2 12 2C12.5523 2 13 2.44772 13 3V4.5C13 5.05228 12.5523 5.5 12 5.5C11.4477 5.5 11 5.05228 11 4.5ZM9 12C9.00001 13.6568 10.3431 15 12 15C13.2007 15 14.2355 14.2934 14.7148 13.2744C12.4 13.6964 10.249 12.04 10.0205 9.74512C9.3944 10.2954 9 11.1023 9 12Z" fill="black"/>
</svg>
