<svg width="24" height="24" viewBox="0 0 24 24" fill="none" xmlns="http://www.w3.org/2000/svg">
<path d="M16 12C16 14.2091 14.2091 16 12 16C9.79086 16 8 14.2091 8 12C8 9.79086 9.79086 8 12 8C14.2091 8 16 9.79086 16 12Z" fill="#8A38F5" fill-opacity="0.25"/>
<path d="M12 19.5C12.5523 19.5 13 19.9477 13 20.5V21C13 21.5523 12.5523 22 12 22H11.999C11.4467 22 10.999 21.5523 10.999 21V20.5C10.999 19.9477 11.4467 19.5 11.999 19.5H12ZM5.28027 17.3037C5.66998 16.9127 6.3031 16.9113 6.69434 17.3008C7.08564 17.6905 7.08701 18.3245 6.69727 18.7158L6.34473 19.0693C5.95498 19.4606 5.32099 19.462 4.92969 19.0723C4.53874 18.6826 4.53731 18.0494 4.92676 17.6582L5.28027 17.3037ZM18.0107 17.0107C18.2759 17.0108 18.5302 17.1162 18.7178 17.3037L19.0703 17.6553H19.0693L19.0713 17.6572C19.4613 18.0474 19.462 18.6797 19.0723 19.0703C18.6824 19.461 18.0492 19.4617 17.6582 19.0723L17.3047 18.7197C17.1167 18.5325 17.0102 18.2781 17.0098 18.0127C17.0094 17.7472 17.1152 17.4925 17.3027 17.3047V17.3037C17.4902 17.116 17.7454 17.0108 18.0107 17.0107ZM15 12C15 10.3431 13.6569 9 12 9C10.3431 9 9 10.3431 9 12C9 13.6569 10.3431 15 12 15C13.6569 15 15 13.6569 15 12ZM21 11C21.5523 11 22 11.4477 22 12V12.001C22 12.5533 21.5523 13.001 21 13.001H20.5C19.9477 13.001 19.5 12.5533 19.5 12.001V12C19.5 11.4477 19.9477 11 20.5 11H21ZM3.5 10.999L3.60254 11.0039C4.10667 11.0552 4.5 11.4813 4.5 11.999V12C4.5 12.5523 4.05228 13 3.5 13H3C2.44772 13 2 12.5523 2 12V11.999C2 11.4467 2.44772 10.999 3 10.999H3.5ZM17.6572 4.92871C18.0475 4.53862 18.6797 4.5389 19.0703 4.92871C19.4608 5.31851 19.4625 5.95078 19.0732 6.3418L18.7197 6.69629C18.5324 6.88422 18.278 6.98989 18.0127 6.99023C17.7472 6.99054 17.4925 6.88494 17.3047 6.69727H17.3037C17.1162 6.50986 17.0109 6.25534 17.0107 5.99023C17.0107 5.75799 17.0913 5.53351 17.2373 5.35547L17.3037 5.28223L17.6572 4.92871ZM5.63672 4.63574C5.90175 4.63574 6.15625 4.74044 6.34375 4.92773L6.69629 5.28027H6.69531L6.69727 5.28223C7.08745 5.67248 7.08808 6.30469 6.69824 6.69531C6.30842 7.08587 5.67618 7.0866 5.28516 6.69727L5.2832 6.69531L5.04004 6.45312L4.93066 6.34473C4.74251 6.15732 4.63698 5.90228 4.63672 5.63672C4.63654 5.37132 4.74107 5.11641 4.92871 4.92871L4.92969 4.92773C5.11716 4.74036 5.37166 4.6358 5.63672 4.63574ZM12.001 2C12.5533 2 13.001 2.44772 13.001 3V3.5L12.9961 3.60254C12.9448 4.10667 12.5187 4.5 12.001 4.5H12C11.4477 4.5 11 4.05228 11 3.5V3C11 2.44772 11.4477 2 12 2H12.001ZM17 12C17 14.7614 14.7614 17 12 17C9.23858 17 7 14.7614 7 12C7 9.23858 9.23858 7 12 7C14.7614 7 17 9.23858 17 12Z" fill="black"/>
</svg>
