<svg width="24" height="24" viewBox="0 0 24 24" fill="none" xmlns="http://www.w3.org/2000/svg">
<path d="M16 12C16 14.2091 14.2091 16 12 16C9.79086 16 8 14.2091 8 12C8 9.79086 9.79086 8 12 8C14.2091 8 16 9.79086 16 12Z" fill="#8A38F5" fill-opacity="0.25"/>
<path d="M11 21V19.5C11 18.9477 11.4477 18.5 12 18.5C12.5523 18.5 13 18.9477 13 19.5V21C13 21.5523 12.5523 22 12 22C11.4477 22 11 21.5523 11 21ZM5.98828 16.5957C6.37852 16.2052 7.01162 16.2047 7.40234 16.5947C7.79305 16.9849 7.79334 17.618 7.40332 18.0088L6.34375 19.0703C5.95349 19.4611 5.3195 19.4616 4.92871 19.0713C4.5383 18.6811 4.53774 18.0479 4.92773 17.6572L5.98828 16.5957ZM17.3037 16.3037C17.5689 16.3037 17.8232 16.4092 18.0107 16.5967L19.0713 17.6562H19.0703L19.0713 17.6572C19.4616 18.0477 19.4615 18.6808 19.0713 19.0713C18.681 19.4615 18.0478 19.4613 17.6572 19.0713L16.5967 18.0117C16.2059 17.6215 16.2054 16.9884 16.5957 16.5977V16.5967L16.6689 16.5303C16.8469 16.3841 17.0714 16.3038 17.3037 16.3037ZM15 12C15 10.3431 13.6569 9 12 9C10.3431 9 9 10.3431 9 12C9 13.6569 10.3431 15 12 15C13.6569 15 15 13.6569 15 12ZM4.5 11C5.05228 11 5.5 11.4477 5.5 12C5.5 12.5523 5.05228 13 4.5 13H3C2.44772 13 2 12.5523 2 12C2 11.4477 2.44772 11 3 11H4.5ZM21 11C21.5523 11 22 11.4477 22 12C22 12.5523 21.5523 13 21 13H19.5C18.9477 13 18.5 12.5523 18.5 12C18.5 11.4477 18.9477 11 19.5 11H21ZM17.6572 4.92871C18.0477 4.53843 18.6808 4.53846 19.0713 4.92871C19.4617 5.31896 19.4622 5.9521 19.0723 6.34277L18.0117 7.4043C17.8243 7.59187 17.5699 7.69713 17.3047 7.69727C17.0395 7.69737 16.7853 7.59178 16.5977 7.4043H16.5967C16.4091 7.21688 16.3039 6.9624 16.3037 6.69727C16.3037 6.46498 16.3842 6.24055 16.5303 6.0625L16.5967 5.98926L17.6572 4.92871ZM4.92969 4.92871C5.29586 4.56254 5.87578 4.53887 6.26855 4.85938L6.34375 4.92871L7.4043 5.98926C7.77037 6.35533 7.79387 6.93438 7.47363 7.32715L7.4043 7.40332C7.03815 7.76946 6.4582 7.79308 6.06543 7.47266L5.99023 7.40332L4.92871 6.34277C4.53861 5.95225 4.53841 5.31911 4.92871 4.92871H4.92969ZM11 4.5V3C11 2.44772 11.4477 2 12 2C12.5523 2 13 2.44772 13 3V4.5C13 5.05228 12.5523 5.5 12 5.5C11.4477 5.5 11 5.05228 11 4.5ZM17 12C17 14.7614 14.7614 17 12 17C9.23858 17 7 14.7614 7 12C7 9.23858 9.23858 7 12 7C14.7614 7 17 9.23858 17 12Z" fill="black"/>
</svg>
