<svg width="24" height="24" viewBox="0 0 24 24" fill="none" xmlns="http://www.w3.org/2000/svg">
<path d="M15.9691 15C15.9895 14.8362 16 14.6693 16 14.5C16 12.2909 14.2091 10.5 12 10.5C9.79086 10.5 8 12.2909 8 14.5C8 14.6693 8.01052 14.8362 8.03095 15H15.9691Z" fill="#8A38F5" fill-opacity="0.25"/>
<path d="M21 17.0001C21.5523 17.0001 22 17.4478 22 18.0001C22 18.5523 21.5523 19.0001 21 19.0001H3C2.44774 19.0001 2.00004 18.5523 2 18.0001C2 17.4478 2.44772 17.0001 3 17.0001H21ZM4.5 13.5001C5.05228 13.5001 5.5 13.9478 5.5 14.5001C5.49996 15.0523 5.05226 15.5001 4.5 15.5001H3C2.44774 15.5001 2.00004 15.0523 2 14.5001C2 13.9478 2.44772 13.5001 3 13.5001H4.5ZM15 14.5001C15 12.8432 13.6569 11.5001 12 11.5001C10.3431 11.5001 9 12.8432 9 14.5001C8.99996 15.0523 8.55226 15.5001 8 15.5001C7.44774 15.5001 7.00004 15.0523 7 14.5001C7 11.7387 9.23858 9.50009 12 9.50009C14.7614 9.50009 17 11.7387 17 14.5001C17 15.0523 16.5523 15.5001 16 15.5001C15.4477 15.5001 15 15.0523 15 14.5001ZM21 13.5001C21.5523 13.5001 22 13.9478 22 14.5001C22 15.0523 21.5523 15.5001 21 15.5001H19.5C18.9477 15.5001 18.5 15.0523 18.5 14.5001C18.5 13.9478 18.9477 13.5001 19.5 13.5001H21ZM4.92871 7.4288C5.31921 7.03843 5.95228 7.03843 6.34277 7.4288L7.40332 8.48935C7.79381 8.87984 7.79373 9.51288 7.40332 9.90341C7.0128 10.2939 6.37978 10.2939 5.98926 9.90341L4.92871 8.84287C4.5383 8.45233 4.53822 7.81929 4.92871 7.4288ZM17.6562 7.4288C18.0468 7.03828 18.6808 7.03828 19.0713 7.4288C19.4616 7.81922 19.4614 8.45236 19.0713 8.84287L18.0098 9.90341C17.6192 10.2939 16.9862 10.2939 16.5957 9.90341C16.2055 9.51287 16.2053 8.87976 16.5957 8.48935L17.6562 7.4288ZM11 7.00009V4.41416L10.207 5.20712C9.81652 5.5976 9.18348 5.5976 8.79297 5.20712C8.40246 4.81661 8.40248 4.18359 8.79297 3.79306L10.9395 1.64658L11.0537 1.54306C11.6429 1.06295 12.5115 1.09755 13.0605 1.64658L15.207 3.79306C15.5975 4.18359 15.5975 4.81661 15.207 5.20712C14.8165 5.5976 14.1835 5.5976 13.793 5.20712L13 4.41416V7.00009C13 7.55234 12.5523 8.00009 12 8.00009C11.4477 8.00009 11 7.55234 11 7.00009Z" fill="black"/>
</svg>
