<svg width="24" height="24" viewBox="0 0 24 24" fill="none" xmlns="http://www.w3.org/2000/svg">
<path d="M15.9691 15C15.9895 14.8362 16 14.6693 16 14.5C16 12.2909 14.2091 10.5 12 10.5C9.79086 10.5 8 12.2909 8 14.5C8 14.6693 8.01052 14.8362 8.03095 15H15.9691Z" fill="#8A38F5" fill-opacity="0.25"/>
<path d="M21 17.1036C21.5523 17.1036 22 17.5514 22 18.1036C22 18.6559 21.5523 19.1036 21 19.1036H3C2.44772 19.1036 2 18.6559 2 18.1036C2 17.5514 2.44772 17.1036 3 17.1036H21ZM4.5 13.6036C5.05228 13.6036 5.5 14.0514 5.5 14.6036C5.5 15.1559 5.05228 15.6036 4.5 15.6036H3C2.44772 15.6036 2 15.1559 2 14.6036C2 14.0514 2.44772 13.6036 3 13.6036H4.5ZM15 14.6036C15 12.9468 13.6569 11.6036 12 11.6036C10.3431 11.6036 9 12.9468 9 14.6036C9 15.1559 8.55228 15.6036 8 15.6036C7.44772 15.6036 7 15.1559 7 14.6036C7 11.8422 9.23858 9.60364 12 9.60364C14.7614 9.60364 17 11.8422 17 14.6036C17 15.1559 16.5523 15.6036 16 15.6036C15.4477 15.6036 15 15.1559 15 14.6036ZM21 13.6036C21.5523 13.6036 22 14.0514 22 14.6036C22 15.1559 21.5523 15.6036 21 15.6036H19.5C18.9477 15.6036 18.5 15.1559 18.5 14.6036C18.5 14.0514 18.9477 13.6036 19.5 13.6036H21ZM4.92871 7.53235C5.3192 7.14203 5.95229 7.14203 6.34277 7.53235L7.40332 8.5929C7.79384 8.98342 7.79384 9.61741 7.40332 10.0079C7.01284 10.398 6.37969 10.3981 5.98926 10.0079L4.92871 8.94641C4.53834 8.55587 4.53824 7.92282 4.92871 7.53235ZM17.6562 7.53235C18.0468 7.14182 18.6808 7.14182 19.0713 7.53235C19.4616 7.92275 19.4614 8.55589 19.0713 8.94641L18.0098 10.0079C17.6192 10.398 16.9861 10.3982 16.5957 10.0079C16.2052 9.61741 16.2052 8.98342 16.5957 8.5929L17.6562 7.53235ZM11 2.10364C11 1.55135 11.4477 1.10364 12 1.10364C12.5523 1.10364 13 1.55135 13 2.10364V4.68958L13.793 3.89661C14.1835 3.50608 14.8165 3.50608 15.207 3.89661C15.5976 4.28713 15.5976 4.92014 15.207 5.31067L13.0605 7.45715C12.4748 8.04289 11.5252 8.04289 10.9395 7.45715L8.79297 5.31067C8.40244 4.92014 8.40244 4.28713 8.79297 3.89661C9.18349 3.50608 9.81651 3.50608 10.207 3.89661L11 4.68958V2.10364Z" fill="black"/>
</svg>
