<svg width="24" height="24" viewBox="0 0 24 24" fill="none" xmlns="http://www.w3.org/2000/svg">
<path d="M4 14H13V6H20V18H4V14Z" fill="#8A38F5" fill-opacity="0.25"/>
<path d="M20 17C20.5523 17 21 17.4477 21 18C21 18.5523 20.5523 19 20 19H4C3.44772 19 3 18.5523 3 18C3 17.4477 3.44772 17 4 17H20ZM20 13C20.5523 13 21 13.4477 21 14C21 14.5523 20.5523 15 20 15H4C3.44772 15 3 14.5523 3 14C3 13.4477 3.44772 13 4 13H20ZM5.5 10V7H4C3.44772 7 3 6.55228 3 6C3 5.44772 3.44772 5 4 5H9C9.55228 5 10 5.44772 10 6C10 6.55228 9.55228 7 9 7H7.5V10C7.5 10.5523 7.05228 11 6.5 11C5.94772 11 5.5 10.5523 5.5 10ZM20 9C20.5523 9 21 9.44772 21 10C21 10.5523 20.5523 11 20 11H13C12.4477 11 12 10.5523 12 10C12 9.44772 12.4477 9 13 9H20ZM20 5C20.5523 5 21 5.44772 21 6C21 6.55228 20.5523 7 20 7H13C12.4477 7 12 6.55228 12 6C12 5.44772 12.4477 5 13 5H20Z" fill="black"/>
</svg>
