<svg width="24" height="24" viewBox="0 0 24 24" fill="none" xmlns="http://www.w3.org/2000/svg">
<path d="M6 6.5C6 6.22386 6.22386 6 6.5 6H17.5C17.7761 6 18 6.22386 18 6.5V16C18 17.1046 17.1046 18 16 18H8C6.89543 18 6 17.1046 6 16V6.5Z" fill="#8A38F5" fill-opacity="0.25"/>
<path d="M19 7C19 7.55228 18.5523 8 18 8C17.4477 8 17 7.55228 17 7H13V17H14C14.5523 17 15 17.4477 15 18C15 18.5523 14.5523 19 14 19H10C9.44772 19 9 18.5523 9 18C9 17.4477 9.44772 17 10 17H11V7H7C7 7.55228 6.55228 8 6 8C5.44772 8 5 7.55228 5 7V6.5C5 5.67157 5.67157 5 6.5 5H17.5C18.3284 5 19 5.67157 19 6.5V7Z" fill="black"/>
</svg>
