<svg width="24" height="24" viewBox="0 0 24 24" fill="none" xmlns="http://www.w3.org/2000/svg">
<path d="M10.7133 4.64378C11.2959 3.67278 12.7031 3.67277 13.2858 4.64378L21.1365 17.7283C21.7363 18.7281 21.0162 20.0001 19.8502 20.0001H4.1488C2.98286 20.0001 2.26269 18.7281 2.86256 17.7283L10.7133 4.64378Z" fill="#8A38F5" fill-opacity="0.25"/>
<path d="M9.85546 4.12929C10.8265 2.51094 13.1725 2.51094 14.1435 4.12929L21.9941 17.2133C22.9939 18.8795 21.7936 21.0001 19.8506 21.0004H4.14843C2.20541 21.0001 1.00515 18.8795 2.00488 17.2133L9.85546 4.12929ZM12.4287 5.15858C12.2345 4.83492 11.7645 4.83491 11.5703 5.15858L3.71972 18.2426C3.51988 18.5757 3.76002 19.0001 4.14843 19.0004H19.8506C20.239 19.0001 20.4791 18.5757 20.2793 18.2426L12.4287 5.15858Z" fill="black"/>
</svg>
