<svg width="24" height="24" viewBox="0 0 24 24" fill="none" xmlns="http://www.w3.org/2000/svg">
<path d="M11.5713 3.21455C11.7655 2.89088 12.2345 2.89088 12.4287 3.21455L22.0457 19.2427C22.2456 19.576 22.0056 20 21.6169 20H2.3831C1.99445 20 1.75439 19.576 1.95435 19.2427L11.5713 3.21455Z" fill="#8A38F5" fill-opacity="0.25"/>
<path d="M1.63136 17.8381C1.9155 17.3645 2.52985 17.2111 3.00343 17.4953C3.47656 17.7795 3.62997 18.393 3.3462 18.8664L3.26612 19.0002H3.45167C4.00394 19.0002 4.45167 19.4479 4.45167 20.0002C4.45159 20.5524 4.0039 21.0002 3.45167 21.0002H2.38331C1.21743 21.0002 0.497479 19.7284 1.09718 18.7287L1.63136 17.8381ZM9.8628 19.0002C10.4151 19.0002 10.8628 19.4479 10.8628 20.0002C10.8627 20.5524 10.415 21.0002 9.8628 21.0002H7.72608C7.17385 21.0002 6.72616 20.5524 6.72608 20.0002C6.72608 19.4479 7.1738 19.0002 7.72608 19.0002H9.8628ZM16.2739 19.0002C16.8262 19.0002 17.2739 19.4479 17.2739 20.0002C17.2739 20.5524 16.8262 21.0002 16.2739 21.0002H14.1372C13.585 21.0002 13.1373 20.5524 13.1372 20.0002C13.1372 19.4479 13.5849 19.0002 14.1372 19.0002H16.2739ZM20.9966 17.4953C21.4702 17.2111 22.0845 17.3645 22.3687 17.8381L22.9028 18.7287C23.5025 19.7284 22.7826 21.0002 21.6167 21.0002H20.5483C19.9961 21.0002 19.5484 20.5524 19.5483 20.0002C19.5483 19.4479 19.9961 19.0002 20.5483 19.0002H20.7339L20.6538 18.8664C20.37 18.393 20.5235 17.7795 20.9966 17.4953ZM4.83643 12.4953C5.12058 12.0217 5.73493 11.8684 6.2085 12.1525C6.68204 12.4366 6.83531 13.05 6.55128 13.5236L5.48292 15.3049C5.19876 15.7784 4.58442 15.9318 4.11085 15.6476C3.63761 15.3634 3.48401 14.749 3.76807 14.2756L4.83643 12.4953ZM17.7915 12.1525C18.2651 11.8684 18.8794 12.0217 19.1636 12.4953L20.2319 14.2756C20.516 14.749 20.3624 15.3634 19.8892 15.6476C19.4156 15.9318 18.8013 15.7784 18.5171 15.3049L17.4487 13.5236C17.1647 13.05 17.318 12.4366 17.7915 12.1525ZM8.04249 7.15251C8.32664 6.67893 8.94098 6.52559 9.41456 6.80974C9.88792 7.09396 10.0414 7.70832 9.75733 8.18181L8.68897 9.96208C8.40482 10.4357 7.79048 10.589 7.3169 10.3049C6.84352 10.0207 6.6902 9.40726 6.97413 8.93376L8.04249 7.15251ZM14.5855 6.80974C15.059 6.52559 15.6734 6.67893 15.9575 7.15251L17.0259 8.93376C17.3098 9.40726 17.1565 10.0207 16.6831 10.3049C16.2095 10.589 15.5952 10.4357 15.311 9.96208L14.2427 8.18181C13.9586 7.70832 14.1121 7.09396 14.5855 6.80974ZM10.7134 2.70037C11.2596 1.79009 12.5307 1.73304 13.1675 2.52947L13.2866 2.70037L13.8208 3.59099C14.1046 4.06451 13.9505 4.67802 13.4771 4.96208C13.0035 5.24612 12.3901 5.09283 12.106 4.61931L11.9995 4.44255L11.8941 4.61931C11.6099 5.09283 10.9965 5.24612 10.523 4.96208C10.0495 4.67802 9.89542 4.06451 10.1792 3.59099L10.7134 2.70037Z" fill="black"/>
</svg>
