<svg width="24" height="24" viewBox="0 0 24 24" fill="none" xmlns="http://www.w3.org/2000/svg">
<path d="M2 19V3C2 2.44772 2.44772 2 3 2C3.55228 2 4 2.44772 4 3V19C4 19.5523 4.44772 20 5 20H21C21.5523 20 22 20.4477 22 21C22 21.5523 21.5523 22 21 22H5C3.34315 22 2 20.6569 2 19ZM9.09766 4.93652C9.6164 4.748 10.19 5.01557 10.3789 5.53418C10.5678 6.05316 10.3002 6.62751 9.78125 6.81641L8.81055 7.16895C12.4256 8.68933 15.3172 11.5837 16.835 15.2002L17.1924 14.2188C17.3813 13.6998 17.9547 13.4323 18.4736 13.6211C18.9926 13.81 19.2601 14.3834 19.0713 14.9023L18.0332 17.7549C17.7499 18.5334 16.8888 18.9347 16.1104 18.6514L13.2578 17.6133C12.7393 17.4243 12.4717 16.8507 12.6602 16.332C12.849 15.8131 13.4234 15.5455 13.9424 15.7344L15.0615 16.1416C13.7418 12.8688 11.1279 10.2551 7.85449 8.93652L8.26562 10.0664C8.45436 10.5853 8.18687 11.1588 7.66797 11.3477C7.14903 11.5364 6.57559 11.2689 6.38672 10.75L5.34863 7.89746C5.06532 7.11901 5.46666 6.25794 6.24512 5.97461L9.09766 4.93652Z" fill="black"/>
</svg>
