<svg width="24" height="24" viewBox="0 0 24 24" fill="none" xmlns="http://www.w3.org/2000/svg">
<path d="M20 5C20 4.44772 19.5523 4 19 4H5C4.44772 4 4 4.44772 4 5V19C4 19.5523 4.44772 20 5 20H19C19.5523 20 20 19.5523 20 19V5ZM7.00098 6C7.55326 6 8.00098 6.44772 8.00098 7C8.00098 7.55228 7.55326 8 7.00098 8C6.44869 8 6 7.55228 6 7C6 6.44772 6.44869 6 7.00098 6ZM10.001 6C10.5533 6 11.001 6.44772 11.001 7C11.001 7.55228 10.5533 8 10.001 8C9.44869 8 9 7.55228 9 7C9 6.44772 9.44869 6 10.001 6ZM17 6C17.5523 6 18 6.44772 18 7C18 7.55228 17.5523 8 17 8H13C12.4477 8 12 7.55228 12 7C12 6.44772 12.4477 6 13 6H17ZM22 19C22 20.6569 20.6569 22 19 22H5C3.34315 22 2 20.6569 2 19V5C2 3.34315 3.34315 2 5 2H19C20.6569 2 22 3.34315 22 5V19Z" fill="black"/>
</svg>
