<svg width="24" height="24" viewBox="0 0 24 24" fill="none" xmlns="http://www.w3.org/2000/svg">
<path d="M19 8H5V19C5 19.5523 5.44772 20 6 20H18C18.5523 20 19 19.5523 19 19V8ZM14 10C14.5523 10 15 10.4477 15 11C15 11.5523 14.5523 12 14 12H10C9.44772 12 9 11.5523 9 11C9 10.4477 9.44772 10 10 10H14ZM4 4V6H20V4H4ZM22 6C22 6.73976 21.5971 7.3835 21 7.72949V19C21 20.6569 19.6569 22 18 22H6C4.34315 22 3 20.6569 3 19V7.72949C2.4029 7.3835 2 6.73976 2 6V4C2 2.89543 2.89543 2 4 2H20C21.1046 2 22 2.89543 22 4V6Z" fill="black"/>
</svg>
