<svg width="24" height="24" viewBox="0 0 24 24" fill="none" xmlns="http://www.w3.org/2000/svg">
<path d="M20 5C20 4.44772 19.5523 4 19 4H5C4.44772 4 4 4.44772 4 5V19C4 19.5523 4.44772 20 5 20H19C19.5523 20 20 19.5523 20 19V5ZM11 7C11 6.44772 11.4477 6 12 6C12.5523 6 13 6.44772 13 7V14.5859L15.293 12.293C15.6835 11.9024 16.3165 11.9024 16.707 12.293C17.0976 12.6835 17.0976 13.3165 16.707 13.707L13.0605 17.3535C12.4748 17.9392 11.5252 17.9393 10.9395 17.3535L7.29297 13.707C6.90244 13.3165 6.90244 12.6835 7.29297 12.293C7.68349 11.9024 8.31651 11.9024 8.70703 12.293L11 14.5859V7ZM22 19C22 20.6569 20.6569 22 19 22H5C3.34315 22 2 20.6569 2 19V5C2 3.34315 3.34315 2 5 2H19C20.6569 2 22 3.34315 22 5V19Z" fill="black"/>
</svg>
