<svg width="24" height="24" viewBox="0 0 24 24" fill="none" xmlns="http://www.w3.org/2000/svg">
<path d="M4.92869 4.92871C8.83393 1.02347 15.166 1.02347 19.0713 4.92871C22.9765 8.83395 22.9765 15.166 19.0713 19.0713C15.166 22.9765 8.83393 22.9765 4.92869 19.0713C1.02345 15.166 1.02345 8.83395 4.92869 4.92871ZM17.6572 6.34277C14.533 3.21858 9.46694 3.21858 6.34275 6.34277C3.21856 9.46697 3.21856 14.533 6.34275 17.6572C9.46694 20.7814 14.533 20.7814 17.6572 17.6572C20.7814 14.533 20.7814 9.46697 17.6572 6.34277ZM7.46482 14.1211V8.96484C7.46482 8.13642 8.13639 7.46484 8.96482 7.46484H14.1211C14.6734 7.46484 15.1211 7.91256 15.1211 8.46484C15.1209 9.01695 14.6732 9.46484 14.1211 9.46484H10.8789L16.2422 14.8281C16.6327 15.2186 16.6327 15.8517 16.2422 16.2422C15.8516 16.6327 15.2186 16.6327 14.8281 16.2422L9.46482 10.8789V14.1211C9.46482 14.6733 9.01693 15.1209 8.46482 15.1211C7.91254 15.1211 7.46482 14.6734 7.46482 14.1211Z" fill="black"/>
</svg>
