<svg width="24" height="24" viewBox="0 0 24 24" fill="none" xmlns="http://www.w3.org/2000/svg">
<path d="M4.92875 4.92871C8.83399 1.02347 15.1661 1.02347 19.0713 4.92871C22.9766 8.83395 22.9766 15.166 19.0713 19.0713C15.1661 22.9765 8.83399 22.9765 4.92875 19.0713C1.02351 15.166 1.02351 8.83395 4.92875 4.92871ZM17.6573 6.34277C14.5331 3.21858 9.46701 3.21858 6.34281 6.34277C3.21862 9.46697 3.21862 14.533 6.34281 17.6572C9.46701 20.7814 14.5331 20.7814 17.6573 17.6572C20.7815 14.533 20.7815 9.46697 17.6573 6.34277ZM7.75785 7.75781C8.14838 7.36729 8.78139 7.36729 9.17191 7.75781L14.5352 13.1211V9.87891C14.5352 9.32675 14.9831 8.87911 15.5352 8.87891C16.0875 8.87891 16.5352 9.32662 16.5352 9.87891V15.0352C16.5352 15.8636 15.8636 16.5352 15.0352 16.5352H9.87894C9.32666 16.5352 8.87894 16.0874 8.87894 15.5352C8.87915 14.983 9.32679 14.5352 9.87894 14.5352H13.1211L7.75785 9.17188C7.36733 8.78135 7.36733 8.14834 7.75785 7.75781Z" fill="black"/>
</svg>
