<svg width="24" height="24" viewBox="0 0 24 24" fill="none" xmlns="http://www.w3.org/2000/svg">
<path d="M4.92869 4.92871C8.83393 1.02347 15.166 1.02347 19.0713 4.92871C22.9765 8.83395 22.9765 15.166 19.0713 19.0713C15.166 22.9765 8.83393 22.9765 4.92869 19.0713C1.02345 15.166 1.02345 8.83395 4.92869 4.92871ZM17.6572 6.34277C14.533 3.21858 9.46694 3.21858 6.34275 6.34277C3.21856 9.46697 3.21856 14.533 6.34275 17.6572C9.46694 20.7814 14.533 20.7814 17.6572 17.6572C20.7814 14.533 20.7814 9.46697 17.6572 6.34277ZM14.8281 7.75781C15.2186 7.36729 15.8516 7.36729 16.2422 7.75781C16.6327 8.14834 16.6327 8.78135 16.2422 9.17188L10.8789 14.5352H14.1211C14.6732 14.5352 15.1209 14.983 15.1211 15.5352C15.1211 16.0874 14.6734 16.5352 14.1211 16.5352H8.96482C8.1364 16.5352 7.46482 15.8636 7.46482 15.0352V9.87891C7.46482 9.32662 7.91254 8.87891 8.46482 8.87891C9.01693 8.87911 9.46482 9.32675 9.46482 9.87891V13.1211L14.8281 7.75781Z" fill="black"/>
</svg>
