<svg width="24" height="24" viewBox="0 0 24 24" fill="none" xmlns="http://www.w3.org/2000/svg">
<path d="M18.7784 1.39346C18.7784 0.841178 19.2261 0.393463 19.7784 0.393463C20.3306 0.393542 20.7784 0.841227 20.7784 1.39346V6.55069C20.7782 7.3789 20.1066 8.05061 19.2784 8.05069H14.1212C13.5691 8.05057 13.1214 7.60273 13.1212 7.05069C13.1212 6.49848 13.569 6.05081 14.1212 6.05069H17.3487C14.208 3.22228 9.36627 3.32023 6.34283 6.34366C3.21908 9.46786 3.21885 14.5331 6.34283 17.6571C9.46703 20.7813 14.5331 20.7813 17.6573 17.6571C19.1757 16.1387 19.9554 14.1634 19.9981 12.1728C20.0101 11.6207 20.4675 11.1834 21.0196 11.1952C21.5716 11.2072 22.0098 11.6638 21.9981 12.2157C21.9447 14.7011 20.9687 17.1738 19.0714 19.0712C15.1661 22.9764 8.83401 22.9764 4.92877 19.0712C1.02361 15.1659 1.02355 8.83384 4.92877 4.92862C8.73815 1.11933 14.8557 1.02701 18.7784 4.64932V1.39346Z" fill="black"/>
</svg>
