<svg width="24" height="24" viewBox="0 0 24 24" fill="none" xmlns="http://www.w3.org/2000/svg">
<path d="M4.92869 4.92871C8.83393 1.02347 15.166 1.02347 19.0713 4.92871C22.9765 8.83395 22.9765 15.166 19.0713 19.0713C15.166 22.9765 8.83393 22.9765 4.92869 19.0713C1.02345 15.166 1.02345 8.83395 4.92869 4.92871ZM17.6572 6.34277C14.533 3.21858 9.46694 3.21858 6.34275 6.34277C3.21856 9.46697 3.21856 14.533 6.34275 17.6572C9.46694 20.7814 14.533 20.7814 17.6572 17.6572C20.7814 14.533 20.7814 9.46697 17.6572 6.34277ZM14.5351 14.1211V10.8789L9.17185 16.2422C8.78133 16.6327 8.14831 16.6327 7.75779 16.2422C7.36727 15.8517 7.36727 15.2186 7.75779 14.8281L13.1211 9.46484H9.87888C9.32672 9.46484 8.87909 9.01695 8.87888 8.46484C8.87888 7.91256 9.3266 7.46484 9.87888 7.46484H15.0351C15.8636 7.46484 16.5351 8.13641 16.5351 8.96484V14.1211C16.5351 14.6734 16.0874 15.1211 15.5351 15.1211C14.983 15.1209 14.5351 14.6733 14.5351 14.1211Z" fill="black"/>
</svg>
