<svg width="24" height="24" viewBox="0 0 24 24" fill="none" xmlns="http://www.w3.org/2000/svg">
<path d="M11 5.65254C8.76554 4.68998 6.23446 4.68998 4 5.65254V19.4865C6.25883 18.6526 8.74117 18.6526 11 19.4865V5.65254ZM20 5.65254C17.7655 4.68998 15.2345 4.68998 13 5.65254V19.4865C15.2588 18.6526 17.7412 18.6526 20 19.4865V5.65254ZM14.8096 12.092C15.9261 11.8749 17.0739 11.8749 18.1904 12.092C18.7326 12.1974 19.0869 12.7227 18.9814 13.2648C18.8759 13.8067 18.3515 14.1601 17.8096 14.0549C16.9449 13.8868 16.0551 13.8868 15.1904 14.0549C14.6485 14.1601 14.1241 13.8067 14.0186 13.2648C13.9131 12.7227 14.2674 12.1974 14.8096 12.092ZM14.8096 9.09199C15.9261 8.87495 17.0739 8.87495 18.1904 9.09199C18.7326 9.19741 19.0869 9.72271 18.9814 10.2648C18.8759 10.8067 18.3515 11.1601 17.8096 11.0549C16.9449 10.8868 16.0551 10.8868 15.1904 11.0549C14.6485 11.1601 14.1241 10.8067 14.0186 10.2648C13.9131 9.72271 14.2674 9.19741 14.8096 9.09199ZM14.8096 6.09199C15.9261 5.87495 17.0739 5.87495 18.1904 6.09199C18.7326 6.19741 19.0869 6.72271 18.9814 7.26484C18.8759 7.80666 18.3515 8.16005 17.8096 8.05488C16.9449 7.88675 16.0551 7.88675 15.1904 8.05488C14.6485 8.16005 14.1241 7.80666 14.0186 7.26484C13.9131 6.72271 14.2674 6.19741 14.8096 6.09199ZM22 20.1242C21.9998 21.2597 20.8307 22.019 19.793 21.5578C17.6965 20.6262 15.3035 20.6262 13.207 21.5578L12.9062 21.6916C12.3294 21.948 11.6706 21.948 11.0938 21.6916L10.793 21.5578C8.69651 20.6262 6.30349 20.6262 4.20703 21.5578C3.16935 22.019 2.00018 21.2597 2 20.1242V5.4123C2.00001 4.76643 2.38052 4.18151 2.9707 3.91914L3.09375 3.86348C5.89884 2.6168 9.10116 2.6168 11.9062 3.86348C11.966 3.89003 12.034 3.89003 12.0938 3.86348C14.8988 2.6168 18.1012 2.6168 20.9062 3.86348L21.0293 3.91914C21.6195 4.18151 22 4.76643 22 5.4123V20.1242Z" fill="black"/>
</svg>
