<svg width="24" height="24" viewBox="0 0 24 24" fill="none" xmlns="http://www.w3.org/2000/svg">
<path d="M10.0479 15.3564C11.1713 14.3936 12.8287 14.3936 13.9521 15.3564L18 18.8262V5C18 4.44772 17.5523 4 17 4H7C6.44772 4 6 4.44772 6 5V18.8262L10.0479 15.3564ZM20 18.8262C19.9997 20.5346 17.9955 21.4565 16.6982 20.3447L12.6504 16.875C12.276 16.5542 11.724 16.5542 11.3496 16.875L7.30176 20.3447C6.00451 21.4565 4.00031 20.5346 4 18.8262V5C4 3.34315 5.34315 2 7 2H17C18.6569 2 20 3.34315 20 5V18.8262Z" fill="black"/>
</svg>
