<svg width="24" height="24" viewBox="0 0 24 24" fill="none" xmlns="http://www.w3.org/2000/svg">
<path d="M20 8H4V19C4 19.5523 4.44772 20 5 20H19C19.5523 20 20 19.5523 20 19V8ZM14.293 11.293C14.6835 10.9024 15.3165 10.9024 15.707 11.293C16.0976 11.6835 16.0976 12.3165 15.707 12.707L11.8838 16.5303C11.3956 17.0184 10.6044 17.0184 10.1162 16.5303L8.29297 14.707C7.90244 14.3165 7.90244 13.6835 8.29297 13.293C8.68349 12.9024 9.31651 12.9024 9.70703 13.293L11 14.5859L14.293 11.293ZM15 4H9C9 4.55228 8.55228 5 8 5C7.44772 5 7 4.55228 7 4H5C4.44772 4 4 4.44772 4 5V6H20V5C20 4.44772 19.5523 4 19 4H17C17 4.55228 16.5523 5 16 5C15.4477 5 15 4.55228 15 4ZM22 19C22 20.6569 20.6569 22 19 22H5C3.34315 22 2 20.6569 2 19V5C2 3.34315 3.34315 2 5 2H7C7 1.44772 7.44772 1 8 1C8.55228 1 9 1.44772 9 2H15C15 1.44772 15.4477 1 16 1C16.5523 1 17 1.44772 17 2H19C20.6569 2 22 3.34315 22 5V19Z" fill="black"/>
</svg>
