<svg width="24" height="24" viewBox="0 0 24 24" fill="none" xmlns="http://www.w3.org/2000/svg">
<path d="M20 8H4V19C4 19.5523 4.44772 20 5 20H19C19.5523 20 20 19.5523 20 19V8ZM13.4141 11.1719C13.8046 10.7814 14.4386 10.7814 14.8291 11.1719C15.2192 11.5624 15.2194 12.1955 14.8291 12.5859L13.4141 14L14.8291 15.4141C15.2194 15.8045 15.2192 16.4376 14.8291 16.8281C14.4386 17.2186 13.8046 17.2186 13.4141 16.8281L12 15.4141L10.5859 16.8281C10.1954 17.2186 9.5624 17.2186 9.17188 16.8281C8.78146 16.4376 8.78139 15.8046 9.17188 15.4141L10.5859 14L9.17188 12.5859C8.78139 12.1954 8.78146 11.5624 9.17188 11.1719C9.5624 10.7814 10.1954 10.7814 10.5859 11.1719L12 12.585L13.4141 11.1719ZM15 4H9C9 4.55228 8.55228 5 8 5C7.44772 5 7 4.55228 7 4H5C4.44772 4 4 4.44772 4 5V6H20V5C20 4.44772 19.5523 4 19 4H17C17 4.55228 16.5523 5 16 5C15.4477 5 15 4.55228 15 4ZM22 19C22 20.6569 20.6569 22 19 22H5C3.34315 22 2 20.6569 2 19V5C2 3.34315 3.34315 2 5 2H7C7 1.44772 7.44772 1 8 1C8.55228 1 9 1.44772 9 2H15C15 1.44772 15.4477 1 16 1C16.5523 1 17 1.44772 17 2H19C20.6569 2 22 3.34315 22 5V19Z" fill="black"/>
</svg>
