<svg width="24" height="24" viewBox="0 0 24 24" fill="none" xmlns="http://www.w3.org/2000/svg">
<path d="M20 12C20 7.58172 16.4183 4 12 4C7.58172 4 4 7.58172 4 12C4 16.4183 7.58172 20 12 20C16.4183 20 20 16.4183 20 12ZM10.293 7.29297C10.6835 6.90244 11.3165 6.90244 11.707 7.29297L15.3535 10.9395C15.9392 11.5252 15.9393 12.4748 15.3535 13.0605L11.707 16.707C11.3165 17.0976 10.6835 17.0976 10.293 16.707C9.90244 16.3165 9.90244 15.6835 10.293 15.293L13.5859 12L10.293 8.70703C9.90244 8.31651 9.90244 7.68349 10.293 7.29297ZM22 12C22 17.5228 17.5228 22 12 22C6.47715 22 2 17.5228 2 12C2 6.47715 6.47715 2 12 2C17.5228 2 22 6.47715 22 12Z" fill="black"/>
</svg>
