<svg width="24" height="24" viewBox="0 0 24 24" fill="none" xmlns="http://www.w3.org/2000/svg">
<path d="M12 4C7.58172 4 4 7.58172 4 12C4 16.4183 7.58172 20 12 20C16.4183 20 20 16.4183 20 12C20 7.58172 16.4183 4 12 4ZM7.29297 13.707C6.90244 13.3165 6.90244 12.6835 7.29297 12.293L10.9395 8.64648C11.5252 8.06075 12.4748 8.06075 13.0605 8.64648L16.707 12.293C17.0976 12.6835 17.0976 13.3165 16.707 13.707C16.3165 14.0976 15.6835 14.0976 15.293 13.707L12 10.4141L8.70703 13.707C8.31651 14.0976 7.68349 14.0976 7.29297 13.707ZM12 2C17.5228 2 22 6.47715 22 12C22 17.5228 17.5228 22 12 22C6.47715 22 2 17.5228 2 12C2 6.47715 6.47715 2 12 2Z" fill="black"/>
</svg>
