<svg width="24" height="24" viewBox="0 0 24 24" fill="none" xmlns="http://www.w3.org/2000/svg">
<path d="M4 12C4 7.58172 7.58172 4 12 4C16.4183 4 20 7.58172 20 12C20 16.4183 16.4183 20 12 20C7.58172 20 4 16.4183 4 12ZM13.707 7.29297C13.3165 6.90244 12.6835 6.90244 12.293 7.29297L8.64648 10.9395C8.06075 11.5252 8.06075 12.4748 8.64648 13.0605L12.293 16.707C12.6835 17.0976 13.3165 17.0976 13.707 16.707C14.0976 16.3165 14.0976 15.6835 13.707 15.293L10.4141 12L13.707 8.70703C14.0976 8.31651 14.0976 7.68349 13.707 7.29297ZM2 12C2 17.5228 6.47715 22 12 22C17.5228 22 22 17.5228 22 12C22 6.47715 17.5228 2 12 2C6.47715 2 2 6.47715 2 12Z" fill="black"/>
</svg>
