<svg width="24" height="24" viewBox="0 0 24 24" fill="none" xmlns="http://www.w3.org/2000/svg">
<path d="M13.0459 19.9326C13.5935 19.8612 14.0956 20.2473 14.167 20.7949C14.2382 21.3424 13.8522 21.8446 13.3047 21.916C12.8773 21.9718 12.4417 22 12 22C11.5583 22 11.1227 21.9718 10.6953 21.916C10.1478 21.8446 9.76176 21.3424 9.83301 20.7949C9.90444 20.2473 10.4065 19.8612 10.9541 19.9326C11.296 19.9772 11.6451 20 12 20C12.3549 20 12.704 19.9772 13.0459 19.9326ZM4.25 16.6865C4.68792 16.35 5.31582 16.4322 5.65234 16.8701C6.07839 17.4245 6.57551 17.9216 7.12988 18.3477C7.5678 18.6842 7.65 19.3121 7.31348 19.75C6.97691 20.1877 6.34897 20.2701 5.91113 19.9336C5.21893 19.4016 4.59837 18.7811 4.06641 18.0889C3.72994 17.651 3.81229 17.0231 4.25 16.6865ZM18.3477 16.8701C18.6842 16.4322 19.3121 16.35 19.75 16.6865C20.1877 17.0231 20.2701 17.651 19.9336 18.0889C19.4016 18.7811 18.7811 19.4016 18.0889 19.9336C17.651 20.2701 17.0231 20.1877 16.6865 19.75C16.35 19.3121 16.4322 18.6842 16.8701 18.3477C17.4245 17.9216 17.9216 17.4245 18.3477 16.8701ZM2 12C2 11.5583 2.02824 11.1227 2.08398 10.6953C2.15541 10.1478 2.65756 9.76176 3.20508 9.83301C3.75272 9.90444 4.13882 10.4065 4.06738 10.9541C4.0228 11.296 4 11.6451 4 12C4 12.3549 4.0228 12.704 4.06738 13.0459C4.13882 13.5935 3.75272 14.0956 3.20508 14.167C2.65756 14.2382 2.15541 13.8522 2.08398 13.3047C2.02824 12.8773 2 12.4417 2 12ZM20 12C20 11.6451 19.9772 11.296 19.9326 10.9541C19.8612 10.4065 20.2473 9.90444 20.7949 9.83301C21.3424 9.76176 21.8446 10.1478 21.916 10.6953C21.9718 11.1227 22 11.5583 22 12C22 12.4417 21.9718 12.8773 21.916 13.3047C21.8446 13.8522 21.3424 14.2382 20.7949 14.167C20.2473 14.0956 19.8612 13.5935 19.9326 13.0459C19.9772 12.704 20 12.3549 20 12ZM5.91113 4.06641C6.34897 3.72994 6.97691 3.81229 7.31348 4.25C7.65 4.68792 7.5678 5.31582 7.12988 5.65234C6.57551 6.07839 6.07839 6.57551 5.65234 7.12988C5.31582 7.5678 4.68792 7.65 4.25 7.31348C3.81229 6.97691 3.72994 6.34897 4.06641 5.91113C4.59837 5.21893 5.21893 4.59837 5.91113 4.06641ZM16.6865 4.25C17.0231 3.81229 17.651 3.72994 18.0889 4.06641C18.7811 4.59837 19.4016 5.21893 19.9336 5.91113C20.2701 6.34897 20.1877 6.97691 19.75 7.31348C19.3121 7.65 18.6842 7.5678 18.3477 7.12988C17.9216 6.57551 17.4245 6.07839 16.8701 5.65234C16.4322 5.31582 16.35 4.68792 16.6865 4.25ZM12 2C12.4417 2 12.8773 2.02824 13.3047 2.08398C13.8522 2.15541 14.2382 2.65756 14.167 3.20508C14.0956 3.75272 13.5935 4.13882 13.0459 4.06738C12.704 4.0228 12.3549 4 12 4C11.6451 4 11.296 4.0228 10.9541 4.06738C10.4065 4.13882 9.90444 3.75272 9.83301 3.20508C9.76177 2.65756 10.1478 2.15541 10.6953 2.08398C11.1227 2.02824 11.5583 2 12 2Z" fill="black"/>
</svg>
