<svg width="24" height="24" viewBox="0 0 24 24" fill="none" xmlns="http://www.w3.org/2000/svg">
<path d="M14.293 9.79297C14.6835 9.40244 15.3165 9.40244 15.707 9.79297C16.0976 10.1835 16.0976 10.8165 15.707 11.207L14.4141 12.5H21C21.5523 12.5 22 12.9477 22 13.5C22 14.0523 21.5523 14.5 21 14.5H14.4141L15.707 15.793C16.0976 16.1835 16.0976 16.8165 15.707 17.207C15.3165 17.5976 14.6835 17.5976 14.293 17.207L11.6465 14.5605C11.0607 13.9748 11.0607 13.0252 11.6465 12.4395L14.293 9.79297ZM18.5 9.5V6.5C18.5 5.94772 18.0523 5.5 17.5 5.5H16.79C16.4041 6.38257 15.5249 7 14.5 7H9.5C8.47512 7 7.5959 6.38257 7.20996 5.5H6.5C5.94772 5.5 5.5 5.94772 5.5 6.5V19C5.5 19.5523 5.94772 20 6.5 20H17.5C18.0523 20 18.5 19.5523 18.5 19V17.5C18.5 16.9477 18.9477 16.5 19.5 16.5C20.0523 16.5 20.5 16.9477 20.5 17.5V19C20.5 20.6569 19.1569 22 17.5 22H6.5C4.84315 22 3.5 20.6569 3.5 19V6.5C3.5 4.84315 4.84315 3.5 6.5 3.5H7.20996C7.5959 2.61743 8.47512 2 9.5 2H14.5C15.5249 2 16.4041 2.61743 16.79 3.5H17.5C19.1569 3.5 20.5 4.84315 20.5 6.5V9.5C20.5 10.0523 20.0523 10.5 19.5 10.5C18.9477 10.5 18.5 10.0523 18.5 9.5ZM9.5 4C9.22386 4 9 4.22386 9 4.5C9 4.77614 9.22386 5 9.5 5H14.5C14.7761 5 15 4.77614 15 4.5C15 4.22386 14.7761 4 14.5 4H9.5Z" fill="black"/>
</svg>
