<svg width="24" height="24" viewBox="0 0 24 24" fill="none" xmlns="http://www.w3.org/2000/svg">
<path d="M21.3965 16C22.5101 16 23.0677 17.3463 22.2803 18.1338L19.4141 21H22C22.5523 21 23 21.4477 23 22C23 22.5523 22.5523 23 22 23H17.6035C16.4899 23 15.9323 21.6537 16.7197 20.8662L19.5859 18H17C16.4477 18 16 17.5523 16 17C16 16.4477 16.4477 16 17 16H21.3965ZM11 7C11 6.44772 11.4477 6 12 6C12.5523 6 13 6.44772 13 7V11H16C16.5523 11 17 11.4477 17 12C17 12.5523 16.5523 13 16 13H12.25C11.5596 13 11 12.4404 11 11.75V7ZM20 12C20 7.58172 16.4183 4 12 4C7.58172 4 4 7.58172 4 12C4 16.4183 7.58172 20 12 20C12.5523 20 13 20.4477 13 21C13 21.5523 12.5523 22 12 22C6.47715 22 2 17.5228 2 12C2 6.47715 6.47715 2 12 2C17.5228 2 22 6.47715 22 12C22 12.5523 21.5523 13 21 13C20.4477 13 20 12.5523 20 12Z" fill="black"/>
</svg>
