<svg width="24" height="24" viewBox="0 0 24 24" fill="none" xmlns="http://www.w3.org/2000/svg">
<path d="M22 18C22.5523 18 23 18.4477 23 19C23 19.5523 22.5523 20 22 20H16C15.4477 20 15 19.5523 15 19C15 18.4477 15.4477 18 16 18H22ZM20 12C20 7.58172 16.4183 4 12 4C7.58172 4 4 7.58172 4 12C4 16.4183 7.58172 20 12 20C12.5523 20 13 20.4477 13 21C13 21.5523 12.5523 22 12 22C6.47715 22 2 17.5228 2 12C2 6.47715 6.47715 2 12 2C17.5228 2 22 6.47715 22 12C22 13.1669 21.7996 14.2892 21.4307 15.333C21.2466 15.8537 20.675 16.1264 20.1543 15.9424C19.634 15.7582 19.3611 15.1875 19.5449 14.667C19.8393 13.8342 20 12.9368 20 12ZM11 7C11 6.44772 11.4477 6 12 6C12.5523 6 13 6.44772 13 7V11H16C16.5523 11 17 11.4477 17 12C17 12.5523 16.5523 13 16 13H12.25C11.5596 13 11 12.4404 11 11.75V7Z" fill="black"/>
</svg>
