<svg width="24" height="24" viewBox="0 0 24 24" fill="none" xmlns="http://www.w3.org/2000/svg">
<path d="M4.92973 4.92871C8.73912 1.11932 14.8566 1.02701 18.7793 4.64942V3.27051C18.7793 2.71823 19.2271 2.27051 19.7793 2.27051C20.3314 2.27071 20.7793 2.71835 20.7793 3.27051V6.54981C20.7793 7.37811 20.1076 8.04961 19.2793 8.04981H16.001C15.4487 8.04981 15.001 7.60209 15.001 7.04981C15.0013 6.49772 15.4489 6.04981 16.001 6.04981H17.3477C14.207 3.22276 9.36674 3.31982 6.34379 6.34278C3.21959 9.46697 3.21959 14.533 6.34379 17.6572C9.46798 20.7814 14.534 20.7814 17.6582 17.6572C19.1767 16.1388 19.9563 14.1635 19.9991 12.1729C20.011 11.6208 20.4684 11.1825 21.0205 11.1943C21.5726 11.2063 22.0108 11.6638 21.9991 12.2158C21.9457 14.7012 20.9697 17.1739 19.0723 19.0713C15.1671 22.9765 8.83497 22.9765 4.92973 19.0713C1.02448 15.166 1.02448 8.83396 4.92973 4.92871ZM11.001 7C11.001 6.44772 11.4487 6 12.001 6C12.5533 6 13.001 6.44772 13.001 7V11H16.001C16.5533 11 17.001 11.4477 17.001 12C17.001 12.5523 16.5533 13 16.001 13H12.251C11.5607 13 11.001 12.4404 11.001 11.75V7Z" fill="black"/>
</svg>
