<svg width="24" height="24" viewBox="0 0 24 24" fill="none" xmlns="http://www.w3.org/2000/svg">
<path d="M4 4V20H6V4H4ZM20.293 9.29297C20.6835 8.90244 21.3165 8.90244 21.707 9.29297C22.0976 9.68349 22.0976 10.3165 21.707 10.707L17.8838 14.5303C17.3956 15.0184 16.6044 15.0184 16.1162 14.5303L14.293 12.707C13.9024 12.3165 13.9024 11.6835 14.293 11.293C14.6835 10.9024 15.3165 10.9024 15.707 11.293L17 12.5859L20.293 9.29297ZM13 8V4H11V20H13V16C13 15.4477 13.4477 15 14 15C14.5523 15 15 15.4477 15 16V20C15 21.1046 14.1046 22 13 22H11C9.89543 22 9 21.1046 9 20V4C9 2.89543 9.89543 2 11 2H13C14.1046 2 15 2.89543 15 4V8C15 8.55228 14.5523 9 14 9C13.4477 9 13 8.55228 13 8ZM8 20C8 21.1046 7.10457 22 6 22H4C2.89543 22 2 21.1046 2 20V4C2 2.89543 2.89543 2 4 2H6C7.10457 2 8 2.89543 8 4V20Z" fill="black"/>
</svg>
