<svg width="24" height="24" viewBox="0 0 24 24" fill="none" xmlns="http://www.w3.org/2000/svg">
<path d="M4 4V20H6V4H4ZM17 15V13H15C14.4477 13 14 12.5523 14 12C14 11.4477 14.4477 11 15 11H17V9C17 8.44772 17.4477 8 18 8C18.5523 8 19 8.44772 19 9V11H21C21.5523 11 22 11.4477 22 12C22 12.5523 21.5523 13 21 13H19V15C19 15.5523 18.5523 16 18 16C17.4477 16 17 15.5523 17 15ZM13 8V4H11V20H13V16C13 15.4477 13.4477 15 14 15C14.5523 15 15 15.4477 15 16V20C15 21.1046 14.1046 22 13 22H11C9.89543 22 9 21.1046 9 20V4C9 2.89543 9.89543 2 11 2H13C14.1046 2 15 2.89543 15 4V8C15 8.55228 14.5523 9 14 9C13.4477 9 13 8.55228 13 8ZM8 20C8 21.1046 7.10457 22 6 22H4C2.89543 22 2 21.1046 2 20V4C2 2.89543 2.89543 2 4 2H6C7.10457 2 8 2.89543 8 4V20Z" fill="black"/>
</svg>
