<svg width="24" height="24" viewBox="0 0 24 24" fill="none" xmlns="http://www.w3.org/2000/svg">
<path d="M20 9.69922L12.7285 13.7393C12.2755 13.9909 11.7245 13.9909 11.2715 13.7393L4 9.69922V17.5C4 18.0523 4.44772 18.5 5 18.5H19C19.5523 18.5 20 18.0523 20 17.5V9.69922ZM20 6.5C20 5.94772 19.5523 5.5 19 5.5H5C4.44772 5.5 4 5.94772 4 6.5V7.41113L12 11.8555L20 7.41113V6.5ZM22 17.5C22 19.1569 20.6569 20.5 19 20.5H5C3.34315 20.5 2 19.1569 2 17.5V6.5C2 4.84315 3.34315 3.5 5 3.5H19C20.6569 3.5 22 4.84315 22 6.5V17.5Z" fill="black"/>
</svg>
