<svg width="24" height="24" viewBox="0 0 24 24" fill="none" xmlns="http://www.w3.org/2000/svg">
<path d="M3.5 19V5C3.5 3.34315 4.84315 2 6.5 2H13.6719C14.4674 2.00008 15.2304 2.31637 15.793 2.87891L19.6211 6.70703C20.1836 7.26957 20.4999 8.03259 20.5 8.82812V19C20.5 20.6569 19.1569 22 17.5 22H6.5C4.84315 22 3.5 20.6569 3.5 19ZM13.4141 11.1719C13.8046 10.7814 14.4386 10.7814 14.8291 11.1719C15.2192 11.5624 15.2193 12.1955 14.8291 12.5859L13.4141 14L14.8291 15.4141C15.2193 15.8045 15.2192 16.4376 14.8291 16.8281C14.4386 17.2186 13.8046 17.2186 13.4141 16.8281L12 15.4141L10.5859 16.8281C10.1954 17.2186 9.5624 17.2186 9.17188 16.8281C8.78147 16.4376 8.78139 15.8045 9.17188 15.4141L10.5859 14L9.17188 12.5859C8.78139 12.1955 8.78147 11.5624 9.17188 11.1719C9.5624 10.7814 10.1954 10.7814 10.5859 11.1719L12 12.585L13.4141 11.1719ZM15.5 7H17.0859L15.5 5.41406V7ZM5.5 19C5.5 19.5523 5.94772 20 6.5 20H17.5C18.0523 20 18.5 19.5523 18.5 19V9H15C14.1716 9 13.5 8.32843 13.5 7.5V4H6.5C5.94772 4 5.5 4.44772 5.5 5V19Z" fill="black"/>
</svg>
