<svg width="24" height="24" viewBox="0 0 24 24" fill="none" xmlns="http://www.w3.org/2000/svg">
<path d="M3.5 19V5C3.5 3.34315 4.84315 2 6.5 2H13.6719C14.4674 2.00008 15.2304 2.31637 15.793 2.87891L19.6211 6.70703C20.1836 7.26957 20.4999 8.03259 20.5 8.82812V19C20.5 20.6569 19.1569 22 17.5 22H6.5C4.84315 22 3.5 20.6569 3.5 19ZM15.5 16C16.0523 16 16.5 16.4477 16.5 17C16.5 17.5523 16.0523 18 15.5 18H8.5C7.94772 18 7.5 17.5523 7.5 17C7.5 16.4477 7.94772 16 8.5 16H15.5ZM15.5 12.5C16.0523 12.5 16.5 12.9477 16.5 13.5C16.5 14.0523 16.0523 14.5 15.5 14.5H8.5C7.94772 14.5 7.5 14.0523 7.5 13.5C7.5 12.9477 7.94772 12.5 8.5 12.5H15.5ZM10.5 9C11.0523 9 11.5 9.44772 11.5 10C11.5 10.5523 11.0523 11 10.5 11H8.5C7.94772 11 7.5 10.5523 7.5 10C7.5 9.44772 7.94772 9 8.5 9H10.5ZM15.5 7H17.0859L15.5 5.41406V7ZM5.5 19C5.5 19.5523 5.94772 20 6.5 20H17.5C18.0523 20 18.5 19.5523 18.5 19V9H15C14.1716 9 13.5 8.32843 13.5 7.5V4H6.5C5.94772 4 5.5 4.44772 5.5 5V19Z" fill="black"/>
</svg>
