<svg width="24" height="24" viewBox="0 0 24 24" fill="none" xmlns="http://www.w3.org/2000/svg">
<path d="M3.5 19V5C3.5 3.34315 4.84315 2 6.5 2H13.6719C14.4674 2.00008 15.2304 2.31637 15.793 2.87891L19.6211 6.70703C20.1836 7.26957 20.4999 8.03259 20.5 8.82812V19C20.5 20.6569 19.1569 22 17.5 22H6.5C4.84315 22 3.5 20.6569 3.5 19ZM15.5 7H17.0859L15.5 5.41406V7ZM5.5 19C5.5 19.5523 5.94772 20 6.5 20H17.5C18.0523 20 18.5 19.5523 18.5 19V9H15C14.1716 9 13.5 8.32843 13.5 7.5V4H6.5C5.94772 4 5.5 4.44772 5.5 5V19Z" fill="black"/>
</svg>
