<svg width="24" height="24" viewBox="0 0 24 24" fill="none" xmlns="http://www.w3.org/2000/svg">
<path d="M2 18V6C2 4.34315 3.34315 3 5 3H8.5C9.44427 3 10.3338 3.44478 10.9004 4.2002L11.2002 4.59961C11.389 4.85142 11.6852 5 12 5H19C20.6569 5 22 6.34315 22 8V18C22 19.6569 20.6569 21 19 21H5C3.34315 21 2 19.6569 2 18ZM17 9C17.5523 9 18 9.44772 18 10C18 10.5523 17.5523 11 17 11H7C6.44772 11 6 10.5523 6 10C6 9.44772 6.44772 9 7 9H17ZM4 18C4 18.5523 4.44772 19 5 19H19C19.5523 19 20 18.5523 20 18V8C20 7.44772 19.5523 7 19 7H12C11.0557 7 10.1662 6.55522 9.59961 5.7998L9.2998 5.40039C9.11095 5.14858 8.81476 5 8.5 5H5C4.44772 5 4 5.44772 4 6V18Z" fill="black"/>
</svg>
