<svg width="24" height="24" viewBox="0 0 24 24" fill="none" xmlns="http://www.w3.org/2000/svg">
<path d="M2 18V6C2 4.34315 3.34315 3 5 3H8.5C9.44427 3 10.3338 3.44478 10.9004 4.2002L11.2002 4.59961C11.389 4.85142 11.6852 5 12 5H19C20.6569 5 22 6.34315 22 8V18C22 19.6569 20.6569 21 19 21H5C3.34315 21 2 19.6569 2 18ZM9.29297 9.29297C9.68349 8.90244 10.3165 8.90244 10.707 9.29297C11.0976 9.68349 11.0976 10.3165 10.707 10.707L8.41406 13L10.707 15.293C11.0976 15.6835 11.0976 16.3165 10.707 16.707C10.3165 17.0976 9.68349 17.0976 9.29297 16.707L6.64648 14.0605C6.06075 13.4748 6.06075 12.5252 6.64648 11.9395L9.29297 9.29297ZM13.293 9.29297C13.6835 8.90244 14.3165 8.90244 14.707 9.29297L17.3535 11.9395C17.9393 12.5252 17.9393 13.4748 17.3535 14.0605L14.707 16.707C14.3165 17.0976 13.6835 17.0976 13.293 16.707C12.9024 16.3165 12.9024 15.6835 13.293 15.293L15.5859 13L13.293 10.707C12.9024 10.3165 12.9024 9.68349 13.293 9.29297ZM4 18C4 18.5523 4.44772 19 5 19H19C19.5523 19 20 18.5523 20 18V8C20 7.44772 19.5523 7 19 7H12C11.0557 7 10.1662 6.55522 9.59961 5.7998L9.2998 5.40039C9.11095 5.14858 8.81476 5 8.5 5H5C4.44772 5 4 5.44772 4 6V18Z" fill="black"/>
</svg>
