<svg width="24" height="24" viewBox="0 0 24 24" fill="none" xmlns="http://www.w3.org/2000/svg">
<path d="M10.6543 6.17871C10.4367 6.96125 9.54213 7.33129 8.83496 6.93164L6.86621 5.81934L5.82031 6.86523L6.93262 8.83398C7.33225 9.54113 6.96224 10.4357 6.17969 10.6533L4 11.2588V12.7393L6.17871 13.3447C6.96165 13.562 7.33236 14.4567 6.93262 15.1641L5.81934 17.1328L6.86621 18.1797L8.83496 17.0674L8.96973 17.001C9.65144 16.7153 10.4502 17.0867 10.6543 17.8203L11.2607 20H12.7393L13.3447 17.8203L13.3926 17.6787C13.6536 17.0396 14.3926 16.7332 15.0293 17L15.1641 17.0664L17.1338 18.1797L18.1797 17.1338L17.0674 15.1641C16.6676 14.4567 17.0384 13.562 17.8213 13.3447L20 12.7393V11.2598L17.8203 10.6543C17.0378 10.4366 16.6676 9.54213 17.0674 8.83496L18.1797 6.86523L17.1328 5.81934L15.1641 6.93262C14.4567 7.33237 13.562 6.96165 13.3447 6.17871L12.7393 4H11.2607L10.6543 6.17871ZM14 12C14 10.8954 13.1046 10 12 10C10.8955 10.0001 10 10.8955 10 12C10 13.1045 10.8955 13.9999 12 14C13.1046 14 14 13.1046 14 12ZM16 12C16 14.2091 14.2091 16 12 16C9.79097 15.9999 8 14.2091 8 12C8 9.79094 9.79097 8.00013 12 8C14.2091 8 16 9.79086 16 12ZM22 13.3096C22 13.8712 21.6251 14.3645 21.084 14.5146L19.2803 15.0146L20.2021 16.6465C20.4782 17.1353 20.394 17.7486 19.9971 18.1455L18.1455 19.9971C17.7485 20.394 17.1353 20.4782 16.6465 20.2021L15.0146 19.2793L14.5146 21.084C14.3645 21.6252 13.8712 22 13.3096 22H10.6904C10.129 22 9.63574 21.6258 9.48535 21.085L8.9834 19.2803L7.35449 20.2021C6.8658 20.4782 6.25246 20.3949 5.85547 19.998L4.00293 18.1455C3.60581 17.7486 3.52175 17.1354 3.79785 16.6465L4.71875 15.0146L2.91602 14.5146C2.37485 14.3645 2 13.8712 2 13.3096V10.6904C2 10.1291 2.37421 9.63577 2.91504 9.48535L4.71973 8.98242L3.79883 7.35352C3.52275 6.86474 3.60695 6.25145 4.00391 5.85449L5.85547 4.00293L5.93262 3.93164C6.32883 3.59638 6.89626 3.53902 7.35449 3.79785L8.9834 4.71777L9.48535 2.91504L9.51758 2.81543C9.69771 2.32875 10.1642 2 10.6904 2H13.3096L13.4141 2.00391C13.8972 2.04405 14.3145 2.36163 14.4824 2.81641L14.5146 2.91602L15.0146 4.71875L16.6465 3.79785L16.7393 3.75C17.1794 3.54756 17.6985 3.6187 18.0684 3.93164L18.1455 4.00293L19.9971 5.85449C20.394 6.25146 20.4782 6.86474 20.2021 7.35352L19.2803 8.9834L21.085 9.48535C21.6258 9.63574 22 10.129 22 10.6904V13.3096Z" fill="black"/>
</svg>
