<svg width="24" height="24" viewBox="0 0 24 24" fill="none" xmlns="http://www.w3.org/2000/svg">
<path d="M19 11.2907L18 11.8405V16.4772L19 15.9147V11.2907ZM4.07519 8.4997L12 12.8591L14.9248 11.2497L11.5185 9.37666C11.0347 9.11052 10.8579 8.50217 11.124 8.01826C11.3902 7.53434 11.9985 7.35757 12.4824 7.62373L17 10.1081L19.9248 8.4997L12 4.14131L4.07519 8.4997ZM12 19.8522L16 17.6022V12.9411L12.9639 14.611C12.3637 14.9411 11.6363 14.9411 11.0361 14.611L4.99999 11.2907V15.9147L12 19.8522ZM21 15.9147C21 16.6373 20.6102 17.3037 19.9805 17.6579L18 18.7712V20.4997C18 21.052 17.5523 21.4997 17 21.4997C16.4478 21.4996 16 21.0519 16 20.4997V19.8962L12.9805 21.5954C12.3716 21.9379 11.6283 21.9379 11.0195 21.5954L4.01952 17.6579C3.38992 17.3036 2.99999 16.6372 2.99999 15.9147V10.1853C1.73156 9.38215 1.76827 7.48651 3.11132 6.74775L11.0361 2.38935C11.6363 2.05926 12.3637 2.05926 12.9639 2.38935L20.8887 6.74775C22.2319 7.48652 22.2687 9.38221 21 10.1853V15.9147Z" fill="black"/>
</svg>
