<svg width="24" height="24" viewBox="0 0 24 24" fill="none" xmlns="http://www.w3.org/2000/svg">
<path d="M10 19.9998H14V14.9998H10V19.9998ZM16 19.9998H19C19.5523 19.9998 20 19.5521 20 18.9998V9.17657C19.9999 8.81349 19.8028 8.47888 19.4854 8.30255L12.4854 4.41387C12.1834 4.24621 11.8166 4.24621 11.5146 4.41387L4.51465 8.30255C4.19725 8.47888 4.00008 8.81349 4 9.17657V18.9998C4 19.5521 4.44772 19.9998 5 19.9998H8V14.4998C8.00009 13.6715 8.67163 12.9998 9.5 12.9998H14.5C15.3284 12.9998 15.9999 13.6715 16 14.4998V19.9998ZM22 18.9998C22 20.6567 20.6569 21.9998 19 21.9998H5C3.34315 21.9998 2 20.6567 2 18.9998V9.17657C2.00008 8.08721 2.59073 7.0836 3.54297 6.5545L10.543 2.66583C11.449 2.16246 12.551 2.16246 13.457 2.66583L20.457 6.5545C21.4093 7.0836 21.9999 8.08721 22 9.17657V18.9998Z" fill="black"/>
</svg>
