<svg width="24" height="24" viewBox="0 0 24 24" fill="none" xmlns="http://www.w3.org/2000/svg">
<path d="M20 14H16.8281C16.563 14.0001 16.3086 14.1055 16.1211 14.293L15.293 15.1211C14.7304 15.6836 13.9674 15.9999 13.1719 16H10.8281C10.0326 15.9999 9.26957 15.6836 8.70703 15.1211L7.87891 14.293C7.69144 14.1055 7.43698 14.0001 7.17188 14H4V18C4 18.5523 4.44772 19 5 19H19C19.5523 19 20 18.5523 20 18V14ZM11 3C11 2.44772 11.4477 2 12 2C12.5523 2 13 2.44772 13 3V8.58594L13.793 7.79297C14.1835 7.40244 14.8165 7.40244 15.207 7.79297C15.5976 8.18349 15.5976 8.81651 15.207 9.20703L13.0605 11.3535C12.4748 11.9393 11.5252 11.9392 10.9395 11.3535L8.79297 9.20703C8.40244 8.81651 8.40244 8.18349 8.79297 7.79297C9.18349 7.40244 9.81651 7.40244 10.207 7.79297L11 8.58594V3ZM22 18C22 19.6569 20.6569 21 19 21H5C3.34315 21 2 19.6569 2 18V13.3242C2.00002 13.161 2.01365 12.9984 2.04004 12.8379C2.06577 12.6814 2.10399 12.5269 2.1543 12.376L3.5957 8.05176C4.00403 6.82677 5.15016 6.00005 6.44141 6H7C7.55228 6 8 6.44772 8 7C8 7.55228 7.55228 8 7 8H6.44141C6.01111 8.00005 5.62934 8.27543 5.49316 8.68359L4.3877 12H7.17188C7.96742 12.0001 8.73043 12.3164 9.29297 12.8789L10.1211 13.707C10.3086 13.8945 10.563 13.9999 10.8281 14H13.1719C13.437 13.9999 13.6914 13.8945 13.8789 13.707L14.707 12.8789C15.2696 12.3164 16.0326 12.0001 16.8281 12H19.6123L18.5068 8.68359C18.3707 8.27543 17.9889 8.00005 17.5586 8H17C16.4477 8 16 7.55228 16 7C16 6.44772 16.4477 6 17 6H17.5586C18.8498 6.00005 19.996 6.82677 20.4043 8.05176L21.8457 12.376C21.8671 12.44 21.8844 12.5051 21.9014 12.5703C21.9636 12.7007 22 12.8459 22 13C22 13.0414 21.9961 13.082 21.9912 13.1221C21.9958 13.1893 22 13.2567 22 13.3242V18Z" fill="black"/>
</svg>
