<svg width="24" height="24" viewBox="0 0 24 24" fill="none" xmlns="http://www.w3.org/2000/svg">
<path d="M9.94086 2.33165C11.0647 2.03308 11.837 3.24359 11.3227 4.14122L11.1176 4.50059C7.73386 10.4066 14.2573 17.0267 20.2123 13.7301L20.3002 13.6861C21.2135 13.2706 22.3451 14.098 21.978 15.192C20.3096 20.1589 15.0426 23.0334 9.91254 21.6588C4.57793 20.2293 1.41184 14.7464 2.84125 9.41172C3.80233 5.82497 6.59636 3.22016 9.94086 2.33165ZM8.70258 4.9586C6.83172 5.96811 5.366 7.71583 4.77289 9.9293C3.62936 14.197 6.16245 18.5836 10.4301 19.7272C13.8953 20.6556 17.4391 19.1603 19.2612 16.2809C12.6335 18.2024 6.28607 11.5599 8.70258 4.9586Z" fill="black"/>
</svg>
