<svg width="24" height="24" viewBox="0 0 24 24" fill="none" xmlns="http://www.w3.org/2000/svg">
<path d="M4 5C4 4.44772 4.44772 4 5 4H19C19.5523 4 20 4.44772 20 5V19C20 19.5523 19.5523 20 19 20H5C4.44772 20 4 19.5523 4 19V5ZM16 17V16C16 15.4477 15.5523 15 15 15C14.4477 15 14 15.4477 14 16V17C14 17.5523 14.4477 18 15 18C15.5523 18 16 17.5523 16 17ZM16 12.5V11.5C16 10.9477 15.5523 10.5 15 10.5C14.4477 10.5 14 10.9477 14 11.5V12.5C14 13.0523 14.4477 13.5 15 13.5C15.5523 13.5 16 13.0523 16 12.5ZM16 8V7C16 6.44772 15.5523 6 15 6C14.4477 6 14 6.44772 14 7V8C14 8.55228 14.4477 9 15 9C15.5523 9 16 8.55228 16 8ZM2 19C2 20.6569 3.34315 22 5 22H19C20.6569 22 22 20.6569 22 19V5C22 3.34315 20.6569 2 19 2H5C3.34315 2 2 3.34315 2 5V19Z" fill="black"/>
</svg>
