<svg width="24" height="24" viewBox="0 0 24 24" fill="none" xmlns="http://www.w3.org/2000/svg">
<path d="M20 5C20 4.44772 19.5523 4 19 4H5C4.44772 4 4 4.44772 4 5V19C4 19.5523 4.44772 20 5 20H19C19.5523 20 20 19.5523 20 19V5ZM6 17V16C6 15.4477 6.44772 15 7 15C7.55228 15 8 15.4477 8 16V17C8 17.5523 7.55228 18 7 18C6.44772 18 6 17.5523 6 17ZM16 17V16C16 15.4477 16.4477 15 17 15C17.5523 15 18 15.4477 18 16V17C18 17.5523 17.5523 18 17 18C16.4477 18 16 17.5523 16 17ZM6 12.5V11.5C6 10.9477 6.44772 10.5 7 10.5C7.55228 10.5 8 10.9477 8 11.5V12.5C8 13.0523 7.55228 13.5 7 13.5C6.44772 13.5 6 13.0523 6 12.5ZM16 12.5V11.5C16 10.9477 16.4477 10.5 17 10.5C17.5523 10.5 18 10.9477 18 11.5V12.5C18 13.0523 17.5523 13.5 17 13.5C16.4477 13.5 16 13.0523 16 12.5ZM6 8V7C6 6.44772 6.44772 6 7 6C7.55228 6 8 6.44772 8 7V8C8 8.55228 7.55228 9 7 9C6.44772 9 6 8.55228 6 8ZM16 8V7C16 6.44772 16.4477 6 17 6C17.5523 6 18 6.44772 18 7V8C18 8.55228 17.5523 9 17 9C16.4477 9 16 8.55228 16 8ZM22 19C22 20.6569 20.6569 22 19 22H5C3.34315 22 2 20.6569 2 19V5C2 3.34315 3.34315 2 5 2H19C20.6569 2 22 3.34315 22 5V19Z" fill="black"/>
</svg>
