<svg width="24" height="24" viewBox="0 0 24 24" fill="none" xmlns="http://www.w3.org/2000/svg">
<path d="M19 4C19.5523 4 20 4.44772 20 5V19C20 19.5523 19.5523 20 19 20H5C4.44772 20 4 19.5523 4 19V5C4 4.44772 4.44772 4 5 4H19ZM7 16H8C8.55229 16 9 15.5523 9 15C9 14.4477 8.55229 14 8 14H7C6.44771 14 6 14.4477 6 15C6 15.5523 6.44771 16 7 16ZM11.5 16H12.5C13.0523 16 13.5 15.5523 13.5 15C13.5 14.4477 13.0523 14 12.5 14H11.5C10.9477 14 10.5 14.4477 10.5 15C10.5 15.5523 10.9477 16 11.5 16ZM16 16H17C17.5523 16 18 15.5523 18 15C18 14.4477 17.5523 14 17 14H16C15.4477 14 15 14.4477 15 15C15 15.5523 15.4477 16 16 16ZM5 2C3.34315 2 2 3.34315 2 5V19C2 20.6569 3.34315 22 5 22H19C20.6569 22 22 20.6569 22 19V5C22 3.34315 20.6569 2 19 2H5Z" fill="black"/>
</svg>
