<svg width="24" height="24" viewBox="0 0 24 24" fill="none" xmlns="http://www.w3.org/2000/svg">
<path d="M20 5C20 4.44772 19.5523 4 19 4H5C4.44772 4 4 4.44772 4 5V19C4 19.5523 4.44772 20 5 20H19C19.5523 20 20 19.5523 20 19V5ZM11 16.5V13H7.5C6.94772 13 6.5 12.5523 6.5 12C6.5 11.4477 6.94772 11 7.5 11H11V7.5C11 6.94772 11.4477 6.5 12 6.5C12.5523 6.5 13 6.94772 13 7.5V11H16.5C17.0523 11 17.5 11.4477 17.5 12C17.5 12.5523 17.0523 13 16.5 13H13V16.5C13 17.0523 12.5523 17.5 12 17.5C11.4477 17.5 11 17.0523 11 16.5ZM22 19C22 20.6569 20.6569 22 19 22H5C3.34315 22 2 20.6569 2 19V5C2 3.34315 3.34315 2 5 2H19C20.6569 2 22 3.34315 22 5V19Z" fill="black"/>
</svg>
