<svg width="24" height="24" viewBox="0 0 24 24" fill="none" xmlns="http://www.w3.org/2000/svg">
<path d="M11 21V19H9C8.44772 19 8 18.5523 8 18C8 17.4477 8.44772 17 9 17H11V15C11 14.4477 11.4477 14 12 14C12.5523 14 13 14.4477 13 15V17H15C15.5523 17 16 17.4477 16 18C16 18.5523 15.5523 19 15 19H13V21C13 21.5523 12.5523 22 12 22C11.4477 22 11 21.5523 11 21ZM20 13V11H4V13H8C8.55228 13 9 13.4477 9 14C9 14.5523 8.55228 15 8 15H4C2.89543 15 2 14.1046 2 13V11C2 9.89543 2.89543 9 4 9H20C21.1046 9 22 9.89543 22 11V13C22 14.1046 21.1046 15 20 15H16C15.4477 15 15 14.5523 15 14C15 13.4477 15.4477 13 16 13H20ZM4 4V6H20V4H4ZM22 6C22 7.10457 21.1046 8 20 8H4C2.89543 8 2 7.10457 2 6V4C2 2.89543 2.89543 2 4 2H20C21.1046 2 22 2.89543 22 4V6Z" fill="black"/>
</svg>
