<svg width="24" height="24" viewBox="0 0 24 24" fill="none" xmlns="http://www.w3.org/2000/svg">
<path d="M20 16H4V19C4 19.5523 4.44772 20 5 20H19C19.5523 20 20 19.5523 20 19V16ZM6.00098 17C6.55326 17 7.00098 17.4477 7.00098 18C7.00098 18.5523 6.55326 19 6.00098 19H6C5.44772 19 5 18.5523 5 18C5 17.4477 5.44772 17 6 17H6.00098ZM9.00098 17C9.55326 17 10.001 17.4477 10.001 18C10.001 18.5523 9.55326 19 9.00098 19H9C8.44772 19 8 18.5523 8 18C8 17.4477 8.44772 17 9 17H9.00098ZM18 17C18.5523 17 19 17.4477 19 18C19 18.5523 18.5523 19 18 19H12C11.4477 19 11 18.5523 11 18C11 17.4477 11.4477 17 12 17H18ZM4 14H20V10H4V14ZM6.00098 11C6.55326 11 7.00098 11.4477 7.00098 12C7.00098 12.5523 6.55326 13 6.00098 13H6C5.44772 13 5 12.5523 5 12C5 11.4477 5.44772 11 6 11H6.00098ZM9.00098 11C9.55326 11 10.001 11.4477 10.001 12C10.001 12.5523 9.55326 13 9.00098 13H9C8.44772 13 8 12.5523 8 12C8 11.4477 8.44772 11 9 11H9.00098ZM18 11C18.5523 11 19 11.4477 19 12C19 12.5523 18.5523 13 18 13H12C11.4477 13 11 12.5523 11 12C11 11.4477 11.4477 11 12 11H18ZM6.44141 4C6.01111 4.00005 5.62934 4.27543 5.49316 4.68359L4.3877 8H19.6123L18.5068 4.68359C18.3707 4.27543 17.9889 4.00005 17.5586 4H6.44141ZM22 19C22 20.6569 20.6569 22 19 22H5C3.34315 22 2 20.6569 2 19V9.32422C2.00001 9.25699 2.00428 9.18998 2.00879 9.12305C2.00383 9.08267 2 9.04171 2 9C2 8.84637 2.03575 8.70135 2.09766 8.57129C2.11468 8.50571 2.13283 8.44039 2.1543 8.37598L3.5957 4.05176C4.00403 2.82677 5.15016 2.00005 6.44141 2H17.5586C18.8498 2.00005 19.996 2.82677 20.4043 4.05176L21.8457 8.37598C21.8672 8.44039 21.8853 8.50571 21.9023 8.57129C21.9642 8.70135 22 8.84637 22 9C22 9.04171 21.9962 9.08267 21.9912 9.12305C21.9957 9.18998 22 9.25699 22 9.32422V19Z" fill="black"/>
</svg>
