<svg width="24" height="24" viewBox="0 0 24 24" fill="none" xmlns="http://www.w3.org/2000/svg">
<path d="M3 19.0001V10.5001C3 8.84324 4.34315 7.50009 6 7.50009H8C8.55228 7.50009 9 7.94781 9 8.50009C8.99996 9.05234 8.55226 9.50009 8 9.50009H6C5.44772 9.50009 5 9.94781 5 10.5001V19.0001C5.00004 19.5523 5.44774 20.0001 6 20.0001H18C18.5523 20.0001 19 19.5523 19 19.0001V10.5001C19 9.94781 18.5523 9.50009 18 9.50009H16C15.4477 9.50009 15 9.05234 15 8.50009C15 7.94781 15.4477 7.50009 16 7.50009H18C19.6569 7.50009 21 8.84324 21 10.5001V19.0001C21 20.6569 19.6568 22.0001 18 22.0001H6C4.34317 22.0001 3.00004 20.6569 3 19.0001ZM11 16.0001V4.41416L9.70703 5.70712C9.31652 6.0976 8.68348 6.0976 8.29297 5.70712C7.90246 5.31661 7.90248 4.68359 8.29297 4.29306L10.9395 1.64658L11.0537 1.54306C11.6429 1.06294 12.5115 1.09755 13.0605 1.64658L15.707 4.29306C16.0975 4.68359 16.0975 5.31661 15.707 5.70712C15.3165 6.0976 14.6835 6.0976 14.293 5.70712L13 4.41416V16.0001C13 16.5523 12.5523 17.0001 12 17.0001C11.4477 17.0001 11 16.5523 11 16.0001Z" fill="black"/>
</svg>
