<svg width="24" height="24" viewBox="0 0 24 24" fill="none" xmlns="http://www.w3.org/2000/svg">
<path d="M15 8C15 6.69415 15.8353 5.58594 17 5.17383V4C17 3.44772 17.4477 3 18 3C18.5523 3 19 3.44772 19 4V5.17383C20.1647 5.58594 21 6.69415 21 8C21 9.30585 20.1647 10.4141 19 10.8262V20C19 20.5523 18.5523 21 18 21C17.4477 21 17 20.5523 17 20V10.8262C15.8353 10.4141 15 9.30585 15 8ZM17 8C17 8.55229 17.4477 9 18 9C18.5523 9 19 8.55229 19 8C19 7.44771 18.5523 7 18 7C17.4477 7 17 7.44771 17 8ZM9 16C9 14.6941 9.83532 13.5859 11 13.1738V4C11 3.44772 11.4477 3 12 3C12.5523 3 13 3.44772 13 4V13.1738C14.1647 13.5859 15 14.6941 15 16C15 17.3059 14.1647 18.4141 13 18.8262V20C13 20.5523 12.5523 21 12 21C11.4477 21 11 20.5523 11 20V18.8262C9.83532 18.4141 9 17.3059 9 16ZM11 16C11 16.5523 11.4477 17 12 17C12.5523 17 13 16.5523 13 16C13 15.4477 12.5523 15 12 15C11.4477 15 11 15.4477 11 16ZM3 10C3 8.69415 3.83532 7.58594 5 7.17383V4C5 3.44772 5.44772 3 6 3C6.55228 3 7 3.44772 7 4V7.17383C8.16468 7.58594 9 8.69415 9 10C9 11.3059 8.16468 12.4141 7 12.8262V20C7 20.5523 6.55228 21 6 21C5.44772 21 5 20.5523 5 20V12.8262C3.83532 12.4141 3 11.3059 3 10ZM5 10C5 10.5523 5.44772 11 6 11C6.55228 11 7 10.5523 7 10C7 9.44771 6.55228 9 6 9C5.44772 9 5 9.44771 5 10Z" fill="black"/>
</svg>
