<svg width="24" height="24" viewBox="0 0 24 24" fill="none" xmlns="http://www.w3.org/2000/svg">
<path d="M16 15C17.3059 15 18.4141 15.8353 18.8262 17H20C20.5523 17 21 17.4477 21 18C21 18.5523 20.5523 19 20 19H18.8262C18.4141 20.1647 17.3059 21 16 21C14.6941 21 13.5859 20.1647 13.1738 19H4C3.44772 19 3 18.5523 3 18C3 17.4477 3.44772 17 4 17H13.1738C13.5859 15.8353 14.6941 15 16 15ZM16 17C15.4477 17 15 17.4477 15 18C15 18.5523 15.4477 19 16 19C16.5523 19 17 18.5523 17 18C17 17.4477 16.5523 17 16 17ZM8 9C9.30585 9 10.4141 9.83532 10.8262 11H20C20.5523 11 21 11.4477 21 12C21 12.5523 20.5523 13 20 13H10.8262C10.4141 14.1647 9.30585 15 8 15C6.69415 15 5.58594 14.1647 5.17383 13H4C3.44772 13 3 12.5523 3 12C3 11.4477 3.44772 11 4 11H5.17383C5.58594 9.83532 6.69415 9 8 9ZM8 11C7.44772 11 7 11.4477 7 12C7 12.5523 7.44772 13 8 13C8.55228 13 9 12.5523 9 12C9 11.4477 8.55228 11 8 11ZM14 3C15.3059 3 16.4141 3.83532 16.8262 5H20C20.5523 5 21 5.44772 21 6C21 6.55228 20.5523 7 20 7H16.8262C16.4141 8.16468 15.3059 9 14 9C12.6941 9 11.5859 8.16468 11.1738 7H4C3.44772 7 3 6.55228 3 6C3 5.44772 3.44772 5 4 5H11.1738C11.5859 3.83532 12.6941 3 14 3ZM14 5C13.4477 5 13 5.44772 13 6C13 6.55228 13.4477 7 14 7C14.5523 7 15 6.55228 15 6C15 5.44772 14.5523 5 14 5Z" fill="black"/>
</svg>
