<svg width="24" height="24" viewBox="0 0 24 24" fill="none" xmlns="http://www.w3.org/2000/svg">
<path d="M21 17.0001C21.5523 17.0001 22 17.4478 22 18.0001C22 18.5523 21.5523 19.0001 21 19.0001H3C2.44774 19.0001 2.00004 18.5523 2 18.0001C2 17.4478 2.44772 17.0001 3 17.0001H21ZM4.5 13.5001C5.05228 13.5001 5.5 13.9478 5.5 14.5001C5.49996 15.0523 5.05226 15.5001 4.5 15.5001H3C2.44774 15.5001 2.00004 15.0523 2 14.5001C2 13.9478 2.44772 13.5001 3 13.5001H4.5ZM15 14.5001C15 12.8432 13.6569 11.5001 12 11.5001C10.3431 11.5001 9 12.8432 9 14.5001C8.99996 15.0523 8.55226 15.5001 8 15.5001C7.44774 15.5001 7.00004 15.0523 7 14.5001C7 11.7386 9.23858 9.50006 12 9.50006C14.7614 9.50006 17 11.7386 17 14.5001C17 15.0523 16.5523 15.5001 16 15.5001C15.4477 15.5001 15 15.0523 15 14.5001ZM21 13.5001C21.5523 13.5001 22 13.9478 22 14.5001C22 15.0523 21.5523 15.5001 21 15.5001H19.5C18.9477 15.5001 18.5 15.0523 18.5 14.5001C18.5 13.9478 18.9477 13.5001 19.5 13.5001H21ZM4.92871 7.42877C5.31921 7.0384 5.95228 7.0384 6.34277 7.42877L7.40332 8.48932C7.79381 8.87981 7.79373 9.51285 7.40332 9.90338C7.0128 10.2939 6.37978 10.2939 5.98926 9.90338L4.92871 8.84284C4.5383 8.4523 4.53822 7.81926 4.92871 7.42877ZM17.6562 7.42877C18.0468 7.03825 18.6808 7.03825 19.0713 7.42877C19.4616 7.81919 19.4614 8.45233 19.0713 8.84284L18.0098 9.90338C17.6192 10.2939 16.9862 10.2939 16.5957 9.90338C16.2055 9.51284 16.2053 8.87973 16.5957 8.48932L17.6562 7.42877ZM11 7.00006V4.41412L10.207 5.20709C9.81652 5.59757 9.18348 5.59757 8.79297 5.20709C8.40246 4.81658 8.40248 4.18356 8.79297 3.79303L10.9395 1.64655L11.0537 1.54303C11.6429 1.06292 12.5115 1.09752 13.0605 1.64655L15.207 3.79303C15.5975 4.18356 15.5975 4.81658 15.207 5.20709C14.8165 5.59757 14.1835 5.59757 13.793 5.20709L13 4.41412V7.00006C13 7.55231 12.5523 8.00006 12 8.00006C11.4477 8.00006 11 7.55231 11 7.00006Z" fill="black"/>
</svg>
