<svg width="24" height="24" viewBox="0 0 24 24" fill="none" xmlns="http://www.w3.org/2000/svg">
<path d="M21 17.1036C21.5523 17.1036 22 17.5513 22 18.1036C22 18.6559 21.5523 19.1036 21 19.1036H3C2.44772 19.1036 2 18.6559 2 18.1036C2 17.5513 2.44772 17.1036 3 17.1036H21ZM4.5 13.6036C5.05228 13.6036 5.5 14.0513 5.5 14.6036C5.5 15.1559 5.05228 15.6036 4.5 15.6036H3C2.44772 15.6036 2 15.1559 2 14.6036C2 14.0513 2.44772 13.6036 3 13.6036H4.5ZM15 14.6036C15 12.9467 13.6569 11.6036 12 11.6036C10.3431 11.6036 9 12.9467 9 14.6036C9 15.1559 8.55228 15.6036 8 15.6036C7.44772 15.6036 7 15.1559 7 14.6036C7 11.8422 9.23858 9.60358 12 9.60358C14.7614 9.60358 17 11.8422 17 14.6036C17 15.1559 16.5523 15.6036 16 15.6036C15.4477 15.6036 15 15.1559 15 14.6036ZM21 13.6036C21.5523 13.6036 22 14.0513 22 14.6036C22 15.1559 21.5523 15.6036 21 15.6036H19.5C18.9477 15.6036 18.5 15.1559 18.5 14.6036C18.5 14.0513 18.9477 13.6036 19.5 13.6036H21ZM4.92871 7.53229C5.3192 7.14197 5.95229 7.14197 6.34277 7.53229L7.40332 8.59283C7.79384 8.98336 7.79384 9.61735 7.40332 10.0079C7.01284 10.398 6.37969 10.3981 5.98926 10.0079L4.92871 8.94635C4.53834 8.55581 4.53824 7.92276 4.92871 7.53229ZM17.6562 7.53229C18.0468 7.14176 18.6808 7.14176 19.0713 7.53229C19.4616 7.92269 19.4614 8.55582 19.0713 8.94635L18.0098 10.0079C17.6192 10.3979 16.9861 10.3982 16.5957 10.0079C16.2052 9.61735 16.2052 8.98336 16.5957 8.59283L17.6562 7.53229ZM11 2.10358C11 1.55129 11.4477 1.10358 12 1.10358C12.5523 1.10358 13 1.55129 13 2.10358V4.68951L13.793 3.89655C14.1835 3.50602 14.8165 3.50602 15.207 3.89655C15.5976 4.28707 15.5976 4.92008 15.207 5.31061L13.0605 7.45709C12.4748 8.04283 11.5252 8.04283 10.9395 7.45709L8.79297 5.31061C8.40244 4.92008 8.40244 4.28707 8.79297 3.89655C9.18349 3.50602 9.81651 3.50602 10.207 3.89655L11 4.68951V2.10358Z" fill="black"/>
</svg>
