<svg width="24" height="24" viewBox="0 0 24 24" fill="none" xmlns="http://www.w3.org/2000/svg">
<path d="M20 15.5H10V18.5H19C19.5523 18.5 20 18.0523 20 17.5V15.5ZM10 13.5H20V10.5H10V13.5ZM4 13.5H8V10.5H4V13.5ZM4 17.5C4 18.0523 4.44772 18.5 5 18.5H8V15.5H4V17.5ZM20 6.5C20 5.94772 19.5523 5.5 19 5.5H5C4.44772 5.5 4 5.94772 4 6.5V8.5H20V6.5ZM22 17.5C22 19.1569 20.6569 20.5 19 20.5H5C3.34315 20.5 2 19.1569 2 17.5V6.5C2 4.84315 3.34315 3.5 5 3.5H19C20.6569 3.5 22 4.84315 22 6.5V17.5Z" fill="black"/>
</svg>
