<svg width="24" height="24" viewBox="0 0 24 24" fill="none" xmlns="http://www.w3.org/2000/svg">
<path d="M15 5C15 4.44772 14.5523 4 14 4H10C9.44772 4 9 4.44772 9 5V6H15V5ZM6.43066 19.0361C6.45011 19.5739 6.89151 19.9999 7.42969 20H16.5703C17.1085 19.9999 17.5499 19.5739 17.5693 19.0361L17.9639 8H6.03613L6.43066 19.0361ZM9.46387 10.001C10.0156 9.98127 10.4791 10.4122 10.499 10.9639L10.7139 16.9639C10.7336 17.5158 10.3019 17.9793 9.75 17.999C9.19821 18.0187 8.73479 17.5879 8.71484 17.0361L8.50098 11.0361C8.48127 10.4844 8.91215 10.0209 9.46387 10.001ZM14.5352 10.001C15.0871 10.0207 15.5187 10.4842 15.499 11.0361L15.2852 17.0361C15.2652 17.5878 14.8018 18.0187 14.25 17.999C13.6981 17.9793 13.2664 17.5158 13.2861 16.9639L13.501 10.9639C13.5209 10.4123 13.9836 9.98152 14.5352 10.001ZM17 6H21C21.5523 6 22 6.44772 22 7C22 7.55228 21.5523 8 21 8H19.9648L19.5684 19.1074C19.5105 20.7214 18.1853 21.9999 16.5703 22H7.42969C5.81469 21.9999 4.48946 20.7214 4.43164 19.1074L4.03516 8H3C2.44772 8 2 7.55228 2 7C2 6.44772 2.44772 6 3 6H7V5C7 3.34315 8.34315 2 10 2H14C15.6569 2 17 3.34315 17 5V6Z" fill="black"/>
</svg>
