<svg width="24" height="24" viewBox="0 0 24 24" fill="none" xmlns="http://www.w3.org/2000/svg">
<path d="M3 18V14C3 13.4477 3.44772 13 4 13C4.55228 13 5 13.4477 5 14V18C5 18.34 5.10982 18.8725 5.41113 19.291C5.67574 19.6585 6.12594 20 7 20C7.87406 20 8.32426 19.6585 8.58887 19.291C8.89018 18.8725 9 18.34 9 18V14C9 13.4477 9.44772 13 10 13C10.5523 13 11 13.4477 11 14V18C11 18.6599 10.8104 19.6276 10.2119 20.459C9.57652 21.3415 8.52592 22 7 22C5.47408 22 4.42348 21.3415 3.78809 20.459C3.18962 19.6276 3 18.6599 3 18ZM19.2412 13.3496C19.6006 12.9303 20.2311 12.8818 20.6504 13.2412C21.0697 13.6006 21.1182 14.2311 20.7588 14.6504L18.3154 17.5L20.7588 20.3496C21.1182 20.7689 21.0697 21.3994 20.6504 21.7588C20.2311 22.1182 19.6006 22.0697 19.2412 21.6504L17 19.0352L14.7588 21.6504C14.3994 22.0697 13.7689 22.1182 13.3496 21.7588C12.9303 21.3994 12.8818 20.7689 13.2412 20.3496L15.6836 17.5L13.2412 14.6504C12.8818 14.2311 12.9303 13.6006 13.3496 13.2412C13.7689 12.8818 14.3994 12.9303 14.7588 13.3496L17 15.9639L19.2412 13.3496ZM3 7V3C3 2.44772 3.44772 2 4 2C4.55228 2 5 2.44772 5 3V7C5 7.33998 5.10982 7.87252 5.41113 8.29102C5.67574 8.65851 6.12594 9 7 9C7.87406 9 8.32426 8.65851 8.58887 8.29102C8.89018 7.87252 9 7.33998 9 7V3C9 2.44772 9.44772 2 10 2C10.5523 2 11 2.44772 11 3V7C11 7.65992 10.8104 8.62757 10.2119 9.45899C9.57652 10.3415 8.52592 11 7 11C5.47408 11 4.42348 10.3415 3.78809 9.45899C3.18962 8.62757 3 7.65992 3 7ZM13 10V3C13 2.44772 13.4477 2 14 2C14.5523 2 15 2.44772 15 3V10C15 10.5523 14.5523 11 14 11C13.4477 11 13 10.5523 13 10ZM19.0381 2.72559C19.1898 2.19468 19.7435 1.88662 20.2744 2.03809C20.8053 2.18978 21.1134 2.7435 20.9619 3.27442L18.9619 10.2744C18.8102 10.8053 18.2565 11.1134 17.7256 10.9619C17.1947 10.8102 16.8866 10.2565 17.0381 9.72559L19.0381 2.72559Z" fill="black"/>
</svg>
