<svg width="24" height="24" viewBox="0 0 24 24" fill="none" xmlns="http://www.w3.org/2000/svg">
<path d="M20 5C20 4.44772 19.5523 4 19 4H5C4.44772 4 4 4.44772 4 5V19C4 19.5523 4.44772 20 5 20H19C19.5523 20 20 19.5523 20 19V5ZM14.4746 8.11133C14.8651 7.7208 15.4991 7.7208 15.8896 8.11133C16.2797 8.50185 16.2799 9.135 15.8896 9.52539L13.4141 12L15.8896 14.4746C16.2799 14.865 16.2797 15.4981 15.8896 15.8887C15.4991 16.2792 14.8651 16.2792 14.4746 15.8887L12 13.4141L9.52539 15.8887C9.13487 16.2792 8.50185 16.2792 8.11133 15.8887C7.72085 15.4981 7.72082 14.8651 8.11133 14.4746L10.5859 12L8.11133 9.52539C7.72082 9.13488 7.72085 8.50186 8.11133 8.11133C8.50185 7.7208 9.13487 7.7208 9.52539 8.11133L12 10.585L14.4746 8.11133ZM22 19C22 20.6569 20.6569 22 19 22H5C3.34315 22 2 20.6569 2 19V5C2 3.34315 3.34315 2 5 2H19C20.6569 2 22 3.34315 22 5V19Z" fill="black"/>
</svg>
