<svg width="24" height="24" viewBox="0 0 24 24" fill="none" xmlns="http://www.w3.org/2000/svg">
<path d="M18.293 4.29295C18.6835 3.90243 19.3165 3.90243 19.707 4.29295C20.0975 4.68348 20.0975 5.31649 19.707 5.70702L13.414 12L19.707 18.293C20.0975 18.6835 20.0975 19.3165 19.707 19.707C19.3165 20.0975 18.6835 20.0975 18.293 19.707L12 13.414L5.70702 19.707C5.31649 20.0975 4.68348 20.0975 4.29295 19.707C3.90243 19.3165 3.90243 18.6835 4.29295 18.293L10.5859 12L4.29295 5.70702C3.90243 5.31649 3.90243 4.68348 4.29295 4.29295C4.68348 3.90243 5.31649 3.90243 5.70702 4.29295L12 10.5859L18.293 4.29295Z" fill="black"/>
</svg>
