<svg width="24" height="24" viewBox="0 0 24 24" fill="none" xmlns="http://www.w3.org/2000/svg">
<path d="M9.5 3C9.77614 3 10 3.22386 10 3.5V16.5C10 16.7761 9.77614 17 9.5 17H6.5C6.22386 17 6 16.7761 6 16.5V3.5C6 3.22386 6.22386 3 6.5 3H9.5Z" fill="#8A38F5" fill-opacity="0.25"/>
<path d="M17.5 11C17.7761 11 18 11.2239 18 11.5V16.5C18 16.7761 17.7761 17 17.5 17H14.5C14.2239 17 14 16.7761 14 16.5V11.5C14 11.2239 14.2239 11 14.5 11H17.5Z" fill="#8A38F5" fill-opacity="0.25"/>
<path d="M21 21.75H3C2.58579 21.75 2.25 21.4142 2.25 21C2.25 20.5858 2.58579 20.25 3 20.25H21C21.4142 20.25 21.75 20.5858 21.75 21C21.75 21.4142 21.4142 21.75 21 21.75ZM17.25 16.25V11.75H14.75V16.25H17.25ZM9.25 16.25V3.75H6.75V16.25H9.25ZM17.5 10.25C18.1904 10.25 18.75 10.8096 18.75 11.5V16.5C18.75 17.1904 18.1904 17.75 17.5 17.75H14.5C13.8096 17.75 13.25 17.1904 13.25 16.5V11.5C13.25 10.8096 13.8096 10.25 14.5 10.25H17.5ZM9.5 2.25C10.1904 2.25 10.75 2.80964 10.75 3.5V16.5C10.75 17.1904 10.1904 17.75 9.5 17.75H6.5C5.80964 17.75 5.25 17.1904 5.25 16.5V3.5C5.25 2.80964 5.80964 2.25 6.5 2.25H9.5Z" fill="black"/>
</svg>
