<svg width="24" height="24" viewBox="0 0 24 24" fill="none" xmlns="http://www.w3.org/2000/svg">
<path d="M3 9.5C3 9.77614 3.22386 10 3.5 10H16.5C16.7761 10 17 9.77614 17 9.5V6.5C17 6.22386 16.7761 6 16.5 6L3.5 6C3.22386 6 3 6.22386 3 6.5V9.5Z" fill="#8A38F5" fill-opacity="0.25"/>
<path d="M11 17.5C11 17.7761 11.2239 18 11.5 18H16.5C16.7761 18 17 17.7761 17 17.5V14.5C17 14.2239 16.7761 14 16.5 14H11.5C11.2239 14 11 14.2239 11 14.5V17.5Z" fill="#8A38F5" fill-opacity="0.25"/>
<path d="M21.75 21V3C21.75 2.58579 21.4142 2.25 21 2.25C20.5858 2.25 20.25 2.58579 20.25 3V21C20.25 21.4142 20.5858 21.75 21 21.75C21.4142 21.75 21.75 21.4142 21.75 21ZM16.25 17.25H11.75V14.75H16.25V17.25ZM16.25 9.25H3.75V6.75H16.25V9.25ZM10.25 17.5C10.25 18.1904 10.8096 18.75 11.5 18.75H16.5C17.1904 18.75 17.75 18.1904 17.75 17.5V14.5C17.75 13.8096 17.1904 13.25 16.5 13.25H11.5C10.8096 13.25 10.25 13.8096 10.25 14.5V17.5ZM2.25 9.5C2.25 10.1904 2.80964 10.75 3.5 10.75H16.5C17.1904 10.75 17.75 10.1904 17.75 9.5V6.5C17.75 5.80964 17.1904 5.25 16.5 5.25H3.5C2.80964 5.25 2.25 5.80964 2.25 6.5V9.5Z" fill="black"/>
</svg>
