<svg width="24" height="24" viewBox="0 0 24 24" fill="none" xmlns="http://www.w3.org/2000/svg">
<path d="M9.5 21C9.77614 21 10 20.7761 10 20.5V7.5C10 7.22386 9.77614 7 9.5 7H6.5C6.22386 7 6 7.22386 6 7.5V20.5C6 20.7761 6.22386 21 6.5 21H9.5Z" fill="#8A38F5" fill-opacity="0.25"/>
<path d="M17.5 13C17.7761 13 18 12.7761 18 12.5V7.5C18 7.22386 17.7761 7 17.5 7H14.5C14.2239 7 14 7.22386 14 7.5V12.5C14 12.7761 14.2239 13 14.5 13H17.5Z" fill="#8A38F5" fill-opacity="0.25"/>
<path d="M21 2.25H3C2.58579 2.25 2.25 2.58579 2.25 3C2.25 3.41421 2.58579 3.75 3 3.75H21C21.4142 3.75 21.75 3.41421 21.75 3C21.75 2.58579 21.4142 2.25 21 2.25ZM17.25 7.75V12.25H14.75V7.75H17.25ZM9.25 7.75V20.25H6.75V7.75H9.25ZM17.5 13.75C18.1904 13.75 18.75 13.1904 18.75 12.5V7.5C18.75 6.80964 18.1904 6.25 17.5 6.25H14.5C13.8096 6.25 13.25 6.80964 13.25 7.5V12.5C13.25 13.1904 13.8096 13.75 14.5 13.75H17.5ZM9.5 21.75C10.1904 21.75 10.75 21.1904 10.75 20.5V7.5C10.75 6.80964 10.1904 6.25 9.5 6.25H6.5C5.80964 6.25 5.25 6.80964 5.25 7.5V20.5C5.25 21.1904 5.80964 21.75 6.5 21.75H9.5Z" fill="black"/>
</svg>
