<svg width="24" height="24" viewBox="0 0 24 24" fill="none" xmlns="http://www.w3.org/2000/svg">
<path d="M21 9.5C21 9.77614 20.7761 10 20.5 10H7.5C7.22386 10 7 9.77614 7 9.5V6.5C7 6.22386 7.22386 6 7.5 6L20.5 6C20.7761 6 21 6.22386 21 6.5V9.5Z" fill="#8A38F5" fill-opacity="0.25"/>
<path d="M13 17.5C13 17.7761 12.7761 18 12.5 18H7.5C7.22386 18 7 17.7761 7 17.5V14.5C7 14.2239 7.22386 14 7.5 14H12.5C12.7761 14 13 14.2239 13 14.5V17.5Z" fill="#8A38F5" fill-opacity="0.25"/>
<path d="M2.25 21V3C2.25 2.58579 2.58579 2.25 3 2.25C3.41421 2.25 3.75 2.58579 3.75 3V21C3.75 21.4142 3.41421 21.75 3 21.75C2.58579 21.75 2.25 21.4142 2.25 21ZM7.75 17.25H12.25V14.75H7.75V17.25ZM7.75 9.25H20.25V6.75H7.75V9.25ZM13.75 17.5C13.75 18.1904 13.1904 18.75 12.5 18.75H7.5C6.80964 18.75 6.25 18.1904 6.25 17.5V14.5C6.25 13.8096 6.80964 13.25 7.5 13.25H12.5C13.1904 13.25 13.75 13.8096 13.75 14.5V17.5ZM21.75 9.5C21.75 10.1904 21.1904 10.75 20.5 10.75H7.5C6.80964 10.75 6.25 10.1904 6.25 9.5V6.5C6.25 5.80964 6.80964 5.25 7.5 5.25H20.5C21.1904 5.25 21.75 5.80964 21.75 6.5V9.5Z" fill="black"/>
</svg>
