<svg width="24" height="24" viewBox="0 0 24 24" fill="none" xmlns="http://www.w3.org/2000/svg">
<path d="M3 3H19C20.1046 3 21 3.89543 21 5V21H3V3Z" fill="#8A38F5" fill-opacity="0.25"/>
<path d="M2.25 19V3C2.25 2.58579 2.58579 2.25 3 2.25C3.41421 2.25 3.75 2.58579 3.75 3V19C3.75 19.6904 4.30964 20.25 5 20.25H21C21.4142 20.25 21.75 20.5858 21.75 21C21.75 21.4142 21.4142 21.75 21 21.75H5C3.48122 21.75 2.25 20.5188 2.25 19ZM9.18262 5.17188C9.57183 5.03021 10.0019 5.23093 10.1436 5.62012C10.2852 6.00935 10.0845 6.43939 9.69531 6.58105L8.10742 7.1582C12.1484 8.64971 15.3557 11.8592 16.8447 15.9014L17.4268 14.3037C17.5685 13.9146 17.9995 13.7138 18.3887 13.8555C18.7778 13.9972 18.9786 14.4282 18.8369 14.8174L17.7988 17.6699C17.5627 18.3185 16.8449 18.653 16.1963 18.417L13.3438 17.3789C12.9545 17.2372 12.7538 16.8062 12.8955 16.417C13.0372 16.028 13.4674 15.8274 13.8564 15.9688L15.4863 16.5615C14.1541 12.8139 11.1828 9.8428 7.43457 8.51172L8.03125 10.1514C8.1729 10.5406 7.97215 10.9716 7.58301 11.1133C7.19387 11.2549 6.76287 11.0541 6.62109 10.665L5.58301 7.8125C5.34691 7.16384 5.68146 6.44614 6.33008 6.20996L9.18262 5.17188Z" fill="black"/>
</svg>
