<svg width="24" height="24" viewBox="0 0 24 24" fill="none" xmlns="http://www.w3.org/2000/svg">
<path d="M3 5C3 3.89543 3.89543 3 5 3H19C20.1046 3 21 3.89543 21 5V19C21 20.1046 20.1046 21 19 21H5C3.89543 21 3 20.1046 3 19V5Z" fill="#8A38F5" fill-opacity="0.25"/>
<path d="M20.25 5C20.25 4.30964 19.6904 3.75 19 3.75H5C4.30964 3.75 3.75 4.30964 3.75 5V19C3.75 19.6904 4.30964 20.25 5 20.25H19C19.6904 20.25 20.25 19.6904 20.25 19V5ZM7.00098 6.25C7.41519 6.25 7.75098 6.58579 7.75098 7C7.75098 7.41421 7.41519 7.75 7.00098 7.75C6.58676 7.75 6.25 7.41421 6.25 7C6.25 6.58579 6.58676 6.25 7.00098 6.25ZM10.001 6.25C10.4152 6.25 10.751 6.58579 10.751 7C10.751 7.41421 10.4152 7.75 10.001 7.75C9.58676 7.75 9.25 7.41421 9.25 7C9.25 6.58579 9.58676 6.25 10.001 6.25ZM17 6.25C17.4142 6.25 17.75 6.58579 17.75 7C17.75 7.41421 17.4142 7.75 17 7.75H13C12.5858 7.75 12.25 7.41421 12.25 7C12.25 6.58579 12.5858 6.25 13 6.25H17ZM21.75 19C21.75 20.5188 20.5188 21.75 19 21.75H5C3.48122 21.75 2.25 20.5188 2.25 19V5C2.25 3.48122 3.48122 2.25 5 2.25H19C20.5188 2.25 21.75 3.48122 21.75 5V19Z" fill="black"/>
</svg>
