<svg width="24" height="24" viewBox="0 0 24 24" fill="none" xmlns="http://www.w3.org/2000/svg">
<path d="M4 7H20V19C20 20.1046 19.1046 21 18 21H6C4.89543 21 4 20.1046 4 19V7Z" fill="#8A38F5" fill-opacity="0.25"/>
<path d="M19.25 7.75H4.75V19C4.75 19.6904 5.30964 20.25 6 20.25H18C18.6904 20.25 19.25 19.6904 19.25 19V7.75ZM14 10.25C14.4142 10.25 14.75 10.5858 14.75 11C14.75 11.4142 14.4142 11.75 14 11.75H10C9.58579 11.75 9.25 11.4142 9.25 11C9.25 10.5858 9.58579 10.25 10 10.25H14ZM20.25 4C20.25 3.86193 20.1381 3.75 20 3.75H4C3.86193 3.75 3.75 3.86193 3.75 4V6C3.75 6.13807 3.86193 6.25 4 6.25H20C20.1381 6.25 20.25 6.13807 20.25 6V4ZM21.75 6C21.75 6.69772 21.3407 7.29804 20.75 7.5791V19C20.75 20.5188 19.5188 21.75 18 21.75H6C4.48122 21.75 3.25 20.5188 3.25 19V7.5791C2.65928 7.29804 2.25 6.69772 2.25 6V4C2.25 3.0335 3.0335 2.25 4 2.25H20C20.9665 2.25 21.75 3.0335 21.75 4V6Z" fill="black"/>
</svg>
