<svg width="24" height="24" viewBox="0 0 24 24" fill="none" xmlns="http://www.w3.org/2000/svg">
<path d="M4 12L8.5 16.5H18C19.1046 16.5 20 15.6046 20 14.5V9.5C20 8.39543 19.1046 7.5 18 7.5H8.5L4 12Z" fill="#8A38F5" fill-opacity="0.25"/>
<path d="M9.03026 6.96973C8.73737 6.67684 8.26261 6.67684 7.96972 6.96973L3.82323 11.1162C3.33513 11.6044 3.33512 12.3956 3.82323 12.8838L7.96972 17.0303C8.26261 17.3232 8.73737 17.3232 9.03026 17.0303C9.32316 16.7374 9.32316 16.2626 9.03026 15.9697L5.81054 12.75H20C20.4142 12.75 20.75 12.4142 20.75 12C20.75 11.5858 20.4142 11.25 20 11.25H5.81054L9.03026 8.03028C9.32316 7.73738 9.32316 7.26262 9.03026 6.96973Z" fill="black"/>
</svg>
