<svg width="24" height="24" viewBox="0 0 24 24" fill="none" xmlns="http://www.w3.org/2000/svg">
<path d="M3 5C3 3.89543 3.89543 3 5 3H19C20.1046 3 21 3.89543 21 5V19C21 20.1046 20.1046 21 19 21H5C3.89543 21 3 20.1046 3 19V5Z" fill="#8A38F5" fill-opacity="0.25"/>
<path d="M20.25 19C20.25 19.6904 19.6904 20.25 19 20.25H5C4.30964 20.25 3.75 19.6904 3.75 19V5C3.75 4.30964 4.30964 3.75 5 3.75H19C19.6904 3.75 20.25 4.30964 20.25 5V19ZM15.4697 16.5303C15.7626 16.8232 16.2374 16.8232 16.5303 16.5303C16.8232 16.2374 16.8232 15.7626 16.5303 15.4697L9.81055 8.75H14C14.4142 8.75 14.75 8.41421 14.75 8C14.75 7.58579 14.4142 7.25 14 7.25H8.5C7.80964 7.25 7.25 7.80964 7.25 8.5V14C7.25 14.4142 7.58579 14.75 8 14.75C8.41421 14.75 8.75 14.4142 8.75 14V9.81055L15.4697 16.5303ZM21.75 5C21.75 3.48122 20.5188 2.25 19 2.25H5C3.48122 2.25 2.25 3.48122 2.25 5V19C2.25 20.5188 3.48122 21.75 5 21.75H19C20.5188 21.75 21.75 20.5188 21.75 19V5Z" fill="black"/>
</svg>
