<svg width="24" height="24" viewBox="0 0 24 24" fill="none" xmlns="http://www.w3.org/2000/svg">
<path d="M21 12C21 16.9706 16.9706 21 12 21C7.02944 21 3 16.9706 3 12C3 7.02944 7.02944 3 12 3C16.9706 3 21 7.02944 21 12Z" fill="#8A38F5" fill-opacity="0.25"/>
<path d="M6.16637 6.16637C9.38819 2.94454 14.6118 2.94454 17.8336 6.16637C21.0555 9.38819 21.0555 14.6118 17.8336 17.8336C14.6118 21.0555 9.38819 21.0555 6.16637 17.8336C2.94454 14.6118 2.94454 9.38819 6.16637 6.16637ZM14.8712 8.46447C14.8712 8.05025 14.5355 7.71455 14.1213 7.71455H8.96441C8.2741 7.71458 7.71457 8.2741 7.71455 8.96441V14.1213C7.71455 14.5355 8.05025 14.8712 8.46447 14.8712C8.87868 14.8712 9.21439 14.5355 9.21439 14.1213V10.275L15.0052 16.0659C15.2981 16.3588 15.773 16.3588 16.0659 16.0659C16.3588 15.773 16.3588 15.2981 16.0659 15.0052L10.275 9.21439H14.1213C14.5355 9.21439 14.8712 8.87868 14.8712 8.46447ZM5.10571 5.10571C1.2981 8.91332 1.2981 15.0867 5.10571 18.8943C8.91332 22.7019 15.0867 22.7019 18.8943 18.8943C22.7019 15.0867 22.7019 8.91332 18.8943 5.10571C15.0867 1.2981 8.91332 1.2981 5.10571 5.10571Z" fill="black"/>
</svg>
