<svg width="24" height="24" viewBox="0 0 24 24" fill="none" xmlns="http://www.w3.org/2000/svg">
<path d="M17.6569 6.34314H11.2929L4.57538 13.0607C3.79433 13.8417 3.79433 15.108 4.57538 15.8891L8.11091 19.4246C8.89196 20.2057 10.1583 20.2057 10.9393 19.4246L17.6569 12.7071V6.34314Z" fill="#8A38F5" fill-opacity="0.25"/>
<path d="M17.6568 13.457C18.0711 13.457 18.4068 13.1213 18.4068 12.7071V6.84307C18.4067 6.15276 17.8472 5.59323 17.1569 5.5932L11.2929 5.5932C10.8787 5.5932 10.543 5.92891 10.543 6.34312C10.543 6.75733 10.8787 7.09304 11.2929 7.09304L15.8463 7.09304L5.81281 17.1265C5.51992 17.4194 5.51992 17.8943 5.81281 18.1872C6.1057 18.4801 6.58058 18.4801 6.87347 18.1872L16.9069 8.1537V12.7071C16.9069 13.1213 17.2426 13.457 17.6568 13.457Z" fill="black"/>
</svg>
