<svg width="24" height="24" viewBox="0 0 24 24" fill="none" xmlns="http://www.w3.org/2000/svg">
<path d="M6.34314 17.6568H12.7071L19.4246 10.9393C20.2057 10.1583 20.2057 8.89193 19.4246 8.11088L15.8891 4.57535C15.108 3.7943 13.8417 3.7943 13.0607 4.57535L6.34314 11.2929V17.6568Z" fill="#8A38F5" fill-opacity="0.25"/>
<path d="M6.34315 10.543C5.92894 10.543 5.59323 10.8787 5.59323 11.2929L5.59323 17.1569C5.59326 17.8472 6.15278 18.4067 6.8431 18.4068H12.7071C13.1213 18.4068 13.457 18.0711 13.457 17.6568C13.457 17.2426 13.1213 16.9069 12.7071 16.9069H8.15373L18.1872 6.87347C18.4801 6.58058 18.4801 6.1057 18.1872 5.81281C17.8943 5.51992 17.4194 5.51992 17.1265 5.81281L7.09307 15.8463V11.2929C7.09307 10.8787 6.75736 10.543 6.34315 10.543Z" fill="black"/>
</svg>
