<svg width="24" height="24" viewBox="0 0 24 24" fill="none" xmlns="http://www.w3.org/2000/svg">
<path d="M12 4L7.5 8.5V18C7.5 19.1046 8.39543 20 9.5 20H14.5C15.6046 20 16.5 19.1046 16.5 18V8.5L12 4Z" fill="#8A38F5" fill-opacity="0.25"/>
<path d="M17.0303 9.03026C17.3232 8.73737 17.3232 8.26261 17.0303 7.96972L12.8838 3.82323C12.3956 3.33513 11.6044 3.33512 11.1162 3.82323L6.96973 7.96972C6.67684 8.26261 6.67684 8.73737 6.96973 9.03026C7.26262 9.32316 7.73739 9.32316 8.03028 9.03026L11.25 5.81054V20C11.25 20.4142 11.5858 20.75 12 20.75C12.4142 20.75 12.75 20.4142 12.75 20V5.81054L15.9697 9.03026C16.2626 9.32316 16.7374 9.32316 17.0303 9.03026Z" fill="black"/>
</svg>
