<svg width="24" height="24" viewBox="0 0 24 24" fill="none" xmlns="http://www.w3.org/2000/svg">
<path d="M21 12C21 16.9706 16.9706 21 12 21C7.02944 21 3 16.9706 3 12C3 7.02944 7.02944 3 12 3C16.9706 3 21 7.02944 21 12Z" fill="#8A38F5" fill-opacity="0.25"/>
<path d="M12 20.25C16.5563 20.25 20.25 16.5563 20.25 12C20.25 7.44365 16.5563 3.75 12 3.75C7.44365 3.75 3.75 7.44365 3.75 12C3.75 16.5563 7.44365 20.25 12 20.25ZM16.5303 12.4697C16.8232 12.7626 16.8232 13.2374 16.5303 13.5303L12.8838 17.1768C12.3956 17.6649 11.6044 17.6649 11.1162 17.1768L7.46973 13.5303C7.17683 13.2374 7.17683 12.7626 7.46973 12.4697C7.76262 12.1768 8.23738 12.1768 8.53027 12.4697L11.25 15.1895V7C11.25 6.58579 11.5858 6.25 12 6.25C12.4142 6.25 12.75 6.58579 12.75 7V15.1895L15.4697 12.4697C15.7626 12.1768 16.2374 12.1768 16.5303 12.4697ZM12 21.75C6.61522 21.75 2.25 17.3848 2.25 12C2.25 6.61522 6.61522 2.25 12 2.25C17.3848 2.25 21.75 6.61522 21.75 12C21.75 17.3848 17.3848 21.75 12 21.75Z" fill="black"/>
</svg>
