<svg width="24" height="24" viewBox="0 0 24 24" fill="none" xmlns="http://www.w3.org/2000/svg">
<path d="M6.34314 6.34314V12.7071L13.0607 19.4246C13.8417 20.2057 15.108 20.2057 15.8891 19.4246L19.4246 15.8891C20.2057 15.108 20.2057 13.8417 19.4246 13.0607L12.7071 6.34314H6.34314Z" fill="#8A38F5" fill-opacity="0.25"/>
<path d="M13.457 6.34312C13.457 5.92891 13.1213 5.5932 12.7071 5.5932L6.84307 5.5932C6.15276 5.59323 5.59323 6.15275 5.5932 6.84307L5.5932 12.7071C5.5932 13.1213 5.92891 13.457 6.34312 13.457C6.75733 13.457 7.09304 13.1213 7.09304 12.7071L7.09304 8.1537L17.1265 18.1872C17.4194 18.4801 17.8943 18.4801 18.1872 18.1872C18.4801 17.8943 18.4801 17.4194 18.1872 17.1265L8.1537 7.09304H12.7071C13.1213 7.09304 13.457 6.75733 13.457 6.34312Z" fill="black"/>
</svg>
