<svg width="24" height="24" viewBox="0 0 24 24" fill="none" xmlns="http://www.w3.org/2000/svg">
<path d="M21 12C21 16.9706 16.9706 21 12 21C7.02944 21 3 16.9706 3 12C3 7.02944 7.02944 3 12 3C16.9706 3 21 7.02944 21 12Z" fill="#8A38F5" fill-opacity="0.25"/>
<path d="M3.47186 1.39343C3.47186 0.979223 3.80765 0.643439 4.22186 0.643433C4.63607 0.643433 4.97186 0.979219 4.97186 1.39343V5.245C5.0164 5.19868 5.06001 5.15098 5.10564 5.10535C8.91327 1.29788 15.0871 1.29779 18.8947 5.10535C22.7023 8.91291 22.7022 15.0868 18.8947 18.8944C15.0871 22.702 8.91326 22.702 5.10564 18.8944C3.2557 17.0445 2.30423 14.6343 2.25213 12.2108C2.24323 11.7967 2.57239 11.4531 2.9865 11.4442C3.4004 11.4356 3.74324 11.7646 3.75213 12.1786C3.79626 14.231 4.60045 16.2681 6.16619 17.8339C9.3879 21.0556 14.6113 21.0553 17.8332 17.8339C21.055 14.612 21.055 9.3887 17.8332 6.16687C14.6114 2.94506 9.38801 2.94505 6.16619 6.16687C6.12228 6.21079 6.07999 6.25603 6.03729 6.30066H9.87908C10.2931 6.30085 10.6291 6.63657 10.6291 7.05066C10.6289 7.46458 10.293 7.80046 9.87908 7.80066H4.72186C4.03163 7.80065 3.47206 7.24084 3.47186 6.55066V1.39343Z" fill="black"/>
</svg>
