<svg width="24" height="24" viewBox="0 0 24 24" fill="none" xmlns="http://www.w3.org/2000/svg">
<path d="M17.6568 17.6568V11.2929L10.9393 4.57535C10.1583 3.7943 8.89193 3.7943 8.11088 4.57535L4.57535 8.11088C3.7943 8.89193 3.7943 10.1583 4.57535 10.9393L11.2929 17.6568H17.6568Z" fill="#8A38F5" fill-opacity="0.25"/>
<path d="M10.543 17.6568C10.543 18.0711 10.8787 18.4068 11.2929 18.4068H17.1569C17.8472 18.4067 18.4067 17.8472 18.4068 17.1569V11.2929C18.4068 10.8787 18.0711 10.543 17.6568 10.543C17.2426 10.543 16.9069 10.8787 16.9069 11.2929V15.8463L6.87347 5.81281C6.58058 5.51992 6.1057 5.51992 5.81281 5.81281C5.51992 6.1057 5.51992 6.58058 5.81281 6.87347L15.8463 16.9069H11.2929C10.8787 16.9069 10.543 17.2426 10.543 17.6568Z" fill="black"/>
</svg>
