<svg width="24" height="24" viewBox="0 0 24 24" fill="none" xmlns="http://www.w3.org/2000/svg">
<path d="M21 12C21 16.9706 16.9706 21 12 21C7.02944 21 3 16.9706 3 12C3 7.02944 7.02944 3 12 3C16.9706 3 21 7.02944 21 12Z" fill="#8A38F5" fill-opacity="0.25"/>
<path d="M17.8336 6.16637C14.6118 2.94454 9.3882 2.94454 6.16637 6.16637C2.94454 9.38819 2.94454 14.6118 6.16637 17.8336C9.3882 21.0555 14.6118 21.0555 17.8336 17.8336C21.0555 14.6118 21.0555 9.38819 17.8336 6.16637ZM9.12876 8.46447C9.12876 8.05025 9.46447 7.71455 9.87868 7.71455H15.0356C15.7259 7.71458 16.2854 8.2741 16.2855 8.96441V14.1213C16.2855 14.5355 15.9497 14.8712 15.5355 14.8712C15.1213 14.8712 14.7856 14.5355 14.7856 14.1213V10.275L8.9948 16.0659C8.7019 16.3588 8.22703 16.3588 7.93414 16.0659C7.64124 15.773 7.64124 15.2981 7.93414 15.0052L13.725 9.21439H9.87868C9.46447 9.21439 9.12876 8.87868 9.12876 8.46447ZM18.8943 5.10571C22.7019 8.91332 22.7019 15.0867 18.8943 18.8943C15.0867 22.7019 8.91332 22.7019 5.10571 18.8943C1.2981 15.0867 1.2981 8.91332 5.10571 5.10571C8.91332 1.2981 15.0867 1.2981 18.8943 5.10571Z" fill="black"/>
</svg>
