<svg width="24" height="24" viewBox="0 0 24 24" fill="none" xmlns="http://www.w3.org/2000/svg">
<path d="M21 12C21 16.9706 16.9706 21 12 21C7.02944 21 3 16.9706 3 12C3 7.02944 7.02944 3 12 3C16.9706 3 21 7.02944 21 12Z" fill="#8A38F5" fill-opacity="0.25"/>
<path d="M19.0284 1.39343C19.0284 0.979219 19.3642 0.643433 19.7784 0.643433C20.1925 0.643512 20.5284 0.979268 20.5284 1.39343V6.55066C20.5282 7.24079 19.9686 7.80058 19.2784 7.80066H14.1212C13.7072 7.80054 13.3714 7.46463 13.3712 7.05066C13.3712 6.63652 13.7071 6.30078 14.1212 6.30066H17.963C17.9203 6.25603 17.878 6.21078 17.8341 6.16687C14.6122 2.94504 9.38792 2.94504 6.16609 6.16687C2.94471 9.3887 2.94448 14.6122 6.16609 17.8339C9.38792 21.0557 14.6122 21.0557 17.8341 17.8339C19.3998 16.2681 20.204 14.231 20.2481 12.1786C20.257 11.7646 20.5998 11.4355 21.0138 11.4442C21.4279 11.4531 21.757 11.7967 21.7481 12.2108C21.696 14.6343 20.7445 17.0445 18.8946 18.8944C15.087 22.702 8.91316 22.702 5.10555 18.8944C1.29801 15.0868 1.29796 8.91293 5.10555 5.10535C8.91314 1.29784 15.087 1.29784 18.8946 5.10535C18.9403 5.151 18.9838 5.19866 19.0284 5.245V1.39343Z" fill="black"/>
</svg>
