<svg width="24" height="24" viewBox="0 0 24 24" fill="none" xmlns="http://www.w3.org/2000/svg">
<path d="M12 5.76098C12 5.29823 12.2725 4.87888 12.6954 4.69094C15.1176 3.61441 17.8824 3.61441 20.3046 4.69094L20.6232 4.83253C20.8523 4.93437 21 5.1616 21 5.41235V20.124C21 20.536 20.576 20.8115 20.1995 20.6442L19.6408 20.3959C17.6412 19.5072 15.3588 19.5072 13.3592 20.3959C12.72 20.68 12 20.2121 12 19.5126V5.76098Z" fill="#8A38F5" fill-opacity="0.25"/>
<path d="M11.1953 5.46314C8.84271 4.41757 6.15729 4.41757 3.80469 5.46314L3.75 5.48658V19.8538C6.15283 18.865 8.84717 18.865 11.25 19.8538V5.48365C11.232 5.4763 11.2131 5.47105 11.1953 5.46314ZM20.1953 5.46314C17.8427 4.41757 15.1573 4.41757 12.8047 5.46314C12.7869 5.47105 12.768 5.4763 12.75 5.48365V19.8538C15.1528 18.865 17.8472 18.865 20.25 19.8538V5.48658L20.1953 5.46314ZM14.8564 12.3372C15.9417 12.1261 17.0583 12.1261 18.1436 12.3372C18.55 12.4164 18.8154 12.8106 18.7363 13.2171C18.6572 13.6236 18.263 13.8889 17.8564 13.8098C16.9605 13.6357 16.0395 13.6357 15.1436 13.8098C14.737 13.8889 14.3428 13.6236 14.2637 13.2171C14.1846 12.8106 14.45 12.4164 14.8564 12.3372ZM14.8564 9.33717C15.9417 9.12614 17.0583 9.12614 18.1436 9.33717C18.55 9.41638 18.8154 9.81056 18.7363 10.2171C18.6572 10.6236 18.263 10.8889 17.8564 10.8098C16.9605 10.6357 16.0395 10.6357 15.1436 10.8098C14.737 10.8889 14.3428 10.6236 14.2637 10.2171C14.1846 9.81056 14.45 9.41638 14.8564 9.33717ZM14.8564 6.33717C15.9417 6.12614 17.0583 6.12614 18.1436 6.33717C18.55 6.41638 18.8154 6.81056 18.7363 7.21705C18.6572 7.62356 18.263 7.88888 17.8564 7.80982C16.9605 7.63567 16.0395 7.63567 15.1436 7.80982C14.737 7.88888 14.3428 7.62356 14.2637 7.21705C14.1846 6.81056 14.45 6.41638 14.8564 6.33717ZM21.75 20.1243C21.7498 21.0789 20.7669 21.7171 19.8945 21.3294C17.7334 20.369 15.2666 20.369 13.1055 21.3294L12.8047 21.4631C12.2924 21.6908 11.7076 21.6908 11.1953 21.4631L10.8945 21.3294C8.73343 20.369 6.26657 20.369 4.10547 21.3294C3.23311 21.7171 2.25018 21.0789 2.25 20.1243V5.41236C2.25001 4.86523 2.57229 4.36895 3.07227 4.14674L3.19531 4.09205C5.93576 2.8741 9.06424 2.8741 11.8047 4.09205C11.9291 4.14734 12.0709 4.14734 12.1953 4.09205C14.9358 2.8741 18.0642 2.8741 20.8047 4.09205L20.9277 4.14674C21.4277 4.36895 21.75 4.86523 21.75 5.41236V20.1243Z" fill="black"/>
</svg>
