<svg width="24" height="24" viewBox="0 0 24 24" fill="none" xmlns="http://www.w3.org/2000/svg">
<path d="M21 12C21 16.9706 16.9706 21 12 21C7.02944 21 3 16.9706 3 12C3 7.02944 7.02944 3 12 3C16.9706 3 21 7.02944 21 12Z" fill="#8A38F5" fill-opacity="0.25"/>
<path d="M12 3.75C7.44365 3.75 3.75 7.44365 3.75 12C3.75 16.5563 7.44365 20.25 12 20.25C16.5563 20.25 20.25 16.5563 20.25 12C20.25 7.44365 16.5563 3.75 12 3.75ZM7.46973 13.5303C7.17683 13.2374 7.17683 12.7626 7.46973 12.4697L11.1162 8.82324C11.6044 8.33514 12.3956 8.33513 12.8838 8.82324L16.5303 12.4697C16.8232 12.7626 16.8232 13.2374 16.5303 13.5303C16.2374 13.8232 15.7626 13.8232 15.4697 13.5303L12 10.0605L8.53027 13.5303C8.23738 13.8232 7.76262 13.8232 7.46973 13.5303ZM12 2.25C17.3848 2.25 21.75 6.61522 21.75 12C21.75 17.3848 17.3848 21.75 12 21.75C6.61522 21.75 2.25 17.3848 2.25 12C2.25 6.61522 6.61522 2.25 12 2.25Z" fill="black"/>
</svg>
