<svg width="24" height="24" viewBox="0 0 24 24" fill="none" xmlns="http://www.w3.org/2000/svg">
<path d="M21 12C21 16.9706 16.9706 21 12 21C7.02944 21 3 16.9706 3 12C3 7.02944 7.02944 3 12 3C16.9706 3 21 7.02944 21 12Z" fill="#8A38F5" fill-opacity="0.25"/>
<path d="M3.75 12C3.75 7.44365 7.44365 3.75 12 3.75C16.5563 3.75 20.25 7.44365 20.25 12C20.25 16.5563 16.5563 20.25 12 20.25C7.44365 20.25 3.75 16.5563 3.75 12ZM13.5303 7.46973C13.2374 7.17683 12.7626 7.17683 12.4697 7.46973L8.82324 11.1162C8.33514 11.6044 8.33513 12.3956 8.82324 12.8838L12.4697 16.5303C12.7626 16.8232 13.2374 16.8232 13.5303 16.5303C13.8232 16.2374 13.8232 15.7626 13.5303 15.4697L10.0605 12L13.5303 8.53027C13.8232 8.23738 13.8232 7.76262 13.5303 7.46973ZM2.25 12C2.25 17.3848 6.61522 21.75 12 21.75C17.3848 21.75 21.75 17.3848 21.75 12C21.75 6.61522 17.3848 2.25 12 2.25C6.61522 2.25 2.25 6.61522 2.25 12Z" fill="black"/>
</svg>
