<svg width="24" height="24" viewBox="0 0 24 24" fill="none" xmlns="http://www.w3.org/2000/svg">
<path d="M21 12C21 16.9706 16.9706 21 12 21C7.02944 21 3 16.9706 3 12C3 7.02944 7.02944 3 12 3C16.9706 3 21 7.02944 21 12Z" fill="#8A38F5" fill-opacity="0.25"/>
<path d="M5.10479 5.10549C8.91241 1.29795 15.0863 1.2979 18.8939 5.10549C22.7014 8.91309 22.7014 15.087 18.8939 18.8946C15.0863 22.7021 8.91241 22.7021 5.10479 18.8946C3.25488 17.0446 2.30342 14.6344 2.25127 12.211C2.24238 11.7968 2.57153 11.4533 2.98565 11.4444C3.39955 11.4357 3.74238 11.7648 3.75127 12.1787C3.79544 14.2311 4.59963 16.2683 6.16534 17.834C9.38703 21.0556 14.6105 21.0554 17.8323 17.834C21.0542 14.6122 21.0542 9.38786 17.8323 6.16604C14.6105 2.94466 9.38703 2.94442 6.16534 6.16604C6.12161 6.20977 6.07994 6.25539 6.03741 6.29983H7.99932C8.41333 6.2999 8.74908 6.63586 8.74932 7.04983C8.74932 7.464 8.41347 7.79975 7.99932 7.79983H4.721C4.03075 7.7997 3.471 7.2401 3.471 6.54983V3.27053C3.471 2.8564 3.8069 2.52066 4.221 2.52053C4.63521 2.52053 4.971 2.85632 4.971 3.27053V5.24514C5.01557 5.1988 5.05913 5.15115 5.10479 5.10549ZM11.2513 7.00002C11.2513 6.58581 11.5871 6.25002 12.0013 6.25002C12.4154 6.2501 12.7513 6.58586 12.7513 7.00002V11.25H16.0013C16.4154 11.2501 16.7513 11.5859 16.7513 12C16.7513 12.4142 16.4154 12.7499 16.0013 12.75H12.2513C11.699 12.75 11.2513 12.3023 11.2513 11.75V7.00002Z" fill="black"/>
</svg>
