<svg width="24" height="24" viewBox="0 0 24 24" fill="none" xmlns="http://www.w3.org/2000/svg">
<path d="M21 12C21 16.9706 16.9706 21 12 21C7.02944 21 3 16.9706 3 12C3 7.02944 7.02944 3 12 3C16.9706 3 21 7.02944 21 12Z" fill="#8A38F5" fill-opacity="0.25"/>
<path d="M20.25 12C20.25 7.44365 16.5563 3.75 12 3.75C7.44365 3.75 3.75 7.44365 3.75 12C3.75 16.5563 7.44365 20.25 12 20.25C16.5563 20.25 20.25 16.5563 20.25 12ZM21.75 12C21.75 17.3848 17.3848 21.75 12 21.75C6.61522 21.75 2.25 17.3848 2.25 12C2.25 6.61522 6.61522 2.25 12 2.25C17.3848 2.25 21.75 6.61522 21.75 12ZM12.75 11.8965C12.75 12.1617 12.6446 12.416 12.457 12.6035L9.70215 15.3584C9.40926 15.6513 8.93449 15.6513 8.6416 15.3584C8.34883 15.0655 8.34875 14.5907 8.6416 14.2979L11.25 11.6895V7C11.25 6.58581 11.5858 6.25003 12 6.25C12.4141 6.25006 12.75 6.58584 12.75 7V11.8965Z" fill="black"/>
</svg>
