<svg width="24" height="24" viewBox="0 0 24 24" fill="none" xmlns="http://www.w3.org/2000/svg">
<path d="M21 12C21 16.9706 16.9706 21 12 21C7.02944 21 3 16.9706 3 12C3 7.02944 7.02944 3 12 3C16.9706 3 21 7.02944 21 12Z" fill="#8A38F5" fill-opacity="0.25"/>
<path d="M5.10479 5.10543C8.91241 1.29789 15.0863 1.29784 18.8939 5.10543C22.7014 8.91303 22.7014 15.0869 18.8939 18.8945C15.0863 22.7021 8.91241 22.702 5.10479 18.8945C3.25488 17.0446 2.30342 14.6344 2.25127 12.2109C2.24238 11.7968 2.57153 11.4532 2.98565 11.4443C3.39955 11.4357 3.74238 11.7647 3.75127 12.1787C3.79544 14.2311 4.59963 16.2682 6.16534 17.8339C9.38703 21.0556 14.6105 21.0553 17.8323 17.8339C21.0542 14.6121 21.0542 9.3878 17.8323 6.16598C14.6105 2.9446 9.38703 2.94436 6.16534 6.16598C6.12161 6.2097 6.07994 6.25533 6.03741 6.29977H7.99932C8.41333 6.29984 8.74908 6.6358 8.74932 7.04977C8.74932 7.46394 8.41347 7.79969 7.99932 7.79977H4.721C4.03075 7.79964 3.471 7.24004 3.471 6.54977V3.27047C3.471 2.85634 3.8069 2.5206 4.221 2.52047C4.63521 2.52047 4.971 2.85626 4.971 3.27047V5.24508C5.01557 5.19874 5.05913 5.15109 5.10479 5.10543ZM11.2513 6.99996C11.2513 6.58575 11.5871 6.24996 12.0013 6.24996C12.4154 6.25004 12.7513 6.58579 12.7513 6.99996V11.25H16.0013C16.4154 11.25 16.7513 11.5858 16.7513 12C16.7513 12.4141 16.4154 12.7499 16.0013 12.75H12.2513C11.699 12.75 11.2513 12.3022 11.2513 11.75V6.99996Z" fill="black"/>
</svg>
