<svg width="24" height="24" viewBox="0 0 24 24" fill="none" xmlns="http://www.w3.org/2000/svg">
<path d="M21 12C21 16.9706 16.9706 21 12 21C7.02944 21 3 16.9706 3 12C3 7.02944 7.02944 3 12 3C16.9706 3 21 7.02944 21 12Z" fill="#8A38F5" fill-opacity="0.25"/>
<path d="M5.1065 5.10546C8.91411 1.29785 15.088 1.29785 18.8956 5.10546C18.9412 5.15115 18.9848 5.19875 19.0294 5.24511V3.2705C19.0294 2.85629 19.3651 2.5205 19.7794 2.5205C20.1934 2.5207 20.5294 2.85641 20.5294 3.2705V6.5498C20.5294 7.24003 19.9695 7.7996 19.2794 7.7998H16.001C15.5868 7.7998 15.251 7.46401 15.251 7.0498C15.2513 6.63579 15.587 6.2998 16.001 6.2998H17.9629C17.9204 6.25534 17.8788 6.20976 17.835 6.16601C14.6132 2.94419 9.38888 2.94419 6.16705 6.16601C2.94522 9.38784 2.94522 14.6122 6.16705 17.834C9.38888 21.0558 14.6132 21.0558 17.835 17.834C19.4007 16.2683 20.2049 14.2311 20.2491 12.1787C20.258 11.7647 20.6007 11.4356 21.0147 11.4443C21.4288 11.4532 21.758 11.7968 21.7491 12.2109C21.6969 14.6344 20.7455 17.0446 18.8956 18.8945C15.088 22.7021 8.91411 22.7021 5.1065 18.8945C1.29889 15.0869 1.29889 8.91308 5.1065 5.10546ZM11.251 7C11.251 6.58578 11.5868 6.25 12.001 6.25C12.4152 6.25 12.751 6.58578 12.751 7V11.25H16.001C16.4152 11.25 16.751 11.5858 16.751 12C16.751 12.4142 16.4152 12.75 16.001 12.75H12.251C11.6987 12.75 11.251 12.3023 11.251 11.75V7Z" fill="black"/>
</svg>
