<svg width="24" height="24" viewBox="0 0 24 24" fill="none" xmlns="http://www.w3.org/2000/svg">
<path d="M3 4C3 3.44772 3.44772 3 4 3H6C6.55228 3 7 3.44772 7 4V20C7 20.5523 6.55228 21 6 21H4C3.44772 21 3 20.5523 3 20V4Z" fill="#8A38F5" fill-opacity="0.25"/>
<path d="M6.25 4C6.25 3.86193 6.13807 3.75 6 3.75H4C3.86193 3.75 3.75 3.86193 3.75 4V20C3.75 20.1381 3.86193 20.25 4 20.25H6C6.13807 20.25 6.25 20.1381 6.25 20V4ZM20.4697 9.46973C20.7626 9.17683 21.2374 9.17683 21.5303 9.46973C21.8232 9.76262 21.8232 10.2374 21.5303 10.5303L17.707 14.3535C17.3165 14.744 16.6835 14.744 16.293 14.3535L14.4697 12.5303C14.1768 12.2374 14.1768 11.7626 14.4697 11.4697C14.7626 11.1768 15.2374 11.1768 15.5303 11.4697L17 12.9395L20.4697 9.46973ZM13.25 8V4C13.25 3.86193 13.1381 3.75 13 3.75H11C10.8619 3.75 10.75 3.86193 10.75 4V20C10.75 20.1381 10.8619 20.25 11 20.25H13C13.1381 20.25 13.25 20.1381 13.25 20V16C13.25 15.5858 13.5858 15.25 14 15.25C14.4142 15.25 14.75 15.5858 14.75 16V20C14.75 20.9665 13.9665 21.75 13 21.75H11C10.0335 21.75 9.25 20.9665 9.25 20V4C9.25 3.0335 10.0335 2.25 11 2.25H13C13.9665 2.25 14.75 3.0335 14.75 4V8C14.75 8.41421 14.4142 8.75 14 8.75C13.5858 8.75 13.25 8.41421 13.25 8ZM7.75 20C7.75 20.9665 6.9665 21.75 6 21.75H4C3.0335 21.75 2.25 20.9665 2.25 20V4C2.25 3.0335 3.0335 2.25 4 2.25H6C6.9665 2.25 7.75 3.0335 7.75 4V20Z" fill="black"/>
</svg>
