<svg width="24" height="24" viewBox="0 0 24 24" fill="none" xmlns="http://www.w3.org/2000/svg">
<path d="M4.5 5C4.5 3.89543 5.39543 3 6.5 3H14.5V7.5C14.5 7.77614 14.7239 8 15 8H19.5V19C19.5 20.1046 18.6046 21 17.5 21H6.5C5.39543 21 4.5 20.1046 4.5 19V5Z" fill="#8A38F5" fill-opacity="0.25"/>
<path d="M3.75 19V5C3.75 3.48122 4.98122 2.25 6.5 2.25H13.6719C14.4011 2.25008 15.1006 2.54001 15.6162 3.05566L19.4443 6.88379C19.96 7.39944 20.2499 8.09889 20.25 8.82812V19C20.25 20.5188 19.0188 21.75 17.5 21.75H6.5C4.98122 21.75 3.75 20.5188 3.75 19ZM15.5 16.25C15.9142 16.25 16.25 16.5858 16.25 17C16.25 17.4142 15.9142 17.75 15.5 17.75H8.5C8.08579 17.75 7.75 17.4142 7.75 17C7.75 16.5858 8.08579 16.25 8.5 16.25H15.5ZM15.5 12.75C15.9142 12.75 16.25 13.0858 16.25 13.5C16.25 13.9142 15.9142 14.25 15.5 14.25H8.5C8.08579 14.25 7.75 13.9142 7.75 13.5C7.75 13.0858 8.08579 12.75 8.5 12.75H15.5ZM10.5 9.25C10.9142 9.25 11.25 9.58579 11.25 10C11.25 10.4142 10.9142 10.75 10.5 10.75H8.5C8.08579 10.75 7.75 10.4142 7.75 10C7.75 9.58579 8.08579 9.25 8.5 9.25H10.5ZM15.25 7.25H17.6895L15.25 4.81055V7.25ZM5.25 19C5.25 19.6904 5.80964 20.25 6.5 20.25H17.5C18.1904 20.25 18.75 19.6904 18.75 19V8.82812C18.75 8.80196 18.7477 8.77596 18.7461 8.75H15C14.3096 8.75 13.75 8.19036 13.75 7.5V3.75293C13.7241 3.7513 13.698 3.75001 13.6719 3.75H6.5C5.80964 3.75 5.25 4.30964 5.25 5V19Z" fill="black"/>
</svg>
