<svg width="24" height="24" viewBox="0 0 24 24" fill="none" xmlns="http://www.w3.org/2000/svg">
<path d="M3 6C3 4.89543 3.89543 4 5 4H8.5C9.12951 4 9.72229 4.29639 10.1 4.8L10.4 5.2C10.7777 5.70361 11.3705 6 12 6H19C20.1046 6 21 6.89543 21 8V18C21 19.1046 20.1046 20 19 20H5C3.89543 20 3 19.1046 3 18V6Z" fill="#8A38F5" fill-opacity="0.25"/>
<path d="M2.25 18V6C2.25 4.48122 3.48122 3.25 5 3.25H8.5C9.36552 3.25 10.1808 3.65724 10.7002 4.34961L11 4.75L11.0947 4.8623C11.3291 5.10844 11.6559 5.25 12 5.25H19C20.5188 5.25 21.75 6.48122 21.75 8V18C21.75 19.5188 20.5188 20.75 19 20.75H5C3.48122 20.75 2.25 19.5188 2.25 18ZM9.46973 9.46973C9.76262 9.17683 10.2374 9.17683 10.5303 9.46973C10.8232 9.76262 10.8232 10.2374 10.5303 10.5303L8.06055 13L10.5303 15.4697C10.8232 15.7626 10.8232 16.2374 10.5303 16.5303C10.2374 16.8232 9.76262 16.8232 9.46973 16.5303L6.82324 13.8838C6.33514 13.3956 6.33514 12.6044 6.82324 12.1162L9.46973 9.46973ZM13.4697 9.46973C13.7626 9.17683 14.2374 9.17683 14.5303 9.46973L17.1768 12.1162C17.6649 12.6044 17.6649 13.3956 17.1768 13.8838L14.5303 16.5303C14.2374 16.8232 13.7626 16.8232 13.4697 16.5303C13.1768 16.2374 13.1768 15.7626 13.4697 15.4697L15.9395 13L13.4697 10.5303C13.1768 10.2374 13.1768 9.76262 13.4697 9.46973ZM3.75 18C3.75 18.6904 4.30964 19.25 5 19.25H19C19.6904 19.25 20.25 18.6904 20.25 18V8C20.25 7.30964 19.6904 6.75 19 6.75H12C11.1345 6.75 10.3192 6.34276 9.7998 5.65039L9.5 5.25C9.26393 4.93524 8.89345 4.75 8.5 4.75H5C4.30964 4.75 3.75 5.30964 3.75 6V18Z" fill="black"/>
</svg>
