<svg width="24" height="24" viewBox="0 0 24 24" fill="none" xmlns="http://www.w3.org/2000/svg">
<path d="M3 6C3 4.89543 3.89543 4 5 4H8.5C9.12951 4 9.72229 4.29639 10.1 4.8L10.4 5.2C10.7777 5.70361 11.3705 6 12 6H19C20.1046 6 21 6.89543 21 8V18C21 19.1046 20.1046 20 19 20H5C3.89543 20 3 19.1046 3 18V6Z" fill="#8A38F5" fill-opacity="0.25"/>
<path d="M2.25 18V6C2.25 4.48122 3.48122 3.25 5 3.25H8.5C9.36552 3.25 10.1808 3.65724 10.7002 4.34961L11 4.75L11.0947 4.8623C11.3291 5.10844 11.6559 5.25 12 5.25H19C20.5188 5.25 21.75 6.48122 21.75 8V18C21.75 19.5188 20.5188 20.75 19 20.75H5C3.48122 20.75 2.25 19.5188 2.25 18ZM11.25 16V13.75H9C8.58579 13.75 8.25 13.4142 8.25 13C8.25 12.5858 8.58579 12.25 9 12.25H11.25V10C11.25 9.58579 11.5858 9.25 12 9.25C12.4142 9.25 12.75 9.58579 12.75 10V12.25H15C15.4142 12.25 15.75 12.5858 15.75 13C15.75 13.4142 15.4142 13.75 15 13.75H12.75V16C12.75 16.4142 12.4142 16.75 12 16.75C11.5858 16.75 11.25 16.4142 11.25 16ZM3.75 18C3.75 18.6904 4.30964 19.25 5 19.25H19C19.6904 19.25 20.25 18.6904 20.25 18V8C20.25 7.30964 19.6904 6.75 19 6.75H12C11.1345 6.75 10.3192 6.34276 9.7998 5.65039L9.5 5.25C9.26393 4.93524 8.89345 4.75 8.5 4.75H5C4.30964 4.75 3.75 5.30964 3.75 6V18Z" fill="black"/>
</svg>
