<svg width="24" height="24" viewBox="0 0 24 24" fill="none" xmlns="http://www.w3.org/2000/svg">
<path d="M3 6C3 4.89543 3.89543 4 5 4H8.5C9.12951 4 9.72229 4.29639 10.1 4.8L10.4 5.2C10.7777 5.70361 11.3705 6 12 6H19C20.1046 6 21 6.89543 21 8V18C21 19.1046 20.1046 20 19 20H5C3.89543 20 3 19.1046 3 18V6Z" fill="#8A38F5" fill-opacity="0.25"/>
<path d="M2.25 18V6C2.25 4.48122 3.48122 3.25 5 3.25H8.5C9.36552 3.25 10.1808 3.65724 10.7002 4.34961L11 4.75L11.0947 4.8623C11.3291 5.10844 11.6559 5.25 12 5.25H19C20.5188 5.25 21.75 6.48122 21.75 8V18C21.75 19.5188 20.5188 20.75 19 20.75H5C3.48122 20.75 2.25 19.5188 2.25 18ZM13.5908 10.3486C13.8837 10.0557 14.3595 10.0557 14.6523 10.3486C14.9448 10.6415 14.945 11.1164 14.6523 11.4092L13.0605 13L14.6523 14.5908C14.945 14.8836 14.9448 15.3585 14.6523 15.6514C14.3595 15.9443 13.8837 15.9443 13.5908 15.6514L12 14.0605L10.4092 15.6514C10.1163 15.9443 9.64153 15.9443 9.34863 15.6514C9.05586 15.3585 9.05578 14.8837 9.34863 14.5908L10.9395 13L9.34863 11.4092C9.05578 11.1163 9.05586 10.6415 9.34863 10.3486C9.64153 10.0557 10.1163 10.0557 10.4092 10.3486L12 11.9385L13.5908 10.3486ZM3.75 18C3.75 18.6904 4.30964 19.25 5 19.25H19C19.6904 19.25 20.25 18.6904 20.25 18V8C20.25 7.30964 19.6904 6.75 19 6.75H12C11.1345 6.75 10.3192 6.34276 9.7998 5.65039L9.5 5.25C9.26393 4.93524 8.89345 4.75 8.5 4.75H5C4.30964 4.75 3.75 5.30964 3.75 6V18Z" fill="black"/>
</svg>
