<svg width="24" height="24" viewBox="0 0 24 24" fill="none" xmlns="http://www.w3.org/2000/svg">
<path fill-rule="evenodd" clip-rule="evenodd" d="M13.3096 3C13.4219 3 13.5207 3.07536 13.5508 3.18359L14.3076 5.91113C14.3511 6.06772 14.5304 6.14245 14.6719 6.0625L17.1377 4.66895C17.2355 4.6137 17.3581 4.63056 17.4375 4.70996L19.29 6.56152C19.3694 6.64086 19.3861 6.76361 19.3311 6.86133L17.9375 9.32715C17.8576 9.46858 17.9314 9.64787 18.0879 9.69141L20.8164 10.4492C20.9246 10.4793 21 10.5781 21 10.6904V13.3096C21 13.4219 20.9246 13.5207 20.8164 13.5508L18.0879 14.3076C17.9314 14.3511 17.8576 14.5304 17.9375 14.6719L19.3311 17.1387C19.3861 17.2364 19.3694 17.3591 19.29 17.4385L17.4375 19.29C17.3581 19.3695 17.2355 19.3863 17.1377 19.3311L14.6719 17.9365C14.5304 17.8565 14.3511 17.9313 14.3076 18.0879L13.5508 20.8164C13.5208 20.9246 13.4219 21 13.3096 21H10.6895C10.5775 20.9999 10.4794 20.9252 10.4492 20.8174L9.69043 18.0879C9.6467 17.9318 9.4684 17.8578 9.32715 17.9375L6.8623 19.3311C6.76455 19.3863 6.64193 19.3694 6.5625 19.29L4.70898 17.4385C4.62969 17.3592 4.61307 17.2364 4.66797 17.1387L6.0625 14.6719C6.14228 14.5304 6.06765 14.3511 5.91113 14.3076L3.18262 13.5508C3.07453 13.5207 3 13.4218 3 13.3096V10.6904C3 10.5782 3.07454 10.4794 3.18262 10.4492L5.91113 9.69043C6.06763 9.6469 6.14239 9.46759 6.0625 9.32617L4.66895 6.86133C4.61403 6.76364 4.63069 6.6408 4.70996 6.56152L6.5625 4.70996C6.64191 4.63056 6.76454 4.61369 6.8623 4.66895L9.32715 6.06152C9.46844 6.14123 9.64673 6.06731 9.69043 5.91113L10.4492 3.18262C10.4794 3.07479 10.5775 3.00013 10.6895 3H13.3096ZM12 9C10.3431 9 9 10.3431 9 12C9 13.6569 10.3431 15 12 15C13.6569 15 15 13.6569 15 12C15 10.3431 13.6569 9 12 9Z" fill="#8A38F5" fill-opacity="0.25"/>
<path d="M10.4141 6.11133C10.2401 6.73746 9.52379 7.03455 8.95801 6.71484L6.82422 5.50781L5.50879 6.82324L6.71582 8.95703C7.03547 9.52264 6.73909 10.2388 6.11328 10.4131L3.75 11.0693V12.9297L6.1123 13.585C6.7386 13.7588 7.0355 14.4751 6.71582 15.041L5.50781 17.1748L6.82422 18.4912L8.95801 17.2852L9.06543 17.2324C9.57475 17.0186 10.1659 17.2631 10.375 17.7744L10.4141 17.8877L11.0703 20.25H12.9297L13.585 17.8867C13.748 17.2994 14.388 17.0025 14.9336 17.2314L15.041 17.2842L17.1758 18.4912L18.4912 17.1758L17.2842 15.041C16.9645 14.4751 17.2614 13.7588 17.8877 13.585L20.25 12.9297V11.0693L17.8877 10.4141C17.2615 10.2401 16.9653 9.52383 17.2852 8.95801L18.4912 6.82324L17.1758 5.50781L15.041 6.71582C14.4751 7.03551 13.7588 6.7386 13.585 6.1123L12.9297 3.75H11.0703L10.4141 6.11133ZM14.25 12C14.25 10.7574 13.2426 9.75 12 9.75C10.7575 9.75013 9.75 10.7574 9.75 12C9.75 13.2426 10.7575 14.2499 12 14.25C13.2426 14.25 14.25 13.2426 14.25 12ZM15.75 12C15.75 14.0711 14.0711 15.75 12 15.75C9.92904 15.7499 8.25 14.071 8.25 12C8.25 9.92901 9.92904 8.25013 12 8.25C14.0711 8.25 15.75 9.92893 15.75 12ZM21.75 13.3096C21.75 13.7588 21.4504 14.1532 21.0176 14.2734L18.9043 14.8584L19.9844 16.7695C20.2052 17.1606 20.1379 17.6512 19.8203 17.9688L17.9688 19.8203C17.6512 20.1379 17.1605 20.2052 16.7695 19.9844L14.8584 18.9043L14.2734 21.0176C14.1532 21.4504 13.7588 21.75 13.3096 21.75H10.6904C10.2412 21.75 9.84681 21.4504 9.72656 21.0176L9.13965 18.9053L7.23145 19.9844C6.8405 20.2052 6.34981 20.1387 6.03223 19.8213L4.17969 17.9688C3.86201 17.6512 3.79477 17.1606 4.01562 16.7695L5.09473 14.8584L2.98242 14.2734C2.60375 14.1683 2.32699 13.8535 2.26367 13.4756L2.25 13.3096V10.6904L2.26367 10.5244C2.32693 10.1466 2.60389 9.83185 2.98242 9.72656L5.09473 9.13867L4.0166 7.23047C3.79576 6.83945 3.8631 6.34881 4.18066 6.03125L6.03223 4.17969L6.15918 4.07227C6.47113 3.84962 6.88924 3.82235 7.23145 4.01562L9.13965 5.09375L9.72656 2.98242L9.78418 2.82617C9.94639 2.47913 10.2975 2.25 10.6904 2.25H13.3096C13.7028 2.25 14.0538 2.47965 14.2158 2.82715L14.2734 2.98242L14.8584 5.09473L16.7695 4.01562L16.9199 3.94629C17.2288 3.83399 17.5743 3.88135 17.8418 4.07227L17.9688 4.17969L19.8203 6.03125C20.1379 6.34881 20.2052 6.83945 19.9844 7.23047L18.9043 9.13965L21.0176 9.72656C21.4504 9.84681 21.75 10.2412 21.75 10.6904V13.3096Z" fill="black"/>
</svg>
