<svg width="24" height="24" viewBox="0 0 24 24" fill="none" xmlns="http://www.w3.org/2000/svg">
<path d="M20.4908 7.66999L12.9638 3.53016C12.3637 3.20007 11.6363 3.20007 11.0361 3.53016L3.50919 7.66999C2.8548 8.0299 2.8548 8.9702 3.50919 9.33011C3.81191 9.49661 3.99999 9.8147 3.99999 10.1602V15.3304C3.99999 16.0529 4.38971 16.7193 5.01947 17.0735L11.0195 20.4485C11.6283 20.791 12.3717 20.791 12.9805 20.4485L18.9805 17.0735C19.6103 16.7193 20 16.0529 20 15.3304V10.1602C20 9.8147 20.1881 9.49661 20.4908 9.33011C21.1452 8.9702 21.1452 8.0299 20.4908 7.66999Z" fill="#8A38F5" fill-opacity="0.25"/>
<path d="M19.25 10.8689L17.75 11.6931V16.905L19.1231 16.1335C19.2017 16.0893 19.25 16.0051 19.25 15.9148V10.8689ZM12.1211 3.92261C12.0461 3.88135 11.9549 3.88136 11.8799 3.92261L3.95509 8.28101C3.78239 8.37599 3.7824 8.6245 3.95509 8.71948L11.8799 13.0779C11.9549 13.1191 12.0461 13.1191 12.1211 13.0779L15.4443 11.2498L11.6387 9.15698C11.2759 8.95732 11.1432 8.50132 11.3428 8.13843C11.5424 7.77567 11.9985 7.64322 12.3613 7.84253L17 10.3933L20.0459 8.71948C20.2184 8.62451 20.2184 8.37606 20.0459 8.28101L12.1211 3.92261ZM4.75001 15.9148C4.75001 16.0051 4.79922 16.0893 4.87794 16.1335L11.8779 20.071C11.954 20.1136 12.0471 20.1138 12.1231 20.071L16.25 17.7488V12.5183L12.8438 14.3923C12.3187 14.6811 11.6823 14.681 11.1572 14.3923L4.75001 10.8689V15.9148ZM20.75 15.9148C20.75 16.5469 20.4092 17.1302 19.8584 17.4402L17.75 18.6257V20.4998C17.75 20.914 17.4142 21.2498 17 21.2498C16.5859 21.2497 16.25 20.9139 16.25 20.4998V19.4695L12.8584 21.3777C12.3257 21.6773 11.6753 21.6773 11.1426 21.3777L4.14259 17.4402C3.59155 17.1302 3.25001 16.547 3.25001 15.9148V10.0437L3.23146 10.0339C2.02278 9.36907 2.02287 7.6315 3.23146 6.96655L11.1572 2.60815C11.6823 2.31946 12.3187 2.31937 12.8438 2.60815L20.7686 6.96655C21.9774 7.63142 21.9774 9.36906 20.7686 10.0339L20.75 10.0437V15.9148Z" fill="black"/>
</svg>
