<svg width="24" height="24" viewBox="0 0 24 24" fill="none" xmlns="http://www.w3.org/2000/svg">
<path d="M8 14C9.10457 14 10 14.8954 10 16V19C10 20.1046 9.10457 21 8 21H5C3.89543 21 3 20.1046 3 19V16C3 14.8954 3.89543 14 5 14H8Z" fill="#8A38F5" fill-opacity="0.25"/>
<path d="M8 3C9.10457 3 10 3.89543 10 5V8C10 9.10457 9.10457 10 8 10H5C3.89543 10 3 9.10457 3 8V5C3 3.89543 3.89543 3 5 3H8Z" fill="#8A38F5" fill-opacity="0.25"/>
<path d="M19 3C20.1046 3 21 3.89543 21 5V8C21 9.10457 20.1046 10 19 10H16C14.8954 10 14 9.10457 14 8V5C14 3.89543 14.8954 3 16 3H19Z" fill="#8A38F5" fill-opacity="0.25"/>
<path d="M9.25 16C9.25 15.3096 8.69036 14.75 8 14.75H5C4.30964 14.75 3.75 15.3096 3.75 16V19C3.75 19.6904 4.30964 20.25 5 20.25H8C8.69036 20.25 9.25 19.6904 9.25 19V16ZM19.0908 14.8486C19.3837 14.5557 19.8594 14.5557 20.1523 14.8486C20.4448 15.1415 20.445 15.6164 20.1523 15.9092L18.5605 17.5L20.1523 19.0908C20.445 19.3836 20.4448 19.8585 20.1523 20.1514C19.8594 20.4443 19.3837 20.4443 19.0908 20.1514L17.5 18.5605L15.9092 20.1514C15.6163 20.4443 15.1415 20.4443 14.8486 20.1514C14.5558 19.8585 14.5558 19.3837 14.8486 19.0908L16.4395 17.5L14.8486 15.9092C14.5558 15.6163 14.5558 15.1415 14.8486 14.8486C15.1415 14.5557 15.6163 14.5557 15.9092 14.8486L17.5 16.4385L19.0908 14.8486ZM9.25 5C9.25 4.30964 8.69036 3.75 8 3.75H5C4.30964 3.75 3.75 4.30964 3.75 5V8C3.75 8.69036 4.30964 9.25 5 9.25H8C8.69036 9.25 9.25 8.69036 9.25 8V5ZM20.25 5C20.25 4.30964 19.6904 3.75 19 3.75H16C15.3096 3.75 14.75 4.30964 14.75 5V8C14.75 8.69036 15.3096 9.25 16 9.25H19C19.6904 9.25 20.25 8.69036 20.25 8V5ZM10.75 19C10.75 20.5188 9.51878 21.75 8 21.75H5C3.48122 21.75 2.25 20.5188 2.25 19V16C2.25 14.4812 3.48122 13.25 5 13.25H8C9.51878 13.25 10.75 14.4812 10.75 16V19ZM10.75 8C10.75 9.51878 9.51878 10.75 8 10.75H5C3.48122 10.75 2.25 9.51878 2.25 8V5C2.25 3.48122 3.48122 2.25 5 2.25H8C9.51878 2.25 10.75 3.48122 10.75 5V8ZM21.75 8C21.75 9.51878 20.5188 10.75 19 10.75H16C14.4812 10.75 13.25 9.51878 13.25 8V5C13.25 3.48122 14.4812 2.25 16 2.25H19C20.5188 2.25 21.75 3.48122 21.75 5V8Z" fill="black"/>
</svg>
