<svg width="24" height="24" viewBox="0 0 24 24" fill="none" xmlns="http://www.w3.org/2000/svg">
<path d="M8 14C9.10457 14 10 14.8954 10 16V19C10 20.1046 9.10457 21 8 21H5C3.89543 21 3 20.1046 3 19V16C3 14.8954 3.89543 14 5 14H8Z" fill="#8A38F5" fill-opacity="0.25"/>
<path d="M8 3C9.10457 3 10 3.89543 10 5V8C10 9.10457 9.10457 10 8 10H5C3.89543 10 3 9.10457 3 8V5C3 3.89543 3.89543 3 5 3H8Z" fill="#8A38F5" fill-opacity="0.25"/>
<path d="M19 3C20.1046 3 21 3.89543 21 5V8C21 9.10457 20.1046 10 19 10H16C14.8954 10 14 9.10457 14 8V5C14 3.89543 14.8954 3 16 3H19Z" fill="#8A38F5" fill-opacity="0.25"/>
<path d="M9.25 16C9.25 15.3096 8.69036 14.75 8 14.75H5C4.30964 14.75 3.75 15.3096 3.75 16V19C3.75 19.6904 4.30964 20.25 5 20.25H8C8.69036 20.25 9.25 19.6904 9.25 19V16ZM16.75 20.5V18.25H14.5C14.0858 18.25 13.75 17.9142 13.75 17.5C13.75 17.0858 14.0858 16.75 14.5 16.75H16.75V14.5C16.75 14.0858 17.0858 13.75 17.5 13.75C17.9142 13.75 18.25 14.0858 18.25 14.5V16.75H20.5C20.9142 16.75 21.25 17.0858 21.25 17.5C21.25 17.9142 20.9142 18.25 20.5 18.25H18.25V20.5C18.25 20.9142 17.9142 21.25 17.5 21.25C17.0858 21.25 16.75 20.9142 16.75 20.5ZM9.25 5C9.25 4.30964 8.69036 3.75 8 3.75H5C4.30964 3.75 3.75 4.30964 3.75 5V8C3.75 8.69036 4.30964 9.25 5 9.25H8C8.69036 9.25 9.25 8.69036 9.25 8V5ZM20.25 5C20.25 4.30964 19.6904 3.75 19 3.75H16C15.3096 3.75 14.75 4.30964 14.75 5V8C14.75 8.69036 15.3096 9.25 16 9.25H19C19.6904 9.25 20.25 8.69036 20.25 8V5ZM10.75 19C10.75 20.5188 9.51878 21.75 8 21.75H5C3.48122 21.75 2.25 20.5188 2.25 19V16C2.25 14.4812 3.48122 13.25 5 13.25H8C9.51878 13.25 10.75 14.4812 10.75 16V19ZM10.75 8C10.75 9.51878 9.51878 10.75 8 10.75H5C3.48122 10.75 2.25 9.51878 2.25 8V5C2.25 3.48122 3.48122 2.25 5 2.25H8C9.51878 2.25 10.75 3.48122 10.75 5V8ZM21.75 8C21.75 9.51878 20.5188 10.75 19 10.75H16C14.4812 10.75 13.25 9.51878 13.25 8V5C13.25 3.48122 14.4812 2.25 16 2.25H19C20.5188 2.25 21.75 3.48122 21.75 5V8Z" fill="black"/>
</svg>
