<svg width="24" height="24" viewBox="0 0 24 24" fill="none" xmlns="http://www.w3.org/2000/svg">
<path d="M11.0283 3.54002C11.6324 3.20443 12.3676 3.20443 12.9717 3.54002L19.9717 7.42869C20.6064 7.78148 21 8.45056 21 9.17673V19C21 20.1045 20.1046 21 19 21H15V14.5C15 14.2238 14.7761 14 14.5 14H9.5C9.22386 14 9 14.2238 9 14.5V21H5C3.89544 21 3.00001 20.1045 3 19V9.17673C3.00001 8.45056 3.39363 7.78148 4.02832 7.42869L11.0283 3.54002Z" fill="#8A38F5" fill-opacity="0.25"/>
<path d="M9.75 20.2499H14.25V14.7499H9.75V20.2499ZM15.75 20.2499H19C19.6904 20.2499 20.25 19.6902 20.25 18.9999V9.17663C20.2499 8.72282 20.0041 8.30431 19.6074 8.08386L12.6074 4.19519C12.2299 3.98545 11.7701 3.98545 11.3926 4.19519L4.39258 8.08386C3.9959 8.30431 3.75008 8.72282 3.75 9.17663V18.9999C3.75 19.6902 4.30964 20.2499 5 20.2499H8.25V14.4999C8.25009 13.8096 8.8097 13.2499 9.5 13.2499H14.5C15.1903 13.2499 15.7499 13.8096 15.75 14.4999V20.2499ZM21.75 18.9999C21.75 20.5187 20.5188 21.7499 19 21.7499H5C3.48122 21.7499 2.25 20.5187 2.25 18.9999V9.17663C2.25008 8.17819 2.79138 7.25837 3.66406 6.77331L10.6641 2.88367C11.4946 2.42224 12.5054 2.42224 13.3359 2.88367L20.3359 6.77331C21.2086 7.25837 21.7499 8.17819 21.75 9.17663V18.9999Z" fill="black"/>
</svg>
