<svg width="24" height="24" viewBox="0 0 24 24" fill="none" xmlns="http://www.w3.org/2000/svg">
<path d="M3 13H7.17157C7.70201 13 8.21071 13.2107 8.58579 13.5858L9.41421 14.4142C9.78929 14.7893 10.298 15 10.8284 15H13.1716C13.702 15 14.2107 14.7893 14.5858 14.4142L15.4142 13.5858C15.7893 13.2107 16.298 13 16.8284 13H21V18C21 19.1046 20.1046 20 19 20H5C3.89543 20 3 19.1046 3 18V13Z" fill="#8A38F5" fill-opacity="0.25"/>
<path d="M20.25 13.7501H16.8281C16.4967 13.7502 16.1787 13.882 15.9443 14.1163L15.1162 14.9445C14.6006 15.4601 13.9011 15.75 13.1719 15.7501H10.8281C10.0989 15.75 9.39944 15.4601 8.88379 14.9445L8.05566 14.1163C7.82131 13.882 7.50329 13.7502 7.17188 13.7501H3.75V18.0001C3.75004 18.6904 4.30967 19.2501 5 19.2501H19C19.6903 19.2501 20.25 18.6904 20.25 18.0001V13.7501ZM11.25 10.0001V3.81067L10.0303 5.0304C9.73739 5.32324 9.26261 5.32324 8.96973 5.0304C8.67685 4.73751 8.67687 4.26274 8.96973 3.96985L11.1162 1.82336L11.2109 1.73743C11.7019 1.33694 12.4261 1.3657 12.8838 1.82336L15.0303 3.96985C15.3231 4.26274 15.3232 4.73751 15.0303 5.0304C14.7374 5.32324 14.2626 5.32324 13.9697 5.0304L12.75 3.81067V10.0001C12.75 10.4143 12.4142 10.7501 12 10.7501C11.5858 10.7501 11.25 10.4143 11.25 10.0001ZM21.75 18.0001C21.75 19.5189 20.5188 20.7501 19 20.7501H5C3.48124 20.7501 2.25004 19.5189 2.25 18.0001V13.3243C2.25001 13.1747 2.26193 13.0252 2.28613 12.8781C2.30972 12.7347 2.34552 12.5935 2.3916 12.4552L3.83301 8.13C4.20745 7.00737 5.25794 6.25017 6.44141 6.25012H7C7.41421 6.25012 7.75 6.58591 7.75 7.00012C7.74996 7.4143 7.41419 7.75012 7 7.75012H6.44141C5.90348 7.75017 5.42605 8.09433 5.25586 8.60461L4.04102 12.2501H7.17188C7.90111 12.2502 8.60056 12.5401 9.11621 13.0558L9.94434 13.8839C10.1787 14.1183 10.4967 14.25 10.8281 14.2501H13.1719C13.5033 14.25 13.8213 14.1183 14.0557 13.8839L14.8838 13.0558C15.3994 12.5401 16.0989 12.2502 16.8281 12.2501H19.959L18.7441 8.60461C18.574 8.09433 18.0965 7.75017 17.5586 7.75012H17C16.5858 7.75012 16.25 7.4143 16.25 7.00012C16.25 6.58591 16.5858 6.25012 17 6.25012H17.5586C18.7421 6.25017 19.7925 7.00737 20.167 8.13L21.6084 12.4552C21.632 12.5261 21.6532 12.5977 21.6709 12.67C21.7201 12.7699 21.75 12.8813 21.75 13.0001C21.75 13.036 21.7461 13.0711 21.7412 13.1056C21.747 13.1783 21.75 13.2512 21.75 13.3243V18.0001Z" fill="black"/>
</svg>
