<svg width="24" height="24" viewBox="0 0 24 24" fill="none" xmlns="http://www.w3.org/2000/svg">
<path d="M3 13H7.17157C7.70201 13 8.21071 13.2107 8.58579 13.5858L9.41421 14.4142C9.78929 14.7893 10.298 15 10.8284 15H13.1716C13.702 15 14.2107 14.7893 14.5858 14.4142L15.4142 13.5858C15.7893 13.2107 16.298 13 16.8284 13H21V18C21 19.1046 20.1046 20 19 20H5C3.89543 20 3 19.1046 3 18V13Z" fill="#8A38F5" fill-opacity="0.25"/>
<path d="M20.25 13.75H16.8281C16.4967 13.7501 16.1787 13.8819 15.9443 14.1162L15.1162 14.9443C14.6006 15.46 13.9011 15.7499 13.1719 15.75H10.8281C10.0989 15.7499 9.39944 15.46 8.88379 14.9443L8.05566 14.1162C7.82132 13.8819 7.50329 13.7501 7.17188 13.75H3.75V18C3.75 18.6904 4.30964 19.25 5 19.25H19C19.6904 19.25 20.25 18.6904 20.25 18V13.75ZM6.60449 4.75C6.0187 4.75 5.51097 5.15672 5.38379 5.72852L3.93457 12.25H7.17188C7.90111 12.2501 8.60056 12.54 9.11621 13.0557L9.94434 13.8838C10.1787 14.1181 10.4967 14.2499 10.8281 14.25H13.1719C13.5033 14.2499 13.8213 14.1181 14.0557 13.8838L14.8838 13.0557C15.3994 12.54 16.0989 12.2501 16.8281 12.25H20.0654L18.6162 5.72852C18.489 5.15672 17.9813 4.75 17.3955 4.75H6.60449ZM21.75 18C21.75 19.5188 20.5188 20.75 19 20.75H5C3.48122 20.75 2.25 19.5188 2.25 18V13.2197C2.25 13.0191 2.27191 12.8189 2.31543 12.623L3.91992 5.40332C4.19958 4.14516 5.31562 3.25 6.60449 3.25H17.3955C18.6844 3.25 19.8004 4.14516 20.0801 5.40332L21.6846 12.623C21.7281 12.8189 21.75 13.0191 21.75 13.2197V18Z" fill="black"/>
</svg>
