<svg width="24" height="24" viewBox="0 0 24 24" fill="none" xmlns="http://www.w3.org/2000/svg">
<path d="M10.1973 3.29808C7.18456 4.09842 4.67163 6.44363 3.80695 9.67064C2.52047 14.4718 5.36971 19.4069 10.1709 20.6933C14.7876 21.9304 19.5281 19.3434 21.0294 14.874C21.0972 14.672 20.8827 14.5015 20.6963 14.6047C13.8559 18.3917 6.36234 10.7873 10.2493 4.00319L10.455 3.64423C10.5597 3.46144 10.4009 3.244 10.1973 3.29808Z" fill="#8A38F5" fill-opacity="0.25"/>
<path d="M10.1686 2.54259C10.9716 2.45532 11.4913 3.34322 11.1051 4.0172L10.9 4.3756C7.39036 10.5011 14.1562 17.368 20.3327 13.9488L20.4743 13.8844C21.1903 13.624 22.0225 14.2714 21.7399 15.1129C20.1132 19.9553 14.9779 22.7578 9.97621 21.4176C4.77507 20.0238 1.68802 14.6774 3.08168 9.47618C4.01871 5.97943 6.743 3.43929 10.0045 2.57286L10.1686 2.54259ZM9.18324 4.44591C6.97048 5.41909 5.20469 7.35023 4.5309 9.86485C3.35172 14.2659 5.96383 18.7901 10.3649 19.9693C14.1623 20.9867 18.0489 19.1798 19.8014 15.8385C12.9522 18.3857 6.12006 11.247 9.18324 4.44591Z" fill="black"/>
</svg>
