<svg width="24" height="24" viewBox="0 0 24 24" fill="none" xmlns="http://www.w3.org/2000/svg">
<path d="M3 9H21V5C21 3.89543 20.1046 3 19 3H5C3.89543 3 3 3.89543 3 5V9Z" fill="#8A38F5" fill-opacity="0.25"/>
<path d="M19 20.25C19.6904 20.25 20.25 19.6904 20.25 19V5C20.25 4.30964 19.6904 3.75 19 3.75H5C4.30964 3.75 3.75 4.30964 3.75 5V19C3.75 19.6904 4.30964 20.25 5 20.25H19ZM7 8.25H8C8.41421 8.25 8.75 8.58579 8.75 9C8.75 9.41421 8.41421 9.75 8 9.75H7C6.58579 9.75 6.25 9.41421 6.25 9C6.25 8.58579 6.58579 8.25 7 8.25ZM11.5 8.25H12.5C12.9142 8.25 13.25 8.58579 13.25 9C13.25 9.41421 12.9142 9.75 12.5 9.75H11.5C11.0858 9.75 10.75 9.41421 10.75 9C10.75 8.58579 11.0858 8.25 11.5 8.25ZM16 8.25H17C17.4142 8.25 17.75 8.58579 17.75 9C17.75 9.41421 17.4142 9.75 17 9.75H16C15.5858 9.75 15.25 9.41421 15.25 9C15.25 8.58579 15.5858 8.25 16 8.25ZM5 21.75C3.48122 21.75 2.25 20.5188 2.25 19V5C2.25 3.48122 3.48122 2.25 5 2.25H19C20.5188 2.25 21.75 3.48122 21.75 5V19C21.75 20.5188 20.5188 21.75 19 21.75H5Z" fill="black"/>
</svg>
