<svg width="24" height="24" viewBox="0 0 24 24" fill="none" xmlns="http://www.w3.org/2000/svg">
<path d="M3 15H21V19C21 20.1046 20.1046 21 19 21H5C3.89543 21 3 20.1046 3 19V15Z" fill="#8A38F5" fill-opacity="0.25"/>
<path d="M19 3.75C19.6904 3.75 20.25 4.30964 20.25 5V19C20.25 19.6904 19.6904 20.25 19 20.25H5C4.30964 20.25 3.75 19.6904 3.75 19V5C3.75 4.30964 4.30964 3.75 5 3.75H19ZM7 15.75H8C8.41421 15.75 8.75 15.4142 8.75 15C8.75 14.5858 8.41421 14.25 8 14.25H7C6.58579 14.25 6.25 14.5858 6.25 15C6.25 15.4142 6.58579 15.75 7 15.75ZM11.5 15.75H12.5C12.9142 15.75 13.25 15.4142 13.25 15C13.25 14.5858 12.9142 14.25 12.5 14.25H11.5C11.0858 14.25 10.75 14.5858 10.75 15C10.75 15.4142 11.0858 15.75 11.5 15.75ZM16 15.75H17C17.4142 15.75 17.75 15.4142 17.75 15C17.75 14.5858 17.4142 14.25 17 14.25H16C15.5858 14.25 15.25 14.5858 15.25 15C15.25 15.4142 15.5858 15.75 16 15.75ZM5 2.25C3.48122 2.25 2.25 3.48122 2.25 5V19C2.25 20.5188 3.48122 21.75 5 21.75H19C20.5188 21.75 21.75 20.5188 21.75 19V5C21.75 3.48122 20.5188 2.25 19 2.25H5Z" fill="black"/>
</svg>
