<svg width="24" height="24" viewBox="0 0 24 24" fill="none" xmlns="http://www.w3.org/2000/svg">
<path fill-rule="evenodd" clip-rule="evenodd" d="M19 3C20.1046 3 21 3.89543 21 5V19C21 20.1046 20.1046 21 19 21H5C3.89543 21 3 20.1046 3 19V5C3 3.89543 3.89543 3 5 3H19ZM7.5 7C7.22386 7 7 7.22386 7 7.5V16.5C7 16.7761 7.22386 17 7.5 17H16.5C16.7761 17 17 16.7761 17 16.5V7.5C17 7.22386 16.7761 7 16.5 7H7.5Z" fill="#8A38F5" fill-opacity="0.25"/>
<path d="M20.25 5C20.25 4.30964 19.6904 3.75 19 3.75H5C4.30964 3.75 3.75 4.30964 3.75 5V19C3.75 19.6904 4.30964 20.25 5 20.25H19C19.6904 20.25 20.25 19.6904 20.25 19V5ZM6.25 16C6.25 15.5858 6.58579 15.25 7 15.25C7.41421 15.25 7.75 15.5858 7.75 16V16.25H8C8.41421 16.25 8.75 16.5858 8.75 17C8.75 17.4142 8.41421 17.75 8 17.75H7.5C6.80964 17.75 6.25 17.1904 6.25 16.5V16ZM12.5 16.25C12.9142 16.25 13.25 16.5858 13.25 17C13.25 17.4142 12.9142 17.75 12.5 17.75H11.5C11.0858 17.75 10.75 17.4142 10.75 17C10.75 16.5858 11.0858 16.25 11.5 16.25H12.5ZM6.25 12.5V11.5C6.25 11.0858 6.58579 10.75 7 10.75C7.41421 10.75 7.75 11.0858 7.75 11.5V12.5C7.75 12.9142 7.41421 13.25 7 13.25C6.58579 13.25 6.25 12.9142 6.25 12.5ZM16.25 12.5V11.5C16.25 11.0858 16.5858 10.75 17 10.75C17.4142 10.75 17.75 11.0858 17.75 11.5V12.5C17.75 12.9142 17.4142 13.25 17 13.25C16.5858 13.25 16.25 12.9142 16.25 12.5ZM6.25 8V7.5C6.25 6.80964 6.80964 6.25 7.5 6.25H8C8.41421 6.25 8.75 6.58579 8.75 7C8.75 7.41421 8.41421 7.75 8 7.75H7.75V8C7.75 8.41421 7.41421 8.75 7 8.75C6.58579 8.75 6.25 8.41421 6.25 8ZM12.5 6.25C12.9142 6.25 13.25 6.58579 13.25 7C13.25 7.41421 12.9142 7.75 12.5 7.75H11.5C11.0858 7.75 10.75 7.41421 10.75 7C10.75 6.58579 11.0858 6.25 11.5 6.25H12.5ZM17.75 16.5C17.75 17.1904 17.1904 17.75 16.5 17.75H16C15.5858 17.75 15.25 17.4142 15.25 17C15.25 16.5858 15.5858 16.25 16 16.25H16.25V16C16.25 15.5858 16.5858 15.25 17 15.25C17.4142 15.25 17.75 15.5858 17.75 16V16.5ZM17.75 8C17.75 8.41421 17.4142 8.75 17 8.75C16.5858 8.75 16.25 8.41421 16.25 8V7.75H16C15.5858 7.75 15.25 7.41421 15.25 7C15.25 6.58579 15.5858 6.25 16 6.25H16.5C17.1904 6.25 17.75 6.80964 17.75 7.5V8ZM21.75 19C21.75 20.5188 20.5188 21.75 19 21.75H5C3.48122 21.75 2.25 20.5188 2.25 19V5C2.25 3.48122 3.48122 2.25 5 2.25H19C20.5188 2.25 21.75 3.48122 21.75 5V19Z" fill="black"/>
</svg>
