<svg width="24" height="24" viewBox="0 0 24 24" fill="none" xmlns="http://www.w3.org/2000/svg">
<path d="M20 3C20.5523 3 21 3.44772 21 4V6C21 6.55228 20.5523 7 20 7H4C3.44772 7 3 6.55228 3 6V4C3 3.44772 3.44772 3 4 3H20Z" fill="#8A38F5" fill-opacity="0.25"/>
<path d="M11.25 21V18.75H9C8.58579 18.75 8.25 18.4142 8.25 18C8.25 17.5858 8.58579 17.25 9 17.25H11.25V15C11.25 14.5858 11.5858 14.25 12 14.25C12.4142 14.25 12.75 14.5858 12.75 15V17.25H15C15.4142 17.25 15.75 17.5858 15.75 18C15.75 18.4142 15.4142 18.75 15 18.75H12.75V21C12.75 21.4142 12.4142 21.75 12 21.75C11.5858 21.75 11.25 21.4142 11.25 21ZM20.25 13V11C20.25 10.8619 20.1381 10.75 20 10.75H4C3.86193 10.75 3.75 10.8619 3.75 11V13C3.75 13.1381 3.86193 13.25 4 13.25H8C8.41421 13.25 8.75 13.5858 8.75 14C8.75 14.4142 8.41421 14.75 8 14.75H4C3.0335 14.75 2.25 13.9665 2.25 13V11C2.25 10.0335 3.0335 9.25 4 9.25H20C20.9665 9.25 21.75 10.0335 21.75 11V13C21.75 13.9665 20.9665 14.75 20 14.75H16C15.5858 14.75 15.25 14.4142 15.25 14C15.25 13.5858 15.5858 13.25 16 13.25H20C20.1381 13.25 20.25 13.1381 20.25 13ZM20.25 4C20.25 3.86193 20.1381 3.75 20 3.75H4C3.86193 3.75 3.75 3.86193 3.75 4V6C3.75 6.13807 3.86193 6.25 4 6.25H20C20.1381 6.25 20.25 6.13807 20.25 6V4ZM21.75 6C21.75 6.9665 20.9665 7.75 20 7.75H4C3.0335 7.75 2.25 6.9665 2.25 6V4C2.25 3.0335 3.0335 2.25 4 2.25H20C20.9665 2.25 21.75 3.0335 21.75 4V6Z" fill="black"/>
</svg>
