<svg width="24" height="24" viewBox="0 0 24 24" fill="none" xmlns="http://www.w3.org/2000/svg">
<path d="M21 8C21 9.10457 20.1046 10 19 10H5C3.89543 10 3 9.10457 3 8V5C3 3.89543 3.89543 3 5 3H19C20.1046 3 21 3.89543 21 5V8Z" fill="#8A38F5" fill-opacity="0.25"/>
<path d="M21 19C21 20.1046 20.1046 21 19 21H5C3.89543 21 3 20.1046 3 19V16C3 14.8954 3.89543 14 5 14H19C20.1046 14 21 14.8954 21 16V19Z" fill="#8A38F5" fill-opacity="0.25"/>
<path d="M20.25 16C20.25 15.3096 19.6904 14.75 19 14.75H5C4.30964 14.75 3.75 15.3096 3.75 16V19C3.75 19.6904 4.30964 20.25 5 20.25H19C19.6904 20.25 20.25 19.6904 20.25 19V16ZM20.25 5C20.25 4.30964 19.6904 3.75 19 3.75H5C4.30964 3.75 3.75 4.30964 3.75 5V8C3.75 8.69036 4.30964 9.25 5 9.25H19C19.6904 9.25 20.25 8.69036 20.25 8V5ZM21.75 19C21.75 20.5188 20.5188 21.75 19 21.75H5C3.48122 21.75 2.25 20.5188 2.25 19V16C2.25 14.4812 3.48122 13.25 5 13.25H19C20.5188 13.25 21.75 14.4812 21.75 16V19ZM21.75 8C21.75 9.51878 20.5188 10.75 19 10.75H5C3.48122 10.75 2.25 9.51878 2.25 8V5C2.25 3.48122 3.48122 2.25 5 2.25H19C20.5188 2.25 21.75 3.48122 21.75 5V8Z" fill="black"/>
</svg>
