<svg width="24" height="24" viewBox="0 0 24 24" fill="none" xmlns="http://www.w3.org/2000/svg">
<path d="M3 9H21V19C21 20.1046 20.1046 21 19 21H5C3.89543 21 3 20.1046 3 19V9Z" fill="#8A38F5" fill-opacity="0.25"/>
<path d="M20.25 15.75H3.75V19C3.75 19.6904 4.30964 20.25 5 20.25H19C19.6904 20.25 20.25 19.6904 20.25 19V15.75ZM6.00098 17.25C6.41519 17.25 6.75098 17.5858 6.75098 18C6.75098 18.4142 6.41519 18.75 6.00098 18.75H6C5.58579 18.75 5.25 18.4142 5.25 18C5.25 17.5858 5.58579 17.25 6 17.25H6.00098ZM9.00098 17.25C9.41519 17.25 9.75098 17.5858 9.75098 18C9.75098 18.4142 9.41519 18.75 9.00098 18.75H9C8.58579 18.75 8.25 18.4142 8.25 18C8.25 17.5858 8.58579 17.25 9 17.25H9.00098ZM18 17.25C18.4142 17.25 18.75 17.5858 18.75 18C18.75 18.4142 18.4142 18.75 18 18.75H12C11.5858 18.75 11.25 18.4142 11.25 18C11.25 17.5858 11.5858 17.25 12 17.25H18ZM3.75 14.25H20.25V9.75H3.75V14.25ZM6.00098 11.25C6.41519 11.25 6.75098 11.5858 6.75098 12C6.75098 12.4142 6.41519 12.75 6.00098 12.75H6C5.58579 12.75 5.25 12.4142 5.25 12C5.25 11.5858 5.58579 11.25 6 11.25H6.00098ZM9.00098 11.25C9.41519 11.25 9.75098 11.5858 9.75098 12C9.75098 12.4142 9.41519 12.75 9.00098 12.75H9C8.58579 12.75 8.25 12.4142 8.25 12C8.25 11.5858 8.58579 11.25 9 11.25H9.00098ZM18 11.25C18.4142 11.25 18.75 11.5858 18.75 12C18.75 12.4142 18.4142 12.75 18 12.75H12C11.5858 12.75 11.25 12.4142 11.25 12C11.25 11.5858 11.5858 11.25 12 11.25H18ZM6.44141 3.75C5.90351 3.75005 5.42607 4.09424 5.25586 4.60449L4.04102 8.25H19.959L18.7441 4.60449C18.5739 4.09424 18.0965 3.75005 17.5586 3.75H6.44141ZM21.75 19C21.75 20.5188 20.5188 21.75 19 21.75H5C3.48122 21.75 2.25 20.5188 2.25 19V9.32422C2.25001 9.25145 2.25303 9.17881 2.25879 9.10645C2.25383 9.07162 2.25 9.0362 2.25 9C2.25 8.88034 2.28024 8.76833 2.33008 8.66797C2.34771 8.59629 2.3682 8.52528 2.3916 8.45508L3.83301 4.13086C4.20731 3.00795 5.25777 2.25005 6.44141 2.25H17.5586C18.7422 2.25005 19.7927 3.00795 20.167 4.13086L21.6084 8.45508C21.6318 8.52528 21.6523 8.59629 21.6699 8.66797C21.7198 8.76833 21.75 8.88034 21.75 9C21.75 9.0362 21.7462 9.07162 21.7412 9.10645C21.747 9.17881 21.75 9.25145 21.75 9.32422V19Z" fill="black"/>
</svg>
