<svg width="24" height="24" viewBox="0 0 24 24" fill="none" xmlns="http://www.w3.org/2000/svg">
<path d="M4 10.5C4 9.39543 4.89543 8.5 6 8.5H18C19.1046 8.5 20 9.39543 20 10.5V19C20 20.1046 19.1046 21 18 21H6C4.89543 21 4 20.1046 4 19V10.5Z" fill="#8A38F5" fill-opacity="0.25"/>
<path d="M3.25 19.0001V10.5001C3.25 8.98134 4.48122 7.75012 6 7.75012H8C8.41421 7.75012 8.75 8.08591 8.75 8.50012C8.74996 8.9143 8.41419 9.25012 8 9.25012H6C5.30964 9.25012 4.75 9.80977 4.75 10.5001V19.0001C4.75004 19.6904 5.30967 20.2501 6 20.2501H18C18.6903 20.2501 19.25 19.6904 19.25 19.0001V10.5001C19.25 9.80977 18.6904 9.25012 18 9.25012H16C15.5858 9.25012 15.25 8.9143 15.25 8.50012C15.25 8.08591 15.5858 7.75012 16 7.75012H18C19.5188 7.75012 20.75 8.98134 20.75 10.5001V19.0001C20.75 20.5189 19.5188 21.7501 18 21.7501H6C4.48124 21.7501 3.25004 20.5189 3.25 19.0001ZM11.25 16.0001V3.81067L9.53027 5.5304C9.23739 5.82324 8.76261 5.82324 8.46973 5.5304C8.17685 5.23751 8.17687 4.76274 8.46973 4.46985L11.1162 1.82336L11.2109 1.73743C11.7019 1.33694 12.4261 1.3657 12.8838 1.82336L15.5303 4.46985C15.8231 4.76274 15.8232 5.23751 15.5303 5.5304C15.2374 5.82324 14.7626 5.82324 14.4697 5.5304L12.75 3.81067V16.0001C12.75 16.4143 12.4142 16.7501 12 16.7501C11.5858 16.7501 11.25 16.4143 11.25 16.0001Z" fill="black"/>
</svg>
