<svg width="24" height="24" viewBox="0 0 24 24" fill="none" xmlns="http://www.w3.org/2000/svg">
<path d="M6 12C7.10457 12 8 11.1046 8 10C8 8.89543 7.10457 8 6 8V4H18V6C16.8954 6 16 6.89543 16 8C16 9.10457 16.8954 10 18 10V20H6V12ZM10 16C10 17.1046 10.8954 18 12 18C13.1046 18 14 17.1046 14 16C14 14.8954 13.1046 14 12 14C10.8954 14 10 14.8954 10 16Z" fill="#8A38F5" fill-opacity="0.25"/>
<path d="M15.25 8C15.25 6.7415 16.0961 5.68316 17.25 5.35645V4C17.25 3.58579 17.5858 3.25 18 3.25C18.4142 3.25 18.75 3.58579 18.75 4V5.35645C19.9039 5.68316 20.75 6.7415 20.75 8C20.75 9.2585 19.9039 10.3168 18.75 10.6436V20C18.75 20.4142 18.4142 20.75 18 20.75C17.5858 20.75 17.25 20.4142 17.25 20V10.6436C16.0961 10.3168 15.25 9.2585 15.25 8ZM16.75 8C16.75 8.69036 17.3096 9.25 18 9.25C18.6904 9.25 19.25 8.69036 19.25 8C19.25 7.30964 18.6904 6.75 18 6.75C17.3096 6.75 16.75 7.30964 16.75 8ZM9.25 16C9.25 14.7415 10.0961 13.6832 11.25 13.3564V4C11.25 3.58579 11.5858 3.25 12 3.25C12.4142 3.25 12.75 3.58579 12.75 4V13.3564C13.9039 13.6832 14.75 14.7415 14.75 16C14.75 17.2585 13.9039 18.3168 12.75 18.6436V20C12.75 20.4142 12.4142 20.75 12 20.75C11.5858 20.75 11.25 20.4142 11.25 20V18.6436C10.0961 18.3168 9.25 17.2585 9.25 16ZM10.75 16C10.75 16.6904 11.3096 17.25 12 17.25C12.6904 17.25 13.25 16.6904 13.25 16C13.25 15.3096 12.6904 14.75 12 14.75C11.3096 14.75 10.75 15.3096 10.75 16ZM3.25 10C3.25 8.7415 4.09614 7.68316 5.25 7.35645V4C5.25 3.58579 5.58579 3.25 6 3.25C6.41421 3.25 6.75 3.58579 6.75 4V7.35645C7.90386 7.68316 8.75 8.7415 8.75 10C8.75 11.2585 7.90386 12.3168 6.75 12.6436V20C6.75 20.4142 6.41421 20.75 6 20.75C5.58579 20.75 5.25 20.4142 5.25 20V12.6436C4.09614 12.3168 3.25 11.2585 3.25 10ZM4.75 10C4.75 10.6904 5.30964 11.25 6 11.25C6.69036 11.25 7.25 10.6904 7.25 10C7.25 9.30964 6.69036 8.75 6 8.75C5.30964 8.75 4.75 9.30964 4.75 10Z" fill="black"/>
</svg>
