<svg width="24" height="24" viewBox="0 0 24 24" fill="none" xmlns="http://www.w3.org/2000/svg">
<path d="M16 12C16 14.2091 14.2091 16 12 16C9.79086 16 8 14.2091 8 12C8 9.79086 9.79086 8 12 8C14.2091 8 16 9.79086 16 12Z" fill="#8A38F5" fill-opacity="0.25"/>
<path d="M12 19.75C12.4142 19.75 12.75 20.0858 12.75 20.5V21C12.75 21.4142 12.4142 21.75 12 21.75H11.999C11.5848 21.75 11.249 21.4142 11.249 21V20.5C11.249 20.0858 11.5848 19.75 11.999 19.75H12ZM5.45703 17.4805C5.74933 17.187 6.2241 17.1862 6.51758 17.4785C6.81106 17.7708 6.81184 18.2456 6.51953 18.5391L6.16699 18.8936C5.87469 19.1868 5.39985 19.1877 5.10645 18.8955C4.81299 18.6032 4.81225 18.1284 5.10449 17.835L5.45703 17.4805ZM18.0107 17.2607C18.2096 17.2608 18.4004 17.3398 18.541 17.4805L18.8945 17.834C19.187 18.1266 19.1876 18.6006 18.8955 18.8936C18.6031 19.1865 18.1282 19.1875 17.835 18.8955L17.4805 18.543C17.3394 18.4025 17.26 18.2108 17.2598 18.0117C17.2596 17.8128 17.3389 17.6222 17.4795 17.4814L17.4805 17.4805L17.5938 17.3867C17.7161 17.3049 17.8613 17.2608 18.0107 17.2607ZM15.25 12C15.25 10.2051 13.7949 8.75 12 8.75C10.2051 8.75 8.75 10.2051 8.75 12C8.75 13.7949 10.2051 15.25 12 15.25C13.7949 15.25 15.25 13.7949 15.25 12ZM21 11.25C21.4142 11.25 21.75 11.5858 21.75 12V12.001C21.75 12.4152 21.4142 12.751 21 12.751H20.5C20.0858 12.751 19.75 12.4152 19.75 12.001V12C19.75 11.5858 20.0858 11.25 20.5 11.25H21ZM3.5 11.249L3.57715 11.2529C3.95512 11.2916 4.25 11.6109 4.25 11.999V12C4.25 12.4142 3.91421 12.75 3.5 12.75H3C2.58579 12.75 2.25 12.4142 2.25 12V11.999C2.25 11.5848 2.58579 11.249 3 11.249H3.5ZM17.834 5.10547C18.1267 4.81293 18.6016 4.81313 18.8945 5.10547C19.1871 5.39787 19.1874 5.87189 18.8955 6.16504L18.543 6.51953C18.4025 6.66052 18.2117 6.73989 18.0127 6.74023C17.8136 6.74047 17.6223 6.66127 17.4814 6.52051H17.4805C17.3397 6.37987 17.2608 6.18821 17.2607 5.98926C17.2608 5.84012 17.3051 5.6955 17.3867 5.57324L17.4805 5.45898L17.834 5.10547ZM5.63672 4.88574C5.83563 4.88574 6.02634 4.96482 6.16699 5.10547L6.28125 5.21973L6.51953 5.45703H6.51855L6.52051 5.45898C6.81309 5.75163 6.81373 6.22559 6.52148 6.51855C6.22909 6.81153 5.75421 6.81261 5.46094 6.52051L5.10645 6.16602V6.16504C4.96623 6.02462 4.88692 5.83521 4.88672 5.63672C4.88654 5.43762 4.96471 5.24628 5.10547 5.10547H5.10645C5.24705 4.96487 5.43789 4.8858 5.63672 4.88574ZM12.001 2.25C12.4152 2.25 12.751 2.58579 12.751 3V3.5L12.7471 3.57715C12.7084 3.95512 12.3891 4.25 12.001 4.25H12C11.5858 4.25 11.25 3.91421 11.25 3.5V3C11.25 2.58579 11.5858 2.25 12 2.25H12.001ZM16.75 12C16.75 14.6234 14.6234 16.75 12 16.75C9.37665 16.75 7.25 14.6234 7.25 12C7.25 9.37665 9.37665 7.25 12 7.25C14.6234 7.25 16.75 9.37665 16.75 12Z" fill="black"/>
</svg>
