<svg width="24" height="24" viewBox="0 0 24 24" fill="none" xmlns="http://www.w3.org/2000/svg">
<path d="M15.9691 15C15.9895 14.8362 16 14.6693 16 14.5C16 12.2909 14.2091 10.5 12 10.5C9.79086 10.5 8 12.2909 8 14.5C8 14.6693 8.01052 14.8362 8.03095 15H15.9691Z" fill="#8A38F5" fill-opacity="0.25"/>
<path d="M21 17.25C21.4142 17.25 21.75 17.5858 21.75 18C21.75 18.4142 21.4142 18.75 21 18.75H3C2.58579 18.75 2.25 18.4142 2.25 18C2.25 17.5858 2.58579 17.25 3 17.25H21ZM21 13.75C21.4142 13.75 21.75 14.0858 21.75 14.5V14.501C21.75 14.9152 21.4142 15.251 21 15.251H19.5C19.0858 15.251 18.75 14.9152 18.75 14.501V14.5C18.75 14.0858 19.0858 13.75 19.5 13.75H21ZM4.5 13.749L4.57715 13.7529C4.95512 13.7916 5.25 14.1109 5.25 14.499V14.5C5.25 14.9142 4.91421 15.25 4.5 15.25H3C2.58579 15.25 2.25 14.9142 2.25 14.5V14.499C2.25 14.0848 2.58579 13.749 3 13.749H4.5ZM15.25 14.5C15.25 12.7051 13.7949 11.25 12 11.25C10.2051 11.25 8.75 12.7051 8.75 14.5C8.75 14.9142 8.41421 15.25 8 15.25C7.58579 15.25 7.25 14.9142 7.25 14.5C7.25 11.8766 9.37665 9.75 12 9.75C14.6234 9.75 16.75 11.8766 16.75 14.5C16.75 14.9142 16.4142 15.25 16 15.25C15.5858 15.25 15.25 14.9142 15.25 14.5ZM17.834 7.60547C18.1268 7.3128 18.6017 7.31279 18.8945 7.60547C19.1874 7.8982 19.1872 8.373 18.8945 8.66602L17.835 9.72754C17.6944 9.86826 17.5036 9.94716 17.3047 9.94727C17.1057 9.94737 16.9151 9.86817 16.7744 9.72754H16.7734C16.6328 9.58701 16.5539 9.39607 16.5537 9.19727C16.5537 9.04793 16.598 8.90268 16.6797 8.78027L16.7734 8.66602L17.834 7.60547ZM5.10645 7.60547C5.39934 7.31258 5.8741 7.31258 6.16699 7.60547L7.22754 8.66602C7.5202 8.95893 7.52036 9.43375 7.22754 9.72656H7.22656C6.93367 10.0195 6.45891 10.0195 6.16602 9.72656L5.10547 8.66602C4.81272 8.37311 4.81262 7.89831 5.10547 7.60547H5.10645ZM11.25 7V5.5C11.25 5.08579 11.5858 4.75 12 4.75C12.4142 4.75 12.75 5.08579 12.75 5.5V7C12.75 7.41421 12.4142 7.75 12 7.75C11.5858 7.75 11.25 7.41421 11.25 7Z" fill="black"/>
</svg>
