<svg width="24" height="24" viewBox="0 0 24 24" fill="none" xmlns="http://www.w3.org/2000/svg">
<path d="M15.9691 15C15.9895 14.8362 16 14.6693 16 14.5C16 12.2909 14.2091 10.5 12 10.5C9.79086 10.5 8 12.2909 8 14.5C8 14.6693 8.01052 14.8362 8.03095 15H15.9691Z" fill="#8A38F5" fill-opacity="0.25"/>
<path d="M21 17.2501C21.4142 17.2501 21.75 17.5859 21.75 18.0001C21.75 18.4143 21.4142 18.7501 21 18.7501H3C2.58581 18.7501 2.25004 18.4143 2.25 18.0001C2.25 17.5859 2.58579 17.2501 3 17.2501H21ZM4.5 13.7501C4.91421 13.7501 5.25 14.0859 5.25 14.5001C5.24996 14.9143 4.91419 15.2501 4.5 15.2501H3C2.58581 15.2501 2.25004 14.9143 2.25 14.5001C2.25 14.0859 2.58579 13.7501 3 13.7501H4.5ZM15.25 14.5001C15.25 12.7052 13.7949 11.2501 12 11.2501C10.2051 11.2501 8.75 12.7052 8.75 14.5001C8.74996 14.9143 8.41419 15.2501 8 15.2501C7.58581 15.2501 7.25004 14.9143 7.25 14.5001C7.25 11.8768 9.37665 9.75012 12 9.75012C14.6234 9.75012 16.75 11.8768 16.75 14.5001C16.75 14.9143 16.4142 15.2501 16 15.2501C15.5858 15.2501 15.25 14.9143 15.25 14.5001ZM21 13.7501C21.4142 13.7501 21.75 14.0859 21.75 14.5001C21.75 14.9143 21.4142 15.2501 21 15.2501H19.5C19.0858 15.2501 18.75 14.9143 18.75 14.5001C18.75 14.0859 19.0858 13.7501 19.5 13.7501H21ZM5.10547 7.60559C5.39833 7.31285 5.87315 7.31285 6.16602 7.60559L7.22656 8.66614C7.51942 8.95899 7.51934 9.43378 7.22656 9.72668C6.93367 10.0196 6.45891 10.0196 6.16602 9.72668L5.10547 8.66614C4.81269 8.37323 4.81261 7.89845 5.10547 7.60559ZM17.833 7.60559C18.1259 7.3127 18.6016 7.3127 18.8945 7.60559C19.1872 7.89837 19.187 8.37326 18.8945 8.66614L17.833 9.72668C17.5401 10.0196 17.0653 10.0196 16.7725 9.72668C16.4799 9.43377 16.4797 8.95891 16.7725 8.66614L17.833 7.60559ZM11.25 7.00012V3.81067L10.0303 5.0304C9.73739 5.32324 9.26261 5.32324 8.96973 5.0304C8.67685 4.73751 8.67687 4.26274 8.96973 3.96985L11.1162 1.82336L11.2109 1.73743C11.7019 1.33694 12.4261 1.3657 12.8838 1.82336L15.0303 3.96985C15.3231 4.26274 15.3232 4.73751 15.0303 5.0304C14.7374 5.32324 14.2626 5.32324 13.9697 5.0304L12.75 3.81067V7.00012C12.75 7.4143 12.4142 7.75012 12 7.75012C11.5858 7.75012 11.25 7.4143 11.25 7.00012Z" fill="black"/>
</svg>
