<svg width="24" height="24" viewBox="0 0 24 24" fill="none" xmlns="http://www.w3.org/2000/svg">
<path d="M15.9691 15C15.9895 14.8362 16 14.6693 16 14.5C16 12.2909 14.2091 10.5 12 10.5C9.79086 10.5 8 12.2909 8 14.5C8 14.6693 8.01052 14.8362 8.03095 15H15.9691Z" fill="#8A38F5" fill-opacity="0.25"/>
<path d="M21 17.3536C21.4142 17.3536 21.75 17.6894 21.75 18.1036C21.75 18.5179 21.4142 18.8536 21 18.8536H3C2.58579 18.8536 2.25 18.5179 2.25 18.1036C2.25 17.6894 2.58579 17.3536 3 17.3536H21ZM4.5 13.8536C4.91421 13.8536 5.25 14.1894 5.25 14.6036C5.25 15.0179 4.91421 15.3536 4.5 15.3536H3C2.58579 15.3536 2.25 15.0179 2.25 14.6036C2.25 14.1894 2.58579 13.8536 3 13.8536H4.5ZM15.25 14.6036C15.25 12.8087 13.7949 11.3536 12 11.3536C10.2051 11.3536 8.75 12.8087 8.75 14.6036C8.75 15.0179 8.41421 15.3536 8 15.3536C7.58579 15.3536 7.25 15.0179 7.25 14.6036C7.25 11.9803 9.37665 9.85364 12 9.85364C14.6234 9.85364 16.75 11.9803 16.75 14.6036C16.75 15.0179 16.4142 15.3536 16 15.3536C15.5858 15.3536 15.25 15.0179 15.25 14.6036ZM21 13.8536C21.4142 13.8536 21.75 14.1894 21.75 14.6036C21.75 15.0179 21.4142 15.3536 21 15.3536H19.5C19.0858 15.3536 18.75 15.0179 18.75 14.6036C18.75 14.1894 19.0858 13.8536 19.5 13.8536H21ZM5.10547 7.70911C5.39832 7.41642 5.87316 7.41642 6.16602 7.70911L7.22656 8.76965C7.5194 9.0625 7.5193 9.53729 7.22656 9.8302C6.93367 10.1231 6.45891 10.1231 6.16602 9.8302L5.10547 8.76965C4.81273 8.47675 4.81263 8.00195 5.10547 7.70911ZM17.833 7.70911C18.1259 7.41621 18.6016 7.41621 18.8945 7.70911C19.1872 8.00187 19.187 8.47676 18.8945 8.76965L17.833 9.8302C17.5401 10.1231 17.0654 10.1231 16.7725 9.8302C16.48 9.53728 16.4797 9.06241 16.7725 8.76965L17.833 7.70911ZM11.25 2.10364C11.25 1.68942 11.5858 1.35364 12 1.35364C12.4142 1.35364 12.75 1.68942 12.75 2.10364V5.29309L13.9697 4.07336C14.2626 3.78047 14.7374 3.78047 15.0303 4.07336C15.3232 4.36626 15.3232 4.84102 15.0303 5.13391L12.8838 7.2804C12.3956 7.7685 11.6044 7.7685 11.1162 7.2804L8.96973 5.13391C8.67683 4.84102 8.67683 4.36626 8.96973 4.07336C9.26262 3.78047 9.73738 3.78047 10.0303 4.07336L11.25 5.29309V2.10364Z" fill="black"/>
</svg>
