<svg width="24" height="24" viewBox="0 0 24 24" fill="none" xmlns="http://www.w3.org/2000/svg">
<path d="M4 6H20V18H4V6Z" fill="#8A38F5" fill-opacity="0.25"/>
<path d="M20 17.25C20.4142 17.25 20.75 17.5858 20.75 18C20.75 18.4142 20.4142 18.75 20 18.75H4C3.58579 18.75 3.25 18.4142 3.25 18C3.25 17.5858 3.58579 17.25 4 17.25H20ZM20 13.25C20.4142 13.25 20.75 13.5858 20.75 14C20.75 14.4142 20.4142 14.75 20 14.75H4C3.58579 14.75 3.25 14.4142 3.25 14C3.25 13.5858 3.58579 13.25 4 13.25H20ZM20 9.25C20.4142 9.25 20.75 9.58579 20.75 10C20.75 10.4142 20.4142 10.75 20 10.75H4C3.58579 10.75 3.25 10.4142 3.25 10C3.25 9.58579 3.58579 9.25 4 9.25H20ZM20 5.25C20.4142 5.25 20.75 5.58579 20.75 6C20.75 6.41421 20.4142 6.75 20 6.75H4C3.58579 6.75 3.25 6.41421 3.25 6C3.25 5.58579 3.58579 5.25 4 5.25H20Z" fill="black"/>
</svg>
