<svg width="24" height="24" viewBox="0 0 24 24" fill="none" xmlns="http://www.w3.org/2000/svg">
<path d="M3 5C3 3.89543 3.89543 3 5 3H19C20.1046 3 21 3.89543 21 5V19C21 20.1046 20.1046 21 19 21H5C3.89543 21 3 20.1046 3 19V5Z" fill="#8A38F5" fill-opacity="0.25"/>
<path d="M2.25 19V17C2.25 16.5858 2.58579 16.25 3 16.25C3.41421 16.25 3.75 16.5858 3.75 17V19C3.75 19.6904 4.30964 20.25 5 20.25H7C7.41421 20.25 7.75 20.5858 7.75 21C7.75 21.4142 7.41421 21.75 7 21.75H5C3.48122 21.75 2.25 20.5188 2.25 19ZM20.25 19V17C20.25 16.5858 20.5858 16.25 21 16.25C21.4142 16.25 21.75 16.5858 21.75 17V19C21.75 20.5188 20.5188 21.75 19 21.75H17C16.5858 21.75 16.25 21.4142 16.25 21C16.25 20.5858 16.5858 20.25 17 20.25H19C19.6904 20.25 20.25 19.6904 20.25 19ZM12.5 15.75C12.9142 15.75 13.25 16.0858 13.25 16.5C13.25 16.9142 12.9142 17.25 12.5 17.25H7.5C7.08579 17.25 6.75 16.9142 6.75 16.5C6.75 16.0858 7.08579 15.75 7.5 15.75H12.5ZM16.5 11.25C16.9142 11.25 17.25 11.5858 17.25 12C17.25 12.4142 16.9142 12.75 16.5 12.75H7.5C7.08579 12.75 6.75 12.4142 6.75 12C6.75 11.5858 7.08579 11.25 7.5 11.25H16.5ZM16.5 6.75C16.9142 6.75 17.25 7.08579 17.25 7.5C17.25 7.91421 16.9142 8.25 16.5 8.25H7.5C7.08579 8.25 6.75 7.91421 6.75 7.5C6.75 7.08579 7.08579 6.75 7.5 6.75H16.5ZM2.25 7V5C2.25 3.48122 3.48122 2.25 5 2.25H7C7.41421 2.25 7.75 2.58579 7.75 3C7.75 3.41421 7.41421 3.75 7 3.75H5C4.30964 3.75 3.75 4.30964 3.75 5V7C3.75 7.41421 3.41421 7.75 3 7.75C2.58579 7.75 2.25 7.41421 2.25 7ZM20.25 7V5C20.25 4.30964 19.6904 3.75 19 3.75H17C16.5858 3.75 16.25 3.41421 16.25 3C16.25 2.58579 16.5858 2.25 17 2.25H19C20.5188 2.25 21.75 3.48122 21.75 5V7C21.75 7.41421 21.4142 7.75 21 7.75C20.5858 7.75 20.25 7.41421 20.25 7Z" fill="black"/>
</svg>
