<svg width="24" height="24" viewBox="0 0 24 24" fill="none" xmlns="http://www.w3.org/2000/svg">
<path d="M11.5713 3.21455C11.7655 2.89088 12.2345 2.89088 12.4287 3.21455L22.0457 19.2427C22.2456 19.576 22.0056 20 21.6169 20H2.3831C1.99445 20 1.75439 19.576 1.95435 19.2427L11.5713 3.21455Z" fill="#8A38F5" fill-opacity="0.25"/>
<path d="M1.84523 17.966C2.05839 17.611 2.51941 17.4961 2.87452 17.7092C3.22971 17.9223 3.34447 18.3833 3.13136 18.7385L2.82472 19.2502H3.45167C3.86588 19.2502 4.20167 19.586 4.20167 20.0002C4.20159 20.4143 3.86583 20.7502 3.45167 20.7502H2.38331C1.41169 20.7502 0.811152 19.6898 1.31105 18.8566L1.84523 17.966ZM9.8628 19.2502C10.277 19.2502 10.6128 19.586 10.6128 20.0002C10.6127 20.4143 10.277 20.7502 9.8628 20.7502H7.72608C7.31192 20.7502 6.97616 20.4143 6.97608 20.0002C6.97608 19.586 7.31187 19.2502 7.72608 19.2502H9.8628ZM16.2739 19.2502C16.6882 19.2502 17.0239 19.586 17.0239 20.0002C17.0239 20.4143 16.6881 20.7502 16.2739 20.7502H14.1372C13.7231 20.7502 13.3873 20.4143 13.3872 20.0002C13.3872 19.586 13.723 19.2502 14.1372 19.2502H16.2739ZM21.1255 17.7092C21.4806 17.4961 21.9416 17.611 22.1548 17.966L22.689 18.8566C23.1889 19.6898 22.5883 20.7502 21.6167 20.7502H20.5483C20.1342 20.7502 19.7984 20.4143 19.7983 20.0002C19.7983 19.586 20.1341 19.2502 20.5483 19.2502H21.1753L20.8687 18.7385C20.6556 18.3833 20.7703 17.9223 21.1255 17.7092ZM5.05128 12.6242C5.26439 12.269 5.72539 12.1533 6.08058 12.3664C6.43554 12.5796 6.55047 13.0406 6.33741 13.3957L5.26905 15.176C5.05594 15.5311 4.59494 15.6469 4.23976 15.4338C3.88458 15.2207 3.76981 14.7597 3.98292 14.4045L5.05128 12.6242ZM17.9194 12.3664C18.2746 12.1533 18.7356 12.269 18.9487 12.6242L20.0171 14.4045C20.2302 14.7597 20.1154 15.2207 19.7603 15.4338C19.4051 15.6469 18.9441 15.5311 18.731 15.176L17.6626 13.3957C17.4496 13.0406 17.5645 12.5796 17.9194 12.3664ZM8.25636 7.28143C8.46944 6.92629 8.93049 6.81063 9.28566 7.02362C9.64081 7.23671 9.75652 7.69774 9.54347 8.05291L8.47413 9.83319C8.26108 10.1883 7.80096 10.3039 7.44581 10.091C7.09063 9.87789 6.97489 9.41689 7.188 9.0617L8.25636 7.28143ZM14.7144 7.02362C15.0695 6.81063 15.5306 6.92629 15.7437 7.28143L16.812 9.0617C17.0251 9.41689 16.9094 9.87789 16.5542 10.091C16.1991 10.3039 15.7389 10.1883 15.5259 9.83319L14.4566 8.05291C14.2435 7.69774 14.3592 7.23671 14.7144 7.02362ZM11.0269 2.6867C11.5222 2.067 12.4779 2.067 12.9732 2.6867L13.0718 2.8283L13.606 3.71893C13.819 4.07406 13.7042 4.53508 13.3491 4.74823C12.994 4.96128 12.533 4.84634 12.3198 4.49139L11.9995 3.95721L11.6802 4.49139C11.467 4.84634 11.006 4.96128 10.6509 4.74823C10.2958 4.53507 10.181 4.07406 10.3941 3.71893L10.9282 2.8283L11.0269 2.6867Z" fill="black"/>
</svg>
