<svg width="24" height="24" viewBox="0 0 24 24" fill="none" xmlns="http://www.w3.org/2000/svg">
<path d="M10.7138 4.64378C11.2964 3.67278 12.7036 3.67277 13.2862 4.64378L21.137 17.7283C21.7368 18.7281 21.0167 20.0001 19.8507 20.0001H4.14929C2.98335 20.0001 2.26318 18.7281 2.86305 17.7283L10.7138 4.64378Z" fill="#8A38F5" fill-opacity="0.25"/>
<path d="M10.0703 4.25828C10.9442 2.80177 13.0548 2.80176 13.9287 4.25828L21.7793 17.3423C22.679 18.8418 21.5993 20.7502 19.8506 20.7505H4.14844C2.39974 20.7502 1.31998 18.8418 2.21973 17.3423L10.0703 4.25828ZM12.6426 5.02976C12.3513 4.54426 11.6477 4.54426 11.3564 5.02976L3.50586 18.1137C3.20599 18.6135 3.56568 19.2502 4.14844 19.2505H19.8506C20.4333 19.2502 20.793 18.6135 20.4932 18.1137L12.6426 5.02976Z" fill="black"/>
</svg>
