<svg width="24" height="24" viewBox="0 0 24 24" fill="none" xmlns="http://www.w3.org/2000/svg">
<path d="M21 12C21 16.9706 16.9706 21 12 21C7.02944 21 3 16.9706 3 12C3 7.02944 7.02944 3 12 3C16.9706 3 21 7.02944 21 12Z" fill="#8A38F5" fill-opacity="0.25"/>
<path d="M20.25 12C20.25 7.44365 16.5563 3.75 12 3.75C7.44365 3.75 3.75 7.44365 3.75 12C3.75 16.5563 7.44365 20.25 12 20.25C16.5563 20.25 20.25 16.5563 20.25 12ZM14.6514 8.28809C14.9443 7.99519 15.42 7.99519 15.7129 8.28809C16.0053 8.58098 16.0055 9.05588 15.7129 9.34863L13.0605 12L15.7129 14.6514C16.0055 14.9441 16.0053 15.419 15.7129 15.7119C15.42 16.0048 14.9443 16.0048 14.6514 15.7119L12 13.0605L9.34863 15.7119C9.05574 16.0048 8.58098 16.0048 8.28809 15.7119C7.99524 15.419 7.99521 14.9442 8.28809 14.6514L10.9395 12L8.28809 9.34863C7.99521 9.05575 7.99524 8.58098 8.28809 8.28809C8.58098 7.99519 9.05574 7.99519 9.34863 8.28809L12 10.9385L14.6514 8.28809ZM21.75 12C21.75 17.3848 17.3848 21.75 12 21.75C6.61522 21.75 2.25 17.3848 2.25 12C2.25 6.61522 6.61522 2.25 12 2.25C17.3848 2.25 21.75 6.61522 21.75 12Z" fill="black"/>
</svg>
