<svg width="24" height="24" viewBox="0 0 24 24" fill="none" xmlns="http://www.w3.org/2000/svg">
<path d="M3 5C3 3.89543 3.89543 3 5 3H19C20.1046 3 21 3.89543 21 5V19C21 20.1046 20.1046 21 19 21H5C3.89543 21 3 20.1046 3 19V5Z" fill="#8A38F5" fill-opacity="0.25"/>
<path d="M20.25 5C20.25 4.30964 19.6904 3.75 19 3.75H5C4.30964 3.75 3.75 4.30964 3.75 5V19C3.75 19.6904 4.30964 20.25 5 20.25H19C19.6904 20.25 20.25 19.6904 20.25 19V5ZM14.6514 8.28809C14.9443 7.99519 15.42 7.99519 15.7129 8.28809C16.0053 8.58098 16.0055 9.05588 15.7129 9.34863L13.0605 12L15.7129 14.6514C16.0055 14.9441 16.0053 15.419 15.7129 15.7119C15.42 16.0048 14.9443 16.0048 14.6514 15.7119L12 13.0605L9.34863 15.7119C9.05574 16.0048 8.58098 16.0048 8.28809 15.7119C7.99524 15.419 7.99521 14.9442 8.28809 14.6514L10.9395 12L8.28809 9.34863C7.99521 9.05575 7.99524 8.58098 8.28809 8.28809C8.58098 7.99519 9.05574 7.99519 9.34863 8.28809L12 10.9385L14.6514 8.28809ZM21.75 19C21.75 20.5188 20.5188 21.75 19 21.75H5C3.48122 21.75 2.25 20.5188 2.25 19V5C2.25 3.48122 3.48122 2.25 5 2.25H19C20.5188 2.25 21.75 3.48122 21.75 5V19Z" fill="black"/>
</svg>
