<svg width="24" height="24" viewBox="0 0 24 24" fill="none" xmlns="http://www.w3.org/2000/svg">
<path d="M5 5H19V19H5V5Z" fill="#8A38F5" fill-opacity="0.25"/>
<path d="M18.4697 4.46967C18.7626 4.17678 19.2374 4.17678 19.5303 4.46967C19.8232 4.76256 19.8232 5.23732 19.5303 5.53022L13.0606 11.9999L19.5303 18.4697C19.8232 18.7626 19.8232 19.2373 19.5303 19.5302C19.2374 19.8231 18.7626 19.8231 18.4697 19.5302L12 13.0605L5.53028 19.5302C5.23738 19.8231 4.76262 19.8231 4.46973 19.5302C4.17684 19.2373 4.17684 18.7626 4.46973 18.4697L10.9395 11.9999L4.46973 5.53022C4.17684 5.23732 4.17684 4.76256 4.46973 4.46967C4.76262 4.17678 5.23738 4.17678 5.53028 4.46967L12 10.9394L18.4697 4.46967Z" fill="black"/>
</svg>
